<?xml version="1.0" encoding="utf-8"?>
<!-- Generator: Adobe Illustrator 22.0.0, SVG Export Plug-In . SVG Version: 6.00 Build 0)  -->
<svg version="1.1" id="Layer_1" xmlns="http://www.w3.org/2000/svg" xmlns:xlink="http://www.w3.org/1999/xlink" x="0px" y="0px"
	 viewBox="0 0 500 500" style="enable-background:new 0 0 500 500;" xml:space="preserve">
<style type="text/css">
	.st0{fill:url(#SVGID_1_);}
	.st1{fill:#FFFFFF;}
</style>
<title>decentraland</title>
<linearGradient id="SVGID_1_" gradientUnits="userSpaceOnUse" x1="1539" y1="619.3" x2="1039" y2="619.3" gradientTransform="matrix(0 -1 -1 0 869.3 1539)">
	<stop  offset="0" style="stop-color:#0995F9"/>
	<stop  offset="1" style="stop-color:#063DBB"/>
</linearGradient>
<polygon class="st0" points="500,0 500,500 0,500 0,0 "/>
<path class="st1" d="M132.9,81.7l-21.7,21.7l52.4,54.2l52.4,54.2v50.6v50.6h32.5h30.7v-50.6v-50.6l52.4-54.2l52.4-54.2l-21.7-21.7
	L340.8,60l-47,47c-25.3,25.3-47,47-47,47s-21.7-21.7-47-47s-47-47-47-47C154.6,60,145.5,70.8,132.9,81.7z M111.2,208.2
	c-7.2,14.5-14.5,38-16.3,57.9c-1.8,9,0,30.7,1.8,39.8c12.7,86.8,94,146.4,180.8,132c56-10.8,103.1-50.6,121.1-104.9
	c5.4-18.1,7.2-30.7,7.2-50.6c0-21.7-1.8-36.2-9-56c-1.8-7.2-9-19.9-9-19.9s-10.8,10.8-23.5,23.5c-23.5,21.7-25.3,23.5-25.3,25.3
	c0,1.8,0,3.6,1.8,7.2c1.8,7.2,1.8,18.1,1.8,27.1c0,9-1.8,14.5-3.6,23.5c-9,27.1-30.7,50.6-57.9,59.7c-10.8,3.6-16.3,3.6-28.9,5.4
	c-14.5,0-18.1,0-28.9-3.6c-32.5-12.7-56-36.2-65.1-66.9c-3.6-9-3.6-16.3-3.6-27.1s0-12.7,3.6-25.3c0-1.8-5.4-7.2-23.5-25.3
	l-23.5-23.5V208.2z"/>
</svg>
