<svg width="500" height="500" viewBox="0 0 500 500" fill="none" xmlns="http://www.w3.org/2000/svg">
<g clip-path="url(#clip0_170_1461)">
<path d="M500 0V500H0V0H500Z" fill="url(#paint0_linear_170_1461)"/>
<path d="M242.231 95.062C243.797 102.491 244.833 110.023 245.331 117.599C245.61 171.725 245.486 225.851 245.486 281.899H270.627C315.05 281.899 359.473 282.147 403.927 281.744C417.102 281.744 422.527 286.425 422.217 299.941C421.566 328.864 422.372 357.818 421.721 386.741C421.721 392.941 417.877 398.924 415.8 405H363.1L245.3 282.488V405H112V287.2C118.789 285.433 125.547 282.333 132.367 282.178C156.113 281.527 179.89 281.93 203.667 281.93H244.711C238.511 275.203 235.194 271.452 231.722 267.856L112.031 144.6V95L242.231 95.062Z" fill="white"/>
</g>
<defs>
<linearGradient id="paint0_linear_170_1461" x1="250" y1="0" x2="250" y2="500" gradientUnits="userSpaceOnUse">
<stop stop-color="#101114"/>
<stop offset="1" stop-color="#101114"/>
</linearGradient>
<clipPath id="clip0_170_1461">
<rect width="500" height="500" fill="white"/>
</clipPath>
</defs>
</svg>
