<?xml version="1.0" encoding="utf-8"?>
<!-- Generator: Adobe Illustrator 22.0.0, SVG Export Plug-In . SVG Version: 6.00 Build 0)  -->
<svg version="1.1" id="Layer_1" xmlns="http://www.w3.org/2000/svg" xmlns:xlink="http://www.w3.org/1999/xlink" x="0px" y="0px"
	 viewBox="0 0 40 40" style="enable-background:new 0 0 40 40;" xml:space="preserve">
<style type="text/css">
	.st0{fill:url(#SVGID_1_);}
	.st1{fill:#FFFFFF;}
</style>
<linearGradient id="SVGID_1_" gradientUnits="userSpaceOnUse" x1="1067.2169" y1="-3085.1785" x2="1104.5087" y2="-3085.1785" gradientTransform="matrix(0 1 -1 0 -3065.1785 -1066.0419)">
	<stop  offset="1.198744e-03" style="stop-color:#5F3F76"/>
	<stop  offset="1" style="stop-color:#251C33"/>
</linearGradient>
<path class="st0" d="M37,26.1V13.5c0-2.1-1.1-4.1-3-5.2L23,2c-1.9-1.1-4.1-1.1-6,0L6,8.3c-1.9,1.1-3,3.1-3,5.2v12.6
	c0,2.1,1.1,4.1,3,5.2l11,6.3c1.9,1.1,4.1,1.1,6,0l11-6.3C35.8,30.2,37,28.3,37,26.1z"/>
<g id="Layer_2_1_">
	<g id="Layer_1-2">
		<g id="Page-1">
			<g id="wbtc_colour">
				<path id="Shape" class="st1" d="M26.6,13.9L26,14.5c2.9,3.1,2.9,7.9,0,11l0.6,0.6C29.8,22.6,29.8,17.3,26.6,13.9L26.6,13.9z"/>
				<path id="Shape-2" class="st1" d="M14.5,14c3.1-2.9,7.9-2.9,11,0l0.6-0.6c-3.4-3.2-8.7-3.2-12.2,0L14.5,14z"/>
				<path id="Shape-3" class="st1" d="M14,25.5c-2.8-3.1-2.8-7.9,0-11l-0.6-0.6c-3.2,3.4-3.2,8.7,0,12.2L14,25.5z"/>
				<path id="Shape-4" class="st1" d="M25.5,26c-3.1,2.9-7.9,2.9-11,0l-0.6,0.6c3.4,3.2,8.7,3.2,12.2,0L25.5,26z"/>
				<path id="Shape-5" class="st1" d="M23.6,18.1c-0.1-1.2-1.2-1.6-2.5-1.7v-1.7h-1v1.6c-0.3,0-0.5,0-0.8,0v-1.6h-1v1.7h-2.1v1.1
					c0,0,0.7,0,0.7,0c0.3,0,0.5,0.2,0.6,0.4v4.6c0,0.1-0.1,0.2-0.1,0.2c-0.1,0.1-0.2,0.1-0.3,0.1c0,0-0.7,0-0.7,0L16.3,24h2v1.7h1
					V24h0.8v1.7h1V24c1.7-0.1,2.9-0.5,3.1-2.1c0.1-1.3-0.5-1.9-1.5-2.1C23.4,19.5,23.7,19,23.6,18.1z M22.2,21.7
					c0,1.3-2.2,1.1-2.8,1.1v-2.2C20.1,20.6,22.2,20.4,22.2,21.7z M21.7,18.5c0,1.2-1.8,1-2.4,1v-2C19.9,17.5,21.7,17.3,21.7,18.5z"
					/>
				<path id="Shape-6" class="st1" d="M20,30.5c-5.8,0-10.5-4.7-10.5-10.5c0-5.8,4.7-10.5,10.5-10.5c5.8,0,10.5,4.7,10.5,10.5
					C30.5,25.8,25.8,30.5,20,30.5C20,30.5,20,30.5,20,30.5z M20,10.3c-5.3,0-9.7,4.3-9.7,9.7c0,5.3,4.3,9.7,9.7,9.7
					c5.3,0,9.7-4.3,9.7-9.7C29.7,14.7,25.4,10.3,20,10.3C20,10.3,20,10.3,20,10.3z"/>
			</g>
		</g>
	</g>
</g>
</svg>
