<?xml version="1.0" encoding="utf-8"?>
<!-- Generator: Adobe Illustrator 22.0.0, SVG Export Plug-In . SVG Version: 6.00 Build 0)  -->
<svg version="1.1" id="Layer_1" xmlns="http://www.w3.org/2000/svg" xmlns:xlink="http://www.w3.org/1999/xlink" x="0px" y="0px"
	 viewBox="0 0 500 500" style="enable-background:new 0 0 500 500;" xml:space="preserve">
<style type="text/css">
	.st0{fill:url(#SVGID_1_);}
	.st1{fill:#FF1100;}
	.st2{fill:#FDBF41;}
	.st3{fill:#F1ECE2;}
	.st4{fill:#007FFF;}
	.st5{opacity:0.48;fill:url(#SVGID_2_);enable-background:new    ;}
</style>
<title>decentraland</title>
<linearGradient id="SVGID_1_" gradientUnits="userSpaceOnUse" x1="1739" y1="-27.3" x2="1239" y2="-27.3" gradientTransform="matrix(0 -1 1 0 277.3 1739)">
	<stop  offset="0" style="stop-color:#528DCA"/>
	<stop  offset="0.5" style="stop-color:#E1B967"/>
	<stop  offset="1" style="stop-color:#DC3F35"/>
</linearGradient>
<polygon class="st0" points="500,0 500,500 0,500 0,0 "/>
<g>
	<path class="st1" d="M272.4,350.5c-64.1,0.8-114-8.1-151.1-20.1c-7.3-2.5-23.1-9.7-28.4-18.8c-2.9-5.1-3-18-1.9-31.4
		c0.3,0.9,0.6,1.7,1,2.4c5.3,9.1,21.2,16.3,28.5,18.8c37.3,11.9,87.6,20.7,152.3,19.8c72-1.1,116.1-9.5,142.1-19.6
		c0,0.2,0,0.5,0,0.7c-1.1,16.6-2.1,32.7-44.7,40.3C345.6,347,313.6,350,272.4,350.5z"/>
	<path class="st2" d="M272.4,373.9c-64.1,0.8-114-8.1-151.1-20.1c-7.3-2.5-23.1-9.7-28.4-18.8c-2.9-5.1-3-18-1.9-31.4
		c0.3,0.9,0.6,1.7,1,2.4c5.3,9.1,21.2,16.3,28.5,18.8c37.3,11.9,87.6,20.7,152.3,19.8c72-1.1,116.1-9.5,142.1-19.6
		c0,0.2,0,0.5,0,0.7c-1.1,16.6-2.1,32.7-44.7,40.3C345.6,370.4,313.6,373.4,272.4,373.9z"/>
	<path class="st3" d="M430.2,350.1c0.6,15-33.2,45.5-173,47.3c-64.1,0.8-114-8.1-151.1-20.1c-7.3-2.5-23.1-9.7-28.4-18.8
		c-2.9-5.1-3-18-1.9-31.4c0.3,0.9,0.6,1.7,1,2.4c5.3,9.1,21.2,16.3,28.5,18.8c37.3,11.9,87.6,20.7,152.3,19.8
		c111.4-1.6,156.2-21.1,169.9-36.6L430.2,350.1z"/>
	<path class="st1" d="M262.2,76c25.8,9.2,64,60.2,10.4,190.5c-24.6,59.7-59.9,100-95.3,126.4c-7.1,5.1-25.8,15-43.5,14
		c-6.9-0.4-20-4.7-35-10.7c3.5,0.9,6.4,1.5,8.7,1.6c17.7,1.1,36.4-9,43.5-14.1c35.4-26.7,70.8-67.4,95.3-127.7
		c44.3-108.7,26-162.7,3.7-183.6L262.2,76z"/>
	<path class="st2" d="M284.3,77.5c25.8,9.5,64,62,10.4,196c-24.6,61.5-59.9,102.9-95.3,130.1c-7.1,5.2-25.8,15.5-43.5,14.4
		c-6.9-0.4-20-4.9-35-11c3.5,0.9,6.4,1.5,8.7,1.7c17.7,1.1,36.4-9.2,43.5-14.5c35.4-27.4,70.8-69.3,95.3-131.4
		c44.3-111.8,26-167.4,3.7-188.8L284.3,77.5z"/>
	<path class="st3" d="M303.6,89.9c25.8,9.5,64,62,10.4,196c-24.6,61.5-59.9,102.9-95.3,130.1c-7.1,5.2-25.8,15.5-43.5,14.4
		c-6.9-0.4-20-4.9-35-11c3.5,0.9,6.4,1.5,8.7,1.7c17.7,1.1,36.4-9.2,43.5-14.5c35.4-27.4,70.8-69.3,95.3-131.4
		c44.3-111.8,26-167.4,3.7-188.8L303.6,89.9z"/>
	<path class="st4" d="M331.7,291.8c53.6-138.9,15.4-193.4-10.4-203.2l-12.2-3.8c0.2,0.2,0.5,0.5,0.7,0.7c-18.7-3.1-44.3,9.6-68.5,34
		c-3.5,3.4,11.7-2.2,16.6-7.1c11.7-9.6,29.3-14.5,45.8-7.5c37.3,15.6,38,98,1.7,183.9s-91.8,141.5-129.1,125.9c-5-2.1-10.2-6-14.5-9
		c-10-8.9-14.5-20.9-14.5-51.6v38c-2.6-3.9-4.8-8.3-6.6-13.2c-0.3-8.3-5.9-22-7.6-7.6c1.3,31.5,15,49.9,33.4,60.8l-0.1,0
		c-0.7,0-1.2-0.1-1.7-0.1c-1.8-0.1-2.5-0.1-7-1.6c14.5,6.3,22.4,9.3,31.1,9.6c20.3,0.8,44-11.1,51.1-16.5
		C275.5,395.3,307.1,355.6,331.7,291.8z"/>
	<path class="st1" d="M258,221.4c64.1-0.8,114,8.1,151.1,20.1c7.3,2.5,23.1,9.7,28.4,18.8c2.9,5.1,3,18,1.9,31.4
		c-0.3-0.9-0.6-1.7-1-2.4c-5.3-9.1-21.2-16.3-28.5-18.8c-37.3-11.9-87.6-20.7-152.3-19.8c-72,1.1-116.1,9.5-142.1,19.6
		c0-0.2,0-0.5,0-0.7c1.1-16.6,2.1-32.7,44.7-40.3C184.8,225,216.8,221.9,258,221.4z"/>
	<path class="st2" d="M258,247.8c64.1-0.8,114,8.1,151.1,20.1c7.3,2.5,23.1,9.7,28.4,18.8c2.9,5.1,3,18,1.9,31.4
		c-0.3-0.9-0.6-1.7-1-2.4c-5.3-9.1-21.2-16.3-28.5-18.8c-37.3-11.9-87.6-20.7-152.3-19.8c-72,1.1-116.1,9.5-142.1,19.6
		c0-0.2,0-0.5,0-0.7c1.1-16.6,2.1-32.7,44.7-40.3C184.8,251.4,216.8,248.3,258,247.8z"/>
	
		<linearGradient id="SVGID_2_" gradientUnits="userSpaceOnUse" x1="288.4596" y1="181.2651" x2="291.0702" y2="123.4376" gradientTransform="matrix(1 0 0 -1 0 502)">
		<stop  offset="0.16" style="stop-color:#191919"/>
		<stop  offset="0.97" style="stop-color:#191919;stop-opacity:0"/>
	</linearGradient>
	<path class="st5" d="M429.9,358.8c0.6-0.5,0.6-0.6,0-1.1c-1.5-1.2-3-2.2-4.6-3.2c-5.3-3.3-11-5.8-16.9-8c-1.3-0.5-2.6-1.1-4.1-1.4
		c-0.4-0.5-1-0.5-1.5-0.7c-5.4-1.9-11-3.4-16.6-4.8c-0.5,0-0.9-0.1-1.3-0.4c-2.6-0.6-5.2-1.2-7.8-1.8c-4.8-1.1-9.7-2-14.5-2.8
		c-3.6-0.6-7.2-1.2-10.8-1.8c-2.8-0.4-5.6-0.9-8.5-1.1c-0.5-0.1-0.9-0.2-1.4-0.2c-10-1.3-19.9-2.2-29.9-2.9
		c-6.5-0.5-13.1-0.8-19.6-1.1c-8.5-0.3-17.1-0.5-25.7-0.5c-10.6,0-21.2,0.3-31.8,0.8c-12.2,0.6-24.4,1.6-36.6,3c-2,0.2-4,0.4-6,0.8
		c-0.4-0.1-0.8,0-1.2,0c-8.7,1.1-17.3,2.5-25.9,4.1c-5.1,1-10.1,2.1-15.1,3.3l-0.1,0.2c0,0-1.3,19.1,1.6,37.8
		c4.9,1.2,9.9,2.3,14.9,3.2c4.5,0.9,8.9,1.7,13.4,2.3c6.3,0.9,12.6,1.9,18.9,2.5c6.2,0.7,12.3,1.3,18.5,1.8
		c3.6,0.3,7.3,0.6,10.9,0.8c5.4,0.3,10.8,0.6,16.2,0.8c4.9,0.2,9.9,0.3,14.8,0.4c7.9,0.1,15.8,0.1,23.7-0.1
		c7.6-0.2,15.2-0.5,22.8-0.9c9-0.5,18.1-1.3,27.1-2.2c13.8-1.5,27.4-3.4,41-6.2c11.8-2.4,23.5-5.4,34.9-9.7c4.9-1.9,9.8-4,14.4-6.6
		C425.5,361.9,427.8,360.5,429.9,358.8L429.9,358.8z"/>
	<path class="st3" d="M85,319.9c-0.6-15,33.2-45.5,173-47.3c64.1-0.8,114,8.1,151.1,20.1c7.3,2.5,23.1,9.7,28.4,18.8
		c2.9,5.1,3,18,1.9,31.4c-0.3-0.9-0.6-1.7-1-2.4c-5.3-9.1-21.2-16.3-28.5-18.8c-37.3-11.9-87.6-20.7-152.3-19.8
		c-111.4,1.6-156.2,21.1-169.9,36.6L85,319.9z"/>
	<path class="st4" d="M85,347.4c-0.6-15,33.2-45.5,173-47.3c64.1-0.8,114,8.1,151.1,20.1c7.3,2.5,23.1,9.7,28.4,18.8
		c2.6,4.6,2.9,15.5,2.2,27.4c-5.7-8.8-22.7-14.8-29.8-17.2c-37.3-11.9-87.6-20.7-152.3-19.8c-111.4,1.6-156.2,21.1-169.9,36.6
		L85,347.4z"/>
	<path class="st1" d="M97.5,403.1c-25.8-9.6-64-62.5-10.4-197.5c24.6-61.9,59.9-103.7,95.3-131.1c7.1-5.3,25.8-15.6,43.5-14.5
		c10,0.6,32.8,9.7,55.6,20c-2.3,0.2-4.6,0.5-6.8,0.7c-7.8,0.9-14.3,1.6-18.5,1.3c-17.7-1.1-36.4,9-43.5,14.2
		c-35.4,26.9-70.8,67.9-95.3,128.7c-44.5,110.2-25.7,164.6-3.3,185.3L97.5,403.1z"/>
	<path class="st2" d="M119.6,413.8c-25.8-9.7-64-63.1-10.4-199.6c24.6-62.6,59.9-104.8,95.3-132.5c7.1-5.3,25.8-15.8,43.5-14.6
		c7.7,0.5,23.1,6.1,40.2,13.4c-6.4-2.1-11.7-3.5-15.3-3.7c-17.7-1.1-36.4,9.4-43.5,14.8c-35.4,27.8-70.8,70.4-95.3,133.4
		c-53.6,137.5-14.2,189.6,11.6,199.3l22.1,7.6L119.6,413.8z"/>
	<path class="st3" d="M140.3,423c-25.8-9.8-64-63.8-10.4-201.8c24.6-63.3,59.9-106,95.3-133.9c7.1-5.4,25.8-15.9,43.5-14.8
		c8,0.5,24.2,6.5,42,14.3c-6-1.9-11-3.1-14.5-3.4c-17.7-1.1-36.2,8.3-43.4,13.8c-35.4,28.5-70.8,72.1-95.3,136.8
		c-45.8,120.3-14.1,179.3,8.8,199.1L140.3,423z"/>
	<path class="st4" d="M152,228.8C98.4,367.8,136.6,422.2,162.4,432l12.2,3.8c-0.2-0.2-0.5-0.5-0.7-0.7c18.7,3.1,44.3-9.6,68.5-34
		c3.5-3.4-11.7,2.2-16.6,7.1c-11.7,9.6-29.3,14.5-45.8,7.5c-37.3-15.6-38-98-1.7-183.9c36.3-85.9,91.8-141.5,129.1-125.9
		c5,2.1,10.2,6,14.5,9c10,8.9,14.5,20.9,14.5,51.6v-38c2.6,3.9,4.8,8.3,6.6,13.2c0.3,8.3,5.9,22,7.6,7.6
		c-1.3-31.5-15-49.9-33.4-60.8l0.1,0c0.7,0,1.2,0.1,1.7,0.1c1.8,0.1,2.5,0.1,7,1.6c-14.5-6.3-22.4-9.3-31.1-9.6
		c-20.3-0.8-44,11.1-51.1,16.5C208.2,125.3,176.6,165.1,152,228.8z"/>
	<path class="st4" d="M269.1,388.1c108.1-3.1,153.2-22.1,168.1-37.5l1.4,13l0.7-0.7c0.4,1.5,0.6,4.8-0.1,7.9
		c-1.9,13.2-41.2,47.4-193.4,47.4c-5.6,0-10.9-0.1-15.9-0.2c11.3-10.1,21-20,29.3-29.6C262.5,388.3,265.8,388.2,269.1,388.1z"/>
</g>
</svg>
