<?xml version="1.0" encoding="utf-8"?>
<!-- Generator: Adobe Illustrator 22.0.0, SVG Export Plug-In . SVG Version: 6.00 Build 0)  -->
<svg version="1.1" id="Layer_1" xmlns="http://www.w3.org/2000/svg" xmlns:xlink="http://www.w3.org/1999/xlink" x="0px" y="0px"
	 viewBox="0 0 40 40" style="enable-background:new 0 0 40 40;" xml:space="preserve">
<style type="text/css">
	.st0{fill:url(#SVGID_1_);}
	.st1{display:none;}
	.st2{display:inline;}
	.st3{fill:#C9E7FC;}
	.st4{fill:#C8E7FC;}
	.st5{fill:#0F315E;}
	.st6{fill:#F4CD5E;}
	.st7{fill:#FFFFFF;}
</style>
<linearGradient id="SVGID_1_" gradientUnits="userSpaceOnUse" x1="887.2169" y1="-2515.1785" x2="924.5087" y2="-2515.1785" gradientTransform="matrix(0 1 -1 0 -2495.1785 -886.0419)">
	<stop  offset="0" style="stop-color:#1EEEA4"/>
	<stop  offset="1" style="stop-color:#15533E"/>
</linearGradient>
<path class="st0" d="M37,26.1V13.5c0-2.1-1.1-4.1-3-5.2L23,2c-1.9-1.1-4.1-1.1-6,0L6,8.3c-1.9,1.1-3,3.1-3,5.2v12.6
	c0,2.1,1.1,4.1,3,5.2l11,6.3c1.9,1.1,4.1,1.1,6,0l11-6.3C35.8,30.2,37,28.3,37,26.1z"/>
<g class="st1">
	<g class="st2">
		<path class="st3" d="M14.3,22c-0.1-0.1,0-0.2,0-0.4c0-1.4,0-2.8,0-4.2c0-0.4-0.2-0.7-0.5-1c-0.6-0.4-1.3-0.7-1.9-1.2
			c-0.8-0.6-1.4-1.3-1.8-2.3c-0.3-0.8,0-1.2,0.8-1.4c1.1-0.2,2.2,0,3.3,0.1c0.4,0.1,0.8,0.1,1.2,0.2c0.2,0,0.3,0,0.2-0.2
			c0-0.2,0-0.4,0.1-0.6c0.1-0.3,0.3-0.5,0.5-0.5c0.3,0,0.6,0.1,0.7,0.3c0.2,0.3,0.3,0.6,0.4,0.8c0.1,0.3,0.3,0.4,0.7,0.3
			c1.3-0.4,2.6-0.4,3.9,0c0.3,0.1,0.5,0,0.6-0.3c0.1-0.2,0.2-0.5,0.4-0.7c0.2-0.3,0.4-0.5,0.8-0.5c0.4,0.1,0.5,0.3,0.6,0.6
			c0,0.1,0,0.2,0,0.3c0,0.4,0,0.4,0.5,0.4c1.2-0.2,2.5-0.4,3.7-0.3c0.3,0,0.6,0.1,0.8,0.1c0.5,0.2,0.7,0.5,0.6,1
			c-0.1,0.8-0.6,1.4-1.2,2c-0.6,0.6-1.2,1.1-2,1.4c-0.2,0.1-0.3,0.2-0.5,0.3c-0.4,0.2-0.5,0.5-0.5,0.9c0,1.4,0,2.9,0,4.3
			c0,0.3,0,0.4-0.3,0.2c-2-1.2-4.1-1.5-6.4-1.3C17.5,20.6,15.9,21,14.3,22C14.4,22,14.4,22,14.3,22z M23.1,18.1c0.2,0,0.3,0,0.5,0
			c0.8,0,1.4-0.7,1.4-1.5c-0.1-0.8-0.8-1.4-1.6-1.3c-0.9,0.2-1.8,0.6-2.4,1.3c-0.4,0.4-0.3,0.8,0.2,1C21.7,18,22.4,18.1,23.1,18.1z
			 M17,18.1c0.8,0,1.4-0.1,2-0.4c0.6-0.3,0.7-0.7,0.2-1.1c-0.6-0.6-1.4-1-2.3-1.2c-0.5-0.1-1.2,0.2-1.5,0.7c-0.3,0.5-0.3,1,0.1,1.5
			C15.9,18,16.4,18.1,17,18.1z"/>
		<path class="st4" d="M20.6,29.1c-2.4,0-4.2-0.4-5.8-1.4c-0.4-0.3-0.8-0.6-1-1c-0.7-0.9-0.7-2.1,0-3c0.7-0.9,1.6-1.4,2.6-1.8
			c2.9-1,5.7-0.9,8.5,0.4c0.7,0.3,1.2,0.7,1.7,1.3c0.8,1,0.8,2.2,0,3.2c-0.8,1-1.8,1.5-3,1.8C22.3,29,21.2,29.1,20.6,29.1z
			 M16.4,25.7c0.6,0,1.2-0.5,1.4-1.2c0.1-0.2,0.1-0.4,0-0.5c-0.2-0.2-0.3,0.1-0.4,0.2c-0.4,0.3-0.6,0.2-0.7-0.3c0-0.1,0-0.1,0-0.2
			c-0.1-0.3-0.3-0.4-0.5-0.1c-0.3,0.3-0.5,0.8-0.5,1.2C15.5,25.3,15.9,25.7,16.4,25.7z M24.6,24.8c0-0.4-0.2-0.8-0.4-1.1
			c-0.1-0.1-0.2-0.3-0.4-0.3c-0.2,0-0.2,0.3-0.3,0.4c-0.2,0.6-0.3,0.6-0.7,0.3c0,0-0.1-0.1-0.1-0.1c-0.1,0-0.1-0.1-0.2-0.1
			c-0.1,0.1-0.1,0.2-0.1,0.3c0.1,0.7,0.4,1.1,1,1.4C24,25.9,24.6,25.5,24.6,24.8z"/>
		<path class="st5" d="M23.1,17.4c0.2,0,0.3,0,0.5,0c0.4-0.1,0.7-0.5,0.7-0.9c-0.1-0.4-0.5-0.7-0.9-0.6c-0.7,0.2-1.3,0.5-1.9,1
			c-0.2,0.1-0.1,0.2,0.1,0.3C22,17.4,22.6,17.5,23.1,17.4z"/>
		<path class="st6" d="M23.1,17.4c-0.5,0-1.1-0.1-1.6-0.3c-0.2-0.1-0.2-0.1-0.1-0.3c0.5-0.5,1.2-0.8,1.9-1c0.4-0.1,0.9,0.3,0.9,0.6
			c0.1,0.4-0.3,0.8-0.7,0.9C23.4,17.5,23.3,17.4,23.1,17.4z"/>
		<path class="st6" d="M18.9,17c-0.8,0.4-1.6,0.5-2.3,0.4c-0.4,0-0.7-0.5-0.7-0.9c0.1-0.3,0.6-0.7,0.9-0.7
			C17.6,16.1,18.2,16.4,18.9,17z"/>
	</g>
</g>
<g>
	<g>
		<path class="st7" d="M29.3,15.9c0,2.6,0,5.3,0,7.9c0,0,0,0,0,0.1c0,0.2,0,0.4-0.1,0.6c-0.2,1.2-0.8,2.3-1.7,3.2
			c-0.9,0.8-1.9,1.3-3,1.4c-0.1,0-0.3,0-0.4,0.1c-2.6,0-5.3,0-7.9,0c-0.2,0-0.3,0-0.5-0.1c-1.3-0.2-2.4-0.8-3.3-1.7
			c-1-1.1-1.5-2.3-1.5-3.8c0-2.5,0-4.9,0-7.4c0-0.3,0-0.5,0.1-0.8c0.2-1.3,0.8-2.4,1.7-3.3c1.1-1,2.3-1.5,3.7-1.5c2.5,0,4.9,0,7.4,0
			c0.3,0,0.6,0,0.9,0.1c1.2,0.2,2.3,0.8,3.2,1.8c0.8,0.9,1.3,1.9,1.4,3C29.2,15.6,29.2,15.7,29.3,15.9z M20,12.8
			C20,12.8,20,12.8,20,12.8c-1.2,0-2.3,0-3.5,0c-0.2,0-0.3,0-0.5,0c-1.7,0.2-3,1.7-3,3.4c0,2.4,0,4.7,0,7.1c0,0.2,0,0.3,0,0.5
			c0.2,1.7,1.7,3,3.4,3c2.4,0,4.7,0,7.1,0c0.2,0,0.3,0,0.5,0c1.7-0.2,3-1.7,3-3.4c0-2.4,0-4.7,0-7.1c0-0.6-0.1-1.1-0.4-1.6
			c-0.6-1.1-1.6-1.7-2.9-1.8C22.5,12.8,21.2,12.8,20,12.8z"/>
		<path class="st7" d="M25,18.2c0,0.2,0,0.5-0.1,0.7c-0.2,0.6-0.6,1-1.2,1c-0.3,0-0.6,0-0.9,0c-0.7-0.1-1.2-0.6-1.3-1.3
			c0-0.3,0-0.7,0-1c0.1-0.6,0.7-1.1,1.3-1.1c0.3,0,0.6,0,0.9,0c0.7,0.1,1.2,0.7,1.2,1.4C25,18,25,18.1,25,18.2z"/>
		<path class="st7" d="M25,23.4c0,0.3,0,0.5-0.1,0.8c-0.2,0.5-0.7,0.9-1.3,0.9c-0.3,0-0.5,0-0.8,0c-0.7-0.1-1.2-0.6-1.2-1.3
			c0-0.3,0-0.7,0-1c0.1-0.6,0.7-1.1,1.4-1.1c0.3,0,0.5,0,0.8,0c0.7,0.1,1.2,0.7,1.2,1.4C25,23.1,25,23.3,25,23.4z"/>
	</g>
</g>
</svg>
