<?xml version="1.0" encoding="utf-8"?>
<!-- Generator: Adobe Illustrator 22.0.0, SVG Export Plug-In . SVG Version: 6.00 Build 0)  -->
<svg version="1.1" id="Layer_1" xmlns="http://www.w3.org/2000/svg" xmlns:xlink="http://www.w3.org/1999/xlink" x="0px" y="0px"
	 viewBox="0 0 500 500" style="enable-background:new 0 0 500 500;" xml:space="preserve">
<style type="text/css">
	.st0{fill:url(#SVGID_1_);}
	.st1{fill:#080506;}
	.st2{fill:#DD6D2B;}
	.st3{fill:#F1CBAD;}
	.st4{fill:#F7E5D6;}
	.st5{fill:#FAF0E9;}
	.st6{fill:#F6DECA;}
	.st7{fill:#EDB78F;}
	.st8{fill:#E18144;}
	.st9{fill:#E9AC7F;}
	.st10{fill:#F4D3BA;}
	.st11{fill:#E28A4F;}
	.st12{fill:#E5945C;}
	.st13{fill:#E6A16D;}
	.st14{fill:#E7AA82;}
	.st15{fill:#FCFCFA;}
	.st16{fill:#EFC09C;}
	.st17{fill:#DF7938;}
	.st18{fill:#F3D6BD;}
	.st19{fill:#160807;}
	.st20{fill:#F5EEE3;}
	.st21{fill:#180A07;}
	.st22{fill:#1C0D0A;}
</style>
<linearGradient id="SVGID_1_" gradientUnits="userSpaceOnUse" x1="5.053789e-08" y1="500.7334" x2="500" y2="0.7334" gradientTransform="matrix(0 -1 1 0 0 500)">
	<stop  offset="0" style="stop-color:#FF9955"/>
	<stop  offset="1" style="stop-color:#FFC8A5"/>
</linearGradient>
<polygon class="st0" points="500.7,0 500.7,500 0.7,500 0.7,0 "/>
<g>
	<path class="st1" d="M372.3,299.4c17.3,19.8,35.4,38.9,48.4,62c1.8,3.2,3.5,6.6,5,10c4.3,9.5,6.8,19.2-1.3,27.8
		c-8.8,9.3-19.8,9.6-31.3,6c-11.2-3.5-18.7-12.2-26.6-20.2c-9.9-10.1-19.4-20.4-30.4-29.5c-4.1-3.4-8.5-4.6-13-3.2
		c-18.6,5.7-37.5,9.3-56.7,11.9c-0.9,0.1-1.7,0.8-3.5,1.7c8.9,8.8,17.5,17.2,26.2,25.7c0.9,0.9,1.7,1.8,2.5,2.8
		c7,8.6,14.5,17.3,8.6,29.3c-4.1,8.5-19.5,13.3-32,10.5c-23.9-5.4-44.5-17.5-64.3-31.4c-13.1-9.2-24.8-20.1-36.8-30.6
		c-9-5.8-14.5-14.7-20.3-23.2c-0.2-0.3-0.4-0.7-0.7-1c-0.4-0.7-0.8-1.4-1.2-2.1c-0.6-1-1.2-2-1.9-3c-0.8-0.9-1.4-1.9-2-2.9
		c-2.1-3.9-4-7.9-6.1-11.9c-1.5-3.1-3-6.1-4.1-9.3c-1.2-3.3-2.8-6.5-4-9.8c-1.5-4.4-3.1-8.8-4-13.4c-3.1-11.4-6-22.7-7.4-34.5
		c-1.3-5.2-2-10.4-0.3-15.7c-3.1-46.9-15.4-92.1-26.1-137.6c-2.4-10.3-4.5-20.8-3.3-31.6c1.2-10.6,6-13.6,16-9.6
		c12.3,4.9,23.5,12.1,33.1,20.9c13.6,12.5,26.7,15.3,45,9.3c26.4-8.6,53.8-6.2,79.5,5.4c4.9,2.2,7.5,0.5,10.7-1.8
		c14.7-10.6,29.3-21.3,45.4-29.7c18.4-9.6,22.1-7.8,22.7,12.8c0.6,17.6-4.1,34.6-7.8,51.7c-2.2,10-4.6,20-7,30
		c0.5,4.7-0.6,9.1-2.3,13.5c-3.7,9.4-5.6,19-2.8,29.1c0.3,2.8,0.6,5.6,1.3,8.3c1.4,7.2,3.5,14.2,5.6,21.2c0.3,1.3,0.6,2.6,0.8,3.9
		c0.3,1.2,0.7,2.5,1,3.7c1.2,6.2,3.9,11.8,7.3,17.1c3.4,4.2,7.1,8,11.6,11c1,0.7,1.9,1.5,2.8,2.3c0.6,0.5,1.2,1.1,1.7,1.6
		c0.3,0.3,0.5,0.6,0.8,0.8c0.6,0.5,1.1,1.1,1.6,1.7c1.3,1.4,2.7,2.8,4.1,4c2,1.8,4.4,3.2,6.5,4.9c1.5,1.3,2.8,2.7,4.2,4.1
		c0.9,0.8,1.7,1.7,2.5,2.6C371.5,296.4,372.5,297.7,372.3,299.4z"/>
	<path class="st2" d="M115.2,245.5c0.7,4.9,1.5,9.7,2.2,14.6c3.6,12.2-6.8,21.5-7.1,33c0,2.3-2.5,4.4-4.7,2.7
		c-5.2-4-7.6,0.2-9.7,3.2c-6.9,9.7-15.6,18.4-24.5,25.2c-6.9,5.3-6.4,7.4-2.9,12.8c1,3.2,1.3,6.2-2.1,8.3c-2.2,0.4-4.2,0-6.2-0.9
		c-9.7-18.6-3.2-35.2,6.8-51C79.4,273.8,97.3,259.6,115.2,245.5z"/>
	<path class="st3" d="M333.1,263.8c-4.8-5.3-7-11.7-7.6-18.8c-0.4-0.8-0.8-1.5-1.2-2.3c-0.1-1.3-0.2-2.5-0.4-3.8
		c10.2-0.1,17-7.2,23.5-13.1c13.9-12.7,26.7-26.6,40.2-39.7c5.6-5.4,11.3-10.2,3.3-17.9c0.3-0.4,0.5-0.7,0.8-1.1
		c7.2-0.3,14,1.2,20.6,4c1,1.1,2.7,0.8,3.8,1.8l0,0c1,1.2,2.7,0.9,3.8,1.9l0,0c1.6,4.4-1.4,7.1-4,9.7c-19.7,19.1-38.4,39.1-58,58.3
		c-3.6,3.5-7.1,7-11.1,10c-1.3,1.1-2,2.5-2.6,4c-1.4,2.9-2.4,6.1-4.7,8.5C336.8,267.2,335.4,263.6,333.1,263.8z"/>
	<path class="st4" d="M362.8,290.1c-2.8-1.4-5.1-3.5-6.9-6c-3.1-5.8,3.7-4.3,5.3-6.5c18.8-24.5,42.7-44.1,63.7-66.6
		c0.9-0.9,1.8-1.8,2.7-2.6c6.2-5.6,11.5-14,13.1-20.3c4.8,3.1,6.2,8.2,7.6,13.2c3.4,9.2-2,15.9-7.2,21.9
		c-19.5,22.9-42.4,42.4-63.5,63.9C373.4,291.3,368.3,291.8,362.8,290.1z"/>
	<path class="st5" d="M362.8,290.1c12.3,0.2,18.2-9.6,25.6-16.8c15.8-15.5,31.6-31.1,47-47.1c6.6-6.9,13.8-14,12.9-24.9
		c5.2,14.1,1,27.1-6.2,39c-10.6,17.5-24.3,32.4-41.3,44.1c-1.3,0.9-2.8,1.7-3.6,2.9c-6.1,8.6-14.7,11.9-24.8,12.1
		c-1.3-1.2-2.5-2.5-3.8-3.7c0.2-1.2-0.3-1.8-1.6-1.6C365.5,292.8,364.2,291.4,362.8,290.1z"/>
	<path class="st6" d="M440.6,188.1c0.2,1.5,0,3.2,0.6,4.6c2.6,6.7,5.3,12.9-6.3,12.9c-1.9,0-4.1,2.7-5.8,4.4
		c-18.6,18.6-37.3,37.1-55.8,55.8c-3.5,3.5-6.3,7.7-9.7,11.4c-2.3,2.5-3.9,6-7.8,6.8c-1.8-0.6-3.1-1.7-3.9-3.5
		c-0.4-0.4-0.6-0.9-0.5-1.5c0,0,0.8,0.1,0.8,0.1s-0.8-0.2-0.8-0.2c-0.5,0-1-0.1-1.5-0.3l0,0.1c-0.4-0.7-0.7-1.4-0.9-2.1
		c-0.2-0.7-0.3-1.5-0.2-2.3c0.2-0.8,0.5-1.5,1-2.1c0.6-0.5,1.2-0.9,1.9-1.3c0.6-0.5,1.3-0.9,1.9-1.5c3.4-6.8,8.2-12.5,13.6-17.9
		c15.2-15,29.9-30.4,45.3-45c7.8-7.4,14.2-15.4,17.4-25.7c0.4-0.1,0.8-0.3,1.3-0.4C435,182.3,438.7,184,440.6,188.1z"/>
	<path class="st7" d="M317.9,216.5c-2.4-2.2-1.5-5-1.5-7.6c14.9-11,27.6-24.4,41.8-38.6c-8-0.8-14.8-0.2-21.5-0.5
		c-3.9-0.2-8.3,1.1-11.4-2.6c5.5-3.3,11.5-1,17.2-1.7c10.8-1.2,21.5-1.6,32.2,0.3c0.8,0.4,1.7,0.8,2.5,1.3c10.4,5.6,9.6,4.8,1,13.5
		c-15.5,15.6-34.6,27.9-44.9,48.4c-2.5,4.9-7,4.6-9.8-0.7C321.3,224.4,320.2,220.1,317.9,216.5z"/>
	<path class="st8" d="M63.7,344.5c5-0.6,3.4-4.6,3.7-7.5c-1.9-4.5,0.8-5.9,3.7-3.6c5.3,4.3,7.9,0.4,11.1-2.3
		c5.8-4.8,9.6-11.6,15.1-16.6c7.6-7,16-13,17.9-24.4c0.7-4.1,4.5-4.2,6.5-0.1c0.9,2,1.4,4.1,3.4,5.3c1.4,4.5,2.9,9,4.3,13.5
		c1.5,7.7-5.2,11.2-8.5,16.5c-0.7,1.1-2.6,1.7-3.3,0.9c-6.6-7.1-7.1,1-10,3.8c-10.5,9.9-19,22-32.7,28.2l0-0.1
		c-0.8-1.5-2.7-1-3.7-2.1c-0.6-0.2-1.2-0.4-1.7-0.6l-0.5-0.6c0,0,0.4-0.6,0.4-0.6c0,0-0.2-0.7-0.2-0.7s0.1,0.8,0.1,0.8
		c0,0-0.7,0.3-0.7,0.3l-0.6-0.5c-0.5-0.3-0.7-0.7-0.7-1.3c-0.4-2.1-1.7-3.4-3.6-4.1l0,0C62.6,347.1,62.5,345.8,63.7,344.5z"/>
	<path class="st9" d="M325.2,167.1c10.9,0.1,21.8,0.2,32.7,0.3c1.8,0,4.1-0.4,4.5,2.1c0.3,1.6-1.6,2.4-2.7,3.5
		c-8.4,7.9-16.8,15.8-24.9,23.9c-5.3,5.4-11.6,9.2-18.5,11.9c-4.1-9.9-1-19.5,1.8-28.9c1.4-4.9,3.5-9.7,5.3-14.5
		C324.1,166,324.7,166.5,325.2,167.1z"/>
	<path class="st10" d="M338.8,265.3c1.3-3.1,2.5-6.3,3.8-9.4c0.5-0.4,0.8-0.9,0.9-1.5c0.5-0.3,0.9-0.8,1-1.4c0,0-0.1-0.9-0.1-0.9
		c20-19.2,40.5-37.9,58.3-59.2c5.3-6.4,14.4-9.2,17.1-18.1c2.1,0,4.3-0.3,5.7,1.8c0.6,0.7,1.1,1.5,1.5,2.3
		c1.2,5.8-1.1,10.3-5.3,14.1c-24.1,21.8-47.3,44.6-70.4,67.5C348.1,264,344.9,269.1,338.8,265.3z"/>
	<path class="st11" d="M74.7,358.1c9.6-7.5,17-17.5,27.1-24.7c2.7-1.9,4.1-5.4,6.2-8.2c1.6-2.3-0.1-6.8,4.8-6.9
		c4.4-0.1,2.9,4.9,5.8,6.9c2-7,10.4-8.9,10.7-16.5c1.2,3.2,2.4,6.3,3.6,9.5c-5.3,9.1-10.7,18-18.6,25.3c-4.2,3.9-8.8,7.4-9.2,14.5
		c-0.3,5.7-12.1,9.3-18.3,5.7c-3.4-2-6.9-2.6-10.4-3.9C75.9,359.2,75.3,358.7,74.7,358.1z"/>
	<path class="st12" d="M76.5,359.8c3.7,0,7-0.1,10.6,2.1c6.8,4.1,13.9-0.1,14.8-7.9c0.3-2.8,2.9-3.9,4.3-5.9
		c6.1-8.3,17.4-12.3,18.8-24.5c0.3-2.5,6.3-1.7,7.9-5.3c1.3,3.1,2.6,6.2,4,9.4c2.2,24.3-19.2,43.9-43.3,39.7c-3.6,0-6.7-1-9.3-3.7
		c-0.4-0.8-0.9-1-1.7-0.6C80.2,362.6,78.1,361.6,76.5,359.8z"/>
	<path class="st13" d="M93.5,367.3c17.4-0.5,30.3-9.1,40.3-22.6c3.8-5.1-0.9-11.9,3-17.1c2.3,4,5.1,7.7,6.2,12.4
		c0.1,1.2,0.9,1.9,1.8,2.6c0.5,0.7,0.9,1.3,1.4,2c-1.6,1.4,0.2,1.2,0.7,1.6l-0.1-0.1c0.5,1.3,1,2.6,0.1,3.9c-1.2,2,1.4,0.6,1.5,1.5
		c5.2,5.2,5.7,9.8-0.9,13.8c2.3,0.4,6.4,0.6,6.3,4.4c-0.2,4.4-4.6,3.1-7.4,3.2c-12.7,0.2-25.4,0.4-38-1.6
		C103.2,371.1,98,370.5,93.5,367.3z"/>
	<path class="st14" d="M144.7,350.2c1.7-0.9,1.9-2.5,2.1-4.1c6.8,8.7,13.6,17.5,20.4,26.2c-0.4,0.5-0.7,1.4-1.1,1.4
		c-19.3,1.3-38.6,3.1-57.6-2.5c14.6,0,29.3,0,45.6,0c-5.8-6.9-12.8-1.7-17.7-5.4c2.9-6.1,12.6,2.2,14-6.6
		C151.1,354.4,147.1,352.8,144.7,350.2L144.7,350.2z"/>
	<path class="st3" d="M376.5,167.4c-11.2-3.5-22.7-1.1-34.1-2c10.6-3.7,21.6-2.1,32.2-1c5.6,0.6,11.9-1,17.1,2.8
		c0,0-0.2,0.3-0.2,0.3C386.5,171.1,381.5,169.8,376.5,167.4z"/>
	<path class="st11" d="M63.7,344.5c-0.1,1.3-0.1,2.6-0.2,3.9c-2.1-0.6-3-2.1-3.2-4.1C61.4,344.1,62.6,342.5,63.7,344.5z"/>
	<path class="st11" d="M63.5,348.5c2.9-0.1,3.9,1.4,3.6,4.1C65.4,351.7,64.1,350.4,63.5,348.5z"/>
	<path class="st10" d="M419.9,174.9c-1.6,0-3-0.4-3.8-1.9C417.7,172.9,419.1,173.4,419.9,174.9z"/>
	<path class="st11" d="M71.1,355.9c1.6-0.1,3.1,0.3,3.7,2.1C73.5,357.3,72.3,356.6,71.1,355.9z"/>
	<path class="st6" d="M425.5,178.7c0-0.6,0-1.3,0-1.9c1.5,0.1,2.9,0.4,3.8,1.9c-0.3,0.3-0.5,0.5-0.8,0.8
		C427.4,179.8,426.3,179.7,425.5,178.7z"/>
	<path class="st10" d="M416.2,173c-1.6,0-3-0.3-3.8-1.8C413.9,171.1,415.3,171.5,416.2,173z"/>
	<path class="st11" d="M69.4,354c0,0.4,0,0.8,0,1.3c-0.5-0.5-1-0.9-1.5-1.4c0.4,0,0.9,0,1.3-0.1L69.4,354z"/>
	<path class="st6" d="M429.3,178.7c0.6,0.6,1.3,1.2,1.9,1.8c0,0-0.2,0.1-0.2,0.1c-1.6,0.4-2.2-0.3-1.9-1.8L429.3,178.7z"/>
	<path class="st11" d="M82.6,363.1c1-1,1.4-0.4,1.7,0.6C83.6,363.7,83.1,363.5,82.6,363.1z"/>
	<path class="st15" d="M241.4,131.3c0.6-0.2,1,0,1.3,0.5c0.7,0.5,1.4,1,2.1,1.5l-0.1-0.1c0.5,0.8,1.1,1.5,2,1.9l-0.1-0.1
		c0.5,0.9,1.2,1.5,2.1,2c19.5-1,28,7.3,26.3,25.8c-1,11.1-6.7,16.5-20.7,19.3c-3.8,0.7-8.4,1.2-8.1,6c0.4,5.4,5.6,5.2,9.6,5
		c8.5-0.3,14.4-5.4,19.2-12c2.3-3.2,4.8-7.7,9.6-5.9c4.3,1.6,4.2,6.7,4.7,10.6c1.6,13.8-4.6,24.4-15.9,27.4
		c-4.5,1.2-9.1,1.8-10.2-4.5c-0.5-3-0.9-5.9-4.9-5.1c-3.2,0.6-4.2,3-4.6,6.2c-2.3,19.5-11.4,26.9-30.7,25.5
		c-9.8-0.7-11.8-3.9-8.2-12.6c2.7-6.7-0.3-12.3-4.2-17.4c-3.7-5-8.9-8-15.1-8.5c-3.1-0.3-4,2.4-3.6,5.3c0.3,2.4,2,3.6,3.9,4.9
		c10,6.6,12.2,13,7.2,19.6c-6,7.9-19.7,10.4-25.6,2.5c-7.1-9.5-15.4-13.2-26.5-15.4c-9.6-1.9-10.9-10.9-9.8-19.6
		c9.1-4.7,15.7,1,22.5,5.4c2.2,1.4,3.3,4.5,8.6,4.8c-4.7-8.7-10.2-16.7-0.7-26.7c-10,2-8.9,15.2-19,11.4c-4.1-1.6-6.3-4.7-7.8-8.6
		l0,0c-1.1-1.2-0.8-2.9-1.7-4.1c-0.7-17.1,5-25.9,18.8-29.1c4.2-1,6.2-1.2,6.6,4.9c0.8,15.5,15.8,25.5,30,21.3c2.9-0.8,6.1-1.9,6-5
		c-0.1-3.5-3.4-4.9-6.8-5.1c-0.9-0.1-1.9-0.1-2.8-0.1c-8.8-0.5-16.4-3.3-18-13.2c-1.5-9.5,4.4-15.5,12.2-19.2
		c8.3-4,15.2-1.2,19.9,6.7c3.1,5.2,6.7,4.7,10.7,1.2c2.7-1.7,5.5-2.2,8.2,0c0.6,0.7,0.9,1.6,1.1,2.5c0,2.5-0.7,5.2,0.7,7.6
		c2.7,7.7,6.7,14.1,15.6,15.5c3.4,0.5,6.8,0.6,9.9-3.1c-8.3-2.8-18.9-3.1-17.8-15.7c0.2-1.3,1-2.5,0.9-3.9c-0.2-0.5-0.3-1.1-0.5-1.6
		c-0.2-0.5-0.4-1-0.6-1.5c0,0-0.3-0.7-0.3-0.7c-0.2-0.4-0.4-0.8-0.8-1.2c-0.5,0-1,0.1-1.5,0.3c-0.9,0.3-1.7,0.6-2.6,0.8
		c-0.7,0-1.4-0.1-2.1-0.4c-1.8-1.6-3.1-3.4-1.9-5.9l0,0c1-1.1,2.6-0.8,3.7-1.6c1.9-0.9,3.7-0.9,5.6-0.1
		C238.3,130.9,240,130.7,241.4,131.3z"/>
	<path class="st16" d="M376.5,167.4c5,0,10,0.1,14.9,0.1c0.1,0.3,0.1,0.7,0.3,0.9c9.2,7.5,9.2,7.5-0.2,17
		c-14.8,14.8-29.3,29.9-44.3,44.4c-4.9,4.7-12,6.4-16.1,13.2c-2.7,4.5-2.9-5.5-7.1-4c-3.2-7.2-5.1-14.7-6.1-22.5
		c2.6,2.8,7.8,3.7,6.5,9.6c-0.4,1.8,2,4.1,4.2,4.4c3.5,0.5,2.2-2.9,3-4.6c2.4-4.8,5.6-9,9.4-12.7c13.7-13.6,26.7-27.7,42.1-40
		C382.7,169.7,376,172.3,376.5,167.4z"/>
	<path class="st17" d="M125,295.3c-5.4,1.3-4-4.4-6.3-6.4c-3.6,1.1-1.3,4.6-2.6,6.3c-4.1,4.8-2,12.4-11.1,15.8
		c-7.8,2.9-12.8,13.1-19.3,19.9c-2.6,2.7-5.8,4.7-8.6,7.1c-3.2,2.7-4.8,3-6.2-1.9c-1.1-3.7-2.8-1.8-3.4,0.9
		c-7.4-6.7-4.1-6.6,1.1-13.1c4.7-5.8,11.3-8.4,15.4-14.2c4.1-5.8,9.2-11,13.9-16.4c3.4-3.9,7-7.4,9.8,2.4
		c-1.5-14.1,11.1-22.8,9.8-35.6C120,271.8,122.5,283.6,125,295.3z"/>
	<path class="st18" d="M429.2,178.8c0.6,0.6,1.3,1.2,1.9,1.8c0.1,13.2-9.8,20.1-17.8,28.2c-12.4,12.5-24.8,24.9-37.3,37.3
		c-8.3,8.2-16.9,16.1-22.1,26.9c-0.6-0.7-1.2-0.7-1.8,0c-0.6,0-1.3,0-1.9,0c-0.7,0.8-1.2,1.8-2.2,2.4c-0.7,0.1-1.5,0-2.1-0.3
		c-5.1-2.7-9.5-6.3-12.7-11.2c2.8-2.9,3.7,1.6,5.8,1.5c11-1.6,16.2-11.2,22.8-18c18.9-19.2,38.6-37.4,58.5-55.4
		c4.2-3.8,5.6-8,5.4-13.2C426.8,178.7,428,178.7,429.2,178.8z"/>
	<path class="st19" d="M144.7,180.6c2.4,2,4.6,4.3,7.2,5.9c4.2,2.5,7.7,2.4,8.9-3.6c0.4-2.1,1.4-4.2,2.7-5.9
		c2.2-2.8,5.4-3.5,8.3-1.2c2.7,2.2,2.3,5.2-0.1,7.4c-6.2,5.3-5,10.4,0.5,15c3.3,2.8,4.4,5.4,1.2,8.5c-4.2,4-7,0.5-9.1-2.6
		c-5.7-8.2-14.1-9.4-23-9.8C142.3,189.7,143.5,185.2,144.7,180.6z"/>
	<path class="st20" d="M228,141.6c-2-3.4-5.5-2.3-8.5-2.8c1.7-3.5,4.3-6.2,8.2-7.3c1.2,1.9,2.5,3.7,3.7,5.6
		C232.2,140.2,230.5,141.2,228,141.6z"/>
	<path class="st4" d="M366.9,294.1c0.5-1.1,1.5-2.2,2.5-1.5c1.8,1.3,0.3,2.3-0.9,3.1C368,295.2,367.5,294.7,366.9,294.1z"/>
	<path class="st14" d="M147,346.2c-0.9-0.1-2.5-0.1-2.6-0.3c-0.2-1.3,1-1.1,1.8-1.3C146.7,345,146.9,345.5,147,346.2z"/>
	<path class="st20" d="M241.4,131.3c-1.8,0.3-3.3,0.1-4.4-1.5C238.8,129.5,240.3,129.7,241.4,131.3z"/>
	<path class="st20" d="M231.4,129.9c-0.9,1.4-2.2,1.8-3.7,1.6C228.5,130.1,229.8,129.6,231.4,129.9z"/>
	<path class="st19" d="M142.9,176.4c0.6,1.4,1.2,2.7,1.7,4.1C143,179.6,142.7,178.1,142.9,176.4z"/>
	<path class="st4" d="M345.8,275c0.8-0.1,1.7-0.1,2.5-0.2c0.2,0.2,0.5,0.5,0.7,0.7c0,0.3,0,0.7-0.1,1c-0.3,0.1-0.6,0.3-0.9,0.4
		C347.3,276.3,346.5,275.6,345.8,275z"/>
	<path class="st4" d="M350,278.7c0.7,0,1.4-0.1,2-0.1c0,0.7,0,1.3,0,2C351.3,279.9,350.7,279.3,350,278.7z"/>
	<path class="st16" d="M324.3,242.8c0.4,0.8,0.8,1.5,1.2,2.3C325.1,244.3,324.7,243.5,324.3,242.8z"/>
	<path class="st20" d="M248.7,137.1c-0.7-0.7-1.4-1.3-2.1-2C247.3,135.8,248,136.4,248.7,137.1z"/>
	<path class="st20" d="M246.7,135.2c-0.7-0.6-1.3-1.3-2-1.9C245.9,133.4,246.5,134,246.7,135.2z"/>
	<path class="st20" d="M244.7,133.3c-0.7-0.5-1.4-1-2.1-1.5C243.8,131.8,244.6,132.1,244.7,133.3z"/>
	<path class="st4" d="M350.1,276.7c0,0.7-0.1,1.4-0.1,2.1c-0.7-0.6-1.3-1.2-2-1.8c0,0,0.3-0.3,0.3-0.3
		C349,275.8,349.6,275.8,350.1,276.7z"/>
	<path class="st14" d="M144.8,342.6c-0.6-0.9-1.2-1.7-1.8-2.6C143.6,340.9,144.2,341.7,144.8,342.6z"/>
	<path class="st18" d="M344.5,254c-0.6,0.6-1.3,1.3-1.9,1.9c0-1.6,0.3-3,1.9-3.8c0,0,0,0,0,0c0.4,0.4,0.6,0.8,0.4,1.2
		C344.8,253.8,344.6,254,344.5,254z"/>
	<path class="st4" d="M348.3,274.8c0.6-0.6,1.3-1.3,1.9-1.9c0,0.6,0,1.3,0,1.9C349.5,275.4,348.9,275.5,348.3,274.8L348.3,274.8z"/>
	<polygon class="st4" points="352,278.6 352.5,277.8 352.8,278.1 	"/>
	<path class="st18" d="M348.3,274.8c0.6,0,1.3,0,1.9,0c0,0.6,0,1.3,0,1.9c-0.6,0-1.2,0-1.8-0.1C348.3,276,348.3,275.4,348.3,274.8z"
		/>
	<path class="st4" d="M352.1,272.9c0.6-1.1,1.2-1.1,1.8,0c0,0-0.9,0-0.9,0L352.1,272.9z"/>
	<path class="st11" d="M69.2,353.9c0.2-0.2,0.4-0.5,0.5-0.7c-0.1,0.3-0.2,0.6-0.3,0.9C69.4,354,69.2,353.9,69.2,353.9z"/>
	<path class="st3" d="M344.5,254c0-0.6,0-1.2,0-1.9C345.8,252.8,345.8,253.4,344.5,254z"/>
	<path class="st14" d="M144.7,350.2c-0.3-0.1-0.5-0.3-0.8-0.4C144.2,349.9,144.4,350,144.7,350.2L144.7,350.2z"/>
	<path class="st21" d="M228,141.6c1.1-1.5,2.3-3,3.4-4.5c0,0,0,0,0,0c1.9-1.1,3.7-1.6,5.4,0.3l-0.1-0.1c1,0.3,1.6,1.1,2.1,2
		c-0.1,0.6,0,1.1,0.4,1.6c0.4,0.6,0.4,1.3,0,1.9c-0.8,11.7,1.3,14.1,13.4,14.3c2.7,0,5.1-0.3,5.8,3c0.7,3.6-1.6,4.9-4.5,6
		c-11.6,4.5-22-2.4-26.5-17.6c-0.9-1.9-1.2-3.8,0.2-5.7C228.2,142.5,228.3,142.1,228,141.6z"/>
	<path class="st22" d="M233,183.8c-0.5,5.5-1.3,10.8-5.8,14.5c-2.1,1.8-4.6,2.2-6.9,0.4c-2.2-1.8-1.2-3.7,0-5.8
		c3.8-6.4,4.5-12.9,0.7-19.6c-1.9-3.3-1.4-6.2,2.3-7.7c3.5-1.5,5.2,1,6.5,3.7C232.1,174,232.8,178.9,233,183.8z"/>
	<path class="st20" d="M236.8,137.5c-1.8-0.1-3.6-0.2-5.4-0.3c1.3-2.2,3.6-1.8,5.7-1.9l0,0C237,136,236.9,136.8,236.8,137.5z"/>
	<path class="st20" d="M227.6,142.8c-0.1,1.9-0.1,3.8-0.2,5.7C225.2,146.5,225.2,144.6,227.6,142.8z"/>
	<path class="st20" d="M238.8,139.4c-0.7-0.7-1.4-1.3-2.1-2C237.4,138.1,238.1,138.7,238.8,139.4z"/>
	<path class="st20" d="M239.2,142.8c0-0.6,0-1.3,0-1.9c0.2,0.4,0.5,0.9,0.7,1.4C239.9,142.4,239.4,142.7,239.2,142.8z"/>
	<path class="st20" d="M237,135.3c0.1-0.3,0.3-0.5,0.4-0.8C237.3,134.8,237.2,135.1,237,135.3C237.1,135.3,237,135.3,237,135.3z"/>
</g>
</svg>
