<?xml version="1.0" encoding="utf-8"?>
<!-- Generator: Adobe Illustrator 22.0.0, SVG Export Plug-In . SVG Version: 6.00 Build 0)  -->
<svg version="1.1" id="Layer_1" xmlns="http://www.w3.org/2000/svg" xmlns:xlink="http://www.w3.org/1999/xlink" x="0px" y="0px"
	 viewBox="0 0 40 40" style="enable-background:new 0 0 40 40;" xml:space="preserve">
<style type="text/css">
	.st0{fill:url(#SVGID_1_);}
	.st1{fill:#FFFFFF;}
</style>
<linearGradient id="SVGID_1_" gradientUnits="userSpaceOnUse" x1="257.3169" y1="-1777.1785" x2="294.6086" y2="-1777.1785" gradientTransform="matrix(0 1 -1 0 -1757.1785 -256.0419)">
	<stop  offset="1.198744e-03" style="stop-color:#E669AF"/>
	<stop  offset="1" style="stop-color:#D91E7C"/>
</linearGradient>
<path class="st0" d="M37,26.2V13.6c0-2.1-1.1-4.1-3-5.2L23,2.1c-1.9-1.1-4.1-1.1-6,0L6,8.4c-1.9,1.1-3,3.1-3,5.2v12.6
	c0,2.1,1.1,4.1,3,5.2l11,6.3c1.9,1.1,4.1,1.1,6,0l11-6.3C35.8,30.3,37,28.4,37,26.2z"/>
<title>Asset 1</title>
<path class="st1" d="M19.7,12.7c-0.1,0.1-0.3,0.3-0.4,0.6c-0.1,0.3-0.7,2-1.4,4.2h5c-0.7-2.1-1.3-3.8-1.4-4.2s-0.3-0.5-0.4-0.6
	c-0.1-0.1-0.3-0.2-0.7-0.2S19.8,12.6,19.7,12.7z M12.3,17.5h3.4c0.8-2.4,1.5-4.4,1.6-4.8c0.2-0.6,0.6-1.2,1.1-1.6
	c0.5-0.4,1.2-0.6,1.8-0.6s1.3,0.2,1.8,0.6c0.5,0.4,0.9,1,1.1,1.6c0.1,0.4,0.8,2.4,1.6,4.8h3.4c0.6,0,1,0.5,1,1s-0.5,1-1,1h-2.7h-2.1
	h-6.4H15h-2.7c-0.6,0-1-0.5-1-1S11.8,17.5,12.3,17.5z M12.3,21.5c-0.6,0-1,0.5-1,1s0.5,1,1,1h1.3l-0.5,1.5l-0.5,1.5l-0.2,0.6
	c-0.2,0.5,0.1,1.1,0.6,1.3c0.5,0.2,1.1-0.1,1.3-0.6l0.2-0.6l0.5-1.5c0.2-0.6,0.5-1.4,0.8-2.2h9.1c0.3,0.8,0.5,1.6,0.8,2.2l0.5,1.5
	l0.2,0.6c0.2,0.5,0.7,0.8,1.3,0.6c0.5-0.2,0.8-0.7,0.6-1.3l0,0l-0.2-0.6l-0.5-1.5L27,23.5h1.3c0.6,0,1-0.5,1-1s-0.5-1-1-1h-2h-2.1
	h-7.7h-2.1H12.3z M27.3,27.5l0.9-0.3C28.2,27.2,28.2,27.2,27.3,27.5z M27.3,27.5c-0.9,0.3-0.9,0.3-0.9,0.3L27.3,27.5z M13.3,27.5
	l0.9,0.3C14.3,27.8,14.3,27.8,13.3,27.5z M13.3,27.5c-0.9-0.3-0.9-0.3-0.9-0.3L13.3,27.5z"/>
</svg>
