<svg id="Layer_1" data-name="Layer 1" xmlns="http://www.w3.org/2000/svg" xmlns:xlink="http://www.w3.org/1999/xlink" viewBox="0 0 40 40">
  <defs>
    <style>
      .cls-1 {
        fill: url(#linear-gradient);
      }

      .cls-2 {
        fill: #fff;
      }
    </style>
    <linearGradient id="linear-gradient" x1="20" y1="-1.37499" x2="20" y2="-38.62501" gradientTransform="translate(0 40)" gradientUnits="userSpaceOnUse">
      <stop offset="0" stop-color="#043799"/>
      <stop offset="1" stop-color="#014fec"/>
    </linearGradient>
  </defs>
  <title>apecoin</title>
  <path class="cls-1" d="M37,26.3V13.7a6.00112,6.00112,0,0,0-3-5.2L23,2.2a5.867,5.867,0,0,0-6,0L6,8.5a6.00112,6.00112,0,0,0-3,5.2V26.3a6.00113,6.00113,0,0,0,3,5.2l11,6.3a5.867,5.867,0,0,0,6,0l11-6.3A6.09188,6.09188,0,0,0,37,26.3Z"/>
  <g>
    <path class="cls-2" d="M30.39765,15.35284a5.18762,5.18762,0,0,1-.22855.78722h0a4.519,4.519,0,0,0-.30473,1.01578,4.97441,4.97441,0,0,0-.07619.50788h0a3.4967,3.4967,0,0,1-.127.63486,3.63766,3.63766,0,0,1-.48249.93959c-.22855.30473-.63486.838-1.14275.8888h-.17775a24.11383,24.11383,0,0,0-3.19969-1.44747c-.50789-.15237-.4571-1.26972-.38092-2.23471a10.05886,10.05886,0,0,0,.0254-1.21893c-.07619-1.24432-.27934-2.59022-1.3713-3.27587a4.277,4.277,0,0,0-2.28549-.50788c.15237-.07619.30473-.17776.48249-.27934h0a4.00038,4.00038,0,0,1,1.62524-.66026,4.15333,4.15333,0,0,1,.55868-.05079,6.86759,6.86759,0,0,1,3.22508.127,3.78444,3.78444,0,0,1,1.72682,1.21893,4.64494,4.64494,0,0,0,1.092,1.19353,7.14021,7.14021,0,0,0,.68565.58407h0c.20316.17776.25394.20316.33013.33013A2.31816,2.31816,0,0,1,30.39765,15.35284Z"/>
    <path class="cls-2" d="M24.98865,20.4571a.14041.14041,0,0,1,.07618.20316c-.15236.22854-.33012.55867-.53328.93959-.10158.17776-.20315.38091-.27934.50788a2.67574,2.67574,0,0,0-.33012,1.24433c-.0254.35551-.0254.50788-.25395.63485-.17776.127-.35552.15237-1.57445.33013a1.50442,1.50442,0,0,0-.38091.10158c-.02539,0-.02539,0-.05079.02539a.11113.11113,0,0,1-.15236-.127c0-.17776.02539-.38091.02539-.63486v-.63486c-.02539-.30473-.02539-.4317.07618-.58407a1.15839,1.15839,0,0,1,.30473-.30473,3.016,3.016,0,0,0,.81262-.78722,1.76993,1.76993,0,0,0,.27934-.53329c0-.05079.02539-.07618.17776-.17776a1.62966,1.62966,0,0,1,1.26972-.38091c.10158.02539.33013.10158.53328.17776Z"/>
    <path class="cls-2" d="M20.18912,26.06925a.13193.13193,0,0,1-.10158.05079.31643.31643,0,0,1-.27934-.10157.91211.91211,0,0,1-.07618-.63486l.50789-.127A1.64748,1.64748,0,0,1,20.18912,26.06925Z"/>
    <path class="cls-2" d="M20.21451,24.21547c0,.07618-.02539.15236-.02539.25394v.38091a1.48424,1.48424,0,0,1-.48249.05079v-.4317a1.0466,1.0466,0,0,1,.02539-.30473c.05079,0,.10158-.0254.15237-.0254a1.74789,1.74789,0,0,1,.33012-.05079C20.23991,24.11389,20.21451,24.16468,20.21451,24.21547Z"/>
    <path class="cls-2" d="M19.27492,25.91689c-.02539.25394-.10158.58407-.35552.63486-.10158.02539-.17776,0-.20316-.05079-.17776-.15237-.20315-.63486-.17776-.965a3.79034,3.79034,0,0,0,.43171-.05079,1.27473,1.27473,0,0,1,.30473-.05078Z"/>
    <path class="cls-2" d="M19.148,24.9773l-.55868.17776c.0254-.22855.07619-.53329.07619-.73644a.39071.39071,0,0,1,.05079-.20315h.02539l.35552-.0254A3.97285,3.97285,0,0,1,19.148,24.9773Z"/>
    <path class="cls-2" d="M18.25915,24.79954c-.0254.07618-.07619.33012-.10158.48249l-.711-.0254q.07617-.34283.15236-.60946a.61764.61764,0,0,1,.17776-.33013.315.315,0,0,1,.33013.0254A.40959.40959,0,0,1,18.25915,24.79954Z"/>
    <path class="cls-2" d="M17.97981,26.93266a.38883.38883,0,0,1-.17776.127.21426.21426,0,0,1-.17776-.05079c-.22855-.20315-.20316-.86341-.20316-1.19353a3.60837,3.60837,0,0,1,.76183-.127A2.1923,2.1923,0,0,1,17.97981,26.93266Z"/>
    <path class="cls-2" d="M17.06561,25.23124a2.63131,2.63131,0,0,1-.10158.25394A1.80194,1.80194,0,0,1,16.38,25.4344l.17776-1.092a1.14273,1.14273,0,0,1,.71105-.0254C17.37034,24.444,17.16719,25.00269,17.06561,25.23124Z"/>
    <path class="cls-2" d="M16.76088,27.11042a.71078.71078,0,0,1-.63486.25395c-.20315,0-.27934-.07618-.30473-.127-.15236-.25395,0-.838.15237-1.21893l.93959.05078c0,.07619.02539.15237.02539.22855A1.16921,1.16921,0,0,1,16.76088,27.11042Z"/>
    <path class="cls-2" d="M24.58234,19.1112c-.86341-.25394-.78722-1.49827-.711-2.6918a9.33768,9.33768,0,0,0,.02539-1.16814c-.07618-1.11735-.25394-2.36168-1.16814-2.92035a5.91414,5.91414,0,0,0-3.55521-.33013h0a3.92174,3.92174,0,0,1-.965.17776,3.2475,3.2475,0,0,1-1.42209-.48249,1.78429,1.78429,0,0,0-.838-.30474h-.05079a1.95532,1.95532,0,0,0-1.42208.53329,4.46227,4.46227,0,0,0-.50789,1.19353,4.16155,4.16155,0,0,0-.22855.965,3.15776,3.15776,0,0,1-.17776.81262c-.07618.22854-.15236.4571-.20315.63485a3.89838,3.89838,0,0,1-.66026,1.44748,1.11059,1.11059,0,0,0-.15236.25395,3.2991,3.2991,0,0,1-.33013.48249,1.885,1.885,0,0,0-.30473.78722,1.76,1.76,0,0,0,.17776.58407,1.2703,1.2703,0,0,1,.20315.66026v.05079c.0254.4317-.02539.66025-.8634,1.39669a9.5418,9.5418,0,0,0-1.16814,1.26971c-.0254.0254,0,.07619.05078.07619h.17776a.81634.81634,0,0,1,.53328.25394c.0254.0254.05079.0254.10158.0254a.81745.81745,0,0,1,.4317-.0254.91276.91276,0,0,1,.4571.17776.18659.18659,0,0,0,.15237.05079.7407.7407,0,0,1,.40631.02539.84522.84522,0,0,1,.25394.15237.19245.19245,0,0,0,.25394.0254c.0254-.0254.07619-.0254.10158-.05079a1.0463,1.0463,0,0,1,.55868.0254,1.061,1.061,0,0,1,.25394.10157.7979.7979,0,0,1,.27934.35552.18582.18582,0,0,0,.27934.07618.27695.27695,0,0,1,.30473-.05078c.02539.02539.07618.05078.10157.07618a.32349.32349,0,0,0,.27934.127,1.18155,1.18155,0,0,1,.838.10158.7203.7203,0,0,1,.25394.22855h0v-.05079a.05461.05461,0,0,1,.05079-.05079l.05079-.0254c.127-.05078.838-.25394,1.11735.05079a.03517.03517,0,0,0,.05079,0c.02539-.05079.07618-.05079.07618-.07618a.62013.62013,0,0,1,.68565.05079c.05078.02539.10157.02539.127-.0254l.07618-.07618a.307.307,0,0,1,.25395-.07619l.38091-.02539a3.44215,3.44215,0,0,0,.50789-.05079H19.732c.05079,0,.07619-.0254.127-.0254a.91939.91939,0,0,1,.58407,0c.17776.07619.15237.27934.127.43171,0,.07618-.0254.15236-.0254.20315V24.571a1.68177,1.68177,0,0,1-.02539.38091h0l.02539.07619a.11682.11682,0,0,0,.17776.07618,1.07151,1.07151,0,0,0,.30473-.25394v-.0254a.51661.51661,0,0,0,.0254-.127,6.79991,6.79991,0,0,0,.05078-1.04117v-.63486a1.31224,1.31224,0,0,1,.127-.838,1.02323,1.02323,0,0,1,.4571-.43171A2.15152,2.15152,0,0,0,22.373,21.092a1.37451,1.37451,0,0,0,.20316-.38092c.02539-.15236.07618-.25394.33013-.4571a1.99672,1.99672,0,0,1,1.59984-.4571,6.72264,6.72264,0,0,1,1.11735.35552h0c.0254,0,.0254,0,.05079.0254h.02539a9.44318,9.44318,0,0,1,.965.4317.15924.15924,0,0,0,.20316-.05078,1.6426,1.6426,0,0,1,.22854-.20316c.0254-.0254.05079-.0254.07619-.05079a.15462.15462,0,0,0-.0254-.25394,21.1776,21.1776,0,0,0-2.56482-.93958Zm-8.12619.25394A4.05184,4.05184,0,0,1,13.58659,21.803h-.15237a1.3533,1.3533,0,0,1-.50789-.30473,1.06507,1.06507,0,0,1-.22854-.35552.09327.09327,0,0,0-.0254-.07618,1.1259,1.1259,0,0,1,.07618-.838l.07619-.15236c0-.0254.02539-.0254.02539-.05079.0254-.05079.0254-.07619.05079-.127a.361.361,0,0,0,.05079-.15237c0-.0254.02539-.0254.02539-.05079a.61007.61007,0,0,0,.05079-.25394.49583.49583,0,0,1,.02539-.17776c.05079-.22855.07619-.40631.10158-.55868a1.90484,1.90484,0,0,1,.22855-.78722.19827.19827,0,0,1,.10158-.10158l.02539-.0254.0254-.02539c.05079-.0254.07618-.05079.127-.07619.02539,0,.02539-.02539.05079-.02539s.07618-.0254.10157-.0254a1.66575,1.66575,0,0,1,.50789-.02539,3.46836,3.46836,0,0,1,.58407.10157,3.324,3.324,0,0,1,.38092.127.02487.02487,0,0,1,.02539.0254.08864.08864,0,0,1,.05079.0254.09329.09329,0,0,0,.07618.02539c.0254.0254.07619.0254.10158.05079h.0254c.127.05079.22855.127.33012.17776.05079.0254.07619.07618.127.10158a.02487.02487,0,0,1,.0254.02539l.02539.0254A1.04453,1.04453,0,0,1,16.45615,19.36514Zm.838-4.36782-.02539.20315a1.39266,1.39266,0,0,1-.93959,1.29511,4.5996,4.5996,0,0,1-1.26972.20316h-.02539a1.17181,1.17181,0,0,1-1.11736-.73643c-.07618-.35552.07619-.58408.33013-1.01578.05079-.07618.07619-.15237.127-.22855a5.83571,5.83571,0,0,0,.55868-1.26971,1.66979,1.66979,0,0,1,.40631-.78723,1.10468,1.10468,0,0,1,.17776-.15237c.05079-.02539.07618-.05079.127-.07618a1.74976,1.74976,0,0,1,.20315-.07619,1.47882,1.47882,0,0,1,.4825-.07618,1.46122,1.46122,0,0,1,.86341.27934,1.062,1.062,0,0,1,.33012.73644C17.52271,13.52444,17.44653,13.98154,17.29416,14.99732Zm4.85032,1.3459a2.41216,2.41216,0,0,1-.55867.78722,1.915,1.915,0,0,1-1.24433.40631,3.63723,3.63723,0,0,1-.66025-.07618c-.40631-.07618-1.14274-.20315-1.39669-.78723a.59534.59534,0,0,1-.05079-.27934,3.80981,3.80981,0,0,0-.05078-.60946v-.02539a1.62537,1.62537,0,0,1,0-.60947v-.02539a4.72492,4.72492,0,0,1,.20315-.8888.29637.29637,0,0,1,.38092-.127.28848.28848,0,0,1,.127.38092,6.21982,6.21982,0,0,0-.15237.73643v.0254a1.23287,1.23287,0,0,0,0,.4317v.0254a4.97531,4.97531,0,0,1,.05079.68564v.07619a.49833.49833,0,0,0,.22855.22855.12932.12932,0,0,0,.17776-.15237,2.85763,2.85763,0,0,1,.127-1.75221c.07619-.15237.22855-.40631.35552-.63486h0c.0254-.02539.0254-.05079.05079-.07618a.08864.08864,0,0,1,.0254-.05079c.05078-.10158.127-.20316.15236-.25394a182.42493,182.42493,0,0,1,.05079-.0508c0-.02539.02539-.02539.02539-.05078v-.0254h0V13.626l.0254-.02539h0c.02539-.05079.07618-.10158.10157-.15237.07619-.10157,0-.22855-.127-.17776-.20315.10158-.33012.20316-.35552.20316a.28954.28954,0,1,1-.35552-.4571,1.97419,1.97419,0,0,1,2.99653.48249,2.32422,2.32422,0,0,1,.43171,1.29511,2.754,2.754,0,0,1-.55868,1.54907Z"/>
    <path class="cls-2" d="M16.10063,12.86419c-.05079.127-.10158.25395-.17776.40631-.15237.35552-.30473.76183-.38092.9142a2.846,2.846,0,0,1-.33013.53328,1.412,1.412,0,0,0-.22855.43171,1.74435,1.74435,0,0,0-.05078.965c-.17776-.02539-.4571-.15236-.50789-.30473-.02539-.127.05079-.22855.25394-.58407.05079-.07618.07619-.15237.127-.22855a6.22164,6.22164,0,0,0,.60946-1.39669c.127-.35552.17776-.50788.35552-.63485C15.89747,12.94037,15.99905,12.88958,16.10063,12.86419Z"/>
    <path class="cls-2" d="M15.74511,25.66294a6.76066,6.76066,0,0,1-.58407.965,4.21458,4.21458,0,0,1-.27934-1.75221v-.05079a1.00831,1.00831,0,0,1,.17776-.50788c.05079-.10158.22855-.15237.4317-.15237a.83466.83466,0,0,1,.4317.10157h0a.32321.32321,0,0,1,.17776.33013A3.08025,3.08025,0,0,1,15.74511,25.66294Z"/>
    <path class="cls-2" d="M26.5631,21.14275c.02539,0,.02539.02539.02539.05079a1.27587,1.27587,0,0,1-.20315.30473,4.3697,4.3697,0,0,0-.33013.4571,2.80116,2.80116,0,0,0-.22855,1.26971,14.36623,14.36623,0,0,0,.0254,1.62524,3.05861,3.05861,0,0,1-.0254.838,4.18127,4.18127,0,0,1-.73643,1.59985A3.42,3.42,0,0,1,23.465,28.888a.56993.56993,0,0,1-.25394.0254c-.17776,0-.4571,0-.99038.02539a12.75449,12.75449,0,0,0-1.87919.127,3.339,3.339,0,0,0-.8888.27934,4.03179,4.03179,0,0,1-.76183.22855,6.97568,6.97568,0,0,1-1.62524.10158,22.76573,22.76573,0,0,1-2.74259-.10158,7.34291,7.34291,0,0,1-2.28549-.43171c-.99038-.53328-1.39669-1.47287-2.08234-3.02192h0c0-.0254.0254-.05079.0254-.0254.02539.0254.07618.0254.10158.05079.02539,0,.05078.0254.10157.0254h.25395a.425.425,0,0,0,.22855.27934,1.0191,1.0191,0,0,0,.38091.07618,2.184,2.184,0,0,0,.40631-.0254.17.17,0,0,1,.17776.10158c.127.30473.27934.50789.50789.53328h.05079a.28537.28537,0,0,0,.20315-.07618.27947.27947,0,0,1,.35552.07618.67314.67314,0,0,0,.15237.127,2.09414,2.09414,0,0,0,1.26972.35552,1.51116,1.51116,0,0,0,.63486-.10157c.20315-.10158.20315-.25395.17775-.30474-.02539-.10157-.02539-.20315-.05078-.30473,0,0,.02539-.0254.02539,0,.02539.05079.05079.15236.15237.15236h.02539c.127,0,.33013.0508.38092.17777a1.23714,1.23714,0,0,0,.07618.17776.62666.62666,0,0,0,.55867.27934h.0254a1.00215,1.00215,0,0,0,.838-.35552c0-.02539.0254-.02539.0254-.05079a.272.272,0,0,1,.35552-.0254.47527.47527,0,0,0,.35552.127h.07618a.54466.54466,0,0,0,.40631-.25395.89031.89031,0,0,0,.15237-.35552c0-.05079.07618-.05079.10158-.02539a.46048.46048,0,0,0,.35552.127.2289.2289,0,0,0,.127-.0254.76183.76183,0,0,0,.55867-.63486s.0254-.02539.0254,0a.57637.57637,0,0,0,.48249.20316h.05079a.43409.43409,0,0,0,.33013-.17776.85807.85807,0,0,0,.15236-.50789.16094.16094,0,0,1,.127-.15236,1.6989,1.6989,0,0,0,.68565-.53329h0a.1687.1687,0,0,1,.127-.10157,1.279,1.279,0,0,0,.38092-.127,1.34823,1.34823,0,0,1,.27933-.07618c1.24433-.17776,1.47288-.22855,1.75222-.40631a1.03783,1.03783,0,0,0,.4317-.99038,2.00571,2.00571,0,0,1,.27934-1.04117c.07618-.15237.17776-.33013.27933-.53328.17776-.33013.43171-.78723.60947-1.04117a.16831.16831,0,0,1,.17776-.05079,5.40558,5.40558,0,0,1,.86341.45711Z"/>
    <path class="cls-2" d="M14.55157,24.82493a7.92411,7.92411,0,0,0,0,1.75221c.0254.20315.05079.4317.07619.66025a1.41048,1.41048,0,0,1-.53329.07618,1.762,1.762,0,0,1-1.01577-.25395l-.02539-.02539a.3523.3523,0,0,1-.17776-.30474.3376.3376,0,0,1,.07618-.17776.53125.53125,0,0,1,.10158-.15236,2.47322,2.47322,0,0,0,.25394-.38092c.27934-.48249.38092-.60946.50789-.81262,0-.02539.02539-.02539.02539-.05079a3.45569,3.45569,0,0,0,.30473-.45709c.10158-.15237.20316-.27934.25395-.38092.127-.15237.20315-.25394.25394-.30473a1.31,1.31,0,0,1-.05079.27934c0,.127-.02539.30474-.05079.53329Z"/>
    <path class="cls-2" d="M14.34842,18.17161h0a1.46428,1.46428,0,0,0-.20316.35552,2.268,2.268,0,0,0-.22855.965,1.23663,1.23663,0,0,1-.02539.30474.90214.90214,0,0,1-.10158.22854,2.17409,2.17409,0,0,0-.22855,1.16815c-.10158-.05079-.25394-.15237-.27934-.22855a.09331.09331,0,0,0-.02539-.07619.67368.67368,0,0,1,.05079-.48249,4.4808,4.4808,0,0,0,.33013-.9142.15268.15268,0,0,1,.02539-.10157c.05079-.22855.07618-.4571.10158-.60946a.9515.9515,0,0,1,.15236-.53329c.0254-.05078.127-.07618.25395-.07618Z"/>
    <path class="cls-2" d="M13.9929,24.19007a2.15078,2.15078,0,0,0-.10158-.4317l-.0254-.05079c0-.0254-.02539-.0254-.02539-.05079h0a.02487.02487,0,0,0-.02539-.0254l-.0254-.02539h-.02539a.02487.02487,0,0,1-.02539-.0254h-.0254a.96757.96757,0,0,0-.25394-.07618h-.07618c-.0254,0-.05079,0-.05079.0254a91.20349,91.20349,0,0,0-.05079.05079h0l-.02539.02539a.02488.02488,0,0,1-.0254.0254h0c-.02539.05079-.07618.10157-.10158.15237-.07618.127-.17776.25394-.25394.38091-.07618.10158-.15237.22855-.22855.33013-.05079.05079-.07618.127-.127.17776l-.02539.02539c.05078,0,.10157.0254.15236.0254a1.71438,1.71438,0,0,0,.35552.05079,6.70961,6.70961,0,0,0,.73644.05079h.02539c.05079-.07619.127-.17776.20316-.30474a2.34009,2.34009,0,0,0,.127-.20315c-.07619-.0508-.10158-.07619-.10158-.127Z"/>
    <path class="cls-2" d="M13.15488,25.18045a3.36486,3.36486,0,0,1-.55867,1.11735c-.27934.38092-.43171.48249-.4571.48249-.127-.02539-.25395-.33012-.35552-.66025a2.605,2.605,0,0,1-.10158-.35552,2.76625,2.76625,0,0,1-.07618-.76183,3.214,3.214,0,0,0,1.42208.20315h0A.19031.19031,0,0,1,13.15488,25.18045Z"/>
    <path class="cls-2" d="M12.67239,23.65679h0c-.127.17776-.22855.35552-.35552.53328-.05079.07619-.127.17776-.17776.25395-.0254.05079-.07619.10157-.10158.15236-.10158-.02539-.20316-.05078-.27934-.07618l-.22855-.07618c-.02539,0-.02539,0-.05078-.0254,0-.02539-.0254-.05079-.05079-.07618h0a1.23827,1.23827,0,0,0,.07618-.17776l.15237-.30473a1.4744,1.4744,0,0,1,.40631-.48249.02487.02487,0,0,0,.02539-.0254.35448.35448,0,0,1,.22855-.07618h.10158c.02539,0,.05079,0,.05079.02539h.02539c.02539,0,.02539.0254.05079.0254-.0254-.0254.02539.05079.02539.05079A.949.949,0,0,1,12.67239,23.65679Z"/>
    <path class="cls-2" d="M11.75819,23.1743a2.682,2.682,0,0,0-.50788.66025c-.07619.127-.127.27934-.20316.40631,0,.0254-.02539.0254-.02539.05079-.07619-.0254-.127-.0254-.20316-.05079s-.127-.05079-.20315-.07618c-.0254-.0254-.05079-.0254-.07619-.05079a2.53709,2.53709,0,0,0,.20316-.35552,5.14832,5.14832,0,0,1,.33012-.4571c.05079-.05079.10158-.127.15237-.15237.07618-.05078.15237-.02539.22855-.02539a.70318.70318,0,0,1,.22855.02539A.19651.19651,0,0,0,11.75819,23.1743Z"/>
    <path class="cls-2" d="M11.42807,26.04386l-.0254.02539h-.48249c-.05079,0-.10158,0-.127-.05078a.60658.60658,0,0,1-.05079-.22855,3.28848,3.28848,0,0,1-.02539-1.11735,2.19641,2.19641,0,0,0,.58407.15237,2.68571,2.68571,0,0,0,.07618.965A.63713.63713,0,0,0,11.42807,26.04386Z"/>
    <path class="cls-2" d="M10.8186,23.07272a3.835,3.835,0,0,0-.4571.66025,1.517,1.517,0,0,0-.15236.27934c-.07619-.02539-.127-.05078-.20316-.07618-.05079-.0254-.10158-.07618-.15236-.10158,0,0-.05079-.02539-.05079-.05078h-.0254a.42887.42887,0,0,0,.05079-.127,1.02984,1.02984,0,0,1,.127-.22854c.07619-.127.17776-.27934.25395-.40631a.306.306,0,0,1,.127-.127c.05079-.02539.127,0,.15237,0a.531.531,0,0,1,.33012.17776Z"/>
    <path class="cls-2" d="M9.52349,23.96152h0c.07619.05079.127.10158.20316.15237l.07618.07618v.0254a3.38212,3.38212,0,0,0-.127.86341c0,.02539-.02539.02539-.02539,0A3.12743,3.12743,0,0,1,9.52349,23.96152Z"/>
    <path class="cls-2" d="M10.33611,24.59638c-.02539.25394-.05079.50789-.05079.76183a2.223,2.223,0,0,0,.05079.40631h-.15237a.0933.0933,0,0,1-.07618-.02539l-.10158-.10158a.6868.6868,0,0,1-.07618-.38091,4.23518,4.23518,0,0,1,.05079-.78723c.05078.0254.07618.0254.127.05079a1.17993,1.17993,0,0,1,.22855.07618Z"/>
  </g>
</svg>
