<?xml version="1.0" encoding="utf-8"?>
<!-- Generator: Adobe Illustrator 22.0.0, SVG Export Plug-In . SVG Version: 6.00 Build 0)  -->
<svg version="1.1" id="Layer_1" xmlns="http://www.w3.org/2000/svg" xmlns:xlink="http://www.w3.org/1999/xlink" x="0px" y="0px"
	 viewBox="0 0 40 40" style="enable-background:new 0 0 40 40;" xml:space="preserve">
<style type="text/css">
	.st0{fill:url(#SVGID_1_);}
	.st1{fill:#FFFFFF;}
</style>
<linearGradient id="SVGID_1_" gradientUnits="userSpaceOnUse" x1="474.5669" y1="-2347.1785" x2="437.2752" y2="-2347.1785" gradientTransform="matrix(0 1 -1 0 -2327.1785 -436.0419)">
	<stop  offset="0" style="stop-color:#0AA363"/>
	<stop  offset="1" style="stop-color:#35DDA0"/>
</linearGradient>
<path class="st0" d="M37,26.2V13.6c0-2.1-1.1-4.1-3-5.2L23,2.1c-1.9-1.1-4.1-1.1-6,0L6,8.4c-1.9,1.1-3,3.1-3,5.2v12.6
	c0,2.1,1.1,4.1,3,5.2l11,6.3c1.9,1.1,4.1,1.1,6,0l11-6.3C35.8,30.3,37,28.4,37,26.2z"/>
<title>Asset 1</title>
<path class="st1" d="M10.5,26.9H9.4V24h-1v-0.9h3.1V24h-1V26.9z M14.8,23c1.2,0,1.9,0.8,1.9,2c0,1.2-0.7,2-1.9,2
	c-1.2,0-1.9-0.8-1.9-2C12.9,23.8,13.7,23,14.8,23z M14.8,23.9c-0.5,0-0.8,0.4-0.8,1.1c0,0.7,0.3,1.1,0.8,1.1c0.5,0,0.8-0.4,0.8-1.1
	C15.6,24.3,15.3,23.9,14.8,23.9z M19.6,26.9h-1.1v-3.8h1.1v1.6h0l1.2-1.6H22l-1.3,1.7l1.3,2.1h-1.3l-0.8-1.4l-0.3,0.4V26.9z
	 M26.3,26v0.9h-2.7v-3.8h2.7V24h-1.6v0.6h1.5v0.8h-1.5V26H26.3z M29.2,26.9h-1.1v-3.8H29l1.5,2h0v-2h1.1v3.8h-0.9l-1.5-2h0V26.9z"/>
<path class="st1" d="M10.1,19.5H8.3V13h1.5l2.5,3.4h0V13h1.8v6.6h-1.5l-2.5-3.5h0V19.5z M18.6,12.8c2,0,3.3,1.3,3.3,3.4
	s-1.3,3.4-3.3,3.4c-2,0-3.3-1.3-3.3-3.4S16.5,12.8,18.6,12.8z M18.6,14.4c-0.8,0-1.3,0.7-1.3,1.9c0,1.1,0.5,1.9,1.3,1.9
	s1.3-0.7,1.3-1.9C19.9,15.1,19.4,14.4,18.6,14.4z M27.1,15.8l-1,3.8h-1.8L22.7,13h2l0.8,4.1h0l1-4.1h1.5l1,4.1h0l0.8-4.1h2L30,19.5
	h-1.8L27.1,15.8L27.1,15.8z"/>
</svg>
