<svg width="500" height="500" viewBox="0 0 500 500" fill="none" xmlns="http://www.w3.org/2000/svg">
<g clip-path="url(#clip0_160_1221)">
<path d="M500 0V500H0V0H500Z" fill="url(#paint0_linear_160_1221)"/>
<path opacity="0.8" fill-rule="evenodd" clip-rule="evenodd" d="M390.493 314C390.493 367.019 346.868 410 293.053 410H109V346H293.053C310.992 346 325.533 331.673 325.533 314C325.533 296.327 310.992 282 293.053 282H228.093V218H293.053C310.992 218 325.533 203.673 325.533 186C325.533 168.327 310.992 154 293.053 154H109V90H293.053C346.868 90 390.493 132.981 390.493 186C390.493 210.587 381.111 233.016 365.682 250C381.111 266.984 390.493 289.413 390.493 314Z" fill="white"/>
<path opacity="0.12" d="M109 346H267.083C233.504 384.862 180.042 410 119.827 410C116.192 410 112.582 409.908 109 409.728V346ZM300.198 282H238.92V218H300.198C302.613 228.34 303.88 239.041 303.88 250C303.88 260.959 302.613 271.66 300.198 282ZM267.083 154H109V90.2722C112.582 90.0916 116.192 90 119.827 90C180.042 90 233.504 115.138 267.083 154Z" fill="black"/>
<path d="M109 90C198.691 90 271.4 161.634 271.4 250C271.4 338.366 198.691 410 109 410V346C162.815 346 206.44 303.019 206.44 250C206.44 196.981 162.815 154 109 154V90Z" fill="white"/>
</g>
<defs>
<linearGradient id="paint0_linear_160_1221" x1="250" y1="0" x2="250" y2="500" gradientUnits="userSpaceOnUse">
<stop stop-color="#FE815F"/>
<stop offset="1" stop-color="#FE815F"/>
</linearGradient>
<clipPath id="clip0_160_1221">
<rect width="500" height="500" fill="white"/>
</clipPath>
</defs>
</svg>
