<?xml version="1.0" encoding="utf-8"?>
<!-- Generator: Adobe Illustrator 22.0.0, SVG Export Plug-In . SVG Version: 6.00 Build 0)  -->
<svg version="1.1" id="Layer_1" xmlns="http://www.w3.org/2000/svg" xmlns:xlink="http://www.w3.org/1999/xlink" x="0px" y="0px"
	 viewBox="0 0 40 40" style="enable-background:new 0 0 40 40;" xml:space="preserve">
<style type="text/css">
	.st0{fill:url(#SVGID_1_);}
	.st1{fill:#FFFFFF;stroke:#FFFFFF;stroke-width:0.5;stroke-miterlimit:10;}
</style>
<linearGradient id="SVGID_1_" gradientUnits="userSpaceOnUse" x1="1157.2169" y1="3787.1785" x2="1194.5087" y2="3787.1785" gradientTransform="matrix(0 1 1 0 -3767.1785 -1156.0419)">
	<stop  offset="1.198744e-03" style="stop-color:#1ABC9C"/>
	<stop  offset="1" style="stop-color:#386669"/>
</linearGradient>
<path class="st0" d="M37,26.1V13.5c0-2.1-1.1-4.1-3-5.2L23,2c-1.9-1.1-4.1-1.1-6,0L6,8.3c-1.9,1.1-3,3.1-3,5.2v12.6
	c0,2.1,1.1,4.1,3,5.2l11,6.3c1.9,1.1,4.1,1.1,6,0l11-6.3C35.8,30.2,37,28.3,37,26.1z"/>
<g>
	<path class="st1" d="M10.7,26.8c0,0.2-0.2,0.3-0.4,0.3S10,27,10,26.8V13.2c0-0.3,0.3-0.4,0.6-0.3l8.4,6.3c0.1,0.1,0.1,0.2,0.1,0.3
		v7.3c0,0.2-0.2,0.3-0.4,0.3c-0.2,0-0.3-0.1-0.3-0.3v-7.1l-7.7-5.8C10.7,13.9,10.7,26.8,10.7,26.8z M21.6,26.8
		c0,0.2-0.2,0.3-0.4,0.3c-0.2,0-0.3-0.1-0.3-0.3v-7.3c0-0.1,0-0.2,0.1-0.3l8.4-6.3c0.2-0.1,0.4-0.1,0.5,0.1c0,0.1,0.1,0.1,0.1,0.2
		v13.6c0,0.2-0.2,0.3-0.4,0.3c-0.2,0-0.3-0.1-0.3-0.3V13.9l-7.7,5.8L21.6,26.8L21.6,26.8z"/>
</g>
</svg>
