<svg width="500" height="500" viewBox="0 0 500 500" fill="none" xmlns="http://www.w3.org/2000/svg">
<g clip-path="url(#clip0_900_1021)">
<path d="M500 0V500H0V0H500Z" fill="url(#paint0_linear_900_1021)"/>
<path d="M420.21 250C420.21 346.655 344.045 425 250.105 425C156.164 425 80 346.655 80 250C80 153.345 156.164 75 250.105 75C344.045 75 420.21 153.345 420.21 250Z" stroke="white" stroke-width="12"/>
<path fill-rule="evenodd" clip-rule="evenodd" d="M256.97 152.034C255.526 149.775 253.03 148.409 250.351 148.409C247.67 148.409 245.176 149.775 243.73 152.033L145.071 306.193C143.521 308.613 143.415 311.687 144.795 314.208C146.173 316.731 148.817 318.299 151.691 318.299H348.99C351.864 318.299 354.507 316.731 355.886 314.21C357.265 311.687 357.16 308.613 355.611 306.193L256.97 152.034ZM175.561 302.568H325.126C303.759 287.874 277.536 279.759 250.34 279.759C223.147 279.759 196.936 287.874 175.561 302.568ZM321.365 281.848L308.68 262.021C308.431 261.933 308.183 261.833 307.939 261.719C271.81 244.873 228.85 244.873 192.743 261.719C192.501 261.832 192.257 261.932 192.011 262.018L179.317 281.852C200.698 270.252 225.203 264.028 250.34 264.028C275.474 264.028 299.987 270.251 321.365 281.848ZM217.312 222.483L206.23 239.798C234.866 231.203 265.822 231.207 294.465 239.805L283.237 222.259C261.636 217.054 238.88 217.128 217.312 222.483ZM271.611 204.09C257.488 202.171 243.122 202.21 229.008 204.208L250.349 170.86L271.611 204.09Z" fill="white"/>
</g>
<defs>
<linearGradient id="paint0_linear_900_1021" x1="250" y1="0" x2="250" y2="500" gradientUnits="userSpaceOnUse">
<stop/>
<stop offset="1"/>
</linearGradient>
<clipPath id="clip0_900_1021">
<rect width="500" height="500" fill="white"/>
</clipPath>
</defs>
</svg>
