<?xml version="1.0" encoding="utf-8"?>
<!-- Generator: Adobe Illustrator 23.0.1, SVG Export Plug-In . SVG Version: 6.00 Build 0)  -->
<svg version="1.1" id="Layer_1" xmlns="http://www.w3.org/2000/svg" xmlns:xlink="http://www.w3.org/1999/xlink" x="0px" y="0px"
	 viewBox="0 0 40 40" style="enable-background:new 0 0 40 40;" xml:space="preserve">
<style type="text/css">
	.st0{fill:url(#SVGID_1_);}
	.st1{fill:#FFFFFF;}
</style>
<linearGradient id="SVGID_1_" gradientUnits="userSpaceOnUse" x1="-102.5582" y1="679.1784" x2="-65.2665" y2="679.1784" gradientTransform="matrix(0 1 1 0 -659.1784 103.9581)">
	<stop  offset="0" style="stop-color:#FC65B1"/>
	<stop  offset="0.9988" style="stop-color:#FF167F"/>
</linearGradient>
<path class="st0" d="M37,26.3V13.7c0-2.1-1.1-4.1-3-5.2L23,2.2c-1.9-1.1-4.1-1.1-6,0L6,8.5c-1.9,1.1-3,3.1-3,5.2v12.6
	c0,2.1,1.1,4.1,3,5.2l11,6.3c1.9,1.1,4.1,1.1,6,0l11-6.3C35.8,30.4,37,28.5,37,26.3z"/>
<title>ftx--logo</title>
<path class="st1" d="M20.1,9.8c-4.3,0-7.8,3.5-7.9,7.9c0,0.9,0.1,1.7,0.4,2.6c0.2,0.6,0.8,0.9,1.4,0.7c0.6-0.2,0.8-0.8,0.7-1.4
	c-0.2-0.6-0.3-1.3-0.3-2c0.1-3.1,2.7-5.6,5.8-5.5s5.6,2.7,5.5,5.8c-0.1,2.9-2.4,5.3-5.3,5.5c0,0-1.1,0.1-1.7,0.1
	c-0.2,0-0.4,0.1-0.6,0.1c0,0-0.1,0-0.1,0c0,0,0,0,0,0c0,0,0-0.1,0-0.1l0.2-0.9l1-4.7c0.1-0.6-0.2-1.2-0.8-1.3
	c-0.6-0.1-1.2,0.2-1.3,0.8c0,0-2.5,11.4-2.5,11.5c-0.1,0.6,0.2,1.1,0.7,1.3c0,0,0,0,0,0h0.1c0.6,0.1,1.1-0.2,1.3-0.7c0,0,0,0,0,0
	c0,0,0,0,0-0.1c0-0.1,0.3-1.7,0.3-1.7c0.2-1.1,1.2-2,2.3-2.2c0.2,0,1.2-0.1,1.2-0.1c4.3-0.4,7.5-4.3,7-8.6
	C27.3,13,24.1,9.9,20.1,9.8z"/>
<path class="st1" d="M20.6,28c-0.7-0.1-1.4,0.3-1.5,1c0,0,0,0,0,0c-0.2,0.7,0.3,1.4,1,1.6c0,0,0,0,0,0h0c0.7,0.2,1.4-0.3,1.5-0.9
	c0,0,0,0,0,0v-0.1C21.7,28.8,21.3,28.1,20.6,28z"/>
</svg>
