<?xml version="1.0" encoding="utf-8"?>
<!-- Generator: Adobe Illustrator 22.0.0, SVG Export Plug-In . SVG Version: 6.00 Build 0)  -->
<svg version="1.1" id="Layer_1" xmlns="http://www.w3.org/2000/svg" xmlns:xlink="http://www.w3.org/1999/xlink" x="0px" y="0px"
	 viewBox="0 0 40 40" style="enable-background:new 0 0 40 40;" xml:space="preserve">
<style type="text/css">
	.st0{fill:url(#SVGID_1_);}
	.st1{fill:url(#SVGID_2_);}
	.st2{fill:#FFFFFF;}
	.st3{fill:#FC9965;}
	.st4{fill:#FF2D55;}
	.st5{fill:url(#SVGID_3_);}
	.st6{fill:#FFBC5B;}
	.st7{fill:#FFC95B;}
</style>
<linearGradient id="SVGID_1_" gradientUnits="userSpaceOnUse" x1="474.5669" y1="-2347.1785" x2="437.2752" y2="-2347.1785" gradientTransform="matrix(0 1 -1 0 -2327.1785 -436.0419)">
	<stop  offset="1.198744e-03" style="stop-color:#FF2D55"/>
	<stop  offset="1" style="stop-color:#FFBC5B"/>
</linearGradient>
<path class="st0" d="M37,26.2V13.6c0-2.1-1.1-4.1-3-5.2L23,2.1c-1.9-1.1-4.1-1.1-6,0L6,8.4c-1.9,1.1-3,3.1-3,5.2v12.6
	c0,2.1,1.1,4.1,3,5.2l11,6.3c1.9,1.1,4.1,1.1,6,0l11-6.3C35.8,30.3,37,28.4,37,26.2z"/>
<title>Asset 1</title>
<linearGradient id="SVGID_2_" gradientUnits="userSpaceOnUse" x1="-283.6855" y1="415.2746" x2="-283.6855" y2="415.2105" gradientTransform="matrix(125 0 0 -150 35481.6992 62305)">
	<stop  offset="0" style="stop-color:#A524B3"/>
	<stop  offset="1" style="stop-color:#FF2D55"/>
</linearGradient>
<path class="st1" d="M17,13.8v9.6h8L17,13.8z"/>
<path class="st2" d="M9,23.4h8v-9.6L9,23.4z"/>
<path class="st3" d="M10.5,26c0.7,1,1.6,1.8,2.6,2.6h15.4c1-0.7,1.8-1.6,2.6-2.6H10.5z"/>
<path class="st4" d="M13.1,28.6c2.1,1.6,4.8,2.6,7.7,2.6s5.5-1,7.7-2.6H13.1z"/>
<linearGradient id="SVGID_3_" gradientUnits="userSpaceOnUse" x1="-284.5119" y1="415.3278" x2="-284.5119" y2="415.2637" gradientTransform="matrix(91.7 0 0 -110 26117.7988 45705)">
	<stop  offset="0" style="stop-color:#A524B3"/>
	<stop  offset="1" style="stop-color:#FF2D55"/>
</linearGradient>
<path class="st5" d="M25.1,18.9v7H31L25.1,18.9z"/>
<path class="st6" d="M25.1,23.4H9c0.4,0.9,0.9,1.8,1.5,2.6h14.6L25.1,23.4L25.1,23.4z"/>
<path class="st2" d="M19.3,26h5.9v-7L19.3,26z"/>
<circle class="st7" cx="25.1" cy="13.8" r="3.2"/>
<circle class="st7" cx="17" cy="10.3" r="1.6"/>
</svg>
