<?xml version="1.0" encoding="utf-8"?>
<!-- Generator: Adobe Illustrator 22.0.0, SVG Export Plug-In . SVG Version: 6.00 Build 0)  -->
<svg version="1.1" id="Layer_1" xmlns="http://www.w3.org/2000/svg" xmlns:xlink="http://www.w3.org/1999/xlink" x="0px" y="0px"
	 viewBox="0 0 40 40" style="enable-background:new 0 0 40 40;" xml:space="preserve">
<style type="text/css">
	.st0{fill:url(#SVGID_1_);}
	.st1{fill:#FFFFFF;}
</style>
<linearGradient id="SVGID_1_" gradientUnits="userSpaceOnUse" x1="1067.2169" y1="-3085.1785" x2="1104.5087" y2="-3085.1785" gradientTransform="matrix(0 1 -1 0 -3065.1785 -1066.0419)">
	<stop  offset="0" style="stop-color:#556BDF"/>
	<stop  offset="1" style="stop-color:#334EDE"/>
</linearGradient>
<path class="st0" d="M37,26.1V13.5c0-2.1-1.1-4.1-3-5.2L23,2c-1.9-1.1-4.1-1.1-6,0L6,8.3c-1.9,1.1-3,3.1-3,5.2v12.6
	c0,2.1,1.1,4.1,3,5.2l11,6.3c1.9,1.1,4.1,1.1,6,0l11-6.3C35.8,30.2,37,28.3,37,26.1z"/>
<g>
	<path class="st1" d="M26.3,13.6c0,1.2-2.8,2.1-6.3,2.1s-6.3-0.9-6.3-2.1c0-1.2,2.8-2.1,6.3-2.1S26.3,12.4,26.3,13.6z"/>
	<path class="st1" d="M30.5,25c0-1.4-2.6-2.7-6.3-3.2l-0.1,0c-1.2,0.2-2.7,0.4-4.1,0.4c-1.5,0-3-0.1-4.2-0.4
		c-3.7,0.5-6.3,1.8-6.3,3.2c0,1.9,4.7,3.5,10.5,3.5C25.8,28.5,30.5,27,30.5,25z"/>
	<path class="st1" d="M28.4,18.7c0-1.2-2.4-2.3-5.7-2.7l-0.1,0c-0.8,0.1-1.7,0.2-2.6,0.2c-0.9,0-1.8-0.1-2.7-0.2
		c-3.3,0.4-5.7,1.4-5.7,2.7c0,1.6,3.8,2.8,8.4,2.8C24.6,21.5,28.4,20.3,28.4,18.7z"/>
</g>
</svg>
