<?xml version="1.0" encoding="utf-8"?>
<!-- Generator: Adobe Illustrator 22.0.0, SVG Export Plug-In . SVG Version: 6.00 Build 0)  -->
<svg version="1.1" id="Layer_1" xmlns="http://www.w3.org/2000/svg" xmlns:xlink="http://www.w3.org/1999/xlink" x="0px" y="0px"
	 viewBox="0 0 40 40" style="enable-background:new 0 0 40 40;" xml:space="preserve">
<style type="text/css">
	.st0{fill:url(#SVGID_1_);}
	.st1{clip-path:url(#SVGID_3_);}
	.st2{fill:#FFFFFF;}
</style>
<linearGradient id="SVGID_1_" gradientUnits="userSpaceOnUse" x1="1067.4169" y1="-3085.1785" x2="1104.7087" y2="-3085.1785" gradientTransform="matrix(0 1 -1 0 -3065.1785 -1066.0419)">
	<stop  offset="1.198744e-03" style="stop-color:#234F8B"/>
	<stop  offset="1" style="stop-color:#052040"/>
</linearGradient>
<path class="st0" d="M37,26.3V13.7c0-2.1-1.1-4.1-3-5.2L23,2.2c-1.9-1.1-4.1-1.1-6,0L6,8.5c-1.9,1.1-3,3.1-3,5.2v12.6
	c0,2.1,1.1,4.1,3,5.2l11,6.3c1.9,1.1,4.1,1.1,6,0l11-6.3C35.8,30.4,37,28.5,37,26.3z"/>
<g>
	<defs>
		<rect id="SVGID_2_" x="12.3" y="9.5" width="15.5" height="21"/>
	</defs>
	<clipPath id="SVGID_3_">
		<use xlink:href="#SVGID_2_"  style="overflow:visible;"/>
	</clipPath>
	<g class="st1">
		<path class="st2" d="M24.9,11.3c-1.4-1.1-3.1-1.8-4.9-1.8c-1.8,0-3.5,0.6-4.9,1.8c-1,0.8-1.8,1.8-2.2,3c-0.5,1.2-0.7,2.5-0.5,3.7
			c0.1,1.3,0.6,2.5,1.3,3.5c0.7,1.1,1.7,1.9,2.8,2.5c0,0.1,0.1,0.2,0.1,0.3c0.1,0.3,0.3,0.7,0.5,1c0.2,0.2,0.4,0.4,0.7,0.4
			c0.1,0,0.3,0,0.4,0c0.1,0,0.3-0.1,0.4-0.2c0.1-0.1,0.2-0.2,0.3-0.3c0.1-0.1,0.2-0.3,0.2-0.4c0.1-0.4,0.1-0.7,0.1-1.1
			c0-0.3,0-0.7-0.1-1c0-0.2-0.1-0.4-0.3-0.6c-0.1-0.2-0.3-0.3-0.5-0.4h0c-1-0.4-1.9-1.2-2.4-2.2c-0.3-0.6-0.5-1.3-0.5-2
			c0-0.7,0.1-1.4,0.3-2c0.3-0.6,0.6-1.2,1.1-1.7c0.5-0.5,1.1-0.8,1.7-1.1c0.6-0.2,1.3-0.3,2-0.3c0.7,0.1,1.3,0.2,1.9,0.6
			c0.6,0.3,1.1,0.8,1.5,1.3c0.4,0.5,0.7,1.2,0.9,1.8c0.2,1.1,0.1,2.3-0.4,3.3c-0.5,1-1.4,1.8-2.4,2.3h0l-0.1,0.1c0,0-0.1,0-0.1,0.1
			l-0.1,0.1c0,0-0.1,0.1-0.1,0.1c-0.1,0.1-0.2,0.2-0.2,0.3l0,0.1l0,0l-0.1,0.1c0,0.1,0,0.1-0.1,0.2c0,0.2-0.1,0.3-0.1,0.5
			c0,0.3,0,0.5,0,0.7l0,1.3c0,0.4,0,0.9,0,1.3c0,0.4-0.1,0.9-0.3,1.3l0,0c-0.1,0.3-0.2,0.6-0.2,0.9c0,0.3,0.1,0.6,0.3,0.8
			c0.2,0.2,0.4,0.5,0.6,0.6c0.3,0.1,0.6,0.2,0.9,0.2s0.6-0.1,0.8-0.3c0.3-0.2,0.5-0.4,0.6-0.6c0.1-0.3,0.2-0.6,0.2-0.9
			c0-0.3-0.1-0.6-0.3-0.8c-0.2-0.4-0.4-0.8-0.4-1.2c0-0.4,0-0.8,0-1.2c0-0.4,0-0.8,0.1-1.2c0-0.1,0-0.2,0-0.2
			c1.5-0.7,2.7-1.8,3.5-3.3c0.8-1.6,1.1-3.4,0.8-5.1C27.2,14,26.3,12.4,24.9,11.3L24.9,11.3z"/>
		<path class="st2" d="M22,19.2l-2-2l-2-2l-0.2-0.2c-0.5,0.6-0.8,1.3-0.8,2.1c0,0.8,0.3,1.5,0.9,2.1c0.6,0.6,1.3,0.9,2.1,0.9
			c0.8,0,1.5-0.3,2.1-0.8L22,19.2z"/>
	</g>
</g>
</svg>
