<svg id="Layer_1" data-name="Layer 1" xmlns="http://www.w3.org/2000/svg" xmlns:xlink="http://www.w3.org/1999/xlink" viewBox="0 0 40 40"><defs><style>.cls-1{fill:url(#linear-gradient);}.cls-2{fill:#3a231f;}.cls-3{fill:#f8a33a;}.cls-4{fill:#fbfbfa;}.cls-5{fill:#d3d4d4;}.cls-6{fill:#f9a43a;}.cls-7{fill:#fdfaf8;}.cls-8{fill:#ee8223;}.cls-9{fill:#ef8424;}.cls-10{fill:#c45726;}.cls-11{fill:#dc7025;}.cls-12{fill:#f2bd60;}.cls-13{fill:#b7222f;}.cls-14{fill:#e9da48;}.cls-15{fill:#cfccc9;}.cls-16{fill:#e6e4e4;}.cls-17{fill:#a1a0a1;}.cls-18{fill:#371f19;}.cls-19{fill:#321c18;}.cls-20{fill:#331f1e;}.cls-21{fill:#e38b83;}.cls-22{fill:#503531;}</style><linearGradient id="linear-gradient" x1="564.6669" y1="3049.17847" x2="527.37521" y2="3049.17847" gradientTransform="matrix(0, 1, 1, 0, -3029.17847, -526.0419)" gradientUnits="userSpaceOnUse"><stop offset="0" stop-color="#be5117"/><stop offset="1" stop-color="#f6a42c"/></linearGradient></defs><title>babydoge</title><path class="cls-1" d="M37,26.3V13.7a6.00113,6.00113,0,0,0-3-5.2L23,2.2a5.867,5.867,0,0,0-6,0L6,8.5a6.00113,6.00113,0,0,0-3,5.2V26.3a6.00113,6.00113,0,0,0,3,5.2l11,6.3a5.867,5.867,0,0,0,6,0l11-6.3A6.09187,6.09187,0,0,0,37,26.3Z"/><path class="cls-2" d="M14.659,24.76685a3.51925,3.51925,0,0,1,.57671-1.6703c.22307-.30609.24088-.58721-.15251-.80106-1.98114-1.0769-2.82733-3.0848-2.20281-5.62847a6.10343,6.10343,0,0,0-.07015-2.39656,7.82614,7.82614,0,0,1,.36243-3.71173c.37348-1.06263.984-1.29757,2.01372-.8292a6.16563,6.16563,0,0,1,1.6221,1.07134.61285.61285,0,0,0,.7443.12214,7.393,7.393,0,0,1,5.69936.00545.62087.62087,0,0,0,.74691-.13065A6.054,6.054,0,0,1,25.62374,9.7289c1.01219-.45535,1.66324-.19915,2.01538.84206a8.2726,8.2726,0,0,1,.22393,4.46838,2.57689,2.57689,0,0,0-.00245,1.289c.6874,2.4556.07593,4.75916-2.15056,5.96763-.395.2144-.34982.51321-.14194.81209a2.8287,2.8287,0,0,1,.50342,2.11444c-.04534.291.10333.40789.27708.57349a2.57973,2.57973,0,0,1,.40045,3.03484c-.33628.93262-.82838,1.22626-2.01613,1.2408a2.99652,2.99652,0,0,0-1.26933.25442,2.162,2.162,0,0,1-1.80868-.0744,3.1954,3.1954,0,0,0-2.55026.01523,2.05352,2.05352,0,0,1-1.80928.04256,2.49766,2.49766,0,0,0-1.1343-.23679c-1.45193-.01089-2.00844-.45219-2.30472-1.88447a1.647,1.647,0,0,0-.647-1.07293,3.52477,3.52477,0,0,1-.82982-4.58085c.084-.13385.14107-.34194.31934-.3355.246.00888.22155.26615.26877.42905A2.91139,2.91139,0,0,0,14.659,24.76685Zm9.49369-13.41578.00524-.02071c-.14021-.01729-.20963.0698-.264.17905l.00727-.00952c-.297.10884-.53757-.06205-.79006-.16363a7.271,7.271,0,0,0-4.617-.28187c-.53114.13406-.98493.53094-1.57334.453l.00737.00668c-.06381-.10561-.13636-.197-.28029-.172l.01933.01353a2.62794,2.62794,0,0,0-1.67261-1.03265l.76457.642.17276.183.08047.10622c.47685.50765.32923.84164-.19449,1.26747a7.26646,7.26646,0,0,0-2.54536,4.3481,3.75824,3.75824,0,0,0,.01151,2.17762c-.13491.27951.05859.48672.15736.71479a3.66387,3.66387,0,0,0,1.99715,2.20508,8.82413,8.82413,0,0,0,3.47784.9448,12.07442,12.07442,0,0,0,6.09591-.77819,3.76991,3.76991,0,0,0,2.27964-2.21245l.26115-.92641c.1762-.1954.12172-.43962.11922-.66181a7.44255,7.44255,0,0,0-2.723-5.83865c-.54652-.46195-.608-.79189-.10423-1.26171a1.82285,1.82285,0,0,0,.20414-.27649,2.4472,2.4472,0,0,0,.67971-.67042,2.66086,2.66086,0,0,0-1.43851.9098l.0138.00669C24.204,11.20132,24.14,11.23715,24.15264,11.35107ZM22.64773,29.98935A1.09931,1.09931,0,0,0,23.8668,29.438a9.585,9.585,0,0,0,1.68442-3.72165,3.07917,3.07917,0,0,0-.07368-1.85985c-.12291-.31416-.28213-.50062-.59625-.181l-.42643.17677-1.80263.5322c-.23062.0091-.46159.01309-.69179.02857-.29246.01967-.45222.07927-.33929.46529a1.13317,1.13317,0,0,1-.53885,1.31825,1.19249,1.19249,0,0,1-1.31693.02894,1.11753,1.11753,0,0,1-.58978-1.29547c.12015-.47784-.12635-.50536-.44863-.52845-.18387-.01317-.369-.009-.55352-.01265l-1.81091-.53227-.41975-.17243c-.27576-.28539-.4776-.22285-.61044.13373a2.42955,2.42955,0,0,0-.19574,1.15532A9.28119,9.28119,0,0,0,16.93689,29.427a1.10236,1.10236,0,0,0,1.24338.56443c.4581.06232.83793.01562.81829-.58749q.006-.96036.0121-1.921c.06237-.23649-.01824-.50233.14728-.71766.37319-.04162.38912.206.3918.47478.00452.452.0171.90394.02628,1.3559.02932.32568-.21532.80967.14959.93666a2.19873,2.19873,0,0,0,1.367-.00143c.35618-.12693.11341-.61381.14295-.94057.00758-.45526.02052-.91051.02075-1.36576.00014-.2803.02842-.51769.406-.44764l.13289.72975a8.70111,8.70111,0,0,0,.02568,1.86649C21.75663,30.035,22.17559,30.04789,22.64773,29.98935Zm-1.83541-5.46256a.51827.51827,0,0,0-.57814-.128.70042.70042,0,0,0-.56144.94478c.12475.37733.3432.75319.85863.419.35265.124.51235-.08859.595-.37165A.65269.65269,0,0,0,20.81232,24.52679Zm-8.48239-.44774a3.02119,3.02119,0,0,0,.79065,2.34866c.16069.18091.31844.4826.57687.41812.21192-.05288.1866-.38265.26459-.59046.237-.27344.66336-.547.66313-.82026-.00027-.34255-.57491-.37547-.83246-.63888a4.35018,4.35018,0,0,1-.3996-.38581c-.27934-.37232-.538-.76016-.83172-1.18008C12.42771,23.55079,12.25057,23.77974,12.32993,24.07905Zm1.9643-13.58286c-.29653-.33365-.49174-.25319-.64172.13932A9.64468,9.64468,0,0,0,13.319,14.783a1.96693,1.96693,0,0,0,.54636-.84919c.39634-.47712.76458-.9815,1.19514-1.42543.78291-.8072.79895-.83378-.08861-1.54384C14.758,10.79344,14.52076,10.65153,14.29423,10.49619ZM26.83154,13.763a3.056,3.056,0,0,0,.62154,1.00349,8.602,8.602,0,0,0-.32608-4.18219c-.12261-.32351-.2891-.3927-.55534-.15573a5.77432,5.77432,0,0,0-1.33279,1.10138c-.20407.21309-.21229.36886.02749.56583A14.00993,14.00993,0,0,1,26.83154,13.763ZM24.49989,29.50439c.97534.17367,1.39361.0343,1.72336-.55024a2.68242,2.68242,0,0,0,.05411-2.59576c-.15836-.17929-.30049-.25088-.38834.041A15.85407,15.85407,0,0,1,24.49989,29.50439ZM14.80872,26.164a2.16449,2.16449,0,0,0-.29068,2.64557c.31935.70939.65963.85221,1.82184.7201A16.16222,16.16222,0,0,1,14.80872,26.164ZM24.83,22.915a20.87312,20.87312,0,0,1-3.39787.52276.27737.27737,0,0,0-.26188.34209c.0177.18363.16551.20312.30888.19482A5.68185,5.68185,0,0,0,24.83,22.915Zm-8.9238-.06935a5.37847,5.37847,0,0,0,3.29453,1.1251c.15832.00706.34377.02639.36632-.20971.02274-.2381-.10633-.32773-.33035-.34242a8.253,8.253,0,0,1-.96763-.0947C17.47914,23.17706,16.69357,23.00662,15.90623,22.84565Zm4.79749.86877c.00853-.16414-.05975-.26495-.23258-.2703-.16248-.005-.33972-.01827-.36419.20813a.21011.21011,0,0,0,.23447.26156C20.49639,23.91236,20.68067,23.95822,20.70372,23.71442Z"/><path class="cls-3" d="M25.0492,10.95632a1.82285,1.82285,0,0,1-.20414.27649c-.50373.46982-.44229.79976.10423,1.26171a7.44255,7.44255,0,0,1,2.723,5.83865c.0025.22219.057.46641-.11922.6618a2.61784,2.61784,0,0,1-3.36586-.45747c-.64357-.57141-1.24138-1.19788-1.9113-1.73535a2.72916,2.72916,0,0,0-3.70628-.03318c-.67706.52712-1.279,1.15065-1.91591,1.72942a2.67339,2.67339,0,0,1-3.3697.549,3.75824,3.75824,0,0,1-.01151-2.17762,7.26646,7.26646,0,0,1,2.54536-4.3481c.52372-.42583.67134-.75982.19476-1.26739l.65454.10134-.0193-.0133c.03606.15115.15085.17341.28026.1718l-.00735-.00667c.0635.41745.33306.30574.57141.20722a7.14748,7.14748,0,0,1,4.19278-.48659,13.06847,13.06847,0,0,1,1.58689.46639c.24828.08179.54872.2857.62927-.19455l-.00722.00952c.13106.00375.24985-.01051.264-.17905l-.005.02086a.14418.14418,0,0,0,.15129-.14883l-.01358-.00637C24.60453,11.30874,24.756,10.90877,25.0492,10.95632ZM24.35659,17.217c.617.00112.96084-.30619.95314-.85184a1.096,1.096,0,0,0-2.19149-.00148C23.13233,16.86606,23.63964,17.21564,24.35659,17.217Zm-6.7035-.87066A1.05207,1.05207,0,0,0,16.582,15.29174a1.07146,1.07146,0,0,0-1.078,1.05554c-.0127.562.32144.87122.93787.86791C17.17994,17.21122,17.64949,16.87438,17.65309,16.34629Zm5.68647-1.58514c.393-.01186.80674-.08344.82065-.55593.01467-.49823-.36166-.72458-.828-.75813a.64845.64845,0,0,0-.76022.706C22.5709,14.61685,22.91045,14.77366,23.33956,14.76115Zm-5.90382.00026c.46868-.00739.78744-.13879.76787-.63074a.62848.62848,0,0,0-.69709-.682c-.46039.01157-.84213.22189-.85491.71493C16.638,14.68977,17.07611,14.74164,17.43574,14.76141Z"/><path class="cls-4" d="M13.284,19.04736a2.67339,2.67339,0,0,0,3.3697-.549c.63695-.57877,1.23885-1.2023,1.91591-1.72942a2.72916,2.72916,0,0,1,3.70628.03318c.66992.53747,1.26773,1.16394,1.9113,1.73535a2.61784,2.61784,0,0,0,3.36586.45747l-.26115.92642c-.62563.33915-1.04956.94222-1.70422,1.25535a12.72848,12.72848,0,0,1-8.68947.66083,6.98082,6.98082,0,0,1-3.45685-2.07542C13.34261,19.53408,13.14911,19.32687,13.284,19.04736Zm7.51453-.42721c.82126-.56853,1.06983-1.10689.739-1.538a1.89165,1.89165,0,0,0-2.19747-.08479.6337.6337,0,0,0-.19839.49869c-.00006.5874.47155.83844.87275,1.14022-.69184.499-.87115.47026-1.34163-.16369-.11215-.15111-.17319-.46531-.44271-.27649-.22062.15456-.09655.41783.05367.54885a5.489,5.489,0,0,1,1.01213,1.68063,1.157,1.157,0,0,0,2.15052.02988,6.95133,6.95133,0,0,1,1.0733-1.71513c.14386-.14361.276-.39379.04374-.54471-.271-.17607-.334.13962-.44625.28941C21.65282,19.10484,21.44615,19.13428,20.79855,18.62015Z"/><path class="cls-5" d="M13.44138,19.76215a6.98082,6.98082,0,0,0,3.45685,2.07542,12.72848,12.72848,0,0,0,8.68947-.66083c.65466-.31313,1.07859-.9162,1.70422-1.25535a3.76991,3.76991,0,0,1-2.27964,2.21245,12.07442,12.07442,0,0,1-6.09591.77819,8.82413,8.82413,0,0,1-3.47784-.9448A3.66387,3.66387,0,0,1,13.44138,19.76215Z"/><path class="cls-6" d="M19.01057,27.48319q-.006.96036-.012,1.92081a1.92415,1.92415,0,0,0-1.38347-.22195H17.3578a2.33929,2.33929,0,0,0-.30417-.69147c-.71475-1.52052-1.54311-3.0194-1.11085-4.8063l.41982.17242a1.95519,1.95519,0,0,0,.507,1.38859A19.10608,19.10608,0,0,0,19.01057,27.48319Z"/><path class="cls-3" d="M21.82087,29.37345a8.7022,8.7022,0,0,1-.02568-1.86662,25.77408,25.77408,0,0,0,2.0531-2.15105,2.27435,2.27435,0,0,0,.60662-1.50346l.42644-.17681a5.56152,5.56152,0,0,1-.27241,2.84679c-.35921.90089-.76534,1.78308-1.15079,2.67323q-.12509-.00486-.25037-.00923A2.0985,2.0985,0,0,0,21.82087,29.37345Z"/><path class="cls-5" d="M18.17344,24.389c.18454.00365.36965-.00052.55352.01265.32228.02309.56878.05061.44863.52845a1.11753,1.11753,0,0,0,.58978,1.29547,1.19249,1.19249,0,0,0,1.31693-.02894,1.13317,1.13317,0,0,0,.53885-1.31825c-.11293-.386.04683-.44562.33929-.46529.2302-.01548.46117-.01947.69179-.02857a1.67591,1.67591,0,0,1-.31765.67865,3.4393,3.4393,0,0,0-.67228,1.71406c-.3776-.07005-.40588.16734-.406.44764-.00023.45525-.01317.9105-.02073,1.36568A1.70935,1.70935,0,0,1,19.576,28.596c-.00918-.452-.02176-.90389-.02628-1.3559-.00268-.2688-.01861-.5164-.3918-.47478a3.14433,3.14433,0,0,0-.47176-1.35224C18.51014,25.0742,18.15418,24.82568,18.17344,24.389Z"/><path class="cls-7" d="M21.6623,26.77721a3.4393,3.4393,0,0,1,.67228-1.71406,1.67591,1.67591,0,0,0,.31765-.67865l1.80265-.53219a2.27417,2.27417,0,0,1-.60659,1.50347,25.77408,25.77408,0,0,1-2.0531,2.15105Z"/><path class="cls-7" d="M18.17344,24.389c-.01926.4367.3367.68522.51274,1.024a3.14433,3.14433,0,0,1,.47176,1.35224c-.16552.21533-.08491.48117-.14732.71779a19.091,19.091,0,0,1-2.141-2.23777,1.95519,1.95519,0,0,1-.507-1.38859Q17.26794,24.12285,18.17344,24.389Z"/><path class="cls-8" d="M15.94278,23.68428c-.43226,1.7869.3961,3.28578,1.11085,4.8063a2.33925,2.33925,0,0,1,.30413.69128q-.21048.12243-.42089.24523a9.28226,9.28226,0,0,1-1.80027-4.45376,2.42955,2.42955,0,0,1,.19574-1.15532C15.46518,23.46143,15.667,23.39889,15.94278,23.68428Z"/><path class="cls-9" d="M23.45805,29.19578c.38555-.8904.79168-1.77259,1.15089-2.67348a5.56152,5.56152,0,0,0,.27241-2.84679c.31406-.31964.47328-.13318.59619.181a3.07917,3.07917,0,0,1,.07368,1.85985A9.58493,9.58493,0,0,1,23.86681,29.438Z"/><path class="cls-8" d="M24.49989,29.50439a15.85407,15.85407,0,0,0,1.38913-3.105c.08785-.29184.23-.22025.38834-.041a2.68242,2.68242,0,0,1-.05411,2.59576C25.8935,29.53869,25.47523,29.67806,24.49989,29.50439Z"/><path class="cls-8" d="M14.80872,26.164a16.16222,16.16222,0,0,0,1.53116,3.36567c-1.16221.13211-1.50249-.01071-1.82184-.7201A2.16449,2.16449,0,0,1,14.80872,26.164Z"/><path class="cls-10" d="M26.83154,13.763a14.00993,14.00993,0,0,0-1.56518-1.66722c-.23978-.197-.23156-.35274-.02749-.56583a5.77566,5.77566,0,0,1,1.33278-1.10142c.0563.24384.11393.48741.16865.73164A4.21035,4.21035,0,0,1,26.83154,13.763Z"/><path class="cls-10" d="M14.29423,10.49619c.22653.15534.4638.29725.6777.46837.88756.71006.87152.73664.08861,1.54384-.43056.44393-.7988.94831-1.19522,1.42529A7.11725,7.11725,0,0,1,14.29423,10.49619Z"/><path class="cls-9" d="M12.32993,24.07905c-.07936-.29931.09778-.52826.23146-.84871.29372.41992.55238.80776.83172,1.18008a4.35018,4.35018,0,0,0,.3996.38581c.25755.26341.83219.29633.83246.63888.00023.27324-.42613.54682-.66314.8199a3.10178,3.10178,0,0,1-1.35541-1.75411C12.54449,24.33567,12.57359,24.12139,12.32993,24.07905Z"/><path class="cls-11" d="M14.29423,10.49619a7.11723,7.11723,0,0,0-.42891,3.43749,1.96542,1.96542,0,0,1-.54628.84934,9.64468,9.64468,0,0,1,.33347-4.14751C13.80249,10.243,13.9977,10.16254,14.29423,10.49619Z"/><path class="cls-11" d="M26.83154,13.763a4.21035,4.21035,0,0,0-.09124-2.60283c-.05472-.24423-.11235-.4878-.16865-.73164.26625-.23693.43274-.16774.55535.15577a8.602,8.602,0,0,1,.32608,4.18219A3.056,3.056,0,0,1,26.83154,13.763Z"/><path class="cls-12" d="M23.90113,11.49989c-.08055.48025-.381.27634-.62927.19455a13.06847,13.06847,0,0,0-1.58689-.46639,7.14748,7.14748,0,0,0-4.19278.48659c-.23835.09852-.50791.21023-.57141-.20722.58839.07791,1.04218-.319,1.57332-.453a7.271,7.271,0,0,1,4.617.28187C23.36356,11.43784,23.60408,11.60873,23.90113,11.49989Z"/><path class="cls-13" d="M24.83,22.915a5.68185,5.68185,0,0,1-3.35087,1.05967c-.14337.0083-.29118-.01119-.30888-.19482a.27737.27737,0,0,1,.26188-.34209A20.87312,20.87312,0,0,0,24.83,22.915Z"/><path class="cls-13" d="M15.90623,22.84565c.78734.161,1.57291.33141,2.36287.47827a8.253,8.253,0,0,0,.96763.0947c.224.01469.35309.10432.33035.34242-.02255.2361-.208.21677-.36632.20971A5.37847,5.37847,0,0,1,15.90623,22.84565Z"/><path class="cls-14" d="M20.53137,25.76259c-.51543.33417-.73388-.04169-.85863-.419a.70042.70042,0,0,1,.56144-.94478.51855.51855,0,0,1,.57835.12809A1.36243,1.36243,0,0,1,20.53137,25.76259Z"/><path class="cls-15" d="M12.32993,24.07905c.24366.04234.21456.25662.27669.42185A3.10178,3.10178,0,0,0,13.962,26.255c-.078.20817-.05266.53794-.26458.59082-.25843.06448-.41618-.23721-.57687-.41812A3.02119,3.02119,0,0,1,12.32993,24.07905Z"/><path class="cls-9" d="M19.576,28.596a1.70935,1.70935,0,0,0,1.65953-.00542c-.02956.32684.21321.81372-.143.94065a2.19873,2.19873,0,0,1-1.367.00143C19.3607,29.40562,19.60534,28.92163,19.576,28.596Z"/><path class="cls-7" d="M17.61511,29.18205a1.92415,1.92415,0,0,1,1.38347.22195c.01962.603-.36021.64972-.81831.5874C17.97658,29.7323,17.554,29.62606,17.61511,29.18205Z"/><path class="cls-7" d="M21.82087,29.37345a2.0988,2.0988,0,0,1,1.38674-.18725c-.02632.37944-.43772.49053-.55988.80315C22.17559,30.04789,21.75663,30.035,21.82087,29.37345Z"/><path class="cls-15" d="M22.64773,29.98935c.12216-.31262.53356-.42371.55988-.80315q.12549.00464.25054.00933.20424.12145.40866.24244A1.09932,1.09932,0,0,1,22.64773,29.98935Z"/><path class="cls-15" d="M17.61511,29.18205c-.06113.444.36147.55025.56516.80935a1.10242,1.10242,0,0,1-1.24339-.56437q.21042-.12261.42088-.24517Q17.48648,29.18215,17.61511,29.18205Z"/><path class="cls-12" d="M16.66717,11.35559l-.65454-.10134-.08082-.10649-.17268-.18281-.76457-.642A2.62794,2.62794,0,0,1,16.66717,11.35559Z"/><path class="cls-16" d="M20.53137,25.76259a1.36243,1.36243,0,0,0,.28116-1.23571.65265.65265,0,0,1,.31386.86406C21.04372,25.674,20.884,25.88654,20.53137,25.76259Z"/><path class="cls-12" d="M25.0492,10.95632c-.29316-.04755-.44467.35242-.75858.2397a2.65835,2.65835,0,0,1,1.43829-.91012A2.4472,2.4472,0,0,1,25.0492,10.95632Z"/><path class="cls-17" d="M20.70349,23.71411c-.02282.24411-.2071.19825-.36207.1997a.21011.21011,0,0,1-.23447-.26156c.02447-.2264.20171-.21315.36419-.20813C20.644,23.44947,20.71225,23.55028,20.70349,23.71411Z"/><path class="cls-12" d="M24.15788,11.33036c-.01412.16854-.13291.1828-.264.17905C23.94825,11.40016,24.01767,11.31307,24.15788,11.33036Z"/><path class="cls-12" d="M16.92813,11.51409c-.12941.00161-.2442-.02065-.28026-.1718C16.79177,11.31712,16.86432,11.40848,16.92813,11.51409Z"/><path class="cls-12" d="M24.3042,11.20239a.14418.14418,0,0,1-.15129.14883C24.14,11.23715,24.204,11.20132,24.3042,11.20239Z"/><path class="cls-3" d="M15.75913,10.965l.17268.18281Z"/><path class="cls-18" d="M24.35659,17.217c-.717-.00131-1.22426-.35089-1.23835-.85332a1.096,1.096,0,0,1,2.19149.00148C25.31743,16.91076,24.97357,17.21807,24.35659,17.217Zm-.28647-.87994a.32.32,0,0,0,.32738-.36753.29133.29133,0,0,0-.32748-.28669c-.22922.00371-.33373.13189-.3203.359C23.76168,16.244,23.8934,16.31562,24.07012,16.337Z"/><path class="cls-19" d="M17.65309,16.34629c-.0036.52809-.47315.86493-1.21121.8689-.61643.00331-.95057-.3059-.93787-.86791a1.07146,1.07146,0,0,1,1.078-1.05554A1.05207,1.05207,0,0,1,17.65309,16.34629Zm-.5875-.32865a.33692.33692,0,1,0-.36277.31156A.3046.3046,0,0,0,17.06559,16.01764Z"/><path class="cls-7" d="M23.33956,14.76115c-.42911.01251-.76866-.1443-.76759-.608a.64845.64845,0,0,1,.76022-.706c.46636.03355.84269.2599.828.75813C24.1463,14.67771,23.73253,14.74929,23.33956,14.76115Z"/><path class="cls-4" d="M17.43574,14.76141c-.35963-.01977-.79777-.07164-.78413-.59782.01278-.493.39452-.70336.85491-.71493a.62848.62848,0,0,1,.69709.682C18.22318,14.62262,17.90442,14.754,17.43574,14.76141Z"/><path class="cls-20" d="M20.79855,18.62015c.6476.51413.85427.48469,1.31868-.13518.11223-.14979.17524-.46548.44625-.28941.2323.15092.10012.4011-.04374.54471a6.95133,6.95133,0,0,0-1.0733,1.71513,1.157,1.157,0,0,1-2.15052-.02988,5.489,5.489,0,0,0-1.01213-1.68063c-.15022-.131-.27429-.39429-.05367-.54885.26952-.18882.33056.12538.44271.27649.47048.634.64979.6627,1.34163.16369-.4012-.30178-.87281-.55282-.87275-1.14022a.6337.6337,0,0,1,.19839-.49869,1.89165,1.89165,0,0,1,2.19747.08479C21.86838,17.51326,21.61981,18.05162,20.79855,18.62015Zm-1.07312,1.48158a.61592.61592,0,0,0,.38453.45675.59457.59457,0,0,0,.75084-.16121c.084-.09165.26567-.1923.15744-.32755-.15782-.1972-.41828-.16265-.64795-.16271A.8309.8309,0,0,0,19.72543,20.10173Zm.67393-2.56419c.23442-.03606.62241.08237.62447-.24658.00211-.33606-.3843-.31992-.655-.31572-.23876.00371-.6008-.06881-.58565.29067C19.79774,17.61265,20.16128,17.50507,20.39936,17.53754Z"/><path class="cls-16" d="M24.07015,16.33779c-.17675-.02217-.30847-.09381-.32043-.29595-.01343-.22716.09108-.35534.3203-.359a.29133.29133,0,0,1,.32748.28669A.32094.32094,0,0,1,24.07015,16.33779Z"/><path class="cls-16" d="M17.06523,16.0184a.304.304,0,0,1-.36241.3108.31063.31063,0,0,1-.30844-.37019.33808.33808,0,0,1,.67085.05939Z"/><path class="cls-21" d="M19.72543,20.10173a.8309.8309,0,0,1,.64486-.19472c.22967.00006.49013-.03449.64795.16271.10823.13525-.07343.2359-.15744.32755a.59457.59457,0,0,1-.75084.16121A.61592.61592,0,0,1,19.72543,20.10173Z"/><path class="cls-22" d="M20.39936,17.53754c-.23808-.03247-.60162.07511-.61623-.27163-.01515-.35948.34689-.287.58565-.29067.27075-.0042.65716-.02034.655.31572C21.02177,17.61991,20.63378,17.50148,20.39936,17.53754Z"/></svg>