<?xml version="1.0" encoding="utf-8"?>
<!-- Generator: Adobe Illustrator 22.0.0, SVG Export Plug-In . SVG Version: 6.00 Build 0)  -->
<svg version="1.1" id="Layer_1" xmlns="http://www.w3.org/2000/svg" xmlns:xlink="http://www.w3.org/1999/xlink" x="0px" y="0px"
	 viewBox="0 0 500 500" style="enable-background:new 0 0 500 500;" xml:space="preserve">
<style type="text/css">
	.st0{fill:url(#SVGID_1_);}
	.st1{fill:#FFFFFF;}
</style>
<title>decentraland</title>
<linearGradient id="SVGID_1_" gradientUnits="userSpaceOnUse" x1="1539" y1="619.3" x2="1039" y2="619.3" gradientTransform="matrix(0 -1 -1 0 869.3 1539)">
	<stop  offset="0" style="stop-color:#3D3E3D"/>
	<stop  offset="0.2871" style="stop-color:#383838"/>
	<stop  offset="0.6553" style="stop-color:#282829"/>
	<stop  offset="1" style="stop-color:#141316"/>
</linearGradient>
<polygon class="st0" points="500,0 500,500 0,500 0,0 "/>
<g>
	<g>
		<path class="st1" d="M380.6,287.6c1.7,71.1-58,138.7-130.8,137.4c-74.7,1.4-135.1-70.4-130.3-143.2c0.8-27.2,9.7-53.6,25.4-75.8
			c0.7-1.1,1.2-1.2,2.2-0.2c12.3,12.1,26.6,21.9,42.3,29c1.2,0.5,1.3,0.8,0.5,1.8c-11.7,16.4-17.4,36.3-15.9,56.4
			c0.6,52.3,58.8,95.8,107.7,70.2c44.7-22.1,58.1-85.1,29.4-125c-2.8-2.8-2.2-3.5,1.3-4.5c10.4-4.9,20.1-11,29-18.3
			c4-3.2,7.9-6.6,11.5-10.2c0.9-1,1.4-0.7,2,0.2C372,229.4,381,258.2,380.6,287.6"/>
		<path class="st1" d="M146.8,75h25.1c2.4,0,2-0.3,2.1,2.1c-1.4,60.1,68.9,106.2,119.2,66.5c20.8-16.1,32.9-40.9,32.9-67.1
			c0-1.2,0.2-1.6,1.5-1.6h51.6c1.2,0,1.4,0.4,1.4,1.5c1,96.4-102.1,169.4-190,121.3c-43.6-23.5-71.3-71.6-71.1-121.1
			c0-1.2,0.3-1.6,1.6-1.6H146.8z"/>
	</g>
</g>
</svg>
