<?xml version="1.0" encoding="utf-8"?>
<!-- Generator: Adobe Illustrator 22.0.0, SVG Export Plug-In . SVG Version: 6.00 Build 0)  -->
<svg version="1.1" id="Layer_1" xmlns="http://www.w3.org/2000/svg" xmlns:xlink="http://www.w3.org/1999/xlink" x="0px" y="0px"
	 viewBox="0 0 40 40" style="enable-background:new 0 0 40 40;" xml:space="preserve">
<style type="text/css">
	.st0{fill:url(#SVGID_1_);}
	.st1{fill:#00A3FF;}
	.st2{opacity:0.6;fill:#00A3FF;enable-background:new    ;}
	.st3{opacity:0.2;fill:#00A3FF;enable-background:new    ;}
</style>
<title>venus</title>
<linearGradient id="SVGID_1_" gradientUnits="userSpaceOnUse" x1="20" y1="2138.625" x2="20" y2="2101.375" gradientTransform="matrix(1 0 0 1 0 -2100)">
	<stop  offset="0" style="stop-color:#B1E9FF"/>
	<stop  offset="0.1752" style="stop-color:#CDEEFB"/>
	<stop  offset="0.3545" style="stop-color:#E1F1F8"/>
	<stop  offset="0.5316" style="stop-color:#EEF3F7"/>
	<stop  offset="0.7026" style="stop-color:#F2F4F6"/>
	<stop  offset="1" style="stop-color:#FDFAFA"/>
</linearGradient>
<path class="st0" d="M37,26.3V13.7c0-2.1-1.1-4.1-3-5.2L23,2.2c-1.8-1.1-4.2-1.1-6,0L6,8.5c-1.9,1.1-3,3.1-3,5.2v12.6
	c0,2.1,1.1,4.1,3,5.2l11,6.3c1.8,1.1,4.2,1.1,6,0l11-6.3C35.8,30.4,37,28.4,37,26.3z"/>
<g>
	<path class="st1" d="M13.3,17.8l-0.2,0.3c-2.2,3.3-1.7,7.7,1.2,10.5c1.7,1.6,3.9,2.5,6.1,2.5C20.3,31.1,20.3,31.1,13.3,17.8z"/>
	<path class="st2" d="M20.3,21.9l-7-4c7,13.2,7,13.2,7,13.2C20.3,28.2,20.3,24.9,20.3,21.9z"/>
	<path class="st2" d="M27.3,17.8l0.2,0.3c2.2,3.3,1.7,7.7-1.2,10.5c-1.7,1.6-3.9,2.5-6.1,2.5C20.3,31.1,20.3,31.1,27.3,17.8z"/>
	<path class="st3" d="M20.3,21.9l7-4c-7,13.2-7,13.2-7,13.2C20.3,28.2,20.3,24.9,20.3,21.9z"/>
	<path class="st3" d="M20.3,12.9v6.9l6.1-3.5L20.3,12.9z"/>
	<path class="st2" d="M20.3,12.9l-6.1,3.5l6.1,3.5V12.9z"/>
	<path class="st1" d="M20.3,7.1l-6.1,9.3l6.1-3.5V7.1z"/>
	<path class="st2" d="M20.3,12.9l6.1,3.5l-6.1-9.3V12.9z"/>
</g>
</svg>
