<?xml version="1.0" encoding="utf-8"?>
<!-- Generator: Adobe Illustrator 22.0.0, SVG Export Plug-In . SVG Version: 6.00 Build 0)  -->
<svg version="1.1" id="Layer_1" xmlns="http://www.w3.org/2000/svg" xmlns:xlink="http://www.w3.org/1999/xlink" x="0px" y="0px"
	 viewBox="0 0 500 500" style="enable-background:new 0 0 500 500;" xml:space="preserve">
<style type="text/css">
	.st0{fill:#313A53;}
	.st1{clip-path:url(#SVGID_2_);}
	.st2{fill:#3CEAAA;}
	.st3{fill:#03BCE4;}
	.st4{opacity:0.95;fill:#00A4E1;enable-background:new    ;}
</style>
<polygon class="st0" points="500,0 500,500 0,500 0,0 "/>
<title>traderjoe</title>
<g>
	<defs>
		<rect id="SVGID_1_" width="500" height="500"/>
	</defs>
	<clipPath id="SVGID_2_">
		<use xlink:href="#SVGID_1_"  style="overflow:visible;"/>
	</clipPath>
	<g class="st1">
		<path class="st2" d="M162.4,93.4c22.1-21.6,57.4-21.6,79.4,0l52.2,51.2c22.7,22.3,22.7,58.8,0,81.1L203,314.9l65.3,64
			c12.4,12.2,12.6,32.2,0.5,44.6c-12.2,12.4-32.2,12.6-44.6,0.5L66,268.9c-22.7-22.3-22.7-58.8,0-81.1L162.4,93.4z M158,270.7
			l87.4-85.6l-43.2-42.4l-87.4,85.6L158,270.7z"/>
		<path class="st3" d="M294.8,136.6c22.1-21.6,57.4-21.6,79.4,0l52.2,51.2c22.7,22.3,22.7,58.8,0,81.1l-158.2,155
			c-12.4,12.2-32.4,12-44.6-0.5c-12.2-12.4-12-32.4,0.5-44.6l65.3-64l-46.9-45.9c-22.7-22.3-22.7-58.8,0-81.1L294.8,136.6z
			 M334.5,270.7l43.2-42.4L334.5,186l-43.2,42.4L334.5,270.7z"/>
		<path class="st4" d="M291.3,228.5l-45.9-43.6l-44.1,43.3l44.8,44.6L291.3,228.5z"/>
	</g>
</g>
</svg>
