<?xml version="1.0" encoding="utf-8"?>
<!-- Generator: Adobe Illustrator 22.0.0, SVG Export Plug-In . SVG Version: 6.00 Build 0)  -->
<svg version="1.1" id="Layer_1" xmlns="http://www.w3.org/2000/svg" xmlns:xlink="http://www.w3.org/1999/xlink" x="0px" y="0px"
	 viewBox="0 0 40 40" style="enable-background:new 0 0 40 40;" xml:space="preserve">
<style type="text/css">
	.st0{fill:url(#SVGID_1_);}
	.st1{fill:url(#SVGID_2_);}
</style>
<linearGradient id="SVGID_1_" gradientUnits="userSpaceOnUse" x1="1067.4169" y1="-3085.1785" x2="1104.7087" y2="-3085.1785" gradientTransform="matrix(0 1 -1 0 -3065.1785 -1066.0419)">
	<stop  offset="1.198744e-03" style="stop-color:#63E1D6"/>
	<stop  offset="1" style="stop-color:#249C93"/>
</linearGradient>
<path class="st0" d="M37,26.3V13.7c0-2.1-1.1-4.1-3-5.2L23,2.2c-1.9-1.1-4.1-1.1-6,0L6,8.5c-1.9,1.1-3,3.1-3,5.2v12.6
	c0,2.1,1.1,4.1,3,5.2l11,6.3c1.9,1.1,4.1,1.1,6,0l11-6.3C35.8,30.4,37,28.5,37,26.3z"/>
<linearGradient id="SVGID_2_" gradientUnits="userSpaceOnUse" x1="28.5735" y1="28.4826" x2="14.4404" y2="10.6295" gradientTransform="matrix(1 0 0 -1 0 42)">
	<stop  offset="0" style="stop-color:#FFFFFF"/>
	<stop  offset="1" style="stop-color:#FFFFFF"/>
</linearGradient>
<path class="st1" d="M10.5,20.6c0.3,0.4,0.8,0.8,2.1,0.8h13.3c0.5,0,1.1,0.4,1.3,0.9l2.2,5.2c0.2,0.5-0.1,0.9-0.6,0.9H15.2
	c-0.8-0.1-1.6-0.3-1.9-1.1L10.5,20.6z M21.9,9.8l2.2,5.3c0.2,0.5,0.1,1.2-0.3,1.5l-3.2,3.4h-7.3c-1.2,0-1.9-0.4-0.9-1.5l8.5-8.9
	C21.3,9.3,21.7,9.4,21.9,9.8z"/>
</svg>
