<?xml version="1.0" encoding="utf-8"?>
<!-- Generator: Adobe Illustrator 22.0.0, SVG Export Plug-In . SVG Version: 6.00 Build 0)  -->
<svg version="1.1" id="Layer_1" xmlns="http://www.w3.org/2000/svg" xmlns:xlink="http://www.w3.org/1999/xlink" x="0px" y="0px"
	 viewBox="0 0 500 500" style="enable-background:new 0 0 500 500;" xml:space="preserve">
<style type="text/css">
	.st0{fill:url(#SVGID_1_);}
	.st1{fill:#FFFFFF;}
</style>
<linearGradient id="SVGID_1_" gradientUnits="userSpaceOnUse" x1="959.05" y1="20.7" x2="1459.05" y2="-479.3" gradientTransform="matrix(0 -1 1 0 480 1460)">
	<stop  offset="0" style="stop-color:#0AC4DD"/>
	<stop  offset="1" style="stop-color:#14D89D"/>
</linearGradient>
<polygon class="st0" points="500.7,1 500.7,501 0.7,501 0.7,1 "/>
<g>
	<path class="st1" d="M406.6,386.9c-0.9,0-1.7-0.3-2.3-0.9c-0.6-0.6-0.9-1.4-0.9-2.3V116.9c0-4.2-1-8.3-3-12c-2-3.7-4.8-6.8-8.3-9.2
		c-3.5-2.3-7.5-3.8-11.6-4.2c-4.2-0.4-8.4,0.2-12.3,1.8c-34.9,14.3-67.9,33.1-98,55.8c-61.3,46.2-86.4,104.1-86.4,159.3
		s36.8,77.4,66.6,77.4s67.1-26,67.1-77.4s-13.4-72.4-30.8-102.5c16.2-8.6,33.6-14.8,51.6-18.3c1.3-0.3,2.6-0.2,3.8,0.1
		c1.2,0.3,2.4,0.9,3.4,1.7c1,0.8,1.8,1.8,2.3,3c0.6,1.2,0.8,2.4,0.8,3.7v190.8c0,5.8,2.3,11.3,6.4,15.4c4.1,4.1,9.6,6.4,15.4,6.4
		H425v-21.7H406.6z M250.4,374.3c-12.9,0-33.9-17-33.9-61.8s27.3-74.7,34.2-79.3c5.9,4.1,34.2,34.1,34.2,79.3
		C284.9,357.7,263.3,374.3,250.4,374.3z M196,197c-10.7-4.7-22-8-33.5-10c-1.2-0.2-2.5-0.1-3.7,0.3c-1.2,0.3-2.3,0.9-3.2,1.8
		c-0.9,0.8-1.7,1.8-2.2,2.9c-0.5,1.1-0.8,2.4-0.8,3.6v191.3c0,5.8-2.3,11.3-6.4,15.4c-4.1,4.1-9.6,6.4-15.4,6.4H75v-21.7h19.8
		c0.9,0,1.7-0.3,2.3-0.9c0.6-0.6,0.9-1.4,0.9-2.3V117.2c0-4.2,1-8.3,3-12c2-3.7,4.8-6.8,8.3-9.1c3.5-2.3,7.5-3.8,11.7-4.2
		c4.2-0.4,8.4,0.2,12.3,1.8c36.4,14.6,70.5,34.2,101.4,58.3C219.8,165.2,206.8,180.3,196,197z"/>
</g>
</svg>
