<?xml version="1.0" encoding="utf-8"?>
<!-- Generator: Adobe Illustrator 22.0.0, SVG Export Plug-In . SVG Version: 6.00 Build 0)  -->
<svg version="1.1" id="Layer_1" xmlns="http://www.w3.org/2000/svg" xmlns:xlink="http://www.w3.org/1999/xlink" x="0px" y="0px"
	 viewBox="0 0 500 500" style="enable-background:new 0 0 500 500;" xml:space="preserve">
<style type="text/css">
	.st0{fill:url(#SVGID_1_);}
	.st1{fill:#B4C6FE;}
	.st2{fill:#FDFDFE;}
	.st3{fill:#F6B30B;}
</style>
<linearGradient id="SVGID_1_" gradientUnits="userSpaceOnUse" x1="0" y1="250" x2="500" y2="250" gradientTransform="matrix(1 0 0 -1 0 500)">
	<stop  offset="0" style="stop-color:#1B6EF5"/>
	<stop  offset="1" style="stop-color:#1B48F5"/>
</linearGradient>
<rect class="st0" width="500" height="500"/>
<g>
	<path class="st1" d="M248.5,257.6c6.7-4.2,13.4-8.4,20.1-12.6c23.2-13.8,46.4-27.5,69.5-41.4c3.3-2,6.5-3.8,10.4-4.2
		c0.2,34.6,0.5,69.2,0.7,103.8c-16.9,12.5-37,20.2-53,34.2c-13.7,4-24.2,13.8-36.5,20.2c-3.3,1.7-6.4,3.9-10.2,4.1
		C249.1,327.1,248.8,292.4,248.5,257.6z"/>
	<path class="st2" d="M349.2,303.2c-0.2-34.6-0.5-69.2-0.7-103.8c6.6-2.1,10,3.3,14.6,6c25.8,15.4,51.4,31.1,77.5,46
		c6.9,3.9,9.2,8.3,9.1,15.8c-0.3,28.2-0.1,56.3-0.2,84.5c0,3.1,1.7,7.4-1.3,9.2c-3,1.8-5.8-1.4-8.6-3.2
		C409.6,339.3,379.4,321.3,349.2,303.2z"/>
	<path class="st3" d="M262.8,222.7c-11.6,7.7-20.4,3.2-30.8-4.3c-15.5-11.2-32.7-20-49.4-29.5c-8.1-4.6-9.8-7.4,0-12.9
		c18.7-10.4,37-21.6,54.7-33.5c9.4-6.3,16.8-5.4,25.2,0.8c4.5,3.4,9.6,5.9,14.4,8.9c13.6,8.3,26.9,17,40.8,24.6
		c9.4,5.2,6.1,7.6-0.6,11.9C299,200.2,279.4,209,262.8,222.7z"/>
	<path class="st1" d="M64.8,355.6c-14.3,6.5-14.4,6.5-14.4-9.7c0-21.8,0.7-43.7-0.2-65.4c-0.6-14.3,0.1-26.9,14.6-34.3
		c26.1-12.2,49.3-29.3,74.4-43.1c4.2-2.3,8.4-9.1,14.8-3.2c-4,3.1-3.4,7.6-3.4,11.9c0.1,30.6,0.2,61.1,0.4,91.7
		C121.7,320,92.7,336.9,64.8,355.6z"/>
	<path class="st2" d="M150.9,303.4c-0.1-30.6-0.3-61.1-0.4-91.7c0-4.2-0.6-8.7,3.4-11.9c31.7,18.9,64.1,36.7,94.5,57.8
		c0.3,34.7,0.7,69.4,1,104.1c-23.9-9.8-44.3-25.6-66.6-38.2C171.9,317.4,161.5,310.1,150.9,303.4z"/>
</g>
</svg>
