<?xml version="1.0" encoding="utf-8"?>
<!-- Generator: Adobe Illustrator 22.0.0, SVG Export Plug-In . SVG Version: 6.00 Build 0)  -->
<svg version="1.1" id="Layer_1" xmlns="http://www.w3.org/2000/svg" xmlns:xlink="http://www.w3.org/1999/xlink" x="0px" y="0px"
	 viewBox="0 0 500 500" style="enable-background:new 0 0 500 500;" xml:space="preserve">
<style type="text/css">
	.st0{fill:url(#SVGID_1_);}
	.st1{fill:#081821;}
</style>
<title>decentraland</title>
<linearGradient id="SVGID_1_" gradientUnits="userSpaceOnUse" x1="1539" y1="619.3" x2="1039" y2="619.3" gradientTransform="matrix(0 -1 -1 0 869.3 1539)">
	<stop  offset="0" style="stop-color:#00FFAA"/>
	<stop  offset="1" style="stop-color:#00FFAA"/>
</linearGradient>
<polygon class="st0" points="500,0 500,500 0,500 0,0 "/>
<path class="st1" d="M75.1,281.1c5.5,7.4,14.8,14.8,38.7,14.8h245.3c9.2,0,20.3,7.4,24,16.6l40.6,95.9c3.7,9.2-1.8,16.6-11.1,16.6
	H161.8c-14.8-1.8-29.5-5.5-35-20.3L75.1,281.1z M285.4,81.9l40.6,97.8c3.7,9.2,1.8,22.1-5.5,27.7l-59,62.7H126.8
	c-22.1,0-35-7.4-16.6-27.7L266.9,78.2C274.3,72.7,281.7,74.5,285.4,81.9z"/>
</svg>
