<?xml version="1.0" encoding="utf-8"?>
<!-- Generator: Adobe Illustrator 22.0.0, SVG Export Plug-In . SVG Version: 6.00 Build 0)  -->
<svg version="1.1" id="Layer_1" xmlns="http://www.w3.org/2000/svg" xmlns:xlink="http://www.w3.org/1999/xlink" x="0px" y="0px"
	 viewBox="0 0 40 40" style="enable-background:new 0 0 40 40;" xml:space="preserve">
<style type="text/css">
	.st0{fill:url(#SVGID_1_);}
	.st1{fill:#FFFFFF;}
</style>
<linearGradient id="SVGID_1_" gradientUnits="userSpaceOnUse" x1="564.5669" y1="3049.1785" x2="527.2752" y2="3049.1785" gradientTransform="matrix(0 1 1 0 -3029.1785 -526.0419)">
	<stop  offset="0" style="stop-color:#4458CF"/>
	<stop  offset="1" style="stop-color:#2DD6FB"/>
</linearGradient>
<path class="st0" d="M37,26.2V13.6c0-2.1-1.1-4.1-3-5.2L23,2.1c-1.9-1.1-4.1-1.1-6,0L6,8.4c-1.9,1.1-3,3.1-3,5.2v12.6
	c0,2.1,1.1,4.1,3,5.2l11,6.3c1.9,1.1,4.1,1.1,6,0l11-6.3C35.8,30.3,37,28.4,37,26.2z"/>
<title>Asset 1</title>
<g transform="translate(0.000000,1280.000000) scale(0.100000,-0.100000)">
	<path class="st1" d="M123,12703.6c-0.1-0.1-0.9-0.1-1.8-0.2l-1.7-0.1l-1.3-1c-2.6-2.1-5-5.7-6.2-9.3c-1.4-4.2-1.9-8-1.9-12.9
		c0-10.5,2.8-21.7,8.1-32.2c5.4-10.6,15.3-23.1,26.2-32.6c5.5-4.8,12.8-9.9,18.4-12.9c1.4-0.8,2.6-1.5,2.6-1.6c0-0.1-0.9-0.9-2-1.7
		c-1.9-1.4-5.9-4.5-6.2-4.8c-0.1-0.1-0.8-0.7-1.6-1.3c-1.8-1.4-5-4.3-8.4-7.6c-10.4-10.1-17.6-20.1-21.5-30
		c-2.6-6.6-3.1-14.7-1.6-23.8c1.3-7.3,4.5-14.8,9.5-21.8c1.7-2.4,3.9-4.9,6.9-7.9c3-3,6.4-5.9,6.6-5.7c0,0-0.4,0.8-1,1.7
		c-2.3,3.5-5.4,9.6-6.5,13.2c-1.8,5.6-2.3,8.9-2.1,14.2c0.1,3.8,0.3,5.1,1.3,8.4c2.3,7.8,8.6,15.6,16.1,20c6.1,3.5,9.5,5.5,12.4,7.2
		c1.8,1.1,4.1,2.4,5,2.9c0.9,0.5,2.9,1.7,4.3,2.5c1.4,0.8,4.7,2.7,7.2,4.2c6.6,3.8,11,6.4,13.9,8.2l2.5,1.5l1.2-0.6
		c1-0.6,2.6-1.5,5.9-3.5c0.5-0.3,2.9-1.7,5.3-3.2s5.1-3,6-3.6c0.9-0.5,2.6-1.6,3.8-2.3c1.2-0.7,3.4-2,5-3c1.5-0.9,3.8-2.3,5.1-3
		c1.3-0.7,3.4-2,4.7-2.8c1.3-0.8,2.9-1.7,3.5-2.1c0.6-0.3,2-1.2,3.1-1.8c1.1-0.7,2.9-1.8,4.1-2.5c3.4-2,5.9-4.2,8.8-7.7
		c1.7-2,4.1-6.4,5.1-9.1c2.3-6.3,2.2-13.9-0.1-20.9c-1.5-4.5-4.7-10.7-7-13.7c-0.6-0.8-1.6-2.5-1.2-1.9c0.2,0.2,0.3,0.3,0.4,0.3
		c0.7,0,7.2,6.1,9.5,9c0.9,1,1.7,2,1.8,2.2c0.3,0.4,1,1.4,2,2.7c1.6,2.2,5,8.4,5,9c0,0.2,0.2,0.6,0.4,1c0.2,0.3,0.4,0.9,0.5,1.1
		c0.1,0.3,0.4,1.5,0.8,2.8c1.5,4.8,2.1,10.1,1.7,14.8c-0.3,3.2-0.9,6.8-1.7,9.5c-0.3,1-0.7,2.4-0.9,3.1c-0.2,0.7-0.5,1.4-0.6,1.5
		c-0.1,0.1-0.2,0.4-0.2,0.6c0,0.2-0.1,0.6-0.3,0.8c-0.2,0.2-0.4,0.8-0.6,1.4c-0.6,1.5-3.4,7-3.6,6.8c-0.1-0.1-0.1,0,0,0
		c0.1,0.2-0.5,1.3-0.7,1.3c-0.1,0-0.2,0.1-0.2,0.2c0,0.2-3.2,4.9-3.4,5c-0.1,0-0.2,0.2-0.2,0.3c0,0.2-1.6,2.4-2.2,3
		c-0.2,0.2-0.5,0.6-0.8,1c-2,2.9-9.6,10.7-14.8,15.2c-3.3,2.9-9.5,7.9-10.9,8.8c-0.5,0.3-0.9,0.7-0.9,0.8c0,0.2,1.2,1.2,2.7,2.2
		c1.5,1.1,2.9,2.1,3.1,2.2c1.1,0.9,4.7,3.7,4.8,3.7c0.1,0,0.3,0.1,0.4,0.3c0.1,0.2,1.4,1.3,3,2.4c0.3,0.2,0.6,0.5,0.8,0.6
		c0.1,0.1,0.8,0.6,1.4,1.1s1.5,1.1,1.9,1.5c1,0.8,1.4,1.1,2.2,1.7c0.4,0.3,0.7,0.5,0.8,0.6c0.1,0.1,0.5,0.4,1.1,0.8
		c0.5,0.3,0.9,0.7,0.9,0.8c0,0.1,0.1,0.2,0.2,0.2c0.2,0,1.7,1.1,2.7,2.1c0.2,0.2,1.1,0.9,1.9,1.5c0.9,0.6,2.2,1.7,2.9,2.3
		c0.8,0.7,1.8,1.6,2.4,2.1c0.6,0.5,1.2,1.1,1.5,1.4c0.3,0.3,1.5,1.6,2.7,2.9c2.1,2.3,2.8,3.2,5.7,7.2c1.3,1.8,4.3,6.8,5.5,9.2
		c0.9,1.7,3.4,7.9,4.3,10.4c0.8,2.3,2,7.3,2.8,11.5c1.4,7.8,1.5,15.5,0.1,20.9c-0.5,2-1.7,5-2.4,6.1c-1.6,2.6-4,4.8-5.7,5.3
		c-1.1,0.3-8.2,0.1-11.8-0.2c-11.4-1.3-22-6.3-28.3-13.6c-2.2-2.6-3.4-4.3-5-7.4c-1.4-2.8-1.9-4.1-2.5-7.2
		c-1.1-5.4-1.9-8.1-3.4-11.7c-4.1-10-10.4-16.6-18.5-19.6c-1.1-0.4-2.2-0.7-2.5-0.8c-0.3-0.1-1-0.2-1.6-0.3c-3-0.6-8.5-0.7-11.8-0.1
		c-0.3,0.1-0.8,0.1-1.1,0.2c-2.5,0.4-2.9,0.5-4.3,0.9c-3.3,1.1-5.9,2.9-9.5,6.6c-1.6,1.6-3,3-3.1,3.2c-5.1,6.5-8.7,13-12.9,23.5
		c-1.8,4.5-2.7,6.2-4.5,9c-4,6.1-8.8,10.5-15.2,14.1c-4.1,2.3-8.5,3.8-13.6,4.7C129.1,12703.5,123.2,12703.8,123,12703.6z
		 M240.7,12647.6c1.4-0.7,2.4-1.6,3.1-2.9c0.5-1,0.6-1.4,0.6-3c0-1.6-0.1-1.9-0.6-2.8c-0.7-1.4-1.6-2.3-3-3
		c-0.9-0.5-1.3-0.6-2.7-0.6c-1.5,0-1.7,0-3,0.7c-2.8,1.5-4.1,4.6-3.2,7.7C233,12647.2,237.4,12649.1,240.7,12647.6z M163.6,12646.8
		c1.2-0.4,2.6-1.6,3.2-2.9c1.8-3.6-1-8-5-8c-2.4,0-4.2,1.1-5.1,3.2c-0.5,1.1-0.6,1.4-0.5,2.7c0.1,1.1,0.2,1.7,0.7,2.5
		c0.6,1.1,2,2.2,3.1,2.6C161,12647.2,162.6,12647.2,163.6,12646.8z M179,12633.9c1.5-0.7,2.8-2,3.6-3.4c0.8-1.6,1-4,0.4-5.7
		c-1.5-3.9-5.4-5.7-9.4-4.3c-3.2,1.1-5.3,4.9-4.6,8.2c0.7,2.7,2.5,4.8,5.3,5.7C175.4,12634.7,177.7,12634.5,179,12633.9z
		 M226.8,12633.7c1.6-0.8,3.3-2.6,3.9-4.1c0.3-0.9,0.5-1.6,0.5-2.9c0-1.5-0.1-1.9-0.6-3c-0.8-1.8-2-3-3.6-3.8
		c-1.2-0.6-1.5-0.6-3.3-0.6c-1.8,0-2.1,0.1-3.3,0.6c-1.6,0.8-2.8,2-3.7,3.7c-0.6,1.2-0.6,1.4-0.6,3.3c0,1.8,0.1,2.1,0.6,3.1
		c1,2.1,3.1,3.8,5.3,4.4C223.2,12634.7,225.4,12634.4,226.8,12633.7z M203,12630.3c2.5-0.8,5.1-2.9,6.2-5.1c1.5-3,1.5-6.5,0-9.6
		c-0.7-1.5-2.8-3.6-4.3-4.3c-3.3-1.5-7-1.4-10.1,0.4c-1.3,0.8-3,2.6-3.7,3.9c-2.8,5.7-0.2,12.3,5.6,14.4
		C198.3,12630.6,201.4,12630.7,203,12630.3z M172.8,12589.3c1.4-1.1,2.5-2.1,2.5-2.2c0-0.1-0.2-0.3-0.4-0.4c-0.4-0.1-3.5-1.9-8-4.5
		c-8.1-4.8-15.9-10.9-18-14.1c-0.4-0.6-0.8-1-0.8-0.9c-0.3,0.4,2.6,6.8,4.3,9.6c3.5,5.9,8.6,11.2,14.3,15.2l1.5,1l1-0.9
		C169.8,12591.7,171.4,12590.4,172.8,12589.3z M231.5,12592.1c3.8-2.6,10.6-8.7,13.3-12c3.4-4.3,5.4-8.3,5.6-11.5
		c0.1-1.9,0.4-2-2.7,1.5c-5.9,6.7-14,12.7-22.3,16.5c-1.1,0.5-2,0.9-2.1,1c-0.1,0.1,6.7,5.3,6.9,5.3
		C230.3,12592.8,230.9,12592.5,231.5,12592.1z"/>
	<path class="st1" d="M195,12694.1c-3.6-0.8-7.8-2.9-10.8-5.4c-1-0.8-3.6-3.8-4.6-5.2c-1.6-2.3-3.2-6.6-3.8-9.9
		c-0.4-2.4-0.3-6.9,0.3-9.2c2.1-8.5,7.3-14.5,15.4-17.7c2.8-1.1,4.4-1.4,8.4-1.4c5,0,6.9,0.4,10.8,2.2c5.1,2.4,9.1,6.2,11.5,11
		c3,5.9,3.6,12.8,1.6,18.8c-0.7,2-2.5,5.8-3.4,7c-0.7,1-3.1,3.5-4.2,4.5c-1.2,1.2-4.9,3.3-7,4.1c-3.3,1.3-5,1.6-9.1,1.6
		C197.4,12694.4,196.2,12694.4,195,12694.1z"/>
</g>
</svg>
