<?xml version="1.0" encoding="utf-8"?>
<!-- Generator: Adobe Illustrator 22.0.0, SVG Export Plug-In . SVG Version: 6.00 Build 0)  -->
<svg version="1.1" id="Layer_1" xmlns="http://www.w3.org/2000/svg" xmlns:xlink="http://www.w3.org/1999/xlink" x="0px" y="0px"
	 viewBox="0 0 40 40" style="enable-background:new 0 0 40 40;" xml:space="preserve">
<style type="text/css">
	.st0{fill:url(#SVGID_1_);}
	.st1{fill:#FEFEFE;}
</style>
<linearGradient id="SVGID_1_" gradientUnits="userSpaceOnUse" x1="1067.4169" y1="-3085.1785" x2="1104.7087" y2="-3085.1785" gradientTransform="matrix(0 1 -1 0 -3065.1785 -1066.0419)">
	<stop  offset="1.198744e-03" style="stop-color:#0070E0"/>
	<stop  offset="1" style="stop-color:#003087"/>
</linearGradient>
<path class="st0" d="M37,26.3V13.7c0-2.1-1.1-4.1-3-5.2L23,2.2c-1.9-1.1-4.1-1.1-6,0L6,8.5c-1.9,1.1-3,3.1-3,5.2v12.6
	c0,2.1,1.1,4.1,3,5.2l11,6.3c1.9,1.1,4.1,1.1,6,0l11-6.3C35.8,30.4,37,28.5,37,26.3z"/>
<g>
	<path class="st1" d="M12.2,15.8c-0.4-0.2-0.7-0.5-0.7-1c0-0.5,0.4-0.9,1-0.9c0.6,0,1.2,0,1.8,0c0.2,0,0.2-0.1,0.2-0.2
		c0.1-0.8,0.2-1.6,0.4-2.4c0.1-0.8,0.6-1.2,1.4-1.2c2,0,4,0,5.9,0c2.7,0.1,4.8,1.3,6,3.7c1.4,2.7,0.8,6-1.5,8.1
		c-1.3,1.2-2.8,1.8-4.6,1.8c-0.6,0-1.3,0-1.9,0c-0.1,0-0.2,0-0.2,0.1c-0.2,1.5-0.5,2.9-0.7,4.4c0,0.3-0.1,0.6-0.1,0.8
		c-0.1,0.6-0.6,1.1-1.2,1.1c-1.5,0-3.1,0-4.6,0c-0.8,0-1.3-0.7-1.2-1.5c0.2-1.4,0.4-2.8,0.6-4.2c0.2-1.5,0.5-3,0.7-4.4
		c0-0.1,0-0.2-0.2-0.2c-0.5,0-1,0-1.5,0c-0.4,0-0.7-0.2-0.9-0.6c-0.2-0.4-0.1-0.7,0.2-1c0.2-0.2,0.4-0.3,0.7-0.3c0.6,0,1.2,0,1.8,0
		c0.2,0,0.2,0,0.2-0.2c0.1-0.4,0.1-0.8,0.2-1.3c0.1-0.1,0-0.2,0.1-0.3c0.1-0.2,0-0.2-0.2-0.2C13.4,15.8,12.8,15.8,12.2,15.8z
		 M16.5,13.6c-0.1,0.3-0.1,0.3,0.2,0.3c2,0,4,0,5.9,0c0.1,0,0.2,0,0.3,0.1c0.8,0.2,1.4,0.7,1.8,1.4c1.1,2-0.3,4.4-2.6,4.4
		c-2.1,0-4.2,0-6.3,0c-0.2,0-0.3,0.1-0.3,0.2c-0.1,0.6-0.2,1.3-0.3,1.9c-0.3,2-0.6,4-0.9,6c0,0.2,0,0.2,0.2,0.2c1,0,1.9,0,2.9,0
		c0.1,0,0.2,0,0.2-0.2c0.3-1.7,0.5-3.3,0.8-5c0.1-0.8,0.6-1.3,1.5-1.3c0.8,0,1.6,0,2.4,0c2.2,0,4.1-1.5,4.7-3.5
		c0.9-3.1-1.4-6.1-4.6-6.2c-1.1,0-2.2,0-3.3,0c-0.7,0-1.4,0-2.1,0c-0.1,0-0.2,0-0.2,0.1C16.7,12.6,16.6,13.1,16.5,13.6z M19.1,17.8
		C19.1,17.8,19.1,17.8,19.1,17.8c1,0,2,0,3,0c0.3,0,0.5-0.1,0.7-0.3c0.3-0.3,0.4-0.7,0.2-1.1c-0.2-0.4-0.5-0.6-0.9-0.6
		c-0.4,0-0.7,0-1.1,0c-1.6,0-3.1,0-4.7,0c-0.1,0-0.2,0-0.2,0.1C16,16.5,16,17,15.9,17.6c0,0.2,0,0.2,0.2,0.2
		C17.1,17.8,18.1,17.8,19.1,17.8z"/>
</g>
</svg>
