<?xml version="1.0" encoding="utf-8"?>
<!-- Generator: Adobe Illustrator 22.0.0, SVG Export Plug-In . SVG Version: 6.00 Build 0)  -->
<svg version="1.1" id="Layer_1" xmlns="http://www.w3.org/2000/svg" xmlns:xlink="http://www.w3.org/1999/xlink" x="0px" y="0px"
	 viewBox="0 0 500 500" style="enable-background:new 0 0 500 500;" xml:space="preserve">
<style type="text/css">
	.st0{fill:url(#SVGID_1_);}
	.st1{fill:#FE0000;}
	.st2{fill:#010000;}
	.st3{fill:#040000;}
	.st4{fill:#090000;}
	.st5{fill:#070000;}
	.st6{fill:#050000;}
	.st7{fill:#060000;}
	.st8{fill:#F30000;}
	.st9{fill:#0D0000;}
	.st10{fill:#100000;}
	.st11{fill:#0B0000;}
	.st12{fill:#080000;}
	.st13{fill:#0C0000;}
	.st14{fill:#120000;}
	.st15{fill:#1A0000;}
	.st16{fill:#170000;}
	.st17{fill:#1F0000;}
	.st18{fill:#0E0000;}
	.st19{fill:#140000;}
	.st20{fill:#130000;}
	.st21{fill:#1C0000;}
	.st22{fill:#2E0000;}
	.st23{fill:#0F0000;}
	.st24{fill:#260000;}
	.st25{fill:#1B0000;}
	.st26{fill:#270000;}
	.st27{fill:#250000;}
	.st28{fill:#2A0000;}
	.st29{fill:#180000;}
	.st30{fill:#190000;}
	.st31{fill:#160000;}
	.st32{fill:#220000;}
	.st33{fill:#230000;}
	.st34{fill:#490000;}
	.st35{fill:#210000;}
	.st36{fill:#3E0000;}
	.st37{fill:#2F0000;}
	.st38{fill:#1D0000;}
	.st39{fill:#3C0000;}
	.st40{fill:#350000;}
	.st41{fill:#3A0000;}
	.st42{fill:#470000;}
	.st43{fill:#3D0000;}
	.st44{fill:#240000;}
	.st45{fill:#300000;}
	.st46{fill:#3B0000;}
	.st47{fill:#310000;}
	.st48{fill:#540000;}
	.st49{fill:#4E0000;}
	.st50{fill:#430000;}
	.st51{fill:#2D0000;}
	.st52{fill:#0A0000;}
	.st53{fill:#840000;}
	.st54{fill:#790000;}
	.st55{fill:#8B0000;}
	.st56{fill:#580000;}
	.st57{fill:#800000;}
	.st58{fill:#6E0000;}
	.st59{fill:#460000;}
	.st60{fill:#280000;}
	.st61{fill:#EB0000;}
</style>
<title>decentraland</title>
<linearGradient id="SVGID_1_" gradientUnits="userSpaceOnUse" x1="1539" y1="619.3" x2="1039" y2="619.3" gradientTransform="matrix(0 -1 -1 0 869.3 1539)">
	<stop  offset="0" style="stop-color:#3D3D3D"/>
	<stop  offset="1" style="stop-color:#141414"/>
</linearGradient>
<polygon class="st0" points="500,0 500,500 0,500 0,0 "/>
<g>
	<path class="st1" d="M340.5,425c-5.1,0.2-8.7-1.8-12.2-4.2c-16-10.9-28.1-25.6-40.2-40.3c-6.9-8.4-13.9-16.7-21.5-24.4
		c-12-12.3-21.5-12.2-34.3-1c-13.6,11.8-25.1,25.5-37.6,38.4c-6.4,6.7-13.6,12.6-20.6,18.8c-11.7,10.4-20,7.1-30.1-2.3
		c-7.4-6.9-14.6-14.3-20.8-22.3c-10.6-13.5-25.1-23.2-35.4-36.7c-5-6.5-10.4-13.2-11.5-22c-0.4-3.3,0.5-5.9,2.6-8.5
		c13.8-17.7,30.2-32.8,47.6-47c7.9-6.4,15-13.7,20-22.8c4.1-7.3,4.1-12.3-1.7-18.6c-13.1-14.1-26.8-27.7-39.8-41.9
		c-7.8-8.4-16.3-16.2-21.8-26.6c-3.9-7.4-5.2-13.9,1.3-21.1c5.2-5.8,10.3-11.7,16.5-16.3c13.3-9.7,25.4-20.6,36.1-33.1
		c3.9-4.6,9.4-8.1,14.5-11.5c13.7-9.2,18.5-8.2,30.3,3.5c15.8,15.8,28.7,34.3,46.1,48.6c5.1,4.2,10.1,8.5,15.5,12.4
		c5,3.6,9.9,3.2,14.8,0.1c7.9-5,14.7-11.3,21-18.2c13.1-14.4,26.4-28.7,40.5-42.1c0.2-0.2,0.3-0.3,0.5-0.5
		c15.1-14.3,24.2-13.8,38.1,1.7c10.8,12,18.9,26.3,31.4,36.8c9,7.6,17.5,15.7,25.5,24.2c8.4,9,10.6,17,6.2,24.2
		c-2.1,3.4-4.5,6.7-7.3,9.4c-11.7,11.5-23.4,23-36.3,33c-10,7.8-19,16.5-26,27.2c-4.4,6.7-4.4,13,0.6,19.6
		c10.8,14.2,24.4,25.6,37.5,37.5c10.2,9.3,19.3,19.4,28,30.1c9.8,12.2,5.3,24.2-2.7,32.6c-12.9,13.4-28,24.5-40.3,38.5
		c-7.7,8.7-16.9,15.6-26.3,22.2C345.8,424.2,343.1,425.2,340.5,425z"/>
	<path d="M230.1,257.3c-1.9,1-2.8,2.4-1.2,4.2c1.4,1.7,2.2-0.3,3.1-0.9c1.1-0.6,2.4-1.7,3.6-0.6c2,1.9,0.8,4.6,1.2,6.9
		c0.3,1.8-1.9,0.8-3,1.1c-4.4,1.2-7.1,4.2-7.9,8.6c-0.4,2.5,0,4.9,3.5,4.3c4.2-0.7,3.9,1.6,2.8,4.2c-1.8,4.1-5.8,9,3.9,6.9
		c1.6-0.4,4.8,1,2,3.5c-2.4,2.2-2.9,4.7-3.6,7.5c-0.7,2.8-2,5.2-5.4,2.9c-1.9-1.3-2.6,0.5-3.8,1c-3.6,1.6-7.5,3.5-10.2-1.4
		c-1.6-2.9-4.4-1-6.9-1.9c0.7-2.9,3.2-3.3,5.4-3.8c4.5-1.1,5.6-5.3,8.1-8.2c1.1-1.3,0.7-3.8-1.1-4.6c-2.6-1.1-1.6,2.2-2.3,2.5
		c-3.3,1.3-6.9,1.7-7.7,6.4c-0.2,1.2-2.3,0-2.5-1.5c-0.4-3.5-0.9-7,1.2-10.3c0.8-2.8,3.8-1.2,5.3-2.7c3.1-5.9,2.6-6.7-4.8-7
		c-0.9-2.3,1.6-2.1,2.4-3.1c1.7-2.3,1.5-4.5-0.2-6.6c-2.1-2.7-3.4-0.1-4.7,1c-1.8,1.6-3.9,2-5.3,0.5c-1.8-1.9-0.2-3.6,1.6-4.8
		c2-1.4,3.1-2.9,1.9-5.5c-2.9-5.9,2.2-7.5,5.7-9.7c1-0.6,3.5,1.3,3.3-1.4c-0.1-1.6-2.5-1.4-3.9-2c-1.2-1.3-4.7,0.8-4.1-2.9
		c5.2-9.4,8,2.3,12.5,1.4c0.5-1.8-1-2.6-1.7-3.8c-2.5-4.1-1.1-6.1,3.5-6.4c0.4,0,0.9,0,1.3,0c12.1-0.1,14.7-3.3,11.9-14.9l0.3-0.3
		c2-0.7,2.9,2.8,4.5,1.7c7.3-4.9,7.4,1.9,9,5.6c1.2,2.9,2,4,5.7,2.7c4.1-1.4,6.1,1.5,4.5,5.7c-0.7,1.8-1.8,3.5-2.6,5.4
		c-2.1,5.3-1.8,9.7,4.1,12.7c5.3,2.7,10.3,5.9,15.5,8.9c1.2,0.7,2.3,1.4,2.2,2.9c-0.2,2-2.2,2.7-3.4,2.5c-4.2-0.8-11,4-11.5-5.7
		c-0.1-2.6-4.7-5.6-8.6-4.5c-2.9,0.8-6.1,2.4-5.6,6.6c-3.4-0.4-2.2-2.4-1.6-4.2c0.1-3,2.7-4.8,3.5-7.4c0.8-2.5,2-5.2-2.3-5.6
		c-2.2-2.5-3.1-7-8.3-3.8c-4.5,2.8-5.2,6.1-3.2,10.5c0.7,1.7,1.1,3.4-0.3,4.9c-1.2,0.2-2-0.6-2.8-1.3
		C229.3,252.8,232.1,256.8,230.1,257.3z"/>
	<path class="st2" d="M234,215.8c0,0-0.3,0.3-0.3,0.3c-5.3-3.6-6-0.5-5.3,3.9c0.4,2.5-0.4,4.4-2.6,4.5c-3.6,0.2-5.6,6.7-9.7,2.9
		c-2.4-2.2-4.1-5.8-4.6-9c-0.3-1.5,3.1-4,5.6-3.6c7.1,1.2,11-2,12.9-8.5c0.4-1.5,2.6-1.8,2.5-4.3c-6.1-1-12.3-2-19.3-3.1
		c2.2-1.7,4.9-3,3.4-5.9c-0.7-1.3-0.9-3.3-3.1-2.8c-2.5,0.5-4.6,1.5-5.4,4.2c-0.8,2.8-4.4,5.1,0.5,8.5c2.7,1.9,0.9,6.9-2.2,9.2
		c-3.6,2.7-7.2,5.3-12.3,5.9c-4.6,0.6-7.9,4.8-8.3,9.6c-0.3,4-1.5,8.2,0.5,12.3c0.8,1.6-0.1,3.3-1.8,3.7c-1.8,0.4-1.9-1.3-2.2-2.6
		c-0.7-2.5-2.2-5.1-2.1-7.6c0.2-4.3-1-5.2-4.6-3.1c-2.3,1.3-3.2-0.9-4.3-2c-4.9-5.1-9.6-10.4-14.4-15.6c-0.9-1-3.1-2.2-1.2-3.7
		c2-1.5,4.2-3.2,7-3.3c2.3-0.1,2.5,1.4,2.4,3c-0.3,4.8,2.9,3.2,5.3,2.9c1.1-0.1,2.3-0.5,2.8,0.9c0.4,1.2-0.4,2.1-1.4,2.7
		c-1.7,1.1-4.9,1.5-2.9,4.6c1.8,2.7,4.1,6,8,4.3c5.7-2.3,11.9-4.4,13.2-11.6c1-5.3,7.2-2.5,9.1-6.2c-0.7-1.6-2.1-2.2-3.7-1.9
		c-5.4,1.1-7.4-1.4-8.1-6.4c-0.8-5.4,5.4-13.8,10.9-13.8c3.3,0,6.6,0.2,9.9,0.4c3.1,0.2,6.1,0.5,10.2,0.9
		c-4.5-4.8-10.2-2.4-16.5-5.7c9.3-1.3,13.1-5.6,10.9-14.2c3.1,3.9,5.4,7.7,10.6,4.9c0.3-0.2,1.6,0.5,1.8,2.4
		c0.7,8.1,0.2,16.7,7.3,23.1c2.3,2.1,4,3.7,7.7,2.2c-3.1,4.7-1.6,10.7-7.8,12.9C230.2,211.9,234.7,213.8,234,215.8z"/>
	<path class="st2" d="M288.7,226.5c1.2,1.5,2,2.1,2.2,2.8c0.9,2.4,1.9,4,4.8,2c2.6-1.7,2.9-3.8,1.4-6.2c-2.1-3.5-8.2-4.6-11.7-2.1
		c-3.2,2.2-6.3,0.7-8.5-1.2c-3.9-3.4-6.6-8-8.2-12.9c-2.3-7.5-5.3-10-13.2-9.5c-3.1,0.2-6.2,0.5-9.3,0.7c-1.9,0.1-3.1-1.1-3.3-2.7
		c-0.2-1.7,1.6-1.9,2.7-2.1c3.8-0.9,7.5-3,11.4-1.3c-1.1-9.7,6-14.6,11.6-20.3c1.3-1.3,3.4-2,5.2-2.8c2-1,3.9-6,6.1-0.3
		c1.1,2.8,5.7,6.8-2.1,7.7c-3.5,0.4-1.4,3.4-1.4,5.4c0,1.3,0.7,2.8-1.1,3.3c-1.5,0.5-3-0.2-3.3-1.5c-0.9-4.2-3.7-4.2-6.3-2.6
		c-3.1,1.8-4,5.3-2.4,8.4c2.4,4.6,4.7,9.6,10.6,11.1c6.1,1.6,4.3,8.2,7.4,11.7c2.1-0.7,2.1-2.5,2.3-4.2c0.3-3.3-0.7-6.6,4.4-8.1
		c6.1-1.8,9.8-0.2,13.6,4.4c2.6,3.3,4.1,6.2,1.5,10.1c-3.8,5.8-0.9,11.2,0.4,17.6c3.8-4.7,2.9-10,5.3-15.1
		c1.5,8.8,7.5,10.8,15.1,10.9c-4.2,1.6-8.3,2.4-6,8.2c0.6,1.6-0.3,2.5-3.2,2.9c-6.7,0.8-14.5-1-19.9,5.5c-1.2,1.4-3.3,2.7-5.3,1.3
		c-2-1.3-3.9-3-3.4-5.9C287,237,287.8,232.2,288.7,226.5z"/>
	<path class="st3" d="M282.1,301.1c8.5,4.2,13.9-1.3,19.8-4.3c10.9-5.6,11.5-8.2,4.8-18.7c-1.2-1.9-2.1-3.8-1.4-6.6
		c2.4,1.3,4.6,2.6,6.8,3.8c4.7,2.3,6.7,3.9,3.7,10.5c-2.5,5.4-4.5,11.4-7.4,16.9c-1.5,2.8,0.4,3,2.3,3c2,0,3,1.1,2.8,2.8
		c-0.2,1.7-0.9,3.2-3.2,3.5c-4.5,0.5-8.2,0.1-10.4-4.7c-2.1-4.4-5.8-3.3-6.5,0.2c-1.1,5.4-5,3.6-7.6,4c-3.7,0.5-2.4-3.4-3.2-5.3
		C282,305,282.2,303.6,282.1,301.1z"/>
	<path class="st3" d="M244.5,288.3c-7-0.9-6.9-9.3-12.8-11.5c11.2-5.8,11.2-5.8,12.5-13.3c5.9,4.4,13.4,3.7,20.3,6.7
		c-3.8,2.5-5.1,8.8-12.1,5c-2.3-1.2-6.6,1.4-10,2.4c-1.9,0.6-1.2,1.9-0.4,3.1c1.4,2,2.8,3.9,4.2,5.9
		C246.4,288.1,246,288.8,244.5,288.3z"/>
	<path class="st4" d="M267.6,240.7c-2.2,1.6-2.2,5-5.7,4.1c-1.2-0.3-3.1-0.5-3-2.1c0.2-2.3-0.1-4.7,2-6.6c2.1-1.9,4.5-4.3,7.1-3.5
		c2.9,1,4.6,3.9,4.3,7.5c-0.5,6.2,3.5,8,8.7,9.6c5,1.6,10.7,3.5,10.7,10.8c-1.9-2.5-4.1-3.5-7.2-3.1c-2.4,0.3-3.8-1.7-5.4-3.4
		c-1.9-2-3.7-5.8-7.1-1.2c-1.1,1.5-2.3,0.2-3.2-0.9c-1.3-1.6-0.4-1.6,0.8-2.9C272.7,246,267.5,244,267.6,240.7z"/>
	<path class="st5" d="M173.8,279c-9.2,2.1-5.1-3.5-4.4-5.9c0.7-2.9,2-3.2,4.1-0.2c2.6,3.8,5.7,3,7.5-1.1c0.6-1.4,1.8-2.8,3.4-2.9
		c1.6-0.1,3.4,1.4,3.3,2.7c-0.7,6.8,3.2,12.2,4.9,18.3c0.3,1.2,1.3,2.6-0.5,3.3c-1.5,0.6-2.6-0.6-3.2-1.8c-2.7-5.4-7.7-8.1-12.6-11
		C175.1,279.7,174,279.1,173.8,279z"/>
	<path class="st6" d="M174.5,314c-1.5,1.4-2.2,2.2-3,2.9c-6.4,5.5-11.3,5-16.9-1.4c-1.6-1.8-1.4-2.9,0.4-4.3
		c1.6-1.2,3.1-2.5,4.6-3.8c5.6-4.7,6.1-4.5,8.1,2.9C168.3,312.6,168.9,313,174.5,314z"/>
	<path class="st7" d="M192.7,169.7c0.2,2.2-1.4,3.6-2.2,5.3c-0.5,1-1,2.3,0.3,2.8c2,0.7,5.3,0.6,2.9,3.7c-1.8,2.3-5.1,2.3-7.8,0.5
		c-0.9-0.6-1.6-1.5-2.4-2.3c-2.3-2.5-3.6-2.3-5.3,0.9c-1.8,3.5-7.5,3.8-8.9,0.6c-1.5-3.4-0.8-5.9,3.7-6.3c6.6-0.6,13.4-0.9,18.9-5.5
		C192.3,169.5,192.5,169.6,192.7,169.7z"/>
	<path class="st4" d="M303.1,343.3c-1.6,5-7.4,8.3-4.4,14.5c0.5,1-1.7,1.4-3.1,0.9c-2.7-0.9-7.1-1.9-5.9-4.7c2-4.8-0.9-7.2-2.8-10.4
		c-0.5-0.8-1.1-1.5-0.5-2.4c0.5-0.8,1.5-1.3,2.2-0.7C292.8,344.6,298,341.7,303.1,343.3z"/>
	<path class="st7" d="M317,204.1c-2.8-0.3-6.8-3.5-6.8,2.8c0,1.1-0.8,1.5-1.8,1.3c-1.1-0.3-2-1-2.2-2.2c-0.6-3.3-0.8-6.5,2.5-8.9
		c2.4-1.8,3-4-0.7-5.2c-3.6-1.2-2.6-4.3-2.5-6.7c0.2-2.7,3-1.9,4.8-2.5c1.5-0.5,2.8-0.2,2.5,1.7C311.5,191.5,317.2,196.8,317,204.1z
		"/>
	<path class="st5" d="M206.1,239.8c0.7,2,3.2,1.3,4.1,2.9c-7.2-1.1-8.7,6.3-14.1,9.3c0.3-6.6-2.9-12.2-3.2-18.4
		c-0.4-3.6,3-1.1,4-2.5c2.1-0.2,4.3-1,6.4,0.1c0.4,3.6-4.4,6.2-1.9,9.7C202.7,242.6,204.6,240.5,206.1,239.8z"/>
	<path class="st8" d="M235.7,254.9c0-0.9,0.2-1.9-0.1-2.6c-4.2-10.4-3.6-11.4,6.5-15.8c5.3-2.3,5.9-0.4,5.1,4.1
		c-0.2,1-1.2,1.9,0.3,2.6c-2.1,1.1-2.5,3.3-3.7,5c-0.9,0.6-1.3-2.8-1.9-0.6c-0.9,2.9-2.7,4.9-4.6,7.1
		C236.8,254.8,236.2,254.8,235.7,254.9z"/>
	<path class="st3" d="M262.8,333.5c-0.7,0-1.3,0.1-2,0c-2.1-0.3-5,1.1-5.9-1.5c-1-3.2,2.8-2.6,4.2-4c1-0.9,2.1-1.6,3-2.6
		c1.7-1.8,2.8-4.5,6.3-3c3,1.3,3.1,3.8,3.8,6.4c0.9,3.7-0.8,4.8-4.1,4.8c-1.8,0-3.5,0-5.3,0C262.8,333.6,262.8,333.5,262.8,333.5z"
		/>
	<path class="st9" d="M333.7,346.8c2.7-0.1,4.2,2.1,4.4,4c0.2,1.7-2.2,1.9-3.6,1.4c-3-1-4.5,0.9-6.1,2.7c-3.2,3.3-6.3,6.7-9.5,10
		c-0.7,0.8-1.5,1.9-2.8,1.2c-1.4-0.7-1.3-2.2-1.1-3.5C315.5,359.9,330.8,346.9,333.7,346.8z"/>
	<path class="st10" d="M263.2,222.1c-4.5-0.1-6.9-5.9-11.7-2.9c-0.5,0.3-1.9-0.2-1.6-1.4c0.6-2.5,0.9-5.7,4.1-6
		c1.9-0.2,3.8-0.3,5.6-1.1c2.6-1.1,4.1-0.9,3.7,2.6C262.9,216.1,263.2,219,263.2,222.1z"/>
	<path class="st5" d="M294.4,275.5c7.7,1.7,10.6,8.1,6.4,13.6c-1,1.4-2.2,2.1-3.8,2.1c-2.5,0-1.7-2.2-1.8-3.4
		C294.9,283.8,293.6,279.7,294.4,275.5z"/>
	<path class="st11" d="M279.7,293.1c0.1-4.1-2.2-6.6-4.9-8.9c-1.8-1.6-3.1-3.4-0.7-5.4c2.1-1.8,4.5-1.8,6.3,0.6
		C283.7,283.8,285.9,288.4,279.7,293.1z"/>
	<path class="st12" d="M155.7,201.8c-1.9-1.1-6.3,1.2-5.7-1.7c0.7-3.2,3.4-7.3,7.9-7.6c3-0.2,4.3,1.4,4.5,4.9
		C162.7,203.5,158.5,201.2,155.7,201.8z"/>
	<path class="st10" d="M336.7,164.4c-1.1-3.1-2.1-6.2-3.2-9.3c-0.7-1.9-1.5-3.7,0.6-5.3c1.3-1,2.8-1.3,4.3-0.4
		c2.1,1.1,3.3,2.7,2.6,5.4c-0.8,3.2-1.3,6.4-1.9,9.7C338.4,165.2,337.5,165.2,336.7,164.4z"/>
	<path class="st13" d="M287.1,162.1c3.1,3.1,9.5,3.9,8,9.6c-0.6,2.1-5.2,4.8-7,3.4C283.9,171.9,287.1,166.8,287.1,162.1z"/>
	<path class="st9" d="M153.6,151.8c-3.7,1.4-7.4,2.8-11,4.2c-2.8,1-4.8,0.4-5.3-2.8c-0.4-3,1.4-5,4-4.8c4.1,0.2,8.1,1.3,12.1,2.1
		C153.5,150.9,153.5,151.3,153.6,151.8z"/>
	<path class="st14" d="M319.1,205.4c7.7,1.6,12.2-3.5,18.5-4.9c-0.7,4.2-2.5,7.6-5.4,10.5C329,207.2,322.7,211.4,319.1,205.4z"/>
	<path class="st11" d="M259.7,313.9c1.4,6-5.7,6.9-5.8,13.2C247,315,247,315,259.7,313.9z"/>
	<path class="st13" d="M335.4,193.2c-1.1,3.1-3.5,5.4-6.5,5.7c-2.7,0.2-6.8-1.1-6.3-4.3c0.6-3.7,5.2-3.2,8.2-3.8
		C332.3,190.4,334.9,190.1,335.4,193.2z"/>
	<path class="st14" d="M192.7,169.7c-0.3,0-0.5-0.1-0.6-0.3c-0.1-2.8,0-5.7-1-8.4c-1-2.6-3.1-4.7-3.1-7.8
		C199,155.3,200.4,160.2,192.7,169.7z"/>
	<path class="st13" d="M179.4,154c4,0.8,5.3,3.7,5.8,6.7c0.4,2.5-0.3,6.1-3.3,6.2c-4,0.2-3.7-4.2-4.4-6.8
		C176.9,158,176.9,155.3,179.4,154z"/>
	<path class="st9" d="M320,180.6c2.6-1.9,5.1-3.6,7.5-5.5c1.4-1.1,2.7-1.3,4.1-0.1c1.5,1.3,1.1,2.8,0.6,4.3
		C330.7,184.1,325.3,184.8,320,180.6z"/>
	<path class="st13" d="M165.1,156.5c3.7,0.9,5.6,3.9,6.1,7.4c0.2,1.4-1,3.8-3.2,4.5c-1,0.3-6.6-8-6.3-9.4
		C162,157.3,163,156.3,165.1,156.5z"/>
	<path class="st15" d="M237.3,254.7c2.2-4.2,2.1-9.4,5.4-13.7c1.8,2.9,0.7,5.2,1.2,7.3c-0.2,1.7-0.3,3.5-0.5,5.2
		c-0.2,1.8-0.6,3.8-2.4,4.3C238.7,258.4,238.9,255.4,237.3,254.7z"/>
	<path class="st16" d="M279.4,317.4c-2.2-1.4-3.6,0.4-5.2,1.3c-1.1,0.6-2.5,1.9-3.4,0.5c-0.8-1.1-1.3-2.9-1-4.3
		c0.3-1.9,2.3-1.9,3.8-1.5c4.8,1.3,9.5,3.4,14.6,1c1-0.5,3.5-0.4,3.1,2c-0.3,1.7-2,1.2-3.3,1.1C285.1,318.2,282.2,318.4,279.4,317.4
		z"/>
	<path class="st14" d="M287.9,277.3c-3-0.4-6-0.8-9-1.1c-1.8-0.2-2.7-1.2-3.2-2.8c-0.4-1.4,0-2.6,1.2-3.4c1.4-1,2.9-0.7,4.2,0.3
		c2.5,1.9,5.1,3.8,7.6,5.6C288.5,276.4,288.2,276.8,287.9,277.3z"/>
	<path class="st17" d="M179.8,187.1c-7,3.2-12.9-0.2-18.2,2.7c-0.8,0.4-1.8-0.5-1.6-1.5c0.3-1.7,0.8-3.8,3-3.6
		C168.1,185,173.3,185,179.8,187.1z"/>
	<path class="st18" d="M290.1,160.8c9.4-6.6,11.1-6.4,12,0.1c0.2,1.1,1.4,2.8-0.4,3.3c-1,0.3-2.7-0.1-3.6-0.8
		C296.1,162.1,294.7,159.7,290.1,160.8z"/>
	<path class="st19" d="M339.2,360.8c0,4.6,0.9,7.9,2.6,11c0.5,0.9,1.1,2.2,0,3c-1.6,1.2-2.2-0.4-3.1-1.3
		C333.2,368.1,333.2,367.9,339.2,360.8z"/>
	<path class="st9" d="M190.9,275.9c-0.6-4.9,1.3-7.9,5.2-9.2c1.6-0.5,3.6,0.7,3.4,2.1C198.8,273.3,195.5,275.1,190.9,275.9z"/>
	<path class="st4" d="M279.2,334.7c-1.6,0-2.4-0.3-2.6-1.3c-0.2-1.1-0.1-2.2,1-2.8c2.4-1.1,3.4-3.2,4.3-5.5c0.6-1.6,2-2.7,3.5-2
		c0.6,0.3,0.7,2.3,0.7,3.5C286,331.5,280.8,331.7,279.2,334.7z"/>
	<path class="st20" d="M244.5,288.3c0.6-0.5,1.2-1.1,1.8-1.6c3.2,3.2,6,6.8,8.4,10.8C246.7,299,247.4,291.7,244.5,288.3z"/>
	<path class="st21" d="M316.2,159.7c-1.4-7.6,4.7-7.7,10.2-10.8C324,154.9,319.1,156.2,316.2,159.7z"/>
	<path class="st14" d="M146.5,195c-4.3-7.6-4.3-7.6,5.5-8.7c-1.1,2.1-2.1,4-3.1,5.9C148,193,149.4,195.8,146.5,195z"/>
	<path class="st22" d="M203.3,315.3c-3.4-3.3-6-5.7-7.6-9.2C203,305.5,203.6,306.2,203.3,315.3z"/>
	<path class="st16" d="M296.3,185.6c-0.7,1.7-1.8,2-2.7,1.4c-2.7-1.8-6.8-2.2-7.4-6.3c-0.2-1.2,1.6-2.2,2.1-1.5
		C290.3,182.2,294.8,182.2,296.3,185.6z"/>
	<path class="st23" d="M351.3,338.7c0,2-0.9,3.4-2.6,3.3c-2.5-0.1-3.8-1.9-4.1-4.3c-0.2-1.6,0.4-3.2,2.4-3
		C349.4,335,350.6,336.8,351.3,338.7z"/>
	<path class="st24" d="M337.7,126.4c-3.2-0.9-4.7,1.9-6.8,2.9c-0.8,0.4-1.6,0.5-2.3-0.3c-0.7-0.9-0.3-1.6,0.3-2.3
		C331.4,124,334,121,337.7,126.4z"/>
	<path class="st25" d="M251.1,202.4c1.4,0.3,3.2,0.8,2.7,2.3c-0.8,2.5-3.3,3.3-5.6,3.7c-1.3,0.2-3-0.7-2.6-2.1
		C246.3,203.7,249,203.2,251.1,202.4z"/>
	<path class="st11" d="M333.9,186.5c0.2-2.7,0.2-5.5,0.5-8.2c0.2-1.5,1.4-2.3,2.9-1.7c1.3,0.5,2.5,1.4,1.8,3
		c-1.1,2.5-2.5,4.9-3.7,7.3C334.9,186.8,334.4,186.6,333.9,186.5z"/>
	<path class="st20" d="M173.5,195.7c-0.9,2.8-2.6,5.1-5.8,5.9c-1.1,0.2-1.6-1.4-1.2-1.7c2.9-1.6,1.9-6.6,5.8-7.1
		C173.6,192.6,173.4,194.4,173.5,195.7z"/>
	<path class="st26" d="M171.3,284c0.2,4.5-0.6,7.2-4,8.4c-1.1,0.4-2.5-0.2-2.5-1.4C164.9,287.3,168.6,286.9,171.3,284z"/>
	<path class="st22" d="M174,155.1c-0.6,0.5-0.9,1-1.1,0.9c-3-1.4-7.2,0-9.3-3.7c-0.2-0.4,0.4-1.6,0.7-1.7
		C168.5,150.2,170.9,153,174,155.1z"/>
	<path class="st27" d="M202.5,284.1c2.8,4.9,1.6,8.8-2.8,11.9l0,0c-0.9-4,2.5-7.7,1-11.8C201.3,283.8,201.9,283.8,202.5,284.1z"/>
	<path class="st28" d="M165.6,365.7c-2.2-1.5-5.9-0.5-6.7-3.8c-0.3-1,1.1-2.3,2.6-2.2C164.9,360,165.3,362.7,165.6,365.7z"/>
	<path class="st21" d="M180.9,306.3c2.3-2.6,4.6-5.3,7.6-8.7c0.5,6.5-3.8,8.5-7.3,11C180.6,307.9,180.4,307.2,180.9,306.3z"/>
	<path class="st21" d="M344.6,169.8c-1.7,0-2.6-0.8-2.4-2.4c0.3-2,1.9-2.8,3.7-3c1.3-0.2,2.8,0,2.6,1.8
		C348.3,168.5,346.3,169.1,344.6,169.8z"/>
	<path class="st29" d="M302.2,186.2c0.2,1.9,0.4,3.7-1.5,5.6c-3.2-4.2-2.3-7.8,0.2-11.3C304.3,181.7,302.4,184.1,302.2,186.2z"/>
	<path class="st20" d="M158.3,335.5c-0.4,2.1-2.2,2.4-3.9,2.8c-1.5,0.4-2.6-0.3-2.6-1.9c0-1.9,1.1-3.4,3.1-3.4
		C156.5,333,157.7,333.9,158.3,335.5z"/>
	<path class="st30" d="M285.2,154.4c-1.3-3.4-0.2-5.3,3.1-5.9c1.1-0.2,2.8,0.1,2.6,1.3C290.5,152.9,287.5,153.2,285.2,154.4z"/>
	<path class="st29" d="M310,350.7c1.9,0.1,2.8,1.1,2.8,2.9c0,1.6-1.1,2.2-2.6,2.2c-1.6,0-3.3-0.4-3.3-2.3
		C306.8,351.8,308.6,351.4,310,350.7z"/>
	<path class="st31" d="M320.8,310.5c1.4,0.5,3.1,0.8,3.1,2.6c-0.1,1.9-2,2.1-3.5,2.1c-1.5,0-3.3-0.5-3-2.5
		C317.6,311.1,319.1,310.4,320.8,310.5z"/>
	<path class="st32" d="M142.5,167.1c2.3,1.4,4.4,2.9,5.1,6c-3.6,0.4-6-0.7-6.6-4.6C140.6,167.1,141.2,166.8,142.5,167.1z"/>
	<path class="st21" d="M158.1,298.9c-1.3,2.3-1.9,5.3-5.3,4.8c-1.2-0.2-1.9-1.6-1.4-2.6C152.7,298.2,155.1,298,158.1,298.9z"/>
	<path class="st29" d="M301,179c-0.1-0.2-0.2-0.4-0.3-0.6c-0.7-1.7-3.7-2.3-2.2-4.9c0.4-0.8,1.2-1.4,2.2-1c2.6,0.9,3.2,2.7,2.5,5.2
		C302.8,178.7,302.1,179.4,301,179z"/>
	<path class="st33" d="M202.5,284.1c-0.6,0-1.2,0.1-1.8,0.1c-1.9-0.5-3.5-1.7-2.4-3.7c1.1-2.1,2.9-1.2,4.3,0.2
		c0.6,0.6,1.6,0.7,2.4,1c0.5,0.2,0.6,0.4,0.5,0.6c-0.1,0.2-0.3,0.3-0.5,0.3C204.2,283.2,203.4,283.6,202.5,284.1z"/>
	<path class="st34" d="M148.3,131c-0.8-3.1-3.6-4.7-2-7.6c0.1-0.3,1.4-0.3,1.8,0.1C150.5,125.5,150.9,127.8,148.3,131z"/>
	<path class="st31" d="M132.4,333.3c-1.5-0.1-2.2-0.8-1.9-2.1c0.4-2.5,2.7-2.6,4.5-2.9c1-0.2,1.7,0.9,1.6,1.7
		C136.1,332.2,134.3,333,132.4,333.3z"/>
	<path class="st22" d="M281.6,228.5c1.5,0.1,2.5,0.9,2.8,2.3c0.3,1.9-1.1,2.9-2.6,3.1c-1.6,0.2-2.1-1.3-2.3-2.5
		C279.3,229.8,280.1,228.9,281.6,228.5z"/>
	<path class="st35" d="M154.5,141.7c1.6,0.4,3,1.6,3.4,3.3c0.4,1.6-1,2.1-2.5,2.1c-2.4,0-2.8-1.8-3-3.5
		C152.2,142.4,152.8,141.6,154.5,141.7z"/>
	<path class="st21" d="M266.1,285.4c-1.4-2.4-7.9,0.3-5.9-5.9c3.1,1.3,5.6,3.3,7.7,5.7C267.4,285.9,266.7,285.9,266.1,285.4z"/>
	<path class="st25" d="M295.3,338.4c-2.7-0.5-3.2-1.9-3.3-3c-0.2-1.7,1.3-2.9,2.8-2.8c1.4,0.1,3.1,1.1,2.6,2.9
		C297,336.8,295.8,337.8,295.3,338.4z"/>
	<path class="st36" d="M252.4,310.5c-1.9-2.2-5.2-2.1-5.2-5.4c0-0.3,1.2-1,1.5-0.8C251.2,305.3,253,306.8,252.4,310.5z"/>
	<path class="st30" d="M328.9,139.6c-0.2,1.2-0.7,2.3-2.1,1.8c-1.4-0.5-3-0.9-3.4-2.7c-0.3-1.4,0.3-2.1,1.7-2.1
		C327.1,136.5,328.2,137.8,328.9,139.6z"/>
	<path class="st37" d="M156.7,167.3c-0.8-1.9-0.9-3.2-1.6-3.8c-1.4-1.1-4.3-0.2-4.1-3.2c0-0.4,1-1.1,1.2-1c2.1,1.2,5.4,1.4,5.1,5
		C157.3,165.1,157.1,165.7,156.7,167.3z"/>
	<path class="st38" d="M194.4,337.1c-1.5,2.6-3,3.2-4.9,2.4c-1.7-0.7-4.9-1.1-4.2-3.1c1.4-4,2.4,0.9,3.9,0.7
		C190.7,336.9,192.2,337.1,194.4,337.1z"/>
	<path class="st39" d="M347.3,135.7c2.6-2,4.2-3.9,7-2.8c0.3,0.1,0.4,1.3,0.1,1.6C352.7,136.5,350.7,136.8,347.3,135.7z"/>
	<path class="st40" d="M319.6,144.5c0,1.3-0.7,2.4-1.8,2.2c-1.6-0.3-2.3-1.9-2.7-3.3c-0.3-1.1,0.5-1.5,1.5-1.5
		C318.3,141.8,319.3,142.8,319.6,144.5z"/>
	<path class="st16" d="M183.7,313.2c0.6-0.6,1.2-1.3,1.9-1.8c1.3-1.1,2.8-2.8,4.2-0.4c1.8,3.1-1.6,2.1-2.7,3
		c-0.5,0.4-1.2,0.6-1.8,0.9C183.9,315.2,183.4,314.6,183.7,313.2z"/>
	<path class="st41" d="M286.1,196.1c-1.3-0.6-2.5-1.4-2.4-2.9c0.1-1.1,1.3-1.8,2.4-1.7c1.6,0.1,2.4,1.3,2.1,2.7
		C288.2,195.2,287.6,196.4,286.1,196.1z"/>
	<path class="st42" d="M354.5,168.6c1.4,0.1,1.9,0.9,1.5,2.2c-0.4,1.1-0.1,2.9-2,2.7c-1.1-0.1-2-0.9-1.8-2.2
		C352.3,169.9,353,168.8,354.5,168.6z"/>
	<path class="st43" d="M380.1,352.5c-0.4,1.2-0.4,2.9-2,2.9c-1.7,0-1.7-1.6-1.7-2.9c0-1.3,0.3-2.7,2.1-2.5
		C379.7,350.3,380,351.4,380.1,352.5z"/>
	<path class="st14" d="M126.4,165.6c-1.4-0.2-1.2-1.5-1-2.4c0.4-1.6,1.3-2.7,3.1-2.7c1,0,1.6,0.5,1.3,1.6
		C129.4,163.8,128.7,165.3,126.4,165.6z"/>
	<path class="st16" d="M278.3,302.4c-0.1,1.6-0.8,3.2-1.9,3.3c-1.3,0.1-2.1-1.5-1.7-2.9c0.3-1.1,0.5-2.8,2.3-2.7
		C278.4,300.3,278.2,301.6,278.3,302.4z"/>
	<path class="st44" d="M264.4,307.8c0,1.2-0.9,1.6-1.7,1.6c-1.5,0.1-2.6-1-2.9-2.3c-0.3-1.3,0.8-2,2-1.9
		C263.3,305.4,264,306.5,264.4,307.8z"/>
	<path class="st45" d="M132,173.7c-1.4,0.1-2-0.8-2.2-1.9c-0.3-1.8,1.1-2.1,2.4-2.2c1.1-0.1,2.3,0.1,2.2,1.5
		C134.3,172.5,133.3,173.3,132,173.7z"/>
	<path class="st46" d="M169.5,336.5c0.8-2.2,3-2.8,4.5-4.3C174.1,336.3,174.1,336.3,169.5,336.5z"/>
	<path class="st32" d="M205,282.7c0-0.3,0-0.6,0-1c3.1-0.1,6.2-0.2,9.3-0.3c-1.2,2-3.7,1.5-5.3,2.7
		C207.5,284.1,206.1,283.7,205,282.7z"/>
	<path class="st47" d="M131.2,345.7c-1,2.1-2.5,3.2-4.7,2.5c-0.9-0.3-1.5-1.4-0.7-2.1C127.3,344.7,129.2,344.7,131.2,345.7z"/>
	<path class="st48" d="M142.5,167.1c-0.5,0.5-1,1-1.4,1.5c-1.3-1.9-3.8-3.1-3.7-5.9c0-0.3,0.6-0.8,0.9-0.8
		C141.4,162.2,140.8,165.6,142.5,167.1z"/>
	<path class="st19" d="M216.4,204.4c1.8,0.2,2.8,1,2.8,2c0,1.5-1.4,2-2.8,2.1c-1.3,0-2.2-0.7-2.2-1.9
		C214.3,205.1,215.4,204.3,216.4,204.4z"/>
	<path class="st49" d="M131.3,147.3c0.9,0.2,1.7,0.5,1.7,1.6c0.1,1.3-0.6,2.2-1.8,2.2c-0.6,0-1.5-0.9-1.7-1.6
		C129.2,148.2,130.2,147.6,131.3,147.3z"/>
	<path class="st10" d="M178.2,202.4c0.1-1.4,1-2.2,2.5-2.2c0.9,0,1.7,0.4,1.7,1.5c0,1.5-0.9,2.5-2.2,2.8
		C179,204.8,178.3,203.8,178.2,202.4z"/>
	<path class="st50" d="M317,303.1c0-1,0.2-1.8,1.3-1.7c1.4,0,2,0.9,2.1,2.1c0.1,0.7,0.3,1.9-1.1,1.8
		C318.1,305,317.5,304.1,317,303.1z"/>
	<path class="st41" d="M311.3,179.9c-0.9-0.4-2.3-0.6-1.9-1.9c0.3-1.1,1.5-1.7,2.6-1.3c0.7,0.3,1.9,1.2,1.8,1.6
		C313.5,179.4,312.4,179.9,311.3,179.9z"/>
	<path class="st47" d="M253.7,260c1,0.1,2,0,1.9,1.2c-0.1,1.6-1.3,2.1-2.5,2.3c-0.4,0.1-1.2-0.5-1.3-0.9
		C251.4,261,252.6,260.5,253.7,260z"/>
	<path class="st21" d="M196.9,261.6c0,0.8-0.9,1.1-1.8,1.1c-1.3,0-1.8-0.9-1.7-2.2c0.1-1,0.7-1.8,1.6-1.6
		C196.1,259.1,196.8,260,196.9,261.6z"/>
	<path class="st21" d="M197,231.1c-1.3,0.8-2.7,1.7-4,2.5c-0.9-1.1-3.3-1.4-2.4-3.3c0.8-1.7,2.1-0.2,3.2,0.3
		C194.8,231,196,231,197,231.1z"/>
	<path class="st51" d="M199.7,296.1c-1.4,2.2-3.6,2.6-6.2,3.1C194.3,294.5,197.4,296.2,199.7,296.1
		C199.7,296,199.7,296.1,199.7,296.1z"/>
	<path class="st51" d="M326,382.8c0,1.3-0.8,2.1-1.9,2.2c-0.8,0.1-1.8-0.4-1.8-1.4c-0.1-1.3,1-1.9,2-2.2
		C325.2,381.2,325.9,381.7,326,382.8z"/>
	<path class="st52" d="M158.6,382.6c1.5,1.4,2.1,2.8,0.9,4.5c-0.2,0.2-1,0.3-1.1,0.1C157.1,385.8,156.7,384.3,158.6,382.6z"/>
	<path class="st17" d="M181,289.5c-0.2,2.4-1.1,2.9-2.3,2.8c-1.1,0-1.6-0.7-1.4-1.7c0.3-1,0.7-2.2,2-2
		C180.2,288.8,180.9,289.4,181,289.5z"/>
	<path class="st29" d="M161.3,136c-1.1,0.7-1.8,1.5-2.5,1.5c-1.2,0-1.9-0.9-1.8-2.1c0-1.1,0.9-1.6,1.7-1.4
		C159.6,134.4,160.2,135.2,161.3,136z"/>
	<path class="st51" d="M308,168c-1.4,0.2-2.2-0.3-1.9-1.2c0.3-0.9,1.1-1.8,1.9-2.2c0.5-0.3,2-0.1,1.6,1.2
		C309.3,166.6,308.5,167.3,308,168z"/>
	<path class="st32" d="M180.9,306.3c0.1,0.8,0.2,1.5,0.3,2.3c-1.3,1.4-2.5,2.9-5.3,2.3C177.6,309.4,179.3,307.9,180.9,306.3z"/>
	<path class="st38" d="M301,179c0.8-0.4,1.5-0.8,2.3-1.3c0.1,2.9,0.4,5.7-1,8.4c-0.4-1.9,0.5-4.1-1.3-5.7
		C300.9,180,300.9,179.5,301,179z"/>
	<path class="st53" d="M230.1,257.3c0.1-1.1,0.1-2.1,0.2-3.2c0.1-1-1.4-2.3-0.1-2.7c1.4-0.5,2.1,1,2.7,2.2
		C231.1,254.1,232.3,257,230.1,257.3z"/>
	<path class="st26" d="M183.7,313.2c0.6,0.5,1.1,1.1,1.7,1.6c-1.2,1.5-2.5,3.1-4.8,2.1C180.6,314.8,182.2,314,183.7,313.2z"/>
	<path class="st34" d="M214,315.3c-2,1-4.1,1.3-4.6-0.1c-0.6-1.5,1.2-2,2.6-1.5C212.6,314,213,314.5,214,315.3z"/>
	<path class="st23" d="M266.1,285.4c0.6-0.1,1.2-0.1,1.8-0.2c2.3,2.9-0.7,3.4-2.9,6C265.6,288.3,265.8,286.9,266.1,285.4z"/>
	<path class="st44" d="M193,322.4c-0.3,1.2-1.1,1.5-2,1.4c-0.9-0.1-1.8-0.4-1.7-1.5c0.1-1.1,1.1-1.2,1.9-1.1
		C192,321.3,193.1,321.2,193,322.4z"/>
	<path d="M341.7,143.5c-0.3,0.2-0.8,0.8-1.3,0.8c-0.9,0.1-1.9-0.2-1.7-1.3c0.1-0.4,0.8-1.1,1.3-1.1
		C340.8,141.7,341.6,142.1,341.7,143.5z"/>
	<path class="st54" d="M142.2,142.9c-0.3,1.3-1,1.7-1.9,1.4c-0.4-0.1-1.1-0.8-1-1.2c0-1,0.9-1.3,1.8-1.1
		C141.6,142.1,141.9,142.6,142.2,142.9z"/>
	<path class="st26" d="M327.4,168.5c-0.9,1.4-1.4,3.4-3.7,2.1c-0.4-0.2-1-1.3-0.8-1.5C324.2,167.7,325.9,168.6,327.4,168.5
		L327.4,168.5z"/>
	<path class="st35" d="M123.5,354.3c0.4,0.5,1.2,1.1,1.2,1.8c0.1,1.1-1,1.1-1.8,1.1c-0.9-0.1-1.7-0.5-1.6-1.5
		C121.4,354.6,122.3,354.5,123.5,354.3z"/>
	<path class="st44" d="M327.4,168.6c-0.1-0.8-0.3-1.7-0.2-2.5c0-1-0.2-2.2,1.1-2.6c0.3-0.1,1,0,1.1,0.2c0.7,1.1-0.1,1.9-0.7,2.8
		C328.3,167.2,327.8,167.8,327.4,168.6C327.4,168.5,327.4,168.6,327.4,168.6z"/>
	<path class="st55" d="M116.8,155.4c-0.3,0.3-0.7,0.8-1.2,0.9c-0.9,0.2-1.8-0.2-1.8-1.2c0-0.4,0.6-1.1,1-1.2
		C115.7,153.8,116.5,154.1,116.8,155.4z"/>
	<path class="st25" d="M279.4,317.4c2.9,0,5.7,0.1,8.6,0.1C285.1,318.3,282.2,319.7,279.4,317.4z"/>
	<path class="st27" d="M295.7,148.7c-0.7-0.9-1.5-1.5-1.7-2.2c-0.1-0.6,0-2,1.3-1.4c0.7,0.3,1.2,1.2,1.5,1.9
		C297,147.3,296.3,147.9,295.7,148.7z"/>
	<path class="st56" d="M175.8,301c1.4-0.1,1.5,0.9,1.8,1.6c0.3,0.7,0,1.2-0.7,1.3c-1,0.1-1.6-0.7-1.8-1.5
		C175.1,302,175.6,301.4,175.8,301z"/>
	<path class="st57" d="M146.5,195c0.8-0.9,1.6-1.8,2.4-2.8c0.1,1.2,0.7,2.8,0.2,3.6C148.5,196.8,147.2,196,146.5,195z"/>
	<path class="st22" d="M117.4,338.4c-0.2,0.9,0.1,2.1-1.2,1.9c-0.5-0.1-1.1-0.7-1.3-1.2c-0.2-0.9,0.3-1.7,1.3-1.7
		C116.6,337.4,117,338.1,117.4,338.4z"/>
	<path class="st58" d="M336.7,164.4c0.8,0,1.6,0,2.5,0c0,1.1,0.8,2.8-0.9,2.9C336.8,167.3,336.6,165.7,336.7,164.4z"/>
	<path class="st59" d="M246.2,256.2c0.1,1.6-0.1,3.2,1.6,4.2C244.7,260.5,244.4,259.7,246.2,256.2z"/>
	<path class="st60" d="M166.4,176.8c-0.7,0.6-1.2,1.6-1.8,1.6c-1.1,0-1-1.1-0.9-1.9c0.1-1,0.7-1.6,1.7-1.3
		C165.8,175.3,166,176.1,166.4,176.8z"/>
	<path class="st40" d="M358.7,359.7c0.5,1.4-0.3,1.7-0.7,1.7c-0.8-0.1-1.9-0.3-2.2-0.8c-0.4-0.7,0.1-1.7,1.2-1.6
		C357.6,359,358.3,359.5,358.7,359.7z"/>
	<path class="st27" d="M346.8,390.3c-0.5-2.1-0.9-2.7-0.7-3.2c0.4-1,0.8-2.2,2.2-1.9c0.3,0.1,0.9,1.1,0.7,1.4
		C348.7,387.6,348,388.5,346.8,390.3z"/>
	<path class="st61" d="M218.3,248.1c2-2.5,2.7-4.9,5.4-4.3c0.6,0.2,1.5,2,1.3,2.8C224,249.7,221.4,247.9,218.3,248.1z"/>
</g>
</svg>
