<?xml version="1.0" encoding="utf-8"?>
<!-- Generator: Adobe Illustrator 22.0.0, SVG Export Plug-In . SVG Version: 6.00 Build 0)  -->
<svg version="1.1" id="Layer_1" xmlns="http://www.w3.org/2000/svg" xmlns:xlink="http://www.w3.org/1999/xlink" x="0px" y="0px"
	 viewBox="0 0 1024 1024" style="enable-background:new 0 0 1024 1024;" xml:space="preserve">
<style type="text/css">
	.st0{fill:url(#SVGID_1_);}
	.st1{fill:#FFFFFF;}
	.st2{fill:#94A6C3;}
	.st3{fill:#1B314F;}
	.st4{fill:#FFD923;}
	.st5{fill:#D82122;}
</style>
<linearGradient id="SVGID_1_" gradientUnits="userSpaceOnUse" x1="3.0003" y1="3.448076e-08" x2="1027.0002" y2="1024">
	<stop  offset="0" style="stop-color:#205DC4"/>
	<stop  offset="0.4026" style="stop-color:#0A142F"/>
	<stop  offset="0.5872" style="stop-color:#0A0D13"/>
	<stop  offset="1" style="stop-color:#4E0D3F"/>
</linearGradient>
<rect x="3" class="st0" width="1024" height="1024"/>
<g>
	<path class="st1" d="M299,550.6l21.1-159.1L136.6,264l167.7,56.8l39.6-60.7l144.6-89.8l318.9,175.6l16.5,268.1L682,811.4
		l-112.2,17.2l58.1-106.3V619.9L585.6,540l-42.9-28.4l-66,68v72l-51.5,48.2l-65.4,7.9l-29.1,16.5L283.2,709l-19.8-71.3l35.7-50.2
		V550.6z"/>
	<path class="st2" d="M592.2,262.7c-35-7.3-73.3-5.3-73.3-5.3s-12.5,58.1-90.5,73.3C429.1,330.7,531.4,365.7,592.2,262.7z"/>
	<path class="st2" d="M623.9,789.6c42.3-33,74-78.6,88.5-130.1c0.7-2,6.6-5.3,10.6-7.9c6.6-4,13.2-7.3,14.5-12.5
		c2.6-15.2,4-31,4-46.9c0-5.9-5.9-11.9-11.9-17.8c-4.6-4-9.2-8.6-9.2-11.9c-6.6-60.1-34.3-116.2-78.6-157.1l-4.6,4.6
		c42.9,40.3,70.6,95.1,76.6,153.2c0.7,5.3,5.9,10.6,11.2,15.8c4.6,4,9.9,9.9,9.9,12.5c0,15.2-1.3,30.4-4,45.6
		c-0.7,2.6-6.6,5.3-11.2,7.9c-6.6,3.3-12.5,6.6-13.9,11.9c-15.8,56.1-52.2,105-100.4,136.7C614,775,641,715,655.6,684.6l-2.6-97.7
		l-83.9-81.2l-47.5,6.6l-52.2,84.5c0,0,24.4,31-9.9,67.3c-33.7,35.7-60.1,43.6-60.1,43.6l-24.4-13.2c7.3-9.2,21.8-23.1,33-32.4
		c19.1-15.8,38.3-17.2,38.3-34.3c0.7-35.7-37.6-25.8-37.6-25.8l-13.9,13.2l-5.9,48.9l-29.1,36.3l-3.3-0.7l-47.5-10.6
		c0,0,29.1-15.2,33.7-32.4c4.6-16.5-9.2-71.3-9.9-74.6c0.7,0.7,13.9,11.9,19.8,30.4c10.6-29.1,24.4-56.8,28.4-59.4
		c4-2.6,57.4-31,57.4-31L420.5,569l13.2-7.3l31.7-77.9c0,0,31-15.2,54.1-15.2c41.6-0.7,103-51.5,75.3-142.6
		c7.9,3.3,145.3,72,169,206.7C781.7,636.4,722.9,733.5,623.9,789.6z"/>
	<path class="st3" d="M466.7,277.2c15.2-17.8,9.2-44.2,9.2-44.2l-44.2,65.4C431.1,298.3,447.6,299,466.7,277.2z"/>
	<path class="st3" d="M318.2,634.4l5.3-26.4c0,0-21.8,38.3-23.8,43.6c-2,5.9,1.3,16.5,9.9,15.8c8.6-0.7,19.1-13.2,19.1-22.4
		C328.7,633.1,318.2,634.4,318.2,634.4z"/>
	<path class="st3" d="M710.4,214.5c0,0,33,1.3,67.3,5.3c-77.3-60.7-150.5-78.6-210-78.6c-81.9,0-137.3,33.7-140.6,35.7l25.8-40.9
		c0,0-103-9.9-139.3,99c-9.2-23.1-17.8-56.8-17.8-56.8S242.2,225,267.3,303c-61.4-22.4-149.2-53.5-152.5-54.1
		c-4.6-0.7-5.9,1.3-5.9,1.3s-1.3,2,2.6,5.3c7.3,5.9,145.9,108.3,176.3,128.1c-6.6,23.8-6.6,35,0,46.2c9.2,15.2,9.9,23.1,8.6,34.3
		c-1.3,11.2-13.2,108.3-15.8,120.2c-2.6,11.9-30.4,54.1-29.1,66.7c1.3,12.5,18.5,66,33.7,72c11.2,4,39,12.5,57.4,12.5
		c6.6,0,12.5-1.3,15.2-4c11.2-9.9,14.5-11.9,22.4-11.9c0.7,0,1.3,0,2,0c3.3,0,7.3,0.7,11.9,0.7c10.6,0,24.4-2,34.3-11.2
		c14.5-14.5,39.6-34.3,47.5-43.6c9.9-12.5,15.2-29.7,12.5-46.9c-2-15.8,6.6-29.7,16.5-43.6c12.5-16.5,35.7-46.2,35.7-46.2
		c45.6,34.3,74,86.5,74,144.6c0,103-89.8,186.2-200.7,186.2c-17.2,0-33.7-2-50.2-5.9c50.8,17.8,93.8,23.8,128.8,23.8
		c74.6,0,114.2-27.1,114.2-27.1s-13.9,17.8-36.3,38.3c0.7,0,0.7,0,0.7,0c123.5-17.2,183.6-118.8,183.6-118.8s-4.6,33-10.6,55.5
		c164.4-123.5,136.7-278,136-283.3c1.3,2,17.8,21.8,26.4,32.4C932.9,302.3,710.4,214.5,710.4,214.5z M457.5,648.9
		c-2.6,3.3-13.9,13.2-21.8,20.5c-7.9,7.3-16.5,14.5-23.1,21.1c-2.6,2.6-7.9,4-15.8,4c-2.6,0-5.3,0-7.3,0c-1.3,0-2.6,0-4,0
		c-1.3,0-2,0-2.6,0c-2,0-4,0-5.9,0c9.9-13.2,39-43.6,48.9-50.2c11.9-7.9,17.8-15.8,10.6-29.7c-7.3-13.9-26.4-10.6-26.4-10.6
		s11.2-4.6,21.1-4.6c-12.5-3.3-28.4,0-35.7,7.3c-7.9,7.3-6.6,33-9.9,49.5c-3.3,17.2-14.5,25.8-31.7,41.6
		c-9.2,8.6-15.8,11.2-21.1,11.2c-11.2-2-24.4-5.3-33.7-8.6c-6.6-8.6-16.5-37-19.1-48.9c2-6.6,9.9-20.5,13.9-28.4
		c7.9-15.2,12.5-23.8,13.9-31.7c2.6-11.2,11.2-80.6,14.5-109.6c8.6,11.2,20.5,29.7,17.8,41.6c19.1-27.1,5.3-53.5-1.3-64
		c-5.9-10.6-13.9-31.7-7.3-54.1c6.6-22.4,30.4-84.5,30.4-84.5s7.9,13.9,19.1,11.2c11.2-2.6,101.7-138.7,101.7-138.7
		s24.4,53.5-1.3,92.4c-26.4,39-52.2,46.2-52.2,46.2s36.3,6.6,70-17.8c13.9,32.4,27.1,66,27.7,70.6c-2,4.6-28.4,68-31,72
		c-1.3,1.3-10.6,4-17.2,5.3c-11.2,3.3-17.8,5.3-20.5,7.3c-4.6,4-25.8,62.1-35.7,90.5c-11.9,3.3-23.8,9.9-32.4,23.1
		c4.6-3.3,19.1-5.3,29.7-6.6c9.2-0.7,37.6,14.5,44.9,42.9c0,0.7,0,0.7,0,1.3C466.1,631.1,462.8,641,457.5,648.9z M395.4,656.9
		c5.9-8.6,5.3-23.1,5.9-27.7c0.7-4.6,2-13.2,7.3-14.5c5.3-1.3,17.8,0.7,17.8,9.9c0,8.6-9.2,10.6-15.8,16.5
		C406,645.6,396.7,655.5,395.4,656.9z M658.9,530.7c6.6-33.7,7.3-62.7,5.3-86.5c25.8,34.3,41.6,75.9,46.2,118.8
		c0.7,5.3,5.9,10.6,11.2,15.8c4.6,4,9.9,9.2,9.9,12.5c0,15.2-1.3,30.4-4,45.6c-0.7,2-6.6,5.3-11.2,7.9c-6.6,3.3-12.5,6.6-13.9,11.9
		c-14.5,50.8-45.6,95.7-87.2,127.4C676.7,720.2,706.4,614.6,658.9,530.7z M617.3,790.2c42.9-33,75.9-79.2,90.5-131.4
		c0.7-2,6.6-5.3,10.6-7.9c6.6-3.3,13.2-7.3,14.5-12.5c2.6-15.2,4-31,4-46.9c0-5.9-5.9-11.9-11.9-17.8c-3.3-4-8.6-8.6-8.6-11.9
		c-5.3-48.2-24.4-93.8-54.1-131.4c-13.2-79.2-66-103.7-67.3-104.3c1.3,2,35.7,51.5,11.9,109.6c-24.4,58.8-87.2,49.5-92.4,50.2
		c-5.3,0-25.8,26.4-51.5,75.3c-3.3-1.3-17.2-4.6-33-2c11.9-33,29.7-79.9,33-83.9c1.3-1.3,11.2-4,17.8-5.9
		c12.5-3.3,18.5-5.3,20.5-7.9c1.3-2,7.9-17.2,14.5-33c5.9,0,21.1-1.3,22.4-2c1.3-1.3,13.9-33.7,13.9-37.6c0-3.3-25.8-67.3-35.7-91.8
		c4.6-5.3,9.2-11.9,13.9-19.1c135.4,14.5,241,129.4,241,268.7C771.1,653.6,708.4,746.7,617.3,790.2z"/>
	<path class="st3" d="M441.6,433.7c12.5-14.5,5.9-41.6-17.2-46.2c5.9-13.9,14.5-41.6,14.5-41.6s-67.3,105.6-73.3,107.6
		c-5.9,2-11.9-21.1-11.9-21.1c-12.5,48.2,21.1,54.8,25.1,39.6C397.4,467.4,429.1,447.6,441.6,433.7z"/>
	<path class="st4" d="M384.2,459.4l34.3-58.8c0,0,19.8,9.9,9.9,25.8C415.9,444.9,384.2,459.4,384.2,459.4z"/>
	<path class="st5" d="M808.7,731.5c-9.9,13.2-21.1,27.1-34.3,40.3c85.2-163.7,4-313.6,0.7-319.6c5.9,5.9,11.9,12.5,17.2,18.5
		C857.6,543.3,865.5,652.2,808.7,731.5z"/>
	<path class="st5" d="M888,520.8c-29.7-79.9-72-147.9-165.1-209.3c-89.8-59.4-186.2-54.8-191.5-54.1c-0.7,0-1.3,0-1.3,0
		c3.3-1.3,6.6-2,9.9-2.6c20.5-6.6,46.9-11.9,73.3-15.2c70-9.9,140.6,13.9,188.8,64.7c0.7,0.7,0.7,0.7,1.3,1.3
		C858.3,363.7,886.7,436.3,888,520.8z"/>
	<path class="st5" d="M701.8,194c-98.4-18.5-161.8-9.2-207.3,7.9c-1.3-5.3-5.9-15.8-9.9-24.4c-13.9,16.5-28.4,36.3-37.6,48.9
		c-25.1,17.2-35.7,33.7-35.7,33.7c14.5-49.5,56.8-86.5,108.3-95.7c14.5-2.6,30.4-4,47.5-4C612.6,161,658.2,172.2,701.8,194z"/>
	<path class="st5" d="M338,320.8c-77.3-2.6-51.5-92.4-50.2-97.7C287.8,223.7,293.1,293.7,338,320.8z"/>
	<path class="st5" d="M413.9,159c-59.4,35.7-47.5,120.8-47.5,120.8C309.6,193.3,409.3,161,413.9,159z"/>
	<path class="st1" d="M316.2,344.6c4,3.3,7.9,9.2,3.3,17.8c-2.6,4.6-6.6,4-12.5,1.3c-7.9-4-55.5-31.7-98.4-60.1
		c48.9,17.2,98.4,35.7,106.3,39.6C314.9,343.2,315.5,343.9,316.2,344.6z"/>
</g>
</svg>
