<?xml version="1.0" encoding="utf-8"?>
<!-- Generator: Adobe Illustrator 22.0.0, SVG Export Plug-In . SVG Version: 6.00 Build 0)  -->
<svg version="1.1" id="Layer_1" xmlns="http://www.w3.org/2000/svg" xmlns:xlink="http://www.w3.org/1999/xlink" x="0px" y="0px"
	 viewBox="0 0 500 500" style="enable-background:new 0 0 500 500;" xml:space="preserve">
<style type="text/css">
	.st0{fill:url(#SVGID_1_);}
	.st1{fill:#3CBD68;}
</style>
<title>decentraland</title>
<linearGradient id="SVGID_1_" gradientUnits="userSpaceOnUse" x1="974" y1="447.7" x2="474" y2="447.7" gradientTransform="matrix(0 -1 1 0 -197.7 974)">
	<stop  offset="0" style="stop-color:#FFFFFF"/>
	<stop  offset="1" style="stop-color:#FFFFFF"/>
</linearGradient>
<polygon class="st0" points="500,0 500,500 0,500 0,0 "/>
<g>
	<path class="st1" d="M248.7,423.8C152.8,423.6,74.9,344.9,75,248.5C75.1,153.3,154.1,76,250.9,76.2
		c96.8,0.3,174.4,78.1,174.1,174.6C424.7,346.2,345.5,423.9,248.7,423.8z M247.6,295.5c30.5,0.5,59.2-6.4,85.1-22.7
		c25.7-16.2,45.4-37,50.6-68.5c5.5-33-22.4-62.2-55.6-58.5c-18.6,2.1-32.7,12.2-45.5,24.9c-10,9.9-18.8,21.1-29.4,30.5
		c-14.9,13.1-30.9,23.2-51.6,24.2c-23,1.1-43.1-14.5-46.9-37.1c-3.9-23.9,6.3-42.1,24.8-55.5c36.3-26.4,77.3-31.2,120.5-24.1
		c9.8,1.6,19.3,4.4,28.5,8.3c1.7,0.7,4.1,1.4,5-1.1c0.7-2-0.9-3.2-2.6-4c-2.6-1.2-5.1-2.6-7.8-3.6c-29.6-12.2-60.5-16-92.1-12.2
		c-38.2,4.7-71.1,20.3-96.1,50.3c-13.4,16.1-21,34.8-19.3,56.1c2.6,32.1,19.9,55,46.8,71.1C188.4,289.5,217.3,295.4,247.6,295.5z"/>
</g>
</svg>
