<?xml version="1.0" encoding="utf-8"?>
<!-- Generator: Adobe Illustrator 22.0.0, SVG Export Plug-In . SVG Version: 6.00 Build 0)  -->
<svg version="1.1" id="Layer_1" xmlns="http://www.w3.org/2000/svg" xmlns:xlink="http://www.w3.org/1999/xlink" x="0px" y="0px"
	 viewBox="0 0 40 40" style="enable-background:new 0 0 40 40;" xml:space="preserve">
<style type="text/css">
	.st0{fill:url(#SVGID_1_);}
	.st1{fill:#FFFFFF;}
</style>
<linearGradient id="SVGID_1_" gradientUnits="userSpaceOnUse" x1="774.1473" y1="4139.2837" x2="799.9513" y2="4165.0879" gradientTransform="matrix(0 1 1 0 -4132.1787 -767.0419)">
	<stop  offset="1.198745e-03" style="stop-color:#28008C"/>
	<stop  offset="0.1094" style="stop-color:#1E2F9F"/>
	<stop  offset="0.2983" style="stop-color:#0E7BBD"/>
	<stop  offset="0.4332" style="stop-color:#04ACD0"/>
	<stop  offset="0.5" style="stop-color:#00BED7"/>
	<stop  offset="0.5603" style="stop-color:#0BBEC5"/>
	<stop  offset="0.6819" style="stop-color:#28BE94"/>
	<stop  offset="0.852" style="stop-color:#57BE48"/>
	<stop  offset="1" style="stop-color:#82BE00"/>
</linearGradient>
<path class="st0" d="M37,26.3V13.7c0-2.1-1.1-4.1-3-5.2L23,2.2c-1.9-1.1-4.1-1.1-6,0L6,8.5c-1.9,1.1-3,3.1-3,5.2v12.6
	c0,2.1,1.1,4.1,3,5.2l11,6.3c1.9,1.1,4.1,1.1,6,0l11-6.3C35.8,30.4,37,28.5,37,26.3z"/>
<path class="st1" d="M28.6,11.4c-0.5,0-0.9,0.3-1.1,0.7l-4.9,10.3l0,0l-1.3,2.7l0,0L20,27.8l-6.6-13.7h1.9c0.5,0,0.9,0.3,1.1,0.7
	l4.3,8.9L22,21l-3.5-7.2c-0.7-1.5-2.2-2.4-3.8-2.4H9.5l1.3,2.7h0l7.9,16.4h2.6l9.2-19.1H28.6z"/>
</svg>
