<svg id="Layer_1" data-name="Layer 1" xmlns="http://www.w3.org/2000/svg" xmlns:xlink="http://www.w3.org/1999/xlink" viewBox="0 0 40 40">
  <defs>
    <style>
      .cls-1 {
        fill: url(#linear-gradient);
      }

      .cls-2 {
        fill: #fff;
      }
    </style>
    <linearGradient id="linear-gradient" x1="-12.5831" y1="-1463.17847" x2="24.7086" y2="-1463.17847" gradientTransform="translate(-1443.17847 13.9581) rotate(90)" gradientUnits="userSpaceOnUse">
      <stop offset="0" stop-color="#41e6af"/>
      <stop offset="1" stop-color="#067a52"/>
    </linearGradient>
  </defs>
  <title>kcc</title>
  <path class="cls-1" d="M37,26.3V13.7a6.00113,6.00113,0,0,0-3-5.2L23,2.2a5.867,5.867,0,0,0-6,0L6,8.5a6.00113,6.00113,0,0,0-3,5.2V26.3a6.00113,6.00113,0,0,0,3,5.2l11,6.3a5.867,5.867,0,0,0,6,0l11-6.3A6.09187,6.09187,0,0,0,37,26.3Z"/>
  <path id="Layer" class="cls-2" d="M30.58513,18.50123l-.5949-.99646h0l-3.25709-5.47308h-.01487l-.10411-.19335h-1.1898L20.799,19.97361l4.69972,8.09065h1.1898l.02974-.04461L30.6,21.37163H28.20552l-2.06728,3.67351-2.94476-5.0864,2.88527-5.0864,2.097,3.614Z"/>
  <path id="Layer-2" data-name="Layer" class="cls-2" d="M12.48527,17.17758l2.17139-3.70326-.72876-1.17493h0l-.50566-.83286L9.70411,18.02531h0L9.6,18.20378l.5949,1.04108h9.35482l4.71459-8.07578-.6544-1.13031-6.5439.01487H16.9619l-1.04108-.01487.55028,1.04108h0l.55029,1.04107,4.28328-.01487-2.94476,5.07153Z"/>
  <path id="Layer-3" data-name="Layer" class="cls-2" d="M17.11062,12.89429a1.66522,1.66522,0,0,0-.52054.08924,2.73873,2.73873,0,0,0-.56515.25283,1.853,1.853,0,0,0-.9221,1.17493.56835.56835,0,0,0,.119.47592h0c.01488.02975.04462.04462.05949.07436.01488.01488.02975.01488.04462.02975l.02975.02974c.02974.01488.04461.02975.07436.04462h0a1.58527,1.58527,0,0,0,1.279-.10411l.01488-.01487c.04461-.01487.08923-.04462.13385-.05949a.52183.52183,0,0,0,.119-.07436l.13385-.08924c.04462-.02974.07437-.05949.119-.08923l.02975-.01487c.02974-.02975.05949-.04462.08923-.07437l.02975-.02974c.02974-.01487.04462-.04462.05949-.05949a.20552.20552,0,0,0,.04462-.05949c.01487-.02975.04461-.04462.05949-.07437l.02974-.02974c.01487-.02975.04462-.04462.05949-.07436l.02975-.02975c.01487-.02974.02974-.04462.04461-.07436V14.099l.01488-.02975a.373.373,0,0,0,.05949-.10411c.01487-.02974.02974-.07436.04461-.1041l.01488-.01488a.05192.05192,0,0,1,.01487-.02974h0c0-.01487,0-.01487.01487-.02975,0-.02974.01487-.04461.01487-.07436s.01488-.02974.01488-.04462v-.29745c0-.02974-.01488-.04461-.02975-.07436s-.02974-.04462-.04462-.07436h0A.744.744,0,0,0,17.11062,12.89429Z"/>
  <path id="Layer-4" data-name="Layer" class="cls-2" d="M18.19632,13.98c0,.02974-.01488.04461-.02975.07436h0c0,.01487,0,.01487-.01487.02974h0a.44522.44522,0,0,1-.05949.119h0a2.544,2.544,0,0,1-.7585.84774l-.13385.08923a.60319.60319,0,0,1-.13385.07437h-.01488c-.01487.01487-.02974.01487-.04461.02974-.02975.01487-.04462.02975-.07437.04462h-.01487c-.01487,0-.02975.01487-.04462.01487a.21141.21141,0,0,1-.08923.02975l-.02975.01487h-.01487c-.01487,0-.02975.01487-.04462.01487-.02974.01487-.05949.01487-.08923.02975l-.02975.01487h-.01487c-.02975.01487-.05949.01487-.08924.02974-.01487,0-.02974.01488-.05949.01488h-.01487a.64428.64428,0,0,0-.07436.01487.08943.08943,0,0,0-.05949.01487H16.248a.05464.05464,0,0,0-.04462.01487h-.04462c-.04462,0-.10411.01488-.14872.01488h-.19335a.18853.18853,0,0,1-.08923-.01488.05465.05465,0,0,1-.04462-.01487c-.02974,0-.05949-.01487-.08923-.01487-.01488,0-.02975-.01487-.04462-.01487l.818,1.32365,1.75495-.01487.90723-1.60623-.818-1.33853a.05466.05466,0,0,1-.01487.04462v.02974c0,.01487-.01488.02975-.01488.05949A.04605.04605,0,0,1,18.19632,13.98Z"/>
  <path id="Layer-5" data-name="Layer" class="cls-2" d="M27.52139,18.81356a1.47248,1.47248,0,0,1,.19334.49079,2.73725,2.73725,0,0,1,.07436.60977,1.82668,1.82668,0,0,1-.52053,1.398.59254.59254,0,0,1-.47593.14873h0c-.02974,0-.05949-.01488-.08923-.01488-.01487,0-.02975-.01487-.04462-.01487s-.02974-.01487-.04462-.01487a.32548.32548,0,0,1-.07436-.04462h0a1.57663,1.57663,0,0,1-.58-1.14518v-.01488c0-.04461-.01487-.08923-.01487-.14872V19.7654a.41178.41178,0,0,1,.01487-.13385V19.6018c0-.02974.01488-.07436.01488-.10411v-.04462c0-.02974.01487-.05949.01487-.08923s.01487-.04462.01487-.07436c.01487-.02975.01487-.05949.02975-.08924,0-.01487.01487-.02974.01487-.04462.01487-.02974.01487-.05949.02974-.08923l.01488-.04462c.01487-.02974.02974-.04462.02974-.07436v-.01487l.01487-.02975a.64756.64756,0,0,1,.05949-.10411c.01488-.02974.04462-.05949.05949-.08923l.01488-.01487.02974-.02975h0c.01487-.01487.01487-.01487.01487-.02974l.04462-.04462.02975-.02975.02974-.02974.04462-.04462.02974-.01487c.01488-.01487.04462-.02975.05949-.04462.01488,0,.01488,0,.02975-.01487a.05192.05192,0,0,0,.02974-.01487.01457.01457,0,0,0,.01488-.01488h.01487c.02974,0,.04462-.01487.07436-.01487h.08924A.79061.79061,0,0,1,27.52139,18.81356Z"/>
  <path id="Layer-6" data-name="Layer" class="cls-2" d="M26.01926,18.45662c-.01487.01487-.02974.04461-.04461.05949h0c0,.01487-.01488.01487-.01488.02974h0c-.02974.02975-.04461.07436-.07436.10411h0a2.3282,2.3282,0,0,0-.32719,1.08569v.3272h0v.05949a.18864.18864,0,0,0,.01487.08923v.05949c0,.02975.01487.05949.01487.08924v.04462a.05463.05463,0,0,0,.01487.04461c0,.02975.01487.05949.01487.08924l.01488.02974v.01488a.21139.21139,0,0,0,.02974.08923c0,.01487.01488.02975.01488.04462h0v.01487c.01487.02975.01487.04462.02974.07436,0,.01488.01487.02975.02975.05949v.01488c0,.01487.01487.02974.01487.04461a.04609.04609,0,0,1,.01487.02975.60269.60269,0,0,0,.07436.13385l.01488.01487A.62875.62875,0,0,0,25.93,21.208c0,.01487.01487.01487.01487.02975l.01487.01487c.01488.02975.04462.04462.05949.07436.01488.01488.01488.02975.02975.02975a.261.261,0,0,1,.05949.07436c.01487.01487.02974.01487.02974.02975H24.57663l-.90723-1.50213.89236-1.60623h1.56161l-.02974.02974-.01488.01488-.05949.05949Z"/>
  <path id="Layer-7" data-name="Layer" class="cls-2" d="M17.11062,27.00832a1.66522,1.66522,0,0,1-.52054-.08924,2.73873,2.73873,0,0,1-.56515-.25283,1.853,1.853,0,0,1-.9221-1.17493.56835.56835,0,0,1,.119-.47592h0c.01488-.02975.04462-.04462.05949-.07436.01488-.01488.02975-.01488.04462-.02975l.02975-.02975c.02974-.01487.04461-.02974.07436-.04461h0a1.58527,1.58527,0,0,1,1.279.10411l.01488.01487c.04461.01487.08923.04462.13385.05949a.52183.52183,0,0,1,.119.07436l.13385.08924c.04462.02974.07437.05949.119.08923l.02975.01487c.02974.02975.05949.04462.08923.07437l.02975.02974c.02974.01487.04462.04462.05949.05949a.20552.20552,0,0,1,.04462.05949c.01487.02975.04461.04462.05949.07436l.02974.02975c.01487.02974.04462.04462.05949.07436l.02975.02975c.01487.02974.02974.04461.04461.07436v.01487l.01488.02975a.37306.37306,0,0,1,.05949.1041c.01487.02975.02974.07437.04461.10411l.01488.01487a.05192.05192,0,0,0,.01487.02975h0c0,.01487,0,.01487.01487.02974,0,.02975.01487.04462.01487.07437s.01488.02974.01488.04461v.29745c0,.02975-.01488.04462-.02975.07437s-.02974.04462-.04462.07436h0A.71718.71718,0,0,1,17.11062,27.00832Z"/>
  <path id="Layer-8" data-name="Layer" class="cls-2" d="M18.19632,25.92262c0-.02974-.01488-.04462-.02975-.07436h0c0-.01487,0-.01487-.01487-.02975h0a.44551.44551,0,0,0-.05949-.119h0a2.544,2.544,0,0,0-.7585-.84773l-.13385-.08923a.60319.60319,0,0,0-.13385-.07437h-.01488c-.01487-.01487-.02974-.01487-.04461-.02974-.02975-.01488-.04462-.02975-.07437-.04462h-.01487c-.01487,0-.02975-.01487-.04462-.01487a.21127.21127,0,0,0-.08923-.02975l-.02975-.01487h-.01487c-.01487,0-.02975-.01487-.04462-.01487-.02974-.01488-.05949-.01488-.08923-.02975l-.02975-.01487h-.01487c-.02975-.01487-.05949-.01487-.08924-.02974-.01487,0-.02974-.01488-.05949-.01488h-.01487a.64428.64428,0,0,1-.07436-.01487.08943.08943,0,0,1-.05949-.01487H16.248a.05461.05461,0,0,1-.04462-.01488h-.04462c-.04462,0-.10411-.01487-.14872-.01487h-.19335a.18864.18864,0,0,0-.08923.01487.05462.05462,0,0,0-.04462.01488c-.02974,0-.05949.01487-.08923.01487-.01488,0-.02975.01487-.04462.01487l.818-1.32365,1.75495.01487.90723,1.60623-.818,1.33853a.05465.05465,0,0,0-.01487-.04462v-.02974c0-.01488-.01488-.02975-.01488-.05949A.04607.04607,0,0,0,18.19632,25.92262Z"/>
  <path id="Layer-9" data-name="Layer" class="cls-2" d="M21.30467,27.79656l-4.28328-.01487L16.367,29.01611l-.44618.84773L17.066,29.849v.01487l6.5439.01487.6544-1.13031-4.71459-8.07578-9.35482-.01487L9.6,21.69883l.119.19334H9.70411l3.71813,6.54391,1.23442-2.00779L12.48527,22.7399h5.87464Z"/>
</svg>
