<?xml version="1.0" encoding="utf-8"?>
<!-- Generator: Adobe Illustrator 22.0.0, SVG Export Plug-In . SVG Version: 6.00 Build 0)  -->
<svg version="1.1" id="Layer_1" xmlns="http://www.w3.org/2000/svg" xmlns:xlink="http://www.w3.org/1999/xlink" x="0px" y="0px"
	 viewBox="0 0 500 500" style="enable-background:new 0 0 500 500;" xml:space="preserve">
<style type="text/css">
	.st0{fill:url(#SVGID_1_);}
	.st1{fill:#31CB9E;}
</style>
<title>decentraland</title>
<linearGradient id="SVGID_1_" gradientUnits="userSpaceOnUse" x1="1339" y1="82.7" x2="839" y2="82.7" gradientTransform="matrix(0 -1 1 0 167.3 1339)">
	<stop  offset="0" style="stop-color:#238166"/>
	<stop  offset="1" style="stop-color:#1C1C1C"/>
</linearGradient>
<polygon class="st0" points="500,0 500,500 0,500 0,0 "/>
<g>
	<path class="st1" d="M231.1,249.9l136.7,78.8c1.1,0.6,2.3,0.9,3.6,0.9s2.5-0.3,3.6-1c1.1-0.6,2-1.5,2.6-2.6c0.6-1.1,1-2.3,1-3.6
		l0-145.1c0-1.3-0.4-2.5-1-3.6c-0.6-1.1-1.5-2-2.6-2.6c-1.1-0.6-2.3-1-3.6-1c-1.3,0-2.5,0.3-3.6,1L231.1,249.9z"/>
	<path class="st1" d="M359.9,137.2l-90.7-69.7c-1-0.7-2.1-1.2-3.3-1.4s-2.4-0.1-3.6,0.4c-1.1,0.4-2.2,1.1-3,2
		c-0.8,0.9-1.4,2-1.6,3.2l-33.2,155.3l134.6-77.7c1-0.6,1.9-1.4,2.6-2.4c0.6-1,1-2.2,1.1-3.4c0.1-1.2-0.2-2.4-0.7-3.5
		C361.6,138.8,360.8,137.9,359.9,137.2z"/>
	<path class="st1" d="M269.1,432.5l91-69.8c0.9-0.7,1.7-1.7,2.2-2.8c0.5-1.1,0.7-2.3,0.6-3.5c-0.1-1.2-0.4-2.3-1.1-3.4
		c-0.6-1-1.5-1.9-2.5-2.5L224.5,273l33.2,155.3c0.2,1.2,0.8,2.3,1.6,3.2c0.8,0.9,1.8,1.6,2.9,2c1.1,0.4,2.4,0.5,3.6,0.4
		C267,433.7,268.1,433.2,269.1,432.5z"/>
	<path class="st1" d="M196.1,249.9l35.8-167.3c0.3-1.4,0.2-3-0.4-4.3c-0.6-1.4-1.6-2.5-2.8-3.3c-1.3-0.8-2.7-1.2-4.2-1.1
		c-1.5,0.1-2.9,0.6-4,1.5l-91.6,70.3c-2.3,1.8-4.2,4.1-5.5,6.7c-1.3,2.6-2,5.5-2,8.5l0,178.1c0,2.9,0.7,5.8,2,8.5
		c1.3,2.6,3.2,4.9,5.5,6.7l91.6,70.3c1.2,0.9,2.6,1.4,4,1.4c1.5,0.1,2.9-0.3,4.1-1.1c1.2-0.8,2.2-1.9,2.8-3.3
		c0.6-1.3,0.8-2.8,0.5-4.3L196.1,249.9z"/>
</g>
</svg>
