<?xml version="1.0" encoding="utf-8"?>
<!-- Generator: Adobe Illustrator 22.0.0, SVG Export Plug-In . SVG Version: 6.00 Build 0)  -->
<svg version="1.1" id="Layer_1" xmlns="http://www.w3.org/2000/svg" xmlns:xlink="http://www.w3.org/1999/xlink" x="0px" y="0px"
	 viewBox="0 0 40 40" style="enable-background:new 0 0 40 40;" xml:space="preserve">
<style type="text/css">
	.st0{fill:url(#SVGID_1_);}
	.st1{fill:#FFFFFF;}
</style>
<linearGradient id="SVGID_1_" gradientUnits="userSpaceOnUse" x1="-92.5831" y1="681.1784" x2="-55.2914" y2="681.1784" gradientTransform="matrix(0 1 1 0 -661.1784 93.9581)">
	<stop  offset="0" style="stop-color:#00A5BD"/>
	<stop  offset="1" style="stop-color:#005E78"/>
</linearGradient>
<path class="st0" d="M37,26.3V13.7c0-2.1-1.1-4.1-3-5.2L23,2.2c-1.9-1.1-4.1-1.1-6,0L6,8.5c-1.9,1.1-3,3.1-3,5.2v12.6
	c0,2.1,1.1,4.1,3,5.2l11,6.3c1.9,1.1,4.1,1.1,6,0l11-6.3C35.8,30.4,37,28.5,37,26.3z"/>
<path class="st1" d="M29.5,24.5c0.4-0.9,0.7-1.9,0.9-2.9c0.1-0.5,0.1-1,0.1-1.5c0-1.2-0.2-2.4-0.6-3.5c-0.5-1.3-1.2-2.5-2.1-3.6
	c0,0-0.1-0.1-0.1-0.1c0,0,0,0,0,0c-0.9-0.9-2-1.7-3.2-2.3c-1-0.5-2.1-0.8-3.2-0.9c-0.4,0-0.8-0.1-1.2-0.1c-1.2,0-2.4,0.2-3.5,0.6
	c-1.2,0.4-2.3,1.1-3.3,1.9c-1.2,1-2.1,2.3-2.8,3.7c-0.4,0.9-0.7,1.8-0.8,2.7c-0.1,0.5-0.1,1.1-0.1,1.6c0,1.3,0.3,2.6,0.7,3.8
	c0,0,0,0,0,0c0,0.1,0.1,0.2,0.1,0.3c0.2,0.4,0.3,0.7,0.5,1.1c0,0,0,0,0,0.1c0,0.1,0.1,0.1,0.1,0.2c1.8,3.1,5.2,5.1,9,5.1
	c2.2,0,4.2-0.7,5.9-1.8c0,0,0,0,0,0C27.4,27.6,28.7,26.2,29.5,24.5z M10.2,20c0-5.4,4.4-9.8,9.8-9.8c1.5,0,3,0.4,4.3,1
	c-0.3,0-0.6-0.1-0.8,0c-0.8,0.2-1.3,0.9-1.4,1.6c0,0,0,0.1,0.1,0.1c0.1,0,0.1,0,0.1-0.1c0.1-0.3,0.3-0.6,0.6-0.7
	c0.4-0.3,0.9-0.3,1.3-0.1c0.4,0.2,0.7,0.6,0.7,1.1c0,0.7-0.3,1.3-0.7,1.8c-0.4,0.6-0.9,1.1-1.4,1.6c-0.1,0.1-0.1,0.1-0.2,0
	c-1.5-0.8-3-0.9-4.5-0.3c-1.4,0.6-2.3,1.7-2.5,3.2c-0.2,1.7,0.6,3.1,1.9,3.8c0,0,0.1,0,0.1,0.1c-0.1,0.1-0.2,0.2-0.3,0.3
	c-0.4,0.4-0.8,0.7-1.1,1.2c-0.2,0.3-0.4,0.6-0.4,0.9c-0.1,0.4,0,0.7,0.3,1c0.2,0.2,0.5,0.4,0.7,0.5c0.1,0,0.1,0.1,0,0.2
	c-0.4,0.4-0.8,0.8-1.1,1.2C12.4,27.1,10.2,23.8,10.2,20z M22.2,20.4c0,0.6-0.1,1.2-0.3,1.7c-0.6,1.3-2.3,1.6-3.3,0.5
	c-0.5-0.5-0.7-1.1-0.8-1.8c-0.2-0.9-0.2-1.7,0-2.6c0.2-0.7,0.6-1.3,1.3-1.6c0.8-0.3,1.6,0,2.1,0.6c0.5,0.6,0.8,1.3,0.9,2.1
	C22.2,19.7,22.2,20,22.2,20.4z M20,29.8c-1.3,0-2.5-0.2-3.6-0.7c0.1-0.3,0.3-0.6,0.5-0.9c0.1-0.2,0.3-0.4,0.4-0.5
	c0.1-0.1,0.1-0.1,0.2-0.1c1.5,0.2,3,0.2,4.5,0.3c0.6,0,1.3,0.1,1.9,0.2c0.3,0.1,0.6,0.2,0.7,0.5C23.3,29.3,21.7,29.8,20,29.8z
	 M23.3,26c-0.8-0.1-1.7-0.1-2.6-0.2c-0.8,0-1.5,0-2.3-0.1c-0.2,0-0.5-0.1-0.7-0.2c-0.3-0.1-0.5-0.4-0.4-0.8c0.1-0.5,0.5-0.8,0.8-1.1
	c0.1-0.1,0.1,0,0.2,0c1.1,0.3,2.1,0.3,3.2,0c1.4-0.4,2.4-1.4,2.7-2.9c0.2-0.9,0.1-1.8-0.4-2.7c0,0-0.1-0.1,0-0.1c0.5,0,1,0,1.5,0
	c0.1,0,0.2,0,0.2-0.2c0.1-0.4,0.3-0.9,0.4-1.3c0,0,0.1-0.1,0-0.2c-0.1,0-0.1,0-0.2,0.1c-0.2,0.3-0.5,0.4-0.9,0.4c-0.7,0-1.3,0-2,0
	c0.2-0.3,0.5-0.5,0.7-0.7c0.4-0.5,0.9-1,1.3-1.5c0.3-0.4,0.5-0.8,0.6-1.2c0.2-0.7,0.1-1.2-0.4-1.8c0,0,0,0,0,0c0,0,0,0,0,0
	c2.8,1.7,4.6,4.8,4.6,8.3c0,3.3-1.6,6.1-4.1,7.9C25.3,26.7,24.5,26.2,23.3,26z"/>
</svg>
