<svg id="5fa332f7-5f32-41d2-8806-15f12966219c" data-name="Layer 1" xmlns="http://www.w3.org/2000/svg" xmlns:xlink="http://www.w3.org/1999/xlink" viewBox="0 0 40 40">
  <defs>
    <linearGradient id="dfc95ca1-8694-43af-add7-671f9c5e6c02" x1="20" y1="-1.37499" x2="20" y2="-38.62501" gradientTransform="translate(0 40)" gradientUnits="userSpaceOnUse">
      <stop offset="0"/>
      <stop offset="1" stop-color="#292a48"/>
    </linearGradient>
    <linearGradient id="192945bb-d0bd-4924-9e2e-d94ff95af85a" x1="12.33428" y1="11.12908" x2="27.47176" y2="28.64547" gradientTransform="matrix(1, 0, 0, -1, 0, 40)" gradientUnits="userSpaceOnUse">
      <stop offset="0.08" stop-color="#9945ff"/>
      <stop offset="0.3" stop-color="#8752f3"/>
      <stop offset="0.5" stop-color="#5497d5"/>
      <stop offset="0.6" stop-color="#43b4ca"/>
      <stop offset="0.72" stop-color="#28e0b9"/>
      <stop offset="0.97" stop-color="#19fb9b"/>
    </linearGradient>
  </defs>
  <title>solana</title>
  <path d="M37,26.3V13.7a6.00112,6.00112,0,0,0-3-5.2L23,2.2a5.867,5.867,0,0,0-6,0L6,8.5a6.00112,6.00112,0,0,0-3,5.2V26.3a6.00113,6.00113,0,0,0,3,5.2l11,6.3a5.867,5.867,0,0,0,6,0l11-6.3A6.09188,6.09188,0,0,0,37,26.3Z" style="fill: url(#dfc95ca1-8694-43af-add7-671f9c5e6c02)"/>
  <path d="M29.40216,24.77477l-3.13654,3.277a.72837.72837,0,0,1-.24235.16673.74462.74462,0,0,1-.29049.05873H10.86413a.3712.3712,0,0,1-.19968-.05809.35734.35734,0,0,1-.13427-.15525.34634.34634,0,0,1-.02491-.20155.35139.35139,0,0,1,.09263-.18186l3.13889-3.277a.72841.72841,0,0,1,.2416-.16641.74483.74483,0,0,1,.28965-.059H29.13586a.37152.37152,0,0,1,.19971.05809.35877.35877,0,0,1,.13432.15526.34679.34679,0,0,1,.02483.20155A.35166.35166,0,0,1,29.40216,24.77477Zm-3.13654-6.59892a.72852.72852,0,0,0-.24235-.16673.745.745,0,0,0-.29049-.05871H10.86413a.371.371,0,0,0-.19968.05809.35737.35737,0,0,0-.13427.15524.34638.34638,0,0,0-.02491.20156.35154.35154,0,0,0,.09263.18186l3.13889,3.277a.7287.7287,0,0,0,.2416.16641.74481.74481,0,0,0,.28965.059H29.13586a.37126.37126,0,0,0,.19971-.05809.35872.35872,0,0,0,.13432-.15524.34686.34686,0,0,0,.02483-.20157.35181.35181,0,0,0-.09256-.18185ZM10.86413,15.822H25.73278a.745.745,0,0,0,.29049-.05873.72852.72852,0,0,0,.24235-.16673l3.13654-3.277a.35169.35169,0,0,0,.09256-.18186.3468.3468,0,0,0-.02483-.20155.35863.35863,0,0,0-.13432-.15525.37134.37134,0,0,0-.19971-.05809H14.268a.74482.74482,0,0,0-.28965.059.72844.72844,0,0,0-.2416.16642l-3.13808,3.277a.35133.35133,0,0,0-.09259.18165.34645.34645,0,0,0,.0247.2014.35721.35721,0,0,0,.13394.15527A.3712.3712,0,0,0,10.86413,15.822Z" style="fill: url(#192945bb-d0bd-4924-9e2e-d94ff95af85a)"/>
</svg>
