<svg id="Layer_1" data-name="Layer 1" xmlns="http://www.w3.org/2000/svg" xmlns:xlink="http://www.w3.org/1999/xlink" viewBox="0 0 40 40"><defs><style>.cls-1{fill:none;}.cls-2{fill:url(#linear-gradient);}.cls-3{fill:#fff;}.cls-4{fill:#0e0f23;}.cls-5{clip-path:url(#clip-path);}.cls-6{fill:url(#linear-gradient-2);}</style><linearGradient id="linear-gradient" x1="1067.22" y1="-3085.18" x2="1104.51" y2="-3085.18" gradientTransform="translate(-3065.18 -1066.04) rotate(90)" gradientUnits="userSpaceOnUse"><stop offset="0" stop-color="#2ab8f4"/><stop offset="1" stop-color="#f653a1"/></linearGradient><clipPath id="clip-path"><path class="cls-1" d="M14.27,11.73a3.33,3.33,0,0,1,3.11-1,15.41,15.41,0,0,1,7.12,3,15.28,15.28,0,0,1,5.13,5.77,3.28,3.28,0,0,1,0,3.28l-3.93,5.5a3.31,3.31,0,0,1-3.11,1,15.4,15.4,0,0,1-7.12-3,15.28,15.28,0,0,1-5.14-5.75,3.32,3.32,0,0,1,0-3.29l3.94-5.5ZM29.11,22.37h0A2.69,2.69,0,0,0,29,19.74a14.78,14.78,0,0,0-4.92-5.48,14.63,14.63,0,0,0-6.77-2.89,2.7,2.7,0,0,0-2.51.75l0,0a2.7,2.7,0,0,0,.11,2.58,14.73,14.73,0,0,0,4.92,5.49,14.58,14.58,0,0,0,6.77,2.89,2.75,2.75,0,0,0,2.48-.71l0-.05ZM23,15.82a7.29,7.29,0,0,1,2.46,2.75,1.2,1.2,0,0,1,.06,1.21,1.24,1.24,0,0,1-1.16.34A7.46,7.46,0,0,1,21,18.67a7.24,7.24,0,0,1-2.47-2.75,1.25,1.25,0,0,1-.06-1.21,1.29,1.29,0,0,1,1.18-.34A7.32,7.32,0,0,1,23,15.82Z"/></clipPath><linearGradient id="linear-gradient-2" x1="-283.87" y1="417.11" x2="-283.83" y2="417.11" gradientTransform="matrix(62.01, 312.2, 312.2, -62.01, -112594.12, 114500.36)" gradientUnits="userSpaceOnUse"><stop offset="0" stop-color="#27b0e6"/><stop offset="0.52" stop-color="#c26bb3"/><stop offset="1" stop-color="#fa52a0"/></linearGradient></defs><title>sushiswap</title><path class="cls-2" d="M37,26.1V13.5a6,6,0,0,0-3-5.2L23,2a5.87,5.87,0,0,0-6,0L6,8.3a6,6,0,0,0-3,5.2V26.1a6,6,0,0,0,3,5.2l11,6.3a5.87,5.87,0,0,0,6,0l11-6.3A6.09,6.09,0,0,0,37,26.1Z"/><path class="cls-1" d="M9,9H31V31H9Z"/><path class="cls-3" d="M29.92,22.94,26,28.44a3.59,3.59,0,0,1-3.39,1.17,15.66,15.66,0,0,1-7.27-3.08,15.79,15.79,0,0,1-5.25-5.89,3.6,3.6,0,0,1,0-3.58L14,11.56a3.63,3.63,0,0,1,3.4-1.17,15.66,15.66,0,0,1,7.27,3.08,15.66,15.66,0,0,1,5.24,5.89,3.61,3.61,0,0,1,0,3.58ZM15.08,12.31a2.41,2.41,0,0,1,2.23-.63,14.36,14.36,0,0,1,6.62,2.84,14.51,14.51,0,0,1,4.82,5.35,2.45,2.45,0,0,1,.12,2.32l.53.38-.53-.38-3.95,5.5a2.38,2.38,0,0,1-2.22.63,14.39,14.39,0,0,1-6.63-2.84,14.47,14.47,0,0,1-4.81-5.35,2.42,2.42,0,0,1-.12-2.32l3.94-5.5Z"/><path class="cls-3" d="M14.56,12.07c1.29-1.8,5.65-.88,9.75,2.06s6.37,6.77,5.08,8.57l-3.93,5.5c-1.29,1.8-5.66.87-9.76-2.06s-6.37-6.77-5.09-8.57l4-5.5Z"/><path class="cls-4" d="M14.27,11.73a3.33,3.33,0,0,1,3.11-1,15.41,15.41,0,0,1,7.12,3,15.28,15.28,0,0,1,5.13,5.77,3.28,3.28,0,0,1,0,3.28l-3.93,5.5a3.31,3.31,0,0,1-3.11,1,15.4,15.4,0,0,1-7.12-3,15.28,15.28,0,0,1-5.14-5.75,3.32,3.32,0,0,1,0-3.29l3.94-5.5ZM29.11,22.37h0A2.69,2.69,0,0,0,29,19.74a14.78,14.78,0,0,0-4.92-5.48,14.63,14.63,0,0,0-6.77-2.89,2.7,2.7,0,0,0-2.51.75l0,0a2.7,2.7,0,0,0,.11,2.58,14.73,14.73,0,0,0,4.92,5.49,14.58,14.58,0,0,0,6.77,2.89,2.75,2.75,0,0,0,2.48-.71l0-.05ZM23,15.82a7.29,7.29,0,0,1,2.46,2.75,1.2,1.2,0,0,1,.06,1.21,1.24,1.24,0,0,1-1.16.34A7.46,7.46,0,0,1,21,18.67a7.24,7.24,0,0,1-2.47-2.75,1.25,1.25,0,0,1-.06-1.21,1.29,1.29,0,0,1,1.18-.34A7.32,7.32,0,0,1,23,15.82Z"/><g class="cls-5"><path class="cls-6" d="M9.07,22.55c.11,0,.28.25.37.32a10.89,10.89,0,0,0,1,.7,4.22,4.22,0,0,0,3.07.73c1.62-.36,3.09-3.2,4.73-2.81.91.2,1.56,1.49,2.37,2.38A2.52,2.52,0,0,0,23.08,25c2.53-.49,3.48-5.48,6.05-5.2,2.13.22,1.3,2.78,3.34,3.69,0,0,4.94-4.31,5-5.05.14-2.88-2.59-36.76-2.46-36.76l-24.36,9-1.56,32Z"/></g><path class="cls-3" d="M25.65,23.88a6.53,6.53,0,0,0,2,.06.16.16,0,0,0,.13-.17.16.16,0,0,0-.16-.12,5.48,5.48,0,0,1-1.92-.06.16.16,0,0,0-.17.13.15.15,0,0,0,.12.16Zm-1.13-.25a5.25,5.25,0,0,0,.57.13.12.12,0,0,0,.16-.1.14.14,0,0,0-.11-.17l-.54-.14a.14.14,0,0,0-.18.1.16.16,0,0,0,.1.18Zm-10.66-9c.53,2.19,2.63,4.23,4.32,5.68a.14.14,0,1,0,.18-.21c-1.64-1.42-3.7-3.41-4.22-5.54a.15.15,0,0,0-.18-.1.14.14,0,0,0-.1.17Zm-.13-.88c0,.1,0,.2,0,.3a.15.15,0,0,0,.16.12A.14.14,0,0,0,14,14c0-.1,0-.19,0-.28a.14.14,0,0,0-.15-.14.15.15,0,0,0-.14.15Z"/></svg>