<?xml version="1.0" encoding="utf-8"?>
<!-- Generator: Adobe Illustrator 22.0.0, SVG Export Plug-In . SVG Version: 6.00 Build 0)  -->
<svg version="1.1" id="Layer_1" xmlns="http://www.w3.org/2000/svg" xmlns:xlink="http://www.w3.org/1999/xlink" x="0px" y="0px"
	 viewBox="0 0 500 500" style="enable-background:new 0 0 500 500;" xml:space="preserve">
<style type="text/css">
	.st0{fill:url(#SVGID_1_);}
	.st1{fill:#E85C50;}
	.st2{fill:#CF3339;}
	.st3{fill:#E33936;}
	.st4{fill:#E34C37;}
	.st5{fill:#E9654C;}
	.st6{fill:#E7563D;}
	.st7{fill:#E33937;}
	.st8{fill:#E75840;}
	.st9{fill:#E04437;}
	.st10{fill:#E24837;}
</style>
<title>decentraland</title>
<linearGradient id="SVGID_1_" gradientUnits="userSpaceOnUse" x1="1139" y1="509.3" x2="639" y2="509.3" gradientTransform="matrix(0 -1 -1 0 759.3 1139)">
	<stop  offset="0" style="stop-color:#78232A"/>
	<stop  offset="1" style="stop-color:#101A1A"/>
</linearGradient>
<polygon class="st0" points="500,0 500,500 0,500 0,0 "/>
<g>
	<rect x="194.8" y="296.3" class="st1" width="140.4" height="108.4"/>
	<rect x="305.3" y="95.2" class="st1" width="106.7" height="98.8"/>
	<path id="Path_65" class="st1" d="M195.6,95.3c0.4,0,0.4,0.4,0.4,0.8v198.7c0.3,0.3,0.7,0.4,1.2,0.4h105.5c1.2,0,1.5-0.4,1.5-1.5
		v-196c0-0.8-0.4-1.5,0.4-1.9c0.2-0.2,0.5-0.2,0.8,0c0,0,0,0,0,0l0,0c0.4,0.4,0.4,0.8,0.8,1.2c3.8,8.1,8.1,15.7,11.9,23.8
		c3.5,6.5,6.5,13.4,10,20c3.8,7.3,7.3,14.6,11.1,21.9c3.5,6.5,6.5,13,10,20c3.1,6.1,6.1,11.9,8.8,17.6c0.6,0.8,1.1,1.7,1.5,2.7
		v195.1c0,1.9,0,1.9,1.9,2.3c0.4,0,0.4,0,0.8,0.4c-1.4,0.7-3,1.1-4.6,1.2c-6.5,1.6-13.2,2.6-20,3.1c-3.1,0.3-6.1,0.4-9.2,0.4
		c-16.1,0.4-32.2,0-48,0h-85.2l0.4-0.4c1-0.3,2-0.4,3.1-0.4h104.7c0.8-0.4,0.4-1.2,0.4-1.5V297.5c-1.2,2.7-2.3,5-3.5,7.7
		c-4.6,9.2-8.8,18.8-13.4,28c-2.3,5-5,10.4-7.3,15.3c-0.3,0.8-0.8,1.5-1.5,1.9c-0.7,0.3-1.5,0.4-2.3,0.4h-54.1
		c-1.2-0.4-1.5-1.2-1.9-2.3l-9.2-19.7l-10-21.1c-1.5-3.5-3.1-6.5-5-10.4v104.4c0.3,1,0.1,2.1-0.4,3.1h-31.5
		c-0.4,0.1-0.8-0.1-1.2-0.4c0.4-0.4,0.8,0,1.2,0h0.4c-0.4,0-1.2-0.4-1.5,0.4c-2.4,0.1-4.9-0.1-7.3-0.4c-4.6-0.4-9.6-1.5-14.2-2.3
		c-0.2,0-0.4-0.2-0.4-0.4c0.5-1.2,0.6-2.5,0.4-3.8V203.1l1.2-3.5c3.5-6.5,6.5-13,10-20c12.3-24.6,24.6-49.1,36.8-74l4.6-9.2
		c0.4-0.4,0.4-1.5,1.5-0.8v1.5C195,96.6,195.1,95.8,195.6,95.3z"/>
	<path id="Path_66" class="st2" d="M141.5,202.7v198.4c0,0.8-0.4,0.8-1.2,0.8c-8-1.5-15.8-4.2-23-8.1c-4-2-7.8-4.3-11.5-6.9
		c-9.6-7.2-16-18-17.6-29.9v-1.3c0-0.4-0.4-1.2,0-1.9V96.8c0.8,0,0.8,0.8,1.2,1.2c3.5,6.1,6.5,11.9,9.6,18
		c3.5,7.3,7.3,14.2,10.7,21.5c3.5,6.5,6.9,13.4,10,20c1.9,4.2,4.2,8.4,6.1,12.7l5.8,11.5l6.9,13.8c1.1,1.9,2,4,2.7,6.1
		C141.9,201.6,141.9,202,141.5,202.7z"/>
	<path id="Path_67" class="st2" d="M362.1,400.7c-0.8-0.1-1.6,0.1-2.3,0.4c-0.8,0-1.2,0-1.2-0.8V202c-0.3-0.8-0.1-1.6,0.4-2.3
		c5.4-10.4,10.7-20.7,15.7-31.1c0-0.4,0.4-0.4,0.4-0.8v-0.4c0-0.2,0.2-0.4,0.4-0.4v-0.4c0.3-0.3,0.4-0.7,0.4-1.2
		c0-0.2,0.2-0.4,0.4-0.4c2.7-5.4,5.4-10.4,8.1-15.7c1.5-2.7,2.7-5.4,4.2-8.4c1.2-2.3,2.7-5,3.8-7.3c0-0.2,0.2-0.4,0.4-0.4
		c4.2-8.1,8.1-16.1,11.9-23.8c1.9-3.5,3.8-6.9,5.4-10c0.4-0.8,0.8-1.5,1.5-1.5c0.4,0.6,0.4,1.3,0,1.9v254.4c0,2.2-0.4,4.4-1.2,6.5
		c-1.9,6.7-5.5,12.7-10.4,17.6c-3.5,4.1-7.5,7.7-11.9,10.7c-5.6,3.7-11.7,6.8-18,9.2L362.1,400.7z"/>
	<path id="Path_68" class="st3" d="M141.5,202.7c-0.1-0.6-0.4-1.1-0.8-1.5l-4.6-9.2c-1.5-3.1-3.1-5.8-4.6-9.2
		c-1.2-2.7-3.1-5.4-4.2-8.4s-3.5-6.7-4.6-10.5c-0.6-1.5-1.4-2.9-2.3-4.2c-1.2-1.9-1.9-4.2-3.1-6.5c-2.3-4-4.3-8.1-6.1-12.3
		c-1.5-2.7-2.7-5.4-4.2-8.1c-1.5-2.7-3.1-5.4-4.2-8.4s-3.8-6.9-5.4-10.7c-0.8-1.5-1.9-3.1-2.7-5c-1.9-3.8-3.8-7.7-6.1-11.5v258.6
		c-0.3-1.8-0.4-3.6-0.4-5.4V94.8c0.8,0,1.2,0,1.5,0.4h104.7c1.2,0,0.8,0.8,0.4,1.2l-21.1,41.8c-4.2,8.8-8.8,17.3-13,26.1
		c-1.5,3.1-3.1,6.5-4.6,9.6l-13.4,26.5L141.5,202.7z"/>
	<path id="Path_69" class="st3" d="M375.5,168.2c0,0.4-0.4,0.8-0.4,1.2c-3.5,6.9-6.9,14.2-10.7,21.1c-1.9,3.5-3.5,6.5-5,10
		c-0.4,0.4-0.4,0.8-0.8,1.5c-0.8,0-0.8-0.4-1.2-0.8c-0.8-1.5-1.2-2.7-1.9-4.2c-0.8-1.5-1.9-3.5-2.7-5l-4.6-9.2
		c-1.5-3.1-3.5-6.1-5-9.6c-1.5-3.5-3.5-6.9-5-10.4c-0.9-2-1.9-3.9-3.1-5.8l-4.6-9.2c-1.5-3.5-3.5-6.9-5-10.4c-0.9-2-1.9-3.9-3.1-5.8
		c-1.5-3.8-3.8-7.3-5.4-10.7c-0.9-2-1.9-3.9-3.1-5.8l-9.2-18.4c-0.4-0.4-0.4-1.2-0.8-1.5h107c0,0.4,0.4,0.8,0,1.2
		c-1.4,1.9-2.5,3.9-3.5,6c-5.4,10.4-10.4,20.7-15.7,31.1l0,0c-1.4,2.3-2.7,4.8-3.8,7.3c-1.5,2.7-2.7,5.4-4.2,8.4l-8.1,16.3l0,0
		c-0.4,0.4-0.4,0.8-0.8,1.2l0,0c-0.4,0,0,0.4-0.4,0.8l0,0C375.5,167.7,375.5,168.2,375.5,168.2z"/>
	<path id="Path_70" class="st4" d="M392.8,134.1c1.1-2.8,2.4-5.4,3.8-8.1c0.4-0.8,0.8-1.9,1.2-2.7c1.9-3.8,3.8-7.7,5.8-11.1
		c1.9-3.5,3.1-5.9,4.6-8.8c1.2-1.9,1.9-3.8,3.1-5.8c0.4-0.4,0.4-0.8,0.8-0.4v253.2c0.1,1.4,0,2.8-0.4,4.2V98.4
		c-0.4,0-0.4,0.4-0.8,0.8c-0.4,1.1-0.9,2.1-1.5,3.1c-5.4,10-10.4,20.3-15.3,30.7C393.6,132.9,393.6,133.7,392.8,134.1z"/>
	<path id="Path_71" class="st5" d="M304.9,95.3c-0.8,0-1.2,0.8-1.2,1.5l0,0v196c0,2.7,0.4,2.3-2.3,2.3H197.9c-0.8,0-1.5,0.4-1.9-0.4
		c0.6,0.3,1.3,0.5,1.9,0.4H303c0.6,0.1,1.1-0.3,1.2-0.9c0-0.1,0-0.2,0-0.2V96.5C303.8,95.3,304.2,94.9,304.9,95.3z"/>
	<path id="Path_72" class="st6" d="M194.8,96.5c0-0.4,0.4-1.2-0.4-1.2H88.2c0.4-0.4,1-0.6,1.5-0.5h103.6c0.8,0,1.5-0.4,1.9,0.4
		v199.1c-0.2-0.2-0.4-0.5-0.4-0.8V98.4C195.2,97.8,195.2,97,194.8,96.5z"/>
	<path id="Path_74" class="st2" d="M304.2,405.3H195.6c-0.1-0.7,0.1-1.3,0.4-1.9c2.7-5.8,5.4-11.5,8.4-17.3
		c5.4-11.5,10.7-23,16.5-34.5c0-0.4,0.4-0.8,0.8-1.2h57.2c1.5,2.3,2.3,5,3.8,7.3c2.3,5,4.6,9.6,6.9,14.2c5,10.4,9.6,20.3,14.6,30.7
		V405.3z"/>
	<path id="Path_75" class="st7" d="M221.3,350.1c-0.4,0.8-0.4,1.9-1.2,2.7c-2.7,5.4-5.4,11.1-8.1,16.5c-1.9,3.8-3.5,7.7-5.4,11.1
		c-1.9,4.2-4.2,8.8-6.1,13c-1.5,3.1-3.1,6.5-4.6,9.6c-0.4,0.4-0.4,1.2-0.8,1.5h-0.4V296.3c0.5,0.4,0.9,1,1.2,1.5
		c1.2,2.3,1.9,4.6,3.1,6.9c1.5,3.5,3.5,7.3,5,10.7c3.1,6.1,5.8,12.7,8.8,18.8c1.9,3.8,3.5,7.3,5.4,11.1
		C219.4,347,220.1,348.5,221.3,350.1z"/>
	<path id="Path_76" class="st7" d="M304.2,405.3c-0.4-1.9-1.2-3.7-2.3-5.4c-0.8-2.3-1.8-4.5-3.1-6.5c-2.3-5.4-5-10.4-7.7-15.7
		c-1.9-4.2-3.8-8.4-6.1-12.7c-2.3-4.2-4.2-8.8-6.1-13.4c-0.4-0.4-0.4-0.8-0.4-1.5c3.1-6.9,6.5-13.4,9.6-20.3
		c1.9-3.8,3.8-8.1,5.8-11.9c1.9-3.8,4.2-8.8,6.1-13c1.2-2.2,2.2-4.5,3.1-6.9c0.1-0.7,0.5-1.2,1.2-1.5v107
		C304.2,404.2,304.6,404.5,304.2,405.3z"/>
	<path id="Path_77" class="st8" d="M162.6,404.9c0.3-0.3,0.7-0.4,1.2-0.4h30.7c-0.6,0.4-1.3,0.4-1.9,0h-28.8
		C163.4,404.8,163,405,162.6,404.9z"/>
	<path id="Path_78" class="st9" d="M376.7,165.5c-0.1-0.4,0.1-0.8,0.4-1.2c2.3-4.6,4.6-9.6,7.3-14.2c0-0.4,0.4-0.4,0.4-0.8h0.4
		c-2.3,5-5,10-7.3,14.6C377.4,164.8,377.4,165.5,376.7,165.5z"/>
	<path id="Path_79" class="st10" d="M385.1,149.8L385.1,149.8c0.6-2,1.4-3.9,2.3-5.8c0.4-1,0.9-1.9,1.5-2.7h0.4L385.1,149.8z"/>
	<path id="Path_80" class="st4" d="M389.3,141.3L389.3,141.3c0.8-2.6,1.9-5.1,3.5-7.3v0.8C391.4,136.9,390.3,139.1,389.3,141.3z"/>
	<path id="Path_81" class="st9" d="M376.3,167.1c0-0.4,0-1.2,0.8-1.2C376.7,166.3,376.7,166.7,376.3,167.1z"/>
	<path id="Path_82" class="st9" d="M375.9,167.7c0-0.4,0-0.4,0.4-0.8C376.3,167.4,375.9,167.4,375.9,167.7z"/>
	<path id="Path_83" class="st9" d="M375.5,168.2c0-0.4,0-0.4,0.4-0.8C375.9,167.7,375.9,168.2,375.5,168.2z"/>
</g>
</svg>
