<svg id="Layer_1" data-name="Layer 1" xmlns="http://www.w3.org/2000/svg" xmlns:xlink="http://www.w3.org/1999/xlink" viewBox="0 0 40 40">
  <defs>
    <style>
      .cls-1 {
        fill: url(#linear-gradient);
      }

      .cls-2 {
        fill: #fff;
      }
    </style>
    <linearGradient id="linear-gradient" x1="20" y1="-5.8026" x2="20" y2="32.3468" gradientTransform="matrix(1, 0, 0, -1, 0, 40)" gradientUnits="userSpaceOnUse">
      <stop offset="0" stop-color="#2775ca"/>
      <stop offset="1" stop-color="#1894e8"/>
    </linearGradient>
  </defs>
  <title>usdc</title>
  <path class="cls-1" d="M37,26.3V13.7a6.00113,6.00113,0,0,0-3-5.2L23,2.2a5.867,5.867,0,0,0-6,0L6,8.5a6.00113,6.00113,0,0,0-3,5.2V26.3a6.00113,6.00113,0,0,0,3,5.2l11,6.3a5.867,5.867,0,0,0,6,0l11-6.3A6.09187,6.09187,0,0,0,37,26.3Z"/>
  <g>
    <path class="cls-2" d="M17.125,30.50573a.45284.45284,0,0,1-.62292.45521,11.508,11.508,0,0,1,0-21.92188.45.45,0,0,1,.62292.45521v.89844a.68585.68585,0,0,1-.40729.599,9.58137,9.58137,0,0,0,0,18.00468.68585.68585,0,0,1,.40729.599Z"/>
    <path class="cls-2" d="M20.95833,27.1875a.48057.48057,0,0,1-.47916.47917h-.95834a.48057.48057,0,0,1-.47916-.47917V25.67812a3.55587,3.55587,0,0,1-3.39011-3.05468.442.442,0,0,1,.44323-.51511h1.0901a.48635.48635,0,0,1,.46719.38334c.20365.94635.75469,1.67708,2.43177,1.67708,1.23386,0,2.12032-.69479,2.12032-1.725s-.51511-1.42552-2.33594-1.725c-2.68334-.35937-3.95313-1.174-3.95313-3.27031a3.28136,3.28136,0,0,1,3.12657-3.15052V12.8125a.48057.48057,0,0,1,.47916-.47917h.95834a.48057.48057,0,0,1,.47916.47917v1.52135a3.24915,3.24915,0,0,1,2.85105,2.61146.43976.43976,0,0,1-.44323.52709H22.3599a.4744.4744,0,0,1-.45521-.3474,1.86019,1.86019,0,0,0-2.08438-1.32969c-1.26979,0-1.92864.61094-1.92864,1.47344,0,.91042.37135,1.36563,2.324,1.64115,2.63541.35937,4.001,1.11406,4.001,3.35416a3.51463,3.51463,0,0,1-3.24636,3.39011V27.1875Z"/>
    <path class="cls-2" d="M23.49792,30.96094a.45.45,0,0,1-.62292-.45521v-.89844a.62377.62377,0,0,1,.40729-.599,9.57283,9.57283,0,0,0,0-17.99271.68583.68583,0,0,1-.40729-.599V9.51823a.45283.45283,0,0,1,.62292-.45521,11.49157,11.49157,0,0,1,0,21.89792Z"/>
  </g>
</svg>
