<svg id="42d1f885-8922-48cf-882c-11ce909984c1" data-name="Layer 1" xmlns="http://www.w3.org/2000/svg" xmlns:xlink="http://www.w3.org/1999/xlink" viewBox="0 0 40 40">
  <defs>
    <linearGradient id="3ed2797a-59a5-4e08-b400-00a91c0cbf23" x1="77.4169" y1="-1209.17847" x2="114.7087" y2="-1209.17847" gradientTransform="translate(-1189.17847 -76.0419) rotate(90)" gradientUnits="userSpaceOnUse">
      <stop offset="0" stop-color="#f3f4f9"/>
      <stop offset="0.40998" stop-color="#eaebf7"/>
      <stop offset="1" stop-color="#d6d6f3"/>
    </linearGradient>
  </defs>
  <title>fida</title>
  <path d="M37,26.3V13.7a6.00113,6.00113,0,0,0-3-5.2L23,2.2a5.867,5.867,0,0,0-6,0L6,8.5a6.00113,6.00113,0,0,0-3,5.2V26.3a6.00113,6.00113,0,0,0,3,5.2l11,6.3a5.867,5.867,0,0,0,6,0l11-6.3A6.09187,6.09187,0,0,0,37,26.3Z" fill="url(#3ed2797a-59a5-4e08-b400-00a91c0cbf23)"/>
  <g>
    <path d="M10.31746,25.78335a.08194.08194,0,0,1-.05683-.02831.06132.06132,0,0,1,.01894-.08493l4.30986-2.49141a.06159.06159,0,1,1,.06631.10381l-4.30986,2.49141a.03491.03491,0,0,1-.02842.00943Zm19.64978.10685a.03735.03735,0,0,1-.03042-.0101l-4.61365-2.65768a.06594.06594,0,1,1,.071-.11116L30.0078,25.779a.06569.06569,0,0,1,.02028.091.08587.08587,0,0,1-.06084.02021ZM20.05043,13.8857c-.04056,0-.06084-.02959-.09935-.07907V8.57882a.25032.25032,0,0,1,.09935-.03929.06455.06455,0,0,1,.06084.05918v5.22781A.05762.05762,0,0,1,20.05043,13.8857Z" fill="#7a7bff"/>
    <path d="M20,20.20825l-5.71632-3.34234L20,13.55482l5.71632,3.31109Zm-5.1853-3.34234L20,19.89588l5.1853-3.03L20,13.86719Z" fill="#7bccd8"/>
    <path d="M20.13536,26.57013,14.419,23.29027V16.63685l5.71632,3.34233Zm-5.44561-3.436,5.17489,2.9779V20.13536l-5.17489-3.03Z" fill="#52c7da"/>
    <path d="M19.86464,26.57013V19.97918l.06247-.04165L25.581,16.63685v6.65342l-.06247.04165Zm.27072-6.43477V26.112l5.17489-2.9779V17.1054Z" fill="#52c7da"/>
    <path d="M20,31.65972,9.9375,25.87977V14.17014L20,8.34028l10.0625,5.82986V25.87978Zm-9.46354-6.12934L20,30.96094l9.46354-5.43056V14.50955L20,9.03906l-9.46354,5.47049Z" fill="#7a7bff"/>
    <path d="M20.01236,31.5a.29324.29324,0,0,1-.2996-.29753V20.184l-9.62728-5.5836a.30247.30247,0,0,1-.10985-.40662.307.307,0,0,1,.40946-.10909l9.76709,5.67285a.2956.2956,0,0,1,.1498.25786v11.187a.27941.27941,0,0,1-.28962.29753Z" fill="#7a7bff"/>
    <path d="M19.98746,20.36443a.3012.3012,0,0,1-.25987-.14993.29718.29718,0,0,1,.11-.40983l9.77482-5.71749a.3.3,0,0,1,.29984.51978l-9.77482,5.71749a.28211.28211,0,0,1-.14992.04Z" fill="#7a7bff"/>
  </g>
</svg>
