<?xml version="1.0" encoding="utf-8"?>
<!-- Generator: Adobe Illustrator 22.0.0, SVG Export Plug-In . SVG Version: 6.00 Build 0)  -->
<svg version="1.1" id="Layer_1" xmlns="http://www.w3.org/2000/svg" xmlns:xlink="http://www.w3.org/1999/xlink" x="0px" y="0px"
	 viewBox="0 0 40 40" style="enable-background:new 0 0 40 40;" xml:space="preserve">
<style type="text/css">
	.st0{fill:url(#SVGID_1_);}
	.st1{fill:#FFFFFF;}
</style>
<linearGradient id="SVGID_1_" gradientUnits="userSpaceOnUse" x1="1157.4169" y1="3787.1785" x2="1194.7087" y2="3787.1785" gradientTransform="matrix(0 1 1 0 -3767.1785 -1156.0419)">
	<stop  offset="0" style="stop-color:#FD4143"/>
	<stop  offset="1" style="stop-color:#E7051D"/>
</linearGradient>
<path class="st0" d="M37,26.3V13.7c0-2.1-1.1-4.1-3-5.2L23,2.2c-1.9-1.1-4.1-1.1-6,0L6,8.5c-1.9,1.1-3,3.1-3,5.2v12.6
	c0,2.1,1.1,4.1,3,5.2l11,6.3c1.9,1.1,4.1,1.1,6,0l11-6.3C35.8,30.4,37,28.5,37,26.3z"/>
<g>
	<path class="st1" d="M28.7,20c0-1.8-0.5-3.5-1.5-4.8l2.7-2.7L27.6,10l-2.7,2.7c-1.4-0.9-3.1-1.5-4.8-1.5c-1.8,0-3.5,0.5-4.8,1.5
		L12.4,10L10,12.4l2.7,2.7c-0.9,1.4-1.5,3.1-1.5,4.8s0.5,3.5,1.5,4.8L10,27.6l2.4,2.4l2.7-2.7c1.4,0.9,3.1,1.5,4.8,1.5
		c1.8,0,3.5-0.5,4.8-1.5l2.7,2.7l2.4-2.4l-2.7-2.7C28.2,23.5,28.7,21.8,28.7,20z M14.7,20c0-2.9,2.4-5.3,5.3-5.3s5.3,2.4,5.3,5.3
		s-2.4,5.3-5.3,5.3S14.7,22.9,14.7,20z"/>
</g>
<g id="optimism-logo">
	<g id="optimism-logo-circle">
		<path id="Path_139" class="st1" d="M18.2,21.6c-0.3,0-0.6-0.1-0.9-0.2c-0.2-0.2-0.3-0.4-0.3-0.7c0-0.1,0-0.2,0-0.2
			c0-0.2,0.1-0.5,0.2-0.8c0.1-0.7,0.8-1.3,1.5-1.2c0.2,0,0.4,0,0.6,0.1c0.2,0.1,0.3,0.2,0.4,0.3c0.1,0.2,0.2,0.3,0.2,0.5
			c0,0.1,0,0.2,0,0.2c0,0.3-0.1,0.5-0.2,0.8c-0.1,0.4-0.3,0.7-0.5,0.9C18.9,21.5,18.5,21.6,18.2,21.6z M18.2,20.9
			c0.2,0,0.3,0,0.4-0.1c0.1-0.1,0.2-0.3,0.2-0.4c0.1-0.3,0.1-0.5,0.2-0.7c0-0.1,0-0.1,0-0.2c0-0.3-0.1-0.4-0.4-0.4
			c-0.2,0-0.3,0-0.4,0.1c-0.1,0.1-0.2,0.3-0.2,0.4c-0.1,0.2-0.1,0.4-0.2,0.7c0,0.1,0,0.1,0,0.2C17.8,20.8,18,20.9,18.2,20.9z"/>
		<path id="Path_140" class="st1" d="M20.1,21.5C20.1,21.5,20,21.5,20.1,21.5C20,21.5,20,21.5,20,21.4l0.6-2.9c0,0,0-0.1,0-0.1
			c0,0,0.1,0,0.1,0h1.2c0.3,0,0.5,0.1,0.8,0.2c0.2,0.1,0.3,0.3,0.3,0.6c0,0.1,0,0.2,0,0.2c0,0.3-0.2,0.6-0.4,0.7
			c-0.3,0.2-0.6,0.3-0.9,0.2H21l-0.2,1c0,0,0,0.1,0,0.1c0,0-0.1,0-0.1,0L20.1,21.5z M21.7,19.9c0.1,0,0.2,0,0.3-0.1
			c0.1-0.1,0.2-0.2,0.2-0.3c0,0,0-0.1,0-0.1c0-0.1,0-0.1-0.1-0.2c-0.1-0.1-0.2-0.1-0.3-0.1h-0.5l-0.2,0.8H21.7z"/>
	</g>
</g>
</svg>
