<?xml version="1.0" encoding="utf-8"?>
<!-- Generator: Adobe Illustrator 22.0.0, SVG Export Plug-In . SVG Version: 6.00 Build 0)  -->
<svg version="1.1" id="Layer_1" xmlns="http://www.w3.org/2000/svg" xmlns:xlink="http://www.w3.org/1999/xlink" x="0px" y="0px"
	 viewBox="0 0 500 500" style="enable-background:new 0 0 500 500;" xml:space="preserve">
<style type="text/css">
	.st0{fill:url(#SVGID_1_);}
	.st1{fill:#FFFFFF;}
</style>
<title>decentraland</title>
<linearGradient id="SVGID_1_" gradientUnits="userSpaceOnUse" x1="939" y1="192.7" x2="439" y2="192.7" gradientTransform="matrix(0 -1 1 0 57.3 939)">
	<stop  offset="0" style="stop-color:#348BED"/>
	<stop  offset="0.3256" style="stop-color:#2B80E8"/>
	<stop  offset="1" style="stop-color:#0F4787"/>
</linearGradient>
<polygon class="st0" points="500,0 500,500 0,500 0,0 "/>
<path class="st1" d="M439.3,231.7l-84.7-84.7l0,0l-0.2-0.2l-0.3-0.3c-0.5-0.5-1.1-1-1.7-1.4c-0.4-0.3-0.8-0.7-1.3-1
	c-0.2-0.1-0.4-0.3-0.6-0.4c-10-6.6-23.4-4.3-30.7,5.1L188,280.6V163.3c0-12.9-10.4-23.3-23.3-23.3c-12.8,0-23.2,10.4-23.3,23.3
	v117.4l-48.1-48.1c-9.3-8.9-24-8.5-32.9,0.8c-8.6,9-8.6,23.1,0,32.1l87.8,87.8c0.6,0.6,1.1,1.1,1.7,1.6c0.6,0.5,1.2,0.9,1.8,1.4l0,0
	c3.2,2.1,6.8,3.3,10.6,3.6h0.1c0.8,0.1,1.5,0.1,2.3,0.1l0,0h0.3c0.6,0,1.3,0,1.9-0.1h0.5c0.6-0.1,1.2-0.1,1.8-0.3h0.3
	c0.7-0.1,1.3-0.3,2-0.5h0.1c0.7-0.2,1.4-0.5,2.1-0.7l0,0c1-0.4,1.9-0.9,2.8-1.4l0.5-0.3c0.9-0.5,1.7-1.1,2.5-1.8l0.2-0.2
	c0.5-0.4,1-0.8,1.4-1.3l133.6-133.7v117c0,12.9,10.4,23.3,23.3,23.3c12.8,0,23.2-10.4,23.3-23.3V219.3l45.1,45.2
	c9.2,9,23.9,8.8,32.9-0.4C448.2,255.1,448.2,240.7,439.3,231.7L439.3,231.7z"/>
</svg>
