<svg version="1.1" id="Layer_1" xmlns="http://www.w3.org/2000/svg" x="0" y="0" viewBox="0 0 40 40" xml:space="preserve"><style>.st1{fill:#fff}</style><linearGradient id="SVGID_1_" gradientUnits="userSpaceOnUse" x1="-92.583" y1="681.178" x2="-55.291" y2="681.178" gradientTransform="matrix(0 1 1 0 -661.178 93.958)"><stop offset="0" stop-color="#fef20d"/><stop offset="1" stop-color="#f3ba2f"/></linearGradient><path d="M37 26.3V13.7c0-2.1-1.1-4.1-3-5.2L23 2.2c-1.9-1.1-4.1-1.1-6 0L6 8.5c-1.9 1.1-3 3.1-3 5.2v12.6c0 2.1 1.1 4.1 3 5.2l11 6.3c1.9 1.1 4.1 1.1 6 0l11-6.3c1.8-1.1 3-3 3-5.2z" fill="url(#SVGID_1_)"/><path class="st1" d="M15.9 18.3l4.1-4.1 4.1 4.1 2.4-2.4L20 9.5 13.5 16l2.4 2.3M9.4 20l2.4-2.4 2.4 2.4-2.4 2.4L9.4 20zm6.5 1.7l4.1 4.1 4.1-4.1 2.4 2.4-6.5 6.4-6.5-6.5 2.4-2.3m10-1.7l2.4-2.4 2.4 2.4-2.4 2.4-2.4-2.4z"/><path class="st1" d="M22.5 20L20 17.5l-1.8 1.8-.2.2-.5.5 2.5 2.5 2.5-2.5"/></svg>