<?xml version="1.0" encoding="utf-8"?>
<!-- Generator: Adobe Illustrator 22.0.0, SVG Export Plug-In . SVG Version: 6.00 Build 0)  -->
<svg version="1.1" id="Layer_1" xmlns="http://www.w3.org/2000/svg" xmlns:xlink="http://www.w3.org/1999/xlink" x="0px" y="0px"
	 viewBox="0 0 500 500" style="enable-background:new 0 0 500 500;" xml:space="preserve">
<style type="text/css">
	.st0{fill:url(#SVGID_1_);}
	.st1{fill:#232832;}
</style>
<title>decentraland</title>
<linearGradient id="SVGID_1_" gradientUnits="userSpaceOnUse" x1="1539" y1="619.3" x2="1039" y2="619.3" gradientTransform="matrix(0 -1 -1 0 869.3 1539)">
	<stop  offset="0" style="stop-color:#F0FF9B"/>
	<stop  offset="1" style="stop-color:#F0FF9B"/>
</linearGradient>
<polygon class="st0" points="500,0 500,500 0,500 0,0 "/>
<g>
	<g>
		<path class="st1" d="M273.5,363c-7,4.6-14.2,8.9-22.2,13.1c5.9,0.8,11,1,16.2,1c23.8-0.2,46-6.4,66-19.4
			c10.7-7,20.1-15.6,28.3-25.4c0.8-0.9,1-1.8,1-2.9c0-13.6-0.1-27.3,0-40.9c0-1.9-0.6-2.2-2.3-2.2c-23.6,0.1-47.2,0-70.8,0
			c-0.7,0-1.3,0-2,0c-0.1-0.8,0.5-1,0.8-1.3c16.5-15.9,31.6-32.9,44.9-51.6c0.8-1.1,1.7-1.5,3-1.5c25.8,0,51.5,0,77.3,0
			c1.7,0,2.2,0.4,2.2,2.2c-0.1,37.7,0,75.4,0,113.1c0,1-0.1,1.9-0.8,2.8c-14.6,21.1-32.2,39.1-54,52.9
			c-21.5,13.6-44.8,22.5-70.1,25.7c-53.2,6.6-100.9-6.9-142.4-40.8c-32.8-26.7-52.8-61.6-60.6-103.2c-8.2-43.4-1.9-84.8,20.2-123.1
			c27.6-47.6,68.6-77.6,122.7-87.9c53.9-10.2,102.9,2.4,146.2,36.2c14.3,11.2,26.3,24.5,36.5,39.5c0.9,1.3,0.6,1.8-0.6,2.6
			c-13.6,9-27.2,18-40.8,27.1c-1.5,1-2.1,0.8-3.1-0.6c-21-29.9-49.6-48-85.7-53.7c-66-10.3-129.6,33.9-143.2,99.3
			c-3.3,15.8-3.5,31.6-1,47.5c0,0.3,0.1,0.6,0.3,1.4c16-27.7,36.1-51.6,59.9-72.4c23.8-20.7,50-37.4,80.5-47.4c-0.4,1.4-1.3,2-2,2.6
			c-21.9,21.2-42.6,43.4-60.9,67.8c-18,24-32.2,50-41.5,78.6c-2.3,7-4,14.1-4.7,21.5c-0.4,3.9-0.2,7.8,0.9,11.6
			c1.7,5.3,4.8,7.6,10.3,7.7c10.1,0.3,19.6-2.7,28.9-6.3c3.8-1.4,7.4-3.1,11.2-4.7c0.4,0.6,0.9,1,1.5,1.4c5,2.9,9.9,5.7,14.9,8.6
			c10.9,6.3,21.9,12.5,32.8,18.8C272.1,361.2,273.3,361.6,273.5,363z"/>
		<path class="st1" d="M273.5,363c-0.2-1.3-1.4-1.8-2.3-2.4c-10.9-6.3-21.9-12.5-32.8-18.8c-5-2.8-9.9-5.7-14.9-8.6
			c-0.6-0.4-1.1-0.8-1.5-1.4c5.8-3.2,11.6-6.2,17.2-9.5c2.1-1.2,3.6-1.4,5.8-0.1c15,8.9,30.2,17.5,45.3,26.2c1.2,0.7,2,1.3,0.5,2.5
			C285.2,355.1,279.6,359.4,273.5,363z"/>
	</g>
	<path class="st1" d="M169.2,146.1c-0.1,0.1-0.1,0.1-0.2,0.1c0,0-0.1-0.1-0.1-0.1c0,0,0.1-0.1,0.1-0.1
		C169.1,146,169.2,146,169.2,146.1z"/>
</g>
</svg>
