<svg width="500" height="500" viewBox="0 0 500 500" fill="none" xmlns="http://www.w3.org/2000/svg">
<g clip-path="url(#clip0_1152_72)">
<path d="M500 0V500H0V0H500Z" fill="url(#paint0_linear_1152_72)"/>
<path d="M405.491 196.008L338.218 98.0687C327.58 82.6749 303.722 90.8657 304.513 109.511C305.227 126.516 311.579 144.463 326.79 166.588L326.699 166.68C320.423 162.03 226.632 91.6103 115.153 129.115H115.031C102.676 133.749 96.4461 143.794 99.6373 155.602C102.509 166.528 113.709 173.077 124.848 171.223C148.447 167.287 171.956 165.418 195.069 167.5C218.254 169.421 240.885 175.603 261.826 185.736C282.888 195.993 301.944 210.718 319.466 227.464C339.221 246.293 363.641 286.471 363.641 286.471C365.069 289.022 367.355 290.983 370.093 292.007C372.831 293.031 375.843 293.051 378.594 292.064C380.161 291.454 381.592 290.541 382.805 289.377C384.017 288.212 384.988 286.82 385.66 285.279C386.332 283.738 386.693 282.079 386.722 280.398C386.751 278.717 386.447 277.047 385.827 275.484C380.625 261.798 374.266 248.58 366.817 235.974C366.817 235.974 366.817 235.853 366.893 235.883C375.145 238.922 382.758 242.843 391.784 240.731C395.459 239.916 398.892 238.255 401.812 235.881C404.732 233.507 407.059 230.485 408.607 227.054C410.788 222.045 411.647 216.56 411.102 211.125C410.557 205.689 408.625 200.484 405.491 196.008Z" fill="white"/>
<path d="M94.7593 303.507L162.458 402.009C173.096 417.403 196.528 408.954 195.799 390.293C195.145 373.212 188.809 355.129 173.521 332.942C173.521 332.942 173.521 332.79 173.597 332.836C179.828 337.501 273.619 407.905 385.083 370.401H385.22C397.529 365.842 403.805 355.752 400.689 343.944C397.802 333.033 386.602 326.469 375.464 328.322C351.788 332.258 328.355 334.127 305.181 332.106C281.993 330.181 259.357 324 238.409 313.871C217.347 303.598 198.291 288.888 180.77 272.142C161.06 253.223 136.61 213.09 136.61 213.09C135.121 210.447 132.715 208.442 129.848 207.453C126.98 206.465 123.85 206.562 121.049 207.725C114.742 210.324 112.053 217.831 114.469 224.213C119.657 237.864 126.002 251.046 133.434 263.617L133.342 263.708C125.106 260.669 117.478 256.748 108.451 258.861C104.78 259.683 101.35 261.347 98.4312 263.72C95.5122 266.093 93.1837 269.111 91.6289 272.537C89.4633 277.537 88.614 283.008 89.162 288.43C89.71 293.851 91.6369 299.042 94.7593 303.507Z" fill="white"/>
</g>
<defs>
<linearGradient id="paint0_linear_1152_72" x1="-19" y1="567.5" x2="569" y2="-46.5" gradientUnits="userSpaceOnUse">
<stop offset="0.15" stop-color="#B32EFF"/>
<stop offset="0.42" stop-color="#CE60D3"/>
<stop offset="0.65" stop-color="#E185B3"/>
<stop offset="0.84" stop-color="#EE9C9F"/>
<stop offset="0.96" stop-color="#F2A498"/>
</linearGradient>
<clipPath id="clip0_1152_72">
<rect width="500" height="500" fill="white"/>
</clipPath>
</defs>
</svg>
