<svg version="1.1" id="Layer_1" xmlns="http://www.w3.org/2000/svg" x="0" y="0" viewBox="0 0 40 40" xml:space="preserve"><style>.st1{fill:#fff}</style><linearGradient id="SVGID_1_" gradientUnits="userSpaceOnUse" x1="-102.558" y1="679.178" x2="-65.266" y2="679.178" gradientTransform="matrix(0 1 1 0 -659.178 103.958)"><stop offset="0" stop-color="#fc65b1"/><stop offset=".999" stop-color="#ff167f"/></linearGradient><path d="M37 26.3V13.7c0-2.1-1.1-4.1-3-5.2L23 2.2c-1.9-1.1-4.1-1.1-6 0L6 8.5c-1.9 1.1-3 3.1-3 5.2v12.6c0 2.1 1.1 4.1 3 5.2l11 6.3c1.9 1.1 4.1 1.1 6 0l11-6.3c1.8-1.1 3-3 3-5.2z" fill="url(#SVGID_1_)"/><path class="st1" d="M20.1 9.8c-4.3 0-7.8 3.5-7.9 7.9 0 .9.1 1.7.4 2.6.2.6.8.9 1.4.7.6-.2.8-.8.7-1.4-.2-.6-.3-1.3-.3-2 .1-3.1 2.7-5.6 5.8-5.5s5.6 2.7 5.5 5.8c-.1 2.9-2.4 5.3-5.3 5.5 0 0-1.1.1-1.7.1-.2 0-.4.1-.6.1H18v-.1l.2-.9 1-4.7c.1-.6-.2-1.2-.8-1.3-.6-.1-1.2.2-1.3.8 0 0-2.5 11.4-2.5 11.5-.1.6.2 1.1.7 1.3h.1c.6.1 1.1-.2 1.3-.7v-.1c0-.1.3-1.7.3-1.7.2-1.1 1.2-2 2.3-2.2.2 0 1.2-.1 1.2-.1 4.3-.4 7.5-4.3 7-8.6-.2-3.8-3.4-6.9-7.4-7zM20.6 28c-.7-.1-1.4.3-1.5 1-.2.7.3 1.4 1 1.6.7.2 1.4-.3 1.5-.9v-.1c.1-.8-.3-1.5-1-1.6z"/></svg>