<?xml version="1.0" encoding="utf-8"?>
<!-- Generator: Adobe Illustrator 22.0.0, SVG Export Plug-In . SVG Version: 6.00 Build 0)  -->
<svg version="1.1" id="Layer_1" xmlns="http://www.w3.org/2000/svg" xmlns:xlink="http://www.w3.org/1999/xlink" x="0px" y="0px"
	 viewBox="0 0 40 40" style="enable-background:new 0 0 40 40;" xml:space="preserve">
<style type="text/css">
	.st0{fill:url(#SVGID_1_);}
	.st1{fill:#FE0000;}
	.st2{fill:#010000;}
	.st3{fill:#040000;}
	.st4{fill:#090000;}
	.st5{fill:#070000;}
	.st6{fill:#050000;}
	.st7{fill:#060000;}
	.st8{fill:#F30000;}
	.st9{fill:#0D0000;}
	.st10{fill:#100000;}
	.st11{fill:#0B0000;}
	.st12{fill:#080000;}
	.st13{fill:#0C0000;}
	.st14{fill:#120000;}
	.st15{fill:#1A0000;}
	.st16{fill:#170000;}
	.st17{fill:#1F0000;}
	.st18{fill:#0E0000;}
	.st19{fill:#140000;}
	.st20{fill:#130000;}
	.st21{fill:#1C0000;}
	.st22{fill:#2E0000;}
	.st23{fill:#0F0000;}
	.st24{fill:#260000;}
	.st25{fill:#1B0000;}
	.st26{fill:#270000;}
	.st27{fill:#250000;}
	.st28{fill:#2A0000;}
	.st29{fill:#180000;}
	.st30{fill:#190000;}
	.st31{fill:#160000;}
	.st32{fill:#220000;}
	.st33{fill:#230000;}
	.st34{fill:#490000;}
	.st35{fill:#210000;}
	.st36{fill:#3E0000;}
	.st37{fill:#2F0000;}
	.st38{fill:#1D0000;}
	.st39{fill:#3C0000;}
	.st40{fill:#350000;}
	.st41{fill:#3A0000;}
	.st42{fill:#470000;}
	.st43{fill:#3D0000;}
	.st44{fill:#240000;}
	.st45{fill:#300000;}
	.st46{fill:#3B0000;}
	.st47{fill:#310000;}
	.st48{fill:#540000;}
	.st49{fill:#4E0000;}
	.st50{fill:#430000;}
	.st51{fill:#2D0000;}
	.st52{fill:#0A0000;}
	.st53{fill:#840000;}
	.st54{fill:#790000;}
	.st55{fill:#8B0000;}
	.st56{fill:#580000;}
	.st57{fill:#800000;}
	.st58{fill:#6E0000;}
	.st59{fill:#460000;}
	.st60{fill:#280000;}
	.st61{fill:#EB0000;}
</style>
<linearGradient id="SVGID_1_" gradientUnits="userSpaceOnUse" x1="887.2169" y1="-2515.1785" x2="924.5087" y2="-2515.1785" gradientTransform="matrix(0 1 -1 0 -2495.1785 -886.0419)">
	<stop  offset="1.198744e-03" style="stop-color:#3D3D3D"/>
	<stop  offset="1" style="stop-color:#141414"/>
</linearGradient>
<path class="st0" d="M37,26.1V13.5c0-2.1-1.1-4.1-3-5.2L23,2c-1.9-1.1-4.1-1.1-6,0L6,8.3c-1.9,1.1-3,3.1-3,5.2v12.6
	c0,2.1,1.1,4.1,3,5.2l11,6.3c1.9,1.1,4.1,1.1,6,0l11-6.3C35.8,30.2,37,28.3,37,26.1z"/>
<g>
	<path class="st1" d="M25.2,30c-0.3,0-0.5-0.1-0.7-0.2c-0.9-0.6-1.6-1.5-2.3-2.3c-0.4-0.5-0.8-1-1.2-1.4c-0.7-0.7-1.2-0.7-2-0.1
		c-0.8,0.7-1.4,1.5-2.1,2.2c-0.4,0.4-0.8,0.7-1.2,1.1c-0.7,0.6-1.1,0.4-1.7-0.1c-0.4-0.4-0.8-0.8-1.2-1.3c-0.6-0.8-1.4-1.3-2-2.1
		c-0.3-0.4-0.6-0.8-0.7-1.3c0-0.2,0-0.3,0.1-0.5c0.8-1,1.7-1.9,2.7-2.7c0.4-0.4,0.9-0.8,1.1-1.3c0.2-0.4,0.2-0.7-0.1-1.1
		c-0.7-0.8-1.5-1.6-2.3-2.4c-0.4-0.5-0.9-0.9-1.2-1.5c-0.2-0.4-0.3-0.8,0.1-1.2c0.3-0.3,0.6-0.7,0.9-0.9c0.8-0.6,1.4-1.2,2.1-1.9
		c0.2-0.3,0.5-0.5,0.8-0.7c0.8-0.5,1.1-0.5,1.7,0.2c0.9,0.9,1.6,2,2.6,2.8c0.3,0.2,0.6,0.5,0.9,0.7c0.3,0.2,0.6,0.2,0.8,0
		c0.5-0.3,0.8-0.6,1.2-1c0.7-0.8,1.5-1.6,2.3-2.4c0,0,0,0,0,0c0.9-0.8,1.4-0.8,2.2,0.1c0.6,0.7,1.1,1.5,1.8,2.1
		c0.5,0.4,1,0.9,1.5,1.4c0.5,0.5,0.6,1,0.4,1.4c-0.1,0.2-0.3,0.4-0.4,0.5c-0.7,0.7-1.3,1.3-2.1,1.9c-0.6,0.4-1.1,0.9-1.5,1.6
		c-0.3,0.4-0.3,0.7,0,1.1c0.6,0.8,1.4,1.5,2.1,2.1c0.6,0.5,1.1,1.1,1.6,1.7c0.6,0.7,0.3,1.4-0.2,1.9c-0.7,0.8-1.6,1.4-2.3,2.2
		c-0.4,0.5-1,0.9-1.5,1.3C25.5,30,25.3,30,25.2,30z"/>
	<path d="M18.9,20.4c-0.1,0.1-0.2,0.1-0.1,0.2c0.1,0.1,0.1,0,0.2-0.1c0.1,0,0.1-0.1,0.2,0c0.1,0.1,0,0.3,0.1,0.4
		c0,0.1-0.1,0-0.2,0.1c-0.2,0.1-0.4,0.2-0.5,0.5c0,0.1,0,0.3,0.2,0.2c0.2,0,0.2,0.1,0.2,0.2c-0.1,0.2-0.3,0.5,0.2,0.4
		c0.1,0,0.3,0.1,0.1,0.2c-0.1,0.1-0.2,0.3-0.2,0.4c0,0.2-0.1,0.3-0.3,0.2c-0.1-0.1-0.1,0-0.2,0.1c-0.2,0.1-0.4,0.2-0.6-0.1
		c-0.1-0.2-0.3-0.1-0.4-0.1c0-0.2,0.2-0.2,0.3-0.2c0.3-0.1,0.3-0.3,0.5-0.5c0.1-0.1,0-0.2-0.1-0.3c-0.1-0.1-0.1,0.1-0.1,0.1
		c-0.2,0.1-0.4,0.1-0.4,0.4c0,0.1-0.1,0-0.1-0.1c0-0.2-0.1-0.4,0.1-0.6c0-0.2,0.2-0.1,0.3-0.2c0.2-0.3,0.1-0.4-0.3-0.4
		c-0.1-0.1,0.1-0.1,0.1-0.2c0.1-0.1,0.1-0.3,0-0.4c-0.1-0.2-0.2,0-0.3,0.1c-0.1,0.1-0.2,0.1-0.3,0c-0.1-0.1,0-0.2,0.1-0.3
		c0.1-0.1,0.2-0.2,0.1-0.3c-0.2-0.3,0.1-0.4,0.3-0.6c0.1,0,0.2,0.1,0.2-0.1c0-0.1-0.1-0.1-0.2-0.1c-0.1-0.1-0.3,0-0.2-0.2
		c0.3-0.5,0.5,0.1,0.7,0.1c0-0.1-0.1-0.2-0.1-0.2C18,19,18,18.9,18.3,18.9c0,0,0.1,0,0.1,0c0.7,0,0.8-0.2,0.7-0.9l0,0
		c0.1,0,0.2,0.2,0.3,0.1c0.4-0.3,0.4,0.1,0.5,0.3c0.1,0.2,0.1,0.2,0.3,0.2c0.2-0.1,0.3,0.1,0.3,0.3c0,0.1-0.1,0.2-0.1,0.3
		c-0.1,0.3-0.1,0.6,0.2,0.7c0.3,0.2,0.6,0.3,0.9,0.5c0.1,0,0.1,0.1,0.1,0.2c0,0.1-0.1,0.2-0.2,0.1c-0.2,0-0.6,0.2-0.7-0.3
		c0-0.1-0.3-0.3-0.5-0.3c-0.2,0-0.3,0.1-0.3,0.4c-0.2,0-0.1-0.1-0.1-0.2c0-0.2,0.2-0.3,0.2-0.4c0-0.1,0.1-0.3-0.1-0.3
		c-0.1-0.1-0.2-0.4-0.5-0.2c-0.3,0.2-0.3,0.3-0.2,0.6c0,0.1,0.1,0.2,0,0.3c-0.1,0-0.1,0-0.2-0.1C18.8,20.2,19,20.4,18.9,20.4z"/>
	<path class="st2" d="M19.1,18C19.1,18,19.1,18.1,19.1,18c-0.3-0.2-0.4,0-0.3,0.2c0,0.1,0,0.2-0.1,0.3c-0.2,0-0.3,0.4-0.6,0.2
		c-0.1-0.1-0.2-0.3-0.3-0.5c0-0.1,0.2-0.2,0.3-0.2c0.4,0.1,0.6-0.1,0.7-0.5c0-0.1,0.1-0.1,0.1-0.2c-0.3-0.1-0.7-0.1-1.1-0.2
		c0.1-0.1,0.3-0.2,0.2-0.3c0-0.1-0.1-0.2-0.2-0.2c-0.1,0-0.3,0.1-0.3,0.2c0,0.2-0.3,0.3,0,0.5c0.2,0.1,0,0.4-0.1,0.5
		c-0.2,0.2-0.4,0.3-0.7,0.3c-0.3,0-0.5,0.3-0.5,0.6c0,0.2-0.1,0.5,0,0.7c0,0.1,0,0.2-0.1,0.2c-0.1,0-0.1-0.1-0.1-0.1
		c0-0.1-0.1-0.3-0.1-0.4c0-0.2-0.1-0.3-0.3-0.2c-0.1,0.1-0.2,0-0.2-0.1c-0.3-0.3-0.6-0.6-0.8-0.9c-0.1-0.1-0.2-0.1-0.1-0.2
		c0.1-0.1,0.2-0.2,0.4-0.2c0.1,0,0.1,0.1,0.1,0.2c0,0.3,0.2,0.2,0.3,0.2c0.1,0,0.1,0,0.2,0c0,0.1,0,0.1-0.1,0.2
		c-0.1,0.1-0.3,0.1-0.2,0.3c0.1,0.2,0.2,0.3,0.5,0.2c0.3-0.1,0.7-0.3,0.8-0.7c0.1-0.3,0.4-0.1,0.5-0.4c0-0.1-0.1-0.1-0.2-0.1
		c-0.3,0.1-0.4-0.1-0.5-0.4c0-0.3,0.3-0.8,0.6-0.8c0.2,0,0.4,0,0.6,0c0.2,0,0.3,0,0.6,0.1c-0.3-0.3-0.6-0.1-0.9-0.3
		c0.5-0.1,0.8-0.3,0.6-0.8c0.2,0.2,0.3,0.4,0.6,0.3c0,0,0.1,0,0.1,0.1c0,0.5,0,1,0.4,1.3c0.1,0.1,0.2,0.2,0.4,0.1
		c-0.2,0.3-0.1,0.6-0.4,0.7C18.9,17.8,19.1,17.9,19.1,18z"/>
	<path class="st2" d="M22.2,18.7c0.1,0.1,0.1,0.1,0.1,0.2c0.1,0.1,0.1,0.2,0.3,0.1c0.1-0.1,0.2-0.2,0.1-0.4
		c-0.1-0.2-0.5-0.3-0.7-0.1c-0.2,0.1-0.4,0-0.5-0.1c-0.2-0.2-0.4-0.5-0.5-0.7c-0.1-0.4-0.3-0.6-0.8-0.5c-0.2,0-0.4,0-0.5,0
		c-0.1,0-0.2-0.1-0.2-0.2c0-0.1,0.1-0.1,0.2-0.1c0.2,0,0.4-0.2,0.7-0.1c-0.1-0.6,0.3-0.8,0.7-1.2c0.1-0.1,0.2-0.1,0.3-0.2
		c0.1-0.1,0.2-0.3,0.3,0c0.1,0.2,0.3,0.4-0.1,0.4c-0.2,0-0.1,0.2-0.1,0.3c0,0.1,0,0.2-0.1,0.2c-0.1,0-0.2,0-0.2-0.1
		c0-0.2-0.2-0.2-0.4-0.1c-0.2,0.1-0.2,0.3-0.1,0.5c0.1,0.3,0.3,0.6,0.6,0.6c0.3,0.1,0.2,0.5,0.4,0.7c0.1,0,0.1-0.1,0.1-0.2
		c0-0.2,0-0.4,0.3-0.5c0.3-0.1,0.6,0,0.8,0.3c0.2,0.2,0.2,0.4,0.1,0.6c-0.2,0.3-0.1,0.6,0,1c0.2-0.3,0.2-0.6,0.3-0.9
		c0.1,0.5,0.4,0.6,0.9,0.6c-0.2,0.1-0.5,0.1-0.3,0.5c0,0.1,0,0.1-0.2,0.2c-0.4,0-0.8-0.1-1.1,0.3c-0.1,0.1-0.2,0.2-0.3,0.1
		c-0.1-0.1-0.2-0.2-0.2-0.3C22.1,19.3,22.2,19,22.2,18.7z"/>
	<path class="st3" d="M21.8,22.9c0.5,0.2,0.8-0.1,1.1-0.2c0.6-0.3,0.7-0.5,0.3-1.1c-0.1-0.1-0.1-0.2-0.1-0.4
		c0.1,0.1,0.3,0.2,0.4,0.2c0.3,0.1,0.4,0.2,0.2,0.6c-0.1,0.3-0.3,0.7-0.4,1c-0.1,0.2,0,0.2,0.1,0.2c0.1,0,0.2,0.1,0.2,0.2
		c0,0.1-0.1,0.2-0.2,0.2c-0.3,0-0.5,0-0.6-0.3c-0.1-0.3-0.3-0.2-0.4,0c-0.1,0.3-0.3,0.2-0.4,0.2c-0.2,0-0.1-0.2-0.2-0.3
		C21.8,23.1,21.8,23.1,21.8,22.9z"/>
	<path class="st3" d="M19.7,22.2c-0.4-0.1-0.4-0.5-0.7-0.7c0.6-0.3,0.6-0.3,0.7-0.8c0.3,0.3,0.8,0.2,1.2,0.4
		c-0.2,0.1-0.3,0.5-0.7,0.3c-0.1-0.1-0.4,0.1-0.6,0.1c-0.1,0-0.1,0.1,0,0.2c0.1,0.1,0.2,0.2,0.2,0.3C19.8,22.2,19.8,22.2,19.7,22.2z
		"/>
	<path class="st4" d="M21,19.5c-0.1,0.1-0.1,0.3-0.3,0.2c-0.1,0-0.2,0-0.2-0.1c0-0.1,0-0.3,0.1-0.4c0.1-0.1,0.3-0.2,0.4-0.2
		c0.2,0.1,0.3,0.2,0.2,0.4c0,0.4,0.2,0.5,0.5,0.6c0.3,0.1,0.6,0.2,0.6,0.6c-0.1-0.1-0.2-0.2-0.4-0.2c-0.1,0-0.2-0.1-0.3-0.2
		c-0.1-0.1-0.2-0.3-0.4-0.1c-0.1,0.1-0.1,0-0.2,0c-0.1-0.1,0-0.1,0-0.2C21.3,19.8,21,19.7,21,19.5z"/>
	<path class="st5" d="M15.6,21.7c-0.5,0.1-0.3-0.2-0.3-0.3c0-0.2,0.1-0.2,0.2,0c0.2,0.2,0.3,0.2,0.4-0.1c0-0.1,0.1-0.2,0.2-0.2
		c0.1,0,0.2,0.1,0.2,0.2c0,0.4,0.2,0.7,0.3,1c0,0.1,0.1,0.2,0,0.2c-0.1,0-0.1,0-0.2-0.1c-0.2-0.3-0.4-0.5-0.7-0.6
		C15.7,21.7,15.7,21.7,15.6,21.7z"/>
	<path class="st6" d="M15.7,23.7c-0.1,0.1-0.1,0.1-0.2,0.2c-0.4,0.3-0.6,0.3-1-0.1c-0.1-0.1-0.1-0.2,0-0.2c0.1-0.1,0.2-0.1,0.3-0.2
		c0.3-0.3,0.4-0.3,0.5,0.2C15.3,23.6,15.4,23.6,15.7,23.7z"/>
	<path class="st7" d="M16.7,15.4c0,0.1-0.1,0.2-0.1,0.3c0,0.1-0.1,0.1,0,0.2c0.1,0,0.3,0,0.2,0.2c-0.1,0.1-0.3,0.1-0.4,0
		c-0.1,0-0.1-0.1-0.1-0.1c-0.1-0.1-0.2-0.1-0.3,0.1c-0.1,0.2-0.4,0.2-0.5,0c-0.1-0.2,0-0.3,0.2-0.4C16,15.7,16.4,15.7,16.7,15.4
		C16.7,15.4,16.7,15.4,16.7,15.4z"/>
	<path class="st4" d="M23,25.3c-0.1,0.3-0.4,0.5-0.3,0.8c0,0.1-0.1,0.1-0.2,0.1c-0.2-0.1-0.4-0.1-0.3-0.3c0.1-0.3-0.1-0.4-0.2-0.6
		c0,0-0.1-0.1,0-0.1c0,0,0.1-0.1,0.1,0C22.4,25.4,22.7,25.2,23,25.3z"/>
	<path class="st7" d="M23.8,17.4c-0.2,0-0.4-0.2-0.4,0.2c0,0.1,0,0.1-0.1,0.1c-0.1,0-0.1-0.1-0.1-0.1c0-0.2,0-0.4,0.1-0.5
		c0.1-0.1,0.2-0.2,0-0.3c-0.2-0.1-0.2-0.2-0.1-0.4c0-0.2,0.2-0.1,0.3-0.1c0.1,0,0.2,0,0.1,0.1C23.5,16.7,23.8,17,23.8,17.4z"/>
	<path class="st5" d="M17.5,19.4c0,0.1,0.2,0.1,0.2,0.2c-0.4-0.1-0.5,0.4-0.8,0.5c0-0.4-0.2-0.7-0.2-1c0-0.2,0.2-0.1,0.2-0.1
		c0.1,0,0.2-0.1,0.4,0c0,0.2-0.3,0.4-0.1,0.6C17.3,19.6,17.4,19.5,17.5,19.4z"/>
	<path class="st8" d="M19.2,20.3c0-0.1,0-0.1,0-0.1c-0.2-0.6-0.2-0.7,0.4-0.9c0.3-0.1,0.3,0,0.3,0.2c0,0.1-0.1,0.1,0,0.2
		c-0.1,0.1-0.1,0.2-0.2,0.3c-0.1,0-0.1-0.2-0.1,0C19.5,20,19.4,20.1,19.2,20.3C19.2,20.3,19.2,20.3,19.2,20.3z"/>
	<path class="st3" d="M20.7,24.8c0,0-0.1,0-0.1,0c-0.1,0-0.3,0.1-0.3-0.1c-0.1-0.2,0.2-0.1,0.2-0.2c0.1-0.1,0.1-0.1,0.2-0.1
		c0.1-0.1,0.2-0.3,0.4-0.2c0.2,0.1,0.2,0.2,0.2,0.4c0.1,0.2,0,0.3-0.2,0.3C20.9,24.8,20.8,24.8,20.7,24.8
		C20.7,24.8,20.7,24.8,20.7,24.8z"/>
	<path class="st9" d="M24.8,25.5c0.2,0,0.2,0.1,0.3,0.2c0,0.1-0.1,0.1-0.2,0.1c-0.2-0.1-0.3,0.1-0.4,0.2c-0.2,0.2-0.4,0.4-0.5,0.6
		c0,0-0.1,0.1-0.2,0.1c-0.1,0-0.1-0.1-0.1-0.2C23.7,26.3,24.6,25.5,24.8,25.5z"/>
	<path class="st10" d="M20.8,18.4c-0.3,0-0.4-0.3-0.7-0.2c0,0-0.1,0-0.1-0.1c0-0.1,0.1-0.3,0.2-0.3c0.1,0,0.2,0,0.3-0.1
		c0.1-0.1,0.2-0.1,0.2,0.1C20.7,18.1,20.8,18.2,20.8,18.4z"/>
	<path class="st5" d="M22.5,21.5c0.4,0.1,0.6,0.5,0.4,0.8c-0.1,0.1-0.1,0.1-0.2,0.1c-0.1,0-0.1-0.1-0.1-0.2
		C22.6,21.9,22.5,21.7,22.5,21.5z"/>
	<path class="st11" d="M21.7,22.5c0-0.2-0.1-0.4-0.3-0.5c-0.1-0.1-0.2-0.2,0-0.3c0.1-0.1,0.3-0.1,0.4,0
		C21.9,21.9,22.1,22.2,21.7,22.5z"/>
	<path class="st12" d="M14.6,17.2c-0.1-0.1-0.4,0.1-0.3-0.1c0-0.2,0.2-0.4,0.5-0.4c0.2,0,0.2,0.1,0.3,0.3
		C15,17.3,14.8,17.2,14.6,17.2z"/>
	<path class="st10" d="M25,15.1c-0.1-0.2-0.1-0.4-0.2-0.5c0-0.1-0.1-0.2,0-0.3c0.1-0.1,0.2-0.1,0.2,0c0.1,0.1,0.2,0.2,0.1,0.3
		c0,0.2-0.1,0.4-0.1,0.6C25,15.2,25,15.2,25,15.1z"/>
	<path class="st13" d="M22.1,15c0.2,0.2,0.5,0.2,0.5,0.6c0,0.1-0.3,0.3-0.4,0.2C21.9,15.5,22.1,15.2,22.1,15z"/>
	<path class="st9" d="M14.5,14.4c-0.2,0.1-0.4,0.2-0.6,0.2c-0.2,0.1-0.3,0-0.3-0.2c0-0.2,0.1-0.3,0.2-0.3
		C14,14.2,14.3,14.3,14.5,14.4C14.5,14.3,14.5,14.4,14.5,14.4z"/>
	<path class="st14" d="M23.9,17.5c0.4,0.1,0.7-0.2,1.1-0.3c0,0.2-0.1,0.4-0.3,0.6C24.5,17.6,24.2,17.8,23.9,17.5z"/>
	<path class="st11" d="M20.6,23.7c0.1,0.3-0.3,0.4-0.3,0.8C19.8,23.7,19.8,23.7,20.6,23.7z"/>
	<path class="st13" d="M24.9,16.8c-0.1,0.2-0.2,0.3-0.4,0.3c-0.2,0-0.4-0.1-0.4-0.2c0-0.2,0.3-0.2,0.5-0.2
		C24.7,16.6,24.8,16.6,24.9,16.8z"/>
	<path class="st14" d="M16.7,15.4C16.7,15.4,16.7,15.4,16.7,15.4c0-0.2,0-0.3-0.1-0.5c-0.1-0.1-0.2-0.3-0.2-0.4
		C17.1,14.6,17.2,14.9,16.7,15.4z"/>
	<path class="st13" d="M16,14.5c0.2,0,0.3,0.2,0.3,0.4c0,0.1,0,0.3-0.2,0.4c-0.2,0-0.2-0.2-0.3-0.4C15.8,14.7,15.8,14.6,16,14.5z"/>
	<path class="st9" d="M24,16c0.1-0.1,0.3-0.2,0.4-0.3c0.1-0.1,0.2-0.1,0.2,0c0.1,0.1,0.1,0.2,0,0.2C24.6,16.2,24.3,16.3,24,16z"/>
	<path class="st13" d="M15.1,14.7c0.2,0.1,0.3,0.2,0.3,0.4c0,0.1-0.1,0.2-0.2,0.3c-0.1,0-0.4-0.5-0.4-0.5C15,14.7,15,14.6,15.1,14.7
		z"/>
	<path class="st15" d="M19.3,20.3c0.1-0.2,0.1-0.5,0.3-0.8c0.1,0.2,0,0.3,0.1,0.4c0,0.1,0,0.2,0,0.3c0,0.1,0,0.2-0.1,0.2
		C19.4,20.5,19.4,20.3,19.3,20.3z"/>
	<path class="st16" d="M21.7,23.8c-0.1-0.1-0.2,0-0.3,0.1c-0.1,0-0.1,0.1-0.2,0c0-0.1-0.1-0.2-0.1-0.2c0-0.1,0.1-0.1,0.2-0.1
		c0.3,0.1,0.5,0.2,0.8,0.1c0.1,0,0.2,0,0.2,0.1c0,0.1-0.1,0.1-0.2,0.1C22,23.9,21.8,23.9,21.7,23.8z"/>
	<path class="st14" d="M22.2,21.6c-0.2,0-0.3,0-0.5-0.1c-0.1,0-0.2-0.1-0.2-0.2c0-0.1,0-0.1,0.1-0.2c0.1-0.1,0.2,0,0.2,0
		C21.9,21.3,22.1,21.4,22.2,21.6C22.2,21.5,22.2,21.5,22.2,21.6z"/>
	<path class="st17" d="M16,16.4c-0.4,0.2-0.7,0-1,0.2c0,0-0.1,0-0.1-0.1c0-0.1,0-0.2,0.2-0.2C15.3,16.3,15.6,16.3,16,16.4z"/>
	<path class="st18" d="M22.3,14.9c0.5-0.4,0.6-0.4,0.7,0c0,0.1,0.1,0.2,0,0.2c-0.1,0-0.2,0-0.2,0C22.6,15,22.6,14.8,22.3,14.9z"/>
	<path class="st19" d="M25.1,26.3c0,0.3,0.1,0.5,0.1,0.6c0,0.1,0.1,0.1,0,0.2c-0.1,0.1-0.1,0-0.2-0.1C24.8,26.7,24.8,26.7,25.1,26.3
		z"/>
	<path class="st9" d="M16.6,21.5c0-0.3,0.1-0.4,0.3-0.5c0.1,0,0.2,0,0.2,0.1C17.1,21.3,16.9,21.4,16.6,21.5z"/>
	<path class="st4" d="M21.7,24.8c-0.1,0-0.1,0-0.1-0.1c0-0.1,0-0.1,0.1-0.2c0.1-0.1,0.2-0.2,0.2-0.3c0-0.1,0.1-0.2,0.2-0.1
		c0,0,0,0.1,0,0.2C22.1,24.7,21.8,24.7,21.7,24.8z"/>
	<path class="st20" d="M19.7,22.2c0,0,0.1-0.1,0.1-0.1c0.2,0.2,0.3,0.4,0.5,0.6C19.8,22.8,19.9,22.4,19.7,22.2z"/>
	<path class="st21" d="M23.8,14.8c-0.1-0.4,0.3-0.4,0.6-0.6C24.2,14.6,23.9,14.6,23.8,14.8z"/>
	<path class="st14" d="M14.1,16.9c-0.2-0.4-0.2-0.4,0.3-0.5c-0.1,0.1-0.1,0.2-0.2,0.3C14.2,16.7,14.2,16.9,14.1,16.9z"/>
	<path class="st22" d="M17.3,23.7c-0.2-0.2-0.3-0.3-0.4-0.5C17.3,23.2,17.3,23.2,17.3,23.7z"/>
	<path class="st16" d="M22.6,16.3c0,0.1-0.1,0.1-0.2,0.1c-0.2-0.1-0.4-0.1-0.4-0.4c0-0.1,0.1-0.1,0.1-0.1
		C22.3,16.1,22.6,16.1,22.6,16.3z"/>
	<path class="st23" d="M25.8,25.1c0,0.1-0.1,0.2-0.2,0.2c-0.1,0-0.2-0.1-0.2-0.2c0-0.1,0-0.2,0.1-0.2C25.7,24.9,25.8,25,25.8,25.1z"
		/>
	<path class="st24" d="M25,12.9c-0.2,0-0.3,0.1-0.4,0.2c0,0-0.1,0-0.1,0c0,0,0-0.1,0-0.1C24.7,12.8,24.8,12.6,25,12.9z"/>
	<path class="st25" d="M20.1,17.3c0.1,0,0.2,0,0.2,0.1c0,0.1-0.2,0.2-0.3,0.2c-0.1,0-0.2,0-0.1-0.1C19.8,17.4,19.9,17.3,20.1,17.3z"
		/>
	<path class="st11" d="M24.8,16.4c0-0.2,0-0.3,0-0.5c0-0.1,0.1-0.1,0.2-0.1c0.1,0,0.1,0.1,0.1,0.2C25,16.1,24.9,16.3,24.8,16.4
		C24.8,16.4,24.8,16.4,24.8,16.4z"/>
	<path class="st20" d="M15.6,16.9c-0.1,0.2-0.1,0.3-0.3,0.3c-0.1,0-0.1-0.1-0.1-0.1c0.2-0.1,0.1-0.4,0.3-0.4
		C15.6,16.7,15.6,16.8,15.6,16.9z"/>
	<path class="st26" d="M15.5,21.9c0,0.3,0,0.4-0.2,0.5c-0.1,0-0.1,0-0.1-0.1C15.1,22.1,15.3,22.1,15.5,21.9z"/>
	<path class="st22" d="M15.7,14.6C15.6,14.6,15.6,14.6,15.7,14.6c-0.2,0-0.5,0.1-0.6-0.2c0,0,0-0.1,0-0.1
		C15.3,14.3,15.5,14.5,15.7,14.6z"/>
	<path class="st27" d="M17.3,22c0.2,0.3,0.1,0.5-0.2,0.7l0,0c0-0.2,0.1-0.4,0.1-0.7C17.2,21.9,17.3,21.9,17.3,22z"/>
	<path class="st28" d="M15.2,26.6c-0.1-0.1-0.3,0-0.4-0.2c0-0.1,0.1-0.1,0.2-0.1C15.1,26.3,15.2,26.4,15.2,26.6z"/>
	<path class="st21" d="M16.1,23.2c0.1-0.2,0.3-0.3,0.4-0.5c0,0.4-0.2,0.5-0.4,0.6C16,23.3,16,23.3,16.1,23.2z"/>
	<path class="st21" d="M25.4,15.4c-0.1,0-0.1,0-0.1-0.1c0-0.1,0.1-0.2,0.2-0.2c0.1,0,0.2,0,0.1,0.1C25.6,15.3,25.5,15.4,25.4,15.4z"
		/>
	<path class="st29" d="M23,16.4c0,0.1,0,0.2-0.1,0.3c-0.2-0.2-0.1-0.4,0-0.6C23.1,16.1,23,16.2,23,16.4z"/>
	<path class="st20" d="M14.8,24.9c0,0.1-0.1,0.1-0.2,0.2c-0.1,0-0.2,0-0.1-0.1c0-0.1,0.1-0.2,0.2-0.2C14.7,24.7,14.7,24.8,14.8,24.9
		z"/>
	<path class="st30" d="M22,14.5c-0.1-0.2,0-0.3,0.2-0.3c0.1,0,0.2,0,0.1,0.1C22.3,14.5,22.1,14.5,22,14.5z"/>
	<path class="st29" d="M23.4,25.8c0.1,0,0.2,0.1,0.2,0.2c0,0.1-0.1,0.1-0.1,0.1c-0.1,0-0.2,0-0.2-0.1C23.2,25.8,23.3,25.8,23.4,25.8
		z"/>
	<path class="st31" d="M24,23.5c0.1,0,0.2,0,0.2,0.1c0,0.1-0.1,0.1-0.2,0.1c-0.1,0-0.2,0-0.2-0.1C23.9,23.5,23.9,23.5,24,23.5z"/>
	<path class="st32" d="M13.9,15.3c0.1,0.1,0.3,0.2,0.3,0.3C13.9,15.6,13.8,15.6,13.9,15.3C13.7,15.3,13.8,15.2,13.9,15.3z"/>
	<path class="st21" d="M14.8,22.8c-0.1,0.1-0.1,0.3-0.3,0.3c-0.1,0-0.1-0.1-0.1-0.1C14.4,22.8,14.6,22.7,14.8,22.8z"/>
	<path class="st29" d="M22.9,15.9C22.9,15.9,22.9,15.9,22.9,15.9c-0.1-0.1-0.2-0.2-0.1-0.3c0,0,0.1-0.1,0.1-0.1
		c0.1,0.1,0.2,0.2,0.1,0.3C23,15.9,23,16,22.9,15.9z"/>
	<path class="st33" d="M17.3,22c0,0-0.1,0-0.1,0c-0.1,0-0.2-0.1-0.1-0.2c0.1-0.1,0.2-0.1,0.2,0c0,0,0.1,0,0.1,0.1c0,0,0,0,0,0
		c0,0,0,0,0,0C17.4,21.9,17.3,21.9,17.3,22z"/>
	<path class="st34" d="M14.2,13.2c0-0.2-0.2-0.3-0.1-0.4c0,0,0.1,0,0.1,0C14.3,12.9,14.3,13,14.2,13.2z"/>
	<path class="st31" d="M13.3,24.8c-0.1,0-0.1,0-0.1-0.1c0-0.1,0.2-0.1,0.3-0.2c0.1,0,0.1,0.1,0.1,0.1C13.5,24.7,13.4,24.7,13.3,24.8
		z"/>
	<path class="st22" d="M21.8,18.8c0.1,0,0.1,0.1,0.2,0.1c0,0.1-0.1,0.2-0.1,0.2c-0.1,0-0.1-0.1-0.1-0.1
		C21.7,18.8,21.7,18.8,21.8,18.8z"/>
	<path class="st35" d="M14.5,13.8c0.1,0,0.2,0.1,0.2,0.2c0,0.1-0.1,0.1-0.1,0.1c-0.1,0-0.2-0.1-0.2-0.2
		C14.4,13.8,14.4,13.8,14.5,13.8z"/>
	<path class="st21" d="M20.9,22c-0.1-0.1-0.5,0-0.3-0.3c0.2,0.1,0.3,0.2,0.4,0.3C21,22.1,21,22.1,20.9,22z"/>
	<path class="st25" d="M22.6,25.1c-0.2,0-0.2-0.1-0.2-0.2c0-0.1,0.1-0.2,0.2-0.2c0.1,0,0.2,0.1,0.1,0.2C22.7,25,22.6,25,22.6,25.1z"
		/>
	<path class="st36" d="M20.1,23.5c-0.1-0.1-0.3-0.1-0.3-0.3c0,0,0.1-0.1,0.1,0C20.1,23.2,20.2,23.2,20.1,23.5z"/>
	<path class="st30" d="M24.5,13.7c0,0.1,0,0.1-0.1,0.1c-0.1,0-0.2,0-0.2-0.2c0-0.1,0-0.1,0.1-0.1C24.4,13.5,24.5,13.6,24.5,13.7z"/>
	<path class="st37" d="M14.7,15.3c0-0.1-0.1-0.2-0.1-0.2c-0.1-0.1-0.2,0-0.2-0.2c0,0,0.1-0.1,0.1-0.1c0.1,0.1,0.3,0.1,0.3,0.3
		C14.7,15.1,14.7,15.2,14.7,15.3z"/>
	<path class="st38" d="M16.8,25c-0.1,0.1-0.2,0.2-0.3,0.1c-0.1,0-0.3-0.1-0.2-0.2c0.1-0.2,0.1,0.1,0.2,0C16.6,25,16.7,25,16.8,25z"
		/>
	<path class="st39" d="M25.6,13.5c0.2-0.1,0.2-0.2,0.4-0.2c0,0,0,0.1,0,0.1C25.9,13.5,25.8,13.5,25.6,13.5z"/>
	<path class="st40" d="M24,14c0,0.1,0,0.1-0.1,0.1c-0.1,0-0.1-0.1-0.2-0.2c0-0.1,0-0.1,0.1-0.1C23.9,13.8,24,13.9,24,14z"/>
	<path class="st16" d="M16.2,23.6c0,0,0.1-0.1,0.1-0.1c0.1-0.1,0.2-0.2,0.2,0c0.1,0.2-0.1,0.1-0.2,0.2
		C16.4,23.7,16.3,23.7,16.2,23.6C16.2,23.7,16.2,23.7,16.2,23.6z"/>
	<path class="st41" d="M22.1,16.9c-0.1,0-0.1-0.1-0.1-0.2c0-0.1,0.1-0.1,0.1-0.1c0.1,0,0.1,0.1,0.1,0.2
		C22.2,16.9,22.1,16.9,22.1,16.9z"/>
	<path class="st42" d="M26,15.3c0.1,0,0.1,0.1,0.1,0.1c0,0.1,0,0.2-0.1,0.2c-0.1,0-0.1-0.1-0.1-0.1C25.8,15.4,25.9,15.4,26,15.3z"/>
	<path class="st43" d="M27.4,25.9c0,0.1,0,0.2-0.1,0.2c-0.1,0-0.1-0.1-0.1-0.2c0-0.1,0-0.2,0.1-0.1C27.4,25.7,27.4,25.8,27.4,25.9z"
		/>
	<path class="st14" d="M12.9,15.2c-0.1,0-0.1-0.1-0.1-0.1c0-0.1,0.1-0.2,0.2-0.2c0.1,0,0.1,0,0.1,0.1C13.1,15.1,13.1,15.2,12.9,15.2
		z"/>
	<path class="st16" d="M21.6,23c0,0.1,0,0.2-0.1,0.2c-0.1,0-0.1-0.1-0.1-0.2c0-0.1,0-0.2,0.1-0.2C21.6,22.9,21.6,22.9,21.6,23z"/>
	<path class="st44" d="M20.8,23.3C20.8,23.4,20.8,23.4,20.8,23.3c-0.2,0.1-0.2,0-0.3,0c0-0.1,0-0.1,0.1-0.1
		C20.8,23.2,20.8,23.2,20.8,23.3z"/>
	<path class="st45" d="M13.3,15.6c-0.1,0-0.1,0-0.1-0.1c0-0.1,0.1-0.1,0.1-0.1c0.1,0,0.1,0,0.1,0.1C13.4,15.6,13.3,15.6,13.3,15.6z"
		/>
	<path class="st46" d="M15.4,24.9c0-0.1,0.2-0.2,0.3-0.2C15.7,24.9,15.7,24.9,15.4,24.9z"/>
	<path class="st32" d="M17.4,21.9C17.4,21.8,17.4,21.8,17.4,21.9c0.2-0.1,0.4-0.1,0.5-0.1c-0.1,0.1-0.2,0.1-0.3,0.2
		C17.6,21.9,17.5,21.9,17.4,21.9z"/>
	<path class="st47" d="M13.2,25.5c-0.1,0.1-0.1,0.2-0.3,0.1c0,0-0.1-0.1,0-0.1C13,25.4,13.1,25.4,13.2,25.5z"/>
	<path class="st48" d="M13.9,15.3C13.8,15.3,13.8,15.3,13.9,15.3c-0.2,0-0.3-0.1-0.3-0.3c0,0,0,0,0.1,0C13.8,15,13.8,15.2,13.9,15.3
		z"/>
	<path class="st19" d="M18.1,17.4c0.1,0,0.2,0.1,0.2,0.1c0,0.1-0.1,0.1-0.2,0.1c-0.1,0-0.1,0-0.1-0.1C18,17.4,18,17.4,18.1,17.4z"/>
	<path class="st49" d="M13.2,14.1C13.3,14.1,13.3,14.2,13.2,14.1c0.1,0.2,0.1,0.2,0,0.2c0,0-0.1-0.1-0.1-0.1
		C13.1,14.2,13.2,14.1,13.2,14.1z"/>
	<path class="st10" d="M15.9,17.3c0-0.1,0.1-0.1,0.1-0.1c0.1,0,0.1,0,0.1,0.1c0,0.1-0.1,0.1-0.1,0.2C15.9,17.4,15.9,17.4,15.9,17.3z
		"/>
	<path class="st50" d="M23.8,23C23.8,23,23.8,22.9,23.8,23c0.2-0.1,0.2,0,0.2,0c0,0,0,0.1-0.1,0.1C23.9,23.1,23.9,23.1,23.8,23z"/>
	<path class="st41" d="M23.5,16c-0.1,0-0.1,0-0.1-0.1c0-0.1,0.1-0.1,0.1-0.1c0,0,0.1,0.1,0.1,0.1C23.6,16,23.6,16,23.5,16z"/>
	<path class="st47" d="M20.2,20.6c0.1,0,0.1,0,0.1,0.1c0,0.1-0.1,0.1-0.1,0.1c0,0-0.1,0-0.1-0.1C20.1,20.6,20.1,20.6,20.2,20.6z"/>
	<path class="st21" d="M17,20.7c0,0-0.1,0.1-0.1,0.1c-0.1,0-0.1,0-0.1-0.1c0-0.1,0-0.1,0.1-0.1C16.9,20.5,17,20.6,17,20.7z"/>
	<path class="st21" d="M17,18.9c-0.1,0-0.2,0.1-0.2,0.1c-0.1-0.1-0.2-0.1-0.1-0.2c0-0.1,0.1,0,0.2,0C16.8,18.9,16.9,18.9,17,18.9z"
		/>
	<path class="st51" d="M17.1,22.6c-0.1,0.1-0.2,0.1-0.4,0.2C16.8,22.5,17,22.6,17.1,22.6C17.1,22.6,17.1,22.6,17.1,22.6z"/>
	<path class="st51" d="M24.3,27.6c0,0.1,0,0.1-0.1,0.1c0,0-0.1,0-0.1-0.1C24.1,27.6,24.2,27.5,24.3,27.6
		C24.3,27.5,24.3,27.5,24.3,27.6z"/>
	<path class="st52" d="M14.8,27.6c0.1,0.1,0.1,0.2,0,0.3c0,0-0.1,0-0.1,0C14.7,27.8,14.7,27.7,14.8,27.6z"/>
	<path class="st17" d="M16.1,22.3c0,0.1-0.1,0.2-0.1,0.2c-0.1,0-0.1,0-0.1-0.1C15.9,22.3,15.9,22.2,16.1,22.3
		C16,22.2,16.1,22.3,16.1,22.3z"/>
	<path class="st29" d="M14.9,13.5c-0.1,0-0.1,0.1-0.1,0.1c-0.1,0-0.1-0.1-0.1-0.1c0-0.1,0-0.1,0.1-0.1
		C14.8,13.4,14.9,13.4,14.9,13.5z"/>
	<path class="st51" d="M23.3,15.3c-0.1,0-0.1,0-0.1-0.1c0-0.1,0.1-0.1,0.1-0.1c0,0,0.1,0,0.1,0.1C23.4,15.2,23.3,15.3,23.3,15.3z"/>
	<path class="st32" d="M16.1,23.2c0,0,0,0.1,0,0.1c-0.1,0.1-0.1,0.2-0.3,0.1C15.9,23.4,16,23.3,16.1,23.2z"/>
	<path class="st38" d="M22.9,15.9c0,0,0.1,0,0.1-0.1c0,0.2,0,0.3-0.1,0.5C23,16.2,23,16.1,22.9,15.9C22.9,16,22.9,16,22.9,15.9z"/>
	<path class="st53" d="M18.9,20.4c0-0.1,0-0.1,0-0.2c0-0.1-0.1-0.1,0-0.2c0.1,0,0.1,0.1,0.2,0.1C18.9,20.2,19,20.4,18.9,20.4z"/>
	<path class="st26" d="M16.2,23.6C16.2,23.6,16.3,23.7,16.2,23.6c0,0.2,0,0.3-0.2,0.2C16,23.7,16.1,23.7,16.2,23.6z"/>
	<path class="st34" d="M17.9,23.7c-0.1,0.1-0.2,0.1-0.3,0c0-0.1,0.1-0.1,0.1-0.1C17.9,23.7,17.9,23.7,17.9,23.7z"/>
	<path class="st23" d="M20.9,22c0,0,0.1,0,0.1,0c0.1,0.2,0,0.2-0.2,0.3C20.9,22.2,20.9,22.1,20.9,22z"/>
	<path class="st44" d="M16.7,24.1c0,0.1-0.1,0.1-0.1,0.1c0,0-0.1,0-0.1-0.1c0-0.1,0.1-0.1,0.1-0.1C16.7,24.1,16.7,24.1,16.7,24.1z"
		/>
	<path d="M25.2,13.9C25.2,13.9,25.2,14,25.2,13.9c-0.1,0.1-0.2,0-0.2,0c0,0,0-0.1,0.1-0.1C25.2,13.8,25.2,13.8,25.2,13.9z"/>
	<path class="st54" d="M13.8,13.9c0,0.1-0.1,0.1-0.1,0.1c0,0-0.1,0-0.1-0.1C13.7,13.8,13.7,13.8,13.8,13.9
		C13.8,13.8,13.8,13.9,13.8,13.9z"/>
	<path class="st26" d="M24.4,15.3c0,0.1-0.1,0.2-0.2,0.1c0,0-0.1-0.1,0-0.1C24.2,15.3,24.3,15.3,24.4,15.3L24.4,15.3z"/>
	<path class="st35" d="M12.8,26c0,0,0.1,0.1,0.1,0.1c0,0.1-0.1,0.1-0.1,0.1c-0.1,0-0.1,0-0.1-0.1C12.7,26,12.7,26,12.8,26z"/>
	<path class="st44" d="M24.4,15.3c0,0,0-0.1,0-0.1c0-0.1,0-0.1,0.1-0.1c0,0,0.1,0,0.1,0c0,0.1,0,0.1,0,0.2
		C24.5,15.3,24.4,15.3,24.4,15.3C24.4,15.3,24.4,15.3,24.4,15.3z"/>
	<path class="st55" d="M12.4,14.6C12.4,14.6,12.3,14.6,12.4,14.6c-0.1,0.1-0.2,0-0.2,0c0,0,0-0.1,0.1-0.1
		C12.3,14.5,12.4,14.5,12.4,14.6z"/>
	<path class="st25" d="M21.7,23.8c0.2,0,0.3,0,0.5,0C22,23.9,21.8,24,21.7,23.8z"/>
	<path class="st27" d="M22.6,14.2c0-0.1-0.1-0.1-0.1-0.1c0,0,0-0.1,0.1-0.1C22.6,14,22.7,14.1,22.6,14.2
		C22.7,14.1,22.6,14.2,22.6,14.2z"/>
	<path class="st56" d="M15.8,22.9c0.1,0,0.1,0.1,0.1,0.1c0,0,0,0.1,0,0.1C15.8,23.1,15.7,23,15.8,22.9C15.7,23,15.8,22.9,15.8,22.9z
		"/>
	<path class="st57" d="M14.1,16.9c0-0.1,0.1-0.1,0.1-0.2c0,0.1,0,0.2,0,0.2C14.2,17,14.1,16.9,14.1,16.9z"/>
	<path class="st22" d="M12.4,25.1c0,0.1,0,0.1-0.1,0.1c0,0-0.1,0-0.1-0.1C12.3,25,12.3,25,12.4,25.1C12.4,25,12.4,25,12.4,25.1z"/>
	<path class="st58" d="M25,15.1c0,0,0.1,0,0.1,0c0,0.1,0,0.2-0.1,0.2C25,15.3,24.9,15.2,25,15.1z"/>
	<path class="st59" d="M19.8,20.4c0,0.1,0,0.2,0.1,0.2C19.7,20.6,19.7,20.6,19.8,20.4z"/>
	<path class="st60" d="M15.2,15.8c0,0-0.1,0.1-0.1,0.1c-0.1,0-0.1-0.1-0.1-0.1C15.1,15.7,15.1,15.7,15.2,15.8
		C15.2,15.7,15.2,15.8,15.2,15.8z"/>
	<path class="st40" d="M26.2,26.3C26.2,26.3,26.2,26.4,26.2,26.3c-0.1,0.1-0.1,0.1-0.2,0C26,26.3,26.1,26.2,26.2,26.3
		C26.2,26.2,26.2,26.3,26.2,26.3z"/>
	<path class="st27" d="M25.5,28c0-0.1-0.1-0.2,0-0.2c0-0.1,0-0.1,0.1-0.1c0,0,0.1,0.1,0,0.1C25.6,27.9,25.6,27.9,25.5,28z"/>
	<path class="st61" d="M18.2,19.9c0.1-0.1,0.2-0.3,0.3-0.2c0,0,0.1,0.1,0.1,0.2C18.5,20,18.4,19.9,18.2,19.9z"/>
</g>
</svg>
