<svg width="500" height="500" viewBox="0 0 500 500" fill="none" xmlns="http://www.w3.org/2000/svg">
<g clip-path="url(#clip0_160_1353)">
<path d="M500 0V500H0V0H500Z" fill="url(#paint0_linear_160_1353)"/>
<path d="M122 189.751V310.313C122 330.271 132.623 348.68 149.801 358.598L228.986 404.468C241.704 411.844 257.317 411.844 270.056 404.468L349.24 358.598C366.402 348.619 377.021 330.21 377.021 310.313V189.751C377.021 169.79 366.402 151.381 349.24 141.463L270.056 95.5322C257.317 88.1559 241.704 88.1559 228.986 95.5322L149.801 141.402C132.623 151.381 122 169.79 122 189.751Z" fill="#DC2626"/>
<path d="M346.203 246.837L317.118 236.921C306.438 233.263 298.468 224.213 296.247 213.119L283.936 152.248C283.63 150.699 282.285 149.584 280.675 149.584C279.064 149.584 277.699 150.699 277.393 152.248L265.103 213.119C262.881 224.213 254.912 233.263 244.231 236.921L215.146 246.837C213.781 247.271 212.925 248.574 212.925 249.998C212.925 251.425 213.842 252.664 215.146 253.16L244.231 263.078C254.912 266.736 262.881 275.786 265.103 286.88L277.393 347.751C277.699 349.3 279.064 350.415 280.675 350.415C282.285 350.415 283.63 349.3 283.936 347.751L296.247 286.88C298.468 275.786 306.438 266.736 317.118 263.078L346.203 253.16C347.569 252.728 348.425 251.425 348.425 249.998C348.425 248.574 347.508 247.334 346.203 246.837Z" fill="#FFFDF7"/>
<path d="M189.689 190.993L199.941 194.464C203.712 195.766 206.565 198.925 207.299 202.894L211.62 224.403C211.742 224.959 212.232 225.332 212.802 225.332C213.353 225.332 213.842 224.959 213.964 224.403L218.285 202.894C219.1 198.988 221.872 195.766 225.704 194.464L235.956 190.993C236.445 190.807 236.751 190.373 236.751 189.876C236.751 189.38 236.445 188.946 235.956 188.761L225.704 185.29C221.933 183.987 219.1 180.826 218.285 176.86L213.964 155.35C213.842 154.792 213.353 154.421 212.802 154.421C212.232 154.421 211.742 154.792 211.62 155.35L207.299 176.86C206.504 180.765 203.712 183.987 199.941 185.29L189.689 188.761C189.2 188.946 188.894 189.38 188.894 189.876C188.894 190.373 189.2 190.807 189.689 190.993Z" fill="#FFFDF7"/>
<path d="M213.658 296.612L199.88 291.963C194.825 290.229 191.055 285.95 189.995 280.682L184.206 251.859C184.064 251.115 183.391 250.62 182.657 250.62C181.903 250.62 181.23 251.115 181.108 251.859L175.299 280.682C174.26 285.95 170.489 290.229 165.414 291.963L151.656 296.612C151.024 296.798 150.596 297.419 150.596 298.1C150.596 298.783 151.024 299.403 151.656 299.588L165.414 304.237C170.489 305.972 174.26 310.25 175.299 315.519L181.108 344.341C181.23 345.085 181.903 345.58 182.657 345.58C183.391 345.58 184.002 345.024 184.206 344.341L189.995 315.519C191.055 310.25 194.825 305.972 199.88 304.237L213.658 299.588C214.27 299.403 214.718 298.783 214.718 298.1C214.718 297.419 214.27 296.798 213.658 296.612Z" fill="#FFFDF7"/>
</g>
<defs>
<linearGradient id="paint0_linear_160_1353" x1="250" y1="0" x2="250" y2="500" gradientUnits="userSpaceOnUse">
<stop stop-color="#282F3D"/>
<stop offset="1" stop-color="#101827"/>
</linearGradient>
<clipPath id="clip0_160_1353">
<rect width="500" height="500" fill="white"/>
</clipPath>
</defs>
</svg>
