<?xml version="1.0" encoding="utf-8"?>
<!-- Generator: Adobe Illustrator 22.0.0, SVG Export Plug-In . SVG Version: 6.00 Build 0)  -->
<svg version="1.1" id="Layer_1" xmlns="http://www.w3.org/2000/svg" xmlns:xlink="http://www.w3.org/1999/xlink" x="0px" y="0px"
	 viewBox="0 0 40 40" style="enable-background:new 0 0 40 40;" xml:space="preserve">
<style type="text/css">
	.st0{fill:url(#SVGID_1_);}
	.st1{fill:#FFFFFF;}
</style>
<linearGradient id="SVGID_1_" gradientUnits="userSpaceOnUse" x1="797.2169" y1="2647.1785" x2="834.5087" y2="2647.1785" gradientTransform="matrix(0 1 1 0 -2627.1785 -796.0419)">
	<stop  offset="1.198744e-03" style="stop-color:#09CCD1"/>
	<stop  offset="1" style="stop-color:#461EF3"/>
</linearGradient>
<path class="st0" d="M37,26.1V13.5c0-2.1-1.1-4.1-3-5.2L23,2c-1.9-1.1-4.1-1.1-6,0L6,8.3c-1.9,1.1-3,3.1-3,5.2v12.6
	c0,2.1,1.1,4.1,3,5.2l11,6.3c1.9,1.1,4.1,1.1,6,0l11-6.3C35.8,30.2,37,28.3,37,26.1z"/>
<path class="st1" d="M31.7,27.1L20,10.1l-11.7,17h16.3L20,20.6l-2.3,3.4h-2.4l4.7-6.8l6.8,9.9L31.7,27.1z"/>
</svg>
