<svg width="500" height="500" viewBox="0 0 500 500" fill="none" xmlns="http://www.w3.org/2000/svg">
<g clip-path="url(#clip0_898_905)">
<path d="M500 0V500H0V0H500Z" fill="url(#paint0_linear_898_905)"/>
<path fill-rule="evenodd" clip-rule="evenodd" d="M131.216 108.216L103 136.432V249.537V362.642L104.639 364.333C107.212 366.987 157.883 418.592 158.646 419.335L159.328 420H249.986H340.643L342.192 418.449C343.044 417.597 354.486 405.857 367.619 392.36C380.753 378.864 392.602 366.699 393.95 365.327L396.402 362.833V249.549V136.264L389.36 129.171C385.487 125.271 377.732 117.455 372.127 111.803C366.522 106.151 357.122 96.6834 351.238 90.7634L340.538 80H249.985H159.432L131.216 108.216ZM339.848 136.554C340.244 136.95 340.147 232.596 339.751 232.937C339.495 233.157 265.682 242.877 262.907 243.056C261.78 243.129 262.163 242.606 288.209 208.477C317.59 169.978 314.731 173.88 313.972 173.317C312.988 172.584 284.641 156.185 284.36 156.185C283.983 156.185 285.291 153.105 267.313 196.303C252.396 232.149 250.49 236.585 250.154 236.249C250.1 236.195 242.577 218.179 233.434 196.213C217.748 158.527 216.786 156.274 216.38 156.278C215.926 156.283 186.881 173.042 186.49 173.526C186.167 173.925 184.244 171.35 212.485 208.354C238.379 242.283 238.996 243.125 237.912 243.057C235.225 242.89 159.908 232.979 159.652 232.759C159.256 232.419 159.159 136.95 159.554 136.554C159.864 136.244 339.538 136.244 339.848 136.554ZM238.437 256.909C238.43 257.105 226.799 272.492 212.591 291.105C184.09 328.439 186.228 325.599 186.36 325.939C186.504 326.309 216.194 343.506 216.491 343.391C216.864 343.248 216.182 344.862 233.749 302.621C250.838 261.529 250.317 262.709 250.879 263.908C250.993 264.152 258.314 281.732 267.149 302.975C285.235 346.463 283.96 343.46 284.329 343.46C284.564 343.46 311.768 327.772 313.724 326.508C314.75 325.846 316.042 327.636 288.27 291.247C273.976 272.518 262.281 257.075 262.281 256.929C262.281 256.784 262.348 256.623 262.431 256.572C262.514 256.52 279.796 258.708 300.834 261.434C321.873 264.158 339.18 266.388 339.296 266.388C339.41 266.388 339.629 266.514 339.782 266.667C340.151 267.035 340.216 363.077 339.848 363.445C339.538 363.755 159.864 363.755 159.554 363.445C159.237 363.128 159.246 267.038 159.563 266.79C160.327 266.192 238.457 256.405 238.437 256.909Z" fill="#FF007A"/>
</g>
<defs>
<linearGradient id="paint0_linear_898_905" x1="250" y1="0" x2="250" y2="500" gradientUnits="userSpaceOnUse">
<stop/>
<stop offset="1"/>
</linearGradient>
<clipPath id="clip0_898_905">
<rect width="500" height="500" fill="white"/>
</clipPath>
</defs>
</svg>
