<svg id="Layer_1" data-name="Layer 1" xmlns="http://www.w3.org/2000/svg" xmlns:xlink="http://www.w3.org/1999/xlink" viewBox="0 0 40 40">
  <defs>
    <style>
      .cls-1 {
        fill: url(#linear-gradient);
      }

      .cls-2 {
        fill: #fff;
      }
    </style>
    <linearGradient id="linear-gradient" x1="20" y1="-1.37499" x2="20" y2="-38.62501" gradientTransform="translate(0 40)" gradientUnits="userSpaceOnUse">
      <stop offset="0" stop-color="#d71b1a"/>
      <stop offset="1" stop-color="#ff4040"/>
    </linearGradient>
  </defs>
  <title>optimism</title>
  <path class="cls-1" d="M37,26.3V13.7a6.00112,6.00112,0,0,0-3-5.2L23,2.2a5.867,5.867,0,0,0-6,0L6,8.5a6.00112,6.00112,0,0,0-3,5.2V26.3a6.00113,6.00113,0,0,0,3,5.2l11,6.3a5.867,5.867,0,0,0,6,0l11-6.3A6.09188,6.09188,0,0,0,37,26.3Z"/>
  <g id="optimism-logo">
    <g id="optimism-logo-circle">
      <path id="Path_139" data-name="Path 139" class="cls-2" d="M12.74006,26.312a5.61713,5.61713,0,0,1-3.42026-.98231,3.35816,3.35816,0,0,1-1.31536-2.84114,6.29817,6.29817,0,0,1,.08776-.94705q.228-1.26477.64887-3.03431a5.76029,5.76029,0,0,1,6.156-4.8234,6.11934,6.11934,0,0,1,2.42033.45609,3.67934,3.67934,0,0,1,1.68368,1.333,3.57709,3.57709,0,0,1,.61323,2.10489,6.24332,6.24332,0,0,1-.08777.92942q-.26331,1.561-.63124,3.0343a6.43014,6.43014,0,0,1-2.12214,3.59541A6.38563,6.38563,0,0,1,12.74006,26.312Zm.24568-2.52572a2.49125,2.49125,0,0,0,1.66643-.57872,3.22854,3.22854,0,0,0,.99956-1.77146q.40359-1.648.61322-2.8764a4.02368,4.02368,0,0,0,.07014-.75427q0-1.5963-1.66605-1.59591a2.56066,2.56066,0,0,0-1.68369.57872,3.28586,3.28586,0,0,0-.98231,1.77145q-.31581,1.1751-.63124,2.8764a3.7524,3.7524,0,0,0-.07013.73664q0,1.61354,1.68407,1.61354Z"/>
      <path id="Path_140" data-name="Path 140" class="cls-2" d="M20.42224,26.1368a.37177.37177,0,0,1-.29818-.12265.42154.42154,0,0,1-.0525-.31581l2.42032-11.4006a.502.502,0,0,1,.19163-.31581.53652.53652,0,0,1,.33344-.12265h4.66548a5.42245,5.42245,0,0,1,3.12208.80677A2.64453,2.64453,0,0,1,31.99723,16.999a4.19849,4.19849,0,0,1-.10539.91217A4.74868,4.74868,0,0,1,30.1204,20.893a5.9976,5.9976,0,0,1-3.613.96468H24.1399l-.80676,3.84109a.50249.50249,0,0,1-.19164.31581.53658.53658,0,0,1-.33306.12265Zm6.20889-6.70024a2.08916,2.08916,0,0,0,1.28049-.4032,1.89405,1.89405,0,0,0,.73664-1.15746,3.07537,3.07537,0,0,0,.0525-.52623.97464.97464,0,0,0-.29818-.7719,1.4702,1.4702,0,0,0-1.01719-.28055h-2.1045l-.6665,3.13934Z"/>
    </g>
  </g>
</svg>
