<?xml version="1.0" encoding="utf-8"?>
<!-- Generator: Adobe Illustrator 22.0.0, SVG Export Plug-In . SVG Version: 6.00 Build 0)  -->
<svg version="1.1" id="Layer_1" xmlns="http://www.w3.org/2000/svg" xmlns:xlink="http://www.w3.org/1999/xlink" x="0px" y="0px"
	 viewBox="0 0 40 40" style="enable-background:new 0 0 40 40;" xml:space="preserve">
<style type="text/css">
	.st0{fill:url(#SVGID_1_);}
	.st1{fill:#00D1FF;}
</style>
<linearGradient id="SVGID_1_" gradientUnits="userSpaceOnUse" x1="77.4169" y1="-1209.1785" x2="114.7087" y2="-1209.1785" gradientTransform="matrix(0 1 -1 0 -1189.1785 -76.0419)">
	<stop  offset="1.198744e-03" style="stop-color:#22216C"/>
	<stop  offset="1" style="stop-color:#0B032C"/>
</linearGradient>
<path class="st0" d="M37,26.3V13.7c0-2.1-1.1-4.1-3-5.2L23,2.2c-1.9-1.1-4.1-1.1-6,0L6,8.5c-1.9,1.1-3,3.1-3,5.2v12.6
	c0,2.1,1.1,4.1,3,5.2l11,6.3c1.9,1.1,4.1,1.1,6,0l11-6.3C35.8,30.4,37,28.5,37,26.3z"/>
<g>
	<path class="st1" d="M15,16.3c-0.1-0.2-0.3-0.2-0.5-0.2h-4.1h-0.1c0,0,0,0,0-0.1v-2.7v-0.1h0.1h4.3c1.1,0,2,0.5,2.8,1.4l1.1,1.3
		l-2,2.5L15,16.3z M22.5,14.5c0.8-0.9,1.8-1.4,2.8-1.4h4.3h0.1v0.1V16v0.1h-0.1h-4.1c-0.2,0-0.4,0.1-0.5,0.2L22,20l3,3.7
		c0.1,0.1,0.3,0.2,0.5,0.2h4.1h0.1V24v2.7v0.1h-0.1h-4.3c-1.1,0-2-0.5-2.8-1.4l-2.5-3l-2.5,3c-0.8,0.9-1.8,1.4-2.8,1.4h-4.3h-0.1
		v-0.1V24v-0.1h0.1h4.1c0.2,0,0.4-0.1,0.5-0.2l2.9-3.6L22.5,14.5z"/>
</g>
</svg>
