<svg id="Layer_1" data-name="Layer 1" xmlns="http://www.w3.org/2000/svg" xmlns:xlink="http://www.w3.org/1999/xlink" viewBox="0 0 40 40">
  <defs>
    <style>
      .cls-1 {
        fill: url(#linear-gradient);
      }

      .cls-2 {
        fill: #fff;
      }
    </style>
    <linearGradient id="linear-gradient" x1="20" y1="21.375" x2="20" y2="58.625" gradientTransform="matrix(1, 0, 0, -1, 0, 60)" gradientUnits="userSpaceOnUse">
      <stop offset="0" stop-color="#3b75ff"/>
      <stop offset="1" stop-color="#44e5c7"/>
    </linearGradient>
  </defs>
  <title>venus</title>
  <path class="cls-1" d="M37,26.3V13.7a6.00113,6.00113,0,0,0-3-5.2L23,2.2a5.867,5.867,0,0,0-6,0L6,8.5a6.00113,6.00113,0,0,0-3,5.2V26.3a6.00113,6.00113,0,0,0,3,5.2l11,6.3a5.867,5.867,0,0,0,6,0l11-6.3A6.09187,6.09187,0,0,0,37,26.3Z"/>
  <g>
    <path class="cls-2" d="M31.0015,12.77326a1.20411,1.20411,0,0,1,.29034.58308c.08468.18179-.0106.32723-.09844.47205-.52791.8703-1.13842,1.68481-1.70944,2.526-.70682,1.04123-1.386,2.10114-2.09707,3.13909q-1.72382,2.51639-3.44549,5.03425c-.74508,1.08788-1.47359,2.18705-2.212,3.27951-.786,1.16283-1.60748,2.30145-2.36953,3.48044-.09835.15216-.20136.27292-.40467.22727a1.0445,1.0445,0,0,1-.4951-.29824c-.03151-.48074.3384-.76587.56974-1.10469.66863-.97932,1.31768-1.97172,1.9866-2.95081.8462-1.23859,1.71444-2.46251,2.537-3.71674.86977-1.32615,1.80085-2.61012,2.66383-3.94115.69813-1.0768,1.46991-2.10464,2.169-3.18246.72482-1.11745,1.5236-2.18546,2.25546-3.29876C30.7299,12.888,30.80391,12.74425,31.0015,12.77326Z"/>
    <path class="cls-2" d="M31.0015,12.77326q-2.22268,3.3246-4.4978,6.61354c-1.06791,1.54519-2.09442,3.11893-3.14867,4.67364-1.07353,1.58316-2.16143,3.15657-3.237,4.73837-.50957.74943-1.00428,1.509-1.50831,2.26219a1.2018,1.2018,0,0,1-.14964.1557,1.41572,1.41572,0,0,1-.52845-.50759c1.01915-1.40055,1.96163-2.8537,2.9364-4.28467q1.22778-1.80238,2.45165-3.60748,2.21332-3.26656,4.42817-6.53209c.833-1.22193,1.65167-2.45393,2.51133-3.65762.09729-.13623.17849-.29691.38177-.30007A1.06074,1.06074,0,0,1,31.0015,12.77326Z"/>
    <path class="cls-2" d="M29.77124,18.0571c-.77451,1.35628-1.545,2.71485-2.32436,4.06836q-2.34147,4.06662-4.69086,8.12868A2.81125,2.81125,0,0,1,20.43207,31.783c-.22469-.11516-.10468-.25707-.02747-.39139.31353-.5454.68172-1.05535,1.034-1.57523,1.07161-1.58128,2.137-3.16692,3.22091-4.73968.5491-.79672,1.09644-1.59586,1.632-2.4004.9979-1.49893,2.043-2.96551,3.02843-4.47252.05991-.09162.10531-.198.20753-.24605C29.634,17.90777,29.76005,17.85385,29.77124,18.0571Z"/>
    <path class="cls-2" d="M21.84254,11.60714a.98291.98291,0,0,1,.56819.34818.56458.56458,0,0,1-.0932.608Q20.52332,15.19,18.73605,17.82149c-1.05595,1.55246-2.10766,3.108-3.17282,4.65431-.34338.4985-.67422,1.00654-1.02588,1.49988-.10632.14915-.21458.31582-.43936.17124a3.146,3.146,0,0,1-.42937-.65691.80337.80337,0,0,1,.18165-.49734c1.61319-2.33075,3.19942-4.67978,4.77847-7.03383.92492-1.37887,1.8758-2.74048,2.80492-4.11672C21.534,11.69351,21.64412,11.5776,21.84254,11.60714Z"/>
    <path class="cls-2" d="M18.9552,31.51494a10.79119,10.79119,0,0,0,.94579-1.37022c1.09962-1.59357,2.17255-3.20552,3.2635-4.80511,1.48784-2.18154,2.98818-4.35456,4.47315-6.538,1.12971-1.66111,2.24523-3.33189,3.36249-5.00143.09831-.1469.29578-.23005.29171-.4438a1.18041,1.18041,0,0,1,.15013.637.64585.64585,0,0,1,.02693.27163c-.452.87238-1.09079,1.62221-1.60952,2.45014-.4763.76022-.99161,1.49311-1.50116,2.22994-.855,1.23637-1.6527,2.51148-2.53468,3.72957-.49789.68764-.9401,1.41318-1.41925,2.11408-.86153,1.26021-1.73161,2.51475-2.58257,3.78208-.64164.95558-1.27179,1.91867-1.94321,2.854a.45546.45546,0,0,1-.55062.23065A.60813.60813,0,0,1,18.9552,31.51494Z"/>
    <path class="cls-2" d="M30.641,12.32718a15.78654,15.78654,0,0,1-.9895,1.48212c-1.31993,1.96156-2.65286,3.91437-3.98094,5.87045q-2.70546,3.98479-5.41128,7.96936-.95979,1.41235-1.92729,2.81947c-.09571.13972-.18386.29872-.40031.24053a.57488.57488,0,0,1-.20327-.295,11.53864,11.53864,0,0,1,1.32784-2.01859c.05892-.07478.14277-.13417.13061-.24585a3.42106,3.42106,0,0,0,1.05262-1.21442c.51158-.91395,1.05054-1.81258,1.57813-2.71756.145-.01374.19906-.13974.25634-.23689,1.15061-1.95138,2.47465-3.78825,3.747-5.65852.72865-1.071,1.4251-2.16376,2.177-3.21915.68843-.96633,1.33343-1.96264,2.01055-2.93687.054-.07769.07918-.18174.1921-.20348A1.03611,1.03611,0,0,1,30.641,12.32718Z"/>
    <path class="cls-2" d="M14.098,24.14692c.16579-.02742.23013-.16688.31065-.28568q1.64142-2.42151,3.28154-4.84391,1.67458-2.46573,3.35581-4.927c.38236-.56013.77258-1.11488,1.158-1.67292a1.28777,1.28777,0,0,0,.20674-.46213,1.08934,1.08934,0,0,1,.43606.58429.54685.54685,0,0,1-.09731.54179Q20.637,16.214,18.50718,19.33471c-1.10273,1.62184-2.162,3.27425-3.33951,4.84459-.14528.19374-.18425.54811-.57117.40867A1.01354,1.01354,0,0,1,14.098,24.14692Z"/>
    <path class="cls-2" d="M19.32789,31.65545c.35784-.01189.41593-.34817.56356-.55906.9504-1.35765,1.883-2.72785,2.81373-4.09916,1.31792-1.9418,2.62568-3.89048,3.94453-5.83164q1.25408-1.84584,2.50612-3.69309.97533-1.43961,1.95311-2.87845c.08352-.123.15571-.24652.31328-.28174a.47014.47014,0,0,1,.01948.395c-.13934.13135.02212.36283-.15977.48A30.7663,30.7663,0,0,1,29.45245,18.02c-.59887.85116-1.17076,1.72188-1.7627,2.57834-.37113.537-.74927,1.07065-1.10685,1.6152-.45148.68755-.92048,1.36276-1.3804,2.04417-.95522,1.41525-1.92139,2.82341-2.87368,4.24032-.63359.94271-1.311,1.85764-1.89039,2.83646-.19014.32121-.41951.53225-.82311.39466A.37621.37621,0,0,1,19.32789,31.65545Z"/>
    <path class="cls-2" d="M14.5965,24.588c.36194-.14558.45018-.528.64318-.802.87892-1.24774,1.75022-2.50145,2.58215-3.78265.77177-1.18857,1.61271-2.332,2.41167-3.50318q1.11657-1.63672,2.20379-3.29333c.14211-.217.413-.36042.4095-.6672a.61945.61945,0,0,1,.1442.42574,1.48385,1.48385,0,0,1-.34717,1.25019Q21.45123,16,20.23855,17.77105c-1.01489,1.47838-2.01509,2.96682-3.024,4.44928-.51714.75988-1.05441,1.50684-1.546,2.28437-.11645.18419-.23913.37922-.51437.308A.88821.88821,0,0,1,14.5965,24.588Z"/>
    <path class="cls-2" d="M15.15417,24.81273c.38569-.21128.50584-.63681.74475-.96072.57378-.77792,1.08377-1.60267,1.626-2.4041.76773-1.13464,1.5424-2.26457,2.31217-3.39784.96834-1.42562,1.928-2.85723,2.90814-4.27468a1.22574,1.22574,0,0,0,.24578-.8099,1.42137,1.42137,0,0,1-.11487,1.19254c-1.05975,1.85827-2.14326,3.703-3.21848,5.55242-.61141.77723-1.08222,1.64856-1.64017,2.45921a24.84976,24.84976,0,0,1-1.83413,2.55188.94734.94734,0,0,1-.11984.08089A1.28873,1.28873,0,0,1,15.15417,24.81273Z"/>
    <path class="cls-2" d="M30.20059,11.96275a.34832.34832,0,0,1-.08182.36507c-1.03422,1.49305-2.09028,2.972-3.08521,4.491-.989,1.50983-2.03928,2.97721-3.0301,4.48524q-.87842,1.33692-1.782,2.65708c-.08484.12323-.14664.36872-.40387.25657.65081-1.25435,1.411-2.446,2.10711-3.67454.5904-1.042,1.206-2.06973,1.81051-3.10377a.80321.80321,0,0,0,.27591-.33054c.44331-.74089.98272-1.41783,1.44535-2.14285.6224-.9754,1.36484-1.8704,1.91568-2.893.09285-.17238.213-.36228.471-.31515A.62158.62158,0,0,1,30.20059,11.96275Z"/>
    <path class="cls-2" d="M19.61532,31.72918a.56227.56227,0,0,0,.581-.32542c1.36277-2.03416,2.75452-4.049,4.10784-6.08934q.73233-1.10409,1.47852-2.19932c.79006-1.16082,1.58625-2.318,2.3729-3.48147q1.25137-1.85087,2.51163-3.69574a3.37842,3.37842,0,0,1,.61475-.7506.47861.47861,0,0,1-.06385.38019c-.46432.8403-.92858,1.68066-1.44684,2.48962-.12365-.07452-.18329.02527-.23388.10013-.7648,1.13152-1.5213,2.26868-2.28933,3.398-.87629,1.28851-1.76553,2.56821-2.64254,3.85624-.5303.77884-1.01939,1.58742-1.57907,2.34412-.6329.85569-1.14909,1.787-1.78709,2.63994a4.45832,4.45832,0,0,0-.80726,1.3875A1.648,1.648,0,0,1,19.61532,31.72918Z"/>
    <path class="cls-2" d="M8.98229,15.412a2.48633,2.48633,0,0,1,2.63761-3.868c.14936.15074.05965.295-.02589.4243-.73033,1.10424-1.44734,2.21754-2.22067,3.29277C9.2768,15.39531,9.16857,15.50675,8.98229,15.412Z"/>
    <path class="cls-2" d="M21.84254,11.60714a4.74292,4.74292,0,0,0-.6764.93822c-1.41517,2.05777-2.81177,4.12831-4.21434,6.19475q-1.45857,2.14892-2.91868,4.2968c-.10885.15966-.2424.30247-.3645.4531a.74649.74649,0,0,1-.166-.33839.58147.58147,0,0,1,.166-.53255c.66506-.91908,1.32359-1.84391,1.96335-2.77954.61406-.89807,1.23783-1.79093,1.82579-2.70765.67315-1.04956,1.41513-2.05331,2.09745-3.0971.48982-.74932,1.00077-1.4841,1.51468-2.21689.13593-.19381.27459-.3836.55967-.28142A.22894.22894,0,0,1,21.84254,11.60714Z"/>
    <path class="cls-2" d="M12.98874,12.42154a1.71647,1.71647,0,0,1,.45576.9438,3.24526,3.24526,0,0,1-.69039,1.00516,10.01,10.01,0,0,0-.71818,1.12076c-.16287.28429-.35429.54459-.54251.80929a.43066.43066,0,0,1-.37909.17249,1.48744,1.48744,0,0,1-.80784-.11461c-.146-.15308-.05961-.29733.03073-.42636.7701-1.09987,1.48663-2.23613,2.26523-3.33019C12.69894,12.4663,12.79714,12.34732,12.98874,12.42154Z"/>
    <path class="cls-2" d="M21.62951,11.53647c-.40247.03473-.49233.40813-.66714.65925-1.08575,1.55971-2.15323,3.13223-3.21726,4.70693-.92162,1.36395-1.82575,2.73973-2.74722,4.10378-.48787.7222-.9962,1.43058-1.4953,2.14519a.74976.74976,0,0,1-.215-.36736c-.06375-.52451.34033-.78843.62559-1.11748.02884-.03328.08387-.04259.10407-.09a2.384,2.384,0,0,0,.98541-1.12259c.146-.26287.31216-.51453.46925-.77123.295-.17809.3951-.50327.58-.765.9354-1.32387,1.84262-2.667,2.75817-4.00447.78468-1.14635,1.54372-2.31048,2.35271-3.44023A.67734.67734,0,0,1,21.62951,11.53647Z"/>
    <path class="cls-2" d="M12.98874,12.42154a9.97185,9.97185,0,0,0-1.06791,1.50011c-.55785.79833-1.12252,1.59395-1.61434,2.43678a1.25027,1.25027,0,0,1-.6532-.29721,12.35574,12.35574,0,0,1,.87363-1.3676c.53544-.80223,1.09593-1.58763,1.61927-2.3981.1-.15484.20418-.30283.41812-.29659A1.08829,1.08829,0,0,1,12.98874,12.42154Z"/>
    <path class="cls-2" d="M8.98229,15.412a2.73982,2.73982,0,0,0,.6251-.78746c.62124-.90214,1.22225-1.81823,1.8276-2.73124a3.85163,3.85163,0,0,0,.18491-.3493,1.064,1.064,0,0,1,.581.22015.62011.62011,0,0,1-.1277.44088c-.73929,1.13813-1.52846,2.2425-2.28075,3.37183-.09381.14083-.18652.33271-.4245.26338A.98716.98716,0,0,1,8.98229,15.412Z"/>
    <path class="cls-2" d="M9.3679,15.84026c.746-1.02679,1.45295-2.08012,2.15311-3.13847a5.6755,5.6755,0,0,1,.67984-.93762.69494.69494,0,0,1,.36346.23477q-1.28777,1.91444-2.57272,3.83076c-.08676.13-.17121.23315-.3383.23152A.52824.52824,0,0,1,9.3679,15.84026Z"/>
    <path class="cls-2" d="M16.06355,24.80243a2.09781,2.09781,0,0,1,.39257-.6799c.60055-.93361,1.291-1.80557,1.86155-2.75995a6.21989,6.21989,0,0,1,1.34-1.65212Q18.61521,21.535,17.5724,23.35939c-.126.22026-.24524.44552-.38686.65548A1.68267,1.68267,0,0,1,16.06355,24.80243Z"/>
    <path class="cls-2" d="M26.913,15.39372a3.85425,3.85425,0,0,0,.51674-1.51811,9.25692,9.25692,0,0,1,1.00936-1.6628,2.49,2.49,0,0,0,.37364-.73438,1.22412,1.22412,0,0,1,.65684.12974c.148.09788.17061.20406.06466.3613-.55745.8273-1.104,1.66166-1.6816,2.47565-.22934.32321-.42852.6688-.66183.99088-.05966.08236-.12362.16372-.2331.13247C26.871,15.54372,26.867,15.468,26.913,15.39372Z"/>
    <path class="cls-2" d="M11.11433,16.473c.10184-.06376.2857-.06533.19644-.27146a.12682.12682,0,0,1,.07294-.18094c.28263-.09208.33576-.36677.467-.57586A6.28323,6.28323,0,0,1,13.01508,13.802c.0823-.06846.08958-.1676.12715-.25531.056-.13071.13121-.23835.30227-.18131a1.30239,1.30239,0,0,1,.06911.72939,1.88924,1.88924,0,0,1-.53805,1.008c-.27432.31564-.45919.69119-.70138,1.0281A2.01684,2.01684,0,0,1,11.11433,16.473Z"/>
    <path class="cls-2" d="M21.16277,11.47324a6.43816,6.43816,0,0,1-.961,1.6068c-1.29517,1.93206-2.6176,3.84584-3.93074,5.76584-.17739.25937-.35446.51938-.54395.76981-.05476.07237-.11611.25765-.25522.06722a12.54589,12.54589,0,0,1,.86364-1.51624,3.97674,3.97674,0,0,0,.74377-1.05581c.39382-.65371.88181-1.23816,1.29992-1.87232.57058-.86542,1.16262-1.7163,1.74309-2.575a12.74232,12.74232,0,0,1,.82193-1.19044Z"/>
    <path class="cls-2" d="M20.36151,11.47317l.36419-.00008c.16737.18136.0083.31832-.07729.44681-.49431.74209-1.00209,1.47518-1.497,2.217-.39432.591-.77711,1.19036-1.221,1.74631-.08809.11031-.1589.29836-.366.1707q.61425-1.08093,1.228-2.16215c.11206-.198.218-.39946.32679-.59933A4.77531,4.77531,0,0,1,20.36151,11.47317Z"/>
    <path class="cls-2" d="M19.18683,28.14964c.13329.183.00858.33634-.08663.46048-.3981.519-.75005,1.06783-1.09643,1.62121-.06141.09811-.1151.2257-.27539.18275a2.63693,2.63693,0,0,1-.37895-.64919,1.47436,1.47436,0,0,1,.36965-.68563c.197-.21655.16374-.365-.05662-.51471a.10274.10274,0,0,1,.00443-.09894A2.81246,2.81246,0,0,0,19.18683,28.14964Z"/>
    <path class="cls-2" d="M17.56436,16.05387a3.18474,3.18474,0,0,0,.84483-.97248c.7142-1.03112,1.40732-2.07684,2.1093-3.11644a.884.884,0,0,0,.20721-.49186l.21853.00005a1.62445,1.62445,0,0,1-.35486.70729c-1.1235,1.66888-2.23961,3.34308-3.39124,4.99242-.24719.354-.40952.80845-.86261.99382Z"/>
    <path class="cls-2" d="M26.913,15.39372c.14756.17848.20206-.01025.25378-.08066.206-.2804.39662-.57208.59288-.85963q.8222-1.20462,1.64513-2.40873a.39148.39148,0,0,0,.06479-.43653.6232.6232,0,0,1,.37354.14966.78645.78645,0,0,0-.30253.30769c-.56067.97479-1.26182,1.8557-1.86364,2.80369-.5167.8139-1.0971,1.58735-1.6483,2.3794a.39733.39733,0,0,1-.29348.19074C26.09644,16.73941,26.493,16.0598,26.913,15.39372Z"/>
    <path class="cls-2" d="M20.36151,11.47317a7.59656,7.59656,0,0,1-1.24237,1.81922,1.93193,1.93193,0,0,0-.14446-1.15753.58177.58177,0,0,1,.22128-.662Z"/>
    <path class="cls-2" d="M28.81277,11.47843c.1892.07423.25873.1371.0989.35328-.37254.50387-.702,1.03975-1.0447,1.56542a1.5383,1.5383,0,0,1-.4372.47847l-.08405-.65144a4.03088,4.03088,0,0,1,1.24727-1.751Z"/>
    <path class="cls-2" d="M28.593,11.47318a8.17849,8.17849,0,0,1-1.24727,1.751l-.28724-.65853a5.50173,5.50173,0,0,1,.806-1.0924Z"/>
    <path class="cls-2" d="M17.66664,28.51235c.17055.03588.41947-.087.49984.09168.08341.1854-.12161.35012-.24648.485-.201.21715-.24607.56572-.57057.67583a2.30894,2.30894,0,0,1-.33975-.58891C16.95088,28.68445,17.1823,28.45069,17.66664,28.51235Z"/>
    <path class="cls-2" d="M14.01722,21.57673a8.04871,8.04871,0,0,1-.72966,1.20753,6.11137,6.11137,0,0,1-.64778-1.11326c-.05564-.13469-.03716-.20408.12749-.14472a.72645.72645,0,0,0,.45519.14347.57534.57534,0,0,0,.43693.00165Z"/>
    <path class="cls-2" d="M12.27418,16.13079a1.07491,1.07491,0,0,1,.21389-.691c.19022-.23778.34124-.54228.54416-.74556a3.84736,3.84736,0,0,0,.48138-.59947A2.29816,2.29816,0,0,1,12.27418,16.13079Z"/>
    <path class="cls-2" d="M27.86445,11.47323A1.98549,1.98549,0,0,1,27.2789,12.5a.19336.19336,0,0,1-.22042.0656l-.50706-.58282A4.10806,4.10806,0,0,0,27.136,11.473Z"/>
    <path class="cls-2" d="M17.66664,28.51235c-.38258.05927-.50176.37927-.657.66363L16.231,27.89476l.04712-.07648a2.93381,2.93381,0,0,0,1.38879.64733Q17.66662,28.489,17.66664,28.51235Z"/>
    <path class="cls-2" d="M27.136,11.473c-.058.4516-.236.60682-.58457.50982a9.93148,9.93148,0,0,0-.86061-.50982Z"/>
    <path class="cls-2" d="M19.196,11.47281c-.0059.24336.02076.49761-.22128.662a3.11281,3.11281,0,0,0-.67283-.662Z"/>
    <path class="cls-2" d="M12.76727,21.52628a.20148.20148,0,0,0-.12749.14472l-.222-.34153A.4994.4994,0,0,1,12.76727,21.52628Z"/>
    <path class="cls-2" d="M31.4417,14.70727q-.00965-.19747-.01939-.39495.00973-.15942.01967-.31889A1.12449,1.12449,0,0,1,31.4417,14.70727Z"/>
    <path class="cls-2" d="M13.65939,21.6714a.37176.37176,0,0,1-.43693-.00165Z"/>
  </g>
</svg>
