<?xml version="1.0" encoding="utf-8"?>
<!-- Generator: Adobe Illustrator 22.0.0, SVG Export Plug-In . SVG Version: 6.00 Build 0)  -->
<svg version="1.1" id="Layer_1" xmlns="http://www.w3.org/2000/svg" xmlns:xlink="http://www.w3.org/1999/xlink" x="0px" y="0px"
	 viewBox="0 0 500 500" style="enable-background:new 0 0 500 500;" xml:space="preserve">
<style type="text/css">
	.st0{fill:#111621;}
	.st1{fill:#22BDFB;}
	.st2{fill:#387DFC;}
	.st3{fill:#3D70FD;}
	.st4{fill:#3FDECD;}
	.st5{fill:#3090FB;}
	.st6{fill:#3388FB;}
	.st7{fill:#3EA3DE;}
	.st8{fill:#4189DD;}
	.st9{fill:#3FBAD6;}
	.st10{fill:#39A8E1;}
	.st11{fill:#3DA1DE;}
	.st12{fill:#4590CE;}
	.st13{fill:#41B1D9;}
	.st14{fill:#44A7CC;}
	.st15{fill:#4768D9;}
	.st16{fill:#4363D0;}
	.st17{fill:#41AFD4;}
	.st18{fill:#3FB0DB;}
	.st19{fill:#369CD4;}
	.st20{fill:#4570CC;}
	.st21{fill:#0A1C51;}
	.st22{fill:#172277;}
	.st23{fill:#2B4293;}
	.st24{fill:#11306C;}
	.st25{fill:#0A2A5C;}
	.st26{fill:#38479A;}
	.st27{fill:#2D4D91;}
	.st28{fill:#4EACB2;}
</style>
<rect x="0.7" y="0" transform="matrix(6.123234e-17 -1 1 6.123234e-17 0.7334 500.7334)" class="st0" width="500" height="500"/>
<g>
	<path class="st1" d="M277,165.3c-4.2,9-9.3,17.4-14.8,25.6c-6.1,6.7-9.2,15.4-14.3,22.8c-2.7,3.9-5.2,8-6.2,12.7
		c-3.4,7.1-7.3,13.9-11.8,20.3c-9.3,13.3-17.7,27.2-25,41.6c-8.6,17.1-36.9,21.6-48,6.6c-1.9-2.5-4.4-4.6-6.3-7.1
		c-7.4-12.5-14.8-25-22.1-37.5c6.3,2,12,3.7,18.2,3.1c11.6-1.1,16.8-9.6,22-18.4c7.1-6.5,9.2-15.9,14.1-23.7l0,0.1
		c5.6-8.4,11.9-16.4,14.9-26.3c1.2-3.3,2.8-6.3,5.2-8.9c5.4-6.2,8.7-13.5,12.1-20.8l0,0.1c5.1-3.9,6.8-9.8,9.2-15.2
		c6.3-10.4,14.3-19.9,13.2-33.5c-0.4-5-4.8-8.6-3.8-13.7c0.7-2.7,3.5-3.2,5.1-4.9c10.2-0.1,20.4-0.4,30.6-0.2
		c10.9,0.2,19.6,4.8,25.1,14.5c2.5,5.2,0.7,11.6,4.2,15.7c0.1,12.9-9.7,20.8-12.9,31.6l0.1,0C281.9,154.6,278.7,159.6,277,165.3z"/>
	<path class="st2" d="M244.4,352.6c11-13.2,18.1-28.8,26.7-43.4c19.8-33.8,39.2-67.8,58.7-101.8c0.7-1.2,1.8-2.3,2.7-3.4
		c3.6-2.2,8.8-1.5,11.3-6c1.2-2.4-0.6-4.8,0.5-8.5c2.9-5.7,10.2-9,14.5-15.2c5.5-8,10.8-16.1,14.7-25c2-4.5,4.3-8.5,8-12
		c6.3-5.8,10.1-13.7,14.4-21c2.9-5,6.9-9.4,8.3-15.1c-1.8-6-6.6-6.1-11.2-6.6c-3.5-0.4-7.9-0.3-5.9-6.1c17.9-1.3,31.4,6.1,41,21
		c5.9,9.2,3.8,18.1-1.1,26.8c-3.5,6.1-7.2,12.2-12,17.5c-3.5,3.9-7,7.5-7.6,13c-0.1,1-0.5,2.1-1.3,2.6c-9.6,6.1-13.4,17.1-20.7,25.2
		c-8.1,8.9-13.2,20.3-19,31c-3.6,6.6-6.9,12.9-13.1,18.1c-6.6,5.5-10.8,13.8-15.1,21.4c-5.4,9.5-11.6,18.4-17.6,27.5
		c-3.6,5.5-8.7,9.8-10.3,16.6c-0.4,1.9-1.8,3.6-3.1,4.9c-13.7,13.1-20.2,31.5-33.4,44.9c-0.8,0.9-1.5,2-1.9,3.1
		c-4.9,15.2-16.5,26.1-25.6,38.5c-2.9,3.9-2,9.9-7.4,12.3c-3.4,1-6-0.8-8.6-2.7c-1.6-0.4-3.2-0.6-4.6-1.4c-0.3-1.1-0.9-1.7-2.1-1.8
		c-2.3-2.9-4.7-5.5-8-7.3c-0.1-0.5-0.3-0.9-0.4-1.4c1.2-5.2,4.9-8.8,8.2-12.6c2.1-2.4,3.8-5,5.2-8.5c-2.1-5.5-2.3-10.9,4.7-13.7
		c0,0-0.5-1.3-0.6-2c2-1.4,4.1-2.8,6.1-4.2C240.7,355.7,242.4,354,244.4,352.6z"/>
	<path class="st3" d="M229.9,408.4c2,0.9,4,1.8,6,2.7c0.9-0.6,2.1-1,2.4-1.7c4.9-12.8,13.4-23,22.8-32.5c3.1-3.2,2.6-7.7,4.6-11.4
		c5.3-10,14.3-17.5,19.2-27.6c6.7-13.8,20.5-22.8,25.1-37.9c1.1-3.7,5.1-5.2,7.1-8.3c9.4-14.7,17.6-30.4,28.7-43.7
		c10.2-12.2,19.3-25,26.1-38.9c6.2-12.9,17.8-21.4,23.4-34.3c1.7-3.9,5.5-5.4,8.8-7.7c0.1-6.2,3.5-10.3,7.4-14.5
		c7.9-8.5,13.3-18.6,17.5-29.4c1.9-4.8-1.3-9-0.8-13.6c11.1,16.2,10.2,32.8,1.5,49.6c-1.3,1.7-1,4.2-2.9,5.6l-0.1,0
		c-0.3,0.4-0.7,0.9-1.1,1.3c-0.4,0.4-0.8,0.8-1.2,1.2c-0.5,0.3-1,0.7-1.4,1.1c-1.2,1.5-0.8,3.7-2,5.2l0,0c-4,4.3-6.1,9.7-8.6,14.9
		l0.1-0.1c-2.4,1.1-1.8,3.9-3.2,5.6l-0.1,0.1c-2.4,2.7-4.3,5.7-5.5,9.1l0.1-0.1c-5.9,5.8-7.7,13.8-11.8,20.6l0.1-0.1
		c-6.8,5.3-6.4,14.5-11.1,20.9c-7.6,4.6-8,13.8-12.6,20.3c-9.3,16.5-18.6,32.9-27.9,49.4c-6.2,10.9-12.7,21.8-19,32.7
		c-1.8,1.5-1.4,4.2-3.1,5.7l0,0c-1.3,1.3-1.8,3-2.7,4.5c-7.8,13.4-15.4,27.1-23.6,40.3c-12.5,20.3-41.4,26.8-61.8,14.1
		C229,410.4,229,409.4,229.9,408.4z"/>
	<path class="st4" d="M138.9,150c-8.8,15.2-27.1,22.8-44.1,18.4c-18.3-4.7-30.8-20.4-31-38.8c-0.2-18.9,11.5-34.7,29.5-40
		c17.3-5.1,36.3,2.3,45.8,17.8c6.6,10.7,7.5,22,4.1,33.8c-0.8,0.8-0.6,2.1-1.3,3l0-0.1c-1,0.8-0.8,2.1-1.4,3.1l0-0.1
		C139.3,147.7,139.8,149.3,138.9,150z"/>
	<path class="st5" d="M387.1,88.5c2.1,4,6,2.6,9.2,2.8c8.5,0.5,11.6,3.3,12.4,11.8c-17.8,27.5-35.6,54.9-52.4,80.9
		c-3.7,3.2-7.7,2.7-9.9,7.4c-1.1,2.7,2.9,7.4-1,11.8c-3.9,1.3-8.3,2.4-12.9,0.9c-0.1-0.5,0.1-0.9,0.5-1.2c0.9-1,1.1-2.2,1.6-3.4
		c0.4-0.5,0.9-0.9,1.5-1.2c3.3-2.5,4.2-6.4,5.5-10l0.1-0.1c1.3-1.3,2-3,2.6-4.8c-0.1-0.5,0.1-0.9,0.5-1.1c1-0.9,2-1.7,2.2-3.2
		l0.1-0.1c2.5-1,2.1-3.7,3.1-5.6l0.1-0.1c6.9-9.8,14.5-19.2,17.5-31.2c-0.1-0.5,0.1-0.8,0.5-1.1c3.2-3.4,1-8,2.5-11.8
		c-0.5-8.1-2.3-15.8-5.8-23.1c-1.8-4.9-6.1-7.9-9.3-11.7c-1.5-1.8-3.9-3.2-2.2-6.1C364.5,88.4,375.8,88.4,387.1,88.5z"/>
	<path class="st6" d="M232.7,361.3c3.6,0.7,7.9-1.3,11,2.7c-2.1,8.3-10.7-0.2-13.7,5.3c-0.2,2.9,3.4,3.4,3.7,6.7
		c-3.8,8.8-10.7,15.9-18.5,22.1c0,0-0.1,0-0.1,0c-4.3-10.3-10.7-19.4-16.3-29.1c-1.6-2.8-3.9-5.1-0.7-8.6c7.9,2.5,15.4,8.5,24.4,3.5
		C225.8,363.2,229.3,362.2,232.7,361.3z"/>
	<path class="st7" d="M150.6,287.9c5.6,2.3,8.3,8.1,13.2,11.2c12.3,7.8,36.1,1.4,42.5-16.5c4.4-12.2,13.2-22.4,20-33.5
		c0.7-1.1,2.4-1.6,3.6-2.3c-8.1,16.1-16.7,32.1-27,46.8C189.6,312.7,160.6,309.1,150.6,287.9z"/>
	<path class="st8" d="M222.4,364.1c-8.2,7.1-15.6,2-22.8-1.6c-2.1,1.3-1.9,2.9-0.9,4c6.3,7.2,8.6,16.8,14.6,24.2
		c1.9,2.2,2,4.9,1.6,7.6c-5.2-6.3-22.5-36.9-24.4-43.6C200.6,361.4,210.9,364.8,222.4,364.1z"/>
	<path class="st9" d="M238.8,88.4c-2.2,4.4-2.9,8.4-1,13.7c2.2,6.2,2.3,13.5-1.3,19.9c-3.8,6.7-5.6,14.6-12.3,19.5
		c-0.3-0.3-0.6-0.5-0.9-0.8c0.2-0.3,0.4-0.7,0.7-1l0-0.1c0.9-0.7,0.5-2.1,1.5-2.8c2.2-4,4.5-8.1,6.7-12.1
		c7.3-13.5,4.9-24.8-7.3-33.9c-0.7-0.5-1.4-1-3.3-2.4C228.3,88.4,233.5,88.4,238.8,88.4z"/>
	<path class="st10" d="M285.8,150.1c-0.7-4.4,1.6-7.4,3.6-11.2c4.1-7.4,10.8-14.6,5.6-24.7c-1.6-3.1-0.4-7.6-0.5-11.5
		c5.6,7.8,6.8,16.5,3.6,25.4C295.3,136.1,291.2,143.5,285.8,150.1z"/>
	<path class="st11" d="M241.7,226.5c-0.8-10.3,6.7-17,11.6-24.5c2.5-3.8,1.6-11,8.9-11.1C256.2,203.3,249.3,215.1,241.7,226.5z"/>
	<path class="st2" d="M367.7,142.2c0,13.6-8.3,22.6-17.5,31.2C355,162.4,361.6,152.4,367.7,142.2z"/>
	<path class="st12" d="M353.3,88.4c2.2,3.9,5.3,7,8.5,10c2.2,2.1,3.6,4.6,3.1,7.8c-6.3-6.6-12.4-13.6-23.1-16.8
		C346.5,87.5,349.9,88.2,353.3,88.4z"/>
	<path class="st13" d="M197.6,185.3c0,3.1,0,6.2,0,9.6c-8.3,2.8-6.6,14-14.9,16.6C186.8,202.3,191.8,193.5,197.6,185.3z"/>
	<path class="st14" d="M182.7,211.4c-1,8.6-6.3,15.3-10.1,22.6c-0.4,0.8-2.6,0.8-4,1.1C172.8,226.9,176.8,218.6,182.7,211.4z"/>
	<path class="st15" d="M391.6,223.6c-0.3-7.1,5.4-12.1,6.8-18.6c0.4-2,3-2,5-2C401,210.8,396.5,217.3,391.6,223.6z"/>
	<path class="st16" d="M368,264.8c2.5-7.8,3.1-16.5,11.3-21.3c0.6,0.2,1,0.6,1.2,1.1c0.1,0.9-0.2,1.7-0.9,2.3
		C375,252.4,373.3,259.7,368,264.8z"/>
	<path class="st15" d="M379.3,243.5c2.7-7.5,3.7-16.1,12.3-19.9c0.2,3.3-2.8,5.3-3.3,8.3c-2.6,4.3-2.8,10.2-8.5,12.3
		C379.7,243.9,379.5,243.7,379.3,243.5z"/>
	<path class="st17" d="M215,155.6c-1.2,8.6-4.9,15.7-12.1,20.8C206.3,169.1,209.8,161.8,215,155.6z"/>
	<path class="st18" d="M224,139.7c0.1,0.6,0.1,1.2,0.2,1.8c-0.5,6.4-2,12.2-9.3,14.2C216.8,149.7,220.3,144.7,224,139.7z"/>
	<path class="st19" d="M277,165.3c-0.3-7,2.3-12.3,8.9-15.3C283.8,155.7,281.1,160.9,277,165.3z"/>
	<path class="st20" d="M229.9,408.4c0,1,0,2.1,0,3.1c-6.5-1.9-10.6-6.7-14.3-11.9c5.6-0.8,6.8,4.6,10,7.2l0.1,0.1
		C227.1,407.4,228.5,407.9,229.9,408.4z"/>
	<path class="st15" d="M412.1,188.4c0.6-6.3,2.4-11.8,8.6-14.9C418.6,178.9,416.1,184,412.1,188.4z"/>
	<path class="st21" d="M379.8,244.1c2.8-4.1,5.7-8.2,8.5-12.3c-0.7,6.3-2.5,12-8.7,15.1C379.7,246,379.8,245.1,379.8,244.1z"/>
	<path class="st2" d="M341.5,188.3c0.1,4.9,0.1,9.8-6.1,11.3c-0.6-0.9-0.7-1.8,0.1-2.7l0,0c1-0.6,0.6-2.1,1.6-2.7
		C339.2,192.6,338.8,189.3,341.5,188.3z"/>
	<path class="st15" d="M403.4,203.1c-0.5-4.5,1.4-7.5,5.5-9.1C407.6,197.4,406.5,200.9,403.4,203.1z"/>
	<path class="st2" d="M370.7,129.3c-0.4,4,2,8.7-2.5,11.8C369,137.2,369.9,133.2,370.7,129.3z"/>
	<path class="st15" d="M420.7,173.4c0-2.8-0.5-5.8,3-7.2c0.9,1,0.8,2,0.1,3C423.2,170.9,422.4,172.5,420.7,173.4z"/>
	<path class="st2" d="M350.2,173.4c0.1,2.5,0.1,4.9-3.1,5.6C347.2,176.6,348.2,174.8,350.2,173.4z"/>
	<path class="st15" d="M409,193.9c-0.1-2.5,0.2-4.9,3.2-5.6C411.9,190.6,411,192.6,409,193.9z"/>
	<path class="st22" d="M426.6,164.6c0.3-2.2,1.2-4.1,2.9-5.6C429.7,161.5,429.6,163.8,426.6,164.6z"/>
	<path class="st23" d="M317.9,352.6c-0.2-2.6,0.7-4.5,3.1-5.7C321.2,349.4,320.2,351.3,317.9,352.6z"/>
	<path class="st24" d="M244.4,352.6c-1.1,2.4-3,3.8-5.6,4.4C239.7,354.4,241.6,353,244.4,352.6z"/>
	<path class="st2" d="M344.2,183.4c0.1,2.1-0.4,3.9-2.6,4.8C341.8,186.2,342.7,184.6,344.2,183.4z"/>
	<path class="st25" d="M335.5,196.9c0,0.9-0.1,1.8-0.1,2.7c0,0,0,0.1,0,0.1c-0.6,1.1-1,2.3-2.7,1.8
		C332.6,199.4,333,197.5,335.5,196.9z"/>
	<path class="st26" d="M315.2,357.1c-0.3-2.2,0.3-3.9,2.7-4.5C317.9,354.6,317,356.1,315.2,357.1z"/>
	<path class="st27" d="M423.9,169.2c0-1-0.1-2-0.1-3c0,0,0,0,0,0c0.5-0.5,0.9-1,1.4-1.5c0.5,0,0.9,0,1.4,0
		C426.4,166.6,425.6,168.2,423.9,169.2z"/>
	<path class="st2" d="M347,179.1c0,1.5-0.8,2.6-2.2,3.2C345,180.8,345.5,179.6,347,179.1z"/>
	<path class="st2" d="M332.8,201.6c0.9-0.6,1.8-1.2,2.7-1.8c-0.2,1.5-1,2.5-2.5,3.1C332.9,202.4,332.8,202,332.8,201.6z"/>
	<path class="st18" d="M225.5,136.9c-0.5,0.9-1,1.9-1.5,2.8C224.5,138.7,225,137.8,225.5,136.9z"/>
	<path class="st28" d="M141.9,144.2c-0.1-1.3,0.3-2.3,1.3-3C143.3,142.5,143,143.5,141.9,144.2z"/>
	<path class="st25" d="M337.2,194.2c0,1.2-0.4,2.2-1.6,2.7C335.6,195.7,336,194.7,337.2,194.2z"/>
	<path class="st28" d="M138.9,150c0-1.3,0.6-2.3,1.7-2.9C140.6,148.5,139.9,149.4,138.9,150z"/>
	<path class="st28" d="M140.5,147.2c0.5-1,0.9-2.1,1.4-3.1C142,145.4,141.6,146.5,140.5,147.2z"/>
	<path class="st3" d="M225.6,406.8C225.6,406.8,225.6,406.8,225.6,406.8C225.6,406.8,225.6,406.8,225.6,406.8z"/>
	<path class="st15" d="M425.1,164.6c-0.5,0.5-0.9,1-1.4,1.5C424.2,165.6,424.6,165.1,425.1,164.6z"/>
</g>
</svg>
