<?xml version="1.0" encoding="utf-8"?>
<!-- Generator: Adobe Illustrator 22.0.0, SVG Export Plug-In . SVG Version: 6.00 Build 0)  -->
<svg version="1.1" id="Layer_1" xmlns="http://www.w3.org/2000/svg" xmlns:xlink="http://www.w3.org/1999/xlink" x="0px" y="0px"
	 viewBox="0 0 40 40" style="enable-background:new 0 0 40 40;" xml:space="preserve">
<style type="text/css">
	.st0{fill:url(#SVGID_1_);}
	.st1{fill:#425CC7;}
	.st2{fill:#005CB9;}
	.st3{fill:#3CB4E5;}
	.st4{fill:#00A0DF;}
</style>
<linearGradient id="SVGID_1_" gradientUnits="userSpaceOnUse" x1="-12.6831" y1="1047.1785" x2="24.6086" y2="1047.1785" gradientTransform="matrix(0 1 1 0 -1027.1785 13.9581)">
	<stop  offset="1.198744e-03" style="stop-color:#419BDE"/>
	<stop  offset="1" style="stop-color:#07316D"/>
</linearGradient>
<path class="st0" d="M37,26.2V13.6c0-2.1-1.1-4.1-3-5.2L23,2.1c-1.9-1.1-4.1-1.1-6,0L6,8.4c-1.9,1.1-3,3.1-3,5.2v12.6
	c0,2.1,1.1,4.1,3,5.2l11,6.3c1.9,1.1,4.1,1.1,6,0l11-6.3C35.8,30.3,37,28.4,37,26.2z"/>
<title>Asset 1</title>
<title>Asset 1</title>
<g>
	<path id="Fill-3" class="st1" d="M20.4,23.4v7.9c0,0.4-0.3,0.6-0.6,0.4l-4.5-2.5c-0.4-0.2-0.6-0.7-0.6-1.1v-7.7
		c0.1,0.1,0.1,0.1,0.2,0.1L20.4,23.4z"/>
	<g id="Group-7" transform="translate(0.000000, 7.985345)">
		<g id="Clip-6">
		</g>
		<path id="Fill-5" class="st2" d="M15.2,11.7l9-4.6c0.3-0.2,0.5-0.5,0.5-0.9V0.6c0-0.3-0.2-0.5-0.5-0.4l-8.3,4.3
			c-0.9,0.5-1.3,0.7-1.2,1.6v5.2C14.7,11.6,14.9,11.8,15.2,11.7"/>
	</g>
	<path id="Fill-8" class="st3" d="M15.2,13.2l9,4.6c0.3,0.2,0.5,0.5,0.5,0.9v5.6c0,0.3-0.2,0.5-0.5,0.4l-9-4.6
		c-0.3-0.2-0.5-0.5-0.5-0.9v-5.6C14.7,13.3,14.9,13.1,15.2,13.2"/>
	<path id="Fill-10" class="st4" d="M15.2,19.6l6.3-3.2l-6.3-3.2c-0.1-0.1-0.2-0.1-0.3,0c-0.1,0.2-0.1,0.4-0.1,0.5v5.4
		c0,0.1,0,0.2,0.1,0.3C14.9,19.7,15,19.7,15.2,19.6C15.2,19.7,15.2,19.7,15.2,19.6"/>
</g>
</svg>
