<?xml version="1.0" encoding="utf-8"?>
<!-- Generator: Adobe Illustrator 22.0.0, SVG Export Plug-In . SVG Version: 6.00 Build 0)  -->
<svg version="1.1" id="Layer_1" xmlns="http://www.w3.org/2000/svg" xmlns:xlink="http://www.w3.org/1999/xlink" x="0px" y="0px"
	 viewBox="0 0 500 500" style="enable-background:new 0 0 500 500;" xml:space="preserve">
<style type="text/css">
	.st0{fill:url(#SVGID_1_);}
	.st1{fill:#00D1FF;}
</style>
<title>decentraland</title>
<linearGradient id="SVGID_1_" gradientUnits="userSpaceOnUse" x1="1539" y1="619.3" x2="1039" y2="619.3" gradientTransform="matrix(0 -1 -1 0 869.3 1539)">
	<stop  offset="0" style="stop-color:#22216C"/>
	<stop  offset="1" style="stop-color:#0B032C"/>
</linearGradient>
<polygon class="st0" points="500,0 500,500 0,500 0,0 "/>
<g>
	<path class="st1" d="M152.1,178.5c-2-3.9-5.9-3.9-9.8-3.9H62h-2c0,0,0,0,0-2v-52.9v-2h2h84.2c21.5,0,39.2,9.8,54.8,27.4l21.5,25.5
		l-39.2,49L152.1,178.5z M299,143.2c15.7-17.6,35.3-27.4,54.8-27.4H438h2v2v54.8v2h-2h-80.3c-3.9,0-7.8,2-9.8,3.9L289.2,251
		l58.8,72.5c2,2,5.9,3.9,9.8,3.9H438h2v2v52.9v2h-2h-84.2c-21.5,0-39.2-9.8-54.8-27.4L250,298l-49,58.8
		c-15.7,17.6-35.3,27.4-54.8,27.4H62h-2v-2v-52.9v-2h2h80.3c3.9,0,7.8-2,9.8-3.9l56.8-70.5L299,143.2z"/>
</g>
</svg>
