<svg width="500" height="500" viewBox="0 0 500 500" fill="none" xmlns="http://www.w3.org/2000/svg">
<g clip-path="url(#clip0_159_1085)">
<path d="M500 0V500H0V0H500Z" fill="url(#paint0_linear_159_1085)"/>
<path d="M277.426 410.1V278.539C308.795 281.9 330.082 296.304 330.082 296.304L350.088 273.737C317.278 250.37 268.623 249.41 268.623 249.41L260.62 161.062C265.902 157.541 269.423 151.619 269.423 144.737C269.423 134.014 260.62 125.211 249.897 125.211C239.174 125.211 230.371 134.014 230.371 144.737C230.371 151.619 233.892 157.701 239.174 161.062L231.171 249.41C231.171 249.41 182.516 250.21 149.706 273.737L169.712 296.304C169.712 296.304 190.999 281.9 222.368 278.539V410.1C99.7701 319.192 89.687 187.15 90.0071 143.297C90.0071 134.174 95.4488 125.851 103.771 122.17C128.259 111.287 184.116 90 249.737 90C315.357 90 371.215 111.287 395.703 122.17C404.025 125.851 409.467 134.174 409.467 143.297C409.787 187.15 399.704 319.192 277.426 410.1Z" fill="#FFAF1D"/>
</g>
<defs>
<linearGradient id="paint0_linear_159_1085" x1="250" y1="0" x2="250" y2="500" gradientUnits="userSpaceOnUse">
<stop stop-color="#181716"/>
<stop offset="1" stop-color="#181716"/>
</linearGradient>
<clipPath id="clip0_159_1085">
<rect width="500" height="500" fill="white"/>
</clipPath>
</defs>
</svg>
