<?xml version="1.0" encoding="utf-8"?>
<!-- Generator: Adobe Illustrator 22.0.0, SVG Export Plug-In . SVG Version: 6.00 Build 0)  -->
<svg version="1.1" id="Layer_1" xmlns="http://www.w3.org/2000/svg" xmlns:xlink="http://www.w3.org/1999/xlink" x="0px" y="0px"
	 viewBox="0 0 40 40" style="enable-background:new 0 0 40 40;" xml:space="preserve">
<style type="text/css">
	.st0{fill:url(#SVGID_1_);}
	.st1{fill:#FFFFFF;}
</style>
<linearGradient id="SVGID_1_" gradientUnits="userSpaceOnUse" x1="437.4169" y1="2389.2786" x2="474.7086" y2="2389.2786" gradientTransform="matrix(0 1 1 0 -2369.1785 -436.0419)">
	<stop  offset="1.198744e-03" style="stop-color:#4A4D59"/>
	<stop  offset="1" style="stop-color:#1B1C21"/>
</linearGradient>
<path class="st0" d="M37.1,26.3V13.7c0-2.1-1.1-4.1-3-5.2l-11-6.3c-1.9-1.1-4.1-1.1-6,0l-11,6.3c-1.9,1.1-3,3.1-3,5.2v12.6
	c0,2.1,1.1,4.1,3,5.2l11,6.3c1.9,1.1,4.1,1.1,6,0l11-6.3C35.9,30.4,37.1,28.5,37.1,26.3z"/>
<title>Asset 1</title>
<path class="st1" d="M15.4,10.5H18c0.1,0,0.2,0.1,0.2,0.2v3.9c0,0.1,0.1,0.2,0.2,0.2h3.4c0.1,0,0.2-0.1,0.2-0.2v-3.9
	c0-0.1,0.1-0.2,0.2-0.2h2.6c0.1,0,0.2,0.1,0.2,0.2v3.9c0,0.1,0.1,0.2,0.2,0.2h3.2c0.1,0,0.2,0.1,0.2,0.2v2.6c0,0.1-0.1,0.2-0.2,0.2
	h-3.2c-0.1,0-0.2,0.1-0.2,0.2v4.1c0,0.1,0.1,0.2,0.2,0.2h3.2c0.1,0,0.2,0.1,0.2,0.2v2.6c0,0.1-0.1,0.2-0.2,0.2h-3.2
	c-0.1,0-0.2,0.1-0.2,0.2v3.9c0,0.1-0.1,0.2-0.2,0.2h-2.6c-0.1,0-0.2-0.1-0.2-0.2v-3.9c0-0.1-0.1-0.2-0.2-0.2h-3.4
	c-0.1,0-0.2,0.1-0.2,0.2v3.9c0,0.1-0.1,0.2-0.2,0.2h-2.6c-0.1,0-0.2-0.1-0.2-0.2v-3.9c0-0.1-0.1-0.2-0.2-0.2h-3.2
	c-0.1,0-0.2-0.1-0.2-0.2v-2.6c0-0.1,0.1-0.2,0.2-0.2H15c0.1,0,0.2-0.1,0.2-0.2V18c0-0.1-0.1-0.2-0.2-0.2h-3.2
	c-0.1,0-0.2-0.1-0.2-0.2V15c0-0.1,0.1-0.2,0.2-0.2H15c0.1,0,0.2-0.1,0.2-0.2v-3.9C15.2,10.6,15.3,10.5,15.4,10.5L15.4,10.5z
	 M22,22.1V18c0-0.1-0.1-0.2-0.2-0.2h-3.4c-0.1,0-0.2,0.1-0.2,0.2v4.1c0,0.1,0.1,0.2,0.2,0.2h3.4C21.9,22.2,22,22.2,22,22.1z"/>
</svg>
