<?xml version="1.0" encoding="utf-8"?>
<!-- Generator: Adobe Illustrator 22.0.0, SVG Export Plug-In . SVG Version: 6.00 Build 0)  -->
<svg version="1.1" id="Layer_1" xmlns="http://www.w3.org/2000/svg" xmlns:xlink="http://www.w3.org/1999/xlink" x="0px" y="0px"
	 viewBox="0 0 40 40" style="enable-background:new 0 0 40 40;" xml:space="preserve">
<style type="text/css">
	.st0{fill:url(#SVGID_1_);}
	.st1{fill:#FFFFFF;}
</style>
<linearGradient id="SVGID_1_" gradientUnits="userSpaceOnUse" x1="1067.2169" y1="-3085.1785" x2="1104.5087" y2="-3085.1785" gradientTransform="matrix(0 1 -1 0 -3065.1785 -1066.0419)">
	<stop  offset="0" style="stop-color:#EB9C9E"/>
	<stop  offset="1" style="stop-color:#F16E69"/>
</linearGradient>
<path class="st0" d="M37,26.1V13.5c0-2.1-1.1-4.1-3-5.2L23,2c-1.9-1.1-4.1-1.1-6,0L6,8.3c-1.9,1.1-3,3.1-3,5.2v12.6
	c0,2.1,1.1,4.1,3,5.2l11,6.3c1.9,1.1,4.1,1.1,6,0l11-6.3C35.8,30.2,37,28.3,37,26.1z"/>
<path class="st1" d="M11.9,28.3c0-1.8,0-3.6,0-5.4c-0.8,0-1.6,0-2.4,0c0-0.4,0-0.8,0-1.2c0.8,0,1.5,0,2.3,0c0-1.1,0-2.2,0-3.3
	c-0.8,0-1.5,0-2.3,0c0-0.3,0-0.4-0.1-0.6c-0.1-0.5,0.1-0.7,0.6-0.6c0.6,0,1.2,0,1.8,0c0-1.8,0-3.6,0-5.5c1,0,1.9,0,2.8,0
	c0.2,0,0.4,0.3,0.4,0.5c0.6,1.5,1.1,2.9,1.6,4.4c0.1,0.4,0.3,0.6,0.8,0.6c1.7,0,3.3,0,5,0c0.4,0,0.6-0.2,0.8-0.6
	c0.5-1.5,1.1-2.9,1.6-4.4c0.2-0.4,0.4-0.6,0.8-0.6c0.6,0,1.2,0,1.8,0c0.5,0,0.6,0.2,0.6,0.6c0,1.4,0,2.8,0,4.2c0,0.2,0,0.4,0,0.7
	c0.8,0,1.6,0,2.4,0c0,0.4,0,0.8,0,1.2c-0.7,0-1.5,0-2.3,0c0,1.1,0,2.2,0,3.3c0.8,0,1.5,0,2.3,0c0,0.4,0,0.8,0,1.2
	c-0.8,0-1.5,0-2.4,0c0,1.8,0,3.6,0,5.4c-0.6,0-1.2,0-1.7,0c-0.1,0-0.4-0.3-0.4-0.5c0-1.4,0-2.7,0-4.1c0-0.2,0-0.4,0-0.8
	c-1,0-1.9,0-2.8,0c-0.2,0-0.4,0.3-0.4,0.5c-0.5,1.4-1.1,2.9-1.6,4.3c-0.2,0.5-0.4,0.6-0.9,0.6c-1.5-0.1-1.2,0.2-1.7-1.2
	c-0.5-1.2-0.9-2.4-1.3-3.7c-0.1-0.4-0.3-0.6-0.8-0.6c-0.8,0-1.6,0-2.5,0c0,1.3,0,2.5,0,3.7c0,0.4,0,0.8,0,1.1c0,0.5-0.2,0.6-0.6,0.6
	C13,28.3,12.5,28.3,11.9,28.3z M17.6,18.5c0.2,0.5,0.3,0.8,0.4,1.2c0.3,0.6,0.4,1.5,0.9,1.8c0.5,0.3,1.4,0.1,2.1,0.1
	c0.1,0,0.2,0,0.3,0c0.1,0,0.2-0.1,0.2-0.2c0.4-1,0.7-1.9,1.1-2.9C20.8,18.5,19.2,18.5,17.6,18.5z M16.7,21.6c0-0.1,0-0.2,0-0.2
	c-0.2-0.7-0.5-1.4-0.7-2c-0.4-1-0.5-1.1-1.6-0.8c0,0.9,0,1.7,0,2.6c0,0.1,0.2,0.4,0.4,0.4C15.4,21.6,16,21.6,16.7,21.6z M23.3,21.6
	c0.8,0,1.4,0,2,0c0.1,0,0.4-0.2,0.4-0.3c0-0.9,0-1.8,0-2.8c-0.3,0-0.6,0-0.8,0c-0.2,0-0.5,0.1-0.6,0.2C24,19.6,23.6,20.6,23.3,21.6z
	 M19.9,25c0,0,0.1,0,0.1,0c0.3-0.7,0.5-1.4,0.8-2.2c-0.6,0-1.2,0-1.8,0C19.4,23.6,19.7,24.3,19.9,25z M14.4,17.3c0.3,0,0.5,0,0.8,0
	c-0.3-0.7-0.5-1.4-0.8-2.1c0,0-0.1,0-0.1,0C14.4,15.9,14.4,16.6,14.4,17.3z M24.8,17.3c0.4,0,0.6,0,0.8,0c0-0.7,0-1.4,0-2.1
	c0,0-0.1,0-0.1,0C25.4,15.9,25.1,16.5,24.8,17.3z"/>
</svg>
