<?xml version="1.0" encoding="utf-8"?>
<!-- Generator: Adobe Illustrator 22.0.0, SVG Export Plug-In . SVG Version: 6.00 Build 0)  -->
<svg version="1.1" id="Layer_1" xmlns="http://www.w3.org/2000/svg" xmlns:xlink="http://www.w3.org/1999/xlink" x="0px" y="0px"
	 viewBox="0 0 500 500" style="enable-background:new 0 0 500 500;" xml:space="preserve">
<style type="text/css">
	.st0{fill:url(#SVGID_1_);}
	.st1{fill:#FFFFFF;}
</style>
<title>decentraland</title>
<linearGradient id="SVGID_1_" gradientUnits="userSpaceOnUse" x1="1539" y1="619.3" x2="1039" y2="619.3" gradientTransform="matrix(0 -1 -1 0 869.3 1539)">
	<stop  offset="0" style="stop-color:#1A181C"/>
	<stop  offset="0.9594" style="stop-color:#141316"/>
	<stop  offset="1" style="stop-color:#141316"/>
</linearGradient>
<polygon class="st0" points="500,0 500,500 0,500 0,0 "/>
<g>
	<path class="st1" d="M259.3,79.3c-8.2-3.2-16.8-4.8-25.9-4.8c-9,0-17.7,1.6-26.1,4.8c-8.2,3.1-15.6,7.6-22.1,13.5
		c-3.6,3.3-6.9,7.1-9.7,11.3V77.5H60v32.8h39.2v99.9h37.2v-99.9h35.5c-0.7,1.4-1.5,2.9-2.1,4.4c-3.7,8.6-5.6,18.4-5.6,29.4
		c0,11,1.9,20.8,5.6,29.4c3.8,8.6,9,15.9,15.5,21.9c6.5,6,13.9,10.5,22.1,13.7c8.4,3.1,17,4.6,26.1,4.6c9,0,17.6-1.5,25.9-4.6
		c8.4-3.2,15.8-7.8,22.3-13.7c6.5-6,11.6-13.3,15.3-21.9c3.8-8.6,5.8-18.4,5.8-29.4c0-11-1.9-20.8-5.8-29.4
		c-3.7-8.6-8.8-15.9-15.3-21.9C275.1,86.8,267.6,82.3,259.3,79.3z M217.5,113.9c4.6-3.1,9.9-4.6,15.9-4.6c6,0,11.3,1.5,15.9,4.6
		c4.8,3.1,8.5,7.2,11.1,12.5c2.7,5.2,4,11.1,4,17.7c0,6.6-1.3,12.6-4,17.9c-2.7,5.2-6.4,9.3-11.1,12.3c-4.6,3.1-9.9,4.6-15.9,4.6
		c-6,0-11.3-1.5-15.9-4.6c-4.6-3.1-8.4-7.2-11.1-12.3c-2.7-5.3-4-11.3-4-17.9c0-6.6,1.3-12.5,4-17.7
		C209.1,121.1,212.9,116.9,217.5,113.9z"/>
	<path class="st1" d="M297.5,297.7v-81h-37.2v78.4c0,6.9-1.9,12.5-5.6,16.9c-3.7,4.2-9.6,6.4-17.5,6.6c-8,0.1-13.8-2-17.5-6.4
		c-3.7-4.5-5.6-10.2-5.6-17.1v-78.4h-37.2v81c0,11.5,2.7,21.5,8.2,29.8c5.4,8.4,12.7,14.8,21.9,19.3c9.2,4.4,19.2,6.6,30.2,6.6
		c11.1,0,21.2-2.2,30.2-6.6c9.2-4.5,16.4-10.9,21.9-19.3C294.8,319.2,297.5,309.2,297.5,297.7z"/>
	<path class="st1" d="M157.5,305.4v-32.8h-47.4v-22.7h57.3v-32.8H72.9v133.3h37.2v-45H157.5z"/>
	<path class="st1" d="M384.5,301.4h-32.8v-47.4h-45v-37.2H440v208.6h-32.8v-39.2h-99.9v-37.2h99.9v-95h-22.7V301.4z"/>
	<path class="st1" d="M306.7,199.2H440v-33.6h-68.6l68.6-75V77.5H306.7v34.4h63.5l-63.5,74.2V199.2z"/>
</g>
</svg>
