<?xml version="1.0" encoding="utf-8"?>
<!-- Generator: Adobe Illustrator 22.0.0, SVG Export Plug-In . SVG Version: 6.00 Build 0)  -->
<svg version="1.1" id="Layer_1" xmlns="http://www.w3.org/2000/svg" xmlns:xlink="http://www.w3.org/1999/xlink" x="0px" y="0px"
	 viewBox="0 0 500 500" style="enable-background:new 0 0 500 500;" xml:space="preserve">
<style type="text/css">
	.st0{fill:url(#SVGID_1_);}
	.st1{fill:#633001;}
	.st2{fill:#D1884F;}
	.st3{fill:#FEDC90;}
</style>
<title>decentraland</title>
<linearGradient id="SVGID_1_" gradientUnits="userSpaceOnUse" x1="511" y1="910.7" x2="11" y2="910.7" gradientTransform="matrix(0 -1 1 0 -660.7 511)">
	<stop  offset="0" style="stop-color:#53DEE8"/>
	<stop  offset="1" style="stop-color:#00A9C0"/>
</linearGradient>
<polygon class="st0" points="500,0 500,500 0,500 0,0 "/>
<g>
	<path class="st1" d="M250,410.3c-47.5,0-85.8-11.3-112.5-31.6C110.4,358.2,96,329.1,96,296.1c0-31.7,14.3-54.6,30.5-70.1
		c12.7-12.1,26.7-19.9,36.5-24.4c-2.2-6.7-5-15.5-7.4-24.6c-3.3-12.1-6.5-26.4-6.5-36.8c0-12.3,2.7-24.7,10.1-34.4
		c7.7-10.2,19.4-15.6,33.4-15.6c11,0,20.3,4,27.6,11c7,6.6,11.6,15.5,14.8,24.6c5.6,16.2,7.8,36.4,8.4,56.7h13.4
		c0.6-20.3,2.8-40.5,8.4-56.7c3.2-9.2,7.8-18,14.8-24.6c7.3-6.9,16.6-11,27.6-11c14,0,25.7,5.5,33.4,15.6c7.3,9.6,10.1,22,10.1,34.4
		c0,10.4-3.2,24.7-6.5,36.8c-2.5,9.1-5.2,17.8-7.4,24.6c9.8,4.5,23.8,12.2,36.5,24.4c16.2,15.5,30.5,38.4,30.5,70.1
		c0,32.9-14.4,62.1-41.4,82.6c-26.7,20.3-65,31.6-112.5,31.6H250z"/>
	<path class="st2" d="M192.6,102c-20.6,0-30,15.3-30,36.5c0,16.9,11,50.6,15.5,63.7c1,3-0.6,6.2-3.5,7.3
		c-16.5,6.5-65.1,30.3-65.1,84.7c0,57.4,49.4,100.6,140.5,100.7c0,0,0.1,0,0.1,0c0,0,0.1,0,0.1,0c91.1-0.1,140.5-43.3,140.5-100.7
		c0-54.5-48.6-78.2-65.1-84.7c-2.9-1.1-4.5-4.4-3.5-7.3c4.5-13.1,15.5-46.9,15.5-63.7c0-21.2-9.5-36.5-30-36.5
		c-29.6,0-37,41.9-37.5,86.9c0,3-2.5,5.4-5.5,5.4h-29.1c-3,0-5.4-2.4-5.5-5.4C229.6,143.9,222.2,102,192.6,102z"/>
	<path class="st3" d="M250.2,376.7c-66.9,0-140.6-35.8-140.7-82.2c0,0.1,0,0.1,0,0.2c0,57.4,49.5,100.7,140.7,100.7
		c91.2,0,140.7-43.3,140.7-100.7c0-0.1,0-0.1,0-0.2C390.8,340.9,317.2,376.7,250.2,376.7z"/>
	<path class="st1" d="M213,280.3c0,15.7-7.4,23.8-16.5,23.8c-9.1,0-16.5-8.2-16.5-23.8c0-15.7,7.4-23.8,16.5-23.8
		C205.6,256.4,213,264.6,213,280.3z"/>
	<path class="st1" d="M320.5,280.3c0,15.7-7.4,23.8-16.5,23.8c-9.1,0-16.5-8.2-16.5-23.8c0-15.7,7.4-23.8,16.5-23.8
		C313.1,256.4,320.5,264.6,320.5,280.3z"/>
</g>
</svg>
