<?xml version="1.0" encoding="utf-8"?>
<!-- Generator: Adobe Illustrator 22.0.0, SVG Export Plug-In . SVG Version: 6.00 Build 0)  -->
<svg version="1.1" id="Layer_1" xmlns="http://www.w3.org/2000/svg" xmlns:xlink="http://www.w3.org/1999/xlink" x="0px" y="0px"
	 viewBox="0 0 40 40" style="enable-background:new 0 0 40 40;" xml:space="preserve">
<style type="text/css">
	.st0{fill:url(#SVGID_1_);}
	.st1{enable-background:new    ;}
	.st2{fill:#FFFFFF;}
</style>
<linearGradient id="SVGID_1_" gradientUnits="userSpaceOnUse" x1="167.4169" y1="-1117.1785" x2="204.7086" y2="-1117.1785" gradientTransform="matrix(0 1 -1 0 -1097.1785 -166.0419)">
	<stop  offset="0" style="stop-color:#CFBB3F"/>
	<stop  offset="0.9988" style="stop-color:#A28A28"/>
</linearGradient>
<path class="st0" d="M37,26.3V13.7c0-2.1-1.1-4.1-3-5.2L23,2.2c-1.9-1.1-4.1-1.1-6,0L6,8.5c-1.9,1.1-3,3.1-3,5.2v12.6
	c0,2.1,1.1,4.1,3,5.2l11,6.3c1.9,1.1,4.1,1.1,6,0l11-6.3C35.8,30.4,37,28.5,37,26.3z"/>
<g class="st1">
	<path class="st2" d="M30.2,19.7c0,1.4-0.2,2.7-0.7,3.9c-0.4,1.2-1.1,2.2-1.9,3.1c-0.8,0.9-1.8,1.6-2.9,2c-1.1,0.5-2.4,0.7-3.8,0.7
		H14V9.9h6.9c1.4,0,2.6,0.2,3.8,0.7c1.1,0.5,2.1,1.2,2.9,2c0.8,0.9,1.4,1.9,1.9,3.1C30,17,30.2,18.3,30.2,19.7z M25.9,19.7
		c0-1-0.1-1.8-0.3-2.6s-0.6-1.4-1-2s-1-1-1.6-1.3c-0.6-0.3-1.3-0.4-2.1-0.4h-2.8v12.6h2.8c0.8,0,1.5-0.1,2.1-0.4
		c0.6-0.3,1.1-0.7,1.6-1.3s0.8-1.2,1-2C25.8,21.6,25.9,20.7,25.9,19.7z"/>
</g>
<rect x="11.9" y="18.5" class="st2" width="10.1" height="2.2"/>
</svg>
