<?xml version="1.0" encoding="utf-8"?>
<!-- Generator: Adobe Illustrator 22.0.0, SVG Export Plug-In . SVG Version: 6.00 Build 0)  -->
<svg version="1.1" id="Layer_1" xmlns="http://www.w3.org/2000/svg" xmlns:xlink="http://www.w3.org/1999/xlink" x="0px" y="0px"
	 viewBox="0 0 500 500" style="enable-background:new 0 0 500 500;" xml:space="preserve">
<style type="text/css">
	.st0{fill:url(#SVGID_1_);}
	.st1{fill:#C9E7FC;}
	.st2{fill:#C8E7FC;}
	.st3{fill:#0F315E;}
	.st4{fill:#F4CD5E;}
</style>
<title>decentraland</title>
<linearGradient id="SVGID_1_" gradientUnits="userSpaceOnUse" x1="711" y1="-208.7" x2="211" y2="-208.7" gradientTransform="matrix(0 -1 -1 0 41.3 711)">
	<stop  offset="0" style="stop-color:#01327E"/>
	<stop  offset="1" style="stop-color:#04214C"/>
</linearGradient>
<polygon class="st0" points="500,0 500,500 0,500 0,0 "/>
<g>
	<g>
		<path class="st1" d="M151.2,287.3c-1.4-2-0.7-4.2-0.7-6.3c-0.1-24.2-0.1-48.4-0.1-72.7c0-7.1-2.7-12.7-8.8-16.6
			c-10.5-6.7-22.2-11.7-31.8-19.9c-13-11-24.8-23-30.1-39.7c-4.6-14.2-0.2-21.3,14.6-23.9c19-3.3,37.9-0.7,56.7,2.1
			c6.8,1,13.6,2.1,20.4,3.4c3.5,0.6,4.6-0.4,4.2-3.9c-0.4-3.6-0.2-7.3,1-10.9c1.6-4.7,4.3-7.9,9.4-8.7c5.3-0.8,9.5,1.1,12.1,5.6
			c2.7,4.7,4.9,9.6,7.2,14.5c2.4,5,5.4,6.7,11.4,5c22.3-6.3,44.8-6.2,67.2,0.1c5.3,1.5,8.3,0,10.5-4.5c2.1-4.3,4-8.6,6.2-12.8
			c2.8-5.4,6.9-8.9,13.4-7.9c6.4,0.9,8.8,5.7,10.2,11.1c0.5,1.8,0.5,3.9,0.5,5.8c0.1,7.6,0,7.5,7.9,6c21.3-4,42.6-7.1,64.4-6
			c4.8,0.2,9.5,0.9,14,2.4c9.4,3.2,12.2,8,10.6,17.8c-2.4,14.1-10.7,24.8-20.3,34.7c-9.8,10.2-21.3,18.3-34,24.6
			c-3.1,1.5-5.9,3.6-8.9,5.3c-6.4,3.5-8.6,9.1-8.6,16.2c0.1,24.7,0,49.3,0.1,74c0,4.6,0.2,6.9-5.5,3.5
			c-33.9-20-71.1-25.6-109.8-23.1c-29.2,1.9-57.1,9.1-82.1,24.9C152.2,287.5,151.6,287.3,151.2,287.3z M301.9,220.2
			c2.6,0,5.2,0.1,7.8,0c13.8-0.5,24.6-12.8,23.4-26.4c-1.1-13-14.3-23.9-27.4-21.5c-16.1,2.9-30.1,10.5-41.5,22.4
			c-7,7.3-5.8,13.3,3.3,18C278.3,218.2,289.9,220.4,301.9,220.2z M196.6,220.2c13,0.3,24.4-1.9,35-7.1c10.4-5.1,11.6-11.5,3.4-19.6
			c-10.9-10.7-24-17.5-38.8-21.1c-9.4-2.3-20.3,2.8-25.8,11.2c-5.3,8.1-5,17.4,1.1,26.1C178,218.9,187.2,221.3,196.6,220.2z"/>
		<path class="st2" d="M258.7,410c-41.5-0.3-72.7-6.3-100.6-24.7c-6.9-4.6-12.9-10.1-17.9-16.8c-12.1-16.2-12.1-35.4,0-51.6
			c11.3-15.1,26.9-24.4,44.3-30.3c49.2-16.7,98-15.9,145.6,6.3c11.3,5.3,21.1,12.7,28.9,22.6c13.6,17.2,13.5,37.7-0.3,54.7
			c-13.3,16.4-31.5,25.2-51.1,31.4C288.8,407.5,269.7,410.4,258.7,410z M185.9,351.3c9.7,0.1,19.9-8.5,23.7-20
			c1-3.1,2.5-7.1,0.2-9.2c-2.8-2.6-5.2,1.4-7.6,2.9c-7.1,4.3-9.8,3.3-11.9-4.7c-0.3-1-0.3-2.2-0.6-3.2c-1.7-5.8-5.3-6.7-9.3-2.1
			c-5.1,5.9-7.8,13-8.4,20.7C171.4,344.3,177.9,351.2,185.9,351.3z M327.8,335.9c-0.1-7-2.7-13-6.5-18.7c-1.7-2.5-3.5-5.5-7-4.9
			c-3.7,0.6-3.8,4.4-4.5,7.2c-2.7,9.5-4.6,10.2-12.8,4.8c-0.7-0.5-1.4-1-2.1-1.5c-1.3-0.8-2.5-2.1-4.1-1.3c-2,1-1.4,3-1.2,4.6
			c1.3,11.2,7.3,19.2,17.6,23.7C318.2,354.6,327.9,347.9,327.8,335.9z"/>
		<path class="st3" d="M302.3,209.5c2.8,0,5.7,0.3,8.4-0.1c7.3-1,12.6-8.3,11.7-15.4c-0.9-6.7-9-12.8-15.9-11.2
			c-12.2,2.8-23,8.6-32.4,16.9c-2.7,2.4-2,3.6,1,4.8C283.9,207.9,292.9,209.7,302.3,209.5z"/>
		<path class="st4" d="M302.3,209.5c-9.4,0.2-18.4-1.6-27.2-5c-3-1.2-3.8-2.4-1-4.8c9.4-8.3,20.3-14,32.4-16.9
			c6.9-1.6,15,4.5,15.9,11.2c1,7.2-4.4,14.4-11.7,15.4C308,209.8,305.1,209.5,302.3,209.5z"/>
		<path class="st4" d="M228.9,202.6c-13.5,6.6-26.7,8.2-40.2,6.7c-6.6-0.7-12.8-9.4-11.9-15.4c0.9-5.7,10-12.6,16.2-11.2
			C206.6,185.8,218.5,192,228.9,202.6z"/>
	</g>
</g>
</svg>
