<svg width="500" height="500" viewBox="0 0 500 500" fill="none" xmlns="http://www.w3.org/2000/svg">
<g clip-path="url(#clip0_159_1101)">
<path d="M500 0V500H0V0H500Z" fill="url(#paint0_linear_159_1101)"/>
<path d="M375.664 247.056C383.845 247.056 391.375 243.328 398.259 236.303C399.629 238.77 400.299 241.576 400.195 244.409C400.075 247.569 399.421 250.683 398.259 253.615L398.694 254.272C411.596 253.615 419.132 249.893 426.667 243.973C427.53 249.463 427.529 251.901 427.529 258.472C427.529 286.548 402.782 313.49 370.057 313.49C337.803 313.49 312.821 286.746 312.821 255.837H309.378C307.225 261.757 306.363 268.113 307.225 276.662C271.288 291.352 261.606 314.805 261.606 337.38H239.884C238.738 325.225 239.831 312.96 243.109 301.215C245.907 291.352 251.073 278.633 260.755 268.77L257.958 265.7C245.057 276.226 242.892 280.168 231.703 295.074C222.455 297.051 214.696 302.528 201.577 302.528C193.185 302.528 184.365 301.215 170.161 294.416C174.266 287.182 177.046 280.61 177.691 268.555H173.386C164.783 304.285 130.781 310.199 116.149 312.833C103.247 315.025 98.72 324.888 98.72 334.531C98.7001 335.485 98.7708 336.439 98.9311 337.38H86.6451C86.2143 334.185 85.9988 330.964 86 327.739C86 320.725 86.4281 313.706 89.6594 307.792C101.306 287.827 110.983 280.371 110.983 265.043C110.983 249.26 99.5763 238.758 98.9311 238.083C105.605 236.966 107.974 230.394 112.49 223.381C122.389 207.814 138.956 205.406 147.565 205.406C155.957 205.406 160.907 206.499 169.299 206.499C207.817 206.499 227.187 162 274.097 162C303.795 162 324.238 183.924 327.247 212.18L327.892 212.401C331.768 208.017 338.448 202.096 346.184 199.468C346.184 200.567 345.972 201.857 345.972 203.196C345.972 224.253 351.567 247.056 375.664 247.056ZM173.386 337.362H153.805C147.137 331.006 142.833 321.364 141.754 315.856C153.805 310.599 159.189 306.651 165.857 300.073L169.733 303.144C167.285 307.475 166.021 312.395 166.074 317.391C166.074 322.236 166.074 325.086 173.386 337.362ZM291.099 337.362H273.452C273.452 313.251 280.337 304.703 290.236 295.055L293.25 297.445C289.145 306.651 288.729 313.007 288.729 319.148C288.729 327.063 289.591 332.32 291.099 337.362Z" fill="url(#paint1_radial_159_1101)"/>
</g>
<defs>
<linearGradient id="paint0_linear_159_1101" x1="250" y1="0" x2="250" y2="500" gradientUnits="userSpaceOnUse">
<stop stop-color="#FFEEE3"/>
<stop offset="1" stop-color="#FFD3B7"/>
</linearGradient>
<radialGradient id="paint1_radial_159_1101" cx="0" cy="0" r="1" gradientUnits="userSpaceOnUse" gradientTransform="translate(86 162) rotate(27.1811) scale(383.928 312.024)">
<stop stop-color="#FED681"/>
<stop offset="1" stop-color="#F25E40"/>
</radialGradient>
<clipPath id="clip0_159_1101">
<rect width="500" height="500" fill="white"/>
</clipPath>
</defs>
</svg>
