<?xml version="1.0" encoding="utf-8"?>
<!-- Generator: Adobe Illustrator 22.0.0, SVG Export Plug-In . SVG Version: 6.00 Build 0)  -->
<svg version="1.1" id="Layer_1" xmlns="http://www.w3.org/2000/svg" xmlns:xlink="http://www.w3.org/1999/xlink" x="0px" y="0px"
	 viewBox="0 0 40 40" style="enable-background:new 0 0 40 40;" xml:space="preserve">
<style type="text/css">
	.st0{fill:url(#SVGID_1_);}
	.st1{fill:#FFFFFF;}
</style>
<linearGradient id="SVGID_1_" gradientUnits="userSpaceOnUse" x1="-12.6831" y1="-1005.1785" x2="24.6086" y2="-1005.1785" gradientTransform="matrix(0 1 -1 0 -985.1785 13.9581)">
	<stop  offset="1.198744e-03" style="stop-color:#000B35"/>
	<stop  offset="1" style="stop-color:#000011"/>
</linearGradient>
<path class="st0" d="M37,26.2V13.6c0-2.1-1.1-4.1-3-5.2L23,2.1c-1.9-1.1-4.1-1.1-6,0L6,8.4c-1.9,1.1-3,3.1-3,5.2v12.6
	c0,2.1,1.1,4.1,3,5.2l11,6.3c1.9,1.1,4.1,1.1,6,0l11-6.3C35.8,30.3,37,28.4,37,26.2z"/>
<title>Asset 1</title>
<title>Asset 1</title>
<g>
	<path class="st1" d="M11.5,14.3c0-0.7,0-1.5,0-2.2c0-0.2,0.4-0.6,0.6-0.6c1.5,0,3,0,4.5,0c0.5,0,0.7,0.2,0.7,0.6c0,1.5,0,3,0,4.5
		c0,0.2-0.4,0.6-0.6,0.6c-1.5,0.1-3,0-4.5,0c-0.5,0-0.7-0.3-0.6-0.7C11.5,15.8,11.5,15,11.5,14.3z"/>
	<path class="st1" d="M25.7,11.5c0.7,0,1.4,0,2.1,0c0.5,0,0.7,0.1,0.7,0.6c0,1.5,0,2.9,0,4.4c0,0.5-0.2,0.7-0.7,0.7
		c-1.4,0-2.9,0-4.3,0c-0.5,0-0.7-0.2-0.7-0.7c0-1.4,0-2.8,0-4.2c0-0.6,0.2-0.8,0.8-0.7C24.3,11.5,25,11.5,25.7,11.5z"/>
	<path class="st1" d="M14.4,28.5c-0.7,0-1.5,0-2.2,0c-0.5,0-0.7-0.2-0.7-0.7c0-1.5,0-2.9,0-4.4c0-0.5,0.2-0.6,0.6-0.6
		c1.5,0,3,0,4.5,0c0.2,0,0.6,0.4,0.6,0.6c0.1,1.5,0,3,0,4.5c0,0.4-0.2,0.6-0.7,0.6C15.8,28.5,15.1,28.5,14.4,28.5z"/>
	<path class="st1" d="M28.5,25.7c0,0.7,0,1.4,0,2.1c0,0.5-0.2,0.7-0.7,0.7c-1.5,0-2.9,0-4.4,0c-0.5,0-0.7-0.2-0.7-0.6
		c0-1.5,0-3,0-4.5c0-0.2,0.4-0.6,0.6-0.6c1.5-0.1,3,0,4.5,0c0.5,0,0.7,0.2,0.6,0.7C28.5,24.2,28.5,25,28.5,25.7z"/>
	<path class="st1" d="M22.9,20.1c0,0.7,0,1.4,0,2.1c0,0.5-0.2,0.7-0.7,0.7c-1.4,0-2.9,0-4.3,0c-0.5,0-0.7-0.2-0.7-0.7
		c0-1.4,0-2.9,0-4.3c0-0.5,0.2-0.7,0.7-0.7c1.4,0,2.9,0,4.3,0c0.5,0,0.7,0.2,0.7,0.7C22.9,18.6,22.9,19.3,22.9,20.1z"/>
</g>
</svg>
