<?xml version="1.0" encoding="utf-8"?>
<!-- Generator: Adobe Illustrator 22.0.0, SVG Export Plug-In . SVG Version: 6.00 Build 0)  -->
<svg version="1.1" id="Layer_1" xmlns="http://www.w3.org/2000/svg" xmlns:xlink="http://www.w3.org/1999/xlink" x="0px" y="0px"
	 viewBox="0 0 500 500" style="enable-background:new 0 0 500 500;" xml:space="preserve">
<style type="text/css">
	.st0{fill:url(#SVGID_1_);}
	.st1{fill:#1EEEA4;}
</style>
<title>decentraland</title>
<linearGradient id="SVGID_1_" gradientUnits="userSpaceOnUse" x1="511" y1="910.7" x2="11" y2="910.7" gradientTransform="matrix(0 -1 1 0 -660.7 511)">
	<stop  offset="0" style="stop-color:#15533E"/>
	<stop  offset="1" style="stop-color:#121C1D"/>
</linearGradient>
<polygon class="st0" points="500,0 500,500 0,500 0,0 "/>
<image style="display:none;overflow:visible;enable-background:new    ;" width="900" height="900" xlink:href="../../../../../Downloads/Union.png"  transform="matrix(0.3556 0 0 0.3556 90 90)">
</image>
<g>
	<g>
		<path class="st1" d="M410,181.8c0,45.5,0,91,0,136.5c-0.3,0.2-0.3,0.6-0.3,1c-0.2,3.4-0.7,6.7-1.3,10c-4,21.6-14.1,39.9-30.3,54.8
			c-14.9,13.7-32.5,22-52.5,25c-2.4,0.4-4.9,0.3-7.3,1c-45.5,0-91,0-136.5,0c-2.8-0.7-5.7-0.7-8.6-1.2c-22-3.7-40.9-13.4-56.2-29.7
			c-17.1-18.2-26.5-39.9-26.8-64.9c-0.4-42.5-0.1-85.1-0.1-127.6c0-4.5,0.4-9,1.2-13.4c3.6-22.1,13.5-41,29.8-56.3
			c18.2-17.1,39.9-26.4,64.8-26.6c42.5-0.4,85.1-0.1,127.6-0.1c5.3,0,10.6,0.6,15.9,1.6c21.6,4.1,39.9,14.2,54.7,30.3
			c13.7,14.9,21.9,32.4,24.9,52.4C409.4,176.9,409.3,179.4,410,181.8z M250,129.5C250,129.5,250,129.5,250,129.5
			c-20.3,0-40.6,0-61,0c-2.8,0-5.7,0.1-8.5,0.5c-29.2,4-51,28.9-51.1,58.4c0,41.1,0,82.1,0,123.2c0,2.7,0.1,5.3,0.5,8
			c4,29.2,28.9,51.1,58.4,51.1c41.1,0,82.1,0,123.2,0c2.7,0,5.3-0.1,8-0.5c29.2-4,51.1-28.9,51.1-58.4c0-41.1,0-82.1,0-123.2
			c0-10-2.2-19.5-7.2-28.2c-11-19.3-27.7-30-49.9-30.7C292.4,129.1,271.2,129.5,250,129.5z"/>
		<path class="st1" d="M336.1,223.1c-0.1,4,0.3,7.9-1,11.8c-3,9.7-11.1,16.5-21.3,17.5c-4.9,0.4-9.9,0.5-14.7-0.1
			c-12.1-1.5-20.6-10-21.8-22.1c-0.6-5.9-0.8-12,0.5-17.9c2.4-10.7,12-18.6,23-18.8c5-0.1,10.1-0.5,15.1,0.3
			c11.3,1.8,20.1,12,20.3,23.4C336.1,219.2,336.1,221.2,336.1,223.1z"/>
		<path class="st1" d="M336.1,311.6c0.1,4.7,0.2,9.3-1.6,13.8c-3.8,9.5-12.7,15.7-22.9,15.6c-4.6,0-9.1,0.4-13.7-0.3
			c-11.6-1.8-20.1-11-20.8-22.7c-0.3-5.6-0.7-11.3,0.5-16.8c2.4-11.1,12.3-19.1,23.6-19.2c4.7,0,9.4-0.4,14,0.3
			c11.5,1.6,20.6,11.9,20.7,23.5C336.1,307.8,336.1,309.7,336.1,311.6z"/>
	</g>
</g>
</svg>
