<svg width="500" height="500" viewBox="0 0 500 500" fill="none" xmlns="http://www.w3.org/2000/svg">
<g clip-path="url(#clip0_1309_37)">
<path d="M500 500L0 500L0 0L500 0L500 500Z" fill="url(#paint0_linear_1309_37)"/>
<path d="M424.754 307.405C422.919 316.761 420.034 325.155 416.012 332.587C411.03 341.854 403.948 350.335 394.594 358.117C385.677 365.461 376.411 370.794 366.97 374.029C357.528 377.264 345.552 378.838 331.127 378.838C311.894 378.838 294.586 374.904 279.199 367.035C263.813 359.165 252.448 347.537 245.104 332.149C237.062 346.226 225.872 357.504 211.448 365.81C197.023 374.116 179.102 378.313 157.596 378.313C143.521 378.313 130.845 376.127 119.568 371.843C108.378 367.559 98.7621 361.351 90.7198 353.307C84.3382 346.925 79.2666 339.406 75.5951 330.925C71.9236 322.444 70 312.739 70 301.81C70 290.881 72.0984 281.001 76.2951 271.995C80.491 262.99 86.1735 255.383 93.4292 249.175C100.598 242.88 108.99 237.984 118.431 234.487C127.873 230.99 137.752 229.154 148.068 229.154C161.18 228.804 174.206 228.629 187.057 228.455C199.908 228.279 212.934 228.192 226.047 228.192V202.225C226.047 185.875 221.327 173.896 211.797 166.378C202.268 158.858 189.942 155.098 174.556 155.098C159.17 155.098 146.406 158.508 136.266 165.415C126.212 172.322 120.705 183.427 119.656 198.902L80.3162 191.82C81.5406 180.979 84.5121 171.536 89.1459 163.317C94.7401 153.35 101.997 145.306 110.739 139.011C119.568 132.804 129.622 128.169 140.812 125.284C152.089 122.399 163.454 121 174.993 121C182.074 121 189.243 121.699 196.674 123.186C204.104 124.672 211.273 126.771 218.354 129.656C225.348 132.541 231.904 136.3 237.849 140.935C243.794 145.569 248.777 150.989 252.973 157.022C261.016 145.831 271.068 137.175 283.22 131.055C295.371 124.935 310.583 121.874 328.942 121.874C349.835 121.874 366.533 125.634 379.209 133.153C391.885 140.672 402.55 151.164 411.205 164.629C418.548 175.907 423.531 188.148 426.154 201.438C428.689 214.727 430 230.377 430 248.389V260.892L265.474 261.416V263.34C265.474 273.657 266.61 283.624 268.796 293.417C271.069 303.209 274.741 311.864 279.898 319.384C285.056 326.903 291.7 333.024 300.092 337.657C308.485 342.291 318.713 344.652 330.952 344.652C342.754 344.652 354.031 341.155 364.609 334.072C375.187 326.991 382.269 315.799 385.765 300.411L424.754 307.405ZM157.422 259.492C144.92 259.492 134.08 263.077 124.988 270.335C115.81 277.591 111.263 287.908 111.263 301.372C111.263 314.837 115.634 325.155 124.464 332.411C133.293 339.668 144.133 343.253 156.896 343.253C166.163 343.253 175.342 341.854 184.259 339.144C193.264 336.433 200.957 331.887 207.339 325.417C216.605 316.149 222.288 306.619 224.123 297.001C226.047 287.384 227.008 276.979 227.008 265.7V258.968L157.422 259.492ZM388.388 229.154C388.038 217.962 386.727 207.733 384.279 198.64C381.918 189.46 377.984 181.591 372.477 174.858C367.931 169.088 362.161 164.367 355.168 160.694C348.087 157.022 339.17 155.186 328.242 155.186C318.975 155.186 310.933 156.76 304.201 159.995C297.47 163.23 291.525 167.514 286.367 173.022C279.636 180.104 274.566 188.41 271.244 198.028C267.922 207.646 266.173 218.049 266.173 229.329H388.388V229.154Z" fill="white"/>
</g>
<defs>
<linearGradient id="paint0_linear_1309_37" x1="250" y1="0" x2="250" y2="500" gradientUnits="userSpaceOnUse">
<stop stop-color="#7000FF"/>
<stop offset="1" stop-color="#4B00FF"/>
</linearGradient>
<clipPath id="clip0_1309_37">
<rect width="500" height="500" fill="white"/>
</clipPath>
</defs>
</svg>
