<?xml version="1.0" encoding="utf-8"?>
<!-- Generator: Adobe Illustrator 22.0.0, SVG Export Plug-In . SVG Version: 6.00 Build 0)  -->
<svg version="1.1" id="Layer_1" xmlns="http://www.w3.org/2000/svg" xmlns:xlink="http://www.w3.org/1999/xlink" x="0px" y="0px"
	 viewBox="0 0 40 40" style="enable-background:new 0 0 40 40;" xml:space="preserve">
<style type="text/css">
	.st0{fill:url(#SVGID_1_);}
	.st1{fill:#FFFFFF;}
</style>
<linearGradient id="SVGID_1_" gradientUnits="userSpaceOnUse" x1="768.2169" y1="4152.1787" x2="805.5086" y2="4152.1787" gradientTransform="matrix(0 1 1 0 -4132.1787 -767.0419)">
	<stop  offset="0" style="stop-color:#1492F0"/>
	<stop  offset="1" style="stop-color:#1452F0"/>
</linearGradient>
<path class="st0" d="M37,26.1V13.5c0-2.1-1.1-4.1-3-5.2L23,2c-1.9-1.1-4.1-1.1-6,0L6,8.3c-1.9,1.1-3,3.1-3,5.2v12.6
	c0,2.1,1.1,4.1,3,5.2l11,6.3c1.9,1.1,4.1,1.1,6,0l11-6.3C35.8,30.2,37,28.3,37,26.1z"/>
<path class="st1" d="M30.5,19.2c0-0.2,0-0.4,0-0.5c0-5.2-3.6-8.4-8.5-8.4h-6.6v8.9h4.1v-5.1H22c2.9,0,4.4,2,4.4,4.6
	c0,0.2,0,0.4,0,0.5H30.5z M11.5,21.1v8.2h6.6c4.9,0,8.4-3.1,8.5-8.2h-4.2c-0.1,2.4-1.7,4.4-4.4,4.4h-2.6v-4.4H11.5z"/>
</svg>
