<?xml version="1.0" encoding="utf-8"?>
<!-- Generator: Adobe Illustrator 22.0.0, SVG Export Plug-In . SVG Version: 6.00 Build 0)  -->
<svg version="1.1" id="Layer_1" xmlns="http://www.w3.org/2000/svg" xmlns:xlink="http://www.w3.org/1999/xlink" x="0px" y="0px"
	 viewBox="0 0 40 40" style="enable-background:new 0 0 40 40;" xml:space="preserve">
<style type="text/css">
	.st0{fill:url(#SVGID_1_);}
	.st1{fill:#FFFFFF;}
	.st2{fill:#AC562A;}
	.st3{fill:#633001;}
	.st4{fill:#FEDC90;}
	.st5{fill:#D1884F;}
</style>
<linearGradient id="SVGID_1_" gradientUnits="userSpaceOnUse" x1="-12.5831" y1="-547.1784" x2="24.7086" y2="-547.1784" gradientTransform="matrix(6.123234e-17 1 -1 6.123234e-17 -527.1784 13.9581)">
	<stop  offset="0" style="stop-color:#F3CC97"/>
	<stop  offset="0.9615" style="stop-color:#D0662F"/>
</linearGradient>
<path class="st0" d="M37,26.3V13.7c0-2.1-1.1-4.1-3-5.2L23,2.2c-1.9-1.1-4.1-1.1-6,0L6,8.5c-1.9,1.1-3,3.1-3,5.2v12.6
	c0,2.1,1.1,4.1,3,5.2l11,6.3c1.9,1.1,4.1,1.1,6,0l11-6.3C35.8,30.4,37,28.5,37,26.3z"/>
<path class="st1" d="M24.8,19.6c0.1-0.1,0.3,0.1,0.3,0.2l0.3,1c0.1,0.1-0.1,0.3-0.2,0.3c-0.1,0.1-0.3-0.1-0.3-0.2l-0.3-1
	C24.6,19.8,24.6,19.6,24.8,19.6z"/>
<circle class="st2" cx="20" cy="26" r="0.5"/>
<circle class="st2" cx="17.1" cy="26.4" r="0.8"/>
<path class="st3" d="M14.4,13.5c-0.3-1.5,0.9-2.8,2.3-2.8c1.3,0,2.4,1.1,2.4,2.4v3c0.3,0,0.7-0.1,1-0.1s0.6,0,1,0.1v-3
	c0-1.3,1.1-2.4,2.4-2.4c1.5,0,2.6,1.4,2.4,2.8L25.3,17c2.2,1,3.9,2.7,3.9,4.8V23c0,1.8-1.1,3.2-2.8,4.2c-1.6,1-3.8,1.6-6.2,1.6
	s-4.6-0.6-6.2-1.6c-1.6-1-2.7-2.4-2.7-4.2v-1.3c0-2.1,1.6-3.8,3.9-4.8L14.4,13.5z M24.4,17.4l0.7-4.1c0.2-1-0.6-2-1.6-2
	c-0.9,0-1.6,0.7-1.6,1.6v3.7c-0.2-0.1-0.5-0.1-0.7-0.1c-0.3,0-0.6-0.1-1-0.1s-0.7,0-1,0.1c-0.2,0-0.5,0.1-0.7,0.1V13
	c0-0.9-0.7-1.6-1.6-1.6c-1,0-1.8,1-1.6,2l0.7,4.1c-2.4,0.9-4,2.5-4,4.3v1.3c0,2.8,3.7,5.1,8.2,5.1s8.2-2.3,8.2-5.1v-1.3
	C28.4,19.9,26.9,18.3,24.4,17.4z"/>
<path class="st4" d="M28.4,23c0,2.8-3.7,5.1-8.2,5.1S12,25.8,12,23v-1.3l16.5,0L28.4,23L28.4,23z"/>
<path class="st5" d="M15.2,13.4c-0.2-1,0.6-2,1.6-2c0.9,0,1.6,0.7,1.6,1.6v3.7c0.6-0.1,1.1-0.1,1.8-0.1c0.6,0,1.1,0.1,1.7,0.1V13
	c0-0.9,0.7-1.6,1.6-1.6c1,0,1.8,1,1.6,2l-0.7,4.1c2.4,0.9,4,2.5,4,4.3c0,2.8-3.7,5.1-8.2,5.1S12,24.6,12,21.8c0-1.8,1.6-3.4,4-4.3
	L15.2,13.4z"/>
<path class="st3" d="M17.9,21.4c0,0.7-0.4,1.4-0.9,1.4c-0.5,0-0.9-0.6-0.9-1.4c0-0.7,0.4-1.4,0.9-1.4S17.9,20.7,17.9,21.4z"/>
<path class="st3" d="M24.2,21.4c0,0.7-0.4,1.4-0.9,1.4c-0.5,0-0.9-0.6-0.9-1.4c0-0.7,0.4-1.4,0.9-1.4S24.2,20.7,24.2,21.4z"/>
</svg>
