<?xml version="1.0" encoding="utf-8"?>
<!-- Generator: Adobe Illustrator 22.0.0, SVG Export Plug-In . SVG Version: 6.00 Build 0)  -->
<svg version="1.1" id="Layer_1" xmlns="http://www.w3.org/2000/svg" xmlns:xlink="http://www.w3.org/1999/xlink" x="0px" y="0px"
	 viewBox="0 0 500 500" style="enable-background:new 0 0 500 500;" xml:space="preserve">
<style type="text/css">
	.st0{fill:url(#SVGID_1_);}
	.st1{fill:#9B9B9B;}
	.st2{fill:#FFFFFF;}
</style>
<title>decentraland</title>
<linearGradient id="SVGID_1_" gradientUnits="userSpaceOnUse" x1="1339" y1="82.7" x2="839" y2="82.7" gradientTransform="matrix(0 -1 1 0 167.3 1339)">
	<stop  offset="0" style="stop-color:#282F39"/>
	<stop  offset="1" style="stop-color:#091113"/>
</linearGradient>
<polygon class="st0" points="500,0 500,500 0,500 0,0 "/>
<g>
	<g>
		<path class="st1" d="M282.1,100.9l8.6,20.2c16.9,39.6,48.5,71.2,88.2,88.2l20.2,8.6c5.3,2.3,9.6,5.5,12.9,9.3
			C402,155.1,344.9,98.1,272.8,88C276.6,91.3,279.9,95.6,282.1,100.9z M100.9,217.9l20.2-8.6c39.7-16.9,71.2-48.5,88.2-88.2
			l8.6-20.2c2.1-5,5.3-9.4,9.3-12.9C155.1,98.1,98,155.1,88,227.2C91.3,223.4,95.6,220.1,100.9,217.9z M399.1,282.1l-20.2,8.6
			c-39.7,16.9-71.2,48.5-88.2,88.2l-8.6,20.2c-2.1,5-5.3,9.4-9.3,12.9C344.9,401.9,402,344.9,412,272.8
			C408.5,276.9,404.1,280,399.1,282.1L399.1,282.1z M217.9,399.1l-8.6-20.2c-16.9-39.7-48.5-71.2-88.2-88.2l-20.2-8.6
			c-5-2.1-9.4-5.3-12.9-9.3C98,344.9,155.1,401.9,227.2,412C223.1,408.5,219.9,404.1,217.9,399.1z"/>
	</g>
	<path class="st2" d="M176.5,234.2l9.9-4.2c19.5-8.3,35.1-23.9,43.5-43.4l4.2-10c6-13.9,25.7-13.9,31.7,0l4.2,10
		c8.3,19.5,23.9,35.1,43.5,43.4l10,4.2c13.9,6,13.9,25.7,0,31.7l-10,4.2c-19.5,8.3-35.1,23.9-43.5,43.5l-4.2,9.9
		c-6,13.9-25.7,13.9-31.7,0l-4.2-9.9c-8.3-19.5-23.9-35.1-43.5-43.5l-9.9-4.2C162.6,259.9,162.6,240.1,176.5,234.2z"/>
</g>
</svg>
