<svg width="770" height="770" viewBox="0 0 770 770" fill="none" xmlns="http://www.w3.org/2000/svg">
<path d="M711.537 505.769V263.462C711.537 223.077 690.384 184.615 653.845 163.462L442.307 42.3078C405.768 21.1539 363.461 21.1539 326.922 42.3078L115.384 163.462C78.8452 184.615 57.6914 223.077 57.6914 263.462V505.769C57.6914 546.154 78.8452 584.615 115.384 605.769L326.922 726.923C363.461 748.077 405.768 748.077 442.307 726.923L653.845 605.769C688.461 584.615 711.537 548.077 711.537 505.769Z" fill="url(#paint0_linear_602_16)"/>
<path d="M495.475 317.494H459.787C455.629 317.494 451.673 315.71 448.921 312.604L434.444 296.25C432.289 293.809 429.184 292.421 425.935 292.421C422.686 292.421 419.58 293.818 417.425 296.25L405.011 310.281C400.945 314.868 395.112 317.503 388.985 317.503H193.639C188.075 333.36 184.448 350.11 183 367.482H367.413C370.653 367.482 373.759 366.16 375.998 363.821L393.168 345.901C395.314 343.662 398.277 342.4 401.374 342.4H402.081C405.339 342.4 408.436 343.797 410.591 346.238L425.059 362.592C427.812 365.706 431.768 367.482 435.926 367.482H586.452C585.004 350.101 581.377 333.352 575.813 317.503H495.466L495.475 317.494Z" fill="white"/>
<path d="M294.602 472.574C297.843 472.574 300.949 471.253 303.188 468.913L320.358 450.994C322.504 448.755 325.467 447.492 328.564 447.492H329.271C332.529 447.492 335.626 448.889 337.781 451.322L352.249 467.676C355.001 470.79 358.957 472.566 363.115 472.566H567.105C574.748 456.776 580.345 439.833 583.678 422.082H387.878C383.72 422.082 379.764 420.297 377.011 417.192L362.543 400.838C360.388 398.397 357.282 397.008 354.034 397.008C350.785 397.008 347.679 398.405 345.524 400.838L333.109 414.869C329.044 419.456 323.211 422.09 317.075 422.09H185.781C189.114 439.841 194.72 456.784 202.354 472.574H294.594H294.602Z" fill="white"/>
<path d="M439.319 262.869C442.559 262.869 445.665 261.547 447.904 259.208L465.074 241.288C467.22 239.049 470.183 237.787 473.28 237.787H473.987C477.245 237.787 480.342 239.184 482.497 241.625L496.965 257.979C499.718 261.093 503.674 262.869 507.832 262.869H546.625C509.683 213.765 450.925 182 384.736 182C318.546 182 259.788 213.765 222.838 262.869H439.319Z" fill="white"/>
<path d="M361.395 522.603H308.344C304.186 522.603 300.23 520.819 297.478 517.713L283.009 501.359C280.855 498.918 277.749 497.529 274.5 497.529C271.251 497.529 268.145 498.926 265.991 501.359L253.576 515.39C249.51 519.977 243.678 522.611 237.542 522.611H236.717C273.675 562.213 326.305 587 384.743 587C443.181 587 495.803 562.213 532.77 522.611H361.395V522.603Z" fill="white"/>
<defs>
<linearGradient id="paint0_linear_602_16" x1="384.614" y1="26.9212" x2="384.614" y2="744.069" gradientUnits="userSpaceOnUse">
<stop stop-color="#343E46"/>
<stop offset="0.9988" stop-color="#141A1F"/>
</linearGradient>
</defs>
</svg>
