<?xml version="1.0" encoding="utf-8"?>
<!-- Generator: Adobe Illustrator 22.0.0, SVG Export Plug-In . SVG Version: 6.00 Build 0)  -->
<svg version="1.1" id="Layer_1" xmlns="http://www.w3.org/2000/svg" xmlns:xlink="http://www.w3.org/1999/xlink" x="0px" y="0px"
	 viewBox="0 0 40 40" style="enable-background:new 0 0 40 40;" xml:space="preserve">
<style type="text/css">
	.st0{fill:url(#SVGID_1_);}
	.st1{fill:#FDA669;}
	.st2{fill:#FD684E;}
</style>
<linearGradient id="SVGID_1_" gradientUnits="userSpaceOnUse" x1="167.4169" y1="1911.1785" x2="204.7087" y2="1911.1785" gradientTransform="matrix(0 1 1 0 -1891.1785 -166.0419)">
	<stop  offset="0" style="stop-color:#4D231D"/>
	<stop  offset="1" style="stop-color:#30100B"/>
</linearGradient>
<path class="st0" d="M37,26.3V13.7c0-2.1-1.1-4.1-3-5.2L23,2.2c-1.9-1.1-4.1-1.1-6,0L6,8.5c-1.9,1.1-3,3.1-3,5.2v12.6
	c0,2.1,1.1,4.1,3,5.2l11,6.3c1.9,1.1,4.1,1.1,6,0l11-6.3C35.8,30.4,37,28.5,37,26.3z"/>
<g id="Layer_1-2">
	<g>
		<circle class="st1" cx="11.3" cy="20.7" r="0.7"/>
		<circle class="st1" cx="28.7" cy="20.7" r="0.7"/>
		<circle class="st1" cx="27.5" cy="16.4" r="0.7"/>
		<circle class="st1" cx="24.3" cy="13.2" r="0.7"/>
		<circle class="st1" cx="20" cy="12" r="0.7"/>
		<circle class="st1" cx="15.7" cy="13.2" r="0.7"/>
		<circle class="st1" cx="12.5" cy="16.4" r="0.7"/>
		<path class="st1" d="M14.9,16.4c1.2-1.5,3.1-2.4,5.1-2.4c2.7,0,5,1.6,6.1,3.9h-9.3c-0.3,0-0.5-0.1-0.7-0.3L14.9,16.4z"/>
		<path class="st2" d="M26.5,18.9H16.3c-0.3,0-0.5-0.1-0.7-0.3l-1.4-1.4c-0.5,0.9-0.8,1.9-0.9,3.1h13.3
			C26.6,19.8,26.6,19.3,26.5,18.9L26.5,18.9z"/>
		<path class="st2" d="M13.3,21.3c0,0.5,0.1,0.9,0.2,1.4l0,0h10.1c0.3,0,0.5,0.1,0.7,0.3l1.4,1.4c0.5-0.9,0.8-1.9,0.9-3.1
			C26.7,21.3,13.3,21.3,13.3,21.3z"/>
		<path class="st1" d="M10,23.8h13.2c0.3,0,0.6,0.1,0.8,0.3l0.5,0.6H10.9C10.4,24.7,10,24.3,10,23.8L10,23.8L10,23.8z"/>
		<path class="st1" d="M27.2,23.8H30c0,0.5-0.4,0.9-0.9,0.9h-2.3C26.8,24.7,27.1,24.3,27.2,23.8z"/>
		<path class="st1" d="M11.8,25.8l16.3,0l0,0c0,0.5-0.4,0.9-0.9,0.9l-14.5,0C12.2,26.7,11.8,26.3,11.8,25.8L11.8,25.8L11.8,25.8z"/>
	</g>
</g>
</svg>
