<svg width="500" height="500" viewBox="0 0 500 500" fill="none" xmlns="http://www.w3.org/2000/svg">
<g clip-path="url(#clip0_1152_37)">
<path d="M500 0V500H0V0H500Z" fill="url(#paint0_linear_1152_37)"/>
<path d="M240.786 91.2699C319.589 86.7147 389.92 140.283 406.455 217.446C410.965 238.627 411.147 260.537 407.002 281.81C396.662 334.285 360.859 378.105 311.527 398.739C277.91 412.86 239.465 414.819 204.528 404.433C156.654 390.176 118.117 354.418 100.352 307.728C87.5982 274.248 86.5961 236.486 97.5283 202.369C117.662 139.235 174.646 95.0506 240.786 91.2699Z" fill="white"/>
<path d="M144.218 235.591C144.91 238.754 145.305 241.966 145.997 245.179C146.442 247.106 147.035 246.661 148.024 245.821C149.951 244.24 151.779 242.51 153.905 241.225C154.498 241.324 154.844 241.818 155.14 242.263C160.774 249.627 168.236 254.124 177.083 256.545C181.135 257.682 185.336 258.423 189.536 258.868C188.202 257.386 187.115 255.755 186.275 253.926C184.842 250.763 185.336 247.946 187.757 245.426C190.673 242.362 194.478 241.077 198.383 240.089C206.537 237.963 214.84 237.766 223.192 238.359C229.913 238.804 236.535 239.94 243.058 241.769C248.495 243.301 253.783 245.08 258.576 248.144C259.268 248.688 259.713 249.429 260.355 249.973C266.533 256.595 270.141 264.403 270.388 273.447C270.536 279.674 268.806 285.654 265.693 291.139C260.059 301.023 251.806 308.239 241.971 313.724C231.988 319.309 220.968 322.768 209.552 323.954C189.19 326.178 170.263 321.73 152.916 310.907C138.485 301.913 127.366 289.607 118.322 275.374C114.121 268.604 110.415 261.537 107.203 254.223C106.807 253.333 106.708 252.345 106.313 251.603C106.56 252.493 107.054 253.432 106.115 254.371C105.819 250.664 106.165 247.007 106.362 243.35C106.857 233.219 108.438 223.187 111.057 213.451C122.968 169.418 154.893 133.588 197.295 116.687C210.046 111.596 223.439 108.433 237.079 107.198C258.626 105.221 279.481 108.038 299.842 115.253C296.729 121.134 279.086 136.85 265.347 145.993C264.951 142.039 264.062 138.135 262.678 134.379C262.629 133.391 263.518 133.094 264.062 132.6C266.928 130.129 269.795 127.707 272.661 125.286C272.958 125.039 273.254 124.791 273.501 124.544C273.847 124.198 274.391 123.902 274.242 123.358C274.144 122.815 273.501 122.815 273.007 122.716C271.673 122.419 270.338 122.271 268.955 122.222C267.077 122.024 265.199 121.579 263.321 121.53C261.838 121.431 260.405 121.085 258.972 121.184C258.23 121.184 257.489 121.134 256.748 121.036C255.512 120.64 254.227 120.838 252.992 120.838C252.251 120.838 251.509 120.788 250.719 120.838C248.544 120.937 246.419 120.591 244.244 120.986C243.701 121.085 243.207 121.134 242.663 121.134C242.021 121.134 241.428 121.184 240.785 121.134C239.994 121.036 239.154 121.134 238.363 121.381C236.09 121.579 233.817 121.777 231.593 122.172C228.875 122.765 226.107 122.864 223.439 123.556C220.968 124.198 218.447 124.544 216.026 125.384C212.813 126.274 209.601 127.262 206.438 128.35C201.842 130.178 197.147 131.859 192.749 134.231C182.815 139.074 173.524 145.202 165.222 152.467C157.512 159.138 150.593 166.65 144.614 174.903C141.648 179.055 138.881 183.354 136.459 187.851C134.878 190.767 133.395 193.732 132.011 196.747C131.023 199.07 129.837 201.343 129.046 203.765C128.058 206.186 127.267 208.657 126.476 211.178C125.537 213.698 124.994 216.317 124.302 218.838C124.005 219.826 123.808 220.864 123.561 221.902C123.264 223.137 123.066 224.373 122.819 225.608C122.424 227.684 122.078 229.809 121.782 231.934C121.386 234.109 121.139 236.283 120.991 238.507C120.645 239.94 120.892 241.472 120.645 242.955C120.249 244.783 120.497 246.661 120.398 248.49C120.348 249.775 120.299 251.06 120.348 252.345C120.348 252.888 120.101 253.63 120.645 253.877C121.287 254.173 121.732 253.481 122.226 253.135C123.808 251.85 125.34 250.516 126.872 249.182C132.061 244.734 137.299 240.336 142.489 235.888C142.933 235.591 143.428 234.603 144.218 235.591Z" fill="#4189C9"/>
<path d="M258.527 248.54C252.399 244.882 245.727 242.807 238.858 241.176C229.863 239.051 220.572 238.161 211.331 238.656C204.807 239.001 198.333 239.891 192.304 242.757C191.563 243.103 190.871 243.499 190.228 243.943C185.336 247.205 184.594 251.554 188.153 256.249C188.894 257.237 189.685 258.127 190.673 259.313C187.51 259.313 184.693 258.72 181.926 258.176C174.463 256.694 167.446 254.124 161.416 249.281C158.501 246.958 155.881 244.388 153.954 241.127C154.745 239.842 156.079 239.249 157.315 238.507C159.687 237.519 161.861 236.086 164.233 234.998C174.76 230.155 186.028 227.19 197.542 226.103C202.139 225.658 206.735 225.213 211.38 225.411C225.02 225.955 238.561 228.327 251.559 232.429C254.919 233.466 258.23 234.653 261.739 235.789C261.739 234.801 261.196 234.208 260.8 233.565C259.416 231.193 257.786 228.92 256.006 226.795C255.364 226.004 254.425 225.362 254.474 224.175C256.303 224.62 258.181 225.016 260.009 225.46C260.504 225.559 261.097 225.856 261.393 225.46C261.838 224.917 261.196 224.472 260.899 224.077C258.181 220.024 254.82 216.565 251.163 213.352C253.091 212.216 255.067 213.155 256.945 213.402C276.17 215.873 293.665 222.693 308.935 234.652C329.148 250.516 342.195 270.976 347.73 296.181C349.509 304.582 350.053 313.23 349.41 321.78C348.323 336.656 343.628 350.394 334.831 362.601C334.238 363.392 333.448 364.034 333.052 364.973C331.076 367.938 328.11 369.965 325.442 372.139C310.863 384 293.813 390.178 275.478 393.044C261.196 395.317 246.666 395.564 232.334 393.785C209.749 391.018 188.153 382.863 169.373 370.014C164.777 366.901 160.28 363.688 156.277 359.834C156.128 359.735 156.128 359.537 156.227 359.389L156.277 359.339C157.117 358.993 157.66 359.636 158.254 360.031C167.841 367.247 178.763 372.535 190.377 375.648C194.281 376.636 198.185 377.427 202.188 378.02C203.078 378.366 204.066 378.168 204.956 378.366C205.153 378.366 205.351 378.416 205.499 378.465C214.494 379.552 223.488 378.91 232.384 377.328C251.905 373.869 269.3 365.715 284.126 352.519C294.258 343.574 302.264 332.998 306.514 319.952C310.764 306.905 310.171 294.204 304.191 281.651C302.956 287.285 300.04 291.93 296.333 296.181C292.627 300.332 288.278 303.89 283.435 306.658C282.891 307.004 282.249 307.597 281.606 307.102C281.062 306.658 281.359 305.916 281.557 305.373C282.743 301.468 283.533 297.465 283.978 293.413C285.708 276.363 279.135 263.069 265.545 253.037C263.271 251.356 260.948 249.874 258.527 248.54Z" fill="#262F71"/>
<path d="M202.188 378.366C197.197 377.872 192.255 376.834 187.411 375.351C178.318 372.584 169.719 368.581 161.762 363.342C159.884 362.107 158.254 360.426 156.227 359.438C155.041 359.29 154.547 358.104 153.608 357.609C133.642 339.868 120.002 318.073 112.194 292.622C108.389 280.267 106.313 267.418 106.115 254.47C106.165 253.481 106.214 252.542 106.313 251.01C107.301 253.185 108.043 254.865 108.833 256.595C115.999 272.36 125.191 286.692 137.843 298.651C151.285 311.352 166.951 319.852 185.385 322.818C206.982 326.326 227.195 322.571 245.777 310.907C255.067 305.076 262.629 297.613 267.027 287.383C272.315 274.979 270.338 263.464 262.233 252.839C261.542 251.9 260.751 251.01 260.059 250.121C260.998 249.281 261.542 250.269 262.085 250.714C266.879 254.717 270.684 259.758 273.254 265.49C275.725 270.976 277.059 276.857 277.109 282.886C277.208 289.014 275.824 295.093 273.155 300.628C273.748 300.628 274.292 300.43 274.737 300.035C277.307 298.552 279.728 296.823 282.001 294.895C282.693 294.302 283.336 293.363 284.472 293.512C283.879 298.157 282.842 302.753 281.458 307.25C284.423 305.57 287.289 303.692 290.007 301.567C292.133 299.887 293.862 297.811 295.987 296.081C296.877 296.477 296.877 297.366 297.075 298.108C300.485 310.463 298.014 321.977 291.935 332.85C284.522 346.045 273.649 355.88 260.998 363.836C250.768 370.261 239.55 374.857 227.738 377.427C220.325 379.107 212.714 379.552 205.153 378.761C204.165 378.218 203.127 378.811 202.188 378.366Z" fill="#161F42"/>
<path d="M388.996 286.741C388.353 272.607 384.845 258.77 378.717 246.019C374.713 237.717 369.673 229.958 363.693 222.94C358.306 216.565 352.129 211.129 345.605 205.94C346.198 205.347 346.989 205.445 347.681 205.544C356.774 206.582 365.67 208.707 374.269 211.87C376.394 212.661 378.469 213.6 380.446 214.736C381.138 215.082 381.83 215.478 382.522 215.922C382.67 216.021 382.769 216.268 383.016 216.219C382.868 216.021 382.818 215.774 382.917 215.527C377.086 207.916 369.969 201.541 362.556 195.512C353.71 188.346 344.073 182.218 333.794 177.276C319.561 170.258 304.29 165.662 288.525 163.735C287.141 163.537 285.658 163.735 284.324 163.241C284.225 162.302 285.016 162.005 285.56 161.56C294.801 153.851 302.214 144.758 307.453 133.935C309.034 130.673 310.369 127.263 311.456 123.803C311.752 122.815 311.95 121.728 312.938 121.135C329.494 129.091 344.32 140.161 356.675 153.752C389.49 189.829 401.845 239.99 389.589 287.186C389.243 287.335 389.194 286.989 388.996 286.741Z" fill="#4189C9"/>
<path d="M333.003 364.973C333.003 363.54 334.14 362.7 334.881 361.662C341.651 352.025 345.753 341.35 347.878 329.786C349.213 322.62 349.312 315.405 348.867 308.239C348.126 297.218 345.309 286.593 340.861 276.412C337.599 268.95 333.497 261.883 328.654 255.359C323.465 248.49 317.436 242.213 310.764 236.777C300.485 228.277 288.624 221.902 275.873 217.948C269.103 215.774 262.085 214.34 255.018 213.649C253.733 213.55 252.498 213.204 251.163 213.303C246.666 209.992 242.07 206.779 236.93 204.456L236.98 203.962C238.808 203.962 240.686 204.012 242.515 203.962C268.411 203.517 292.33 209.843 313.186 225.608C334.782 241.966 348.323 263.563 353.364 290.25C357.664 312.983 354.352 334.481 341.701 354.199C339.23 358.202 336.512 361.909 333.003 364.973Z" fill="#161F42"/>
<path d="M313.037 121.135C310.467 129.091 307.206 136.702 302.511 143.67C297.816 150.688 292.083 156.964 285.51 162.302C285.115 162.598 284.769 162.944 284.423 163.29C282.15 164.427 280.272 166.206 278.196 167.59C270.536 172.63 262.332 176.881 253.783 180.192C253.585 180.241 253.338 180.29 253.14 180.34C252.745 179.796 253.19 179.599 253.437 179.352C258.28 174.706 261.294 169.023 263.321 162.697C263.518 161.857 264.111 161.165 264.902 160.918C279.975 154.938 292.034 145.054 301.868 132.304C302.758 131.167 303.647 129.981 304.735 128.498C301.671 128.449 299.348 129.981 296.778 130.376C296.284 130.426 295.641 130.821 295.543 129.882C304.883 118.96 311.95 106.21 316.2 92.5204C316.447 91.6309 316.2 90.4448 317.436 90C317.534 90.0494 317.584 90.1483 317.534 90.2471C317.534 90.3459 317.485 90.3954 317.485 90.3954C317.337 100.181 315.953 109.916 313.383 119.356C313.235 119.899 313.136 120.492 313.037 121.135Z" fill="#161F42"/>
<path d="M254.425 224.225C257.489 227.586 260.158 231.342 262.382 235.345C262.579 235.74 263.123 236.185 262.629 236.63C262.233 236.976 261.838 236.531 261.443 236.383C251.41 232.627 241.082 229.81 230.506 227.981C225.168 227.042 219.782 226.647 214.395 226.252C209.552 225.955 204.659 226.005 199.816 226.449C188.746 227.339 177.972 229.711 167.693 234.159C164.53 235.543 161.318 236.778 158.352 238.607C158.006 238.804 157.611 239.15 157.216 238.656C166.111 232.38 175.995 227.635 186.472 224.621C200.903 220.321 215.581 219.283 230.555 220.42C238.166 221.013 245.727 222.199 253.14 223.879C253.634 223.929 254.03 224.077 254.425 224.225Z" fill="#161F42"/>
<path d="M250.719 120.344H252.942C254.128 120.838 255.463 120.195 256.649 120.69H258.873C259.07 121.777 258.181 122.222 257.588 122.716C247.309 131.414 237.128 140.161 226.849 148.81C223.439 151.676 220.078 154.542 216.717 157.409C216.174 157.755 215.778 158.249 215.531 158.793C211.084 160.473 206.932 162.549 203.671 166.156C202.139 167.886 201.101 169.863 200.013 171.839C196.949 173.816 194.38 176.436 191.612 178.758C184.298 184.886 177.083 191.163 169.768 197.241C169.175 197.736 168.731 198.477 168.039 198.872C166.803 196.994 167.05 194.919 167.347 192.892C168.286 191.36 169.719 190.421 171.004 189.285C178.12 183.256 185.187 177.226 192.255 171.197C199.173 165.316 206.043 159.435 212.962 153.603C220.918 146.882 228.825 140.112 236.782 133.341C241.18 129.585 245.579 125.78 250.076 122.123C250.768 121.678 251.213 121.233 250.719 120.344Z" fill="#5C94CE"/>
<path d="M380.792 215.28C372.094 211.079 362.853 208.46 353.364 206.928C350.794 206.533 348.274 205.989 345.704 205.989C342.393 203.913 339.131 201.689 335.721 199.713C324.7 193.337 312.642 188.988 300.04 186.962C299.743 186.863 299.496 186.765 299.249 186.666C303.005 185.974 315.904 187.901 324.799 190.372C333.102 192.646 341.108 195.759 348.768 199.762C347.977 197.34 346.495 195.759 345.605 193.832C345.506 193.337 344.814 192.893 345.259 192.349C345.704 191.805 346.297 192.398 346.742 192.596C348.027 193.189 349.262 193.881 350.547 194.474C361.321 200.059 371.501 206.78 380.891 214.489C381.385 215.132 381.385 215.132 380.792 215.28Z" fill="#161F42"/>
<path d="M250.719 120.343C250.966 120.887 251.657 120.492 252.003 121.085C249.928 122.864 247.852 124.692 245.777 126.472C241.971 129.684 238.166 132.896 234.36 136.108C228.974 140.655 223.587 145.251 218.151 149.798C214.395 152.961 210.738 156.222 206.982 159.435C202.435 163.29 197.839 167.095 193.342 170.95C189.734 174.014 186.176 177.127 182.568 180.191C178.763 183.403 174.958 186.616 171.152 189.828L167.347 193.04L168.434 188.197C167.841 186.616 169.126 185.924 169.966 185.183C173.426 182.316 176.835 179.351 180.245 176.435C188.252 169.665 196.208 162.845 204.214 156.074C211.084 150.243 217.953 144.411 224.822 138.579C231.198 133.143 237.622 127.756 243.948 122.221C244.442 121.777 245.381 121.282 243.997 120.739C246.221 119.948 248.495 120.541 250.719 120.343Z" fill="#6497D0"/>
<path d="M244.047 120.739C244.541 120.838 245.134 120.542 245.678 120.986C244.393 122.914 242.465 124.149 240.736 125.632C235.892 129.882 230.95 134.033 226.058 138.185C221.561 141.99 217.014 145.746 212.517 149.551C208.02 153.356 203.522 157.31 198.976 161.165C194.429 165.02 189.932 168.726 185.435 172.531C180.937 176.337 176.44 180.241 171.893 184.145C170.559 185.331 168.731 186.122 168.385 188.148C166.012 188.445 164.728 190.422 162.998 191.706C160.23 193.683 158.105 196.401 155.585 198.625C153.015 200.454 150.742 202.628 148.37 204.655C141.253 210.684 134.186 216.762 127.069 222.742C126.081 223.582 125.191 224.571 124.104 225.263C123.61 225.559 123.165 226.152 122.473 225.658C122.424 224.373 122.671 223.088 123.215 221.952C126.773 219.678 129.738 216.664 132.95 213.995C141.797 206.582 150.544 199.07 159.341 191.608C168.138 184.145 176.786 176.732 185.533 169.319C194.083 162.054 202.633 154.79 211.182 147.525C219.93 140.112 228.677 132.699 237.375 125.236C239.105 123.754 240.933 122.37 242.564 120.789L244.047 120.739Z" fill="#689AD1"/>
<path d="M263.321 121.085C265.347 121.036 267.274 121.579 269.251 121.826C269.795 123.013 268.757 123.457 268.164 124.001C265.693 126.175 263.123 128.202 260.701 130.426C260.454 130.08 260.158 129.734 259.911 129.388C259.367 128.597 258.972 128.795 258.626 129.536C255.71 135.812 250.719 140.161 245.233 144.016C239.105 148.316 232.482 151.923 225.514 154.79C225.119 154.098 225.119 154.048 225.761 153.406C227.096 152.022 228.628 150.885 230.061 149.65C240.587 140.705 251.114 131.809 261.591 122.765C262.184 122.271 262.728 121.678 263.321 121.085Z" fill="#4E8FCC"/>
<path d="M263.321 121.085C263.271 121.678 262.925 122.271 262.431 122.617C255.661 128.35 248.89 134.132 242.119 139.864C236.93 144.263 231.791 148.711 226.601 153.158C226.157 153.554 225.267 153.85 225.514 154.789C222.253 156.321 218.892 157.705 215.482 158.842C214.345 158.545 215.284 158.1 215.482 157.903C217.508 156.124 219.534 154.344 221.61 152.615C225.366 149.402 229.171 146.19 232.977 142.978C236.733 139.815 240.489 136.652 244.195 133.489C247.902 130.326 251.657 127.114 255.364 123.902C256.55 122.864 258.033 122.073 258.823 120.64C260.355 120.541 261.838 121.035 263.321 121.085Z" fill="#5591CD"/>
<path d="M237.029 165.662C240.933 163.735 245.035 162.104 248.445 159.287C249.137 159.238 249.088 159.682 248.89 160.127C245.727 173.174 235.843 181.773 222.45 183.009C219.88 183.256 217.311 183.552 214.691 183.305C215.037 182.366 215.927 182.416 216.668 182.218C219.584 181.427 222.45 180.587 225.168 179.203C230.209 176.584 233.916 172.729 236.041 167.441C236.189 166.749 236.535 166.107 237.029 165.662Z" fill="#161F42"/>
<path d="M237.029 165.662C235.398 171.889 231.445 176.189 225.959 179.302C222.45 181.279 218.546 182.218 214.691 183.305C213.752 180.538 214.79 178.215 216.421 176.09C218.348 173.619 221.017 172.087 223.834 170.802C228.134 168.825 232.532 167.145 237.029 165.662Z" fill="#418AC9"/>
<path d="M122.473 225.609C124.648 224.818 126.081 222.94 127.811 221.507C133.395 216.911 138.881 212.216 144.366 207.571C147.282 205.1 150.099 202.629 152.966 200.108C153.756 199.416 154.448 198.675 155.585 198.576C152.62 202.283 149.803 206.088 147.678 210.388C141.994 215.181 136.311 220.024 130.677 224.868C128.058 227.092 125.389 229.266 122.819 231.589C122.424 231.935 121.979 232.38 121.386 231.885C121.485 229.81 121.831 227.685 122.473 225.609Z" fill="#6497D0"/>
<path d="M144.218 235.591C142.489 235.739 141.698 237.271 140.512 238.21C135.619 242.164 130.924 246.216 126.18 250.318C124.598 251.702 123.066 253.086 121.386 254.371C120.299 255.211 119.854 254.865 119.904 253.58C119.904 252.048 119.904 250.516 119.904 248.934C121.633 247.056 123.659 245.623 125.587 243.992C131.122 239.297 136.558 234.553 142.192 229.957C142.686 229.562 143.082 228.82 143.922 229.315L144.218 235.591Z" fill="#468CCA"/>
<path d="M168.039 198.971C168.088 198.329 168.434 197.785 168.978 197.439C173.425 193.683 177.873 189.927 182.321 186.171C185.978 183.107 189.586 179.944 193.243 176.831C195.17 175.2 197.048 173.52 198.926 171.889C199.272 171.592 199.618 171.345 199.964 171.889C199.569 173.569 199.075 175.25 199.124 177.029C197.147 179.203 194.726 180.933 192.502 182.86C185.583 188.791 178.664 194.672 171.745 200.553C171.449 200.8 171.251 201.096 171.004 201.393C169.67 201.146 168.533 200.256 168.039 198.971Z" fill="#5591CD"/>
<path d="M121.337 231.934C122.918 231.44 123.857 230.056 125.093 229.068C131.616 223.681 137.991 218.195 144.465 212.71C145.503 211.87 146.195 210.585 147.727 210.437C146.541 213.352 145.553 216.318 144.762 219.332C143.625 219.233 143.032 220.123 142.291 220.765C135.57 226.547 128.799 232.231 122.078 237.964C121.683 238.309 121.287 238.804 120.645 238.606C120.546 236.333 120.793 234.109 121.337 231.934Z" fill="#5C94CE"/>
<path d="M171.004 201.393C170.559 200.553 171.3 200.306 171.745 199.96C177.429 195.116 183.112 190.273 188.795 185.48C192.007 182.761 195.22 180.043 198.481 177.325C198.679 177.226 198.926 177.128 199.173 177.078C199.173 178.61 199.42 180.093 199.865 181.526C197.938 183.799 195.467 185.48 193.243 187.407C188.252 191.706 183.26 195.957 178.17 200.207C177.824 200.454 177.527 200.8 177.429 201.195C175.303 201.986 173.178 202.282 171.004 201.393Z" fill="#4E8FCC"/>
<path d="M143.823 229.364C141.747 230.55 140.067 232.28 138.238 233.812C133.395 237.766 128.651 241.818 123.956 245.92C122.671 247.057 121.485 248.292 119.854 249.033C120.052 247.057 119.459 245.03 120.2 243.103C127.514 236.876 134.828 230.649 142.192 224.422C142.686 223.977 143.23 223.483 143.971 223.829L143.823 229.364Z" fill="#4E8FCC"/>
<path d="M144.021 223.78C141.648 225.015 139.869 226.992 137.843 228.672C133.049 232.626 128.404 236.678 123.659 240.632C122.622 241.521 121.88 242.905 120.299 243.053C120.497 241.571 119.904 240.039 120.694 238.606C125.29 234.652 129.936 230.698 134.581 226.794C137.695 224.125 140.858 221.506 144.021 218.837C145.009 217.997 144.762 218.936 144.811 219.381C144.465 220.814 144.268 222.297 144.021 223.78Z" fill="#5591CD"/>
<path d="M177.429 201.245C176.737 200.751 177.231 200.405 177.577 200.059C181.926 196.402 186.324 192.745 190.673 189.088C193.391 186.814 196.06 184.492 198.778 182.169C199.075 181.823 199.42 181.625 199.865 181.526L200.952 183.75C200.112 185.085 198.729 185.875 197.74 187.111C192.403 193.041 186.374 198.033 178.812 200.899C178.367 201.047 177.923 201.146 177.429 201.245Z" fill="#488DCA"/>
<path d="M260.701 130.476C261.393 128.4 263.568 127.758 264.853 126.275C266.236 124.694 268.46 124.002 269.3 121.827C270.931 121.827 272.463 122.272 273.995 122.519C275.33 122.766 275.429 123.359 274.49 124.199C272.463 125.978 270.437 127.807 268.411 129.537C266.484 131.168 264.556 132.798 262.629 134.429C261.937 133.095 261.294 131.761 260.701 130.476Z" fill="#468CCA"/>
<path d="M169.175 214.984C169.521 215.824 168.533 216.219 168.632 216.96C168.138 214.687 166.902 213.847 164.629 214.292C162.207 214.835 160.033 216.071 158.402 217.949C157.957 218.443 157.413 218.888 156.919 219.333C156.524 218.838 156.919 218.394 157.067 217.949C158.056 214.737 160.23 212.463 162.948 210.635C163.541 210.19 164.233 209.893 164.975 209.696C168.138 208.954 169.867 210.486 169.422 213.699C169.472 214.143 169.373 214.588 169.175 214.984Z" fill="#428AC9"/>
<path d="M169.175 214.984C169.175 214.49 169.225 213.995 169.225 213.501C169.274 210.289 167.446 209.053 164.431 210.437C160.972 212.019 158.797 214.835 157.265 218.245C156.919 218.295 156.722 218.196 156.82 217.801C157.908 213.748 160.033 210.437 163.541 208.065C164.431 207.472 165.419 207.126 166.408 206.928C168.039 206.582 169.67 207.571 170.065 209.202C170.609 211.129 170.312 213.254 169.175 214.984Z" fill="#182144"/>
<path d="M197.74 187.111C197.098 186.616 197.691 186.419 197.987 186.172C199.025 185.43 199.618 184.145 200.903 183.75C202.583 186.419 205.252 187.605 208.069 188.593C208.613 188.791 209.206 188.939 210.145 189.186C205.845 190.323 202.139 189.878 198.729 187.555C198.481 187.259 198.136 187.111 197.74 187.111Z" fill="#458CCA"/>
<path d="M350.498 194.425C349.114 194.276 348.126 193.337 346.89 192.893C346.396 192.695 345.951 192.102 345.457 192.497C345.061 192.843 345.704 193.337 345.556 193.832C344.814 193.189 344.518 192.201 344.122 191.262C346.346 192.151 348.521 193.041 350.498 194.425Z" fill="#63657D"/>
<path d="M380.792 215.28C381.188 215.033 380.792 214.736 380.842 214.439L382.967 215.626L384.103 217.108C382.72 216.713 381.781 215.922 380.792 215.28Z" fill="#263154"/>
<path d="M295.641 186.024C296.63 185.876 297.668 185.974 298.607 186.221C297.42 186.913 296.63 186.814 295.641 186.024Z" fill="#A09AA9"/>
<path d="M153.608 357.561C154.745 357.758 155.288 358.895 156.227 359.389L156.178 359.834C155.14 359.34 154.251 358.549 153.608 357.561Z" fill="#424A7F"/>
<path d="M388.996 286.741L389.638 287.137C389.737 287.878 389.391 288.52 388.996 289.41V286.741Z" fill="#8CB7DE"/>
<path d="M295.543 129.981C295.79 130.525 296.383 130.327 296.778 130.476L294.801 131.266C294.653 130.426 295.147 130.229 295.543 129.981Z" fill="#5A5D76"/>
<path d="M156.87 217.8L157.315 218.245C157.216 218.591 157.067 218.986 156.969 219.332L156.178 220.37C156.376 219.134 156.425 218.393 156.87 217.8Z" fill="#4F668A"/>
<path d="M248.89 160.077C248.791 159.781 248.841 159.385 248.445 159.237C248.544 158.94 248.89 158.545 249.038 158.693C249.483 159.138 249.285 159.632 248.89 160.077Z" fill="#555A73"/>
<path d="M123.956 218.936C124.45 216.268 124.994 213.599 126.18 211.128C130.529 208.064 134.384 204.407 138.436 200.997C145.454 195.067 152.471 189.136 159.44 183.156C165.815 177.72 172.19 172.284 178.615 166.848C185.533 160.967 192.452 155.086 199.371 149.205C205.647 143.867 211.973 138.53 218.25 133.143C222.648 129.387 227.145 125.681 231.445 121.826C233.767 121.282 236.09 120.986 238.462 121.085C238.66 120.887 238.957 120.887 239.204 120.986C239.747 121.875 239.055 122.37 238.512 122.864C232.532 127.905 226.602 132.995 220.622 138.085C214.246 143.472 207.921 148.859 201.546 154.295C195.665 159.286 189.833 164.278 183.952 169.269C176.835 175.348 169.67 181.377 162.504 187.456C153.608 194.968 144.762 202.578 135.866 210.09C132.407 213.006 129.046 215.971 125.537 218.788C125.241 219.134 124.648 220.271 123.956 218.936Z" fill="#6D9CD2"/>
<path d="M231.445 121.827C230.802 123.903 228.825 124.694 227.392 125.978C222.697 130.13 217.854 134.133 213.11 138.185C207.772 142.682 202.386 147.18 197.048 151.726C192.403 155.68 187.856 159.683 183.211 163.637C178.713 167.442 174.167 171.198 169.67 175.053C165.172 178.907 160.725 182.762 156.227 186.567C151.73 190.373 147.233 194.178 142.686 197.984C138.98 201.146 135.323 204.309 131.616 207.472C130.134 208.757 128.601 209.993 127.069 211.228C126.724 211.475 126.427 211.623 126.13 211.228C126.674 208.658 127.514 206.138 128.7 203.815C132.11 201.641 134.977 198.824 138.041 196.254C145.058 190.323 152.076 184.393 159.044 178.413C166.26 172.236 173.524 166.058 180.74 159.93C186.719 154.84 192.699 149.799 198.63 144.709C206.389 138.136 214.098 131.464 221.907 124.941C222.5 124.545 222.944 124.002 223.192 123.409C225.91 122.321 228.727 122.371 231.445 121.827Z" fill="#729FD4"/>
<path d="M223.29 123.31C224.427 123.606 223.488 124.051 223.29 124.249C221.215 126.127 219.09 128.004 216.915 129.833C213.159 132.996 209.403 136.159 205.647 139.322C200.162 143.918 194.676 148.563 189.191 153.209C184.693 157.014 180.245 160.918 175.748 164.724C171.103 168.677 166.457 172.581 161.812 176.486C157.315 180.291 152.867 184.146 148.37 188C143.872 191.806 139.375 195.611 134.878 199.417C133.247 200.8 131.616 202.184 129.936 203.568C129.59 203.815 129.244 204.457 128.75 203.765C129.244 201.245 130.578 199.021 131.715 196.748C137.794 191.559 143.922 186.37 150.05 181.131C156.326 175.744 162.652 170.407 168.928 165.07C174.958 159.93 180.937 154.84 186.967 149.749C193.292 144.363 199.668 138.926 205.993 133.54C209.255 130.772 212.467 127.856 215.877 125.138C218.2 124.051 220.77 123.754 223.29 123.31Z" fill="#78A2D5"/>
<path d="M215.877 125.138C213.505 128.202 210.342 130.327 207.476 132.847C203.72 136.109 199.915 139.321 196.109 142.534C192.403 145.647 188.696 148.76 184.99 151.923C181.283 155.086 177.626 158.249 173.92 161.363C170.213 164.526 166.408 167.688 162.652 170.851C158.995 173.965 155.387 177.078 151.73 180.192C147.085 184.145 142.439 188.049 137.794 191.954C136.163 193.337 134.482 194.721 132.852 196.105C132.555 196.401 132.16 196.599 131.715 196.649C132.901 193.535 134.384 190.57 136.163 187.753C144.614 180.884 152.867 173.718 161.169 166.651C170.806 158.447 180.443 150.342 190.031 142.089C195.417 137.443 201.051 132.995 206.29 128.103C209.354 126.867 212.566 125.879 215.877 125.138Z" fill="#7DA5D6"/>
<path d="M206.24 128.152C206.636 128.795 205.944 128.992 205.647 129.289C201.546 132.897 197.394 136.455 193.243 140.013C189.586 143.127 185.929 146.191 182.272 149.304C177.725 153.159 173.178 157.014 168.632 160.819C164.925 163.982 161.268 167.145 157.562 170.258C152.916 174.212 148.271 178.116 143.675 182.02C141.747 183.651 139.82 185.331 137.942 186.962C137.448 187.456 136.805 187.753 136.163 187.852C138.436 183.256 141.204 178.907 144.317 174.904C147.183 172.779 149.803 170.357 152.521 168.084C159.588 162.104 166.606 156.124 173.623 150.144C179.059 145.499 184.496 140.853 189.932 136.257C190.772 135.565 191.81 135.071 192.452 134.132C196.801 131.414 201.546 129.833 206.24 128.152Z" fill="#81A7D8"/>
<path d="M284.423 293.463C280.717 296.527 277.01 299.641 272.068 301.766C273.501 298.899 274.588 295.885 275.33 292.771C278.246 279.922 275.527 268.209 267.966 257.584C266.088 254.965 263.568 252.939 261.344 250.616C260.998 250.22 260.603 249.776 259.96 250.072C259.268 249.726 258.972 249.084 258.477 248.59C258.774 248.194 259.12 248.392 259.466 248.59C268.411 253.68 275.873 260.253 280.469 269.692C282.693 274.337 284.077 279.378 284.522 284.518C284.818 287.483 284.769 290.498 284.423 293.463Z" fill="#0E1F66"/>
<path d="M123.956 218.937C125.439 219.481 125.933 217.998 126.674 217.405C134.186 211.178 141.599 204.852 149.012 198.477C156.03 192.497 162.948 186.468 169.966 180.488C177.774 173.866 185.632 167.293 193.49 160.671C200.508 154.691 207.476 148.662 214.494 142.682C222.055 136.257 229.616 129.783 237.227 123.309C238.018 122.667 239.105 122.321 239.253 121.085C239.698 120.69 240.291 121.135 240.736 120.739H242.614C242.07 122.716 240.143 123.408 238.808 124.594C234.954 128.053 230.95 131.315 227.046 134.626C222.549 138.432 218.002 142.237 213.505 146.042C209.848 149.156 206.24 152.269 202.583 155.383C197.197 159.929 191.76 164.476 186.423 169.072C182.766 172.186 179.158 175.299 175.501 178.412C170.856 182.366 166.21 186.27 161.565 190.174C157.908 193.288 154.3 196.401 150.643 199.515C146.887 202.678 143.131 205.841 139.375 209.004C135.619 212.166 131.913 215.428 128.157 218.591C126.872 219.678 125.488 220.766 124.154 221.853C123.857 222.1 123.561 222.298 123.215 221.853C123.215 220.914 123.462 219.876 123.956 218.937Z" fill="#699AD1"/>
<path d="M192.502 134.033C192.205 135.812 190.475 136.257 189.388 137.246C185.583 140.655 181.679 143.868 177.774 147.179C173.228 151.034 168.681 154.839 164.135 158.694C160.477 161.807 156.87 164.921 153.213 168.034C150.544 170.308 147.925 172.581 145.256 174.854C144.96 175.101 144.663 175.299 144.317 174.854C146.244 171.889 148.419 169.072 150.791 166.403C159.489 156.272 169.422 147.475 180.789 140.408C184.594 138.086 188.35 135.664 192.502 134.033Z" fill="#88ABD9"/>
<path d="M256.649 120.74C255.413 120.591 254.128 121.135 252.942 120.394C254.178 120.542 255.463 119.998 256.649 120.74Z" fill="#5591CD"/>
<path d="M240.686 120.739C240.291 121.283 239.698 121.036 239.204 121.085H238.462C239.154 120.443 239.945 120.838 240.686 120.739Z" fill="#689AD1"/>
<path d="M205.104 378.712C217.212 379.256 229.27 377.329 240.587 373.128C251.608 369.125 261.887 363.343 271.03 355.979C279.975 348.714 287.685 340.412 292.824 329.984C295.592 324.4 297.322 318.37 297.865 312.193C298.359 306.609 297.42 301.321 295.888 296.082C296.037 294.797 297.223 294.204 297.915 293.315C300.583 289.806 302.511 286.05 303.351 281.701C303.499 281.108 303.697 280.564 303.944 280.021C305.624 283.381 306.959 286.89 307.898 290.498C309.182 295.588 309.924 300.777 309.528 306.015C308.837 315.109 306.118 323.955 301.572 331.862C297.025 339.868 291.194 346.688 284.472 352.816C278.542 358.104 272.019 362.7 265.001 366.407C256.55 371.003 247.556 374.413 238.166 376.637C232.334 378.021 226.354 378.861 220.375 379.207C217.459 379.355 214.592 379.602 211.726 379.454C209.601 379.256 207.328 379.404 205.104 378.712Z" fill="#0E1F66"/>
</g>
<defs>
<linearGradient id="paint0_linear_1152_37" x1="250" y1="0" x2="250" y2="500" gradientUnits="userSpaceOnUse">
<stop stop-color="#1D2131"/>
<stop offset="1" stop-color="#141827"/>
</linearGradient>
<clipPath id="clip0_1152_37">
<rect width="500" height="500" fill="white"/>
</clipPath>
</defs>
</svg>
