<svg id="Layer_1" data-name="Layer 1" xmlns="http://www.w3.org/2000/svg" xmlns:xlink="http://www.w3.org/1999/xlink" viewBox="0 0 40 40"><defs><style>.cls-1{fill:url(#linear-gradient);}.cls-2{fill:#020202;}.cls-3{fill:#6d5a50;}.cls-4{fill:#2c231e;}.cls-5{fill:#a07d6a;}.cls-6{fill:#924e2a;}.cls-7{fill:#805945;}.cls-8{fill:#805944;}.cls-9{fill:#723f25;}.cls-10{fill:#846351;}.cls-11{fill:#914e2a;}.cls-12{fill:#674331;}.cls-13{fill:#713f24;}.cls-14{fill:#836251;}.cls-15{fill:#836351;}.cls-16{fill:#703e24;}.cls-17{fill:#fefefe;}.cls-18{fill:#030202;}.cls-19{fill:#c6a694;}.cls-20{fill:#ad5d45;}.cls-21{fill:#070302;}.cls-22{fill:#a5816d;}.cls-23{fill:#a3816d;}.cls-24{fill:#fafafa;}.cls-25{fill:#eee;}.cls-26{fill:#904a34;}</style><linearGradient id="linear-gradient" x1="745.8945" y1="3622.1799" x2="708.6045" y2="3622.1799" gradientTransform="matrix(0, 1, 1, 0, -3602.1799, -707.31)" gradientUnits="userSpaceOnUse"><stop offset="0" stop-color="#66331f"/><stop offset="0.99" stop-color="#b95e39"/></linearGradient></defs><title>dinger</title><path class="cls-1" d="M37,26.26V13.66a6,6,0,0,0-3-5.2L23,2.16a5.87,5.87,0,0,0-6,0L6,8.46a6,6,0,0,0-3,5.2v12.6a6,6,0,0,0,3,5.2l11,6.3a5.87,5.87,0,0,0,6,0l11-6.3A6.09,6.09,0,0,0,37,26.26Z"/><g id="Layer_2" data-name="Layer 2"><g id="Layer_1-2" data-name="Layer 1-2"><path class="cls-2" d="M18.82,30.13H13.99c-.11,0-.16-.05-.17-.16s-.05-.13,0-.19a2.8939,2.8939,0,0,0,0-.59,1.8386,1.8386,0,0,0,0-.23V27.74a5.3644,5.3644,0,0,1,.08-.56,4.8377,4.8377,0,0,1,.14-.51.37.37,0,0,0,0-.29,2.7415,2.7415,0,0,1-.17-.48,1.6054,1.6054,0,0,1,0-.31V24.3H12.52c-.21,0-.41-.05-.61-.06a2.3866,2.3866,0,0,0-.38,0c-.11,0-.14,0-.16-.15a.5306.5306,0,0,1,0-.19.7082.7082,0,0,1,.1-.14c.09-.11.17-.22.26-.32l.08-.08v.05l.12-.15.06-.06.35-.4v-.05h0l.2-.27c.12-.14.24-.29.35-.44s.17-.26.26-.38l.4-.51.23-.28c0-.07.12-.06.18-.06h2.2l.29-.55a3.4942,3.4942,0,0,1,.31-.53,3.7082,3.7082,0,0,1,.37-.42l.19-.18.16-.13-.13-.09c-.16-.13-.32-.26-.47-.4s-.21-.25-.33-.37l-.36-.37a.8774.8774,0,0,1-.12-.17c-.09-.11-.19-.23-.27-.35s-.25-.35-.37-.53l-.12-.22a.14.14,0,0,1,0-.16.3.3,0,0,1,.15,0h.08c-.08-.16-.16-.32-.25-.47a2,2,0,0,1-.21-.47.26.26,0,0,1,0-.21.23.23,0,0,1,.26,0l.34.22c.05,0,.11.06.17.1s0-.16,0-.24v-.71a4.5524,4.5524,0,0,1,.08-.5c.03-.17.07-.37.12-.56.08-.35.18-.7.26-1l.12-.56a.56.56,0,0,1,0-.12,1.4908,1.4908,0,0,1,.13-.39,3.1223,3.1223,0,0,1,.35-.79.22.22,0,0,1,.25-.14.46.46,0,0,1,.18.13c.12.09.23.2.35.3l.31.13c.1.11.21.22.31.34l.33.36c.07.08.15.15.21.23s.17.24.25.35l.05.08a1.23,1.23,0,0,1,.53-.14,5.7978,5.7978,0,0,1,1,0,3.9316,3.9316,0,0,1,.48.06h.47l.14-.25.28-.44.3-.45.26-.34.21-.28a1.1623,1.1623,0,0,1,.25-.29c.08,0,.14-.14.22-.2a1.1906,1.1906,0,0,1,.23-.16.2606.2606,0,0,1,.15,0,.08.08,0,0,1,.07.0888l0,.0012a.4646.4646,0,0,1-.09.24h0a2.6685,2.6685,0,0,1,.28,0,.14.14,0,0,1,.1.24l-.16.16a.12.12,0,0,0,0,.14c.05.12.09.25.13.38s.15.51.22.76.14.54.22.81.18.6.28.9a3.6339,3.6339,0,0,1,.15.65c.04.22.06.38.1.58s.05.35.08.53c.12,0,.16-.07.17-.19a3.077,3.077,0,0,1,.08-.68.7412.7412,0,0,1,.06-.35,1,1,0,0,1,.27-.5.62.62,0,0,1,.41-.18.39.39,0,0,1,.37.21c.09.15.16.31.24.47a.8527.8527,0,0,1,0,.22,3.3787,3.3787,0,0,1,0,.45v1.22l-.12.7a2.1342,2.1342,0,0,1-.1.42l-.15.62a2.3165,2.3165,0,0,1-.13.37,1.0747,1.0747,0,0,1-.14.36c-.05.12-.17.44-.27.66a3.3345,3.3345,0,0,1-.28.48c-.1.16-.21.31-.32.47l-.35.48-.11.12H27a.16.16,0,0,1,.14.08c.05.07.09.16.14.24l.34.52.15.25c.1.19.21.38.31.58l.21.47c.07.14.15.27.23.41s.14.2.2.31a.4715.4715,0,0,1,0,.17.8726.8726,0,0,1,0,.16.14.14,0,0,1-.1166.16.1374.1374,0,0,1-.0434,0H28a2.8052,2.8052,0,0,1-.29,0h-.5v.51a2.5388,2.5388,0,0,1,0,.39v2.44a5.23,5.23,0,0,1,0,.56,2.4451,2.4451,0,0,1-.08.29,2.5925,2.5925,0,0,0-.08.26,1.1717,1.1717,0,0,0,0,.2v.1a.9994.9994,0,0,1-.05.2,1.1377,1.1377,0,0,1,.06.25v.54a.12.12,0,0,1-.06.13.8621.8621,0,0,0-.11.09h-.08a1.242,1.242,0,0,1-.43,0H24.33c-.05.05-.1,0-.16,0H22.11a3.6661,3.6661,0,0,1-.57-.05H18.83Zm4-11h0c.15-.09.3-.18.44-.28a5.5728,5.5728,0,0,0,.53-.49,6.29,6.29,0,0,0,.43-.47,5.739,5.739,0,0,0,.36-.5c.06-.08.11-.17.17-.24s.25-.26.36-.4a2.66,2.66,0,0,0,.21-.26h-.27c-.05,0-.17,0-.18-.07a.28.28,0,0,1,0-.22l.25-.35.07-.11-.7.33V15.4a2.7984,2.7984,0,0,0-.06-.71,2.8256,2.8256,0,0,0-.13-.63c-.05-.21-.07-.32-.1-.49L24,12.32c-.11-.46-.23-.91-.38-1.36a.31.31,0,0,1,.1-.38H23.6c-.1,0-.2.05-.26-.09l-.17.21h-.05c-.12.16-.25.31-.36.48-.34.49-.67,1-1,1.48a.21.21,0,0,1-.19,0,.2.2,0,0,0-.11,0h-.41c-.2,0-.41-.06-.61-.06h-.72a1.5824,1.5824,0,0,0-.38.05.33.33,0,0,1-.22,0c-.12,0-.17-.12-.23-.21l-.1-.14-.61-.63-.06-.07-.5-.54-.41-.36-.07.13c-.06.16-.13.31-.18.47s-.15.49-.21.74-.09.49-.13.73-.1.57-.14.86-.05.43-.08.64l-.09.55v1.24l-.62-.33h0l.18.37c.09.2.19.39.27.59v.13h-.25l.06.1c.11.14.22.29.34.43l.28.29c.14.14.25.3.39.44l.58.53a4.46,4.46,0,0,0,.71.52,2.0016,2.0016,0,0,1,.2.11,1.381,1.381,0,0,0,.33.2l.13.06.79.39h-.2a.2911.2911,0,0,1-.13,0,2.5967,2.5967,0,0,1-.27-.06l-.44-.16c-.05,0-.1-.06-.16-.08a4.88,4.88,0,0,1-.79-.4.12.12,0,0,0-.16,0,1.62,1.62,0,0,0-.46.48c-.13.23-.25.47-.37.71a1.3538,1.3538,0,0,0-.14.4h4.29a5.4435,5.4435,0,0,0,1.14,0h2.17v-.22a1.821,1.821,0,0,0-.22-.56,2.3905,2.3905,0,0,0-.38-.52,2.7335,2.7335,0,0,1-.23-.25h-.08c-.22.12-.45.23-.68.34h-.5l.16-.14.19-.13c.14-.1.26-.21.39-.31Zm2.93-3.85a.12.12,0,0,1,.0667.1561L25.81,15.45h0l-.06.13h0a2.1574,2.1574,0,0,1-.29.43v.13h.33c.07,0,.08.08.11.14a.17.17,0,0,1,0,.18l-.14.22h0l-.46.6a1.2086,1.2086,0,0,0-.2.3c-.09.25-.21.49-.32.74s-.16.35-.25.53l-.25.47-.15.27a.06.06,0,0,0,0,.07c.07.12.14.24.22.35l.16.32.1.19.18-.2c.21-.28.41-.56.6-.85a4,4,0,0,0,.29-.51,3.8374,3.8374,0,0,0,.17-.43,6.7151,6.7151,0,0,0,.27-.75c.11-.42.2-.84.29-1.26a4.0026,4.0026,0,0,0,.1-.68v-1a1.3162,1.3162,0,0,0,0-.34,3.8207,3.8207,0,0,0-.23-.51.18.18,0,0,0-.12-.05.31.31,0,0,0-.23.17,1.0585,1.0585,0,0,0-.12.2,3.888,3.888,0,0,0-.09.47,1.907,1.907,0,0,1-.05.53h0Zm1,9.26v-.42h-.6a.64.64,0,0,1-.35-.25,4.0047,4.0047,0,0,1-.23-.34l-.64-.9c-.09-.13-.18-.26-.26-.4l-.3-.47h0v1.22a5.1588,5.1588,0,0,1-.06.79,1.5018,1.5018,0,0,0,0,.21v1.08a.614.614,0,0,0,0,.13V29.8l.26.05h1.79a2.3319,2.3319,0,0,1,.37,0c.05,0,.07,0,.07-.07a1.6152,1.6152,0,0,1,0-.22.7.7,0,0,0-.08-.49.56.56,0,0,1-.11-.54,1.0434,1.0434,0,0,1,.08-.25.6005.6005,0,0,0,.05-.24V24.93ZM14,21.06h-.06l-.54.72-.62.79c-.18.22-.37.45-.56.66s-.27.28-.4.42l-.1.12h5.14c.16,0,.24,0,.31-.13s.18-.27.26-.42.14-.31.21-.46a.15.15,0,0,1,.12-.1.16.16,0,0,1,.13.08.5654.5654,0,0,1,0,.14.6832.6832,0,0,0,.06.34,1.029,1.029,0,0,1,.07.33h1.3a10.12,10.12,0,0,1,1.23.05,9.932,9.932,0,0,0,1.22,0h.06c.06,0,.21-.31.33-.45s.29-.3.42-.45.38-.46.56-.7l.68-.9.1-.12h-.27l-.65.08h-.94a3.4784,3.4784,0,0,1-.45.06H18.74a7.98,7.98,0,0,1-.85,0H14.58C14.38,21.11,14.21,21.06,14,21.06Zm1.31,8.75h7.05A11.51,11.51,0,0,0,24,29.79v-.52a6.5712,6.5712,0,0,0,0-1V26.41a5.2956,5.2956,0,0,0,0-.69,4.2125,4.2125,0,0,0,0-.5,2.5505,2.5505,0,0,1,0-.29V22.76h0a3.7206,3.7206,0,0,1,0-1V21.7l-.21.25c-.11.13-.25.26-.35.4a9.5164,9.5164,0,0,1-.72.83l-.3.37-.21.28a.75.75,0,0,1-.16.15.89.89,0,0,1-.43.08H18c-.14,0-.2,0-.21-.19s0-.22,0-.34h0l-.11.12-.28.41a.24.24,0,0,1-.15.13.996.996,0,0,1-.25,0h-.85a4.3972,4.3972,0,0,0-.89,0l-.67.05h-.34a.0527.0527,0,0,0-.05.06.7671.7671,0,0,1,0,.15v1.61a.29.29,0,0,0,.05.13,1.0738,1.0738,0,0,1,.08.19,1.49,1.49,0,0,1-.1.86,1.6256,1.6256,0,0,0-.07.3l-.06.62v1.65h1.21Zm13.11-6v-.07L28,23.06c-.12-.21-.23-.43-.34-.64l-.28-.47-.11-.19c-.11-.19-.23-.38-.35-.57a.07.07,0,0,0-.06,0H24.79a1.71,1.71,0,0,0-.32,0,.35.35,0,0,0-.11,0v.05c.19.25.38.5.56.77a8.7342,8.7342,0,0,1,.52.82q.25.45.54.87a.1194.1194,0,0,0,.08,0H27l.66.05h.57Zm-4.69-4.52a7.989,7.989,0,0,0,.47-.75h0l-.65.56Z"/><path class="cls-3" d="M12.27,22.78v.05l-.35.4-.06.06h0l.37-.43h0Z"/><path class="cls-4" d="M11.84,23.25h0l-.12.15v-.05Z"/><path class="cls-5" d="M21.37,24.06h.19a.89.89,0,0,0,.43-.08.75.75,0,0,0,.16-.15l.21-.28.3-.37a9.5164,9.5164,0,0,0,.72-.83c.1-.14.24-.27.35-.4l.21-.25v.06a3.7206,3.7206,0,0,0,0,1h0v2.17a2.5505,2.5505,0,0,0,0,.29,4.2125,4.2125,0,0,1,0,.5,5.2956,5.2956,0,0,1,0,.69c-.05.62,0,1.24,0,1.86a6.5712,6.5712,0,0,1,0,1v.52a11.5163,11.5163,0,0,1-1.66.05H15.23l-.16-.08a1.0006,1.0006,0,0,1-.37-.36c-.09-.14-.17-.28-.26-.41a.6079.6079,0,0,1-.09-.18c-.09-.39-.17-.79-.26-1.19h0a1.6256,1.6256,0,0,1,.07-.3,1.49,1.49,0,0,0,.1-.86,1.0738,1.0738,0,0,0-.08-.19.29.29,0,0,1-.05-.13v-1.2l.53-.05.62-.06.47-.05a.22.22,0,0,0,.13-.08,3.7291,3.7291,0,0,0,.19-.34.089.089,0,0,1,.11-.08h.22a.9363.9363,0,0,0,.08.46.23.23,0,0,0,.2631.1912L16.75,24.93h3.93a.27.27,0,0,0,.25-.13c.07-.11.16-.21.23-.32Z"/><path class="cls-6" d="M23.19,10.68l.17-.21c.06.14.16.1.26.09h.12a.31.31,0,0,0-.1.38c.15.45.27.9.38,1.36l.3,1.22h0v2.86l.15-.11a.1.1,0,0,1,.09,0,.11.11,0,0,1,0,.08,1.7943,1.7943,0,0,1,0,.22h.28a.12.12,0,0,1,.09,0v.07c0,.02-.17.32-.26.47a1.5057,1.5057,0,0,1-.11.22l-.6.74c-.08.09-.17.16-.25.25a4.4561,4.4561,0,0,1-.58.57l-.19.19h-.06c-.13.1-.25.21-.39.31l-.19.13h0c-.33.1-.67.2-1,.28a1.5008,1.5008,0,0,1-.6.12,3.0015,3.0015,0,0,0-.43-.05h-.46l-.21-.12a11.0784,11.0784,0,0,1-1-.58c-.34-.24-.64-.51-1-.78l-.49-.33a1.3428,1.3428,0,0,1-.21-.2l-.64-.8-.19-.25v-.13c-.08-.2-.18-.39-.27-.59l-.18-.37h0l.62.33V14.88l.09-.55a4.6637,4.6637,0,0,1,.08-.64c.03-.21.09-.57.14-.86s.07-.49.13-.73.13-.49.21-.74.12-.31.18-.47l.07-.13.41.36a1.1823,1.1823,0,0,0,.11.19,4.6275,4.6275,0,0,1,.39.59l.49.95c0,.08.07.08.14,0l.39-.19a.33.33,0,0,0,.22,0,1.5824,1.5824,0,0,1,.38-.05h.72a2.1084,2.1084,0,0,1,.61.06h.41a.2.2,0,0,1,.11,0,.21.21,0,0,0,.19,0l.44.18h.31c0,.08,0,.08.08.09h.26c-.05.09,0,.14,0,.19h.05l.46.2.31.13h.05c.05,0,0-.06,0-.09v-.3a8.048,8.048,0,0,0-.11-.84,5.7771,5.7771,0,0,0-.22-1,2.4319,2.4319,0,0,1,0-.27.06.06,0,0,0-.06,0h0a.46.46,0,0,0-.12.12l-.56.72v-.06c.12-.21.24-.42.35-.64Zm-6,.66a1.3853,1.3853,0,0,1-.1.33c-.03.11-.09.5-.13.74s0,.29-.06.44,0,.24,0,.36a1.2108,1.2108,0,0,0,0,.38h.08l.75-.34a.14.14,0,0,0,.09-.08v-.11l.24-.05c.06,0,.09,0,.09-.09h.28c.08,0,.13,0,.1-.12a4.4469,4.4469,0,0,0-.22-.5,7.3589,7.3589,0,0,0-.42-.66c-.14-.2-.3-.38-.46-.57a.3907.3907,0,0,0-.1-.08.05.05,0,0,0-.07-.01l-.01.01h0s-.03.26-.03.35Zm3.21,7.72h.32a1.23,1.23,0,0,0,.62-.17.93.93,0,0,0,.47-.61H22a.69.69,0,0,0,.55-.21,1.9986,1.9986,0,0,0,.17-.23.66.66,0,0,0,.11-.7.16.16,0,0,0-.17-.11h0a.6205.6205,0,0,0-.28-.22l-.38-.2a1.0765,1.0765,0,0,0-.19,0h-.48a.25.25,0,0,0-.21-.21h-.13a1.63,1.63,0,0,0-.58-.05l-.41.06a.3694.3694,0,0,0-.14.07c-.08.06-.06.15-.06.23h-.4a2.3413,2.3413,0,0,0-.55.14.7194.7194,0,0,0-.34.21s-.11,0-.13.06a.56.56,0,0,0-.07.4,1,1,0,0,0,.25.49.71.71,0,0,0,.57.3h0a1.94,1.94,0,0,0,.76.6A1.7087,1.7087,0,0,0,20.4,19.06Zm-.86-3.22a1.4,1.4,0,0,0,.26.46l-.08-.6a.6.6,0,0,0,0-.35l-.08-.14a2.0831,2.0831,0,0,0-.3-.43,1.3705,1.3705,0,0,0-.71-.38,1.1791,1.1791,0,0,0-.59,0,2.19,2.19,0,0,0-.59.3c-.11.08-.11.15-.07.3a1.82,1.82,0,0,0,.31.56,1,1,0,0,0,.42.34l.28.1h.09a4.563,4.563,0,0,0,.52.06.7.7,0,0,0,.25-.05l.33-.18Zm1.94-.07.09.06a2.2425,2.2425,0,0,0,.37.2,1.41,1.41,0,0,0,1-.07.9984.9984,0,0,0,.26-.12,1.66,1.66,0,0,0,.52-.68l.06-.16a.14.14,0,0,0,.002-.198L23.78,14.8l-.28-.22h0l-.4-.14a1,1,0,0,0-.58,0,1.7592,1.7592,0,0,0-.58.29.5409.5409,0,0,0-.15.15,3.9947,3.9947,0,0,0-.27.44.9189.9189,0,0,0-.09.23,1.357,1.357,0,0,1-.07.25c-.02.09-.08.26-.11.39h0l.25-.4Z"/><path class="cls-5" d="M14,21.06h3.82a7.98,7.98,0,0,0,.85,0H21.6a3.4761,3.4761,0,0,0,.45-.06H23l.65.07H24l-.1.12-.68.9c-.18.24-.36.47-.56.7s-.29.29-.42.45-.22.3-.33.45,0,0-.06,0H20.63a10.2026,10.2026,0,0,1-1.23-.05H18.1a2.4569,2.4569,0,0,0-.07-.33.9737.9737,0,0,0-.06-.34.5654.5654,0,0,0,0-.14.16.16,0,0,0-.13-.08.15.15,0,0,0-.12.1c-.07.15-.13.31-.21.46s-.18.28-.26.42-.19.12-.31.13-.32,0-.48,0H12.37a1.0891,1.0891,0,0,1,.08-.15c.2-.34.41-.68.62-1l.79-1.31Z"/><path class="cls-7" d="M26.83,24.54v3.52a.6005.6005,0,0,1-.05.24,1.4355,1.4355,0,0,1-.08.25.56.56,0,0,0,.11.54.7.7,0,0,1,.08.49,1.6152,1.6152,0,0,0,0,.22c0,.05,0,.07-.07.07a2.3319,2.3319,0,0,0-.37,0H24.57l-.26-.05V25.21a.614.614,0,0,1,0-.13V24a1.5018,1.5018,0,0,1,0-.21,5.1588,5.1588,0,0,0,.06-.79v.06a1.6243,1.6243,0,0,1,.09.19c.09.18.19.36.27.54s.17.35.26.53a.31.31,0,0,0,.22.18,1.4687,1.4687,0,0,0,.22,0h.69Z"/><path class="cls-8" d="M28.46,23.83h-.82L27,23.74h-.83a.1194.1194,0,0,1-.08,0q-.29-.42-.54-.87a8.7342,8.7342,0,0,0-.52-.82c-.18-.27-.37-.52-.56-.77v-.05a.35.35,0,0,1,.11,0,1.71,1.71,0,0,1,.32,0h2.07a.07.07,0,0,1,.06,0c.12.19.24.38.35.57l.11.19.28.47c.11.21.22.43.34.64l.4.68Z"/><path class="cls-9" d="M19.81,19.93h.34a3.0015,3.0015,0,0,1,.43.05,1.5008,1.5008,0,0,0,.6-.12c.34-.08.68-.18,1-.28h0l-.16.14h.5c.23-.11.46-.22.68-.34h.08a2.7335,2.7335,0,0,0,.23.25,2.3905,2.3905,0,0,1,.38.52,1.821,1.821,0,0,1,.22.56v.22H21.94a5.4571,5.4571,0,0,1-1.14,0h-.08l-.3-.14L20,20.56a.8823.8823,0,0,1-.33-.12,1.0893,1.0893,0,0,1-.44-.29.4.4,0,0,1-.16-.22,2.5967,2.5967,0,0,0,.27.06.2911.2911,0,0,0,.13,0h.34Z"/><path class="cls-10" d="M21.37,24.06l-.17.28c-.07.11-.16.21-.23.32a.27.27,0,0,1-.25.13H16.79a.23.23,0,0,1-.2688-.1831L16.52,24.6a2.464,2.464,0,0,0-.08-.46H17a.996.996,0,0,0,.25,0,.24.24,0,0,0,.15-.08l.21-.43.11-.12h0v.34a.1846.1846,0,0,0,.21.19H20.6Z"/><path class="cls-6" d="M19.1,19.93a.4.4,0,0,0,.16.22,1.0893,1.0893,0,0,0,.44.29c.11.05.22.08.33.12l.46.18.3.14H16.58a1.1948,1.1948,0,0,1,.14-.4c.05-.13.24-.48.37-.71a1.62,1.62,0,0,1,.46-.48.12.12,0,0,1,.16,0,4.88,4.88,0,0,0,.79.4c.06,0,.11.06.16.08Z"/><path class="cls-11" d="M25.77,15.6l.06-.13a.14.14,0,0,0,0-.18h0V14.11a.31.31,0,0,1,.23-.17.18.18,0,0,1,.12.05,3.8207,3.8207,0,0,1,.23.51,1.3162,1.3162,0,0,1,0,.34v1a4.0026,4.0026,0,0,1-.1.68c-.09.42-.18.84-.29,1.26a6.7151,6.7151,0,0,1-.27.75,3.8374,3.8374,0,0,1-.17.43c-.09.17-.18.34-.29.51s-.39.57-.6.85l-.18.2-.1-.19-.16-.27.13-.17c.13-.18.29-.34.41-.53s.32-.58.47-.88a5.7034,5.7034,0,0,0,.24-.57,2.2889,2.2889,0,0,0,.12-.37.76.76,0,0,1,.05-.33,1.73,1.73,0,0,0,0-.51l.14-.22a.17.17,0,0,0,0-.18c0-.06,0-.13-.11-.14v-.1A1.903,1.903,0,0,0,25.77,15.6Z"/><path class="cls-12" d="M26.83,24.54H25.51a1.4687,1.4687,0,0,1-.22,0,.31.31,0,0,1-.22-.18c-.09-.18-.17-.36-.26-.53s-.18-.36-.27-.54a1.6243,1.6243,0,0,0-.09-.19V21.82h0l.3.47c.08.14.17.27.26.4l.64.9a4.0047,4.0047,0,0,0,.23.34.64.64,0,0,0,.35.25h.6Z"/><path class="cls-13" d="M22.85,19.13l.19-.19a4.4561,4.4561,0,0,0,.58-.57c.08-.09.17-.16.25-.25l.6-.74a1.5057,1.5057,0,0,0,.11-.22c.09-.15.18-.31.26-.47s0-.06,0-.07a.12.12,0,0,0-.09,0h-.28a1.7943,1.7943,0,0,0,0-.22.11.11,0,0,0,0-.08.1.1,0,0,0-.09,0l-.15.11V13.58h0a2.6613,2.6613,0,0,0,.1.49c.03.16.1.42.13.63a2.7984,2.7984,0,0,1,.06.71v.67l.7-.33-.07.11-.25.35a.28.28,0,0,0,0,.22s.13.08.18.07h.27a2.66,2.66,0,0,1-.21.26c-.11.14-.24.26-.36.4a1.93,1.93,0,0,0-.17.24,5.739,5.739,0,0,1-.36.5,6.29,6.29,0,0,1-.43.47c-.17.17-.35.33-.53.49a2.1019,2.1019,0,0,1-.44.28Z"/><path class="cls-9" d="M25.71,16.67v.51a.6382.6382,0,0,1-.05.33,2.2889,2.2889,0,0,1-.12.37c-.08.19-.15.38-.24.57s-.3.59-.47.88a4.1377,4.1377,0,0,1-.41.53l-.13.17c-.08-.11-.15-.23-.22-.35a.06.06,0,0,1,0-.07l.15-.27.25-.47c.09-.18.17-.36.25-.53s.23-.49.32-.74a1.21,1.21,0,0,1,.2-.3l.46-.6Z"/><path class="cls-10" d="M16.28,24.26h-.06c-.06,0-.09,0-.11.08a3.7291,3.7291,0,0,1-.19.34.22.22,0,0,1-.13.08l-.47.05-.62.06-.53.05v-.44a.7671.7671,0,0,0,0-.15c0-.05,0-.06.05-.06h.34l.67-.05a4.3972,4.3972,0,0,1,.89,0Z"/><path class="cls-14" d="M14,21.06l-.18.3-.79,1.31c-.21.33-.42.67-.62,1a1.0891,1.0891,0,0,0-.08.15h-.7l.1-.12c.13-.14.27-.27.4-.42s.38-.44.56-.66l.62-.79.54-.72Z"/><path class="cls-15" d="M14.13,27.56h0c.09.4.17.8.26,1.19a.6079.6079,0,0,0,.09.18c.09.13.17.27.26.41a1,1,0,0,0,.37.36l.16.08h-1.2V28.13Z"/><path class="cls-16" d="M16.07,16.78l.19.25.64.8a1.3428,1.3428,0,0,0,.21.2l.38.33a8.8622,8.8622,0,0,0,1,.78,11.0784,11.0784,0,0,0,1,.58l.21.12h-.06l-.79-.39-.13-.06a1.381,1.381,0,0,1-.33-.2,2.0016,2.0016,0,0,0-.2-.11,4.46,4.46,0,0,1-.71-.52l-.59-.5c-.14-.14-.25-.3-.39-.44l-.28-.29c-.12-.14-.23-.29-.34-.43l-.06-.1Z"/><path class="cls-13" d="M19.14,12.66l-.39.19h-.14l-.49-.95a4.6275,4.6275,0,0,0-.39-.59,1.1823,1.1823,0,0,1-.11-.19l.52.53.06.07.61.63.1.14C19,12.54,19,12.63,19.14,12.66Z"/><path class="cls-16" d="M23.19,10.68l-.19.38c-.11.22-.23.43-.35.64v.06l-.06.1a3.5307,3.5307,0,0,0-.45.86c0,.07,0,.13.06.14h.08c0,.05,0,.05-.07,0l-.44-.18c.33-.5.66-1,1-1.48.11-.17.24-.32.36-.48Z"/><path class="cls-13" d="M25.78,14.06v1.18l-.25.06h0a1.907,1.907,0,0,1,.05-.53,3.888,3.888,0,0,1,.09-.47A1.06,1.06,0,0,1,25.78,14.06Z"/><path class="cls-17" d="M23.77,19.31l-.2-.2.65-.56h0A8.0071,8.0071,0,0,1,23.77,19.31Z"/><path class="cls-16" d="M25.77,15.6v.53h-.33V16a2.1574,2.1574,0,0,0,.29-.43Z"/><path class="cls-18" d="M19.13,18.24a.71.71,0,0,1-.57-.3,1,1,0,0,1-.25-.49.56.56,0,0,1,.07-.4.171.171,0,0,0,.13-.06c.04-.06.08.06.08.12v.07a.6909.6909,0,0,0,0,.2.81.81,0,0,0,.21.41.42.42,0,0,0,.34.18,2.2552,2.2552,0,0,0,.26,0h.08l.56-.14a.57.57,0,0,0,.42-.48c0-.14,0-.15-.13-.18l-.2-.11a1.4506,1.4506,0,0,1-.38-.4.31.31,0,0,1,.06-.23.3694.3694,0,0,1,.14-.07l.41-.06a1.63,1.63,0,0,1,.58.05h.13a.25.25,0,0,1,.21.21.4.4,0,0,1-.12.27,1.8212,1.8212,0,0,1-.45.37v.05a.52.52,0,0,0,.33.53l.45.13a1.1411,1.1411,0,0,0,.52.08.45.45,0,0,0,.33-.15c0-.05.07-.11.11-.15a.54.54,0,0,0,.12-.53.12.12,0,0,1,.05-.16.16.16,0,0,1,.17.11.66.66,0,0,1-.11.7,1.9986,1.9986,0,0,1-.17.23.69.69,0,0,1-.55.21h-.39l-.41-.09a1.0009,1.0009,0,0,1-.4-.17c-.07-.06-.13-.14-.19-.2l-.13.17-.18.11c-.14.05-.29.07-.42.12A1.9094,1.9094,0,0,1,19.13,18.24Z"/><path class="cls-18" d="M21.39,15.47a.9189.9189,0,0,1,.09-.23,3.9947,3.9947,0,0,1,.27-.44.5409.5409,0,0,1,.15-.15,1.7592,1.7592,0,0,1,.58-.29,1,1,0,0,1,.58,0l.4.14h0l.28.22a.14.14,0,0,1,.002.198l-.002.002-.06.16a1.66,1.66,0,0,1-.52.68.9984.9984,0,0,1-.26.12,1.41,1.41,0,0,1-1,.07,2.2425,2.2425,0,0,1-.37-.2l-.09-.06a.2.2,0,0,1-.08-.19A.1294.1294,0,0,0,21.39,15.47Zm2.17-.58a1.35,1.35,0,0,0-.73-.33l.09.08c-.19.06-.27.19-.22.34a.21.21,0,0,0,.11.1.27.27,0,0,0,.35-.06v.21a.9306.9306,0,0,1-.15.39A1.47,1.47,0,0,0,23.56,14.89Zm-1.78.23-.16.3.23.22h0a.7.7,0,0,1-.09-.51Z"/><path class="cls-18" d="M19.54,15.79l-.33.18a.7.7,0,0,1-.21.09,4.5559,4.5559,0,0,1-.52,0h-.09l-.28-.1a1,1,0,0,1-.42-.34,1.82,1.82,0,0,1-.31-.56c0-.15,0-.22.07-.3a2.19,2.19,0,0,1,.59-.3,1.1791,1.1791,0,0,1,.59,0,1.3705,1.3705,0,0,1,.71.38,2.0831,2.0831,0,0,1,.3.43l.08.14a.6.6,0,0,1,0,.35ZM18,15.06a.4907.4907,0,0,0,.17.06h.15a.16.16,0,0,0,.17-.13.19.19,0,0,0-.0817-.256L18.4,14.73l-.17-.08.1-.07h0a1.23,1.23,0,0,0-.72.35,1.48,1.48,0,0,0,.54.72,1.5886,1.5886,0,0,1-.12-.27A1.31,1.31,0,0,1,18,15.06Zm1.38.08a.73.73,0,0,1-.09.52l.13-.11.12-.12Z"/><path class="cls-19" d="M21.49,17.9,21,17.77a.52.52,0,0,1-.33-.53v-.05a1.8212,1.8212,0,0,0,.45-.37.4.4,0,0,0,.12-.27h.48a1.0765,1.0765,0,0,1,.19,0l.36.14a.6205.6205,0,0,1,.28.22.0721.0721,0,0,0-.07.08.9007.9007,0,0,1-.1.42.7318.7318,0,0,1-.16.22,1,1,0,0,1-.58.2Z"/><path class="cls-19" d="M19.38,17.97a2.2552,2.2552,0,0,1-.26,0,.42.42,0,0,1-.34-.18.81.81,0,0,1-.21-.41.6909.6909,0,0,1,0-.2v-.07c0-.07,0-.11-.08-.12a.7194.7194,0,0,1,.34-.21,3.41,3.41,0,0,0,.55-.14h.35a1.4506,1.4506,0,0,0,.38.4l.18.13a.6.6,0,0,1-.13.38.8492.8492,0,0,1-.29.24l-.48.16Z"/><path class="cls-19" d="M19.13,18.24a1.9086,1.9086,0,0,0,.71-.1,1.4093,1.4093,0,0,0,.42-.12l.18-.11.08.07a.52.52,0,0,0,.27.19l.54.11s.08,0,.06.06a.72.72,0,0,1-.24.43,1.3509,1.3509,0,0,1-.64.21H20.4a1.7082,1.7082,0,0,1-.49-.14,1.94,1.94,0,0,1-.76-.6Z"/><path class="cls-20" d="M23.45,11.2a5.7771,5.7771,0,0,1,.22,1,6.0392,6.0392,0,0,0,.11.84v.39l-.24-.17a.1411.1411,0,0,0,0-.06l-.15-.26a2.3673,2.3673,0,0,1-.21-.58,1.1791,1.1791,0,0,1,0-.59,1.8193,1.8193,0,0,1,.27-.64Z"/><path class="cls-20" d="M16.89,13.59a1.2108,1.2108,0,0,1,0-.38v-.36a1.1922,1.1922,0,0,1,.06-.44,6.8707,6.8707,0,0,0,.13-.74,1.6809,1.6809,0,0,1,.1-.33l.09-.16h0a.16.16,0,0,0,0,.1,5.1634,5.1634,0,0,1,.18.87,1.5885,1.5885,0,0,1-.06.61,1.31,1.31,0,0,1-.34.58v.07Z"/><path class="cls-21" d="M16.89,13.59l.19-.14.49-.25.16-.05h0l-.1-.09.09-.05h.24l-.09-.06h.45c-.07-.13-.12-.27-.19-.4a7.5731,7.5731,0,0,0-.76-1.09l-.08-.08h0l-.09.16v-.26a.06.06,0,0,1,.05-.06h0a.3907.3907,0,0,1,.1.08c.16.19.32.37.46.57a7.3813,7.3813,0,0,1,.42.66,4.4652,4.4652,0,0,1,.22.5c0,.08,0,.13-.1.12h-.28c0,.08,0,.09-.09.09l-.24.05v.11a.14.14,0,0,1-.09.08l-.75.34h-.08Z"/><path class="cls-21" d="M23.54,13.28l.24.17h-.05l-.31-.13-.46-.2h-.05c-.08-.05-.09-.1,0-.19h-.26c-.07,0-.07,0-.08-.09h-.32c-.06,0-.08-.07-.06-.14a3.5307,3.5307,0,0,1,.45-.86l.06-.1.56-.72a.46.46,0,0,1,.12-.12.05.05,0,0,1,.07-.01l.01.01h0a2.4319,2.4319,0,0,0,0,.27l-.05-.05v-.13a5.8294,5.8294,0,0,0-1.09,1.69,1.35,1.35,0,0,1,.49,0l-.08.07h.35v.06h-.06l.16.05Z"/><path class="cls-22" d="M20.4,19.06h.11a1.35,1.35,0,0,0,.64-.21.72.72,0,0,0,.24-.43.0643.0643,0,0,0-.06-.06l-.54-.11a.52.52,0,0,1-.27-.19l-.08-.07.13-.17c.06.06.12.14.19.2a1.0009,1.0009,0,0,0,.4.17l.41.09h.24a.93.93,0,0,1-.47.61,1.23,1.23,0,0,1-.62.17Z"/><path class="cls-23" d="M21.49,17.9h.19a1,1,0,0,0,.58-.2.7318.7318,0,0,0,.16-.22.9007.9007,0,0,0,.1-.42c0-.06,0-.07.07-.08h0a.12.12,0,0,0-.05.16.54.54,0,0,1-.12.53s-.07.1-.11.15a.45.45,0,0,1-.33.15A1.141,1.141,0,0,1,21.49,17.9Z"/><path class="cls-9" d="M19.54,15.79l.18-.14.08.6A1.4,1.4,0,0,1,19.54,15.79Z"/><path class="cls-9" d="M21.39,15.47a.1294.1294,0,0,1,0,.06.2.2,0,0,0,.08.19l-.25.4h0a1.4284,1.4284,0,0,1,.11-.39C21.37,15.6,21.37,15.55,21.39,15.47Z"/><path class="cls-23" d="M19.38,17.97h0l.48-.16a.8492.8492,0,0,0,.29-.24.6.6,0,0,0,.13-.38c.14,0,.15,0,.13.18a.57.57,0,0,1-.42.48l-.56.14Z"/><path class="cls-24" d="M23.56,14.89a1.47,1.47,0,0,1-.55.73.9306.9306,0,0,0,.15-.39v-.17a.27.27,0,0,1-.35.06.21.21,0,0,1-.11-.1c-.05-.15,0-.28.22-.34l-.09-.08A1.35,1.35,0,0,1,23.56,14.89Z"/><path class="cls-25" d="M21.78,15.12a.7.7,0,0,0,.09.51h0l-.23-.22Z"/><path class="cls-24" d="M18,15.06v.3a1.5886,1.5886,0,0,0,.12.27,1.48,1.48,0,0,1-.54-.72,1.23,1.23,0,0,1,.72-.35h0l-.1.07.17.08a.19.19,0,0,1,.094.2517l-.004.0083a.16.16,0,0,1-.17.13h-.15A.4913.4913,0,0,1,18,15.06Z"/><path class="cls-25" d="M19.34,15.13l.16.29-.12.12-.13.11A.73.73,0,0,0,19.34,15.13Z"/><path class="cls-26" d="M23.54,13.28l-.44-.22H23V13h-.35l.08-.07a1.35,1.35,0,0,0-.49,0,5.8308,5.8308,0,0,1,1.13-1.87v.13a1.8193,1.8193,0,0,0-.27.64,1.1791,1.1791,0,0,0,0,.59,2.3673,2.3673,0,0,0,.21.58l.15.26A.1405.1405,0,0,1,23.54,13.28Z"/><path class="cls-26" d="M17.34,11.22l.08.08a7.5731,7.5731,0,0,1,.76,1.09c.07.13.12.27.19.4h-.45l.09.06h-.24l-.09.05.06.07h0l-.16.05-.49.25V13.2a1.31,1.31,0,0,0,.34-.58,1.5885,1.5885,0,0,0,.06-.61,5.1634,5.1634,0,0,0-.18-.87A.16.16,0,0,1,17.34,11.22Z"/></g></g></svg>