<?xml version="1.0" encoding="utf-8"?>
<!-- Generator: Adobe Illustrator 22.0.0, SVG Export Plug-In . SVG Version: 6.00 Build 0)  -->
<svg version="1.1" id="Layer_1" xmlns="http://www.w3.org/2000/svg" xmlns:xlink="http://www.w3.org/1999/xlink" x="0px" y="0px"
	 viewBox="0 0 40 40" style="enable-background:new 0 0 40 40;" xml:space="preserve">
<style type="text/css">
	.st0{fill:url(#SVGID_1_);}
	.st1{fill:#FFFFFF;}
</style>
<linearGradient id="SVGID_1_" gradientUnits="userSpaceOnUse" x1="-12.5831" y1="1505.1785" x2="24.7086" y2="1505.1785" gradientTransform="matrix(0 1 1 0 -1485.1785 13.9581)">
	<stop  offset="0" style="stop-color:#0F61FF"/>
	<stop  offset="1" style="stop-color:#0445B9"/>
</linearGradient>
<path class="st0" d="M37,26.3V13.7c0-2.1-1.1-4.1-3-5.2L23,2.2c-1.9-1.1-4.1-1.1-6,0L6,8.5c-1.9,1.1-3,3.1-3,5.2v12.6
	c0,2.1,1.1,4.1,3,5.2l11,6.3c1.9,1.1,4.1,1.1,6,0l11-6.3C35.8,30.4,37,28.5,37,26.3z"/>
<title>Asset 1</title>
<title>Asset 1</title>
<g id="Layer_2_1_">
	<path class="st1" d="M22.3,30.9c-1.6,0-2.7-0.4-3.4-1.1c-0.7-0.6-1-1.5-1.1-2.4c0-0.3,0.1-0.6,0.2-0.8c0.1-0.2,0.3-0.4,0.5-0.5
		c0.5-0.2,1.1-0.2,1.6,0c0.2,0.1,0.4,0.3,0.5,0.5c0.1,0.2,0.2,0.5,0.2,0.8c0,0.3-0.1,0.7-0.3,0.9c-0.2,0.2-0.4,0.4-0.6,0.5
		c0.3,0.3,0.6,0.6,1,0.6c0.5,0.1,0.9,0.2,1.4,0.2c0.6,0,1.2-0.2,1.8-0.5c0.5-0.4,0.9-0.9,1.1-1.5c0.3-0.7,0.4-1.5,0.4-2.3
		c0-0.8-0.1-1.6-0.4-2.4c-0.2-0.6-0.6-1.1-1.2-1.5c-0.5-0.3-1.1-0.5-1.7-0.5c-0.5,0-1,0.2-1.5,0.5l-1.1,0.5v-0.5l4.9-6.6h-6.8v6.8
		c0,0.5,0.1,1,0.4,1.4c0.3,0.4,0.7,0.6,1.1,0.5c0.4,0,0.8-0.1,1.1-0.4c0.4-0.3,0.7-0.6,0.9-1c0-0.1,0.1-0.1,0.1-0.2
		c0,0,0.1-0.1,0.2-0.1c0.1,0,0.2,0.1,0.3,0.1c0.1,0.1,0.2,0.3,0.2,0.5c0,0.1,0,0.2-0.1,0.3c-0.2,0.6-0.6,1.1-1.2,1.4
		c-0.5,0.3-1.1,0.5-1.6,0.5c-1.5,0-2.5-0.3-3.1-0.9c-0.6-0.6-0.9-1.5-0.8-2.4v-6.8H12v-1.3h3.5v-2.9l-0.8-0.8V9.1H17l0.9,0.4v3.9
		l9,0l0.9,0.9l-5.5,5.5c0.3-0.1,0.7-0.2,1-0.3c0.7,0,1.4,0.2,2,0.6c0.7,0.3,1.3,0.9,1.7,1.5c0.4,0.6,0.6,1.2,0.8,1.9
		c0.1,0.5,0.2,1.1,0.2,1.6c0,1-0.2,2-0.7,3c-0.4,0.9-1.1,1.6-2,2C24.4,30.7,23.4,30.9,22.3,30.9z"/>
</g>
</svg>
