<?xml version="1.0" encoding="utf-8"?>
<!-- Generator: Adobe Illustrator 22.0.0, SVG Export Plug-In . SVG Version: 6.00 Build 0)  -->
<svg version="1.1" id="Layer_1" xmlns="http://www.w3.org/2000/svg" xmlns:xlink="http://www.w3.org/1999/xlink" x="0px" y="0px"
	 viewBox="0 0 2000 2000" style="enable-background:new 0 0 2000 2000;" xml:space="preserve">
<style type="text/css">
	.st0{fill:#FFCCD3;}
	.st1{fill:#39B465;}
	.st2{fill:#25030A;}
	.st3{fill:#E55268;}
	.st4{fill:#DA374F;}
	.st5{fill:#FFEAED;}
</style>
<rect class="st0" width="2000" height="2000"/>
<g>
	<path class="st1" d="M1066.8,417.4c0,0-71.7,416.1,351.9,345.1C1444.8,346.4,1066.8,417.4,1066.8,417.4z"/>
	<path class="st2" d="M1129,285.1l3.5-0.1c8.7,0.3,17.3,3.3,24.4,9.2c16.6,13.8,18.5,38,4.4,54.1c-11.5,13-22.3,26.1-32.7,39.1
		l5.6-0.1c48.8-0.2,97.4,6.4,142.6,22.3c131.6,46.3,205.8,159.6,193.1,349.7l-1.6,24.6l-25.1,3.9c-117.4,18.4-208.9,5.9-276.3-34.3
		c-57.4-34.3-94.2-86.5-113.7-150.9c-7.3-24-11.8-48.4-14.2-72.7c-100,212.8-52.9,432,142.3,663.7c13.8,16.4,11.3,40.5-5.5,54
		c-16.9,13.4-41.7,11-55.5-5.4c-248.3-294.6-277.9-583.3-87.5-856.6C706.3,486,580.3,736.3,641.7,1151.4l2.4,15.4
		c1.6,9.9,6.1,33.4,13.3,69.5c4.1,20.6-9.2,40.7-29.8,44.8c-20.5,4.1-40.5-9.3-44.6-29.9l-7.8-39.6c-3.2-16.8-5.3-28.2-6.3-34.5
		C490.2,674.5,671.6,373,1119.3,285.7C1122.5,285.1,1125.8,284.9,1129,285.1z M1154.2,449.6l1.4,1c66.2,45.8,111.3,98.5,134.9,158.3
		c5,12.8-1.2,27.2-14,32.2c-12.8,5-27.2-1.2-32.3-14c-22.5-57.2-70-108.2-143.4-152.8c-1.2,35,2.2,71.6,12.1,106.3l1.4,4.7
		c15.3,50.6,43.1,90,85.9,115.5c48.3,28.8,115.7,40.1,205.1,29.7l1.9-0.2l0.1-3.5c2.6-143.2-52.8-222.7-149.2-257.8l-3.1-1.1
		C1223.4,456.7,1189.2,451,1154.2,449.6z"/>
	<path class="st3" d="M730.4,1158.2c-189.8-79.2-293-33.9-309.6,135.8c-24.9,254.7,118.5,392.2,325.5,392.2
		c207.1,0,324.9-271.8,254.2-460.9C953.4,1099.3,863.3,1076.9,730.4,1158.2z"/>
	<path class="st4" d="M443.7,1464.4c210.6,83.7,403,28.7,577.1-165c47.8,209.3-37.2,355-273.9,388.9
		C589.2,1710.8,488.1,1636.2,443.7,1464.4z"/>
	<path class="st2" d="M719.4,1127.7c111.3-65.3,202.7-60.8,266.6,1.5c46.7,45.5,73.5,121.3,73.5,178.5c0,65.6-15,147.7-49.3,218.9
		c-50.3,104.5-135.4,172.9-259.2,187.6l-5.3,0.6l-1.5,0c-162,2.3-283.4-89.9-339.6-232.6c-49.9-126.8-36.7-269.9,36.7-338.2
		c75-69.8,167-74.2,271.5-17.2l4,2.2L719.4,1127.7z M943.3,1171.3c-38.4-37.4-91.7-43.8-166-7.2l-3.6,1.8l1.5,1.1
		c11.5,8.5,23.1,17.6,34.8,27.4l4.4,3.7c12.6,10.7,14,29.4,3.1,41.8c-10.9,12.4-30,13.8-42.7,3.1
		c-126.2-106.8-220.2-122.3-291.7-55.8c-53,49.3-63.9,167.3-21.9,273.9c47.1,119.6,145.3,195,278.2,194.7l2.6,0l2.1-0.2
		c100.3-12,168-65.7,210-151l1.5-3c30-62.4,43.5-136.1,43.5-193.6C999,1265.3,977.5,1204.7,943.3,1171.3z"/>
	<path class="st5" d="M599.3,1173.3c-74.3-9.3-115.7,28.7-124.2,114c54.2-62.4,82.8-89.1,178.4-95.3
		C647.1,1187.8,629.1,1181.6,599.3,1173.3z"/>
	<path class="st3" d="M1230.4,1112.5c-211.7-30-302.6,43.9-272.7,221.8c44.8,266.9,225.9,368.9,433.2,313.3
		c207.2-55.5,250.8-364.8,128.3-539.1C1437.5,992.5,1341.2,993.7,1230.4,1112.5z"/>
	<path class="st4" d="M997.5,1454.4c215.9,71,404.8-3.3,566.7-223.1c68.7,216.2,19.3,365.8-208.5,423.2
		C1203.7,1692.7,1084.4,1626,997.5,1454.4z"/>
	<path class="st2" d="M1209.3,1087.9l0.3-0.3c95.4-99.8,190.4-121,273.2-73.5c59.8,34.2,107.9,105,123.7,163.9
		c18,67.3,25.5,155.6,10.5,238c-22,121-89.2,214.3-210.2,262.9l-4.8,1.9l-1.1,0.4c-162.3,50.3-307.4-16.6-400.5-156.9
		c-81-122.1-104.4-277.2-47.9-358.1c55.6-79.5,141.9-104.8,254.6-78.8L1209.3,1087.9z M1450,1071.4c-47.9-27.4-102.2-20-165.8,35.8
		l-3.4,3l2,0.8c13.2,5.1,26.7,10.8,40.5,17l5.2,2.4c16.6,7.6,23.8,27.3,16.2,43.8c-7.6,16.6-27.2,23.8-43.8,16.2
		c-147.4-67.9-242-60.9-294.2,13.7c-38,54.4-18.8,181.7,48.8,283.6c77.2,116.4,191.8,170.1,321.9,131.5l2.9-0.9l2.2-0.9
		c97.2-39.1,150.2-111.9,169-210l0.6-3.4c13-71.7,6.4-150.5-9.3-209.1C1531.1,1152,1493.2,1096.1,1450,1071.4z"/>
	<path class="st5" d="M1123.5,1168c-63.4-4.8-96.7,30.3-100,105.2c43-56.9,66.1-81.5,146.7-91.2
		C1164.7,1178.6,1149.1,1174,1123.5,1168z"/>
</g>
</svg>
