<?xml version="1.0" encoding="utf-8"?>
<!-- Generator: Adobe Illustrator 22.0.0, SVG Export Plug-In . SVG Version: 6.00 Build 0)  -->
<svg version="1.1" id="Layer_1" xmlns="http://www.w3.org/2000/svg" xmlns:xlink="http://www.w3.org/1999/xlink" x="0px" y="0px"
	 viewBox="0 0 40 40" style="enable-background:new 0 0 40 40;" xml:space="preserve">
<style type="text/css">
	.st0{fill:url(#SVGID_1_);}
	.st1{fill:url(#SVGID_2_);}
	.st2{fill:url(#SVGID_3_);}
	.st3{opacity:0.85;fill:url(#SVGID_4_);enable-background:new    ;}
	.st4{fill:#00A3FF;}
	.st5{opacity:0.2;fill:#00A3FF;enable-background:new    ;}
	.st6{opacity:0.6;fill:#00A3FF;enable-background:new    ;}
</style>
<title>venus</title>
<linearGradient id="SVGID_1_" gradientUnits="userSpaceOnUse" x1="20" y1="2138.625" x2="20" y2="2101.375" gradientTransform="matrix(1 0 0 1 0 -2100)">
	<stop  offset="0" style="stop-color:#EACBA0"/>
	<stop  offset="1" style="stop-color:#E87474"/>
</linearGradient>
<path class="st0" d="M37,26.3V13.7c0-2.1-1.1-4.1-3-5.2L23,2.2c-1.8-1.1-4.2-1.1-6,0L6,8.5c-1.9,1.1-3,3.1-3,5.2v12.6
	c0,2.1,1.1,4.1,3,5.2l11,6.3c1.8,1.1,4.2,1.1,6,0l11-6.3C35.8,30.4,37,28.4,37,26.3z"/>
<g>
	<g>
		
			<radialGradient id="SVGID_2_" cx="-460.3905" cy="841.7029" r="4.875814e-02" gradientTransform="matrix(1.432990e-14 -234.025 305.8577 1.872838e-14 -257421.0313 -107711.8125)" gradientUnits="userSpaceOnUse">
			<stop  offset="0.2037" style="stop-color:#56F2FF"/>
			<stop  offset="1" style="stop-color:#4A8CEA"/>
		</radialGradient>
		<path class="st1" d="M20.3,21.9l-7-4l-0.2,0.3c-2.2,3.3-1.7,7.7,1.2,10.5c3.3,3.3,8.8,3.3,12.1,0c2.8-2.8,3.3-7.1,1.2-10.5
			l-0.2-0.3L20.3,21.9z"/>
		
			<radialGradient id="SVGID_3_" cx="-451.9365" cy="839.6096" r="4.879869e-02" gradientTransform="matrix(-0.2305 82.544 -155.6408 -0.4346 130593.625 37687.3984)" gradientUnits="userSpaceOnUse">
			<stop  offset="0" style="stop-color:#FFFFFF"/>
			<stop  offset="0.5051" style="stop-color:#56C5F5"/>
			<stop  offset="1" style="stop-color:#5699EC"/>
		</radialGradient>
		<path class="st2" d="M20.3,13.8l-7,4.1l7,4l7-4L20.3,13.8z"/>
		
			<radialGradient id="SVGID_4_" cx="-450.3637" cy="839.3864" r="4.873907e-02" gradientTransform="matrix(-0.1988 70.8475 -134.1303 -0.3762 112517.9141 32239.2324)" gradientUnits="userSpaceOnUse">
			<stop  offset="0" style="stop-color:#EEFFFF"/>
			<stop  offset="9.219107e-02" style="stop-color:#D3EDFC"/>
			<stop  offset="0.2925" style="stop-color:#9EC9F5"/>
			<stop  offset="0.466" style="stop-color:#77AFF0"/>
			<stop  offset="0.6041" style="stop-color:#5F9FED"/>
			<stop  offset="0.6896" style="stop-color:#5699EC"/>
		</radialGradient>
		<path class="st3" d="M20.3,12.9l-6.1,3.5l6.1,3.5l6.1-3.5L20.3,12.9z"/>
	</g>
	<path class="st4" d="M20.3,7.5l-5.9,9"/>
	<g>
		<path class="st5" d="M26.3,16.4l-6.1-3.5v6.9"/>
		<path class="st6" d="M20.3,19.8v-6.9l-6.1,3.5"/>
		<path class="st4" d="M14.2,16.4l6.1-3.5V7.1"/>
		<path class="st6" d="M20.3,7.1v5.8l6.1,3.5"/>
	</g>
	<path class="st6" d="M26.1,16.5l-5.9-9"/>
</g>
</svg>
