<svg xmlns="http://www.w3.org/2000/svg" viewBox="0 0 40 40"><linearGradient id="a" gradientUnits="userSpaceOnUse" x1="-92.583" y1="681.178" x2="-55.291" y2="681.178" gradientTransform="matrix(0 1 1 0 -661.178 93.958)"><stop offset="0" stop-color="#fc0"/><stop offset=".988" stop-color="#f49916"/></linearGradient><path d="M37 26.3V13.7c0-2.1-1.1-4.1-3-5.2L23 2.2c-1.9-1.1-4.1-1.1-6 0L6 8.5c-1.9 1.1-3 3.1-3 5.2v12.6c0 2.1 1.1 4.1 3 5.2l11 6.3c1.9 1.1 4.1 1.1 6 0l11-6.3c1.8-1.1 3-3 3-5.2z" fill="url(#a)"/><path d="M25.1 27.5c-1.3.5-2.6.3-3.1.2-.3 0-.7-.1-1.2-.2l-.8 3-1.9-.5.8-3-1.4-.4-.8 3-1.9-.5.8-3-3.6-1 1-2.1 1.1.3c.4.1.5.1.7 0 .2-.1.3-.3.3-.5l2.1-7.7c.1-.5.1-.6 0-.9-.2-.3-.7-.5-1-.6l-1.1-.3.5-1.9 3.6 1 .8-3 1.9.5-.8 3 1.4.4.8-3 1.9.5-.8 3c1.4.5 2.3 1 3 1.9.9 1.2.5 2.6.3 3-.1.3-.5 1-.9 1.3-.4.4-1.3.6-1.3.6s.8.4 1.4 1.1c.5.6.7 1.6.4 2.8-.3 1.3-.9 2.5-2.2 3zM21.2 21l-2.1-.6-1.1 4s1.2.4 2.1.5c.8.2 1.7.2 2.2.1.5-.1 1.1-.3 1.3-1.3.2-.9-.3-1.5-.6-1.7-.2-.2-.9-.6-1.8-1zm0-1.9c.7.2 1.4.2 2 0 .6-.1 1-.5 1.2-1.2.2-.7-.1-1.4-.8-1.8-.7-.4-1.2-.6-1.8-.8s-1.2-.3-1.2-.3l-1 3.6s.9.3 1.6.5z" fill="#fff"/></svg>