<svg width="500" height="500" viewBox="0 0 500 500" fill="none" xmlns="http://www.w3.org/2000/svg">
<g clip-path="url(#clip0_890_23)">
<path d="M500 0V500H0V0H500Z" fill="url(#paint0_linear_890_23)"/>
<mask id="mask0_890_23" style="mask-type:luminance" maskUnits="userSpaceOnUse" x="97" y="85" width="307" height="320">
<path d="M403.764 85H97V405H403.764V85Z" fill="white"/>
</mask>
<g mask="url(#mask0_890_23)">
<path d="M272.344 110.055C272.344 110.488 272.344 110.921 272.423 111.355C272.423 111.591 272.423 111.867 272.462 112.103C272.462 112.497 272.541 112.891 272.58 113.285C272.58 113.561 272.62 113.797 272.659 114.073C272.698 114.467 272.738 114.821 272.777 115.215C272.777 115.491 272.856 115.727 272.896 116.003C272.935 116.397 273.014 116.752 273.053 117.146C273.092 117.421 273.132 117.658 273.171 117.934C273.25 118.327 273.329 118.721 273.408 119.115C273.447 119.352 273.486 119.588 273.565 119.824C273.644 120.258 273.762 120.731 273.88 121.164C273.92 121.321 273.959 121.518 273.998 121.676C274.156 122.306 274.314 122.897 274.471 123.488C274.511 123.646 274.55 123.803 274.59 123.961C274.708 124.394 274.865 124.867 274.983 125.3C275.062 125.537 275.141 125.773 275.22 126.01C275.338 126.364 275.456 126.758 275.574 127.112C275.653 127.349 275.732 127.625 275.85 127.861C275.968 128.216 276.086 128.531 276.244 128.885C276.323 129.161 276.441 129.397 276.559 129.634C276.677 129.949 276.835 130.304 276.953 130.618C277.071 130.855 277.15 131.131 277.268 131.367C277.426 131.722 277.544 132.037 277.702 132.352C277.82 132.588 277.938 132.825 278.017 133.061C278.174 133.416 278.332 133.77 278.529 134.085C278.647 134.322 278.726 134.519 278.844 134.755C279.08 135.188 279.277 135.622 279.514 136.055C279.592 136.173 279.632 136.291 279.711 136.449C280.026 137 280.302 137.512 280.617 138.064C280.735 138.261 280.853 138.458 280.971 138.655C281.168 138.97 281.365 139.325 281.602 139.64C281.759 139.876 281.877 140.113 282.035 140.31C282.232 140.625 282.429 140.9 282.626 141.216C282.784 141.452 282.941 141.688 283.098 141.925C283.296 142.2 283.492 142.516 283.69 142.792C283.847 143.028 284.005 143.264 284.202 143.461C284.399 143.737 284.635 144.013 284.832 144.288C284.99 144.525 285.186 144.722 285.344 144.958C285.58 145.234 285.817 145.51 286.014 145.785C286.171 145.982 286.368 146.219 286.526 146.416C286.762 146.731 287.038 147.007 287.314 147.322C287.471 147.519 287.629 147.676 287.786 147.873C288.22 148.346 288.614 148.779 289.047 149.213C289.165 149.331 289.323 149.488 289.441 149.607C289.756 149.922 290.071 150.237 290.386 150.552C290.584 150.749 290.741 150.907 290.938 151.104C291.214 151.379 291.49 151.616 291.765 151.892C291.962 152.088 292.159 152.246 292.396 152.443C292.671 152.68 292.947 152.916 293.223 153.152C293.42 153.349 293.656 153.507 293.853 153.704C294.129 153.94 294.405 154.176 294.68 154.373C294.917 154.531 295.114 154.728 295.35 154.886C295.626 155.122 295.941 155.319 296.217 155.555C296.453 155.713 296.65 155.87 296.887 156.028C296.965 156.067 297.044 156.146 297.123 156.186L272.344 104.146C272.344 104.146 272.344 104.264 272.344 104.342C272.304 105.327 272.265 106.352 272.265 107.376C272.265 108.046 272.265 108.676 272.265 109.306C272.265 109.503 272.265 109.74 272.265 109.936L272.344 110.055Z" fill="url(#paint1_linear_890_23)"/>
<path d="M231.019 114.467C231.216 114.94 231.374 115.334 231.492 115.61C232.87 119.313 234.564 122.977 236.495 126.483C239.134 131.249 242.286 135.858 245.87 140.231C247.84 142.595 249.928 144.88 252.134 147.046C258.556 153.389 266.001 158.746 273.604 163.75L274.116 164.065C291.45 173.913 304.332 183.132 314.889 193.532L300.826 163.986C300.589 163.868 300.392 163.71 300.156 163.592C299.841 163.434 299.565 163.238 299.25 163.08C298.935 162.883 298.58 162.686 298.265 162.489C297.95 162.292 297.674 162.134 297.359 161.938C297.044 161.74 296.728 161.504 296.414 161.307C296.138 161.11 295.822 160.913 295.547 160.716C295.232 160.519 294.916 160.283 294.641 160.046C294.365 159.85 294.089 159.653 293.774 159.416C293.459 159.18 293.183 158.983 292.907 158.746C292.632 158.55 292.356 158.313 292.08 158.116C291.804 157.88 291.489 157.644 291.213 157.407C290.938 157.171 290.662 156.974 290.426 156.738C290.15 156.501 289.874 156.265 289.598 155.989C289.322 155.752 289.086 155.516 288.81 155.28C288.534 155.044 288.259 154.768 288.022 154.531C287.786 154.295 287.51 154.059 287.274 153.822C286.998 153.586 286.762 153.31 286.486 153.034C286.25 152.798 285.974 152.522 285.738 152.286C285.501 152.01 285.226 151.774 284.989 151.498C284.753 151.222 284.516 150.986 284.28 150.71C284.044 150.434 283.807 150.158 283.571 149.883C283.334 149.607 283.098 149.371 282.901 149.095C282.665 148.819 282.428 148.544 282.232 148.268C281.995 147.992 281.798 147.716 281.562 147.44C281.325 147.165 281.128 146.85 280.892 146.574C280.695 146.298 280.459 146.022 280.262 145.746C280.065 145.471 279.828 145.156 279.632 144.88C279.434 144.604 279.238 144.289 279.04 144.013C278.844 143.698 278.646 143.422 278.45 143.107C278.253 142.831 278.056 142.516 277.859 142.24C277.662 141.925 277.465 141.65 277.307 141.334C277.11 141.019 276.953 140.743 276.756 140.428C276.559 140.113 276.401 139.798 276.204 139.483C276.046 139.168 275.85 138.852 275.692 138.577C275.534 138.262 275.338 137.946 275.18 137.631C275.022 137.316 274.865 137.001 274.707 136.686C274.55 136.37 274.392 136.016 274.234 135.701C274.077 135.386 273.919 135.07 273.762 134.756C273.604 134.44 273.446 134.086 273.328 133.77C273.171 133.456 273.052 133.14 272.895 132.825C272.738 132.51 272.619 132.155 272.501 131.801C272.383 131.486 272.225 131.17 272.107 130.816C271.989 130.462 271.871 130.146 271.713 129.792C271.595 129.476 271.477 129.122 271.359 128.807C271.24 128.452 271.122 128.098 271.004 127.743C270.886 127.428 270.768 127.074 270.689 126.758C270.571 126.404 270.492 126.049 270.374 125.695C270.295 125.38 270.177 125.025 270.098 124.71C269.98 124.355 269.901 123.961 269.822 123.607C269.744 123.292 269.665 122.937 269.586 122.622C269.507 122.267 269.428 121.873 269.35 121.519C269.271 121.204 269.192 120.849 269.113 120.534C269.034 120.14 268.956 119.786 268.916 119.392C268.837 119.076 268.798 118.722 268.719 118.407C268.64 118.013 268.601 117.619 268.522 117.225C268.483 116.91 268.404 116.595 268.365 116.24C268.325 115.846 268.246 115.413 268.207 115.019C268.207 114.704 268.128 114.389 268.089 114.073C268.05 113.64 268.01 113.207 267.971 112.773C267.971 112.498 267.931 112.182 267.892 111.907C267.892 111.434 267.852 110.922 267.813 110.449C267.813 110.213 267.813 109.976 267.813 109.74C267.813 108.992 267.813 108.282 267.813 107.534C267.813 106.588 267.813 105.643 267.892 104.698C267.892 104.382 267.931 104.067 267.971 103.752C267.971 103.122 268.05 102.491 268.089 101.861C268.089 101.507 268.168 101.113 268.207 100.758C268.286 100.167 268.325 99.6157 268.404 99.0642C268.444 98.6702 268.522 98.2763 268.562 97.8824C268.64 97.449 268.68 97.0551 268.758 96.6217C261.431 81.2185 239.489 81.2185 232.122 96.6217L229.482 102.216H229.561L228.261 104.776C228.97 108.085 229.916 111.316 231.058 114.546L231.019 114.467Z" fill="url(#paint2_linear_890_23)"/>
<path d="M342.348 241.553C339.866 235.92 336.991 230.326 333.8 224.968C323.045 207.004 307.878 191.286 289.954 179.546C286.881 177.537 283.73 175.528 280.657 173.598C277.466 171.589 274.275 169.58 271.084 167.492C263.323 162.37 255.681 156.855 248.944 150.237C247.368 148.661 245.832 147.086 244.375 145.431C244.296 145.352 244.256 145.273 244.178 145.194C243.784 144.761 243.429 144.288 243.035 143.855C239.135 139.246 235.708 134.361 232.872 129.279C232.674 128.885 232.478 128.491 232.241 128.137C232.044 127.822 231.887 127.467 231.69 127.152C231.493 126.797 231.296 126.443 231.138 126.088C229.68 123.212 228.38 120.219 227.238 117.225C227.12 116.949 226.962 116.555 226.765 116.121C226.686 115.964 226.647 115.806 226.568 115.649C225.938 114.112 225.386 112.773 224.914 111.552L223.102 115.373C210.377 142.043 235.708 169.343 251.938 183.25C256.587 187.228 261.511 191.05 266.278 194.752C273.172 200.071 280.263 205.586 286.763 211.732C303.663 227.804 312.606 247.502 312.606 268.696C312.606 282.05 309.296 294.617 303.466 305.648C294.76 322.193 280.736 334.799 264.111 341.851C264.032 341.851 263.954 341.89 263.914 341.93C263.363 342.166 262.811 342.402 262.26 342.599C262.102 342.678 261.944 342.718 261.787 342.796C261.038 343.072 260.329 343.348 259.581 343.624C259.108 343.781 258.675 343.939 258.202 344.096C257.926 344.175 257.65 344.293 257.375 344.372C256.784 344.569 256.193 344.727 255.602 344.924C255.444 344.963 255.287 345.002 255.129 345.042C253.514 345.514 251.86 345.908 250.205 346.302C250.126 346.302 250.048 346.302 249.969 346.342C247.447 346.893 244.847 347.327 242.247 347.602C242.168 347.602 242.129 347.602 242.05 347.602C241.184 347.681 240.278 347.8 239.411 347.839C238.544 347.918 237.638 347.957 236.772 347.996C236.772 347.996 236.732 347.996 236.693 347.996C235.866 347.996 235.038 348.075 234.172 348.075C234.132 348.075 234.053 348.075 234.014 348.075H233.462C233.462 348.075 233.226 348.075 233.147 348.075C233.147 348.075 233.108 348.075 233.068 348.075H232.95C232.556 348.075 232.202 348.075 231.808 348.075C231.808 348.075 231.729 348.075 231.65 348.075C231.532 348.075 231.414 348.075 231.296 348.075C231.296 348.075 231.059 348.075 230.941 348.075C230.39 348.075 229.838 348.036 229.287 347.996H229.129C229.129 347.996 228.893 347.996 228.774 347.996C227.829 347.957 226.844 347.878 225.899 347.8C225.544 347.8 225.229 347.76 224.874 347.721C223.929 347.642 222.984 347.484 221.999 347.366C221.644 347.327 221.329 347.287 220.974 347.208C220.068 347.051 219.123 346.893 218.217 346.736C217.862 346.657 217.508 346.618 217.153 346.539C216.286 346.381 215.42 346.184 214.553 345.948C214.159 345.869 213.726 345.751 213.332 345.672C212.544 345.475 211.756 345.239 210.968 345.042C210.496 344.924 210.023 344.766 209.59 344.648C208.88 344.451 208.211 344.214 207.541 343.978C206.99 343.781 206.438 343.624 205.886 343.427C205.296 343.23 204.744 342.993 204.153 342.757C203.523 342.521 202.853 342.245 202.223 342.008C201.75 341.812 201.317 341.614 200.883 341.418C200.135 341.102 199.386 340.748 198.638 340.393C198.323 340.236 198.008 340.078 197.692 339.92C196.826 339.487 195.959 339.054 195.092 338.581C194.935 338.502 194.738 338.384 194.58 338.306C193.556 337.754 192.571 337.163 191.626 336.572C191.626 336.572 191.586 336.572 191.547 336.533C190.838 336.099 190.129 335.626 189.42 335.193C188.908 334.839 188.395 334.524 187.883 334.169C187.726 334.051 187.568 333.933 187.41 333.854C186.78 333.42 186.189 332.987 185.598 332.554C184.732 331.924 183.904 331.254 183.077 330.584C182.565 330.151 182.053 329.718 181.501 329.284C181.226 329.048 180.95 328.811 180.674 328.575C180.083 328.063 179.492 327.511 178.901 326.999C178.744 326.842 178.547 326.684 178.389 326.487C177.759 325.896 177.128 325.305 176.538 324.675L176.459 324.596C176.42 324.557 176.38 324.518 176.341 324.478C175.434 323.572 174.568 322.626 173.741 321.681C173.622 321.563 173.544 321.445 173.426 321.326C172.638 320.42 171.85 319.514 171.101 318.569C170.983 318.411 170.865 318.254 170.747 318.096C169.998 317.151 169.289 316.205 168.619 315.26C168.501 315.102 168.383 314.984 168.304 314.826C167.516 313.723 166.768 312.62 166.019 311.478C166.019 311.478 166.019 311.438 165.98 311.399C165.428 310.532 164.916 309.666 164.365 308.76C164.325 308.681 164.246 308.563 164.207 308.484C163.734 307.657 163.262 306.79 162.789 305.923C162.71 305.805 162.671 305.687 162.592 305.569C162.08 304.623 161.607 303.638 161.134 302.654C161.134 302.575 161.056 302.496 161.016 302.417C160.583 301.511 160.228 300.605 159.834 299.699C159.716 299.423 159.598 299.148 159.48 298.872C159.204 298.242 158.968 297.572 158.731 296.902C158.534 296.35 158.298 295.799 158.101 295.287C158.062 295.129 157.983 294.972 157.944 294.814C155.068 286.541 153.571 277.756 153.571 268.774C153.571 267.593 153.571 266.371 153.65 265.19C153.65 264.874 153.65 264.559 153.689 264.244C153.728 263.378 153.807 262.511 153.886 261.644C153.886 261.486 153.886 261.29 153.886 261.132C148.686 273.699 146.086 287.014 146.086 300.802C146.086 358.318 192.886 405.079 250.362 405.079C279.396 405.079 307.327 392.827 327.024 371.476C344.278 352.763 353.733 328.299 354.364 300.723C354.797 281.066 350.621 260.62 342.348 241.632V241.553Z" fill="url(#paint3_linear_890_23)"/>
<path d="M158.179 273.227C158.219 273.936 158.258 274.605 158.337 275.275C158.376 275.827 158.455 276.417 158.494 276.969C158.534 277.402 158.613 277.796 158.652 278.23C162.276 306.121 181.422 329.403 207.107 338.936C203.404 335.903 200.252 332.279 197.81 328.142C197.81 328.103 197.77 328.063 197.731 328.024C197.416 327.512 197.14 326.961 196.864 326.448C196.864 326.409 196.825 326.369 196.785 326.33C196.195 325.188 195.643 324.045 195.17 322.824C194.737 321.721 194.304 320.618 193.989 319.475C193.989 319.357 193.91 319.239 193.87 319.16C193.752 318.727 193.634 318.254 193.516 317.821C193.437 317.585 193.397 317.348 193.319 317.112C193.201 316.718 193.122 316.285 193.043 315.851C192.964 315.536 192.925 315.26 192.846 314.945C192.767 314.551 192.689 314.157 192.649 313.763C192.61 313.409 192.531 313.094 192.491 312.739C192.452 312.385 192.373 311.991 192.373 311.636C192.334 311.242 192.295 310.848 192.255 310.454C192.255 310.1 192.216 309.785 192.176 309.43C192.176 308.879 192.137 308.327 192.137 307.775C192.137 307.618 192.137 307.421 192.137 307.263C192.137 306.16 192.176 305.097 192.255 304.033C192.491 300.803 193.122 297.612 194.146 294.539C194.461 293.515 194.855 292.53 195.249 291.545C195.249 291.505 195.249 291.466 195.289 291.427C195.485 290.993 195.643 290.56 195.84 290.127C195.879 290.009 195.958 289.93 195.998 289.811C196.195 289.418 196.391 289.024 196.589 288.63C196.667 288.511 196.707 288.354 196.785 288.236C196.983 287.881 197.179 287.487 197.377 287.133C197.455 287.015 197.534 286.857 197.613 286.739C197.967 286.148 198.322 285.557 198.677 285.005C198.834 284.769 198.952 284.572 199.11 284.336C199.228 284.139 199.385 283.942 199.543 283.745C199.74 283.43 199.977 283.154 200.173 282.878C200.291 282.721 200.41 282.563 200.567 282.366C200.804 282.051 201.079 281.696 201.355 281.381C201.473 281.263 201.552 281.145 201.67 281.027C202.025 280.633 202.34 280.239 202.695 279.845C202.695 279.845 202.773 279.766 202.773 279.727C203.167 279.293 203.561 278.899 203.955 278.505C204.31 278.151 204.664 277.796 205.019 277.481C205.058 277.442 205.098 277.402 205.137 277.363C205.767 276.772 206.437 276.221 207.067 275.669C207.54 275.275 208.013 274.921 208.525 274.566C208.722 274.408 208.879 274.29 209.077 274.133C209.667 273.699 210.258 273.345 210.849 272.951C210.967 272.872 211.086 272.793 211.165 272.715C211.795 272.321 212.465 271.927 213.095 271.572C213.134 271.572 213.173 271.533 213.252 271.493L214.395 270.863L217.389 269.208V269.484C222.155 267.475 227.434 266.411 232.949 266.411C253.001 266.411 269.311 250.102 269.311 230.051C269.311 219.375 264.623 209.25 256.468 202.356C256.192 202.12 255.916 201.883 255.68 201.687C251.819 198.574 247.447 196.329 242.68 195.029C239.528 194.162 236.259 193.689 232.949 193.689C204.664 193.689 179.097 209.329 166.215 234.502V234.581C165.979 235.014 165.782 235.447 165.585 235.881C165.27 236.629 164.915 237.417 164.561 238.166C163.537 240.49 162.473 242.893 161.725 245.217C161.725 245.217 161.725 245.296 161.725 245.335C161.725 245.453 161.646 245.532 161.646 245.651C161.567 245.926 161.449 246.241 161.37 246.517C161.173 247.187 160.937 247.896 160.74 248.605C160.661 248.881 160.582 249.196 160.503 249.472C160.346 250.102 160.188 250.733 160.031 251.363C159.952 251.717 159.873 252.033 159.794 252.387C159.676 252.978 159.519 253.569 159.4 254.199C159.321 254.554 159.282 254.948 159.203 255.302C159.085 255.893 159.006 256.484 158.888 257.035C158.849 257.429 158.77 257.784 158.731 258.178C158.652 258.769 158.573 259.36 158.494 259.911C158.455 260.266 158.415 260.62 158.376 261.014C158.297 261.605 158.258 262.235 158.219 262.827C158.219 263.142 158.219 263.417 158.179 263.733C158.061 265.387 158.021 267.002 158.021 268.657C158.021 269.799 158.021 270.942 158.1 272.084C158.1 272.478 158.14 272.872 158.179 273.266V273.227Z" fill="url(#paint4_linear_890_23)"/>
<path d="M210.573 278.623C210.298 278.82 210.022 279.017 209.785 279.254C209.47 279.529 209.155 279.805 208.84 280.081C208.485 280.396 208.131 280.711 207.816 281.026C207.579 281.262 207.304 281.499 207.067 281.735C206.477 282.326 205.925 282.917 205.373 283.547C205.373 283.547 205.295 283.626 205.295 283.666C205.019 283.981 204.783 284.296 204.546 284.611C204.349 284.847 204.152 285.123 203.955 285.359C203.876 285.477 203.797 285.556 203.719 285.675C201.473 288.748 199.701 292.175 198.479 295.877C197.573 298.596 197.022 301.432 196.785 304.308C196.707 305.254 196.667 306.238 196.667 307.184C196.667 323.808 207.619 337.754 222.904 342.127C222.904 342.127 222.943 342.127 222.983 342.127C223.495 342.284 224.046 342.402 224.598 342.56C224.677 342.56 224.795 342.56 224.873 342.6C225.346 342.718 225.859 342.796 226.331 342.915C226.489 342.915 226.607 342.954 226.765 342.993C227.198 343.072 227.631 343.151 228.104 343.19C228.301 343.19 228.459 343.229 228.655 343.269C229.049 343.308 229.483 343.348 229.877 343.387C230.113 343.387 230.31 343.387 230.546 343.427C230.98 343.427 231.413 343.505 231.807 343.505C231.807 343.505 231.886 343.505 231.925 343.505C232.28 343.505 232.674 343.505 233.067 343.505H233.186H233.343H234.131C234.722 343.505 235.353 343.466 235.943 343.427C236.416 343.427 236.849 343.427 237.322 343.387C238.465 343.308 239.607 343.229 240.749 343.111C241.183 343.072 241.577 342.994 242.01 342.954C242.759 342.875 243.507 342.796 244.255 342.678C244.728 342.599 245.241 342.521 245.713 342.442C246.383 342.323 247.053 342.206 247.722 342.087C248.195 342.008 248.668 341.89 249.141 341.772C249.849 341.614 250.519 341.457 251.189 341.3C251.622 341.181 252.056 341.102 252.489 340.984C253.277 340.787 254.065 340.551 254.813 340.314C255.128 340.236 255.443 340.117 255.759 340.039C265.056 337.123 273.644 332.436 281.089 326.251C281.05 326.251 281.011 326.29 280.932 326.329C276.125 328.496 270.965 329.914 265.607 330.466C263.953 330.623 262.298 330.702 260.643 330.702C233.54 330.702 211.479 308.642 211.479 281.538C211.479 280.278 211.519 279.056 211.637 277.796C211.283 278.032 210.967 278.308 210.613 278.544L210.573 278.623Z" fill="url(#paint5_linear_890_23)"/>
<path d="M131.194 308.405L99.0088 376.006C92.5875 389.478 102.397 405 117.327 405H162.197L169.879 388.927C147.031 368.048 133.203 339.133 131.233 308.405H131.194Z" fill="url(#paint6_linear_890_23)"/>
<path d="M369.569 308.405C367.52 340.787 352.472 370.806 327.496 391.921L333.72 405H383.436C398.326 405 408.175 389.439 401.754 376.006L369.569 308.405Z" fill="url(#paint7_linear_890_23)"/>
<path d="M220.383 174.976C220.973 170.84 218.255 166.349 214.001 164.576C212.149 163.788 210.377 163.552 208.722 163.67C201.67 164.182 196.234 171.47 194.028 176.079L186.307 192.31C192.491 187.464 201.001 182.816 211.637 181.673C216.719 181.122 219.831 178.719 220.383 174.937V174.976Z" fill="url(#paint8_linear_890_23)"/>
</g>
</g>
<defs>
<linearGradient id="paint0_linear_890_23" x1="250" y1="0" x2="250" y2="500" gradientUnits="userSpaceOnUse">
<stop stop-color="#000A41"/>
<stop offset="1" stop-color="#05081A"/>
</linearGradient>
<linearGradient id="paint1_linear_890_23" x1="284.694" y1="104.146" x2="317.482" y2="180.381" gradientUnits="userSpaceOnUse">
<stop stop-color="#5EE2FF"/>
<stop offset="1" stop-color="#005BC6"/>
</linearGradient>
<linearGradient id="paint2_linear_890_23" x1="271.575" y1="85.0693" x2="317" y2="261.667" gradientUnits="userSpaceOnUse">
<stop stop-color="#5EE2FF"/>
<stop offset="1" stop-color="#005BC6"/>
</linearGradient>
<linearGradient id="paint3_linear_890_23" x1="250.24" y1="111.552" x2="250.24" y2="405.079" gradientUnits="userSpaceOnUse">
<stop stop-color="#5EE2FF"/>
<stop offset="1" stop-color="#005BC6"/>
</linearGradient>
<linearGradient id="paint4_linear_890_23" x1="213.666" y1="193.689" x2="213.666" y2="338.936" gradientUnits="userSpaceOnUse">
<stop stop-color="#5EE2FF"/>
<stop offset="1" stop-color="#005BC6"/>
</linearGradient>
<linearGradient id="paint5_linear_890_23" x1="238.878" y1="277.796" x2="238.878" y2="343.505" gradientUnits="userSpaceOnUse">
<stop stop-color="#5EE2FF"/>
<stop offset="1" stop-color="#005BC6"/>
</linearGradient>
<linearGradient id="paint6_linear_890_23" x1="133.443" y1="308.405" x2="133.443" y2="405" gradientUnits="userSpaceOnUse">
<stop stop-color="#5EE2FF"/>
<stop offset="1" stop-color="#005BC6"/>
</linearGradient>
<linearGradient id="paint7_linear_890_23" x1="365.623" y1="308.405" x2="365.623" y2="405" gradientUnits="userSpaceOnUse">
<stop stop-color="#5EE2FF"/>
<stop offset="1" stop-color="#005BC6"/>
</linearGradient>
<linearGradient id="paint8_linear_890_23" x1="203.385" y1="163.641" x2="203.385" y2="192.31" gradientUnits="userSpaceOnUse">
<stop stop-color="#5EE2FF"/>
<stop offset="1" stop-color="#005BC6"/>
</linearGradient>
<clipPath id="clip0_890_23">
<rect width="500" height="500" fill="white"/>
</clipPath>
</defs>
</svg>
