<svg width="500" height="500" viewBox="0 0 500 500" fill="none" xmlns="http://www.w3.org/2000/svg">
<g clip-path="url(#clip0_169_1437)">
<path d="M500 0V500H0V0H500Z" fill="url(#paint0_linear_169_1437)"/>
<path d="M410.31 264.916C410.31 265.23 410.31 265.545 410.31 265.859C403.406 342.483 342.481 402.462 268.057 410C267.429 410 267.119 410 266.491 410L410.31 264.916Z" fill="#ACE731"/>
<path d="M320.812 106.33C316.732 104.446 312.651 102.561 308.571 100.991C300.401 97.8509 291.921 95.3385 283.131 93.4543C272.457 91.256 261.782 90 250.469 90C245.132 90 239.794 90.314 234.457 90.628C197.405 94.3965 164.424 110.412 138.994 134.907C137.418 136.477 135.532 138.361 133.966 139.931C109.783 165.368 94.0805 198.969 90.6285 235.711C90.319 240.422 90 245.133 90 250.157C90 262.09 91.257 273.709 93.7709 285.014C95.6564 293.494 98.1703 301.659 101.303 309.823C103.189 314.22 105.074 318.616 106.96 322.699C110.731 329.921 114.811 336.83 119.52 343.424L145.897 316.732L315.475 145.27L341.852 118.577C335.577 114.18 328.354 110.098 320.812 106.33ZM130.514 280.618C130.195 279.676 129.885 278.42 129.885 277.478C128 268.685 127.062 259.577 127.062 250.471C127.062 218.753 138.993 188.92 160.662 165.996L165.052 161.6C188.296 139.303 218.445 127.056 250.788 127.056C259.268 127.056 267.748 127.998 275.909 129.568C277.166 129.882 278.423 130.196 279.68 130.51L130.514 280.618Z" fill="#ACE731"/>
<path d="M195.2 401.207C191.12 399.637 187.349 398.067 183.588 396.496C175.736 392.728 168.195 388.646 160.972 383.622L382.685 159.716C387.394 166.625 391.784 173.847 395.245 181.698C397.121 185.781 399.007 189.863 400.583 193.945L195.2 401.207Z" fill="#ACE731"/>
</g>
<defs>
<linearGradient id="paint0_linear_169_1437" x1="250" y1="0" x2="250" y2="500" gradientUnits="userSpaceOnUse">
<stop stop-color="#05081A"/>
<stop offset="1" stop-color="#05081A"/>
</linearGradient>
<clipPath id="clip0_169_1437">
<rect width="500" height="500" fill="white"/>
</clipPath>
</defs>
</svg>
