<?xml version="1.0" encoding="utf-8"?>
<!-- Generator: Adobe Illustrator 22.0.0, SVG Export Plug-In . SVG Version: 6.00 Build 0)  -->
<svg version="1.1" id="Layer_1" xmlns="http://www.w3.org/2000/svg" xmlns:xlink="http://www.w3.org/1999/xlink" x="0px" y="0px"
	 viewBox="0 0 500 500" style="enable-background:new 0 0 500 500;" xml:space="preserve">
<style type="text/css">
	.st0{fill:url(#SVGID_1_);}
	.st1{clip-path:url(#SVGID_3_);}
	.st2{fill:#FFFFFF;}
</style>
<title>decentraland</title>
<linearGradient id="SVGID_1_" gradientUnits="userSpaceOnUse" x1="-2185.3999" y1="1738.9" x2="-1685.4" y2="1738.9" gradientTransform="matrix(0 -1 1 0 -1488.7 -1685)">
	<stop  offset="0" style="stop-color:#040405"/>
	<stop  offset="1" style="stop-color:#0F1114"/>
</linearGradient>
<polygon class="st0" points="500.2,0.4 500.2,500.4 0.2,500.4 0.2,0.4 "/>
<g>
	<defs>
		<rect id="SVGID_2_" x="95.2" y="164.5" width="310" height="171.8"/>
	</defs>
	<clipPath id="SVGID_3_">
		<use xlink:href="#SVGID_2_"  style="overflow:visible;"/>
	</clipPath>
	<g class="st1">
		<path class="st2" d="M178.5,189.2c-32.8,0-59.3,27.3-59.3,61c0,33.7,26.6,61,59.3,61c32.8,0,59.3-27.3,59.3-61
			C237.8,216.5,211.2,189.2,178.5,189.2z M95.2,250.2c0-47.3,37.3-85.6,83.3-85.6s83.3,38.3,83.3,85.6c0,47.3-37.3,85.6-83.3,85.6
			S95.2,297.4,95.2,250.2z"/>
		<path d="M250.7,324.8c38.6,0,70-32.2,70-72c0-39.7-31.3-72-70-72c-38.6,0-70,32.2-70,72C180.8,292.6,212.1,324.8,250.7,324.8z"/>
		<path class="st2" d="M250.7,182.2c37.9,0,68.7,31.7,68.7,70.6c0,38.9-30.8,70.6-68.7,70.6c-37.9,0-68.7-31.7-68.7-70.6
			C182.1,213.9,212.9,182.2,250.7,182.2z M250.7,179.5c-39.4,0-71.3,32.8-71.3,73.3c0,40.5,31.9,73.3,71.3,73.3s71.3-32.8,71.3-73.3
			C322,212.3,290.1,179.5,250.7,179.5z"/>
		<path class="st2" d="M250.6,189.7c-32.8,0-59.3,27.3-59.3,61c0,33.7,26.6,61,59.3,61c32.8,0,59.3-27.3,59.3-61
			C309.9,217,283.4,189.7,250.6,189.7z M167.3,250.6c0-47.3,37.3-85.6,83.3-85.6c46,0,83.3,38.3,83.3,85.6
			c0,47.3-37.3,85.6-83.3,85.6C204.6,336.3,167.3,298,167.3,250.6L167.3,250.6z"/>
		<path d="M321.9,322.1c38.6,0,70-32.2,70-72c0-39.7-31.3-72-70-72c-38.6,0-70,32.2-70,72C251.9,289.9,283.3,322.1,321.9,322.1z"/>
		<path class="st2" d="M321.9,179.5c37.9,0,68.7,31.7,68.7,70.6s-30.8,70.6-68.7,70.6c-37.9,0-68.7-31.7-68.7-70.6
			S284.1,179.5,321.9,179.5z M321.9,176.9c-39.4,0-71.3,32.8-71.3,73.3c0,40.5,31.9,73.3,71.3,73.3s71.3-32.8,71.3-73.3
			C393.2,209.7,361.3,176.9,321.9,176.9z"/>
		<path class="st2" d="M321.9,189.2c-32.8,0-59.3,27.3-59.3,61c0,33.7,26.6,61,59.3,61c32.8,0,59.3-27.3,59.3-61
			C381.2,216.5,354.7,189.2,321.9,189.2z M238.6,250.1c0-47.3,37.3-85.6,83.3-85.6c46,0,83.3,38.3,83.3,85.6
			c0,47.3-37.3,85.6-83.3,85.6C275.9,335.8,238.6,297.5,238.6,250.1L238.6,250.1z"/>
		<path class="st2" d="M321.9,164.9H171.4v24h150.5V164.9z"/>
		<path class="st2" d="M321.9,311.9H182v24h139.9V311.9z"/>
	</g>
</g>
</svg>
