<?xml version="1.0" encoding="utf-8"?>
<!-- Generator: Adobe Illustrator 22.0.0, SVG Export Plug-In . SVG Version: 6.00 Build 0)  -->
<svg version="1.1" id="Layer_1" xmlns="http://www.w3.org/2000/svg" xmlns:xlink="http://www.w3.org/1999/xlink" x="0px" y="0px"
	 viewBox="0 0 40 40" style="enable-background:new 0 0 40 40;" xml:space="preserve">
<style type="text/css">
	.st0{fill:url(#SVGID_1_);}
	.st1{fill:#FFFFFF;}
</style>
<linearGradient id="SVGID_1_" gradientUnits="userSpaceOnUse" x1="77.3169" y1="1249.1785" x2="114.6086" y2="1249.1785" gradientTransform="matrix(0 1 1 0 -1229.1785 -76.0419)">
	<stop  offset="1.198744e-03" style="stop-color:#26856F"/>
	<stop  offset="1" style="stop-color:#062942"/>
</linearGradient>
<path class="st0" d="M37,26.2V13.6c0-2.1-1.1-4.1-3-5.2L23,2.1c-1.9-1.1-4.1-1.1-6,0L6,8.4c-1.9,1.1-3,3.1-3,5.2v12.6
	c0,2.1,1.1,4.1,3,5.2l11,6.3c1.9,1.1,4.1,1.1,6,0l11-6.3C35.8,30.3,37,28.4,37,26.2z"/>
<title>Asset 1</title>
<g transform="translate(0.000000,630.000000) scale(0.100000,-0.100000)">
	<path class="st1" d="M103.2,6178.1c-32.9-33-31-30.4-23.7-33.8c2.4-1.1,6.3-3,8.7-4.1c9.3-4.4,47.5-21.9,49.8-22.9
		c2.3-1,4-3.1,20.8-24.8c37.8-49.1,34.9-45.3,34.3-43.7c-0.2,0.6-4.6,20.8-10,44.7c-5.3,24-9.8,44.1-10.2,44.4
		c-0.3,0.3-13.7,7-29.6,14.9c-16,7.8-29.1,14.4-29.1,14.6s3.9,9.1,8.6,19.6c4.7,10.5,8.5,19.2,8.4,19.3
		C131.3,6206.3,118.6,6193.6,103.2,6178.1z"/>
	<path class="st1" d="M270.9,6206.2c0.1-0.3,4.1-9.2,8.8-19.7c4.7-10.5,8.4-19.3,8.3-19.4s-13.2-6.5-29-14.3
		c-15.8-7.7-29.1-14.4-29.5-14.8c-0.6-0.6-20.7-89.6-20.3-89.9c0.1-0.1,50.4,66.3,51,67.3c0.2,0.4,12.8,6.6,28,13.7
		c36.8,17.3,36.7,17.3,36.9,18.8c0.2,1.3-0.8,2.3-32.7,35.9c-8.4,8.8-16.8,17.6-18.5,19.6C272,6205.3,270.7,6206.6,270.9,6206.2z"/>
	<path class="st1" d="M109.7,6102.2c-6.5-4.2-16.3-10.5-21.8-14.1c-5.5-3.6-10-6.6-10-6.7c0.1-0.1,8.9,2.2,19.7,5
		c10.7,2.8,20.1,5.1,20.9,4.9c1.3-0.2,2.3-2.3,17.9-40.7c9.1-22.3,16.7-40.7,17-40.9c0.6-0.6,46-21.5,46.7-21.5
		c0.3,0,10.9,4.8,23.7,10.7l23.1,10.6l16.5,40.5c9,22.3,16.8,40.7,17.2,40.9c0.4,0.3,1.2,0.5,1.7,0.5c0.6,0,9.7-2.3,20.4-5.1
		c10.6-2.8,19.5-5.1,19.6-4.9c0.1,0.2-17,11.3-37.4,24.4c-7,4.5-8.7,4.9-11.3,2.5c-0.9-0.9-17.2-20.1-36.3-42.8
		c-25.4-30.2-35.2-41.4-36.2-41.6c-0.9-0.2-2-0.1-2.8,0.4c-0.8,0.4-16.7,18.9-35.4,41.1c-18.7,22.2-34.8,41.3-35.8,42.4
		C124,6111.2,123.2,6110.9,109.7,6102.2z"/>
</g>
</svg>
