<svg id="Layer_1" data-name="Layer 1" xmlns="http://www.w3.org/2000/svg" viewBox="0 0 500 500">
  <defs>
    <style>
      .cls-1 {
        fill: #f6c5bb;
      }

      .cls-2 {
        fill: #3c1a26;
      }

      .cls-3 {
        fill: #29121a;
      }

      .cls-4 {
        fill: #421d2a;
      }

      .cls-5 {
        fill: #db5b54;
      }

      .cls-6 {
        fill: #a24741;
      }

      .cls-7 {
        fill: #bd967f;
      }

      .cls-8 {
        fill: #886b59;
      }

      .cls-9 {
        fill: #b88d73;
      }

      .cls-10 {
        fill: #fff;
      }

      .cls-11 {
        fill: #493239;
      }

      .cls-12 {
        fill: #caa390;
      }

      .cls-13 {
        fill: #c4524c;
      }

      .cls-14 {
        fill: #f2716a;
      }

      .cls-15 {
        fill: #898989;
      }

      .cls-16 {
        fill: #888;
      }

      .cls-17 {
        fill: #d6d6d6;
      }

      .cls-18 {
        fill: #fdfdfd;
      }

      .cls-19 {
        fill: #dcdcdc;
      }
    </style>
  </defs>
  <title>traderjoe</title>
  <polygon class="cls-1" points="500.7 1 500.7 501 0.7 501 0.7 1 500.7 1"/>
  <g>
    <path class="cls-2" d="M388.13074,345.749l.1045,37.45177-57.47463,33.17984-.10449-37.45174Z"/>
    <path class="cls-3" d="M330.7598,416.38059,229.17655,357.3334l-.11839-37.45174,101.59712,59.048Z"/>
    <path class="cls-4" d="M330.65612,378.93131l-101.59632-59.048,57.47462-33.179,101.59632,59.04719Z"/>
    <path class="cls-2" d="M322.25683,383.49223l.10453,37.45177-57.46157,33.17984-.10452-37.45175Z"/>
    <path class="cls-3" d="M264.89979,454.123l-101.59632-59.0472-.10451-37.45174,101.59631,59.04719Z"/>
    <path class="cls-4" d="M264.79527,416.67209,163.199,357.6249,220.67359,324.445l101.58324,59.0472Z"/>
    <path class="cls-5" d="M386.28464,281.05656l.15757,53.41259-139.45466,80.512-.14371-53.42564Z"/>
    <path class="cls-6" d="M246.98836,414.98114,108.464,334.46915l-.15726-53.41259,138.5371,80.49894Z"/>
    <path class="cls-5" d="M246.843,361.5555,108.30576,281.05656l139.44113-80.512,138.53694,80.512Z"/>
    <path class="cls-7" d="M385.562,174.17672l.31436,106.82515-139.45387,80.512-.30128-106.82513Z"/>
    <path class="cls-8" d="M246.42172,361.51385l-138.53719-80.512-.30137-106.81208,138.53726,80.49893Z"/>
    <path class="cls-9" d="M246.12125,254.69034,107.58414,174.19142l139.454-80.51167,138.52469,80.49861Z"/>
    <path class="cls-10" d="M316.00658,241.94l.06531,21.3603-18.59482,10.745.05225,21.3603,18.60789-10.73282-37.18966,21.46481-.13063-42.73283Z"/>
    <path class="cls-11" d="M316.07189,263.30028l.06532,21.37336-18.60789,10.732-.05225-21.35947Z"/>
    <path class="cls-10" d="M370.70266,210.35964,370.768,231.733l-18.59481,10.732.05308,21.3603,18.5948-10.73282-37.17659,21.46481-.11839-42.73283Z"/>
    <path class="cls-11" d="M370.768,231.73217l.05307,21.35949-18.5948,10.7328-.05308-21.36028Z"/>
    <path class="cls-8" d="M162.92217,387.80088l-.07838,32.05307L116.3501,393.01663l.09169-32.05308Z"/>
    <path class="cls-7" d="M162.923,387.80088l46.17843-26.83733-.07838,32.05308L162.84379,419.854Z"/>
    <path class="cls-12" d="M116.44179,360.96436,162.62088,334.127l46.48054,26.83733-46.17925,26.83733Z"/>
    <path class="cls-6" d="M176.93156,374.488l-.05225,21.37253L162.923,387.80169l-46.48013-26.83733L102.5,352.91782l.06548-21.37254Z"/>
    <path class="cls-13" d="M176.93156,374.488l46.17925-26.83733-.05225,21.37334-46.17925,26.83733Z"/>
    <path class="cls-5" d="M102.56581,331.54528l46.17876-26.83734,74.36624,42.94268L176.93156,374.488Z"/>
    <path class="cls-5" d="M385.64205,126.38832l.15761,53.4124L246.358,260.31272l-.15757-53.41257Z"/>
    <path class="cls-6" d="M246.35721,260.31272l-138.5371-80.512-.15726-53.4124,138.53678,80.51183Z"/>
    <path class="cls-14" d="M246.19963,206.90015,107.66285,126.38808,247.11737,45.87616l138.52387,80.51192Z"/>
    <path class="cls-5" d="M360.2589,220.34618a137.40715,137.40715,0,0,1,37.20273-15.1876v21.35947A136.96191,136.96191,0,0,0,360.272,241.71871a209.83326,209.83326,0,0,0-37.16351,27.72813V248.08737A210.5665,210.5665,0,0,1,360.2589,220.34618Z"/>
    <path class="cls-6" d="M323.14844,269.44684l-46.16619-26.82426L276.91694,221.25l46.17927,26.83733Z"/>
    <path class="cls-14" d="M323.09456,248.08655l-46.17843-26.83733a210.23259,210.23259,0,0,1,37.16352-27.72813c13.37171-7.84487,36.9006-15.72485,36.9006-15.72485L397.5,205.31453s-23.87019,7.18025-37.2419,15.03082A210.55189,210.55189,0,0,0,323.09456,248.08655Z"/>
    <path class="cls-15" d="M366.87494,323.827l-9.22473-5.37254-2.45113-1.75627,9.23863,5.36029Z"/>
    <path class="cls-15" d="M349.05417,343.54937l-9.23863-5.37254-4.83529-4.28495,9.23863,5.35945Z"/>
    <path class="cls-16" d="M255.54277,367.01867l-9.23863-5.35948-.01307-3.43334,9.23863,5.3725Z"/>
    <path class="cls-17" d="M395.9013,267.26926l.02613,9.42233.013,5.84446.01308,3.41948L366.87494,323.827l-2.43723-1.76936-15.38435,21.491-4.83529-4.298-18.34582,28.38377L307.422,360.49243l-4.79609,9.86732-15.46357-3.68238-2.43723,4.57318-29.18314-4.23272-.01305-3.41948-.0392-15.25372Z"/>
    <path class="cls-16" d="M255.5297,363.59835l-9.23863-5.3725-.03918-15.25376,9.2378,5.37335Z"/>
    <path class="cls-18" d="M255.49133,348.34625l-9.23863-5.37251,140.41078-81.06231,9.23863,5.35945Z"/>
    <path class="cls-18" d="M177.299,274.80712l9.23863-5.37335L246.358,342.90924l-9.23862,5.35945Z"/>
    <path class="cls-18" d="M237.11859,348.26788l9.23862-5.35945,9.29088,5.35945-9.22556,5.36027Z"/>
    <path class="cls-17" d="M246.42253,353.62734l9.22556-5.35946-.05225,18.73936-9.22556,5.37251Z"/>
    <path class="cls-15" d="M177.42963,230.94671l-.13065,43.8596,59.82042,73.46238,9.30395,5.35946-.05226,18.7516-69.22968-42.16864-16.472-9.51378-8.20331-4.74381.05226-18.92225,8.30864-31.73875.13064-43.85958Z"/>
    <path class="cls-18" d="M177.43044,230.94752l9.23782-5.37334-.13065,43.85959-9.23863,5.37335Z"/>
    <path class="cls-19" d="M160.9585,221.43375l9.23781-5.35947,16.47195,9.4999-9.23782,5.37334Z"/>
  </g>
</svg>
