<?xml version="1.0" encoding="utf-8"?>
<!-- Generator: Adobe Illustrator 22.0.0, SVG Export Plug-In . SVG Version: 6.00 Build 0)  -->
<svg version="1.1" id="Layer_1" xmlns="http://www.w3.org/2000/svg" xmlns:xlink="http://www.w3.org/1999/xlink" x="0px" y="0px"
	 viewBox="0 0 40 40" style="enable-background:new 0 0 40 40;" xml:space="preserve">
<style type="text/css">
	.st0{fill:url(#SVGID_1_);}
	.st1{fill:#FFFFFF;}
	.st2{fill:url(#SVGID_2_);}
</style>
<linearGradient id="SVGID_1_" gradientUnits="userSpaceOnUse" x1="347.3169" y1="-1687.1785" x2="384.6086" y2="-1687.1785" gradientTransform="matrix(0 1 -1 0 -1667.1785 -346.0419)">
	<stop  offset="1.198744e-03" style="stop-color:#05E8FC"/>
	<stop  offset="0.1702" style="stop-color:#35C1EA"/>
	<stop  offset="0.4699" style="stop-color:#8580CB"/>
	<stop  offset="0.7168" style="stop-color:#BF51B5"/>
	<stop  offset="0.8983" style="stop-color:#E333A7"/>
	<stop  offset="0.9949" style="stop-color:#F128A2"/>
</linearGradient>
<path class="st0" d="M37,26.2V13.6c0-2.1-1.1-4.1-3-5.2L23,2.1c-1.9-1.1-4.1-1.1-6,0L6,8.4c-1.9,1.1-3,3.1-3,5.2v12.6
	c0,2.1,1.1,4.1,3,5.2l11,6.3c1.9,1.1,4.1,1.1,6,0l11-6.3C35.8,30.3,37,28.4,37,26.2z"/>
<title>Asset 1</title>
<g transform="matrix(1.00121,0,0,1.00121,-1.53286,-3.53476)">
	<path class="st1" d="M18.7,19.5l8.2-3.6l-12.3-3.1L18.7,19.5z"/>
	<path class="st1" d="M22,24.9l-3.3-5.4l8.2-3.6L22,24.9z"/>
	<path class="st1" d="M20.3,28l-6-9.6l1.7,9.2L20.3,28z"/>
	<path class="st1" d="M20.3,28L16,27.6l1.1,6.3L20.3,28z"/>
	<path class="st1" d="M29.9,27.7v-11l-4.8,8.9L29.9,27.7z"/>
	<path class="st1" d="M29.9,27.7l-4.8-2l-4.5,8.2L29.9,27.7z"/>
</g>
<path class="st1" d="M17.2,16l8.2-3.6L13,9.4L17.2,16z"/>
<linearGradient id="SVGID_2_" gradientUnits="userSpaceOnUse" x1="-283.8893" y1="416.7259" x2="-283.8655" y2="416.7259" gradientTransform="matrix(-2.1658 80.9984 80.9984 2.1658 -34347.6563 22105.1777)">
	<stop  offset="0" style="stop-color:#7A87F7"/>
	<stop  offset="1" style="stop-color:#D275F7"/>
</linearGradient>
<path class="st2" d="M17.2,16l8.2-3.6"/>
<path class="st1" d="M18.8,24.5l-6-9.6l1.7,9.2L18.8,24.5z"/>
<path class="st1" d="M18.8,24.5l-4.3-0.4l1.1,6.3L18.8,24.5z"/>
<path class="st1" d="M28.4,24.2v-11l-4.9,8.9L28.4,24.2z"/>
<path class="st1" d="M28.4,24.1l-4.9-2l-4.5,8.2L28.4,24.1z"/>
<path class="st1" d="M20.5,21.4L17.2,16l8.2-3.6L20.5,21.4z"/>
</svg>
