<?xml version="1.0" encoding="utf-8"?>
<!-- Generator: Adobe Illustrator 22.0.0, SVG Export Plug-In . SVG Version: 6.00 Build 0)  -->
<svg version="1.1" id="Layer_1" xmlns="http://www.w3.org/2000/svg" xmlns:xlink="http://www.w3.org/1999/xlink" x="0px" y="0px"
	 viewBox="0 0 40 40" style="enable-background:new 0 0 40 40;" xml:space="preserve">
<style type="text/css">
	.st0{fill:url(#SVGID_1_);}
	.st1{fill:#9B9B9B;}
	.st2{fill:#FFFFFF;}
</style>
<linearGradient id="SVGID_1_" gradientUnits="userSpaceOnUse" x1="977.2169" y1="3217.1785" x2="1014.5087" y2="3217.1785" gradientTransform="matrix(0 1 1 0 -3197.1785 -976.0419)">
	<stop  offset="1.198744e-03" style="stop-color:#161C27"/>
	<stop  offset="1" style="stop-color:#0C0C0C"/>
</linearGradient>
<path class="st0" d="M37,26.1V13.5c0-2.1-1.1-4.1-3-5.2L23,2c-1.9-1.1-4.1-1.1-6,0L6,8.3c-1.9,1.1-3,3.1-3,5.2v12.6
	c0,2.1,1.1,4.1,3,5.2l11,6.3c1.9,1.1,4.1,1.1,6,0l11-6.3C35.8,30.2,37,28.3,37,26.1z"/>
<g>
	<g>
		<path class="st1" d="M21.9,11.3l0.5,1.2c1,2.3,2.8,4.2,5.2,5.2l1.2,0.5c0.3,0.1,0.6,0.3,0.8,0.5c-0.6-4.2-3.9-7.6-8.2-8.2
			C21.6,10.7,21.8,10.9,21.9,11.3z M11.3,18.1l1.2-0.5c2.3-1,4.2-2.8,5.2-5.2l0.5-1.2c0.1-0.3,0.3-0.5,0.5-0.8
			c-4.2,0.6-7.6,3.9-8.2,8.2C10.7,18.4,10.9,18.2,11.3,18.1z M28.7,21.9l-1.2,0.5c-2.3,1-4.2,2.8-5.2,5.2l-0.5,1.2
			c-0.1,0.3-0.3,0.5-0.5,0.8c4.2-0.6,7.6-3.9,8.2-8.2C29.3,21.6,29,21.8,28.7,21.9L28.7,21.9z M18.1,28.7l-0.5-1.2
			c-1-2.3-2.8-4.2-5.2-5.2l-1.2-0.5c-0.3-0.1-0.5-0.3-0.8-0.5c0.6,4.2,3.9,7.6,8.2,8.2C18.4,29.3,18.2,29,18.1,28.7z"/>
	</g>
	<path class="st2" d="M15.7,19.1l0.6-0.2c1.1-0.5,2.1-1.4,2.5-2.5l0.2-0.6c0.3-0.8,1.5-0.8,1.9,0l0.2,0.6c0.5,1.1,1.4,2.1,2.5,2.5
		l0.6,0.2c0.8,0.3,0.8,1.5,0,1.9l-0.6,0.2c-1.1,0.5-2.1,1.4-2.5,2.5l-0.2,0.6c-0.3,0.8-1.5,0.8-1.9,0l-0.2-0.6
		c-0.5-1.1-1.4-2.1-2.5-2.5l-0.6-0.2C14.9,20.6,14.9,19.4,15.7,19.1z"/>
</g>
</svg>
