<?xml version="1.0" encoding="utf-8"?>
<!-- Generator: Adobe Illustrator 22.0.0, SVG Export Plug-In . SVG Version: 6.00 Build 0)  -->
<svg version="1.1" id="Layer_1" xmlns="http://www.w3.org/2000/svg" xmlns:xlink="http://www.w3.org/1999/xlink" x="0px" y="0px"
	 viewBox="0 0 40 40" style="enable-background:new 0 0 40 40;" xml:space="preserve">
<style type="text/css">
	.st0{fill:url(#SVGID_1_);}
	.st1{clip-path:url(#SVGID_3_);}
	.st2{fill:#EC1C79;}
	.st3{fill:#FFFFFF;}
</style>
<linearGradient id="SVGID_1_" gradientUnits="userSpaceOnUse" x1="1067.2169" y1="-3085.1785" x2="1104.5087" y2="-3085.1785" gradientTransform="matrix(0 1 -1 0 -3065.1785 -1066.0419)">
	<stop  offset="0" style="stop-color:#EC448E"/>
	<stop  offset="1" style="stop-color:#C92A40"/>
</linearGradient>
<path class="st0" d="M37,26.1V13.5c0-2.1-1.1-4.1-3-5.2L23,2c-1.9-1.1-4.1-1.1-6,0L6,8.3c-1.9,1.1-3,3.1-3,5.2v12.6
	c0,2.1,1.1,4.1,3,5.2l11,6.3c1.9,1.1,4.1,1.1,6,0l11-6.3C35.8,30.2,37,28.3,37,26.1z"/>
<g id="Group_768" transform="translate(54.025 53.748)">
	<g>
		<defs>
			<rect id="SVGID_2_" x="-44" y="-43.8" width="20" height="20.1"/>
		</defs>
		<clipPath id="SVGID_3_">
			<use xlink:href="#SVGID_2_"  style="overflow:visible;"/>
		</clipPath>
		<g id="Group_768-2" transform="translate(0 0)" class="st1">
			<path id="Path_849" d="M-26.8-39.4l0.2,0.3l-0.2,0.3c-6.7,9.1-10.6,13.2-12.2,12.7c-1-0.3-2-1.3-3-2.8c-0.4-0.5-0.7-1.1-1-1.6
				c-0.2-0.4-0.4-0.7-0.5-0.9c-0.1-0.2-0.2-0.4-0.2-0.6l0,0c0-0.1,0-0.1,0-0.2c-1.3-4.9,1.6-9.9,6.5-11.2c2.3-0.6,4.7-0.3,6.8,0.9
				l0,0C-29.3-41.8-28.1-40.8-26.8-39.4 M-30.8-41.9c-4-2.2-9.1-0.8-11.3,3.3c-1,1.9-1.3,4.1-0.8,6.2c0,0.1,0,0.1,0,0.2l0,0
				c0,0.1,0.1,0.3,0.1,0.4c0.1,0.2,0.2,0.5,0.4,0.8c0.3,0.5,0.6,1,0.9,1.5c0.9,1.3,1.8,2.2,2.6,2.5c1,0.3,4.9-3.8,11.1-12.1
				C-28.6-40.1-29.7-41.1-30.8-41.9"/>
			<path id="Path_850" class="st2" d="M-30.8-41.9c-4-2.2-9.1-0.8-11.3,3.3c-1,1.9-1.3,4.1-0.8,6.2c0,0.1,0,0.1,0,0.2l0,0
				c0,0.1,0.1,0.3,0.1,0.4c0.1,0.2,0.2,0.5,0.4,0.8c0.3,0.5,0.6,1,0.9,1.5c0.9,1.3,1.8,2.2,2.6,2.5c1,0.3,4.9-3.8,11.1-12.1
				C-28.6-40.1-29.7-41.1-30.8-41.9"/>
			<path id="Path_851" d="M-33.2-23.8c-5.1,0-9.2-4.1-9.2-9.2s4.1-9.2,9.2-9.2S-24-38-24-32.9l0,0C-24-27.9-28.1-23.8-33.2-23.8
				C-33.2-23.8-33.2-23.8-33.2-23.8 M-33.2-24.6c4.6,0,8.3-3.7,8.3-8.3s-3.7-8.3-8.3-8.3c-4.6,0-8.3,3.7-8.3,8.3
				C-41.5-28.4-37.8-24.6-33.2-24.6"/>
			<path id="Path_852" class="st3" d="M-33.2-24.6c4.6,0,8.3-3.7,8.3-8.3s-3.7-8.3-8.3-8.3c-4.6,0-8.3,3.7-8.3,8.3
				C-41.5-28.4-37.8-24.6-33.2-24.6"/>
			<path id="Path_853" d="M-39.4-31.2l-1.1-3.3h1l0.6,1.9l0.6-1.9h0.8l0.6,1.9l0.6-1.9h0.9l-1.1,3.3h-0.8l-0.7-1.9l-0.7,1.9H-39.4z
				 M-35-31.3v-3.3h2.6v0.8h-1.7v0.5h1.6v0.7h-1.6v0.5h1.8v0.8L-35-31.3z M-31.1-31.3v-2.5h-1v-0.8h2.9v0.8h-1v2.5L-31.1-31.3z
				 M-28.8-31.3v-3.3h0.9v1.2h1.2v-1.2h0.9v3.3h-0.9v-1.3h-1.2v1.3L-28.8-31.3z"/>
			<path id="Path_854" d="M-43.5-35.6c-0.2-0.1-0.3-0.4-0.2-0.6c0.1-0.2,0.4-0.3,0.6-0.2l1.3,0.7c0.2,0.1,0.3,0.4,0.2,0.6
				s-0.4,0.3-0.6,0.2L-43.5-35.6z"/>
			<path id="Path_855" d="M-43.6-33.3c-0.2-0.1-0.3-0.4-0.2-0.6s0.4-0.3,0.6-0.2l1.3,0.6c0.2,0.1,0.3,0.4,0.2,0.6
				c-0.1,0.2-0.4,0.3-0.6,0.2L-43.6-33.3z"/>
		</g>
	</g>
</g>
</svg>
