<svg width="500" height="500" viewBox="0 0 500 500" fill="none" xmlns="http://www.w3.org/2000/svg">
<g clip-path="url(#clip0_1309_17)">
<path d="M500 500L0 500L0 0L500 0L500 500Z" fill="url(#paint0_linear_1309_17)"/>
<g clip-path="url(#clip1_1309_17)">
<path d="M246.709 70.2775C242.797 71.1242 239.496 73.626 236.007 75.456C229.192 79.0305 222.394 82.5414 215.233 85.4064C196.042 93.0829 175.999 97.5488 155.427 98.9652C147.281 99.5268 139.025 100.051 130.876 99.0892C127.116 98.6454 123.32 98.6353 119.544 98.1821C110.687 97.1188 98.8729 93.0879 93.7334 103.317C90.8036 109.147 92.4743 118.34 92.4743 124.72V173.194C92.4743 196.371 91.0497 220.052 93.9134 243.072C100.793 298.36 130.441 349.677 173.054 385.19C190.315 399.576 208.978 411.962 229.083 422.014C235.763 425.354 244.584 431.376 252.375 429.716C258.878 428.331 265.354 424.338 271.261 421.385C285.332 414.348 298.958 406.027 311.551 396.597C357.896 361.896 392.798 312.68 403.196 255.033C407.449 231.45 406.61 207.761 406.61 183.896V124.72C406.61 117.513 408.681 106.788 403.757 100.856C396.987 92.702 384.515 97.8919 375.763 98.8777C353.903 101.34 331.704 100.249 310.292 94.8959C295.532 91.2062 281.611 85.5675 268.113 78.6018C261.553 75.2155 254.627 68.5633 246.709 70.2775Z" fill="black"/>
<path d="M247.968 96.6129C245.084 97.5081 242.456 99.583 239.784 100.962C233.208 104.356 226.561 107.665 219.639 110.301C197.156 118.861 174.35 122.529 150.39 122.529C141.977 122.529 133.498 122.218 125.209 120.64C122.677 120.158 118.277 119.017 116.863 122.043C116.107 123.661 116.396 125.831 116.396 127.565V139.526V180.446C116.396 205.121 115.407 229.727 119.81 254.101C127.265 295.357 150.468 332.63 181.237 360.539C196.455 374.341 213.84 386.389 232.229 395.59C236.19 397.572 240.137 399.538 244.191 401.323C246.447 402.317 248.578 403.533 251.115 402.889C256.267 401.58 261.489 398.275 266.224 395.901C278.079 389.958 289.606 382.838 300.219 374.891C341.08 344.296 370.649 301.612 379.783 250.953C383.278 231.567 382.687 212.025 382.687 192.407V139.526L382.687 126.306C382.678 124.626 382.893 122.409 381.591 121.107C380.095 119.613 377.615 120.113 375.763 120.375C370.94 121.058 366.133 121.952 361.283 122.422C343.305 124.163 324.787 123.512 307.144 119.456C292.629 116.12 278.177 111.381 264.965 104.41C261.564 102.615 258.181 100.719 254.893 98.7262C252.723 97.4105 250.62 95.7901 247.968 96.6129Z" fill="white"/>
<path d="M125.305 127.944V197.693C125.305 216.141 124.764 234.285 128.176 252.496C140.217 316.756 190.242 370.028 249.857 394.486V104.901C245.505 106.485 241.538 109.08 237.402 111.148C230.432 114.633 223.001 117.784 215.605 120.249C194.229 127.376 170.915 131.398 148.347 130.41C140.618 130.072 132.978 128.914 125.305 127.944Z" fill="black"/>
<path d="M249.856 252.378V296.496L179.152 251.996L249.856 126.936V252.378ZM249.856 310.786L179.152 266.286L249.856 372.453C249.856 351.897 249.856 331.341 249.856 310.786Z" fill="white"/>
<path d="M249.855 252.385V296.505L320.559 252.003L249.855 126.936V252.385ZM249.855 310.796L320.559 266.294L249.855 372.466C249.855 351.91 249.855 331.353 249.855 310.796Z" fill="black"/>
</g>
</g>
<defs>
<linearGradient id="paint0_linear_1309_17" x1="250" y1="0" x2="250" y2="500" gradientUnits="userSpaceOnUse">
<stop stop-color="#F5F5F5"/>
<stop offset="1" stop-color="#E9E9E9"/>
</linearGradient>
<clipPath id="clip0_1309_17">
<rect width="500" height="500" fill="white"/>
</clipPath>
<clipPath id="clip1_1309_17">
<rect width="315.042" height="360" fill="white" transform="translate(92 70)"/>
</clipPath>
</defs>
</svg>
