<?xml version="1.0" encoding="utf-8"?>
<!-- Generator: Adobe Illustrator 22.0.0, SVG Export Plug-In . SVG Version: 6.00 Build 0)  -->
<svg version="1.1" id="Layer_1" xmlns="http://www.w3.org/2000/svg" xmlns:xlink="http://www.w3.org/1999/xlink" x="0px" y="0px"
	 viewBox="0 0 40 40" style="enable-background:new 0 0 40 40;" xml:space="preserve">
<style type="text/css">
	.st0{fill:url(#SVGID_1_);}
	.st1{fill:#FFFFFF;stroke:#FFFFFF;stroke-width:0.5;stroke-miterlimit:10;}
</style>
<title>venus</title>
<linearGradient id="SVGID_1_" gradientUnits="userSpaceOnUse" x1="20" y1="-1.375" x2="20" y2="-38.625" gradientTransform="matrix(1 0 0 1 0 40)">
	<stop  offset="5.128205e-03" style="stop-color:#B68D32"/>
	<stop  offset="1" style="stop-color:#EBCB7B"/>
</linearGradient>
<path class="st0" d="M37,26.3V13.7c0-2.1-1.1-4.1-3-5.2L23,2.2c-1.8-1.1-4.2-1.1-6,0L6,8.5c-1.9,1.1-3,3.1-3,5.2v12.6
	c0,2.1,1.1,4.1,3,5.2l11,6.3c1.8,1.1,4.2,1.1,6,0l11-6.3C35.8,30.4,37,28.4,37,26.3z"/>
<path class="st1" d="M13.2,15.3c0,3.2,0,6.3,0,9.5c4.5,0,9.1,0,13.6,0c0-1.4,0-2.7,0-4.1c-0.1,0-0.3,0-0.4,0c-2.8,0-5.6,0-8.4,0
	c-0.1,0-0.3,0-0.4,0c-0.3,0-0.6-0.3-0.6-0.7c0-0.3,0.2-0.6,0.5-0.7c0.1,0,0.3,0,0.4,0c3.1,0,6.3,0,9.4,0c0.7,0,0.9,0.2,0.9,1
	c0,1.7,0,3.4,0,5.1c0,0.7-0.2,0.9-1,0.9c-1.3,0-2.6,0-3.9,0c-0.3,0-0.4,0.1-0.4,0.4c0,1.2,0,2.3,0,3.5c0,0.4-0.3,0.7-0.7,0.7
	c-0.4,0-0.7-0.2-0.7-0.6c0-0.1,0-0.3,0-0.4c0-1.1,0-2.2,0-3.4c0-0.3-0.1-0.3-0.3-0.3c-0.8,0-1.7,0-2.5,0c-0.3,0-0.4,0.1-0.4,0.4
	c0,1.2,0,2.3,0,3.5c0,0.5-0.2,0.7-0.6,0.8c-0.5,0.1-0.8-0.2-0.8-0.8c0-1.1,0-2.3,0-3.4c0-0.5,0-0.5-0.5-0.5c-1.3,0-2.6,0-3.8,0
	c-0.7,0-0.9-0.2-0.9-0.9c0-3.5,0-7,0-10.5c0-0.7,0.2-0.9,0.9-0.9c1.3,0,2.7,0,4,0c0.3,0,0.4-0.1,0.4-0.4c0-1.2,0-2.4,0-3.6
	c0-0.4,0.3-0.7,0.7-0.7c0.4,0,0.7,0.2,0.7,0.7c0,0.1,0,0.2,0,0.3c0,1.1,0,2.1,0,3.2c0,0.5,0,0.5,0.5,0.5c0.8,0,1.6,0,2.4,0
	c0.2,0,0.3-0.1,0.3-0.3c0-1.1,0-2.3,0-3.4c0-0.2,0.1-0.5,0.2-0.7c0.2-0.2,0.5-0.3,0.7-0.2C22.9,9.3,23,9.6,23,9.9c0,1.2,0,2.3,0,3.5
	c0,0.5,0,0.5,0.5,0.5c1.3,0,2.6,0,3.9,0c0.5,0,0.8,0.2,0.8,0.7c0,0.4-0.2,0.7-0.6,0.7c-0.1,0-0.3,0-0.4,0c-4.5,0-9.1,0-13.6,0
	C13.5,15.3,13.3,15.3,13.2,15.3z"/>
</svg>
