<?xml version="1.0" encoding="utf-8"?>
<!-- Generator: Adobe Illustrator 22.0.0, SVG Export Plug-In . SVG Version: 6.00 Build 0)  -->
<svg version="1.1" id="Layer_1" xmlns="http://www.w3.org/2000/svg" xmlns:xlink="http://www.w3.org/1999/xlink" x="0px" y="0px"
	 viewBox="0 0 500 500" style="enable-background:new 0 0 500 500;" xml:space="preserve">
<style type="text/css">
	.st0{fill:url(#SVGID_1_);}
	.st1{clip-path:url(#SVGID_3_);}
	.st2{fill:#FFFFFF;}
</style>
<title>decentraland</title>
<linearGradient id="SVGID_1_" gradientUnits="userSpaceOnUse" x1="1539" y1="619.3" x2="1039" y2="619.3" gradientTransform="matrix(0 -1 -1 0 869.3 1539)">
	<stop  offset="0" style="stop-color:#252A8A"/>
	<stop  offset="0.4002" style="stop-color:#212684"/>
	<stop  offset="0.9139" style="stop-color:#151A74"/>
	<stop  offset="1" style="stop-color:#131771"/>
</linearGradient>
<polygon class="st0" points="500,0 500,500 0,500 0,0 "/>
<g>
	<g>
		<defs>
			<rect id="SVGID_2_" x="109.8" y="60" width="280.5" height="380"/>
		</defs>
		<clipPath id="SVGID_3_">
			<use xlink:href="#SVGID_2_"  style="overflow:visible;"/>
		</clipPath>
		<g class="st1">
			<path class="st2" d="M337.8,92.6C312.4,72.7,281.7,60,249.1,60s-63.3,10.9-88.7,32.6c-18.1,14.5-32.6,32.6-39.8,54.3
				c-9,21.7-12.7,45.2-9,67c1.8,23.5,10.9,45.2,23.5,63.3c12.7,19.9,30.8,34.4,50.7,45.2c0,1.8,1.8,3.6,1.8,5.4
				c1.8,5.4,5.4,12.7,9,18.1c3.6,3.6,7.2,7.2,12.7,7.2c1.8,0,5.4,0,7.2,0c1.8,0,5.4-1.8,7.2-3.6s3.6-3.6,5.4-5.4
				c1.8-1.8,3.6-5.4,3.6-7.2c1.8-7.2,1.8-12.7,1.8-19.9c0-5.4,0-12.7-1.8-18.1c0-3.6-1.8-7.2-5.4-10.9c-1.8-3.6-5.4-5.4-9-7.2l0,0
				c-18.1-7.2-34.4-21.7-43.4-39.8c-5.4-10.9-9-23.5-9-36.2s1.8-25.3,5.4-36.2c5.4-10.9,10.9-21.7,19.9-30.8s19.9-14.5,30.8-19.9
				c10.9-3.6,23.5-5.4,36.2-5.4c12.7,1.8,23.5,3.6,34.4,10.9c10.9,5.4,19.9,14.5,27.1,23.5c7.2,9,12.7,21.7,16.3,32.6
				c3.6,19.9,1.8,41.6-7.2,59.7c-9,18.1-25.3,32.6-43.4,41.6l0,0l-1.8,1.8c0,0-1.8,0-1.8,1.8l-1.8,1.8L278,288
				c-1.8,1.8-3.6,3.6-3.6,5.4v1.8l0,0l-1.8,1.8c0,1.8,0,1.8-1.8,3.6c0,3.6-1.8,5.4-1.8,9c0,5.4,0,9,0,12.7v23.5c0,7.2,0,16.3,0,23.5
				c0,7.2-1.8,16.3-5.4,23.5l0,0c-1.8,5.4-3.6,10.9-3.6,16.3s1.8,10.9,5.4,14.5c3.6,3.6,7.2,9,10.9,10.9c5.4,1.8,10.9,3.6,16.3,3.6
				s10.9-1.8,14.5-5.4c5.4-3.6,9-7.2,10.9-10.9c1.8-5.4,3.6-10.9,3.6-16.3s-1.8-10.9-5.4-14.5c-3.6-7.2-7.2-14.5-7.2-21.7
				s0-14.5,0-21.7c0-7.2,0-14.5,1.8-21.7c0-1.8,0-3.6,0-3.6c27.1-12.7,48.9-32.6,63.3-59.7c14.5-29,19.9-61.5,14.5-92.3
				C379.4,141.4,363.1,112.5,337.8,92.6L337.8,92.6z"/>
			<path class="st2" d="M285.3,235.5l-36.2-36.2l-36.2-36.2l-3.6-3.6c-9,10.9-14.5,23.5-14.5,38s5.4,27.1,16.3,38
				c10.9,10.9,23.5,16.3,38,16.3c14.5,0,27.1-5.4,38-14.5L285.3,235.5z"/>
		</g>
	</g>
</g>
</svg>
