<svg width="500" height="500" viewBox="0 0 500 500" fill="none" xmlns="http://www.w3.org/2000/svg">
<g clip-path="url(#clip0_903_1079)">
<path d="M500 0V500H0V0H500Z" fill="url(#paint0_linear_903_1079)"/>
<path fill-rule="evenodd" clip-rule="evenodd" d="M128.939 221.71C155.337 181.224 199.794 154.643 250.189 154.643C300.599 154.643 345.069 181.241 371.463 221.75C372.086 216.521 372.407 211.193 372.407 205.787C372.407 135.212 317.695 78 250.204 78C182.712 78 128 135.212 128 205.787C128 211.179 128.319 216.493 128.939 221.71ZM128.955 279.25C155.347 319.752 199.828 346.349 250.254 346.349C300.626 346.349 345.066 319.809 371.467 279.381C372.087 284.595 372.407 289.907 372.407 295.297C372.407 365.825 317.695 423 250.204 423C182.712 423 128 365.825 128 295.297C128 289.862 128.325 284.507 128.955 279.25ZM249.492 324.805C198.513 324.805 154.705 294.108 135.548 250.192C154.744 206.368 198.504 175.75 249.417 175.75C300.395 175.75 344.203 206.447 363.36 250.363C344.164 294.187 300.404 324.805 249.492 324.805Z" fill="#1D41FF"/>
</g>
<defs>
<linearGradient id="paint0_linear_903_1079" x1="250" y1="0" x2="250" y2="500" gradientUnits="userSpaceOnUse">
<stop stop-color="#EAEFF3"/>
<stop offset="1" stop-color="#EAEFF3"/>
</linearGradient>
<clipPath id="clip0_903_1079">
<rect width="500" height="500" fill="white"/>
</clipPath>
</defs>
</svg>
