<?xml version="1.0" encoding="utf-8"?>
<!-- Generator: Adobe Illustrator 22.0.0, SVG Export Plug-In . SVG Version: 6.00 Build 0)  -->
<svg version="1.1" id="Layer_1" xmlns="http://www.w3.org/2000/svg" xmlns:xlink="http://www.w3.org/1999/xlink" x="0px" y="0px"
	 viewBox="0 0 500 500" style="enable-background:new 0 0 500 500;" xml:space="preserve">
<style type="text/css">
	.st0{fill:url(#SVGID_1_);}
	.st1{fill:#FFFFFF;}
</style>
<title>decentraland</title>
<linearGradient id="SVGID_1_" gradientUnits="userSpaceOnUse" x1="1539" y1="619.3" x2="1039" y2="619.3" gradientTransform="matrix(0 -1 -1 0 869.3 1539)">
	<stop  offset="0" style="stop-color:#5D24C6"/>
	<stop  offset="1" style="stop-color:#9C4ED6"/>
</linearGradient>
<polygon class="st0" points="500,0 500,500 0,500 0,0 "/>
<g>
	<path class="st1" d="M386,234c-3.2,0-6.4-1.6-11.2-1.6c-1.6-8-3.2-17.6-4.8-25.6c48,8,80,20.8,80,33.6l0,0
		c-1.6,24-89.6,41.6-200,41.6S50,262.8,50,238.8l0,0c0-14.4,32-25.6,81.6-33.6c-3.2,8-4.8,16-4.8,25.6c-4.8,0-8,1.6-12.8,3.2
		s-9.6,1.6-14.4,3.2l0,0c-4.8,1.6-8,3.2-12.8,3.2c6.4,3.2,16,4.8,27.2,6.4c3.2,0,8,1.6,11.2,1.6l0,0c33.6,6.4,76.8,9.6,124.8,9.6
		c49.6,0,92.8-3.2,126.4-9.6l0,0c3.2,0,6.4-1.6,9.6-1.6c11.2-1.6,19.2-4.8,27.2-6.4C406.8,238.8,397.2,235.6,386,234z"/>
	<path class="st1" d="M400.4,166.8L400.4,166.8c0-12.8-33.6-24-81.6-28.8c11.2,8,22.4,17.6,30.4,28.8h1.6h-1.6l0,0
		c-25.6,4.8-59.2,8-99.2,8c-38.4,0-73.6-3.2-99.2-8l0,0c0,0,0,0-1.6,0h1.6c8-11.2,19.2-20.8,30.4-28.8c-48,4.8-81.6,16-81.6,28.8
		l0,0l0,0c0,16,72,28.8,121.6,32c11.2,0,28.8,1.6,28.8,1.6c6.4,0,17.6,0,27.2,0C328.4,195.6,400.4,182.8,400.4,166.8z"/>
	<path class="st1" d="M101.2,330c0-8,14.4-16,38.4-20.8c3.2,8,8,14.4,12.8,20.8c0,0,0,0-1.6,0h1.6l0,0l0,0c25.6,4.8,59.2,8,97.6,8
		s73.6-3.2,97.6-8l0,0l0,0h1.6h-1.6c4.8-6.4,9.6-14.4,12.8-20.8c24,6.4,38.4,12.8,38.4,20.8l0,0c-1.6,17.6-67.2,32-150.4,32
		S102.8,347.6,101.2,330L101.2,330z"/>
</g>
</svg>
