<?xml version="1.0" encoding="utf-8"?>
<!-- Generator: Adobe Illustrator 22.0.0, SVG Export Plug-In . SVG Version: 6.00 Build 0)  -->
<svg version="1.1" id="Layer_1" xmlns="http://www.w3.org/2000/svg" xmlns:xlink="http://www.w3.org/1999/xlink" x="0px" y="0px"
	 viewBox="0 0 40 40" style="enable-background:new 0 0 40 40;" xml:space="preserve">
<style type="text/css">
	.st0{fill:url(#SVGID_1_);}
	.st1{fill:#FFFFFF;}
	.st2{fill:#F5B1D1;}
	.st3{fill:#F39EC6;}
</style>
<g>
	
		<linearGradient id="SVGID_1_" gradientUnits="userSpaceOnUse" x1="77.3187" y1="1249.1787" x2="114.6104" y2="1249.1787" gradientTransform="matrix(0 1 1 0 -1229.1785 -76.0419)">
		<stop  offset="0" style="stop-color:#F9CBDF"/>
		<stop  offset="0.9988" style="stop-color:#ED70AA"/>
	</linearGradient>
	<path class="st0" d="M37,26.2V13.6c0-2.1-1.1-4.1-3-5.2L23,2.1c-1.9-1.1-4.1-1.1-6,0L6,8.4c-1.9,1.1-3,3.1-3,5.2v12.6
		c0,2.1,1.1,4.1,3,5.2l11,6.3c1.9,1.1,4.1,1.1,6,0l11-6.3C35.8,30.3,37,28.4,37,26.2z"/>
	<g>
		<g>
			<path class="st1" d="M16.6,11.7c-0.3,0-0.3,0-0.1-0.1c0.2,0,0.8,0,1.1,0.1c0.9,0.2,1.7,0.7,2.5,1.7l0.2,0.2l0.3-0.1
				c1.4-0.2,2.7,0,3.9,0.5c0.3,0.1,0.8,0.4,0.9,0.5c0,0,0.1,0.2,0.1,0.3c0.1,0.6,0,1-0.1,1.3c-0.1,0.2-0.1,0.2,0,0.4
				c0.1,0.1,0.2,0.2,0.3,0.2c0.3,0,0.6-0.5,0.7-1.1l0.1-0.3l0.1,0.1c0.6,0.7,1.1,1.6,1.2,2.3l0,0.2L27.6,18
				c-0.2-0.3-0.4-0.5-0.6-0.6c-0.4-0.3-0.8-0.4-2-0.4c-1-0.1-1.6-0.1-2.2-0.3c-1-0.3-1.5-0.8-2.7-2.3c-0.5-0.7-0.9-1.1-1.2-1.4
				C18.2,12.2,17.5,11.9,16.6,11.7z"/>
			<path class="st1" d="M25.6,13.2c0-0.5,0.1-0.8,0.2-1c0-0.1,0.1-0.2,0.1-0.2c0,0,0,0.1,0,0.2c-0.1,0.3-0.1,0.6,0,1.1
				c0.1,0.5,0.1,0.6,0.7,1.2c0.3,0.3,0.6,0.6,0.7,0.8l0.2,0.3l-0.2-0.2c-0.3-0.2-0.8-0.7-1-0.8c-0.1,0-0.1,0-0.2,0
				c0,0-0.1,0.1-0.1,0.5c0,0.5-0.1,0.9-0.3,1.2c-0.1,0.2-0.1,0.1,0-0.1c0.1-0.2,0.1-0.2,0.1-0.7c0-1-0.1-1.3-0.9-1.7
				c-0.2-0.1-0.5-0.3-0.7-0.3c-0.2-0.1-0.3-0.2-0.3-0.2c0,0,0.7,0.2,1,0.3c0.4,0.2,0.5,0.2,0.6,0.2C25.6,13.6,25.6,13.5,25.6,13.2z"
				/>
			<path class="st1" d="M17.1,15c-0.5-0.7-0.8-1.8-0.8-2.6l0-0.2l0.1,0c0.2,0,0.6,0.2,0.8,0.3c0.5,0.3,0.7,0.7,0.9,1.7
				c0.1,0.3,0.1,0.6,0.2,0.7c0.1,0.2,0.3,0.6,0.5,0.9c0.1,0.2,0,0.3-0.3,0.3C18.1,16,17.5,15.6,17.1,15z"/>
			<path class="st1" d="M25,20.3c-2.4-1-3.3-1.8-3.3-3.2c0-0.2,0-0.4,0-0.4c0,0,0.1,0.1,0.2,0.2c0.5,0.4,1,0.6,2.5,0.8
				c0.9,0.1,1.4,0.2,1.9,0.4c1.5,0.5,2.4,1.5,2.6,2.8c0.1,0.4,0,1.1-0.1,1.5c-0.1,0.3-0.3,0.9-0.4,0.9c0,0,0-0.1,0-0.2
				c0-0.5-0.3-1-0.7-1.4C27.3,21.3,26.6,20.9,25,20.3z"/>
			<path class="st1" d="M23.3,20.7c0-0.2-0.1-0.4-0.1-0.5L23.1,20l0.1,0.1c0.2,0.2,0.3,0.4,0.4,0.7c0.1,0.2,0.1,0.3,0.1,0.7
				c0,0.4,0,0.4-0.1,0.6c-0.1,0.3-0.3,0.6-0.5,0.8c-0.4,0.4-1,0.7-1.8,0.8c-0.1,0-0.6,0-0.9,0.1c-0.9,0-1.5,0.1-2.1,0.3
				c-0.1,0-0.1,0-0.2,0c0,0,0.3-0.2,0.7-0.4c0.4-0.2,0.9-0.3,1.8-0.5c0.5-0.1,1-0.2,1.1-0.2C22.9,22.7,23.5,21.8,23.3,20.7z"/>
			<path class="st1" d="M24.4,22.6c-0.3-0.7-0.4-1.3-0.2-2c0-0.1,0-0.1,0.1-0.1c0,0,0.1,0,0.2,0.1c0.1,0.1,0.4,0.3,1.2,0.7
				c1,0.5,1.5,0.9,1.9,1.4c0.3,0.4,0.5,0.9,0.6,1.5c0.1,0.3,0,1.1-0.1,1.4c-0.3,1-0.9,1.8-1.8,2.3c-0.1,0.1-0.2,0.1-0.3,0.1
				c0,0,0-0.1,0.1-0.3c0.3-0.6,0.3-1.2,0.1-1.9c-0.1-0.4-0.4-0.9-1-1.7C24.7,23.2,24.6,23,24.4,22.6z"/>
			<path class="st1" d="M15.4,26.3c0.9-0.7,2-1.3,3-1.4c0.4-0.1,1.2,0,1.6,0.1c0.6,0.2,1.2,0.5,1.5,1c0.3,0.4,0.4,0.8,0.6,1.6
				c0.1,0.3,0.1,0.7,0.1,0.7c0.1,0.4,0.3,0.8,0.5,0.9c0.4,0.3,1,0.3,1.7,0c0.1,0,0.2-0.1,0.2-0.1c0,0-0.3,0.2-0.5,0.4
				c-0.3,0.2-0.5,0.2-0.9,0.2c-0.6,0-1.1-0.3-1.5-0.9c-0.1-0.1-0.3-0.5-0.4-0.8c-0.4-1-0.6-1.3-1.1-1.6c-0.4-0.3-1-0.3-1.4-0.1
				c-0.6,0.3-0.7,1-0.3,1.4c0.2,0.2,0.5,0.3,0.7,0.4c0.4,0.1,0.8-0.3,0.8-0.7c0-0.3-0.1-0.5-0.4-0.6c-0.4-0.2-0.8,0-0.8,0.4
				c0,0.2,0.1,0.3,0.2,0.3c0.1,0,0.1,0,0,0c-0.4-0.1-0.4-0.5-0.2-0.8c0.3-0.3,1.1-0.2,1.3,0.3c0.1,0.2,0.1,0.6,0,0.8
				c-0.2,0.5-0.8,0.8-1.4,0.7c-0.4-0.1-0.6-0.2-1.1-0.7c-0.8-0.9-1.2-1-2.4-1.2l-0.2,0L15.4,26.3z"/>
			<path class="st1" d="M11.4,10.8c2.8,3.4,4.8,4.8,5,5.1c0.2,0.2,0.1,0.5-0.2,0.6c-0.2,0.1-0.5,0.2-0.7,0.2c-0.2,0-0.3-0.1-0.3-0.1
				c-0.1-0.1-0.2-0.1-0.8-1.1c-0.8-1.3-1.5-2.3-1.5-2.3c0,0,0,0,1.4,2.6c0.2,0.5,0,0.8,0,0.8c0,0.2,0,0.2-0.2,0.5
				c-0.3,0.4-0.5,0.8-0.6,1.6c-0.1,1-0.5,1.6-1.4,2.8c-0.5,0.7-0.6,0.8-0.8,1.1c-0.2,0.3-0.2,0.5-0.2,1c0,0.5,0,0.8,0.2,1.2
				c0.1,0.4,0.3,0.6,0.6,1.1c0.3,0.4,0.4,0.8,0.4,0.9c0,0.1,0,0.1,0.5,0c1-0.2,1.9-0.6,2.4-1.2c0.3-0.3,0.4-0.5,0.4-0.9
				c0-0.3,0-0.3-0.1-0.5c-0.1-0.3-0.4-0.5-0.9-0.8c-0.7-0.4-0.9-0.8-1-1.3c-0.1-0.4,0-0.7,0.4-1.4c0.4-0.8,0.5-1.1,0.5-1.9
				c0-0.5,0.1-0.7,0.2-0.9c0.2-0.2,0.3-0.2,0.7-0.3c0.6-0.1,1-0.2,1.3-0.5c0.3-0.3,0.4-0.5,0.4-0.9l0-0.3l-0.2-0.2
				C16.5,15,11,10.3,11,10.3C11,10.3,11.2,10.5,11.4,10.8z M12.7,24.1c0.1-0.2,0.1-0.5-0.2-0.7c-0.2-0.1-0.5-0.1-0.5,0.1
				c0,0.1,0,0.1,0.1,0.1c0.1,0.1,0.1,0.1,0,0.3c-0.1,0.1-0.1,0.3,0,0.3C12.4,24.3,12.6,24.3,12.7,24.1z"/>
			<path class="st1" d="M17.6,17.7c-0.3,0.1-0.6,0.4-0.7,0.7c-0.1,0.2,0,0.5,0.1,0.6c0.1,0.2,0.3,0.2,0.6,0.2c0.7,0,1.2-0.3,1.3-0.6
				c0.1-0.3-0.2-0.7-0.5-0.9C18.2,17.7,17.8,17.7,17.6,17.7z M18.4,18.3c0.1-0.1,0.1-0.3-0.1-0.4c-0.3-0.2-0.8,0-0.8,0.3
				c0,0.2,0.3,0.3,0.5,0.3C18.1,18.5,18.3,18.4,18.4,18.3z"/>
		</g>
		<path class="st2" d="M18.4,18.3c0.1-0.1,0.1-0.3-0.1-0.4c-0.3-0.2-0.8,0-0.8,0.3c0,0.1,0.2,0.3,0.5,0.3
			C18.1,18.5,18.3,18.4,18.4,18.3z"/>
		<path class="st3" d="M12.7,24c0.1-0.2,0.1-0.5-0.1-0.6c-0.2-0.1-0.5-0.1-0.5,0.1c0,0,0,0.1,0.1,0.1c0.1,0.1,0.1,0.1,0,0.2
			c-0.1,0.1-0.1,0.2,0,0.3C12.4,24.3,12.6,24.2,12.7,24z"/>
	</g>
</g>
<title>Asset 1</title>
</svg>
