<?xml version="1.0" encoding="utf-8"?>
<!-- Generator: Adobe Illustrator 22.0.0, SVG Export Plug-In . SVG Version: 6.00 Build 0)  -->
<svg version="1.1" id="Layer_1" xmlns="http://www.w3.org/2000/svg" xmlns:xlink="http://www.w3.org/1999/xlink" x="0px" y="0px"
	 viewBox="0 0 40 40" style="enable-background:new 0 0 40 40;" xml:space="preserve">
<style type="text/css">
	.st0{fill:url(#SVGID_1_);}
	.st1{fill:none;stroke:url(#SVGID_2_);stroke-miterlimit:10;}
	.st2{fill:none;stroke:url(#SVGID_3_);stroke-width:0.869;stroke-miterlimit:10;}
	.st3{fill:#FFFFFF;}
</style>
<linearGradient id="SVGID_1_" gradientUnits="userSpaceOnUse" x1="20" y1="-7.8721" x2="20" y2="30.2772">
	<stop  offset="0" style="stop-color:#23D979"/>
	<stop  offset="1" style="stop-color:#26A17B"/>
</linearGradient>
<path class="st0" d="M37,26.3V13.7c0-2.1-1.1-4.1-3-5.2L23,2.2c-1.9-1.1-4.1-1.1-6,0L6,8.5c-1.9,1.1-3,3.1-3,5.2v12.6
	c0,2.1,1.1,4.1,3,5.2l11,6.3c1.9,1.1,4.1,1.1,6,0l11-6.3C35.8,30.4,37,28.5,37,26.3z"/>
<linearGradient id="SVGID_2_" gradientUnits="userSpaceOnUse" x1="1581.7399" y1="-148.6274" x2="2037.9077" y2="307.5405">
	<stop  offset="0" style="stop-color:#455DF0"/>
	<stop  offset="1" style="stop-color:#345D9D"/>
</linearGradient>
<rect x="1661.2" y="-227.1" class="st1" width="297.2" height="613.1"/>
<linearGradient id="SVGID_3_" gradientUnits="userSpaceOnUse" x1="1297.5162" y1="-458.8142" x2="1708.553" y2="-47.7775">
	<stop  offset="0" style="stop-color:#455DF0"/>
	<stop  offset="1" style="stop-color:#345D9D"/>
</linearGradient>
<polygon class="st2" points="1661.2,-1.7 1206.6,-277.7 1206.6,-367 1661.2,-367 "/>
<path class="st3" d="M22,20.7L22,20.7c-0.1,0-0.7,0-2,0c-1,0-1.8,0-2,0v0c-4-0.2-7-0.9-7-1.7c0-0.8,3-1.5,7-1.7V20
	c0.3,0,1,0.1,2.1,0.1c1.2,0,1.9-0.1,2-0.1v-2.7c4,0.2,7,0.9,7,1.7C29,19.8,26.1,20.5,22,20.7 M22,17v-2.4h5.6v-3.7H12.4v3.7H18V17
	c-4.6,0.2-8,1.1-8,2.2c0,1.1,3.4,2,8,2.2v7.9H22v-7.9c4.5-0.2,8-1.1,8-2.2C30,18.1,26.6,17.2,22,17"/>
</svg>
