<?xml version="1.0" encoding="utf-8"?>
<!-- Generator: Adobe Illustrator 22.0.0, SVG Export Plug-In . SVG Version: 6.00 Build 0)  -->
<svg version="1.1" id="Layer_1" xmlns="http://www.w3.org/2000/svg" xmlns:xlink="http://www.w3.org/1999/xlink" x="0px" y="0px"
	 viewBox="0 0 40 40" style="enable-background:new 0 0 40 40;" xml:space="preserve">
<style type="text/css">
	.st0{fill:url(#SVGID_1_);}
	.st1{fill:#FFFFFF;}
</style>
<title>venus</title>
<linearGradient id="SVGID_1_" gradientUnits="userSpaceOnUse" x1="20" y1="2138.625" x2="20" y2="2101.375" gradientTransform="matrix(1 0 0 1 0 -2100)">
	<stop  offset="0" style="stop-color:#4520E6"/>
	<stop  offset="1" style="stop-color:#795AFF"/>
</linearGradient>
<path class="st0" d="M37,26.3V13.7c0-2.1-1.1-4.1-3-5.2L23,2.2c-1.8-1.1-4.2-1.1-6,0L6,8.5c-1.9,1.1-3,3.1-3,5.2v12.6
	c0,2.1,1.1,4.1,3,5.2l11,6.3c1.8,1.1,4.2,1.1,6,0l11-6.3C35.8,30.4,37,28.4,37,26.3z"/>
<g id="Symbol_white">
	<path id="Fill-26" class="st1" d="M25.4,23.7c0,1.7-1.4,3-3.1,3h-5.9l6.1-6.1C24.1,20.8,25.4,22.1,25.4,23.7L25.4,23.7z M15.6,20.4
		v-7.1h6.7c0.1,0,0.2,0,0.3,0L15.6,20.4z M26.6,16.4c0-1.4-0.7-2.7-1.8-3.5l2.9-2.9L26,10l-2.3,2.3c-0.4-0.1-0.9-0.2-1.4-0.2h-8
		v11.2l9.6-9.5c0.9,0.5,1.4,1.5,1.4,2.6c0,1.7-1.4,3-3.1,3h-0.3L11.4,30h1.7l2.1-2.1h7.1c2.4,0,4.3-1.9,4.3-4.3
		c0-1.6-0.8-2.9-2.1-3.7C25.8,19.3,26.6,17.9,26.6,16.4L26.6,16.4z"/>
</g>
</svg>
