<?xml version="1.0" encoding="utf-8"?>
<!-- Generator: Adobe Illustrator 22.0.0, SVG Export Plug-In . SVG Version: 6.00 Build 0)  -->
<svg version="1.1" id="Layer_1" xmlns="http://www.w3.org/2000/svg" xmlns:xlink="http://www.w3.org/1999/xlink" x="0px" y="0px"
	 viewBox="0 0 40 40" style="enable-background:new 0 0 40 40;" xml:space="preserve">
<style type="text/css">
	.st0{fill:url(#SVGID_1_);}
	.st1{fill:#FFFFFF;}
	.st2{fill:url(#SVGID_2_);}
	.st3{fill:url(#SVGID_3_);}
	.st4{fill:url(#SVGID_4_);}
	.st5{fill:url(#SVGID_5_);}
	.st6{fill:url(#SVGID_6_);}
	.st7{fill:url(#SVGID_7_);}
	.st8{fill:url(#SVGID_8_);}
</style>
<linearGradient id="SVGID_1_" gradientUnits="userSpaceOnUse" x1="384.5669" y1="-1687.1785" x2="347.2752" y2="-1687.1785" gradientTransform="matrix(0 1 -1 0 -1667.1785 -346.0419)">
	<stop  offset="1.198744e-03" style="stop-color:#1F212E"/>
	<stop  offset="0.1468" style="stop-color:#252839"/>
	<stop  offset="0.6994" style="stop-color:#3B415C"/>
	<stop  offset="0.9949" style="stop-color:#434A6A"/>
</linearGradient>
<path class="st0" d="M37,26.2V13.6c0-2.1-1.1-4.1-3-5.2L23,2.1c-1.9-1.1-4.1-1.1-6,0L6,8.4c-1.9,1.1-3,3.1-3,5.2v12.6
	c0,2.1,1.1,4.1,3,5.2l11,6.3c1.9,1.1,4.1,1.1,6,0l11-6.3C35.8,30.3,37,28.4,37,26.2z"/>
<title>Asset 1</title>
<g transform="matrix(1.00121,0,0,1.00121,-1.53286,-3.53476)">
	<path class="st1" d="M18.7,19.5l8.2-3.6l-12.3-3.1L18.7,19.5z"/>
	<path class="st1" d="M22,24.9l-3.3-5.4l8.2-3.6L22,24.9z"/>
	<path class="st1" d="M20.3,28l-6-9.6l1.7,9.2L20.3,28z"/>
	<path class="st1" d="M20.3,28L16,27.6l1.1,6.3L20.3,28z"/>
	<path class="st1" d="M29.9,27.7v-11l-4.8,8.9L29.9,27.7z"/>
	<path class="st1" d="M29.9,27.7l-4.8-2l-4.5,8.2L29.9,27.7z"/>
</g>
<linearGradient id="SVGID_2_" gradientUnits="userSpaceOnUse" x1="-284.1747" y1="416.577" x2="-284.1175" y2="416.577" gradientTransform="matrix(190.8275 99.085 99.085 -190.8275 12964.6309 107661.6406)">
	<stop  offset="0" style="stop-color:#0EF0FE"/>
	<stop  offset="1" style="stop-color:#D275F7"/>
</linearGradient>
<path class="st2" d="M17.2,16l8.2-3.6L13,9.4L17.2,16z"/>
<linearGradient id="SVGID_3_" gradientUnits="userSpaceOnUse" x1="-283.8893" y1="416.7259" x2="-283.8655" y2="416.7259" gradientTransform="matrix(-2.1658 80.9984 80.9984 2.1658 -34347.6563 22105.1777)">
	<stop  offset="0" style="stop-color:#7A87F7"/>
	<stop  offset="1" style="stop-color:#D275F7"/>
</linearGradient>
<path class="st3" d="M17.2,16l8.2-3.6"/>
<linearGradient id="SVGID_4_" gradientUnits="userSpaceOnUse" x1="-284.6054" y1="417.6315" x2="-284.5482" y2="417.6315" gradientTransform="matrix(72.3869 114.4109 114.4109 -72.3869 -27166.1016 62812.7148)">
	<stop  offset="0" style="stop-color:#D275F7"/>
	<stop  offset="1" style="stop-color:#7A87F7"/>
</linearGradient>
<path class="st4" d="M18.8,24.5l-6-9.6l1.7,9.2L18.8,24.5z"/>
<linearGradient id="SVGID_5_" gradientUnits="userSpaceOnUse" x1="-285.999" y1="417.2596" x2="-285.9417" y2="417.2596" gradientTransform="matrix(-24.8032 87.8224 87.8224 24.8032 -43721.8438 14792.3115)">
	<stop  offset="0" style="stop-color:#D275F7"/>
	<stop  offset="1" style="stop-color:#FA9D3E"/>
</linearGradient>
<path class="st5" d="M18.8,24.5l-4.3-0.4l1.1,6.3L18.8,24.5z"/>
<linearGradient id="SVGID_6_" gradientUnits="userSpaceOnUse" x1="-283.713" y1="416.0185" x2="-283.6558" y2="416.0185" gradientTransform="matrix(-64.7383 76.2409 76.2409 64.7383 -50055.3281 -5284.2217)">
	<stop  offset="0" style="stop-color:#D275F7"/>
	<stop  offset="1" style="stop-color:#7A87F7"/>
</linearGradient>
<path class="st6" d="M28.4,24.2v-11l-4.9,8.9L28.4,24.2z"/>
<linearGradient id="SVGID_7_" gradientUnits="userSpaceOnUse" x1="-284.3911" y1="417.6169" x2="-284.3338" y2="417.6169" gradientTransform="matrix(139.1294 -155.8265 -155.8265 -139.1294 104662.7578 13817.2021)">
	<stop  offset="0" style="stop-color:#D275F7"/>
	<stop  offset="1" style="stop-color:#0EF0FE"/>
</linearGradient>
<path class="st7" d="M28.4,24.2l-4.9-2l-4.5,8.2L28.4,24.2z"/>
<linearGradient id="SVGID_8_" gradientUnits="userSpaceOnUse" x1="-283.8759" y1="416.7259" x2="-283.8186" y2="416.7259" gradientTransform="matrix(-2.1658 80.9984 80.9984 2.1658 -34347.6563 22105.1777)">
	<stop  offset="0" style="stop-color:#7A87F7"/>
	<stop  offset="1" style="stop-color:#D275F7"/>
</linearGradient>
<path class="st8" d="M20.5,21.4L17.2,16l8.2-3.6L20.5,21.4z"/>
</svg>
