<svg width="500" height="500" viewBox="0 0 500 500" fill="none" xmlns="http://www.w3.org/2000/svg">
<g clip-path="url(#clip0_908_1095)">
<path d="M500 0V500H0V0H500Z" fill="url(#paint0_linear_908_1095)"/>
<path d="M337.113 197.162H308.863C305.724 197.162 302.585 195.735 300.303 193.452L288.889 180.611C285.464 176.902 280.043 176.617 276.048 179.755L275.192 180.611L265.49 191.74C262.351 195.45 257.5 197.447 252.649 197.447H98.2751C93.9949 210.002 91.1414 223.414 90 236.825H236.099C238.667 236.825 241.235 235.684 242.947 233.972L256.644 219.704C258.356 217.992 260.639 216.851 263.207 216.851H263.778C266.346 216.851 268.914 217.992 270.626 219.99L282.04 232.83C284.323 235.399 287.462 236.825 290.601 236.825H409.591C408.45 223.414 405.596 210.002 401.316 197.447H337.113V197.162ZM243.518 275.918L232.104 263.077C228.68 259.368 223.258 259.083 219.263 262.221L218.407 263.077L208.42 274.206C205.281 277.916 200.716 279.913 195.865 279.913H92.2828C94.8509 293.61 99.4165 307.021 105.409 319.862H178.173C180.741 319.862 183.024 318.721 185.021 317.008L198.718 302.741C200.43 301.029 202.713 299.888 205.281 299.888H205.852C208.42 299.888 210.988 301.029 212.7 303.026L224.114 315.867C226.397 318.435 229.536 319.862 232.675 319.862H394.182C400.175 307.307 404.74 293.895 407.309 279.913H252.078C248.654 279.913 245.515 278.486 243.518 275.918ZM299.446 151.506L313.143 137.238C314.855 135.526 317.138 134.385 319.706 134.385H320.277C322.845 134.385 325.413 135.526 327.125 137.238L338.539 150.079C340.822 152.647 343.961 153.789 347.1 153.789H377.918C324.272 83.022 223.544 69.0398 152.492 122.4C140.792 131.246 130.234 141.804 121.103 153.789H292.598C295.452 154.359 297.734 153.218 299.446 151.506ZM189.016 359.24C185.592 359.24 182.453 357.813 180.456 355.531L169.042 342.69C165.618 338.98 159.911 338.695 156.201 342.119L155.63 342.69L145.643 353.819C142.504 357.528 137.939 359.526 133.088 359.526H132.517C192.726 424.015 294.596 427.153 359.37 366.374C361.938 364.091 364.221 361.523 366.789 358.955H189.016V359.24Z" fill="white"/>
</g>
<defs>
<linearGradient id="paint0_linear_908_1095" x1="250" y1="0" x2="250" y2="500" gradientUnits="userSpaceOnUse">
<stop/>
<stop offset="1"/>
</linearGradient>
<clipPath id="clip0_908_1095">
<rect width="500" height="500" fill="white"/>
</clipPath>
</defs>
</svg>
