<?xml version="1.0" encoding="utf-8"?>
<!-- Generator: Adobe Illustrator 22.0.0, SVG Export Plug-In . SVG Version: 6.00 Build 0)  -->
<svg version="1.1" id="Layer_1" xmlns="http://www.w3.org/2000/svg" xmlns:xlink="http://www.w3.org/1999/xlink" x="0px" y="0px"
	 viewBox="0 0 40 40" style="enable-background:new 0 0 40 40;" xml:space="preserve">
<style type="text/css">
	.st0{fill:url(#SVGID_1_);}
	.st1{fill:#FFFFFF;fill-opacity:0.704;}
	.st2{fill:#FFFFFF;}
</style>
<linearGradient id="SVGID_1_" gradientUnits="userSpaceOnUse" x1="774.1473" y1="4139.2837" x2="799.9513" y2="4165.0879" gradientTransform="matrix(0 1 1 0 -4132.1787 -767.0419)">
	<stop  offset="1.198745e-03" style="stop-color:#28578E"/>
	<stop  offset="0.5094" style="stop-color:#224376"/>
	<stop  offset="1" style="stop-color:#1E3464"/>
</linearGradient>
<path class="st0" d="M37,26.3V13.7c0-2.1-1.1-4.1-3-5.2L23,2.2c-1.9-1.1-4.1-1.1-6,0L6,8.5c-1.9,1.1-3,3.1-3,5.2v12.6
	c0,2.1,1.1,4.1,3,5.2l11,6.3c1.9,1.1,4.1,1.1,6,0l11-6.3C35.8,30.4,37,28.5,37,26.3z"/>
<g>
	<path class="st1" d="M24.1,9.9h3l-5.7,7.6h5.1L14.3,31.8l3.9-10.1h-4.4l4.5-11.8L24.1,9.9z"/>
	<path class="st2" d="M24.1,9.9h0.2l-5.1,8.7h4.7l-9.5,13.2l3.9-10.1h-4.4l4.5-11.8L24.1,9.9z"/>
</g>
</svg>
