<?xml version="1.0" encoding="utf-8"?>
<!-- Generator: Adobe Illustrator 22.0.0, SVG Export Plug-In . SVG Version: 6.00 Build 0)  -->
<svg version="1.1" id="Layer_1" xmlns="http://www.w3.org/2000/svg" xmlns:xlink="http://www.w3.org/1999/xlink" x="0px" y="0px"
	 viewBox="0 0 500 500" style="enable-background:new 0 0 500 500;" xml:space="preserve">
<style type="text/css">
	.st0{fill:url(#SVGID_1_);}
	.st1{fill:#FFFFFF;}
</style>
<title>decentraland</title>
<linearGradient id="SVGID_1_" gradientUnits="userSpaceOnUse" x1="-887.4" y1="61.0827" x2="-387.4" y2="61.0827" gradientTransform="matrix(0 -1 -1 0 311.3 -387)">
	<stop  offset="0" style="stop-color:#040405"/>
	<stop  offset="1" style="stop-color:#0F1114"/>
</linearGradient>
<polygon class="st0" points="500.2,0.4 500.2,500.4 0.2,500.4 0.2,0.4 "/>
<path class="st1" d="M111.7,393.8l264.3-220c3.2-2.8,5.9-6.3,7.7-10.2c1.8-3.9,2.9-8.1,3-12.4c0.1-4.3-0.6-8.6-2.2-12.6
	c-1.6-4-3.9-7.6-7-10.7c-3-3-6.7-5.4-10.7-7c-4-1.6-8.3-2.3-12.6-2.2c-4.3,0.1-8.5,1.2-12.4,3c-3.9,1.8-7.3,4.5-10.2,7.7
	L111.7,393.8z M239.2,159.4l-111.3,83.4l83.4-111.2c1.7-2.3,3.9-4.2,6.4-5.5c2.5-1.4,5.3-2.2,8.1-2.4c2.8-0.2,5.7,0.2,8.3,1.2
	c2.7,1,5.1,2.5,7.1,4.6c2,2,3.6,4.4,4.6,7.1c1,2.7,1.4,5.5,1.2,8.4c-0.2,2.8-1,5.6-2.4,8.1C243.3,155.5,241.5,157.7,239.2,159.4z
	 M373.9,294.1l-111.3,83.4l83.4-111.2c1.7-2.3,3.9-4.2,6.4-5.5c2.5-1.4,5.3-2.2,8.1-2.4c2.8-0.2,5.7,0.2,8.3,1.2
	c2.7,1,5.1,2.5,7.1,4.6c2,2,3.6,4.4,4.6,7.1c1,2.7,1.4,5.5,1.2,8.4c-0.2,2.8-1,5.6-2.4,8.1C378.1,290.3,376.2,292.4,373.9,294.1z"/>
</svg>
