<?xml version="1.0" encoding="utf-8"?>
<!-- Generator: Adobe Illustrator 22.0.0, SVG Export Plug-In . SVG Version: 6.00 Build 0)  -->
<svg version="1.1" id="Layer_1" xmlns="http://www.w3.org/2000/svg" xmlns:xlink="http://www.w3.org/1999/xlink" x="0px" y="0px"
	 viewBox="0 0 500 500" style="enable-background:new 0 0 500 500;" xml:space="preserve">
<style type="text/css">
	.st0{fill:url(#SVGID_1_);}
	.st1{fill:#32201B;}
	.st2{fill:url(#SVGID_2_);}
	.st3{fill:url(#SVGID_3_);}
	.st4{fill:url(#SVGID_4_);}
	.st5{fill:url(#SVGID_5_);}
	.st6{fill:url(#SVGID_6_);}
	.st7{fill:url(#SVGID_7_);}
	.st8{fill:url(#SVGID_8_);}
	.st9{fill:url(#SVGID_9_);}
	.st10{fill:url(#SVGID_10_);}
	.st11{fill:url(#SVGID_11_);}
	.st12{fill:url(#SVGID_12_);}
	.st13{fill:#FFA726;}
	.st14{fill:#F28200;}
	.st15{fill:#C03736;}
	.st16{fill:#FFFFFF;}
	.st17{fill:#E0E0E0;}
	.st18{fill:#FFCC61;}
	.st19{fill:#E16E00;}
	.st20{fill:#C94F00;}
	.st21{fill:#FFB5AB;}
	.st22{fill:#FF8A80;}
	.st23{fill:#5C3E37;}
</style>
<title>decentraland</title>
<linearGradient id="SVGID_1_" gradientUnits="userSpaceOnUse" x1="410.5568" y1="800.7" x2="910.5568" y2="800.7" gradientTransform="matrix(0 -1 1 0 -550.7 911)">
	<stop  offset="0" style="stop-color:#003B59"/>
	<stop  offset="1" style="stop-color:#018798"/>
</linearGradient>
<polygon class="st0" points="500,0.4 500,500.4 0,500.4 0,0.4 "/>
<g>
	<g>
		<ellipse class="st1" cx="249.1" cy="383.2" rx="167.8" ry="5.4"/>
		<g>
			
				<radialGradient id="SVGID_2_" cx="179.9207" cy="246.8346" r="129.8938" gradientTransform="matrix(1 0 0 -1 0 502)" gradientUnits="userSpaceOnUse">
				<stop  offset="0.4242" style="stop-color:#82B7DC"/>
				<stop  offset="0.5141" style="stop-color:#88BADD"/>
				<stop  offset="0.6384" style="stop-color:#9AC4E1"/>
				<stop  offset="0.7829" style="stop-color:#B8D3E6"/>
				<stop  offset="0.9414" style="stop-color:#E0E8EE"/>
				<stop  offset="1" style="stop-color:#F1F1F1"/>
			</radialGradient>
			<circle class="st2" cx="179.9" cy="255.2" r="129.9"/>
			<g>
				
					<radialGradient id="SVGID_3_" cx="175.1467" cy="251.7781" r="128.6702" gradientTransform="matrix(1 0 0 -1 0 502)" gradientUnits="userSpaceOnUse">
					<stop  offset="0" style="stop-color:#114084"/>
					<stop  offset="0.4014" style="stop-color:#134285"/>
					<stop  offset="0.5629" style="stop-color:#1A498B"/>
					<stop  offset="0.6812" style="stop-color:#255594"/>
					<stop  offset="0.7784" style="stop-color:#3667A1"/>
					<stop  offset="0.8627" style="stop-color:#4B7DB1"/>
					<stop  offset="0.9367" style="stop-color:#6599C6"/>
					<stop  offset="1" style="stop-color:#82B7DC"/>
				</radialGradient>
				<path class="st3" d="M291,229c-5.9,2.6-11.8,4.6-18.2,5.5c-1.6,0.2-3.3,0.4-4.9,0.5c-3.5,0.2-6.9,0.1-10.3-0.1
					c-0.3,0-0.8-0.2-1.1-0.2c-1.9-0.1-3.5-0.4-5.3-0.9c-5.1-1.1-9.8-2.4-14.9-2.7c-7.8-0.5-15.5,0.3-23.2,2.5
					c-0.3,0.1-0.6,0.3-1.1,0.4c-2,0.4-3.6,1.3-5.4,1.9c-0.1,0.1-0.3,0.2-0.4,0.3c-3.7,1.3-7,3.1-10.4,5.3c-3.7,2.4-7,4.7-10,7.7
					c-0.1,0.1-0.3,0.2-0.5,0.3c-1.9,1.7-3.5,3.5-5.2,5.3c3.1-2.2,6.6-3.8,10.2-5.2c4-1.6,8.2-2.7,12.5-3.4
					c5.9-0.9,11.4-0.8,17.3,0.3c4.5,0.9,8.6,2.2,12.7,3.8c7.4,3,14.6,6.4,22.3,8.8c6,1.7,12,2.9,18.2,3.4c7.1,0.3,13.9,0.2,21.2-1.2
					c5.5-1,10.5-2.4,15.5-4.4c0-0.7,0-1.3,0-2c0-12.2-1.7-23.9-4.8-35.1c-4.3,3.5-8.7,6.3-13.6,8.6C291.3,228.8,291.1,228.9,291,229
					z"/>
				
					<radialGradient id="SVGID_4_" cx="175.1467" cy="251.7781" r="128.6702" gradientTransform="matrix(1 0 0 -1 0 502)" gradientUnits="userSpaceOnUse">
					<stop  offset="0" style="stop-color:#114084"/>
					<stop  offset="0.4014" style="stop-color:#134285"/>
					<stop  offset="0.5629" style="stop-color:#1A498B"/>
					<stop  offset="0.6812" style="stop-color:#255594"/>
					<stop  offset="0.7784" style="stop-color:#3667A1"/>
					<stop  offset="0.8627" style="stop-color:#4B7DB1"/>
					<stop  offset="0.9367" style="stop-color:#6599C6"/>
					<stop  offset="1" style="stop-color:#82B7DC"/>
				</radialGradient>
				<path class="st4" d="M283.2,299.4c-8.9-3-16.5-8-23.4-14.6c-0.3-0.2-0.5-0.4-0.9-0.6c-5.4-5.2-10.3-10-16.8-14.4
					c-0.2-0.1-0.2-0.3-0.4-0.4c-3.9-2.6-7.5-4.8-11.5-6.8c-2.5-1.2-4.9-2.2-7.4-3.1c-0.2-0.1-0.4,0-0.6-0.1
					c-13.6-5-28.2-6.2-42.3-4.4c5.9,0.5,11.6,1.6,17.3,3.5c2.5,0.9,5,1.7,7.4,2.8c0.1,0.1,0.3,0.2,0.4,0.3c0.6,0.3,1.4,0.5,2.1,0.9
					c0.1,0.1,0.3,0.2,0.4,0.3c1.7,0.6,3.3,1.7,4.9,2.6c0.6,0.4,1.2,0.8,1.9,1.2c5.5,3.8,10.1,7.6,14.3,12.8c0.2,0.3,0.5,0.4,0.8,0.8
					c4.8,6,8,12.4,10.8,19.4c0.1,0.1,0.2,0.3,0.3,0.4c7.6,17.5,22.3,30.9,39.7,37.8c8.7-10.5,15.8-22.5,20.8-35.4
					c-1.8-0.1-3.6-0.2-5.4-0.4C291.3,301.6,287.2,300.7,283.2,299.4z"/>
				
					<radialGradient id="SVGID_5_" cx="175.1467" cy="251.7781" r="128.6702" gradientTransform="matrix(1 0 0 -1 0 502)" gradientUnits="userSpaceOnUse">
					<stop  offset="0" style="stop-color:#114084"/>
					<stop  offset="0.4014" style="stop-color:#134285"/>
					<stop  offset="0.5629" style="stop-color:#1A498B"/>
					<stop  offset="0.6812" style="stop-color:#255594"/>
					<stop  offset="0.7784" style="stop-color:#3667A1"/>
					<stop  offset="0.8627" style="stop-color:#4B7DB1"/>
					<stop  offset="0.9367" style="stop-color:#6599C6"/>
					<stop  offset="1" style="stop-color:#82B7DC"/>
				</radialGradient>
				<path class="st5" d="M260.5,162.1c-2.1,3.5-4.3,6.6-6.9,9.7c-0.8,0.8-1.4,1.5-2.1,2.3c-6.9,7.4-15.3,12.1-24.3,16.3
					c-0.8,0.4-1.6,0.8-2.4,1.3c-0.3,0.2-0.8,0.2-1.1,0.4c-2,1.3-3.9,2.1-5.9,3.5c-0.2,0.1-0.3,0.1-0.5,0.2
					c-10.1,6.5-17.9,14.1-24.4,24.3c-0.1,0.2-0.3,0.2-0.4,0.4c-1,1.6-1.9,3.1-2.8,4.8c-0.8,1.5-1.5,2.9-2.3,4.5
					c-0.2,0.4-0.2,0.8-0.4,1.2c-3.7,7.6-5.9,15.8-7.2,24c3.6-8.9,8.8-17,15.7-23.9c4.8-4.9,10.1-8.7,16.2-11.9
					c5.9-2.9,11.9-4.9,18.4-6c6-1,11.4-1.5,17.3-2.8c2.3-0.5,4.5-1.2,6.8-1.9c5.1-1.7,9.9-3.7,14.7-6.4c2-1.2,3.7-2.2,5.6-3.5
					c1.7-1.2,3.1-2.4,4.9-3.6c0.9-0.6,1.5-1.3,2.4-2c0.6-0.5,1.2-1.1,1.9-1.6c2.1-2,4-3.9,5.9-5.9c-7.1-11.2-15.9-21.2-26-29.7
					c-0.4,1-0.9,2-1.4,3C261.6,159.9,261.2,161,260.5,162.1z"/>
				
					<radialGradient id="SVGID_6_" cx="175.1467" cy="251.7781" r="128.6702" gradientTransform="matrix(1 0 0 -1 0 502)" gradientUnits="userSpaceOnUse">
					<stop  offset="0" style="stop-color:#114084"/>
					<stop  offset="0.4014" style="stop-color:#134285"/>
					<stop  offset="0.5629" style="stop-color:#1A498B"/>
					<stop  offset="0.6812" style="stop-color:#255594"/>
					<stop  offset="0.7784" style="stop-color:#3667A1"/>
					<stop  offset="0.8627" style="stop-color:#4B7DB1"/>
					<stop  offset="0.9367" style="stop-color:#6599C6"/>
					<stop  offset="1" style="stop-color:#82B7DC"/>
				</radialGradient>
				<path class="st6" d="M226,325.7c-1-6.5-1.1-12.6-2.6-19c-1.2-5.1-2.8-9.8-5.1-14.5c-3.1-6.3-6.9-12.2-11.8-17.4
					c-0.1-0.2-0.2-0.4-0.3-0.5c-2.7-2.8-5.2-5.4-8.4-7.8c-0.3-0.2-0.5-0.5-0.9-0.9c-5.5-4.3-11-7.7-17.1-10.5
					c2.7,2.4,5.3,4.8,7.7,7.6c0.1,0.1,0.3,0.2,0.4,0.3c4.4,5.1,7.8,10.4,10.3,16.5c0.2,0.6,0.5,1.2,0.8,1.9c2.2,5.9,3.5,12,3.8,18.3
					c0.2,5.2-0.2,10.3-0.9,15.7c-1.2,8.7-2,17.2-1.3,25.9c1,14,5.8,27.6,13.4,39.4c12.5-3.4,24.2-8.6,34.9-15.4
					C237.2,355.2,228.6,341.6,226,325.7z"/>
				
					<radialGradient id="SVGID_7_" cx="175.1467" cy="251.7781" r="128.6702" gradientTransform="matrix(1 0 0 -1 0 502)" gradientUnits="userSpaceOnUse">
					<stop  offset="0" style="stop-color:#114084"/>
					<stop  offset="0.4014" style="stop-color:#134285"/>
					<stop  offset="0.5629" style="stop-color:#1A498B"/>
					<stop  offset="0.6812" style="stop-color:#255594"/>
					<stop  offset="0.7784" style="stop-color:#3667A1"/>
					<stop  offset="0.8627" style="stop-color:#4B7DB1"/>
					<stop  offset="0.9367" style="stop-color:#6599C6"/>
					<stop  offset="1" style="stop-color:#82B7DC"/>
				</radialGradient>
				<path class="st7" d="M184.1,127.9c1.9,4,3,7.9,4,12.4c0,0.2,0,0.3,0,0.5c0.1,0.4,0.2,1,0.3,1.4c0.2,1.6,0.4,3.1,0.5,4.8
					c0.1,1.1,0,2.3,0,3.4c0.1,2,0,3.8-0.2,5.8c-0.1,0.3-0.2,0.6-0.2,1c-0.5,5.4-2.2,10.5-4.3,15.5c-2.7,7.1-6.1,13.8-8.3,21.2
					c-1.3,3.9-2.3,7.7-2.9,11.9c-0.3,2.5-0.6,5-0.9,7.5c-0.1,1.5-0.1,2.9-0.2,4.5c-0.2,12.8,2.6,25.7,7.9,37.3
					c-4.6-20.2-0.6-42.3,13.3-58.7c0.5-0.5,1-1.1,1.4-1.6c3.3-3.6,6.9-6.3,10.4-9.6c3.7-3.4,6.6-7,9.5-11.3c0.3-0.6,0.8-1.2,1.2-1.9
					c3.5-5.9,5.9-11.6,7.5-18.3c1.6-6.8,2.3-13.5,2-20.3c-13.2-4.9-27.4-7.7-42.3-8.1c0.3,0.6,0.7,1.3,1,2
					C184.1,127.5,184,127.7,184.1,127.9z"/>
				
					<radialGradient id="SVGID_8_" cx="175.1467" cy="251.7781" r="128.6702" gradientTransform="matrix(1 0 0 -1 0 502)" gradientUnits="userSpaceOnUse">
					<stop  offset="0" style="stop-color:#114084"/>
					<stop  offset="0.4014" style="stop-color:#134285"/>
					<stop  offset="0.5629" style="stop-color:#1A498B"/>
					<stop  offset="0.6812" style="stop-color:#255594"/>
					<stop  offset="0.7784" style="stop-color:#3667A1"/>
					<stop  offset="0.8627" style="stop-color:#4B7DB1"/>
					<stop  offset="0.9367" style="stop-color:#6599C6"/>
					<stop  offset="1" style="stop-color:#82B7DC"/>
				</radialGradient>
				<path class="st8" d="M171.1,364.9c-1-7.5,0.1-14.8,2.3-22c2.4-7.4,5.9-14,8.5-21.3c0.9-2.3,1.7-4.4,2.3-6.8
					c0.1-0.4,0.3-0.8,0.4-1.1c2.8-10.3,3.9-20.6,2.8-31.1c-1-9.7-3.5-18.9-7.5-27.7c1.5,7.3,2.2,14.7,1.4,22.1c0,0.4,0,0.8,0,1.2
					c-0.4,3-0.8,6-1.5,9c-0.6,2.6-1.4,5.1-2.3,7.6c-2,4.9-4,9.7-7.4,14c-0.1,0.2-0.1,0.3-0.2,0.5c-3.7,5-7.5,9-12.3,12.8
					c-0.5,0.5-1.1,1-1.6,1.4c-1.9,1.9-3.7,3.5-5.3,5.5c-0.1,0.1-0.3,0.2-0.4,0.3c-1.4,1.9-2.7,3.3-4,5.2c-0.1,0.2-0.1,0.3-0.2,0.5
					c-3.4,4.6-5.4,9.3-7.3,14.4c-2,5.3-3.4,10.7-3.7,16.3c0,0.4-0.2,0.8-0.2,1.2c-0.3,3.3-0.3,6.5-0.2,9.7
					c13.3,4.9,27.5,7.8,42.4,8.1c-3.1-6.1-5.1-12.4-5.9-19.2C171.1,365.5,171.1,365.3,171.1,364.9z"/>
				
					<radialGradient id="SVGID_9_" cx="175.1467" cy="251.7781" r="128.6702" gradientTransform="matrix(1 0 0 -1 0 502)" gradientUnits="userSpaceOnUse">
					<stop  offset="0" style="stop-color:#114084"/>
					<stop  offset="0.4014" style="stop-color:#134285"/>
					<stop  offset="0.5629" style="stop-color:#1A498B"/>
					<stop  offset="0.6812" style="stop-color:#255594"/>
					<stop  offset="0.7784" style="stop-color:#3667A1"/>
					<stop  offset="0.8627" style="stop-color:#4B7DB1"/>
					<stop  offset="0.9367" style="stop-color:#6599C6"/>
					<stop  offset="1" style="stop-color:#82B7DC"/>
				</radialGradient>
				<path class="st9" d="M130.1,171.3c0.4,1.3,1,2.6,1.4,3.9c0.4,1.5,0.9,3,1.3,4.6c1,4,1.4,7.9,1.9,12c0,0.3,0,0.8,0,1.1
					c0.1,1,0.2,1.9,0.3,2.8c1,7.3,2.7,14,5.8,20.7c0.3,0.6,0.6,1.4,1,2.1c1.4,2.6,2.6,5,4.4,7.5c0.1,0.2,0.1,0.3,0.2,0.5
					c2.2,3,4,5.8,6.5,8.4c0.1,0.1,0.2,0.3,0.3,0.5c1.5,1.6,2.9,3.1,4.6,4.7c1,0.9,1.7,1.6,2.7,2.5c2.5,2,4.7,3.9,7.4,5.5
					c0.2,0.1,0.2,0.3,0.4,0.4c3.4,2.1,6.4,4,9.9,5.6c0.3,0.2,0.8,0.4,1.1,0.6c0.2,0.1,0.4,0.1,0.6,0.2c-0.6-0.4-1.1-1-1.7-1.4
					c-0.1-0.1-0.2-0.3-0.3-0.4c-5.6-5-10.1-10.5-13.8-17.2c-0.6-1.2-1.3-2.4-1.9-3.6c-3.4-7.4-5.2-15.3-5.4-23.4
					c0-5.5,0.5-10.9,1.3-16.4c0-0.5,0.1-1.1,0.1-1.6c0-0.3,0.2-0.8,0.2-1.1c0.1-0.9,0.2-1.9,0.3-2.7c1.4-12.7,0.5-25.3-3.6-37.5
					c-0.1-0.2,0-0.4-0.1-0.6c-2.4-6.8-5.4-13.2-9.2-19.2c-12.5,3.4-24.2,8.6-34.9,15.3C119.2,152.1,126,161,130.1,171.3z"/>
				
					<radialGradient id="SVGID_10_" cx="175.1467" cy="251.7781" r="128.6702" gradientTransform="matrix(1 0 0 -1 0 502)" gradientUnits="userSpaceOnUse">
					<stop  offset="0" style="stop-color:#114084"/>
					<stop  offset="0.4014" style="stop-color:#134285"/>
					<stop  offset="0.5629" style="stop-color:#1A498B"/>
					<stop  offset="0.6812" style="stop-color:#255594"/>
					<stop  offset="0.7784" style="stop-color:#3667A1"/>
					<stop  offset="0.8627" style="stop-color:#4B7DB1"/>
					<stop  offset="0.9367" style="stop-color:#6599C6"/>
					<stop  offset="1" style="stop-color:#82B7DC"/>
				</radialGradient>
				<path class="st10" d="M99.5,347.4c3.3-5.4,7-10,11.5-14.4c4.3-3.9,8.7-7,13.7-9.7c4.8-2.5,9.4-4.6,14.1-7.2
					c3.5-2,6.5-3.9,9.7-6.4c3.4-2.7,6.3-5.3,9.3-8.4c0.5-0.6,1.1-1.2,1.6-1.7c11.2-12.8,17.9-28.3,20.4-44.7
					c-0.2,0.5-0.4,1.1-0.6,1.6c-0.5,0.9-0.8,1.7-1.2,2.6c-0.1,0.1-0.2,0.3-0.3,0.4c-1.7,3.6-3.6,6.8-6,10.1c-0.5,1-1.2,1.9-1.9,2.7
					c-0.2,0.3-0.5,0.4-0.8,0.8c-0.4,0.5-0.9,1.2-1.3,1.7c-0.5,0.5-1,1.1-1.4,1.6c-1,1.1-2,2-2.9,3c-0.9,0.9-1.9,1.6-2.7,2.5
					c-1.7,1.5-3.4,2.7-5.3,4.1c-3.5,2.4-6.9,4.4-10.7,6c-0.6,0.2-1.2,0.4-1.9,0.8c-0.2,0.1-0.3,0-0.5,0.1c-4.3,1.9-8.6,2.9-13.3,3.6
					c-8.9,1.4-17.4,2.5-25.8,5.4c-12.8,4.6-24.3,12.4-33.2,22.4c7.1,11.2,15.9,21.3,26,29.8c0.9-2,1.9-4,3-6
					C99.3,348.1,99.3,347.8,99.5,347.4z"/>
				
					<radialGradient id="SVGID_11_" cx="175.1467" cy="251.7781" r="128.6702" gradientTransform="matrix(1 0 0 -1 0 502)" gradientUnits="userSpaceOnUse">
					<stop  offset="0" style="stop-color:#114084"/>
					<stop  offset="0.4014" style="stop-color:#134285"/>
					<stop  offset="0.5629" style="stop-color:#1A498B"/>
					<stop  offset="0.6812" style="stop-color:#255594"/>
					<stop  offset="0.7784" style="stop-color:#3667A1"/>
					<stop  offset="0.8627" style="stop-color:#4B7DB1"/>
					<stop  offset="0.9367" style="stop-color:#6599C6"/>
					<stop  offset="1" style="stop-color:#82B7DC"/>
				</radialGradient>
				<path class="st11" d="M109.7,276.3c4.1,1,8,1.9,12.3,2.4c0.3,0,0.8,0,1.1,0c3.5,0.3,7,0.3,10.4,0c0.3,0,0.8,0,1.1,0
					c5.1-0.5,10-1.6,14.9-3.3c1.4-0.5,2.8-1,4.3-1.6c4.7-2.1,8.9-4.4,13.4-7.4c0.2-0.1,0.2-0.3,0.4-0.4c4.8-3.4,8.7-7,12.4-11
					c-0.3,0.2-0.6,0.3-1,0.5c-9.6,6-20.1,8.8-31,8.6c-8.9-0.2-17.5-2.9-25.6-6.8c-3.9-1.4-7.5-3.3-11.4-4.7
					c-4.1-1.5-8.2-2.7-12.6-3.7c-2.3-0.4-4.5-0.9-6.8-1.2c-2.5-0.3-5-0.5-7.5-0.6c-3.8-0.1-7.6-0.1-11.5,0.3
					c-5.8,0.5-11.3,1.7-16.9,3.4c-2,0.6-3.8,1.3-5.7,2c0,0.8,0,1.6,0,2.3c0,12.1,1.6,23.7,4.7,34.8c11.4-9.3,25-14.5,39.4-15.1
					C99.3,274.6,104.4,275,109.7,276.3z"/>
				
					<radialGradient id="SVGID_12_" cx="175.1467" cy="251.7781" r="128.6702" gradientTransform="matrix(1 0 0 -1 0 502)" gradientUnits="userSpaceOnUse">
					<stop  offset="0" style="stop-color:#114084"/>
					<stop  offset="0.4014" style="stop-color:#134285"/>
					<stop  offset="0.5629" style="stop-color:#1A498B"/>
					<stop  offset="0.6812" style="stop-color:#255594"/>
					<stop  offset="0.7784" style="stop-color:#3667A1"/>
					<stop  offset="0.8627" style="stop-color:#4B7DB1"/>
					<stop  offset="0.9367" style="stop-color:#6599C6"/>
					<stop  offset="1" style="stop-color:#82B7DC"/>
				</radialGradient>
				<path class="st12" d="M81.6,212.6c9.8,4.4,17.4,11.5,25.1,18.9c1.9,1.7,3.6,3.3,5.6,4.8c0.4,0.4,0.9,0.8,1.3,1.2
					c3.3,2.5,6.3,4.8,9.9,6.8c1,0.4,1.7,1,2.7,1.4c0.3,0.2,0.6,0.4,1,0.6c7,3.5,13.9,6.1,21.8,7.7c3.5,0.8,6.8,1.2,10.2,1.5
					c7,0.5,13.8,0.4,20.7-0.5c-4.6-0.4-8.9-1.1-13.4-2.4c-0.4-0.1-0.8-0.1-1.2-0.2c-7.4-2.3-14.1-5-20.7-9.7c-0.3-0.2-0.6-0.3-1-0.5
					c-7.7-5.5-13.5-11.6-18.3-19.7c-0.5-1-1-1.9-1.5-2.7c-0.5-1-0.9-1.9-1.3-2.8c-1.5-2.8-2.5-5.6-3.8-8.5c-0.3-0.6-0.6-1.3-1.1-2
					c-0.2-0.3-0.2-0.8-0.4-1.1c-2.4-4-4.5-7.7-7.6-11.2c-0.2-0.3-0.4-0.6-0.6-1c-2.2-2.3-4.1-4.5-6.4-6.6c-2.3-2.2-4.6-3.9-7.2-5.9
					c-5-3.6-10.1-6.3-15.5-8.5c-8.7,10.5-15.8,22.4-21,35.4c7.5,0.2,15,1.8,22.1,4.9C81.3,212.6,81.4,212.5,81.6,212.6z"/>
			</g>
		</g>
		<path class="st13" d="M275,322.1c0,0-17.8,8.1-17.1,24.9c0.7,16.8,9.1,34.7,28.9,34c19.8-0.7,60,0.1,70.3,0.4
			c10.3,0.3,21.8-1.7,31-21c9.1-19.2,10-50.5,2.9-63.2c-7.1-12.7-75.1,10-75.1,10L275,322.1z"/>
		<path class="st14" d="M393.4,343.5c0,0-14.8,24.9-40.9,24.9c-26.2,0-53.2,0-68,0c-14.8,0-24.2-13-25-27.8c0,0-3.3,15.9,4.5,27.9
			c7.8,12,14.8,13.2,39.8,12.6c25-0.6,44.7-0.9,56-0.7c11.3,0.1,19.5-4.1,24.7-13.2c5.2-9.1,9-24.7,9-24.7"/>
		<path class="st15" d="M396.8,288.9l-1.4,9.8l-16.4,5.5c0,0-24.5,2.4-23.9,2.3c0.6-0.1-13-6.2-20.6-7.1c-7.5-0.9-35,3.9-35,3.9
			s2.2-5.2,4.1-8.4c1.9-3.2-1-8.5,6.9-6.6s49.2,7.7,49.6,7.5S396.8,288.9,396.8,288.9"/>
		<path class="st13" d="M281.3,318.5l-5.5-16.7c0,0,50.4-6.6,62.2-2.7c11.7,3.9,20.1,6.4,22.6,14.8c2.4,8.4-6.4,22-14.5,23.7
			c-8.1,1.7-53.5-8.3-54.3-8.5c-0.7-0.3-19.1-8.8-19.1-8.8"/>
		<path class="st14" d="M279.1,320.5c0,0,42.4,15.5,78,6.8c0,0-5.5,21-31.1,19.2c-25.6-1.7-49.8-13.7-49.8-13.7L279.1,320.5z"/>
		<g>
			<path class="st16" d="M424.8,247.3c0.4-2.2,0.6-4.3,0.9-6.3c0,0,0,0,0-0.1c0-0.1,0-0.3,0.1-0.4c0-0.1,0-0.1,0-0.1
				c0-0.1,0-0.2,0-0.3c0-0.1,0-0.1,0-0.2c0-0.1,0-0.2,0-0.2c0-0.1,0-0.2,0-0.3c0-0.1,0-0.1,0-0.1c0.7-8,0.5-14.1,0.5-14.2l0,0l0,0
				c0-0.3-0.1-0.6-0.1-0.9c0-0.1,0-0.1,0-0.2c0-0.2,0-0.5-0.1-0.7c0-0.1,0-0.2,0-0.3c0-0.2-0.1-0.4-0.1-0.7c0-0.1,0-0.2,0-0.3
				c0-0.2-0.1-0.4-0.1-0.6c0-0.1,0-0.2,0-0.3c0-0.2-0.1-0.4-0.1-0.6c0-0.1,0-0.2,0-0.3c0-0.2-0.1-0.4-0.1-0.6c0-0.1,0-0.2,0-0.3
				c0-0.2-0.1-0.4-0.1-0.6c0-0.1,0-0.2,0-0.3v0c4.3-8,7.7-17.2,9.8-27.2c0.3-1.4,0.6-2.9,0.8-4.3c1.5-8.9,2.1-16.9,1.3-25.1
				c-0.2-2-0.7-5.3-1.3-7.5c-0.6-2.2-1.6-4.2-2.8-6.1c-0.4-0.7-1-1.3-1.6-1.9c-0.1-0.1-0.2-0.1-0.2-0.2c-0.9-0.8-2-1.3-3.1-1.7
				c-0.6-0.2-1.3-0.3-1.9-0.5c-1.3-0.3-2.5-0.4-3.7-0.5l0,0c-3.4-0.2-7.8,0.9-9.8,1.4c-5.4,1.7-16.7,5.9-23.7,10.4
				c-0.1,0-0.1,0.1-0.1,0.1l0,0c0,0-0.1-0.1-0.1-0.1c-0.2-0.1-0.4-0.3-0.6-0.4c-0.1-0.1-0.1-0.1-0.2-0.1c-0.2-0.2-0.4-0.3-0.6-0.5
				c-0.1,0-0.1-0.1-0.1-0.1c-0.2-0.1-0.4-0.3-0.6-0.4c-0.1,0-0.1-0.1-0.1-0.1c-0.2-0.2-0.4-0.3-0.6-0.5c-0.1,0-0.1-0.1-0.1-0.1
				c-0.2-0.1-0.4-0.3-0.6-0.4c0,0-0.1-0.1-0.1-0.1c-0.2-0.2-0.5-0.3-0.7-0.5c-0.1,0-0.1-0.1-0.2-0.1c-0.2-0.1-0.5-0.3-0.7-0.4
				c0,0,0,0,0,0c-0.2-0.2-0.5-0.3-0.7-0.4c-0.1,0-0.1-0.1-0.2-0.1c-0.2-0.1-0.5-0.3-0.7-0.4c0,0-0.1,0-0.1-0.1
				c-0.2-0.1-0.4-0.3-0.6-0.4c-0.1,0-0.1-0.1-0.2-0.1c-0.2-0.1-0.5-0.3-0.7-0.4c-0.1,0-0.1-0.1-0.1-0.1c-0.2-0.1-0.4-0.2-0.6-0.4
				c-0.1,0-0.1-0.1-0.1-0.1c-0.2-0.1-0.5-0.3-0.7-0.4c-0.1,0-0.1-0.1-0.2-0.1c-0.2-0.1-0.4-0.2-0.6-0.3c0,0-0.1,0-0.1-0.1
				c-0.2-0.1-0.5-0.3-0.7-0.4c-0.1,0-0.1-0.1-0.2-0.1c-0.2-0.1-0.5-0.3-0.7-0.4c0,0,0,0,0,0c-0.2-0.1-0.5-0.2-0.7-0.4
				c-0.1,0-0.1-0.1-0.2-0.1c-0.2-0.1-0.5-0.2-0.7-0.3c0,0-0.1,0-0.1-0.1c-0.2-0.1-0.4-0.2-0.6-0.3c-0.1,0-0.1-0.1-0.2-0.1
				c-0.2-0.1-0.5-0.2-0.7-0.3c-0.1,0-0.1-0.1-0.2-0.1c-0.2-0.1-0.4-0.2-0.6-0.3c-0.1,0-0.1-0.1-0.2-0.1c-0.2-0.1-0.5-0.2-0.7-0.3
				l-0.2-0.1c-0.2-0.1-0.5-0.2-0.7-0.3c0,0-0.1,0-0.1-0.1c-0.2-0.1-0.5-0.2-0.8-0.3c-0.1,0-0.1-0.1-0.2-0.1
				c-0.2-0.1-0.5-0.2-0.8-0.3c0,0-0.1,0-0.1,0c-0.2-0.1-0.5-0.2-0.7-0.3c-0.1,0-0.1-0.1-0.2-0.1c-0.2-0.1-0.5-0.2-0.8-0.3
				c-0.1,0-0.1,0-0.2-0.1c-0.2-0.1-0.4-0.2-0.6-0.2c-0.1,0-0.1-0.1-0.2-0.1c-0.2-0.1-0.5-0.2-0.8-0.3c-0.1,0-0.1-0.1-0.2-0.1
				c-0.2-0.1-0.4-0.2-0.6-0.2c-0.1,0-0.1,0-0.2-0.1c-0.2-0.1-0.5-0.2-0.8-0.2c-0.1,0-0.1-0.1-0.2-0.1c-0.2-0.1-0.5-0.2-0.7-0.2
				c0,0-0.1,0-0.1,0c-0.3-0.1-0.5-0.2-0.8-0.2c-0.1,0-0.2-0.1-0.2-0.1c-0.3-0.1-0.5-0.2-0.8-0.2c-0.1,0-0.1,0-0.1,0
				c-0.2-0.1-0.5-0.1-0.7-0.2c-0.1,0-0.1,0-0.2-0.1c-0.3-0.1-0.5-0.1-0.8-0.2c-0.1,0-0.1,0-0.2-0.1c-0.2-0.1-0.5-0.1-0.7-0.2
				c-0.1,0-0.1,0-0.2-0.1c-0.3-0.1-0.5-0.1-0.8-0.2c-0.1,0-0.1,0-0.2-0.1c-0.2-0.1-0.5-0.1-0.7-0.2c-0.1,0-0.1,0-0.1,0
				c-0.3-0.1-0.5-0.1-0.8-0.2c-0.1,0-0.1,0-0.2-0.1c-0.3-0.1-0.6-0.1-0.8-0.2c-0.1,0-0.1,0-0.2,0l0,0c-0.1,0-0.1,0-0.2-0.1
				c-0.3-0.1-0.6-0.1-0.9-0.2c-0.1,0-0.1,0-0.2,0c-0.3-0.1-0.6-0.1-0.8-0.2c-0.1,0-0.1,0-0.1,0c-0.2-0.1-0.5-0.1-0.7-0.1
				c-0.1,0-0.1,0-0.2,0c-0.3-0.1-0.5-0.1-0.8-0.1c-0.1,0-0.1,0-0.2,0c-0.2,0-0.5-0.1-0.7-0.1c-0.1,0-0.1,0-0.2,0
				c-0.3,0-0.5-0.1-0.8-0.1c-0.1,0-0.1,0-0.2,0c-0.2,0-0.5-0.1-0.7-0.1c-0.1,0-0.1,0-0.1,0c-0.3,0-0.5-0.1-0.8-0.1
				c-0.1,0-0.2,0-0.2,0c-0.3,0-0.5-0.1-0.8-0.1c0,0-0.1,0-0.1,0c-0.2,0-0.5-0.1-0.8-0.1c-0.1,0-0.2,0-0.2,0c-0.3,0-0.5-0.1-0.8-0.1
				c-0.1,0-0.1,0-0.2,0c-0.2,0-0.5,0-0.7-0.1c-0.1,0-0.1,0-0.2,0c-0.3,0-0.5,0-0.8-0.1c-0.1,0-0.1,0-0.2,0c-0.2,0-0.5,0-0.7,0
				c-0.1,0-0.1,0-0.2,0c-0.3,0-0.5,0-0.8,0c-0.1,0-0.2,0-0.2,0c-0.2,0-0.5,0-0.8,0c0,0-0.1,0-0.1,0c-0.3,0-0.5,0-0.8,0
				c-0.1,0-0.2,0-0.2,0c-0.3,0-0.5,0-0.8,0c0,0-0.1,0-0.1,0c-0.2,0-0.5,0-0.7,0h-0.2c-0.3,0-0.5,0-0.8,0c-0.1,0-0.1,0-0.2,0
				c-0.2,0-0.5,0-0.7,0c-0.1,0-0.1,0-0.2,0c-0.3,0-0.5,0-0.8,0c-0.1,0-0.1,0-0.2,0c-0.2,0-0.5,0-0.7,0c-0.1,0-0.1,0-0.1,0
				c-0.3,0-0.5,0-0.8,0.1c-0.1,0-0.1,0-0.2,0c-0.3,0-0.5,0-0.8,0.1c0,0,0,0,0,0c-0.3,0-0.5,0-0.8,0.1c-0.1,0-0.1,0-0.2,0
				c-0.3,0-0.5,0.1-0.8,0.1c0,0-0.1,0-0.1,0c-0.2,0-0.5,0.1-0.8,0.1c-0.1,0-0.1,0-0.2,0c-0.3,0-0.5,0.1-0.8,0.1c-0.1,0-0.1,0-0.2,0
				c-0.2,0-0.5,0.1-0.7,0.1c-0.1,0-0.1,0-0.1,0c-0.3,0-0.5,0.1-0.8,0.1c-0.1,0-0.1,0-0.2,0c-0.2,0-0.5,0.1-0.8,0.1c0,0-0.1,0-0.1,0
				c-0.3,0-0.5,0.1-0.8,0.1c-0.1,0-0.1,0-0.2,0c-0.3,0.1-0.5,0.1-0.8,0.1h0c-0.3,0.1-0.5,0.1-0.8,0.1c-0.1,0-0.1,0-0.2,0
				c-0.3,0.1-0.5,0.1-0.8,0.1c-0.1,0-0.1,0-0.1,0c-0.2,0.1-0.5,0.1-0.7,0.1c-0.1,0-0.1,0-0.2,0c-0.3,0.1-0.5,0.1-0.8,0.2
				c-0.1,0-0.1,0-0.2,0c-0.2,0.1-0.5,0.1-0.7,0.1c-0.1,0-0.1,0-0.2,0c-0.3,0.1-0.5,0.1-0.8,0.2c-0.1,0-0.1,0-0.2,0.1
				c-0.2,0.1-0.5,0.1-0.7,0.2c0,0-0.1,0-0.1,0l0,0c0-0.1-0.1-0.1-0.1-0.1c-4.7-6.9-13.4-15.3-17.6-18.9c-1.6-1.3-5.3-4-8.4-5.2l0,0
				c-1.2-0.4-2.4-0.8-3.6-1c-0.6-0.1-1.3-0.2-1.9-0.3c-1.2-0.2-2.4-0.1-3.6,0.3c-0.1,0-0.2,0.1-0.3,0.1c-0.8,0.3-1.5,0.6-2.2,1.1
				c-1.9,1.3-3.5,2.8-4.9,4.5c-1.5,1.8-3.2,4.6-4.2,6.4c-4,7.1-6.6,14.8-8.8,23.5c-0.3,1.4-0.7,2.8-1,4.3c-2.1,10-2.6,19.7-1.8,28.9
				c0,0,0,0,0,0c-0.1,0.1-0.1,0.2-0.1,0.2c-0.1,0.2-0.2,0.4-0.3,0.6c-0.1,0.1-0.1,0.2-0.2,0.3c-0.1,0.2-0.2,0.3-0.3,0.5
				c-0.1,0.1-0.1,0.2-0.2,0.3c-0.1,0.2-0.2,0.3-0.3,0.5c-0.1,0.1-0.1,0.2-0.2,0.3c-0.1,0.2-0.2,0.4-0.3,0.6
				c-0.1,0.1-0.1,0.2-0.1,0.2c-0.1,0.2-0.2,0.4-0.3,0.6c-0.1,0.1-0.1,0.2-0.1,0.2c-0.1,0.2-0.2,0.4-0.3,0.6c0,0.1-0.1,0.1-0.1,0.2
				c-0.1,0.3-0.3,0.6-0.4,0.8l0,0l0,0c-0.1,0.1-2.7,5.6-5.2,13.3c0,0,0,0.1,0,0.1c0,0.1-0.1,0.2-0.1,0.3c0,0.1-0.1,0.2-0.1,0.2
				c0,0.1-0.1,0.1-0.1,0.2c0,0.1-0.1,0.2-0.1,0.3c0,0,0,0.1,0,0.1c-0.1,0.1-0.1,0.3-0.1,0.4c0,0,0,0,0,0.1c-0.6,1.9-1.2,4-1.7,6.1
				c-0.3,1.3-0.6,2.5-0.8,3.8c0,0.2-0.1,0.3-0.1,0.5c-0.1,0.6-0.2,1.3-0.3,1.9c-0.4,3-0.5,6.1-0.4,9.1c0.1,2.2,0.2,4.3,0.4,6.5
				c0,0.4,0.1,0.8,0.1,1.2c0,0.1,0,0.2,0,0.3l0,0l0,0v0l0,0v0l0,0c0,0.1,0,0.1,0.1,0.2l0,0c0,0.1,0,0.2,0.1,0.3l0,0c0,0,0,0.1,0,0.1
				l0,0c0,0.1,0.1,0.2,0.1,0.4l0,0c0,0.1,0,0.1,0,0.1l0,0c0,0.1,0.1,0.2,0.1,0.3l0,0c0,0.1,0,0.1,0,0.2c0,0,0,0,0,0
				c0.1,0.2,0.1,0.4,0.1,0.6l0,0c0,0.1,0,0.1,0.1,0.2c0,0,0,0,0,0c0.1,0.2,0.1,0.4,0.2,0.6c0,0,0,0,0,0c0,0.1,0,0.1,0.1,0.2l0,0
				c0.1,0.2,0.1,0.5,0.2,0.8c0,0,0,0,0,0c0,0.1,0.1,0.2,0.1,0.2l0,0c0.1,0.3,0.2,0.5,0.2,0.8c0,0,0,0,0,0c0.1,0.3,0.2,0.6,0.3,0.9
				l0,0c0,0.1,0.1,0.2,0.1,0.3c0,0,0,0,0,0c0.1,0.3,0.2,0.6,0.3,0.9l0,0c0,0.1,0.1,0.2,0.1,0.3l0,0c0.1,0.3,0.2,0.7,0.4,1l0,0
				c0.2,0.5,0.4,0.9,0.6,1.4l0,0c0.8,1.8,1.7,3.8,2.8,5.9l0,0c0.2,0.4,0.5,0.9,0.7,1.3l0,0c0.2,0.3,0.4,0.6,0.6,1c0,0,0,0,0,0
				c0.2,0.3,0.4,0.6,0.6,0.9l0,0c0.1,0.2,0.2,0.3,0.3,0.5l0,0c0.1,0.2,0.2,0.3,0.3,0.5c0,0,0,0,0,0.1c0.1,0.1,0.2,0.3,0.3,0.4
				c0,0,0,0,0,0.1c0.1,0.2,0.2,0.3,0.3,0.5c0,0,0,0,0,0.1c0.1,0.1,0.2,0.3,0.3,0.4c0,0,0,0.1,0.1,0.1c0.1,0.2,0.2,0.3,0.3,0.5
				c0,0,0,0,0,0.1c0.1,0.1,0.2,0.3,0.3,0.4c0,0,0.1,0.1,0.1,0.1c0.1,0.2,0.2,0.3,0.3,0.5l0,0c0.1,0.1,0.2,0.3,0.3,0.4
				c0,0,0.1,0.1,0.1,0.1c0.1,0.2,0.2,0.3,0.3,0.5l0,0c0.1,0.1,0.2,0.3,0.3,0.4c0,0,0.1,0.1,0.1,0.1c0.1,0.1,0.2,0.3,0.3,0.4
				c0,0,0,0,0,0c0.1,0.1,0.2,0.3,0.4,0.4c0,0,0.1,0.1,0.1,0.1c0.1,0.1,0.2,0.3,0.3,0.4c0,0,0,0,0.1,0.1c0.1,0.1,0.2,0.3,0.4,0.4
				c0,0,0.1,0.1,0.1,0.1c0.1,0.1,0.2,0.2,0.3,0.3c0,0,0.1,0.1,0.1,0.1c0.1,0.1,0.3,0.3,0.4,0.4c0,0,0.1,0.1,0.1,0.1
				c0.1,0.1,0.2,0.2,0.3,0.3c0,0,0.1,0.1,0.1,0.1c0.1,0.1,0.3,0.3,0.4,0.4c0,0,0.1,0.1,0.1,0.1c0.1,0.1,0.2,0.2,0.3,0.3
				c0,0,0.1,0.1,0.1,0.1c0.1,0.1,0.3,0.3,0.4,0.4c0,0,0.1,0.1,0.1,0.1c0.1,0.1,0.2,0.2,0.3,0.3c0.1,0,0.1,0.1,0.1,0.1
				c0.1,0.1,0.3,0.3,0.4,0.4c0,0,0.1,0.1,0.1,0.1c0.1,0.1,0.2,0.2,0.4,0.3c0.1,0,0.1,0.1,0.1,0.1c0.2,0.1,0.3,0.3,0.5,0.4
				c0,0,0,0,0.1,0.1c0.1,0.1,0.3,0.2,0.4,0.4c0.1,0,0.1,0.1,0.1,0.1c0.2,0.1,0.3,0.3,0.5,0.4l0,0c7.9,6.2,17,11.6,27,15.8
				c0.3,0.1,0.6,0.3,0.9,0.4c0.6,0.3,1.2,0.5,1.9,0.8c3.1,1.2,6.3,2.4,9.5,3.4c0.6,0.2,1.3,0.4,2,0.6c0.3,0.1,0.6,0.2,1,0.3
				c0.7,0.2,1.3,0.4,2,0.6c0.3,0.1,0.7,0.2,1,0.3c4,1.1,8.1,2.1,12.3,2.9c0.2,0,0.4,0.1,0.6,0.1l0,0c0.2,0.1,0.4,0.1,0.6,0.1
				c4.2,0.9,8.3,1.6,12.5,2.2c0.3,0.1,0.7,0.1,1,0.1c0.7,0.1,1.4,0.2,2,0.2c0.3,0,0.7,0.1,1,0.1c0.7,0.1,1.4,0.1,2,0.2
				c3.4,0.3,6.8,0.5,10.1,0.6c0.7,0,1.3,0,2,0c0.3,0,0.7,0,1,0c10.9,0.1,21.4-1.2,31.1-3.8l0,0c0.2-0.1,0.4-0.1,0.6-0.2
				c0.1,0,0.1,0,0.2-0.1c0.2-0.1,0.3-0.1,0.5-0.2c0,0,0.1,0,0.1,0c0.2-0.1,0.4-0.1,0.6-0.2c0.1,0,0.1,0,0.2-0.1
				c0.2-0.1,0.3-0.1,0.5-0.2c0,0,0.1,0,0.1,0c0.2-0.1,0.4-0.1,0.6-0.2c0.1,0,0.1,0,0.2-0.1c0.2-0.1,0.3-0.1,0.5-0.2
				c0.1,0,0.1,0,0.1-0.1c0.2-0.1,0.4-0.1,0.5-0.2c0.1,0,0.1,0,0.1-0.1c0.2-0.1,0.3-0.1,0.4-0.2c0.1,0,0.1,0,0.1-0.1
				c0.2-0.1,0.3-0.1,0.5-0.2c0.1,0,0.1,0,0.1-0.1c0.1-0.1,0.3-0.1,0.4-0.2c0.1,0,0.1-0.1,0.1-0.1c0.2-0.1,0.3-0.2,0.5-0.2
				c0,0,0.1,0,0.1-0.1c0.1-0.1,0.3-0.1,0.4-0.2c0.1,0,0.1-0.1,0.1-0.1c0.2-0.1,0.3-0.2,0.5-0.2c0,0,0.1,0,0.1,0
				c0.2-0.1,0.3-0.1,0.5-0.2c0.1,0,0.1-0.1,0.1-0.1c0.2-0.1,0.3-0.2,0.5-0.3h0c0.2-0.1,0.3-0.2,0.5-0.2c0.1,0,0.1-0.1,0.1-0.1
				c0.2-0.1,0.3-0.2,0.5-0.3l0,0c0.2-0.1,0.3-0.2,0.5-0.3c0,0,0.1-0.1,0.1-0.1c0.2-0.1,0.3-0.2,0.5-0.3l0,0c0.2-0.1,0.3-0.2,0.5-0.3
				c0,0,0.1,0,0.1-0.1c0.2-0.1,0.3-0.2,0.4-0.3c0,0,0,0,0.1,0c0.2-0.1,0.3-0.2,0.5-0.3c0,0,0.1,0,0.1-0.1c0.1-0.1,0.3-0.2,0.4-0.3
				c0,0,0,0,0.1,0c0.2-0.1,0.3-0.2,0.5-0.3c0,0,0,0,0.1,0c0.2-0.1,0.3-0.2,0.4-0.3c0,0,0,0,0.1,0c0.2-0.1,0.3-0.2,0.5-0.3l0,0
				c0.2-0.1,0.3-0.2,0.5-0.3l0,0c0.3-0.2,0.6-0.4,0.9-0.6c0,0,0,0,0,0c0.3-0.2,0.6-0.4,0.9-0.6l0,0c0.4-0.3,0.8-0.6,1.2-0.9l0,0
				c1.9-1.5,3.5-2.9,4.9-4.3l0,0c0.4-0.4,0.7-0.7,1.1-1.1l0,0c0.3-0.3,0.5-0.5,0.8-0.8l0,0c0.1-0.1,0.2-0.2,0.2-0.2l0,0
				c0.2-0.2,0.5-0.5,0.7-0.8l0,0c0.1-0.1,0.1-0.2,0.2-0.2l0,0c0.2-0.2,0.4-0.5,0.6-0.7c0,0,0,0,0,0c0.2-0.2,0.4-0.5,0.6-0.7l0,0
				c0.1-0.1,0.1-0.1,0.2-0.2c0,0,0,0,0,0c0.2-0.2,0.3-0.4,0.5-0.6l0,0c0.1-0.1,0.1-0.1,0.1-0.2l0,0c0.1-0.2,0.3-0.4,0.4-0.5l0,0
				c0.1-0.1,0.1-0.1,0.1-0.2l0,0c0.1-0.2,0.2-0.3,0.3-0.5l0,0c0-0.1,0.1-0.1,0.1-0.1l0,0c0.1-0.1,0.1-0.2,0.2-0.3l0,0
				c0-0.1,0.1-0.1,0.1-0.1l0,0c0.1-0.1,0.2-0.2,0.2-0.3l0,0c0,0,0.1-0.1,0.1-0.1l0,0c0.1-0.1,0.1-0.2,0.2-0.2l0,0
				c0.1-0.1,0.1-0.2,0.1-0.2l0,0c0,0,0,0,0,0l0,0c0,0,0,0,0,0l0,0l0,0c0.1-0.1,0.1-0.2,0.1-0.2c0.2-0.3,0.4-0.7,0.6-1
				c1-1.9,2-3.8,2.9-5.8c1.3-2.8,2.4-5.6,3.2-8.6c0.2-0.6,0.3-1.2,0.5-1.9c0.1-0.2,0.1-0.3,0.1-0.5
				C424.3,249.8,424.6,248.5,424.8,247.3z"/>
			<path class="st17" d="M325.1,279.1L325.1,279.1c-62.7-14.8-77.4-44.9-79.9-64.4c-0.1,0.6-0.2,1.3-0.3,1.9c-0.4,3-0.5,6.1-0.4,9.1
				c0.1,2.2,0.2,4.3,0.4,6.5c0,0.4,0.1,0.8,0.1,1.2c0,0.1,0,0.2,0,0.3l0,0l0,0v0l0,0v0l0,0c0,0.1,0,0.1,0.1,0.2l0,0
				c0,0.1,0,0.2,0.1,0.3l0,0c0,0,0,0.1,0,0.1l0,0c0,0.1,0.1,0.2,0.1,0.4l0,0c0,0.1,0,0.1,0,0.1l0,0c0,0.1,0.1,0.2,0.1,0.3l0,0
				c0,0.1,0,0.1,0,0.2c0,0,0,0,0,0c0.1,0.2,0.1,0.4,0.1,0.6l0,0c0,0.1,0,0.1,0.1,0.2c0,0,0,0,0,0c0.1,0.2,0.1,0.4,0.2,0.6
				c0,0,0,0,0,0c0,0.1,0,0.1,0.1,0.2l0,0c0.1,0.2,0.1,0.5,0.2,0.8c0,0,0,0,0,0c0,0.1,0.1,0.2,0.1,0.2l0,0c0.1,0.3,0.2,0.5,0.2,0.8
				c0,0,0,0,0,0c0.1,0.3,0.2,0.6,0.3,0.9l0,0c0,0.1,0.1,0.2,0.1,0.3c0,0,0,0,0,0c0.1,0.3,0.2,0.6,0.3,0.9l0,0c0,0.1,0.1,0.2,0.1,0.3
				l0,0c0.1,0.3,0.2,0.7,0.4,1l0,0c0.2,0.5,0.4,0.9,0.6,1.4l0,0c0.8,1.8,1.7,3.8,2.8,5.9l0,0c0.2,0.4,0.5,0.9,0.7,1.3l0,0
				c0.2,0.3,0.4,0.6,0.6,1c0,0,0,0,0,0c0.2,0.3,0.4,0.6,0.6,0.9l0,0c0.1,0.2,0.2,0.3,0.3,0.5l0,0c0.1,0.2,0.2,0.3,0.3,0.5
				c0,0,0,0,0,0.1c0.1,0.1,0.2,0.3,0.3,0.4c0,0,0,0,0,0.1c0.1,0.2,0.2,0.3,0.3,0.5c0,0,0,0,0,0.1c0.1,0.1,0.2,0.3,0.3,0.4
				c0,0,0,0.1,0.1,0.1c0.1,0.2,0.2,0.3,0.3,0.5c0,0,0,0,0,0.1c0.1,0.1,0.2,0.3,0.3,0.4c0,0,0.1,0.1,0.1,0.1c0.1,0.2,0.2,0.3,0.3,0.5
				l0,0c0.1,0.1,0.2,0.3,0.3,0.4c0,0,0.1,0.1,0.1,0.1c0.1,0.2,0.2,0.3,0.3,0.5l0,0c0.1,0.1,0.2,0.3,0.3,0.4c0,0,0.1,0.1,0.1,0.1
				c0.1,0.1,0.2,0.3,0.3,0.4c0,0,0,0,0,0c0.1,0.1,0.2,0.3,0.4,0.4c0,0,0.1,0.1,0.1,0.1c0.1,0.1,0.2,0.3,0.3,0.4c0,0,0,0,0.1,0.1
				c0.1,0.1,0.2,0.3,0.4,0.4c0,0,0.1,0.1,0.1,0.1c0.1,0.1,0.2,0.2,0.3,0.3c0,0,0.1,0.1,0.1,0.1c0.1,0.1,0.3,0.3,0.4,0.4
				c0,0,0.1,0.1,0.1,0.1c0.1,0.1,0.2,0.2,0.3,0.3c0,0,0.1,0.1,0.1,0.1c0.1,0.1,0.3,0.3,0.4,0.4c0,0,0.1,0.1,0.1,0.1
				c0.1,0.1,0.2,0.2,0.3,0.3c0,0,0.1,0.1,0.1,0.1c0.1,0.1,0.3,0.3,0.4,0.4c0,0,0.1,0.1,0.1,0.1c0.1,0.1,0.2,0.2,0.3,0.3
				c0.1,0,0.1,0.1,0.1,0.1c0.1,0.1,0.3,0.3,0.4,0.4c0,0,0.1,0.1,0.1,0.1c0.1,0.1,0.2,0.2,0.4,0.3c0.1,0,0.1,0.1,0.1,0.1
				c0.2,0.1,0.3,0.3,0.5,0.4c0,0,0,0,0.1,0.1c0.1,0.1,0.3,0.2,0.4,0.4c0.1,0,0.1,0.1,0.1,0.1c0.2,0.1,0.3,0.3,0.5,0.4l0,0
				c7.9,6.2,17,11.6,27,15.8c0.3,0.1,0.6,0.3,0.9,0.4c0.6,0.3,1.2,0.5,1.9,0.8c3.1,1.2,6.3,2.4,9.5,3.4c0.6,0.2,1.3,0.4,2,0.6
				c0.3,0.1,0.6,0.2,1,0.3c0.7,0.2,1.3,0.4,2,0.6c0.3,0.1,0.7,0.2,1,0.3c4,1.1,8.1,2.1,12.3,2.9c0.2,0,0.4,0.1,0.6,0.1l0,0
				c0.2,0.1,0.4,0.1,0.6,0.1c4.2,0.9,8.3,1.6,12.5,2.2c0.3,0.1,0.7,0.1,1,0.1c0.7,0.1,1.4,0.2,2,0.2c0.3,0,0.7,0.1,1,0.1
				c0.7,0.1,1.4,0.1,2,0.2c3.4,0.3,6.8,0.5,10.1,0.6c0.7,0,1.3,0,2,0c0.3,0,0.7,0,1,0c10.9,0.1,21.4-1.2,31.1-3.8l0,0
				c0.2-0.1,0.4-0.1,0.6-0.2c0.1,0,0.1,0,0.2-0.1c0.2-0.1,0.3-0.1,0.5-0.2c0,0,0.1,0,0.1,0c0.2-0.1,0.4-0.1,0.6-0.2
				c0.1,0,0.1,0,0.2-0.1c0.2-0.1,0.3-0.1,0.5-0.2c0,0,0.1,0,0.1,0c0.2-0.1,0.4-0.1,0.6-0.2c0.1,0,0.1,0,0.2-0.1
				c0.2-0.1,0.3-0.1,0.5-0.2c0.1,0,0.1,0,0.1-0.1c0.2-0.1,0.4-0.1,0.5-0.2c0.1,0,0.1,0,0.1-0.1c0.2-0.1,0.3-0.1,0.4-0.2
				c0.1,0,0.1,0,0.1-0.1c0.2-0.1,0.3-0.1,0.5-0.2c0.1,0,0.1,0,0.1-0.1c0.1-0.1,0.3-0.1,0.4-0.2c0.1,0,0.1-0.1,0.1-0.1
				c0.2-0.1,0.3-0.2,0.5-0.2c0,0,0.1,0,0.1-0.1c0.1-0.1,0.3-0.1,0.4-0.2c0.1,0,0.1-0.1,0.1-0.1c0.2-0.1,0.3-0.2,0.5-0.2
				c0,0,0.1,0,0.1,0c0.2-0.1,0.3-0.1,0.5-0.2c0.1,0,0.1-0.1,0.1-0.1c0.2-0.1,0.3-0.2,0.5-0.3h0c0.2-0.1,0.3-0.2,0.5-0.2
				c0.1,0,0.1-0.1,0.1-0.1c0.2-0.1,0.3-0.2,0.5-0.3l0,0c0.2-0.1,0.3-0.2,0.5-0.3c0,0,0.1-0.1,0.1-0.1c0.2-0.1,0.3-0.2,0.5-0.3l0,0
				c0.2-0.1,0.3-0.2,0.5-0.3c0,0,0.1,0,0.1-0.1c0.2-0.1,0.3-0.2,0.4-0.3c0,0,0,0,0.1,0c0.2-0.1,0.3-0.2,0.5-0.3c0,0,0.1,0,0.1-0.1
				c0.1-0.1,0.3-0.2,0.4-0.3c0,0,0,0,0.1,0c0.2-0.1,0.3-0.2,0.5-0.3c0,0,0,0,0.1,0c0.2-0.1,0.3-0.2,0.4-0.3c0,0,0,0,0.1,0
				c0.2-0.1,0.3-0.2,0.5-0.3l0,0c0.2-0.1,0.3-0.2,0.5-0.3l0,0c0.3-0.2,0.6-0.4,0.9-0.6c0,0,0,0,0,0c0.3-0.2,0.6-0.4,0.9-0.6l0,0
				c0.4-0.3,0.8-0.6,1.2-0.9l0,0c1.9-1.5,3.5-2.9,4.9-4.3l0,0c0.4-0.4,0.7-0.7,1.1-1.1l0,0c0.3-0.3,0.5-0.5,0.8-0.8l0,0
				c0.1-0.1,0.2-0.2,0.2-0.2l0,0c0.2-0.2,0.5-0.5,0.7-0.8l0,0c0.1-0.1,0.1-0.2,0.2-0.2l0,0c0.2-0.2,0.4-0.5,0.6-0.7c0,0,0,0,0,0
				c0.2-0.2,0.4-0.5,0.6-0.7l0,0c0.1-0.1,0.1-0.1,0.2-0.2c0,0,0,0,0,0c0.2-0.2,0.3-0.4,0.5-0.6l0,0c0.1-0.1,0.1-0.1,0.1-0.2l0,0
				c0.1-0.2,0.3-0.4,0.4-0.5l0,0c0.1-0.1,0.1-0.1,0.1-0.2l0,0c0.1-0.2,0.2-0.3,0.3-0.5l0,0c0-0.1,0.1-0.1,0.1-0.1l0,0
				c0.1-0.1,0.1-0.2,0.2-0.3l0,0c0-0.1,0.1-0.1,0.1-0.1l0,0c0.1-0.1,0.2-0.2,0.2-0.3l0,0c0,0,0.1-0.1,0.1-0.1l0,0
				c0.1-0.1,0.1-0.2,0.2-0.2l0,0c0.1-0.1,0.1-0.2,0.1-0.2l0,0c0,0,0,0,0,0l0,0c0,0,0,0,0,0l0,0l0,0c0.1-0.1,0.1-0.2,0.1-0.2
				c0.2-0.3,0.4-0.7,0.6-1c1-1.9,2-3.8,2.9-5.8c1.3-2.8,2.4-5.6,3.2-8.6c0.2-0.6,0.3-1.2,0.5-1.9
				C413.9,268.5,388.5,290.3,325.1,279.1z"/>
			<path class="st13" d="M424.8,247.3c0.4-2.2,0.6-4.3,0.9-6.3c0,0,0,0,0-0.1c0-0.1,0-0.3,0.1-0.4c0-0.1,0-0.1,0-0.1
				c0-0.1,0-0.2,0-0.3c0-0.1,0-0.1,0-0.2c0-0.1,0-0.2,0-0.2c0-0.1,0-0.2,0-0.3c0-0.1,0-0.1,0-0.1c0.7-8,0.5-14.1,0.5-14.2l0,0l0,0
				c0-0.3-0.1-0.6-0.1-0.9c0-0.1,0-0.1,0-0.2c0-0.2,0-0.5-0.1-0.7c0-0.1,0-0.2,0-0.3c0-0.2-0.1-0.4-0.1-0.7c0-0.1,0-0.2,0-0.3
				c0-0.2-0.1-0.4-0.1-0.6c0-0.1,0-0.2,0-0.3c0-0.2-0.1-0.4-0.1-0.6c0-0.1,0-0.2,0-0.3c0-0.2-0.1-0.4-0.1-0.6c0-0.1,0-0.2,0-0.3
				c0-0.2-0.1-0.4-0.1-0.6c0-0.1,0-0.2,0-0.3v0c4.3-8,7.7-17.2,9.8-27.2c0.3-1.4,0.6-2.9,0.8-4.3c1.5-8.9,2.1-16.9,1.3-25.1
				c-0.2-2-0.7-5.3-1.3-7.5c-0.6-2.2-1.6-4.2-2.8-6.1c-0.4-0.7-1-1.3-1.6-1.9c-0.1-0.1-0.2-0.1-0.2-0.2c-0.9-0.8-2-1.3-3.1-1.7
				c-0.6-0.2-1.3-0.3-1.9-0.5c-1.3-0.3-2.5-0.4-3.7-0.5l0,0c-3.4-0.2-7.8,0.9-9.8,1.4c-5.4,1.7-16.7,5.9-23.7,10.4
				c-0.1,0-0.1,0.1-0.1,0.1l0,0c0,0-0.1-0.1-0.1-0.1c-0.2-0.1-0.4-0.3-0.6-0.4c-0.1-0.1-0.1-0.1-0.2-0.1c-0.2-0.2-0.4-0.3-0.6-0.5
				c-0.1,0-0.1-0.1-0.1-0.1c-0.2-0.1-0.4-0.3-0.6-0.4c-0.1,0-0.1-0.1-0.1-0.1c-0.2-0.2-0.4-0.3-0.6-0.5c-0.1,0-0.1-0.1-0.1-0.1
				c-0.2-0.1-0.4-0.3-0.6-0.4c0,0-0.1-0.1-0.1-0.1c-0.2-0.2-0.5-0.3-0.7-0.5c-0.1,0-0.1-0.1-0.2-0.1c-0.2-0.1-0.5-0.3-0.7-0.4
				c0,0,0,0,0,0c-0.2-0.2-0.5-0.3-0.7-0.4c-0.1,0-0.1-0.1-0.2-0.1c-0.2-0.1-0.5-0.3-0.7-0.4c0,0-0.1,0-0.1-0.1
				c-0.2-0.1-0.4-0.3-0.6-0.4c-0.1,0-0.1-0.1-0.2-0.1c-0.2-0.1-0.5-0.3-0.7-0.4c-0.1,0-0.1-0.1-0.1-0.1c-0.2-0.1-0.4-0.2-0.6-0.4
				c-0.1,0-0.1-0.1-0.1-0.1c-0.2-0.1-0.5-0.3-0.7-0.4c-0.1,0-0.1-0.1-0.2-0.1c-0.2-0.1-0.4-0.2-0.6-0.3c0,0-0.1,0-0.1-0.1
				c-0.2-0.1-0.5-0.3-0.7-0.4c-0.1,0-0.1-0.1-0.2-0.1c-0.2-0.1-0.5-0.3-0.7-0.4c0,0,0,0,0,0c-0.2-0.1-0.5-0.2-0.7-0.4
				c-0.1,0-0.1-0.1-0.2-0.1c-0.2-0.1-0.5-0.2-0.7-0.3c0,0-0.1,0-0.1-0.1c-0.2-0.1-0.4-0.2-0.6-0.3c-0.1,0-0.1-0.1-0.2-0.1
				c-0.2-0.1-0.5-0.2-0.7-0.3c-0.1,0-0.1-0.1-0.2-0.1c-0.2-0.1-0.4-0.2-0.6-0.3c-0.1,0-0.1-0.1-0.2-0.1c-0.2-0.1-0.5-0.2-0.7-0.3
				l-0.2-0.1c-0.2-0.1-0.5-0.2-0.7-0.3c0,0-0.1,0-0.1-0.1c-0.2-0.1-0.5-0.2-0.8-0.3c-0.1,0-0.1-0.1-0.2-0.1
				c-0.2-0.1-0.5-0.2-0.8-0.3c0,0-0.1,0-0.1,0c-0.2-0.1-0.5-0.2-0.7-0.3c-0.1,0-0.1-0.1-0.2-0.1c-0.2-0.1-0.5-0.2-0.8-0.3
				c-0.1,0-0.1,0-0.2-0.1c-0.2-0.1-0.4-0.2-0.6-0.2c-0.1,0-0.1-0.1-0.2-0.1c-0.2-0.1-0.5-0.2-0.8-0.3c-0.1,0-0.1-0.1-0.2-0.1
				c-0.2-0.1-0.4-0.2-0.6-0.2c-0.1,0-0.1,0-0.2-0.1c-0.2-0.1-0.5-0.2-0.8-0.2c-0.1,0-0.1-0.1-0.2-0.1c-0.2-0.1-0.5-0.2-0.7-0.2
				c0,0-0.1,0-0.1,0c-0.3-0.1-0.5-0.2-0.8-0.2c-0.1,0-0.2-0.1-0.2-0.1c-0.3-0.1-0.5-0.2-0.8-0.2c-0.1,0-0.1,0-0.1,0
				c-0.2-0.1-0.5-0.1-0.7-0.2c-0.1,0-0.1,0-0.2-0.1c-0.3-0.1-0.5-0.1-0.8-0.2c-0.1,0-0.1,0-0.2-0.1c-0.2-0.1-0.5-0.1-0.7-0.2
				c-0.1,0-0.1,0-0.2-0.1c-0.3-0.1-0.5-0.1-0.8-0.2c-0.1,0-0.1,0-0.2-0.1c-0.2-0.1-0.5-0.1-0.7-0.2c-0.1,0-0.1,0-0.1,0
				c-0.3-0.1-0.5-0.1-0.8-0.2c-0.1,0-0.1,0-0.2-0.1c-0.3-0.1-0.6-0.1-0.8-0.2c-0.1,0-0.1,0-0.2,0l0,0c-0.1,0-0.1,0-0.2-0.1
				c-0.3-0.1-0.6-0.1-0.9-0.2c-0.1,0-0.1,0-0.2,0c-0.3-0.1-0.6-0.1-0.8-0.2c-0.1,0-0.1,0-0.1,0c-0.2-0.1-0.5-0.1-0.7-0.1
				c-0.1,0-0.1,0-0.2,0c-0.3-0.1-0.5-0.1-0.8-0.1c-0.1,0-0.1,0-0.2,0c-0.2,0-0.5-0.1-0.7-0.1c-0.1,0-0.1,0-0.2,0
				c-0.3,0-0.5-0.1-0.8-0.1c-0.1,0-0.1,0-0.2,0c-0.2,0-0.5-0.1-0.7-0.1c-0.1,0-0.1,0-0.1,0c-0.3,0-0.5-0.1-0.8-0.1
				c-0.1,0-0.2,0-0.2,0c-0.3,0-0.5-0.1-0.8-0.1c0,0-0.1,0-0.1,0c-0.2,0-0.5-0.1-0.8-0.1c-0.1,0-0.2,0-0.2,0c-0.3,0-0.5-0.1-0.8-0.1
				c-0.1,0-0.1,0-0.2,0c-0.2,0-0.5,0-0.7-0.1c-0.1,0-0.1,0-0.2,0c-0.3,0-0.5,0-0.8-0.1c-0.1,0-0.1,0-0.2,0c-0.2,0-0.5,0-0.7,0
				c-0.1,0-0.1,0-0.2,0c-0.3,0-0.5,0-0.8,0c-0.1,0-0.2,0-0.2,0c-0.2,0-0.5,0-0.8,0c0,0-0.1,0-0.1,0c-0.3,0-0.5,0-0.8,0
				c-0.1,0-0.2,0-0.2,0c-0.3,0-0.5,0-0.8,0c0,0-0.1,0-0.1,0c-0.2,0-0.5,0-0.7,0h-0.2c-0.3,0-0.5,0-0.8,0c-0.1,0-0.1,0-0.2,0
				c-0.2,0-0.5,0-0.7,0c-0.1,0-0.1,0-0.2,0c-0.3,0-0.5,0-0.8,0c-0.1,0-0.1,0-0.2,0c-0.2,0-0.5,0-0.7,0c-0.1,0-0.1,0-0.1,0
				c-0.3,0-0.5,0-0.8,0.1c-0.1,0-0.1,0-0.2,0c-0.3,0-0.5,0-0.8,0.1c0,0,0,0,0,0c-0.3,0-0.5,0-0.8,0.1c-0.1,0-0.1,0-0.2,0
				c-0.3,0-0.5,0.1-0.8,0.1c0,0-0.1,0-0.1,0c-0.2,0-0.5,0.1-0.8,0.1c-0.1,0-0.1,0-0.2,0c-0.3,0-0.5,0.1-0.8,0.1c-0.1,0-0.1,0-0.2,0
				c-0.2,0-0.5,0.1-0.7,0.1c-0.1,0-0.1,0-0.1,0c-0.3,0-0.5,0.1-0.8,0.1c-0.1,0-0.1,0-0.2,0c-0.2,0-0.5,0.1-0.8,0.1c0,0-0.1,0-0.1,0
				c-0.3,0-0.5,0.1-0.8,0.1c-0.1,0-0.1,0-0.2,0c-0.3,0.1-0.5,0.1-0.8,0.1h0c-0.3,0.1-0.5,0.1-0.8,0.1c-0.1,0-0.1,0-0.2,0
				c-0.3,0.1-0.5,0.1-0.8,0.1c-0.1,0-0.1,0-0.1,0c-0.2,0.1-0.5,0.1-0.7,0.1c-0.1,0-0.1,0-0.2,0c-0.3,0.1-0.5,0.1-0.8,0.2
				c-0.1,0-0.1,0-0.2,0c-0.2,0.1-0.5,0.1-0.7,0.1c-0.1,0-0.1,0-0.2,0c-0.3,0.1-0.5,0.1-0.8,0.2c-0.1,0-0.1,0-0.2,0.1
				c-0.2,0.1-0.5,0.1-0.7,0.2c0,0-0.1,0-0.1,0l0,0c0-0.1-0.1-0.1-0.1-0.1c-4.7-6.9-13.4-15.3-17.6-18.9c-1.6-1.3-5.3-4-8.4-5.2l0,0
				c-1.2-0.4-2.4-0.8-3.6-1c-0.6-0.1-1.3-0.2-1.9-0.3c-1.2-0.2-2.4-0.1-3.6,0.3c-0.1,0-0.2,0.1-0.3,0.1c-0.8,0.3-1.5,0.6-2.2,1.1
				c-1.9,1.3-3.5,2.8-4.9,4.5c-1.5,1.8-3.2,4.6-4.2,6.4c-4,7.1-6.6,14.8-8.8,23.5c-0.3,1.4-0.7,2.8-1,4.3c-2.1,10-2.6,19.7-1.8,28.9
				c0,0,0,0,0,0c-0.1,0.1-0.1,0.2-0.1,0.2c-0.1,0.2-0.2,0.4-0.3,0.6c-0.1,0.1-0.1,0.2-0.2,0.3c-0.1,0.2-0.2,0.3-0.3,0.5
				c-0.1,0.1-0.1,0.2-0.2,0.3c-0.1,0.2-0.2,0.3-0.3,0.5c-0.1,0.1-0.1,0.2-0.2,0.3c-0.1,0.2-0.2,0.4-0.3,0.6
				c-0.1,0.1-0.1,0.2-0.1,0.2c-0.1,0.2-0.2,0.4-0.3,0.6c-0.1,0.1-0.1,0.2-0.1,0.2c-0.1,0.2-0.2,0.4-0.3,0.6c0,0.1-0.1,0.1-0.1,0.2
				c-0.1,0.3-0.3,0.6-0.4,0.8l0,0l0,0c-0.1,0.1-2.7,5.6-5.2,13.3c0,0,0,0.1,0,0.1c0,0.1-0.1,0.2-0.1,0.3c0,0.1-0.1,0.2-0.1,0.2
				c0,0.1-0.1,0.1-0.1,0.2c0,0.1-0.1,0.2-0.1,0.3c0,0,0,0.1,0,0.1c-0.1,0.1-0.1,0.3-0.1,0.4c0,0,0,0,0,0.1c-0.6,1.9-1.2,4-1.7,6.1
				c-0.3,1.3-0.6,2.5-0.8,3.8c2.9,9.9,10.5,20,30.1,17.1c0,0,10.4-1.6,24.2-11.6c12.9-9.3,27.7-17.2,40.7-14.1l0,0
				c13.1,2.4,23.7,15.5,31.8,29.1c8.7,14.6,17.6,20.2,17.6,20.2c16.8,10.5,27.8,4.3,34.4-3.7C424.3,249.8,424.6,248.5,424.8,247.3z"
				/>
			<path class="st18" d="M354,139.2l-1.3,6.1c-24.3-5.2-39.7,1-39.7,1c-7.2-14.3-20.4-25-26.2-26.9c-1.5-0.9-1.5-0.9-1.5-0.9
				l-4.1-2.7l-1-1.2c1.1-0.3,2.3-0.4,3.6-0.3c0.6,0.1,1.3,0.2,1.9,0.3c1.3,0.3,2.5,0.6,3.6,1l0,0c3.1,1.2,6.8,3.9,8.4,5.2
				c4.3,3.7,13,12,17.6,18.9c0,0.1,0.1,0.1,0.1,0.1l0,0c0,0,0.1,0,0.1,0c0.2-0.1,0.5-0.1,0.7-0.2c0.1,0,0.1,0,0.2-0.1
				c0.3-0.1,0.5-0.1,0.8-0.2c0.1,0,0.1,0,0.2,0c0.2-0.1,0.5-0.1,0.7-0.1c0.1,0,0.1,0,0.2,0c0.3-0.1,0.5-0.1,0.8-0.2
				c0.1,0,0.1,0,0.2,0c0.2-0.1,0.5-0.1,0.7-0.1c0.1,0,0.1,0,0.1,0c0.3-0.1,0.5-0.1,0.8-0.1c0.1,0,0.1,0,0.2,0
				c0.3-0.1,0.5-0.1,0.8-0.1h0c0.3-0.1,0.5-0.1,0.8-0.1c0.1,0,0.1,0,0.2,0c0.3-0.1,0.5-0.1,0.8-0.1c0,0,0.1,0,0.1,0
				c0.2,0,0.5-0.1,0.8-0.1c0.1,0,0.1,0,0.2,0c0.3,0,0.5-0.1,0.8-0.1c0.1,0,0.1,0,0.1,0c0.2,0,0.5-0.1,0.7-0.1c0.1,0,0.1,0,0.2,0
				c0.3,0,0.5-0.1,0.8-0.1c0.1,0,0.1,0,0.2,0c0.2,0,0.5-0.1,0.8-0.1c0,0,0.1,0,0.1,0c0.3,0,0.5-0.1,0.8-0.1c0.1,0,0.1,0,0.2,0
				c0.3,0,0.5-0.1,0.8-0.1c0,0,0,0,0,0c0.3,0,0.5,0,0.8-0.1c0.1,0,0.1,0,0.2,0c0.3,0,0.5,0,0.8-0.1c0.1,0,0.1,0,0.1,0
				c0.2,0,0.5,0,0.7,0c0.1,0,0.1,0,0.2,0c0.3,0,0.5,0,0.8,0c0.1,0,0.1,0,0.2,0c0.2,0,0.5,0,0.7,0c0.1,0,0.1,0,0.2,0
				c0.3,0,0.5,0,0.8,0h0.2c0.2,0,0.5,0,0.7,0c0,0,0.1,0,0.1,0c0.3,0,0.5,0,0.8,0c0.1,0,0.2,0,0.2,0c0.3,0,0.5,0,0.8,0
				c0,0,0.1,0,0.1,0c0.2,0,0.5,0,0.8,0c0.1,0,0.2,0,0.2,0c0.3,0,0.5,0,0.8,0c0.1,0,0.1,0,0.2,0c0.2,0,0.5,0,0.7,0c0.1,0,0.1,0,0.2,0
				c0.3,0,0.5,0,0.8,0.1c0.1,0,0.1,0,0.2,0c0.2,0,0.5,0,0.7,0.1c0.1,0,0.1,0,0.2,0c0.3,0,0.5,0.1,0.8,0.1c0.1,0,0.2,0,0.2,0
				c0.2,0,0.5,0.1,0.8,0.1c0,0,0.1,0,0.1,0c0.3,0,0.5,0.1,0.8,0.1c0.1,0,0.2,0,0.2,0c0.3,0,0.5,0.1,0.8,0.1c0.1,0,0.1,0,0.1,0
				c0.2,0,0.5,0.1,0.7,0.1c0.1,0,0.1,0,0.2,0c0.3,0,0.5,0.1,0.8,0.1c0.1,0,0.1,0,0.2,0c0.2,0,0.5,0.1,0.7,0.1c0.1,0,0.1,0,0.2,0
				c0.3,0.1,0.5,0.1,0.8,0.1c0.1,0,0.1,0,0.2,0c0.2,0.1,0.5,0.1,0.7,0.1c0.1,0,0.1,0,0.1,0c0.3,0.1,0.6,0.1,0.8,0.2
				c0.1,0,0.1,0,0.2,0C353.3,139.1,353.6,139.2,354,139.2C353.8,139.2,353.9,139.2,354,139.2z"/>
			<path class="st19" d="M302.6,144c-12.4,5.1-23.8,12.9-33.1,22.8c-1.2,1.3-2.4,2.7-3.6,4.1c-3.2,3.8-6.2,7.9-8.8,12.3
				c-0.8-9.1-0.2-18.9,1.8-28.9c0.3-1.4,0.6-2.9,1-4.2c2.2-8.7,4.8-16.4,8.8-23.5c1-1.8,2.7-4.6,4.2-6.4c1.5-1.7,3.1-3.3,4.9-4.5
				c0.7-0.5,1.4-0.8,2.2-1.1c1.7,1.4,3.3,2.9,4.9,4.4c0.5,0.5,1.1,1,1.6,1.6c1.7,1.8,3.4,3.7,5.1,5.6
				C296,131.8,299.7,137.8,302.6,144z"/>
			<path class="st20" d="M302.6,144c-12.4,5.1-23.8,12.9-33.1,22.8c-1.2,1.3-2.4,2.7-3.6,4.1c0.3-4.8,0.9-9.7,2-14.7
				c0.3-1.4,0.6-2.9,1-4.3c2.2-8.7,4.8-16.4,8.8-23.5c1-1.8,2.7-4.6,4.2-6.4c0.9-1.1,2-2.2,3.1-3.1c0.5,0.5,1.1,1,1.6,1.6
				c1.7,1.8,3.4,3.7,5.1,5.6C296,131.8,299.7,137.8,302.6,144z"/>
			<path class="st18" d="M354,139.2l-1.3,6.1c24.3,4.9,36,16.7,36,16.7c12.3-10.2,28.7-14.9,34.8-14.3c1.7-0.3,1.7-0.3,1.7-0.3
				l4.8-0.8l1.5-0.7c-0.9-0.8-2-1.3-3.1-1.7c-0.6-0.2-1.3-0.3-1.9-0.5c-1.3-0.3-2.5-0.4-3.7-0.5l0,0c-3.4-0.2-7.8,0.9-9.8,1.4
				c-5.4,1.7-16.7,5.9-23.7,10.4c-0.1,0-0.1,0.1-0.1,0.1l0,0c0,0-0.1-0.1-0.1-0.1c-0.2-0.1-0.4-0.3-0.6-0.4
				c-0.1-0.1-0.1-0.1-0.2-0.1c-0.2-0.2-0.4-0.3-0.6-0.5c-0.1,0-0.1-0.1-0.1-0.1c-0.2-0.1-0.4-0.3-0.6-0.4c-0.1,0-0.1-0.1-0.1-0.1
				c-0.2-0.2-0.4-0.3-0.6-0.5c-0.1,0-0.1-0.1-0.1-0.1c-0.2-0.1-0.4-0.3-0.6-0.4c0,0-0.1-0.1-0.1-0.1c-0.2-0.2-0.5-0.3-0.7-0.5
				c-0.1,0-0.1-0.1-0.2-0.1c-0.2-0.1-0.5-0.3-0.7-0.4c0,0,0,0,0,0c-0.2-0.2-0.5-0.3-0.7-0.4c-0.1,0-0.1-0.1-0.2-0.1
				c-0.2-0.1-0.5-0.3-0.7-0.4c0,0-0.1,0-0.1-0.1c-0.2-0.1-0.4-0.3-0.6-0.4c-0.1,0-0.1-0.1-0.2-0.1c-0.2-0.1-0.5-0.3-0.7-0.4
				c-0.1,0-0.1-0.1-0.1-0.1c-0.2-0.1-0.4-0.2-0.6-0.4c-0.1,0-0.1-0.1-0.1-0.1c-0.2-0.1-0.5-0.3-0.7-0.4c-0.1,0-0.1-0.1-0.2-0.1
				c-0.2-0.1-0.4-0.2-0.6-0.3c0,0-0.1,0-0.1-0.1c-0.2-0.1-0.5-0.3-0.7-0.4c-0.1,0-0.1-0.1-0.2-0.1c-0.2-0.1-0.5-0.3-0.7-0.4
				c0,0,0,0,0,0c-0.2-0.1-0.5-0.2-0.7-0.4c-0.1,0-0.1-0.1-0.2-0.1c-0.2-0.1-0.5-0.2-0.7-0.3c0,0-0.1,0-0.1-0.1
				c-0.2-0.1-0.4-0.2-0.6-0.3c-0.1,0-0.1-0.1-0.2-0.1c-0.2-0.1-0.5-0.2-0.7-0.3c-0.1,0-0.1-0.1-0.2-0.1c-0.2-0.1-0.4-0.2-0.6-0.3
				c-0.1,0-0.1-0.1-0.2-0.1c-0.2-0.1-0.5-0.2-0.7-0.3l-0.2-0.1c-0.2-0.1-0.5-0.2-0.7-0.3c0,0-0.1,0-0.1-0.1
				c-0.2-0.1-0.5-0.2-0.8-0.3c-0.1,0-0.1-0.1-0.2-0.1c-0.2-0.1-0.5-0.2-0.8-0.3c0,0-0.1,0-0.1,0c-0.2-0.1-0.5-0.2-0.7-0.3
				c-0.1,0-0.1-0.1-0.2-0.1c-0.2-0.1-0.5-0.2-0.8-0.3c-0.1,0-0.1,0-0.2-0.1c-0.2-0.1-0.4-0.2-0.6-0.2c-0.1,0-0.1-0.1-0.2-0.1
				c-0.2-0.1-0.5-0.2-0.8-0.3c-0.1,0-0.1-0.1-0.2-0.1c-0.2-0.1-0.4-0.2-0.6-0.2c-0.1,0-0.1,0-0.2-0.1c-0.2-0.1-0.5-0.2-0.8-0.2
				c-0.1,0-0.1-0.1-0.2-0.1c-0.2-0.1-0.5-0.2-0.7-0.2c0,0-0.1,0-0.1,0c-0.3-0.1-0.5-0.2-0.8-0.2c-0.1,0-0.2-0.1-0.2-0.1
				c-0.3-0.1-0.5-0.2-0.8-0.2c-0.1,0-0.1,0-0.1,0c-0.2-0.1-0.5-0.1-0.7-0.2c-0.1,0-0.1,0-0.2-0.1c-0.3-0.1-0.5-0.1-0.8-0.2
				c-0.1,0-0.1,0-0.2-0.1c-0.2-0.1-0.5-0.1-0.7-0.2c-0.1,0-0.1,0-0.2-0.1c-0.3-0.1-0.5-0.1-0.8-0.2c-0.1,0-0.1,0-0.2-0.1
				c-0.2-0.1-0.5-0.1-0.7-0.2c-0.1,0-0.1,0-0.1,0c-0.3-0.1-0.5-0.1-0.8-0.2c-0.1,0-0.1,0-0.2-0.1c-0.3-0.1-0.6-0.1-0.8-0.2
				C354.1,139.3,354,139.3,354,139.2z"/>
			<path class="st19" d="M399.3,164c9.4,9.6,16.7,21.2,21.4,34.1c0.6,1.7,1.2,3.4,1.7,5.2c1.5,4.8,2.5,9.7,3.2,14.8
				c4.3-8,7.7-17.2,9.8-27.2c0.3-1.4,0.6-2.9,0.8-4.3c1.5-8.9,2.1-16.9,1.3-25.1c-0.2-2-0.7-5.3-1.3-7.5c-0.6-2.2-1.6-4.2-2.8-6.1
				c-0.4-0.7-1-1.3-1.6-1.9c-2.1,0.6-4.2,1.3-6.2,2.1c-0.7,0.3-1.4,0.5-2.1,0.8c-2.3,0.9-4.6,2-6.9,3.2
				C410.2,155.5,404.4,159.5,399.3,164z"/>
			<path class="st20" d="M399.3,164c9.4,9.6,16.7,21.2,21.4,34.1c0.6,1.7,1.2,3.4,1.7,5.2c1.6-4.5,3-9.3,4-14.3
				c0.3-1.4,0.6-2.9,0.8-4.3c1.5-8.9,2.1-16.9,1.3-25.1c-0.2-2-0.7-5.3-1.3-7.5c-0.4-1.4-0.9-2.8-1.6-4.1c-0.7,0.3-1.4,0.5-2.1,0.8
				c-2.3,0.9-4.6,2-6.9,3.2C410.2,155.5,404.4,159.5,399.3,164z"/>
			<path class="st17" d="M346.2,228.8c0,0,0.4-2.2-1.4-4.8c0,0-3.4-5.4-12.7-7.1l0,0c-9.2-2.1-14.5,1.5-14.5,1.5
				c-2.7,1.7-3.2,3.8-3.2,3.8c-1.9,7.4,4,13.9,4,13.9l0,0c2,2.3,4.9,4.2,8.6,5.3v0c3.8,0.4,7.3-0.1,10-1.5l0,0
				C337,240,345.1,236.4,346.2,228.8z"/>
			<path class="st1" d="M336.2,243c-0.1-0.2-5.5-2.8-8.6-4.2v0c-3.3,0.1-9.4,0.4-9.5,0.5c-0.2,0.2-8.5,2.4-8.5,2.4
				s-2.8,19.9,12.4,24.4v0c15.7,1.9,21-17.5,21-17.5S336.3,243.2,336.2,243z"/>
			<path class="st1" d="M302.4,201.4l0.1-0.8c0.5-7-5.4-13.3-12.4-13.8h-0.1c-6.9-0.5-13.5,5.3-13.9,12.2v0.1c-0.3,4,2.5,7.6,6.1,9
				l0,0c0,0,0,0,0.1,0c0.1,0,0.2,0.1,0.3,0.1c1.6,0.5,7.5,2.4,12.8,0.9l0,0C298.9,208.4,302.1,205.2,302.4,201.4z"/>
			<circle class="st16" cx="292.8" cy="195" r="4.3"/>
			<path class="st16" d="M310.7,162c0,0-6.8-0.5-10.7,5.1c-3.9,5.6,4,11.4,8.8,11.6c4.6,0.2,9.8-1,9.9-7.8
				C318.8,164,312.4,161.8,310.7,162z"/>
			<path class="st1" d="M366.6,214.7l0.3-0.8c2.4-6.6,10.3-10.1,16.9-7.7l0.1,0c6.5,2.3,10.3,10.2,7.9,16.8l0,0.1
				c-1.3,3.8-5.3,6-9.2,5.9l0,0c0,0,0,0-0.1,0c-0.1,0-0.2,0-0.3,0c-1.6-0.1-7.9-0.8-12.1-4.3l0,0C367,222.5,365.3,218.2,366.6,214.7
				z"/>
			
				<ellipse transform="matrix(0.1602 -0.9871 0.9871 0.1602 107.5155 551.6464)" class="st16" cx="377.9" cy="212.6" rx="4.3" ry="4.3"/>
			<path class="st16" d="M379.1,176.1c0,0,6.4,2.2,7.8,8.9s-8.1,8.9-12.6,7.2c-4.3-1.6-8.7-4.8-6-11.1
				C370.9,174.7,377.7,175.3,379.1,176.1z"/>
			<path class="st1" d="M345.9,224.4c0,0,0.3-2-1.3-4.4c0,0-3.2-5-11.7-6.6l0,0c-8.5-1.9-13.4,1.4-13.4,1.4c-2.5,1.6-3,3.6-3,3.6
				c-1.7,6.8,3.7,12.9,3.7,12.9l0,0c1.8,2.2,4.5,3.9,7.9,4.9v0c3.6,0.4,6.7-0.1,9.2-1.3l0,0C337.4,234.7,344.8,231.3,345.9,224.4z"
				/>
			<path class="st1" d="M354.4,235.9c-1.2-0.8-2.8-0.4-3.6,0.8c-0.1,0.1-4.6,7-10.1,6.9c-1.5,0-3-0.6-4.5-1.7c-2-1.5-3.9-3.8-5.7-7
				c-0.4-0.6-1-1.1-1.7-1.2l0,0c-0.7-0.1-1.5,0-2.1,0.5c-3,2.2-5.7,3.6-8,4.2c-1.9,0.4-3.4,0.4-4.9-0.2c-5.1-2.1-6.5-10.2-6.6-10.3
				c-0.2-1.4-1.6-2.4-3-2.1c-1.4,0.2-2.4,1.6-2.1,3c0,0.1,0.5,2.8,1.8,5.8c1.9,4.2,4.6,7.2,7.9,8.5c0.7,0.3,1.3,0.5,2,0.6
				c4,0.8,8.6-0.4,13.6-3.6l0,0c3.3,5,7,7.9,11,8.7c0.7,0.1,1.4,0.2,2.1,0.2c3.6,0.1,7.3-1.5,10.6-4.7c2.4-2.2,3.9-4.5,3.9-4.6
				C355.9,238.2,355.6,236.7,354.4,235.9z"/>
			<path class="st21" d="M325,251.5L325,251.5c0,0-5.2-0.9-9.1,0.2c0,0,0.3,1,0.8,2.3c1,2.3,3,5.8,6.4,6.6l0,0
				c3.4,0.6,6.6-1.7,8.5-3.5c1-1,1.6-1.7,1.6-1.7C330.2,252.8,325.3,251.6,325,251.5z"/>
			<path class="st22" d="M324.4,254.1L324.4,254.1c0,0-4.1-0.8-7.7-0.1c1,2.3,3,5.8,6.4,6.6l0,0c3.4,0.6,6.6-1.7,8.5-3.5
				C328.6,255.1,324.7,254.2,324.4,254.1z"/>
			
				<ellipse transform="matrix(0.2024 -0.9793 0.9793 0.2024 48.9894 500.7111)" class="st23" cx="331.9" cy="220.3" rx="4" ry="9.3"/>
			<path class="st1" d="M256.6,185C256.6,185,256.6,185,256.6,185c-0.8-0.2-1.4-0.8-1.4-1.6c-0.8-9.6-0.2-19.4,1.8-29.4
				c0.3-1.4,0.6-2.9,1-4.3c2.4-9.8,5.2-17.2,8.9-23.9l0,0c0.6-1,2.5-4.4,4.4-6.6c1.5-1.9,3.3-3.5,5.3-4.9c0.8-0.6,1.7-1,2.6-1.3
				c0.6-0.2,1.2-0.1,1.7,0.3c2.3,1.9,4.5,4,6.7,6.1c1.8,1.8,3.5,3.8,5.1,5.8c4.6,5.6,8.4,11.7,11.4,18.2c0.2,0.5,0.2,0.9,0.1,1.4
				c-0.2,0.5-0.5,0.8-1,1c-12.1,4.9-23.3,12.7-32.5,22.4c-4.6,4.9-8.7,10.3-12.2,16.1C258.1,184.8,257.3,185.1,256.6,185z
				 M270.1,127.5c-3.6,6.4-6.2,13.6-8.6,23.1c-0.3,1.4-0.7,2.8-0.9,4.2c-1.6,7.7-2.3,15.4-2.1,22.9c2.9-4.3,6.2-8.3,9.7-12
				c4.8-5.1,10.1-9.6,15.7-13.5c5.1-3.6,10.6-6.6,16.3-9c-2.7-5.6-6.1-10.8-10.1-15.7c-1.6-1.9-3.2-3.8-4.9-5.5
				c-1.8-1.8-3.6-3.6-5.6-5.2c-0.3,0.1-0.6,0.3-0.9,0.5c-1.7,1.2-3.3,2.6-4.6,4.2C272.7,123,271.1,125.6,270.1,127.5z"/>
			<path class="st1" d="M324.5,293.7c-0.6-0.1-1.2-0.3-1.8-0.4c-0.2-0.1-0.4-0.1-0.6-0.1c-0.1,0-0.1,0-0.2-0.1
				c-0.1,0-0.2-0.1-0.3-0.1c-4.2-0.8-8.4-1.8-12.5-2.9c-0.3-0.1-0.7-0.2-1-0.3c-0.6-0.2-1.3-0.4-2-0.6c-0.3-0.1-0.7-0.2-1-0.3
				c-0.7-0.2-1.3-0.4-2-0.6c-3.3-1-6.5-2.2-9.7-3.5c-0.7-0.3-1.3-0.5-1.9-0.8c-0.3-0.1-0.6-0.3-0.9-0.4
				c-10.2-4.4-19.5-9.8-27.4-16.1l0,0l0,0c-0.2-0.1-0.3-0.3-0.5-0.4c-0.1-0.1-0.1-0.1-0.1-0.1c-0.1-0.1-0.3-0.2-0.4-0.4l0,0
				l-0.1-0.1c-0.2-0.1-0.3-0.3-0.5-0.4c0,0-0.1-0.1-0.1-0.1l-0.1,0l0,0c-0.1-0.1-0.3-0.2-0.4-0.3c0,0-0.1-0.1-0.1-0.1
				c-0.2-0.1-0.3-0.3-0.5-0.4c0,0-0.1-0.1-0.1-0.1l0,0c-0.1-0.1-0.2-0.2-0.3-0.3l0,0c0,0-0.1-0.1-0.1-0.1c0,0,0,0,0,0
				c-0.1-0.1-0.3-0.3-0.4-0.4l-0.1-0.1c-0.1-0.1-0.2-0.2-0.3-0.3l-0.1-0.1c-0.1-0.1-0.3-0.3-0.4-0.4c0,0-0.1-0.1-0.1-0.1
				c-0.1-0.1-0.2-0.2-0.3-0.3c0-0.1-0.1-0.1-0.1-0.1c-0.1-0.1-0.3-0.3-0.4-0.4l-0.1-0.1c-0.1-0.1-0.2-0.2-0.3-0.4c0,0,0,0,0,0
				c0,0-0.1-0.1-0.1-0.1l0,0c-0.1-0.1-0.3-0.3-0.4-0.4l0,0l0,0c-0.1-0.1-0.2-0.3-0.3-0.4l-0.1-0.1c-0.1-0.2-0.2-0.3-0.4-0.5
				c0,0,0,0,0-0.1c-0.1-0.1-0.2-0.3-0.3-0.4c0,0-0.1-0.1-0.1-0.1c0,0,0,0,0,0c-0.1-0.1-0.2-0.3-0.3-0.5c0,0,0,0,0,0
				c-0.1-0.2-0.2-0.3-0.3-0.5c0,0-0.1-0.1-0.1-0.1c-0.1-0.1-0.2-0.3-0.3-0.4l0,0l0,0l0,0c-0.1-0.1-0.2-0.3-0.3-0.4l0-0.1
				c0,0,0,0,0,0l-0.1-0.1c-0.1-0.1-0.2-0.3-0.3-0.4c0,0,0-0.1-0.1-0.1c-0.1-0.2-0.2-0.3-0.3-0.5c0,0,0,0,0,0l0-0.1
				c-0.1-0.1-0.2-0.3-0.3-0.4l0,0l0,0l0,0c-0.1-0.2-0.2-0.3-0.3-0.5c0,0,0,0,0-0.1c-0.1-0.2-0.2-0.3-0.3-0.5l0-0.1l0,0
				c-0.1-0.2-0.2-0.3-0.3-0.5l0,0c0,0,0,0,0,0c-0.1-0.2-0.2-0.3-0.3-0.5c0,0,0,0,0-0.1c-0.2-0.3-0.4-0.6-0.6-1v0c0,0,0,0,0,0
				c-0.2-0.3-0.4-0.7-0.6-1c0,0,0,0,0,0c-0.2-0.4-0.5-0.9-0.8-1.3c0,0,0,0,0,0c-1-1.9-2-4-2.9-6v0c-0.2-0.5-0.4-1-0.6-1.4
				c0,0,0,0,0-0.1c-0.1-0.3-0.2-0.7-0.4-1c0,0,0,0,0-0.1c0-0.1-0.1-0.2-0.1-0.3l0,0v0c-0.1-0.3-0.2-0.6-0.3-0.9c0,0,0,0,0-0.1
				l-0.1-0.3v0c-0.1-0.3-0.2-0.6-0.3-0.9v0c-0.1-0.2-0.2-0.5-0.2-0.8v0c0-0.1-0.1-0.2-0.1-0.2l0,0v0c-0.1-0.3-0.2-0.6-0.2-0.8l0,0v0
				l0,0c0-0.1,0-0.1-0.1-0.2v0c-0.1-0.2-0.1-0.5-0.2-0.7v0c0-0.1,0-0.1-0.1-0.2c0,0,0,0,0,0l0,0c-0.1-0.2-0.1-0.4-0.1-0.6
				c0,0,0,0,0-0.1v0c0,0,0-0.1,0-0.1c0,0,0,0,0-0.1c0-0.1-0.1-0.2-0.1-0.3v0l0-0.1v0c0-0.1-0.1-0.3-0.1-0.4v0v0c0,0,0-0.1,0-0.1v0
				c0-0.1,0-0.2-0.1-0.3l0,0l0,0c0-0.1,0-0.2-0.1-0.2c0,0,0,0,0-0.1s0-0.1,0-0.1l0,0c0,0,0-0.1,0-0.1c0-0.1,0-0.2,0-0.3v0
				c-0.1-0.4-0.1-0.8-0.1-1.2c-0.2-2.2-0.3-4.4-0.4-6.6c-0.1-3.1,0.1-6.3,0.4-9.4c0.1-0.7,0.2-1.3,0.3-2c0-0.2,0.1-0.3,0.1-0.5
				c0.2-1.3,0.5-2.6,0.8-3.9c0.5-2,1.1-4.1,1.7-6.2v-0.1c0.1-0.1,0.1-0.3,0.1-0.4l0-0.1c0-0.1,0.1-0.2,0.1-0.3l0.1-0.4l0,0l0.1-0.4
				c0,0,0,0,0,0c2.6-7.7,5.3-13.4,5.3-13.5c0,0,0-0.1,0-0.1c0.1-0.3,0.3-0.5,0.4-0.8l0,0l0.1-0.2c0.1-0.2,0.2-0.4,0.3-0.6l0,0
				l0.1-0.2c0.1-0.2,0.2-0.4,0.3-0.6c0-0.1,0.1-0.1,0.1-0.2l0-0.1c0.1-0.2,0.2-0.4,0.3-0.6l0,0c0.1-0.1,0.1-0.2,0.1-0.2
				c0.1-0.2,0.2-0.3,0.3-0.5l0.2-0.3l0,0c0.1-0.2,0.2-0.3,0.3-0.5l0-0.1c0.1-0.1,0.1-0.1,0.1-0.2c0.1-0.1,0.1-0.2,0.2-0.3
				c-0.8-9.4-0.1-19.1,1.9-28.8c0.3-1.4,0.6-2.9,1-4.3c2.4-9.8,5.2-17.2,8.9-23.9l0,0c0.6-1,2.5-4.4,4.4-6.6
				c1.5-1.9,3.3-3.5,5.3-4.9c0.8-0.6,1.7-1,2.6-1.3c0.1,0,0.2-0.1,0.3-0.1c1.4-0.4,2.8-0.5,4.3-0.3c0.7,0.1,1.4,0.2,2.1,0.3
				c1.3,0.3,2.6,0.6,3.9,1.1c0,0,0,0,0,0c3.7,1.4,7.7,4.5,8.9,5.5c0,0,0,0,0.1,0.1c4.3,3.7,12.5,11.6,17.3,18.4
				c0.2-0.1,0.4-0.1,0.6-0.1c0,0,0.1,0,0.1,0h0.1c0.2-0.1,0.5-0.1,0.7-0.2l0.2,0c0.3-0.1,0.5-0.1,0.8-0.2c0.1,0,0.1,0,0.2,0
				c0.2-0.1,0.5-0.1,0.7-0.1l0.1,0c0.3-0.1,0.5-0.1,0.8-0.2l0.2,0c0.3-0.1,0.5-0.1,0.8-0.1l0,0h0c0.3-0.1,0.6-0.1,0.8-0.1h0.1
				c0.1,0,0.1,0,0.1,0c0.3-0.1,0.5-0.1,0.8-0.1c0,0,0.1,0,0.1,0c0.3,0,0.5-0.1,0.8-0.1l0.2,0c0.3,0,0.5-0.1,0.8-0.1l0.1,0
				c0.2,0,0.5-0.1,0.8-0.1c0.1,0,0.1,0,0.1,0c0,0,0,0,0,0c0.3,0,0.5-0.1,0.8-0.1c0,0,0.1,0,0.1,0h0.1l0,0c0.2,0,0.5-0.1,0.8-0.1h0.1
				c0,0,0,0,0,0c0.3,0,0.6-0.1,0.8-0.1l0,0l0.2,0c0.3,0,0.6-0.1,0.8-0.1h0c0.3,0,0.5,0,0.8-0.1h0.2c0.3,0,0.6,0,0.8-0.1c0,0,0,0,0,0
				h0.1c0.2,0,0.5,0,0.7,0c0,0,0,0,0,0h0.2c0.3,0,0.5,0,0.8,0h0.2c0.2,0,0.5,0,0.7,0h0.2c0.3,0,0.5,0,0.8,0h0.2c0.2,0,0.5,0,0.8,0
				l0,0h0c0,0,0.1,0,0.1,0c0.3,0,0.5,0,0.8,0h0.2c0.3,0,0.5,0,0.8,0h0.1c0.2,0,0.5,0,0.8,0h0.2c0.3,0,0.5,0,0.8,0c0,0,0,0,0,0h0
				c0.1,0,0.1,0,0.1,0l0,0c0.2,0,0.5,0,0.7,0h0.2c0.3,0,0.5,0,0.8,0.1l0.2,0c0.2,0,0.5,0,0.7,0.1c0.1,0,0.1,0,0.2,0
				c0.3,0,0.5,0.1,0.8,0.1h0c0.1,0,0.1,0,0.2,0c0.2,0,0.5,0.1,0.8,0.1h0.1c0,0,0,0,0,0c0.3,0,0.5,0.1,0.8,0.1c0.1,0,0.2,0,0.2,0
				c0.3,0,0.5,0.1,0.8,0.1h0l0.1,0c0.2,0,0.5,0.1,0.8,0.1l0.2,0c0.3,0,0.6,0.1,0.8,0.1l0.2,0l0,0c0.2,0,0.5,0.1,0.7,0.1l0.2,0
				c0.3,0.1,0.6,0.1,0.8,0.1l0.2,0c0.2,0.1,0.5,0.1,0.8,0.1l0.1,0c0,0,0,0,0,0c0.3,0.1,0.6,0.1,0.8,0.2l0,0l0,0c0.1,0,0.1,0,0.2,0
				c0,0,0,0,0,0c0.3,0.1,0.6,0.1,0.9,0.2c0.1,0,0.3,0.1,0.4,0.1c0.3,0.1,0.6,0.1,0.8,0.2h0c0.1,0,0.1,0,0.2,0l0,0
				c0.3,0.1,0.6,0.1,0.8,0.2c0,0,0,0,0,0l0.1,0l0,0c0.2,0.1,0.5,0.1,0.8,0.2l0.2,0.1l0,0c0.3,0.1,0.5,0.1,0.8,0.2l0.2,0.1
				c0.2,0.1,0.5,0.1,0.7,0.2l0.2,0.1c0.3,0.1,0.5,0.1,0.8,0.2l0.2,0.1c0.2,0.1,0.5,0.1,0.7,0.2l0.1,0h0c0.3,0.1,0.5,0.2,0.8,0.2
				c0.1,0,0.2,0.1,0.2,0.1c0.3,0.1,0.5,0.2,0.8,0.2c0,0,0,0,0,0l0.1,0c0.2,0.1,0.5,0.2,0.7,0.2c0.1,0,0.1,0.1,0.2,0.1h0
				c0.3,0.1,0.5,0.2,0.8,0.3c0.1,0,0.1,0.1,0.2,0.1c0.2,0.1,0.4,0.2,0.6,0.2l0.2,0.1c0.3,0.1,0.5,0.2,0.8,0.3l0.2,0.1l0,0
				c0.2,0.1,0.4,0.2,0.6,0.2l0,0c0.1,0,0.1,0,0.1,0.1h0l0,0c0.2,0.1,0.5,0.2,0.8,0.3l0.2,0.1c0.2,0.1,0.5,0.2,0.7,0.3l0.1,0
				c0.3,0.1,0.5,0.2,0.8,0.3l0.2,0.1c0.3,0.1,0.5,0.2,0.8,0.3c0,0,0.1,0,0.1,0l0,0l0,0c0.2,0.1,0.5,0.2,0.7,0.3l0.2,0.1
				c0.2,0.1,0.5,0.2,0.8,0.3l0.2,0.1c0.2,0.1,0.4,0.2,0.6,0.3l0.2,0.1c0.2,0.1,0.5,0.2,0.8,0.3l0.2,0.1l0,0l0,0
				c0.2,0.1,0.4,0.2,0.6,0.3l0.1,0.1c0,0,0,0,0,0c0.2,0.1,0.5,0.2,0.8,0.4l0.2,0.1c0.2,0.1,0.5,0.2,0.7,0.4h0
				c0.2,0.1,0.5,0.3,0.8,0.4l0.2,0.1l0,0c0.2,0.1,0.5,0.3,0.7,0.4l0,0l0.1,0.1c0.2,0.1,0.5,0.2,0.7,0.4l0,0l0.1,0c0,0,0.1,0,0.1,0.1
				c0.2,0.1,0.5,0.3,0.7,0.4l0,0l0.1,0.1c0.2,0.1,0.4,0.2,0.6,0.4l0,0c0.1,0,0.1,0.1,0.1,0.1c0.2,0.1,0.5,0.3,0.7,0.4l0.2,0.1
				c0.2,0.1,0.5,0.3,0.7,0.4c0,0,0.1,0,0.1,0.1c0.2,0.1,0.5,0.3,0.7,0.4c0,0,0.1,0.1,0.1,0.1l0.1,0c0.2,0.2,0.5,0.3,0.7,0.5
				c0,0,0,0,0,0l0,0c0.2,0.1,0.5,0.3,0.7,0.5c0.1,0,0.1,0.1,0.2,0.1c0.2,0.2,0.5,0.3,0.7,0.5l0,0l0.1,0.1c0.2,0.1,0.4,0.3,0.6,0.4
				c0.1,0,0.1,0.1,0.2,0.1c0.2,0.2,0.4,0.3,0.7,0.5l0.1,0.1c0.2,0.1,0.4,0.3,0.6,0.4l0.1,0c0,0,0.1,0.1,0.1,0.1
				c0.2,0.1,0.3,0.2,0.5,0.4c7.1-4.3,17.8-8.3,23.2-10c0,0,0.1,0,0.1,0c1.4-0.4,6.4-1.7,10.4-1.5c0,0,0,0,0,0c1.3,0.1,2.7,0.2,4,0.5
				c0.7,0.1,1.4,0.3,2,0.5c1.4,0.4,2.7,1.1,3.8,2c0.1,0.1,0.2,0.2,0.3,0.2c0.7,0.6,1.4,1.4,1.9,2.3c1.3,2,2.3,4.3,3,6.6
				c0.8,2.8,1.3,6.7,1.4,7.8l0,0c0.8,7.6,0.3,15.5-1.3,25.5c-0.2,1.5-0.5,2.9-0.8,4.4c-2,9.7-5.3,18.9-9.7,27.2c0,0.1,0,0.2,0.1,0.4
				c0,0.1,0,0.2,0,0.2v0.1c0,0.2,0.1,0.4,0.1,0.6l0,0l0,0.3c0,0.2,0.1,0.4,0.1,0.6c0,0.1,0,0.2,0,0.3c0,0.2,0.1,0.4,0.1,0.6v0.1
				c0,0.1,0,0.2,0,0.2c0,0.2,0.1,0.4,0.1,0.6l0,0.3l0,0c0,0.2,0.1,0.5,0.1,0.7l0,0.2l0,0c0,0.3,0.1,0.6,0.1,0.9c0,0,0,0.1,0,0.1
				c0,0.1,0.3,6.4-0.5,14.5c0,0,0,0,0,0l-0.1,0.9c0,0.1,0,0.2,0,0.3v0.1c0,0.1,0,0.3-0.1,0.4l0,0v0c-0.2,2.2-0.5,4.4-0.9,6.4
				c-0.2,1.3-0.5,2.6-0.8,3.9c-0.1,0.2-0.1,0.3-0.1,0.5c-0.2,0.6-0.3,1.3-0.5,1.9c-0.9,3-2,6-3.3,8.8c-0.9,2-1.9,4-3,5.9
				c-0.2,0.3-0.4,0.7-0.6,1c-0.1,0.1-0.1,0.2-0.1,0.2c0,0,0,0.1-0.1,0.1l0,0c0,0,0,0.1-0.1,0.1l0,0c0,0.1-0.1,0.1-0.1,0.2l0,0
				c-0.1,0.1-0.1,0.2-0.2,0.2l0,0l-0.1,0.1c0,0,0,0,0,0l0,0c-0.1,0.1-0.1,0.2-0.2,0.3c0,0,0,0,0,0l-0.1,0.1c0,0,0,0,0,0
				c-0.1,0.1-0.1,0.2-0.2,0.3l0,0c0,0-0.1,0.1-0.1,0.1l0,0l0,0c-0.1,0.2-0.2,0.3-0.3,0.5l0,0l0,0c0,0.1-0.1,0.1-0.1,0.2l0,0
				c-0.1,0.2-0.3,0.3-0.4,0.6l0,0c0,0.1-0.1,0.1-0.1,0.2l0,0c-0.2,0.2-0.3,0.4-0.5,0.6c0,0,0,0,0,0l0,0c-0.1,0.1-0.1,0.1-0.2,0.2
				c0,0,0,0,0,0l0,0c-0.2,0.2-0.4,0.5-0.6,0.7c0,0,0,0,0,0c-0.2,0.2-0.4,0.5-0.6,0.7c0,0,0,0,0,0l-0.2,0.2l0,0
				c-0.2,0.2-0.4,0.5-0.7,0.7c0,0,0,0,0,0c-0.1,0.1-0.1,0.2-0.2,0.2l0,0c-0.3,0.3-0.5,0.5-0.8,0.8c0,0,0,0,0,0
				c-0.3,0.3-0.7,0.7-1.1,1.1c0,0,0,0,0,0c-1.6,1.6-3.3,3-5,4.4l0,0c-0.4,0.3-0.8,0.6-1.2,0.9l0,0c-0.3,0.2-0.6,0.4-0.9,0.7
				c0,0,0,0,0,0c0,0,0,0,0,0c-0.3,0.2-0.6,0.4-0.9,0.6c0,0,0,0-0.1,0c-0.2,0.1-0.3,0.2-0.5,0.3c0,0,0,0,0,0l0,0
				c-0.2,0.1-0.3,0.2-0.5,0.3c0,0,0,0-0.1,0c-0.1,0.1-0.3,0.2-0.5,0.3c0,0,0,0-0.1,0c-0.2,0.1-0.3,0.2-0.5,0.3c0,0,0,0,0,0l0,0l0,0
				c-0.2,0.1-0.3,0.2-0.5,0.3l-0.1,0c0,0,0,0,0,0c-0.2,0.1-0.3,0.2-0.5,0.3c0,0-0.1,0-0.1,0.1c-0.1,0.1-0.3,0.2-0.5,0.3l-0.1,0.1h0
				l0,0c-0.2,0.1-0.3,0.2-0.5,0.3l0,0l0,0c-0.2,0.1-0.3,0.2-0.5,0.3c-0.1,0-0.1,0.1-0.1,0.1c-0.2,0.1-0.3,0.2-0.5,0.3c0,0,0,0,0,0
				c-0.2,0.1-0.3,0.2-0.5,0.3h0c0,0-0.1,0-0.1,0.1c-0.2,0.1-0.3,0.2-0.5,0.2l0,0c0,0,0,0-0.1,0c-0.2,0.1-0.3,0.2-0.5,0.3l-0.1,0.1
				c-0.2,0.1-0.3,0.2-0.5,0.2l-0.1,0c0,0,0,0,0,0c-0.2,0.1-0.3,0.2-0.5,0.2h0c0,0-0.1,0-0.1,0.1h0c-0.2,0.1-0.3,0.1-0.5,0.2
				l-0.1,0.1c-0.2,0.1-0.4,0.2-0.5,0.2c-0.1,0-0.1,0.1-0.2,0.1c-0.1,0.1-0.3,0.1-0.4,0.2c-0.1,0-0.1,0.1-0.1,0.1
				c-0.2,0.1-0.4,0.2-0.6,0.2l-0.1,0.1c-0.2,0.1-0.3,0.1-0.5,0.2l-0.1,0.1l0,0c-0.2,0.1-0.4,0.1-0.6,0.2h0c0,0-0.1,0-0.1,0l0,0
				c-0.2,0.1-0.3,0.1-0.5,0.2c-0.1,0-0.1,0.1-0.2,0.1c-0.2,0.1-0.4,0.1-0.6,0.2c0,0-0.1,0-0.1,0.1c-0.2,0.1-0.3,0.1-0.5,0.2l-0.1,0
				c-0.1,0-0.1,0-0.1,0.1c-0.2,0.1-0.4,0.1-0.6,0.2l-0.1,0l0,0c-0.2,0.1-0.4,0.1-0.5,0.2c-0.1,0-0.1,0-0.2,0.1
				c-0.2,0.1-0.4,0.1-0.6,0.2h0l0,0c-9.8,2.6-20.4,4-31.6,3.9c-0.3,0-0.7,0-1,0c-0.6,0-1.3,0-2,0c-3.4-0.1-6.8-0.3-10.2-0.6
				c-0.7-0.1-1.4-0.1-2.1-0.2c-0.3,0-0.7-0.1-1-0.1c-0.7-0.1-1.4-0.2-2.1-0.3c-0.3-0.1-0.7-0.1-1-0.1
				C331.7,295.1,328.1,294.5,324.5,293.7z M323.1,289.7c0.1,0,0.2,0.1,0.3,0.1c4.1,0.9,8.3,1.6,12.3,2.2c0.3,0.1,0.7,0.1,1,0.1
				c0.6,0.1,1.3,0.2,2,0.2c0.3,0,0.7,0.1,1,0.1c0.7,0.1,1.3,0.1,2,0.2c3.3,0.3,6.7,0.5,10,0.6c0.7,0,1.3,0,2,0c0.3,0,0.6,0,1,0
				c10.8,0.1,21.1-1.2,30.6-3.8c0.2-0.1,0.4-0.1,0.6-0.2c0,0,0,0,0,0c0.1,0,0.1,0,0.1,0l0,0c0.2-0.1,0.3-0.1,0.5-0.2l0.1,0
				c0.2-0.1,0.4-0.1,0.6-0.2l0,0c0,0,0.1,0,0.1,0l0.1,0c0.2-0.1,0.3-0.1,0.5-0.2l0,0c0,0,0.1,0,0.1,0c0.2-0.1,0.4-0.1,0.5-0.2
				c0.1,0,0.1,0,0.1-0.1c0.1-0.1,0.3-0.1,0.4-0.2c0.1,0,0.1,0,0.1-0.1c0.2-0.1,0.3-0.1,0.5-0.2l0.1-0.1c0.1-0.1,0.3-0.1,0.4-0.2
				l0.1-0.1c0.2-0.1,0.3-0.1,0.5-0.2c0,0,0.1,0,0.1-0.1c0,0,0,0,0,0c0.1-0.1,0.3-0.1,0.4-0.2l0,0c0.1,0,0.1,0,0.1-0.1
				c0.2-0.1,0.3-0.2,0.5-0.2l0.1-0.1c0.1-0.1,0.3-0.1,0.4-0.2c0.1,0,0.1-0.1,0.1-0.1l0,0c0.2-0.1,0.3-0.2,0.5-0.2l0.1,0c0,0,0,0,0,0
				c0.1-0.1,0.3-0.1,0.4-0.2l0.1-0.1c0.2-0.1,0.3-0.2,0.5-0.2c0,0,0,0,0.1,0c0.2-0.1,0.3-0.2,0.5-0.2c0.1,0,0.1-0.1,0.1-0.1
				c0.2-0.1,0.3-0.2,0.5-0.2c0,0,0,0,0,0c0.2-0.1,0.3-0.2,0.5-0.3c0,0,0,0,0,0c0,0,0.1,0,0.1-0.1c0.2-0.1,0.3-0.2,0.5-0.2l0,0
				c0,0,0,0,0.1,0c0.1-0.1,0.3-0.2,0.4-0.2l0.1-0.1l0,0c0.1-0.1,0.3-0.2,0.4-0.3l0,0l0,0h0c0.2-0.1,0.3-0.2,0.5-0.3l0.1,0
				c0,0,0,0,0,0c0.1-0.1,0.3-0.2,0.4-0.2c0,0,0.1,0,0.1-0.1c0.2-0.1,0.3-0.2,0.5-0.3c0,0,0,0,0,0l0,0c0,0,0,0,0,0
				c0.1-0.1,0.3-0.2,0.4-0.3c0,0,0,0,0.1,0c0.2-0.1,0.3-0.2,0.5-0.3c0,0,0,0,0,0c0.1-0.1,0.3-0.2,0.4-0.3c0,0,0,0,0,0c0,0,0,0,0,0
				c0.3-0.2,0.6-0.4,0.9-0.6c0,0,0,0,0,0c0,0,0,0,0,0c0.3-0.2,0.6-0.4,0.9-0.6l0,0c0.4-0.3,0.8-0.6,1.1-0.9l0,0l0,0
				c1.6-1.3,3.2-2.7,4.7-4.1c0,0,0,0,0,0c0.4-0.3,0.7-0.7,1-1l0,0c0.2-0.2,0.5-0.5,0.7-0.7c0,0,0,0,0,0c0.1-0.1,0.1-0.1,0.2-0.2
				c0,0,0,0,0.1-0.1c0.2-0.2,0.4-0.5,0.6-0.7l0,0l0.2-0.2c0,0,0,0,0,0c0.2-0.2,0.4-0.4,0.6-0.7c0,0,0,0,0.1-0.1
				c0.2-0.2,0.3-0.4,0.5-0.6l0,0c0.1-0.1,0.1-0.1,0.2-0.2c0,0,0,0,0,0l0,0c0.1-0.2,0.3-0.3,0.5-0.6c0,0,0,0,0,0l0,0
				c0.1-0.1,0.1-0.1,0.1-0.2l0,0c0.1-0.2,0.3-0.3,0.4-0.5l0,0c0-0.1,0.1-0.1,0.1-0.1l0,0l0,0c0.1-0.1,0.2-0.3,0.3-0.4l0,0
				c0,0,0.1-0.1,0.1-0.1c0,0,0,0,0.1-0.1c0.1-0.1,0.1-0.1,0.1-0.2c0,0,0,0,0,0l0.1-0.1l0,0c0.1-0.1,0.1-0.2,0.2-0.3c0,0,0,0,0,0
				l0.1-0.1c0,0,0,0,0,0c0.1-0.1,0.1-0.2,0.1-0.2c0,0,0,0,0,0c0.1-0.1,0.1-0.1,0.1-0.2c0,0,0,0,0,0c0-0.1,0.1-0.1,0.1-0.2l0,0
				c0.2-0.3,0.4-0.7,0.6-1c1-1.9,2-3.8,2.9-5.6c1.3-2.7,2.3-5.5,3.1-8.3c0.2-0.6,0.3-1.2,0.5-1.8c0.1-0.2,0.1-0.3,0.1-0.5
				c0.3-1.2,0.5-2.4,0.8-3.7l0,0c0.3-2,0.6-4.1,0.8-6.2l0,0v0c0-0.1,0-0.3,0.1-0.4v-0.1c0-0.1,0-0.2,0-0.3l0.1-0.8c0,0,0,0,0,0V239
				c0.7-7.6,0.5-13.5,0.5-14c0,0,0,0,0,0c0-0.3-0.1-0.6-0.1-0.9l0-0.2l0,0c0-0.2,0-0.5-0.1-0.7l0-0.3c0-0.2,0-0.4-0.1-0.6
				c0-0.1,0-0.1,0-0.2v-0.1c0-0.2-0.1-0.4-0.1-0.6c0-0.1,0-0.2,0-0.3l0,0c0-0.2-0.1-0.4-0.1-0.6l0-0.3c0-0.2-0.1-0.4-0.1-0.6v-0.1
				c0-0.1,0-0.1,0-0.2c0-0.2-0.1-0.4-0.1-0.6c0-0.1,0-0.2,0-0.2c0,0,0-0.1,0-0.1c-0.1-0.4,0-0.7,0.2-1c4.4-8.2,7.6-17.2,9.6-26.7
				c0.3-1.4,0.5-2.8,0.8-4.2c1.6-9.7,2-17.3,1.3-24.6c-0.2-2.2-0.7-5.2-1.3-7.2c-0.6-2-1.5-3.9-2.6-5.7c-0.3-0.6-0.8-1-1.3-1.5
				c-0.1-0.1-0.1-0.1-0.2-0.2l0,0c-0.7-0.6-1.6-1-2.5-1.3c-0.6-0.2-1.2-0.3-1.8-0.4c-1.2-0.2-2.3-0.4-3.5-0.4h0
				c-2.7-0.1-6.5,0.6-9.2,1.3c-5.5,1.7-16.4,5.8-23.2,10.2l0,0c-0.6,0.5-1.5,0.5-2.1,0.1c0,0-0.1-0.1-0.1-0.1c0,0,0,0-0.1-0.1
				c-0.2-0.1-0.4-0.3-0.6-0.4c-0.1-0.1-0.1-0.1-0.2-0.1c-0.2-0.2-0.4-0.3-0.6-0.5c0,0-0.1,0-0.1-0.1l-0.1-0.1
				c-0.2-0.1-0.4-0.3-0.6-0.4l-0.1-0.1c-0.2-0.2-0.4-0.3-0.6-0.5c-0.1,0-0.1-0.1-0.1-0.1l0,0c-0.2-0.1-0.4-0.3-0.6-0.4l0,0l-0.1-0.1
				c-0.2-0.1-0.4-0.3-0.6-0.4c-0.1,0-0.1-0.1-0.2-0.1c-0.2-0.1-0.4-0.3-0.7-0.4l0,0c-0.2-0.1-0.5-0.3-0.7-0.4l-0.2-0.1
				c-0.2-0.1-0.5-0.3-0.7-0.4c0,0,0,0,0,0l0,0c0,0,0,0,0,0c-0.2-0.1-0.4-0.3-0.6-0.4l-0.2-0.1c-0.2-0.1-0.5-0.3-0.7-0.4l-0.1-0.1
				l0,0c-0.2-0.1-0.4-0.2-0.6-0.3l-0.1-0.1c-0.2-0.1-0.5-0.3-0.7-0.4l0,0l-0.1,0c0,0-0.1,0-0.1-0.1c-0.2-0.1-0.4-0.2-0.6-0.3l0,0
				l-0.1-0.1c-0.2-0.1-0.5-0.2-0.7-0.4l-0.2-0.1c-0.2-0.1-0.5-0.2-0.7-0.4c0,0,0,0-0.1,0c-0.2-0.1-0.5-0.2-0.7-0.3l-0.2-0.1
				c-0.2-0.1-0.5-0.2-0.7-0.3l-0.1-0.1l0,0c-0.2-0.1-0.4-0.2-0.6-0.3l0,0c0,0-0.1,0-0.1-0.1l-0.1,0c-0.2-0.1-0.5-0.2-0.7-0.3
				l-0.2-0.1c-0.2-0.1-0.4-0.2-0.6-0.3l-0.1-0.1c-0.2-0.1-0.5-0.2-0.7-0.3l-0.2-0.1c-0.2-0.1-0.4-0.2-0.7-0.3l-0.1,0c0,0,0,0,0,0
				c-0.2-0.1-0.5-0.2-0.7-0.3l-0.2-0.1c-0.2-0.1-0.5-0.2-0.7-0.3l-0.1,0c-0.2-0.1-0.5-0.2-0.7-0.3l-0.2-0.1
				c-0.2-0.1-0.5-0.2-0.7-0.3h0c-0.1,0-0.1,0-0.2-0.1c-0.2-0.1-0.4-0.2-0.6-0.2l-0.2-0.1c-0.2-0.1-0.5-0.2-0.7-0.3l-0.2-0.1
				c-0.2-0.1-0.4-0.1-0.6-0.2c0,0,0,0,0,0c-0.1,0-0.1,0-0.1-0.1c-0.2-0.1-0.5-0.2-0.8-0.2h0c-0.1,0-0.1,0-0.2-0.1l0,0
				c-0.2-0.1-0.5-0.2-0.7-0.2c0,0,0,0,0,0l-0.1,0c-0.2-0.1-0.5-0.2-0.8-0.2c-0.1,0-0.1-0.1-0.2-0.1l0,0c-0.2-0.1-0.5-0.2-0.8-0.2
				l-0.1,0h0c-0.2-0.1-0.5-0.1-0.7-0.2l-0.2-0.1c-0.3-0.1-0.5-0.1-0.8-0.2l-0.2-0.1c-0.2-0.1-0.4-0.1-0.7-0.2l-0.2-0.1
				c-0.3-0.1-0.5-0.1-0.8-0.2l-0.2-0.1c-0.2-0.1-0.5-0.1-0.7-0.2l0,0l-0.1,0c-0.3-0.1-0.5-0.1-0.8-0.2c-0.1,0-0.1,0-0.2-0.1
				c-0.3-0.1-0.5-0.1-0.8-0.2c0,0,0,0,0,0c-0.1,0-0.1,0-0.2,0c-0.1,0-0.1,0-0.2-0.1c-0.3-0.1-0.5-0.1-0.8-0.2c-0.1,0-0.1,0-0.2,0
				l0,0c-0.3-0.1-0.5-0.1-0.8-0.2l-0.1,0c0,0,0,0,0,0c-0.2-0.1-0.5-0.1-0.7-0.1l-0.2,0c-0.3-0.1-0.5-0.1-0.8-0.1l-0.2,0
				c-0.2,0-0.5-0.1-0.7-0.1l-0.2,0c-0.3,0-0.5-0.1-0.8-0.1l-0.2,0c-0.2,0-0.5-0.1-0.7-0.1h0l-0.1,0c-0.3,0-0.5-0.1-0.8-0.1
				c-0.1,0-0.2,0-0.2,0c-0.3,0-0.5-0.1-0.8-0.1h-0.1l0,0c-0.2,0-0.5-0.1-0.7-0.1l0,0c-0.1,0-0.1,0-0.2,0h0c-0.3,0-0.5-0.1-0.8-0.1
				c-0.1,0-0.1,0-0.2,0h0c-0.2,0-0.5,0-0.7-0.1l-0.2,0c-0.3,0-0.5,0-0.8-0.1H341c-0.2,0-0.4,0-0.7,0c-0.1,0-0.1,0-0.2,0l0,0
				c-0.3,0-0.5,0-0.8,0h-0.2c-0.2,0-0.5,0-0.7,0h-0.1c-0.3,0-0.5,0-0.8,0h-0.2c-0.3,0-0.5,0-0.8,0c0,0,0,0,0,0h-0.1
				c-0.2,0-0.5,0-0.7,0h-0.2c-0.3,0-0.5,0-0.8,0h-0.2c-0.2,0-0.5,0-0.7,0h-0.2c-0.3,0-0.5,0-0.8,0h-0.1c0,0-0.1,0-0.1,0
				c-0.2,0-0.5,0-0.7,0l0,0h-0.1c-0.3,0-0.5,0-0.8,0.1h-0.2c-0.3,0-0.5,0-0.8,0.1c0,0-0.1,0-0.1,0c-0.3,0-0.5,0-0.8,0.1l-0.2,0
				c-0.3,0-0.5,0.1-0.8,0.1h-0.1l0,0c-0.2,0-0.5,0.1-0.7,0.1c0,0-0.1,0-0.1,0h-0.1l0,0c-0.3,0-0.5,0.1-0.8,0.1c-0.1,0-0.1,0-0.2,0
				c-0.2,0-0.5,0.1-0.7,0.1l0,0l-0.1,0c-0.3,0-0.5,0.1-0.8,0.1l-0.2,0c-0.2,0-0.5,0.1-0.8,0.1c0,0,0,0,0,0h0h0
				c-0.3,0-0.5,0.1-0.8,0.1c0,0-0.1,0-0.1,0h-0.1c-0.3,0.1-0.5,0.1-0.8,0.1h0c-0.3,0.1-0.5,0.1-0.8,0.1l-0.2,0
				c-0.3,0.1-0.5,0.1-0.8,0.1l-0.1,0l0,0c-0.2,0.1-0.5,0.1-0.7,0.1l0,0c-0.1,0-0.1,0-0.2,0c-0.3,0.1-0.5,0.1-0.8,0.2l-0.2,0
				c-0.2,0.1-0.5,0.1-0.7,0.1l-0.1,0c0,0-0.1,0-0.1,0c-0.3,0.1-0.5,0.1-0.8,0.2c-0.1,0-0.1,0-0.2,0.1c-0.2,0.1-0.5,0.1-0.7,0.2l0,0
				c0,0-0.1,0-0.1,0c0,0-0.1,0-0.1,0c-0.8,0.2-1.6-0.2-1.9-0.9l0,0c-4.5-6.7-13-14.8-17.3-18.5c-2.2-1.7-5.4-3.9-7.9-4.9
				c0,0,0,0,0,0c-1.1-0.4-2.2-0.7-3.4-1c-0.6-0.1-1.2-0.2-1.8-0.3c-0.9-0.1-1.9,0-2.8,0.2l0,0c-0.1,0-0.1,0.1-0.2,0.1
				c-0.6,0.2-1.2,0.5-1.7,0.9c-1.7,1.2-3.3,2.6-4.6,4.2c-1.3,1.6-2.9,4.2-4,6.1c-3.6,6.4-6.2,13.6-8.6,23.1
				c-0.3,1.4-0.7,2.8-0.9,4.2c-2,9.6-2.6,19.1-1.8,28.4c0,0.4-0.1,0.7-0.2,1c0,0,0,0.1,0,0.1c-0.1,0.1-0.1,0.1-0.1,0.2
				c-0.1,0.2-0.2,0.4-0.3,0.5c0,0.1-0.1,0.1-0.1,0.2l-0.1,0.1c-0.1,0.2-0.2,0.3-0.3,0.5l-0.2,0.3c-0.1,0.2-0.2,0.3-0.3,0.5l0,0
				c-0.1,0.1-0.1,0.2-0.1,0.2v0c-0.1,0.2-0.2,0.3-0.3,0.5l0,0.1c0,0.1-0.1,0.1-0.1,0.2c-0.1,0.2-0.2,0.4-0.3,0.6l-0.1,0.2
				c-0.1,0.2-0.2,0.4-0.3,0.6l-0.1,0.2c-0.1,0.3-0.3,0.5-0.4,0.8l0,0c-0.2,0.4-2.7,5.7-5.1,13l0,0.1c0,0,0,0,0,0l-0.2,0.7
				c0,0.1-0.1,0.2-0.1,0.3l0,0.1c-0.1,0.1-0.1,0.3-0.1,0.4v0.1c-0.6,2-1.2,4.1-1.7,6c-0.3,1.2-0.6,2.4-0.8,3.7
				c0,0.2-0.1,0.3-0.1,0.5c-0.1,0.6-0.2,1.2-0.3,1.9c-0.4,2.9-0.5,5.9-0.4,8.8c0.1,2.1,0.2,4.2,0.4,6.3c0,0.4,0.1,0.8,0.1,1.2l0,0v0
				c0,0.1,0,0.1,0,0.2v0c0,0.1,0,0.1,0,0.2v0c0,0.1,0,0.2,0.1,0.2c0,0,0,0,0,0l0,0l0,0.1v0c0,0.1,0.1,0.2,0.1,0.3v0l0,0.1v0
				c0,0.1,0,0.2,0.1,0.2c0,0,0,0.1,0,0.1c0,0,0,0.1,0,0.1v0c0.1,0.2,0.1,0.3,0.1,0.5c0,0,0,0,0,0c0,0,0,0,0,0c0,0.1,0,0.1,0,0.2
				c0,0,0,0,0,0.1c0.1,0.2,0.1,0.4,0.2,0.6v0l0,0c0,0.1,0,0.1,0.1,0.2v0c0,0,0,0,0,0l0,0c0.1,0.3,0.1,0.5,0.2,0.7l0,0v0
				c0,0.1,0.1,0.2,0.1,0.2v0c0.1,0.3,0.2,0.5,0.2,0.8c0,0,0,0.1,0,0.1c0.1,0.3,0.2,0.6,0.3,0.8v0l0.1,0.2c0,0,0,0,0,0.1
				c0.1,0.3,0.2,0.6,0.3,0.9c0,0,0,0,0,0.1c0,0.1,0.1,0.2,0.1,0.3c0,0,0,0,0,0.1c0.1,0.3,0.2,0.6,0.3,0.9l0,0
				c0.2,0.4,0.3,0.9,0.5,1.4v0c0.8,1.9,1.7,3.8,2.7,5.7c0,0,0,0,0,0c0.2,0.4,0.5,0.8,0.7,1.2l0,0c0.2,0.3,0.3,0.6,0.5,0.9
				c0,0,0,0,0,0c0,0,0,0,0,0c0.2,0.3,0.4,0.6,0.6,0.9v0l0,0c0,0,0,0,0,0c0.1,0.1,0.2,0.3,0.3,0.4c0,0,0,0,0,0
				c0.1,0.2,0.2,0.3,0.3,0.5l0,0c0,0,0,0,0,0.1c0.1,0.1,0.2,0.3,0.3,0.4l0,0l0,0c0,0,0,0,0,0c0.1,0.2,0.2,0.3,0.3,0.5
				c0,0,0,0.1,0.1,0.1c0.1,0.1,0.2,0.3,0.3,0.4c0,0,0,0,0,0l0,0.1c0.1,0.2,0.2,0.3,0.3,0.5c0,0,0,0,0,0l0,0c0,0,0,0,0,0
				c0.1,0.1,0.2,0.3,0.3,0.4l0,0l0.1,0.1c0.1,0.1,0.2,0.3,0.3,0.4c0,0,0,0,0,0.1l0,0c0.1,0.1,0.2,0.3,0.3,0.4c0,0,0.1,0.1,0.1,0.1
				l0,0c0.1,0.1,0.2,0.3,0.3,0.4c0,0,0,0,0,0c0.1,0.1,0.2,0.3,0.3,0.4c0,0,0.1,0.1,0.1,0.1c0.1,0.1,0.2,0.3,0.3,0.4l0,0
				c0.1,0.1,0.2,0.3,0.3,0.4l0.1,0.1c0.1,0.1,0.2,0.2,0.3,0.4l0,0l0,0c0.1,0.1,0.2,0.3,0.3,0.4c0,0,0.1,0.1,0.1,0.1
				c0.1,0.1,0.2,0.2,0.3,0.3l0.1,0.1c0.1,0.1,0.2,0.3,0.4,0.4c0,0,0.1,0.1,0.1,0.1l0,0c0.1,0.1,0.2,0.2,0.3,0.3l0,0
				c0,0,0.1,0.1,0.1,0.1c0.1,0.1,0.3,0.3,0.4,0.4l0.1,0.1c0.1,0.1,0.2,0.2,0.3,0.3l0.1,0.1c0.1,0.1,0.3,0.3,0.4,0.4
				c0,0,0.1,0.1,0.1,0.1c0.1,0.1,0.2,0.2,0.3,0.3l0,0c0,0,0.1,0.1,0.1,0.1c0.1,0.1,0.3,0.3,0.4,0.4c0,0,0.1,0.1,0.1,0.1l0,0
				c0.1,0.1,0.2,0.2,0.4,0.3l0.1,0.1c0,0,0.1,0.1,0.1,0.1l0,0c0.1,0.1,0.3,0.3,0.5,0.4l0.1,0.1c0.1,0.1,0.3,0.2,0.4,0.3
				c0.1,0,0.1,0.1,0.1,0.1c0,0,0,0,0,0c0.2,0.1,0.3,0.2,0.5,0.4c7.7,6.1,16.7,11.4,26.6,15.6c0.3,0.1,0.6,0.2,0.9,0.4
				c0.6,0.2,1.2,0.5,1.8,0.8c3,1.2,6.2,2.4,9.4,3.4c0.6,0.2,1.3,0.4,1.9,0.6c0.3,0.1,0.6,0.2,1,0.3c0.7,0.2,1.3,0.4,2,0.6
				c0.3,0.1,0.6,0.2,1,0.3c4,1.1,8,2.1,12.2,2.9c0.2,0,0.4,0.1,0.5,0.1C322.9,289.7,323,289.7,323.1,289.7z M255.8,260.1
				C255.8,260.1,255.8,260.2,255.8,260.1C255.8,260.2,255.8,260.1,255.8,260.1z M255,259.1C255,259.1,255,259.1,255,259.1
				C255,259.1,255,259.1,255,259.1z M398.4,288C398.4,288,398.4,288,398.4,288C398.4,288,398.4,288,398.4,288z M398.4,288L398.4,288
				L398.4,288z M254.2,258.2C254.2,258.2,254.3,258.2,254.2,258.2C254.3,258.2,254.2,258.2,254.2,258.2z M398.4,288L398.4,288
				L398.4,288z M254.2,258.2L254.2,258.2L254.2,258.2z M394.4,286L394.4,286L394.4,286L394.4,286z M400.6,286.7
				C400.6,286.7,400.6,286.7,400.6,286.7C400.6,286.7,400.6,286.7,400.6,286.7z M252.7,256.1L252.7,256.1L252.7,256.1z M257.8,257
				L257.8,257L257.8,257z M250.2,252.1L250.2,252.1L250.2,252.1L250.2,252.1z M411.9,277.5C411.9,277.5,411.9,277.5,411.9,277.5
				C411.9,277.5,411.9,277.5,411.9,277.5z M411.9,277.5L411.9,277.5L411.9,277.5z M412.9,276.5L412.9,276.5L412.9,276.5
				C412.9,276.5,412.9,276.5,412.9,276.5z M412.9,276.5L412.9,276.5L412.9,276.5z M413.1,276.3L413.1,276.3L413.1,276.3z
				 M245.4,241.6L245.4,241.6L245.4,241.6z M245.4,241.6L245.4,241.6L245.4,241.6z M409.3,275.1L409.3,275.1L409.3,275.1z
				 M409.3,275.1L409.3,275.1L409.3,275.1z M249.4,242L249.4,242L249.4,242z M249.4,242L249.4,242L249.4,242z M409.4,274.9
				L409.4,274.9L409.4,274.9z M249.3,241.8L249.3,241.8L249.3,241.8z M413.6,275.7C413.6,275.7,413.6,275.7,413.6,275.7
				C413.6,275.7,413.6,275.7,413.6,275.7z M413.6,275.7L413.6,275.7L413.6,275.7z M245.2,240.9C245.2,240.9,245.2,240.9,245.2,240.9
				C245.2,240.9,245.2,240.9,245.2,240.9z M245.2,240.9C245.2,240.9,245.2,240.9,245.2,240.9C245.2,240.9,245.2,240.9,245.2,240.9z
				 M245.1,240.7L245.1,240.7L245.1,240.7z M409.9,274.5L409.9,274.5L409.9,274.5z M409.9,274.5L409.9,274.5L409.9,274.5z
				 M409.9,274.5L409.9,274.5L409.9,274.5z M414.4,274.7L414.4,274.7L414.4,274.7z M414.4,274.7L414.4,274.7L414.4,274.7z
				 M414.4,274.7L414.4,274.7L414.4,274.7z M244.8,239.7L244.8,239.7L244.8,239.7z M244.8,239.7L244.8,239.7L244.8,239.7z
				 M414.6,274.6L414.6,274.6L414.6,274.6z M244.7,239.5L244.7,239.5L244.7,239.5z M244.7,239.5L244.7,239.5L244.7,239.5z
				 M415.1,273.9L415.1,273.9L415.1,273.9z M412.4,271.6L412.4,271.6L412.4,271.6z M414.4,272L414.4,272L414.4,272z M243.9,236.6
				L243.9,236.6L243.9,236.6L243.9,236.6z M247.8,237.4L247.8,237.4L247.8,237.4z M413.2,270.6C413.2,270.7,413.2,270.7,413.2,270.6
				C413.2,270.7,413.2,270.7,413.2,270.6z M247.5,236.4L247.5,236.4L247.5,236.4z M247.5,236.4L247.5,236.4L247.5,236.4z
				 M417.3,271.1C417.3,271.1,417.3,271.1,417.3,271.1C417.3,271.1,417.3,271.1,417.3,271.1z M243.6,235.1L243.6,235.1L243.6,235.1z
				 M243.5,235.1L243.5,235.1L243.5,235.1z M417.4,271L417.4,271L417.4,271z M417.4,271L417.4,271L417.4,271z M413.5,270.2
				L413.5,270.2L413.5,270.2L413.5,270.2z M418,270.1L418,270.1L418,270.1L418,270.1z M416.5,269.1L416.5,269.1L416.5,269.1z
				 M245.1,233.6L245.1,233.6L245.1,233.6z M427.4,217.8L427.4,217.8L427.4,217.8z M255.5,182.3L255.5,182.3L255.5,182.3z
				 M255.5,182.3L255.5,182.3L255.5,182.3z M316.1,141.5L316.1,141.5L316.1,141.5z M316.1,141.5L316.1,141.5L316.1,141.5z
				 M316.1,141.5L316.1,141.5L316.1,141.5z M390.2,156.6L390.2,156.6L390.2,156.6z M313.8,140.8L313.8,140.8L313.8,140.8z
				 M313.8,140.8L313.8,140.8L313.8,140.8z M389.1,155.1L389.1,155.1L389.1,155.1z M384.8,149.9L384.8,149.9L384.8,149.9z
				 M329.9,135.8L329.9,135.8L329.9,135.8z M330.1,135.8L330.1,135.8L330.1,135.8z M330.1,135.8L330.1,135.8L330.1,135.8z"/>
			<path class="st1" d="M425.3,219.9c-0.8-0.2-1.3-0.8-1.4-1.5c-0.9-6.7-2.6-13.3-4.9-19.6c-4.5-12.6-11.8-24.1-21-33.5
				c-0.3-0.3-0.5-0.8-0.5-1.3c0-0.5,0.2-0.9,0.6-1.3c5.3-4.8,11.2-8.8,17.6-12.2c2.3-1.2,4.7-2.3,7-3.3c2.8-1.1,5.6-2.2,8.6-3
				c0.6-0.2,1.2,0,1.7,0.4c0.7,0.6,1.4,1.4,1.9,2.3c1.3,2,2.3,4.3,3,6.6c0.8,2.8,1.3,6.7,1.4,7.8l0,0c0.8,7.6,0.3,15.5-1.3,25.5
				c-0.2,1.5-0.5,2.9-0.8,4.4c-2,9.9-5.4,19.2-10,27.7C426.8,219.6,426.1,220,425.3,219.9C425.3,219.9,425.3,219.9,425.3,219.9z
				 M401.9,164.1c4.3,4.5,8.1,9.4,11.4,14.7c3.7,5.8,6.7,12.1,9.1,18.6c1.7,4.8,3.1,9.8,4.1,14.9c3.2-6.8,5.6-14.1,7.2-21.9
				c0.3-1.4,0.5-2.8,0.8-4.2c1.6-9.7,2-17.3,1.3-24.6c-0.2-2.2-0.7-5.2-1.3-7.2c-0.6-2-1.5-3.9-2.6-5.7c-0.2-0.3-0.4-0.5-0.6-0.8
				c-2.4,0.7-4.8,1.6-7.2,2.6c-2.3,0.9-4.5,2-6.7,3.1C411.8,156.6,406.6,160.1,401.9,164.1z"/>
		</g>
		<path class="st16" d="M280.5,334.8c0,0,10.8-14.8,0.4-32.8c0,0-11.9,0.4-14.3,5.2c-2.4,4.8-3.8,12.4,0,17.3
			C270.6,329.4,276.6,333.5,280.5,334.8z"/>
		<path class="st17" d="M285.2,322.5c-0.9-0.2-15.5-4-20.1-9.3c0,0,0,6.9,2.1,11.8c3.9,4.6,9.6,8.4,13.3,9.7
			C280.5,334.8,284.1,330,285.2,322.5z"/>
		<path class="st13" d="M393.7,347c-0.1-0.3-4.2,13-4.2,13l-5.5,9.1c0,0,20.3,10.1,41.2-1.5s24.3-27.9,23.3-36
			c-1-8.1-3.8-19.1-8.3-25.2s-8.8-8.8-8.8-8.8s1.7,14.9-3.2,24.9c-4.9,10-7.5,17.8-16.8,20.6C402.2,345.8,393.7,347,393.7,347z"/>
		<path class="st16" d="M432.6,299c-0.5-0.5,16.9,34.1-3.9,53.4c-16,14.8-39.3,7.7-39.3,7.7s-7.6,6.9-1.7,9.5
			c5.9,2.6,35.8,9.3,52.1-13.4C456.1,333.3,441.3,308.1,432.6,299z"/>
		<g>
			<path class="st1" d="M332.9,348.9c-11.6,0-24-2-36.7-6.1c-11.5-3.7-20.4-8.1-24.8-10.4c-3-1.6-5.2-4.2-6.4-7.3
				c-1.2-3.3-1.9-6.8-2.1-10.7c-0.1-3.6,1.1-7,3.5-9.7c2.4-2.7,5.6-4.3,9.2-4.6l44.5-3.8c14-1.2,28.1,2.6,39.6,10.8
				c0.8,0.6,1,1.6,0.4,2.4c-0.6,0.8-1.6,1-2.4,0.4c-10.8-7.6-24.1-11.2-37.4-10.1l-44.5,3.8c-5.5,0.5-9.7,5.2-9.5,10.7
				c0.1,3.4,0.8,6.7,1.9,9.6c0.9,2.3,2.6,4.3,4.8,5.5c4.2,2.3,13,6.6,24.2,10.2c13.4,4.3,26.4,6.3,38.5,5.9c1,0,1.8,0.7,1.8,1.7
				c0,1-0.7,1.8-1.7,1.8C334.9,348.9,333.9,348.9,332.9,348.9z"/>
		</g>
		<g>
			<path class="st1" d="M359.8,307.6c-1.7,0-3.4-0.1-5.1-0.1c-1-0.1-1.7-0.9-1.6-1.8c0.1-1,0.9-1.7,1.8-1.6
				c11.7,0.6,22-1.2,28.5-2.9c5.2-1.3,9-2.7,10.6-3.4l0.7-10.9c0.1-1,0.9-1.7,1.9-1.6c1,0.1,1.7,0.9,1.6,1.9l-0.8,13l-0.9,0.4
				c-0.2,0.1-4.7,2.1-12.1,4C378.5,306,369.8,307.6,359.8,307.6z"/>
		</g>
		<g>
			<path class="st1" d="M361.1,383.4h-76.4c-4.9,0-9.7-1.4-13.9-4c-4.2-2.6-7.5-6.4-9.5-10.9c-3.5-7.5-5.3-14.6-5.2-21
				c0.1-8.6,3.5-15.9,10.1-21.4c0.7-0.6,1.8-0.5,2.4,0.2c0.6,0.7,0.5,1.8-0.2,2.4c-5.8,4.9-8.8,11.2-8.9,18.8
				c-0.1,5.9,1.6,12.4,4.9,19.5c1.8,3.8,4.7,7.1,8.3,9.4c3.6,2.3,7.7,3.5,12,3.5h76.4c4.4,0,8.6-1.3,12.2-3.7
				c6.9-4.7,12.1-11.5,15.6-20.3c2.8-7.1,4.5-15.4,5-24.8c0.8-16.1-2.2-29.9-2.2-30c-0.2-0.9,0.4-1.9,1.3-2.1
				c0.9-0.2,1.9,0.4,2.1,1.3c0.1,0.6,3.1,14.3,2.3,30.9c-0.5,9.8-2.3,18.5-5.2,26c-3.7,9.4-9.4,16.8-16.9,21.9
				C371.1,381.9,366.2,383.4,361.1,383.4z"/>
		</g>
		<g>
			<path class="st1" d="M299.2,359.1c-0.8,0-1.6-0.6-1.7-1.5c-2.2-12.8-5.2-16.4-5.2-16.4c-0.6-0.7-0.6-1.8,0.1-2.4
				c0.7-0.6,1.8-0.6,2.4,0.1c0.4,0.4,3.7,4.4,6.1,18.1c0.2,0.9-0.5,1.9-1.4,2C299.4,359.1,299.3,359.1,299.2,359.1z"/>
		</g>
		<g>
			<path class="st1" d="M301.8,301.2c-0.2,0-0.5-0.1-0.7-0.1c-0.9-0.4-1.3-1.4-0.9-2.3c2.9-6.6,3.7-11.8,3.7-11.8
				c0.2-0.9,1-1.6,2-1.5c0.9,0.2,1.6,1,1.5,2c0,0.2-0.9,5.6-4,12.6C303.1,300.8,302.5,301.2,301.8,301.2z"/>
		</g>
		<g>
			<path class="st1" d="M405.9,374.6c-1.3,0-2.7-0.1-4-0.2c-10.5-0.8-18-4.5-18.3-4.7c-0.9-0.4-1.2-1.5-0.8-2.3
				c0.4-0.9,1.5-1.2,2.3-0.8c0.1,0.1,7.4,3.6,17.1,4.3c5.7,0.4,11.2-0.2,16.2-1.7c6.3-2,12-5.5,16.9-10.6
				c10.6-10.8,13.6-23.5,9.1-37.7c-2.8-8.7-7.8-16-11.2-20.2c0.2,3.8,0.1,7.7-0.4,11.3c-1.1,8.6-4,15.9-8.7,21.7
				c-6.8,8.4-17.1,13.3-30.6,14.7c-1,0.1-1.8-0.6-1.9-1.6c-0.1-1,0.6-1.8,1.6-1.9c12.6-1.2,22.1-5.7,28.2-13.4
				c4.3-5.3,6.9-12,7.9-20c0.6-4.6,0.6-9.7,0-14.6c-0.1-0.9,0.4-1.9,1.3-2.3s1.9-0.2,2.5,0.5c3.1,3.4,10.7,12.6,14.5,24.5
				c2.2,6.9,2.7,13.6,1.6,20c-1.4,7.7-5.3,14.8-11.5,21.2c-5.4,5.5-11.6,9.4-18.5,11.5C415.2,373.9,410.6,374.6,405.9,374.6z"/>
		</g>
	</g>
</g>
</svg>
