<svg id="Layer_1" data-name="Layer 1" xmlns="http://www.w3.org/2000/svg" xmlns:xlink="http://www.w3.org/1999/xlink" viewBox="0 0 34 37.25"><defs><style>.cls-1{fill:url(#linear-gradient);}.cls-2{fill:#fff;}</style><linearGradient id="linear-gradient" x1="294.57" y1="1819.18" x2="257.28" y2="1819.18" gradientTransform="matrix(0, 1, 1, 0, -1799.18, -256.04)" gradientUnits="userSpaceOnUse"><stop offset="0" stop-color="#181e2f"/><stop offset="1" stop-color="#434d63"/></linearGradient></defs><title>ocean</title><path class="cls-1" d="M37,26.2V13.6a6,6,0,0,0-3-5.2L23,2.1a5.87,5.87,0,0,0-6,0L6,8.4a6,6,0,0,0-3,5.2V26.2a6,6,0,0,0,3,5.2l11,6.3a5.87,5.87,0,0,0,6,0l11-6.3A6.09,6.09,0,0,0,37,26.2Z" transform="translate(-3 -1.27)"/><path class="cls-2" d="M12.83,18.88a1.08,1.08,0,1,1-1.08-1.07h0a1.07,1.07,0,0,1,1.08,1.07m17.09,0a1.08,1.08,0,1,1-1.08-1.07h0a1.07,1.07,0,0,1,1.07,1.07m-8.54,4.25a1.08,1.08,0,1,1-1.08-1.08h0a1.09,1.09,0,0,1,1.08,1.08M17.07,21A1.08,1.08,0,1,1,16,20,1.07,1.07,0,0,1,17.07,21h0m8.55,0A1.08,1.08,0,1,1,24.54,20h0A1.07,1.07,0,0,1,25.62,21M12.48,22.14a.73.73,0,1,1-.73-.73.73.73,0,0,1,.73.73h0m17.09,0a.73.73,0,0,1-1.45,0,.73.73,0,1,1,1.45,0M21,26.44a.73.73,0,1,1-.73-.73h0a.73.73,0,0,1,.73.73m-4.31-2.15A.72.72,0,0,1,16,25a.73.73,0,0,1-.73-.72.73.73,0,0,1,.73-.73h0a.73.73,0,0,1,.72.73h0m8.55,0a.73.73,0,1,1-.73-.73h0a.73.73,0,0,1,.72.73m-13.14.41a.38.38,0,1,1-.38-.38.38.38,0,0,1,.38.38m17.09,0a.38.38,0,1,1-.38-.38.38.38,0,0,1,.38.38M20.68,29a.38.38,0,1,1-.38-.38.38.38,0,0,1,.38.38h0m-4.31-2.15a.38.38,0,1,1-.37-.38.38.38,0,0,1,.37.38m8.55,0a.38.38,0,1,1-.38-.38.38.38,0,0,1,.38.38M21.72,10.6a1.45,1.45,0,1,1-1.45-1.46h0a1.46,1.46,0,0,1,1.45,1.46m0,4.3a1.45,1.45,0,1,1-1.45-1.46h0a1.46,1.46,0,0,1,1.45,1.46m0,4.24a1.45,1.45,0,1,1-1.45-1.45h0a1.45,1.45,0,0,1,1.45,1.45h0m8.55-4.24a1.46,1.46,0,1,1-1.45-1.46h0a1.45,1.45,0,0,1,1.45,1.46m-17.09,0a1.46,1.46,0,1,1-1.46-1.45h0a1.45,1.45,0,0,1,1.46,1.45m4.3-2.15A1.46,1.46,0,1,1,16,11.3a1.45,1.45,0,0,1,1.46,1.45m0,4.24A1.46,1.46,0,1,1,16,15.54,1.46,1.46,0,0,1,17.48,17h0M26,12.75a1.46,1.46,0,1,1-1.46-1.45h0A1.45,1.45,0,0,1,26,12.75M26,17a1.46,1.46,0,1,1-1.46-1.45h0A1.45,1.45,0,0,1,26,17" transform="translate(-3 -1.27)"/></svg>