<svg width="500" height="500" viewBox="0 0 500 500" fill="none" xmlns="http://www.w3.org/2000/svg">
<g clip-path="url(#clip0_4502_35107)">
<path d="M500 0V500H0V0H500Z" fill="url(#paint0_linear_4502_35107)"/>
<g clip-path="url(#clip1_4502_35107)">
<path d="M217.492 155.507C213.754 154.973 213.576 154.795 215.356 154.617C218.738 154.083 226.571 154.795 232.09 156.041C244.907 159.067 256.478 166.9 268.762 180.608L271.966 184.346L276.594 183.634C296.354 180.43 316.649 182.922 333.56 190.755C338.189 192.891 345.488 197.163 346.378 198.231C346.734 198.587 347.268 200.902 347.624 203.216C348.87 211.583 348.336 217.813 345.666 222.62C344.241 225.29 344.241 226.002 345.132 228.317C345.844 230.097 347.98 231.343 349.938 231.343C354.21 231.343 358.661 224.578 360.797 215.143L361.687 211.405L363.289 213.185C372.368 223.332 379.489 237.395 380.557 247.365L380.913 250.035L379.311 247.721C376.641 243.626 374.149 240.956 370.766 238.642C364.714 234.547 358.305 233.301 341.393 232.411C326.084 231.521 317.361 230.275 308.816 227.426C294.218 222.62 286.741 216.389 269.474 193.425C261.819 183.278 257.012 177.759 252.206 173.131C241.703 162.984 231.2 157.643 217.492 155.507Z" fill="#FF007A"/>
<path d="M350.115 178.113C350.471 171.349 351.361 166.898 353.319 162.804C354.032 161.201 354.744 159.777 354.922 159.777C355.1 159.777 354.744 161.023 354.21 162.448C352.785 166.364 352.607 171.883 353.497 178.113C354.744 186.124 355.278 187.192 363.822 195.915C367.739 200.01 372.367 205.172 374.148 207.308L377.174 211.225L374.148 208.376C370.409 204.816 361.864 198.051 359.906 197.161C358.66 196.449 358.482 196.449 357.592 197.339C356.88 198.051 356.702 199.119 356.702 204.282C356.524 212.293 355.456 217.277 352.785 222.44C351.361 225.11 351.183 224.576 352.429 221.55C353.319 219.236 353.497 218.167 353.497 210.513C353.497 195.025 351.717 191.287 340.858 185.056C338.188 183.454 333.559 181.14 330.889 179.893C328.041 178.647 325.905 177.579 326.083 177.579C326.439 177.223 336.942 180.249 341.036 182.03C347.267 184.522 348.335 184.7 349.047 184.522C349.581 183.988 349.937 182.564 350.115 178.113Z" fill="#FF007A"/>
<path d="M224.791 204.637C217.314 194.312 212.508 178.291 213.576 166.363L213.932 162.625L215.712 162.981C218.916 163.515 224.435 165.651 227.105 167.253C234.226 171.526 237.43 177.401 240.457 191.998C241.347 196.271 242.593 201.255 243.127 202.857C244.017 205.527 247.399 211.758 250.248 215.675C252.206 218.523 250.96 219.947 246.509 219.591C239.745 218.879 230.666 212.648 224.791 204.637Z" fill="#FF007A"/>
<path d="M341.037 282.079C305.789 267.837 293.328 255.554 293.328 234.726C293.328 231.699 293.506 229.207 293.506 229.207C293.684 229.207 294.93 230.275 296.532 231.521C303.653 237.218 311.664 239.71 333.916 242.914C346.912 244.873 354.388 246.297 361.153 248.611C382.693 255.732 396.045 270.329 399.249 290.089C400.139 295.786 399.605 306.645 398.181 312.342C396.935 316.792 393.374 324.981 392.484 325.159C392.306 325.159 391.95 324.269 391.95 322.845C391.594 315.368 387.856 308.247 381.625 302.729C374.148 296.32 364.535 291.514 341.037 282.079Z" fill="#FF007A"/>
<path d="M316.114 287.952C315.758 285.281 314.867 281.899 314.333 280.475L313.443 277.805L315.045 279.763C317.36 282.433 319.14 285.637 320.742 290.088C321.988 293.47 321.988 294.538 321.988 300.057C321.988 305.398 321.81 306.644 320.742 309.67C318.962 314.477 316.826 317.859 313.265 321.597C306.857 328.184 298.49 331.744 286.563 333.347C284.426 333.525 278.374 334.059 273.033 334.415C259.682 335.127 250.781 336.551 242.77 339.399C241.702 339.755 240.634 340.111 240.456 339.933C240.1 339.577 245.618 336.373 250.069 334.237C256.299 331.21 262.708 329.608 276.772 327.116C283.714 326.048 290.835 324.624 292.615 323.912C310.239 318.393 318.962 304.686 316.114 287.952Z" fill="#FF007A"/>
<path d="M332.314 316.611C327.685 306.464 326.617 296.851 329.109 287.772C329.465 286.882 329.821 285.992 330.177 285.992C330.533 285.992 331.601 286.526 332.67 287.238C334.806 288.662 339.256 291.155 350.649 297.385C365.069 305.218 373.258 311.271 378.954 318.214C383.939 324.266 386.965 331.209 388.389 339.754C389.279 344.56 388.745 356.131 387.499 360.938C383.583 376.07 374.682 388.175 361.687 395.118C359.728 396.186 358.126 396.898 357.948 396.898C357.77 396.898 358.482 395.118 359.55 392.981C363.823 383.902 364.357 375.179 361.153 365.388C359.194 359.336 355.1 352.037 346.911 339.754C337.12 325.512 334.806 321.774 332.314 316.611Z" fill="#FF007A"/>
<path d="M199.69 371.086C212.863 360.049 229.063 352.216 244.016 349.724C250.425 348.656 261.106 349.012 266.981 350.614C276.416 353.106 284.96 358.447 289.411 365.033C293.683 371.442 295.642 376.961 297.6 389.244C298.312 394.05 299.202 399.035 299.38 400.103C300.804 406.512 303.652 411.496 307.213 414.166C312.731 418.261 322.344 418.439 331.779 414.879C333.381 414.345 334.806 413.81 334.806 413.988C335.162 414.345 330.355 417.549 327.151 419.151C322.7 421.465 319.14 422.177 314.333 422.177C305.789 422.177 298.49 417.727 292.615 408.826C291.369 407.046 288.877 401.883 286.741 397.077C280.51 382.657 277.306 378.385 270.007 373.578C263.598 369.484 255.409 368.594 249.179 371.62C240.99 375.536 238.854 386.04 244.55 392.448C246.864 395.119 251.137 397.255 254.697 397.789C261.284 398.679 266.981 393.516 266.981 386.93C266.981 382.657 265.378 380.165 261.106 378.207C255.409 375.715 249.179 378.563 249.357 384.081C249.357 386.396 250.425 387.82 252.739 388.888C254.163 389.6 254.163 389.6 253.095 389.422C247.933 388.354 246.686 381.945 250.781 377.851C255.765 372.866 266.268 375.002 269.829 381.945C271.253 384.793 271.431 390.49 270.185 394.05C267.159 401.883 258.614 405.978 249.891 403.663C244.016 402.061 241.524 400.459 234.403 393.16C221.942 380.343 217.135 377.851 199.334 375.18L195.951 374.646L199.69 371.086Z" fill="#FF007A"/>
<path fill-rule="evenodd" clip-rule="evenodd" d="M106.053 84.6548C147.531 135.034 211.44 213.362 214.644 217.635C217.314 221.195 216.246 224.578 211.796 227.07C209.303 228.494 204.141 229.918 201.649 229.918C198.8 229.918 195.418 228.494 193.104 226.18C191.502 224.578 184.559 214.431 168.893 190.042C156.966 171.35 146.819 155.862 146.641 155.684C145.929 155.328 145.929 155.328 167.647 194.136C181.355 218.525 185.805 227.248 185.805 228.316C185.805 230.63 185.093 231.876 182.245 235.081C177.438 240.421 175.302 246.474 173.7 259.113C171.92 273.177 167.113 283.146 153.406 300.058C145.395 310.027 144.149 311.807 142.19 315.901C139.698 320.886 138.986 323.734 138.63 330.143C138.274 336.907 138.986 341.18 140.944 347.589C142.725 353.285 144.683 357.024 149.489 364.322C153.584 370.731 156.076 375.538 156.076 377.318C156.076 378.742 156.432 378.742 162.841 377.318C178.15 373.757 190.789 367.705 197.732 360.228C202.005 355.599 203.073 353.107 203.073 346.698C203.073 342.604 202.895 341.714 201.827 339.222C200.046 335.305 196.664 332.101 189.365 327.116C179.752 320.53 175.658 315.189 174.59 308.068C173.7 302.016 174.768 297.921 180.108 286.706C185.627 275.135 187.051 270.328 187.941 258.579C188.475 251.102 189.365 248.076 191.502 245.762C193.816 243.27 195.774 242.379 201.293 241.667C210.372 240.421 216.246 238.107 220.875 233.657C224.969 229.918 226.749 226.18 226.927 220.661L227.105 216.567L224.791 214.074C216.424 204.461 100.534 77 100 77C99.8221 77 102.67 80.3824 106.053 84.6548ZM160.704 337.798C162.663 334.415 161.594 330.143 158.39 328.007C155.364 326.048 150.735 326.938 150.735 329.609C150.735 330.321 151.091 331.033 152.159 331.389C153.762 332.279 153.94 333.169 152.694 335.127C151.447 337.085 151.447 338.866 153.05 340.112C155.542 342.07 158.924 341.002 160.704 337.798Z" fill="#FF007A"/>
<path fill-rule="evenodd" clip-rule="evenodd" d="M232.802 244.158C228.53 245.404 224.435 250.032 223.189 254.661C222.477 257.509 222.833 262.672 224.079 264.274C226.037 266.766 227.818 267.478 232.802 267.478C242.593 267.478 250.96 263.206 251.85 258.043C252.74 253.771 249.002 247.896 243.839 245.226C241.169 243.802 235.65 243.268 232.802 244.158ZM244.195 253.059C245.619 250.923 245.085 248.608 242.415 247.006C237.609 243.98 230.31 246.472 230.31 251.101C230.31 253.415 234.048 255.907 237.609 255.907C239.923 255.907 243.127 254.483 244.195 253.059Z" fill="#FF007A"/>
</g>
</g>
<defs>
<linearGradient id="paint0_linear_4502_35107" x1="250" y1="0" x2="250" y2="500" gradientUnits="userSpaceOnUse">
<stop stop-color="#FFF4FD"/>
<stop offset="1" stop-color="#FFC6DF"/>
</linearGradient>
<clipPath id="clip0_4502_35107">
<rect width="500" height="500" fill="white"/>
</clipPath>
<clipPath id="clip1_4502_35107">
<rect width="299.605" height="345" fill="white" transform="translate(100 77)"/>
</clipPath>
</defs>
</svg>
