<svg width="500" height="500" viewBox="0 0 500 500" fill="none" xmlns="http://www.w3.org/2000/svg">
<g clip-path="url(#clip0_1309_56)">
<path d="M500 500L0 500L0 0L500 0L500 500Z" fill="url(#paint0_linear_1309_56)"/>
<path d="M278.61 251.324C324.758 292.211 370.352 332.758 415.391 372.963C423.722 380.413 424.177 388.303 416.756 396.634C416.471 396.976 416.315 397.146 416.286 397.146C408.894 405.506 401.003 406.003 392.615 398.639C344.022 355.789 296.879 314.048 251.186 273.417C251.009 273.262 250.785 273.177 250.556 273.177C250.327 273.177 250.111 273.262 249.949 273.417C205.194 312.399 158.918 353.102 111.121 395.525C96.4916 408.534 76.915 401.667 77.0003 381.365C77.3415 294.386 77.4979 207.408 77.4694 120.429C77.4694 101.62 93.2928 87.2037 110.396 102.302C155.577 142.337 201.981 183.481 249.608 225.733C249.891 225.977 250.251 226.112 250.621 226.112C250.99 226.112 251.342 225.977 251.612 225.733C296.822 185.983 343.226 145.18 390.824 103.326C399.155 95.9898 407.842 95.7907 416.884 102.729C417.111 102.899 417.31 103.098 417.481 103.326C423.537 113.221 422.343 121.879 413.898 129.3C368.034 169.562 322.953 209.128 278.653 247.997C277.373 249.106 277.359 250.215 278.61 251.324ZM115.429 153.142C115.228 152.962 114.979 152.844 114.713 152.801C114.447 152.758 114.174 152.793 113.927 152.901C113.68 153.008 113.469 153.185 113.319 153.409C113.17 153.633 113.088 153.896 113.083 154.165L112.742 344.771C112.738 345.044 112.814 345.313 112.961 345.543C113.107 345.774 113.318 345.957 113.567 346.07C113.815 346.183 114.091 346.221 114.361 346.18C114.632 346.139 114.884 346.02 115.087 345.837L223.164 250.726C223.318 250.594 223.441 250.431 223.525 250.247C223.609 250.063 223.653 249.863 223.653 249.66C223.653 249.458 223.609 249.258 223.525 249.074C223.441 248.89 223.318 248.726 223.164 248.594L115.429 153.142Z" fill="#A8B5F4"/>
</g>
<defs>
<linearGradient id="paint0_linear_1309_56" x1="250" y1="0" x2="250" y2="500" gradientUnits="userSpaceOnUse">
<stop stop-color="#292929"/>
<stop offset="1" stop-color="#17161A"/>
</linearGradient>
<clipPath id="clip0_1309_56">
<rect width="500" height="500" fill="white"/>
</clipPath>
</defs>
</svg>
