<?xml version="1.0" encoding="utf-8"?>
<!-- Generator: Adobe Illustrator 22.0.0, SVG Export Plug-In . SVG Version: 6.00 Build 0)  -->
<svg version="1.1" id="Layer_1" xmlns="http://www.w3.org/2000/svg" xmlns:xlink="http://www.w3.org/1999/xlink" x="0px" y="0px"
	 viewBox="0 0 500 500" enable-background="new 0 0 500 500" xml:space="preserve">
<g>
	<path fill="#005EDD" d="M0,0c166.7,0,333.3,0,500,0c0,166.7,0,333.3,0,500c-166.7,0-333.3,0-500,0C0,333.3,0,166.7,0,0z
		 M395.8,367.4c-45.2-78.2-90.2-156.1-135.3-234.3c-45.2,78.3-90.1,156.1-135.3,234.3C215.7,367.4,305.5,367.4,395.8,367.4z
		 M104.8,133.2c20.5,35.5,40.7,70.6,61.1,105.9c20.4-35.4,40.7-70.5,61.1-105.9C186.1,133.2,145.7,133.2,104.8,133.2z"/>
	<path fill="#FDFDFE" d="M395.8,367.4c-90.3,0-180.1,0-270.6,0c45.1-78.2,90.1-156.1,135.3-234.3
		C305.6,211.2,350.6,289.2,395.8,367.4z M180.6,336.2c53.4,0,106.3,0,159.8,0c-26.7-46.2-53.2-92.1-79.9-138.4
		C233.7,244,207.3,289.9,180.6,336.2z"/>
	<path fill="#FDFEFE" d="M104.8,133.2c41,0,81.4,0,122.3,0c-20.4,35.4-40.7,70.5-61.1,105.9C145.5,203.7,125.3,168.7,104.8,133.2z"
		/>
	<path fill="#015EDD" d="M180.6,336.2c26.7-46.3,53.2-92.1,79.9-138.4c26.7,46.3,53.2,92.2,79.9,138.4
		C286.9,336.2,234,336.2,180.6,336.2z"/>
</g>
</svg>
