<?xml version="1.0" encoding="utf-8"?>
<!-- Generator: Adobe Illustrator 22.0.0, SVG Export Plug-In . SVG Version: 6.00 Build 0)  -->
<svg version="1.1" id="Layer_1" xmlns="http://www.w3.org/2000/svg" xmlns:xlink="http://www.w3.org/1999/xlink" x="0px" y="0px"
	 viewBox="0 0 500 500" style="enable-background:new 0 0 500 500;" xml:space="preserve">
<style type="text/css">
	.st0{fill:#0D66FE;}
	.st1{fill:#2FE8FE;}
	.st2{fill:#FFFFFF;}
</style>
<rect x="0.7" class="st0" width="500" height="500"/>
<g>
	<path class="st1" d="M445,211.9c-24.8,10-49.7,19.9-74.5,29.9c-3.4-1.8-2.9-5.2-2.9-8.1c-0.1-31.3-0.1-62.5,0-93.8
		c0-3.5,0.2-7.1,2.9-9.9c16.5-10.5,31.5-23,47.2-34.5c9.1-6.6,17.6-14,27.3-19.8C445,121.1,445,166.5,445,211.9z"/>
	<path class="st2" d="M370.5,130c-0.5,37.3-0.6,74.5,0,111.8c-0.1,21,0,42.1-0.2,63.1c-0.3,41.5-17.2,75.5-50.5,99.5
		c-40.9,29.6-85.5,33.1-130.8,10.2c-29.4-14.8-49.4-38.7-60.2-70c-0.5-1.3-1-2.6-1.5-3.9c-5.4-7.2-6.8-15.2-4.8-23.8
		c-0.1-34.7,0-69.4-0.4-104.1c-0.1-5.5,1.6-8.5,6.4-11.1c21.1-11.4,42-23.1,63-34.7c1.4-0.8,3-1.1,5.4-2.1c0,32.3,0,63.9,0,95.4
		c2.5,3,1.9,6.6,1.9,10.1c0.2,13.6-0.3,27.1,0.4,40.7c5.6,24.7,27.2,39.3,50.3,33.9c18-4.2,31.1-19.9,31.7-38.6
		c0.4-10.4,0.3-20.7-0.1-31.1c-0.2-22.8-0.1-45.6-0.1-68.5c0-3.6,0.1-7.1,2.1-10.2c0.1-24.1,0.3-48.1,0.1-72.2c0-5.2,1-8.3,6.1-11
		c25.5-13.6,50.8-27.7,76.1-41.8c4.2-2.4,5.1-1.3,5.1,3.1C370.3,93.2,370.4,111.6,370.5,130z"/>
	<path class="st1" d="M197.6,312.5c-1.9-17.4-0.7-34.8-0.7-52.1c19.2-12.7,36.9-27.6,55.6-41c10.3-7.4,20.4-15.1,30.5-22.7
		c0,26.9,0,53.7,0,80.6c-0.9,2.4-3,3.5-5.3,4.4c-25,9.7-49.8,20-74.6,30.3C201.3,312.6,199.5,312.9,197.6,312.5z"/>
	<path class="st1" d="M122.6,316.9c0.9,8.1,2.5,16,4.8,23.8c-22.8,9.2-45.6,18.3-68.4,27.4c-1.3,0.5-2.6,0.8-4,1.2
		c2.4-6.2,8.7-8.1,13.4-11.7C86.2,343.8,104.5,330.5,122.6,316.9z"/>
</g>
</svg>
