<?xml version="1.0" encoding="utf-8"?>
<!-- Generator: Adobe Illustrator 22.0.0, SVG Export Plug-In . SVG Version: 6.00 Build 0)  -->
<svg version="1.1" id="Layer_1" xmlns="http://www.w3.org/2000/svg" xmlns:xlink="http://www.w3.org/1999/xlink" x="0px" y="0px"
	 viewBox="0 0 40 40" style="enable-background:new 0 0 40 40;" xml:space="preserve">
<style type="text/css">
	.st0{fill:url(#SVGID_1_);}
	.st1{fill:#FFFFFF;}
</style>
<linearGradient id="SVGID_1_" gradientUnits="userSpaceOnUse" x1="1067.2169" y1="-3085.1785" x2="1104.5087" y2="-3085.1785" gradientTransform="matrix(0 1 -1 0 -3065.1785 -1066.0419)">
	<stop  offset="1.198744e-03" style="stop-color:#45BDF0"/>
	<stop  offset="1" style="stop-color:#5A6CFF"/>
</linearGradient>
<path class="st0" d="M37,26.1V13.5c0-2.1-1.1-4.1-3-5.2L23,2c-1.9-1.1-4.1-1.1-6,0L6,8.3c-1.9,1.1-3,3.1-3,5.2v12.6
	c0,2.1,1.1,4.1,3,5.2l11,6.3c1.9,1.1,4.1,1.1,6,0l11-6.3C35.8,30.2,37,28.3,37,26.1z"/>
<g>
	<g id="Layer_1_1_">
		<path class="st1" d="M12.6,17.9c0.2,0.5,0.8,1.4,0.8,1.4l6.3-10.4l-6.2,4.3c-0.4,0.2-0.7,0.6-0.9,1C12,15.3,12,16.7,12.6,17.9z"/>
		<path class="st1" d="M10.1,21.3c0.1,2,1.1,3.9,2.8,5.1l6.8,4.7c0,0-4.3-6.1-7.8-12.2c-0.4-0.6-0.6-1.3-0.7-2.1c0-0.3,0-0.7,0-1
			c-0.1,0.2-0.3,0.5-0.3,0.5c-0.4,0.7-0.6,1.5-0.7,2.4C10,19.6,10,20.4,10.1,21.3z"/>
		<path class="st1" d="M27.4,22.1c-0.2-0.5-0.8-1.4-0.8-1.4l-6.3,10.4l6.1-4.3c0.4-0.2,0.7-0.6,0.9-1C27.9,24.7,28,23.3,27.4,22.1z"
			/>
		<path class="st1" d="M29.9,18.7c-0.1-2-1.1-3.9-2.8-5.1l-6.8-4.7c0,0,4.3,6.1,7.8,12.2c0.4,0.6,0.6,1.3,0.7,2.1c0,0.3,0,0.7,0,1
			c0.1-0.2,0.3-0.5,0.3-0.5c0.4-0.7,0.6-1.5,0.7-2.4C30,20.4,30,19.6,29.9,18.7z"/>
		<path class="st1" d="M12.6,14.1c0.2-0.4,0.5-0.7,0.9-1l6.1-4.3l-6.3,10.4c0,0-0.5-0.9-0.8-1.4C12,16.7,12,15.3,12.6,14.1z
			 M10.1,21.3c0.1,2,1.1,3.9,2.8,5.1l6.8,4.7c0,0-4.3-6.1-7.8-12.2c-0.4-0.6-0.6-1.3-0.7-2.1c0-0.3,0-0.7,0-1
			c-0.1,0.2-0.3,0.5-0.3,0.5c-0.4,0.7-0.6,1.5-0.7,2.4C10,19.6,10,20.4,10.1,21.3z M27.4,22.1c-0.2-0.5-0.8-1.4-0.8-1.4l-6.3,10.4
			l6.1-4.3c0.4-0.2,0.7-0.6,0.9-1C27.9,24.7,28,23.3,27.4,22.1L27.4,22.1z M29.9,18.7c-0.1-2-1.1-3.9-2.8-5.1l-6.8-4.7
			c0,0,4.3,6.1,7.8,12.2c0.4,0.6,0.6,1.3,0.7,2.1c0,0.3,0,0.7,0,1c0.1-0.2,0.3-0.5,0.3-0.5c0.4-0.7,0.6-1.5,0.7-2.4
			C30,20.4,30,19.6,29.9,18.7L29.9,18.7z"/>
	</g>
</g>
</svg>
