<svg xmlns="http://www.w3.org/2000/svg" viewBox="0 0 40 40"><linearGradient id="a" gradientUnits="userSpaceOnUse" x1="-182.583" y1="-729.178" x2="-145.291" y2="-729.178" gradientTransform="rotate(90 -446.568 -262.61)"><stop offset=".039" stop-color="#426a85"/><stop offset=".81" stop-color="#1f3d4f"/></linearGradient><path d="M37 26.3V13.7c0-2.1-1.1-4.1-3-5.2L23 2.2c-1.9-1.1-4.1-1.1-6 0L6 8.5c-1.9 1.1-3 3.1-3 5.2v12.6c0 2.1 1.1 4.1 3 5.2l11 6.3c1.9 1.1 4.1 1.1 6 0l11-6.3c1.8-1.1 3-3 3-5.2z" fill="url(#a)"/><path d="M19.7 10.1c.5-.2 1.1.3.8.8-.1.4-.7.5-1 .2s-.2-.9.2-1zm-5.1.5c.3-.1.7.1.6.5 0 .3-.4.6-.7.4-.4-.2-.3-.8.1-.9zm10.5.9c-.5-.1-.5-.8-.1-.9.3-.2.7.1.7.5 0 .2-.3.5-.6.4zm-9.4 1.3c.5-.3 1.2.1 1.1.7 0 .6-.8.9-1.2.5-.4-.3-.3-1 .1-1.2zm7.5.3c.2-.6 1.1-.6 1.3 0 .2.4-.1.9-.5 1.1-.5 0-1.1-.6-.8-1.1zm-4.1 1c0-.5.4-.8.9-.9.3.1.6.2.8.5.2.4 0 1-.4 1.2-.2.1-.5.1-.7.1-.3-.2-.6-.5-.6-.9zm-7.7.7c.4-.3 1 .2.9.7-.1.4-.7.6-1 .3-.3-.2-.2-.8.1-1zm16.5 0c.4-.3 1 0 1 .5 0 .4-.5.8-.9.5-.4-.2-.5-.8-.1-1zm-6.6.8c.6-.2 1.4 0 1.7.6.5.7.2 1.7-.5 2.1-.8.5-1.9.1-2.1-.8-.4-.7.1-1.6.9-1.9zm-3.7.1c.7-.3 1.6-.1 2 .6.4.7.1 1.6-.6 2s-1.7.1-2-.6c-.5-.7-.1-1.7.6-2zM14 16.9c.1-.4.5-.7.9-.8.5 0 .8.4.9.9 0 .5-.4.9-.9.9-.6.1-1-.4-.9-1zm10.8-.6c.5-.3 1.3.1 1.3.8 0 .7-.8 1.1-1.3.7-.7-.3-.6-1.2 0-1.5zm-8.7 2.3c.6-.2 1.4.1 1.7.7.3.6.2 1.4-.3 1.8-.7.6-1.9.4-2.3-.5-.5-.7.1-1.8.9-2zm7 0c.6-.2 1.4.1 1.7.6.4.6.2 1.6-.4 2-.7.5-1.8.2-2.1-.5-.6-.8-.1-1.9.8-2.1zm-11.1.7c.6-.2 1.2.4.9.9-.1.5-.8.7-1.2.3-.4-.3-.2-1 .3-1.2zm15 .8c0-.5.3-.8.8-.9.4.1.7.4.7.8 0 .5-.6.9-1.1.6-.2-.1-.3-.3-.4-.5zm-17.7-.5c.3-.1.7.1.7.5s-.6.6-.9.2c-.2-.2-.1-.6.2-.7zm21 0c.2-.2.6 0 .7.2.2.3-.1.7-.5.6-.5.1-.6-.6-.2-.8zm-12.4 1.9c.9-.2 1.8.5 1.8 1.4.1.9-.9 1.7-1.8 1.5-.7-.1-1.2-.8-1.2-1.5.1-.6.6-1.2 1.2-1.4zm3.5 0c.9-.2 1.9.5 1.8 1.4 0 .9-.9 1.6-1.7 1.5-.8-.1-1.4-1-1.2-1.8.1-.5.6-.9 1.1-1.1zm-6.7.6c.6-.1 1.2.6.9 1.1-.2.6-1.1.8-1.5.3s0-1.3.6-1.4zm10.2 0c.5-.2 1.2.2 1.2.8 0 .6-.8 1.1-1.3.7-.7-.3-.6-1.3.1-1.5zm2.8 2.8c-.2-.4.2-.9.6-.8.2 0 .4.2.5.3 0 .2.1.5-.1.7-.2.3-.8.2-1-.2zm-16.3-.7c.4-.3 1 .1.9.6-.1.4-.6.7-.9.4-.4-.2-.4-.8 0-1zm8.2.9c.5-.2 1.2.2 1.2.8 0 .7-.8 1.1-1.3.7-.6-.3-.5-1.3.1-1.5zm-3.8.8c.5-.2 1.1.2 1 .7 0 .4-.4.8-.8.7-.3 0-.6-.3-.7-.6.1-.3.2-.6.5-.8zm7.7.1c.5-.3 1.2.1 1.1.7 0 .6-.8.9-1.2.6-.4-.4-.3-1.1.1-1.3zm1.4 3.2c-.2-.3 0-.7.4-.8.3.1.6.3.5.6-.1.4-.7.6-.9.2zm-10.7-.3c.1-.3.3-.5.6-.4.4 0 .6.7.2.9-.3.2-.7-.1-.8-.5zm5.2.3c.1-.4.6-.5.9-.4.2.1.3.3.3.5 0 .1-.1.2-.1.3-.1.2-.3.4-.5.4-.4 0-.8-.4-.6-.8z" fill="#fff"/></svg>