<?xml version="1.0" encoding="utf-8"?>
<!-- Generator: Adobe Illustrator 22.0.0, SVG Export Plug-In . SVG Version: 6.00 Build 0)  -->
<svg version="1.1" id="Layer_1" xmlns="http://www.w3.org/2000/svg" xmlns:xlink="http://www.w3.org/1999/xlink" x="0px" y="0px"
	 viewBox="0 0 500 500" style="enable-background:new 0 0 500 500;" xml:space="preserve">
<style type="text/css">
	.st0{fill:url(#SVGID_1_);}
	.st1{fill:#0F132F;}
	.st2{fill:url(#SVGID_2_);}
	.st3{fill:url(#SVGID_3_);}
</style>
<linearGradient id="SVGID_1_" gradientUnits="userSpaceOnUse" x1="1460" y1="-480" x2="960" y2="20" gradientTransform="matrix(0 -1 1 0 480 1460)">
	<stop  offset="0" style="stop-color:#05025B"/>
	<stop  offset="0.4128" style="stop-color:#0F1330"/>
	<stop  offset="1" style="stop-color:#020015"/>
</linearGradient>
<polygon class="st0" points="500,0 500,500 0,500 0,0 "/>
<g id="b">
	<g id="c">
		<g>
			<g>
				<path class="st1" d="M260.1,346.9l-2.7-0.7c-2.3-0.7-4.8-1-7.2-1c-0.1,0-0.2,0-0.2,0l0,0c-5.7,0-10.2,1.8-13,3.3l-0.9,0.6
					l-0.7,0.4l0,0l0.7-0.4c-0.4-0.3-11.1-9.1-13.4-12.2l-0.3-0.3l-112.1,69l0,0c-0.5,0.4-4.9,3.5-10.4,1.4c-2-0.7-3.5-2-4.9-3.6
					c-1.2-1.6-2-3.6-2-5.8v-22.1c0-3.4,0.8-6.7,2.3-9.6c0.3-0.6,0.7-1.1,0.9-1.7c3.1-5.1,7.7-9.5,13.2-12.5l0,0l71.1-43.2l0,0
					c5-3.6,9.7-7.7,14.1-12c3.4-3.5,6.6-7.1,9.5-10.9c5.4,11.2,12.2,21.7,20.3,31.1c9.4,11.2,20.4,20.9,32.9,28.9L260.1,346.9
					L260.1,346.9z"/>
				<path class="st1" d="M406.8,102.1v23.5c-0.2,2.3-0.7,6.6-3.4,11.2c-2.8,5-6.5,7.8-8.6,9.2l-80.2,50l0,0
					c-7.7,5.6-14,12.4-19.1,20.2c-6.2-14.2-14.6-27-25-38.2c-7.1-7.6-14.9-14.2-23.6-20l-2.8-1.8l3.3,0.7c1.2,0.3,2.4,0.4,3.6,0.4
					h0.2c2.4,0,4.9-0.6,7.2-1.6l2.9-1.8c1.8,0.9,10.2,8.3,13,11.8l0.3,0.4c38.4-23.5,76.7-47.1,115.1-70.6c3.8-2.7,8.8-3,12.5-0.7
					C405.9,97.1,406.7,101.4,406.8,102.1L406.8,102.1z"/>
				<path class="st1" d="M406.8,373.2v25.3c-0.2,1.5-0.9,4.1-3.2,6.2c-1.6,1.4-3.6,2.2-6,2.5c-2.3,0.2-4.8-0.3-7-1.4l-128.2-78.2
					c-13.6-9.2-22.5-19.5-24.9-22.4c-11.4-14-19-27.9-21.3-45.1c-0.3-3.1-0.6-6.3-0.7-10c-0.1-2-0.2-3.4-0.2-4.6
					c-0.1-1.3-0.2-2.2-0.4-3c-3-20.2-17-38.2-31-47.7l0,0l-77-47.2l0,0c-3.5-1.8-6.6-4.4-9.1-7.6c-3.5-4.5-4.8-9.2-5.2-12.2v-24.6
					c0.2-1.8,0.8-5,3.5-7.3c4-3.5,10.7-3.3,16.1,0.6c12,8.5,55.3,34.4,86.8,53.3c15.9,9.5,28.5,17,31.3,18.9l0,0
					c9.2,5.3,17.6,12,25,19.6c10,10.5,17.1,20.4,21.8,30.4c4.2,8.8,6.5,17.7,7.1,27.3c-0.3,6.8,0.5,13.4,2.2,20
					c5.7,20.8,20.4,33.3,28.6,39l0,0l78.5,48.6l0,0c3,1.6,8.3,5.3,11.2,12C406,367.9,406.6,370.5,406.8,373.2L406.8,373.2z"/>
			</g>
			
				<linearGradient id="SVGID_2_" gradientUnits="userSpaceOnUse" x1="214.2455" y1="-233.313" x2="216.6471" y2="-231.0988" gradientTransform="matrix(1 0 0 1 0 480)">
				<stop  offset="3.000000e-02" style="stop-color:#00FFFE"/>
				<stop  offset="1" style="stop-color:#FE00FE"/>
			</linearGradient>
			<path class="st2" d="M215.3,245.5c0.1,1.1,0.2,2.6,0.2,4.6C215.6,248.5,215.5,247,215.3,245.5z"/>
			
				<linearGradient id="SVGID_3_" gradientUnits="userSpaceOnUse" x1="76.9862" y1="-389.4907" x2="423.0753" y2="-70.7747" gradientTransform="matrix(1 0 0 1 0 480)">
				<stop  offset="3.000000e-02" style="stop-color:#00FFFE"/>
				<stop  offset="1" style="stop-color:#FE00FE"/>
			</linearGradient>
			<path class="st3" d="M324.9,209.7l74.8-45.8c6.3-3.6,12-8.6,16.3-14.5c2.7-3.6,4.9-7.7,6.6-11.9c1.3-3.4,2.1-7,2.1-10.7
				c0.3-11.2,0.2-18.8-0.6-24.6c-0.7-6.5-2.2-11.3-4.6-14.9c-2-3-4.5-4.9-6.3-6.3l-0.3-0.3c-4.4-3.3-9.7-5.1-15.2-5.4
				s-10.9,1.1-15.6,4l-121.2,74.4l0,0c1.8,0.9,10.2,8.3,13,11.8l0.3,0.4c38.4-23.5,76.7-47.1,115.1-70.6c3.8-2.7,8.8-3,12.5-0.7
				c3.9,2.4,4.7,6.7,4.9,7.5v23.5c-0.2,2.3-0.7,6.6-3.4,11.2c-2.8,5-6.5,7.8-8.6,9.2l-80.3,49.9l0,0c-7.7,5.6-14,12.4-19.1,20.2
				c-6.2-14.2-14.6-27-25-38.2c-7.1-7.6-14.9-14.2-23.6-20l-2.8-1.8l-1.2-0.7L120.7,80.5c-2.7-1.6-5.6-2.9-8.6-3.7
				c-2.9-0.8-5.9-1.2-9-1.3l0,0c-7.6,0-14.7,3-20,8.4c-5.2,5.3-8.1,12.5-8.1,20v23.9v0.1c0.8,6.5,3.1,13,6.4,18.7
				c3.7,6.1,8.8,11.3,14.8,15.1l0,0c9.2,5.3,18.3,10.8,27.1,16.2c3.7,2.2,5.9,3.6,8.4,5.1c2.7,1.7,5.7,3.5,11.4,7
				c9.2,5.6,14,8.5,16.9,10.3c3.5,2.1,4,2.4,5.8,3.6c12,8.4,19.9,13.9,25.7,24.4c2.1,3.6,6.8,12.2,6.4,23.8
				c-0.3,6.8-2.2,13.5-5.9,19.9c-3,5.2-6.3,9-8.2,10.9c-4.1,4.5-7.8,7.2-9.4,8.3c-11.5,8.2-26.5,16.9-41,25.2
				c-16.8,9.7-32.6,18.8-42.6,26.9c-3.3,2.7-8,7-11.5,13.9c-2.1,4.1-3.4,8.5-4,13.1c0,0.4-0.1,0.7-0.1,1l0.3,29.8v0.1
				c0.5,5.9,3.2,11,9.8,16.6c3,2.5,6.4,4.3,10.4,5.4c3,0.9,6.1,1.4,9.2,1.3c3.8-0.1,7.7-0.8,11.2-2.3l0,0l119.3-73l0.7-0.4
				c-0.4-0.3-11.1-9.1-13.4-12.2l-0.3-0.3l-112.1,69l0,0c-0.5,0.4-4.9,3.5-10.4,1.4c-2-0.7-3.5-2-4.9-3.6c-1.2-1.6-2-3.6-2-5.8
				v-22.1c0-3.4,0.8-6.7,2.3-9.6c0.3-0.6,0.7-1.1,0.9-1.7c3.1-5.1,7.7-9.5,13.2-12.5l0,0l71.1-43.2l0,0c5-3.6,9.7-7.7,14.1-12
				c3.4-3.5,6.6-7.1,9.5-10.9c5.4,11.2,12.2,21.7,20.3,31.1c9.4,11.2,20.4,20.9,32.9,28.9l2.7,1.7l3.5,2.2l117,71.9l0,0
				c4.6,2.4,9.7,3.7,14.8,3.7l0,0c1,0,4.2,0,8-0.9c4.6-1.1,8.6-3.3,11.9-6.3c3.3-3,5.7-6.6,7.4-10.9c1.2-3.1,1.9-6.5,1.9-9.4
				c0-1.8,0-3.5,0-5.3c0-3.5,0-7.1,0-10.6c0.1-7.6-0.4-9.9-0.7-11.6c0-0.1,0-0.3-0.1-0.4c-1.3-7-4.1-11.9-5.1-13.6
				c-2.6-4.6-6.1-8.8-10.4-12.5c-3.6-3.2-6.9-5.2-8.4-6.1c-12-7.5-21.9-13.7-30.6-19.3c-15.5-9.9-27.8-17.7-42.6-25.9
				c-7.6-4.1-13.8-10.3-18.2-17.6c-4.4-7.4-6.6-15.8-6.5-24.4C302.4,223.9,324,210.3,324.9,209.7L324.9,209.7z M315.1,304.9
				L315.1,304.9l78.5,48.6l0,0c3,1.6,8.3,5.3,11.2,12c1,2.4,1.7,5,1.9,7.7v25.3c-0.2,1.5-0.9,4.1-3.2,6.2c-1.6,1.4-3.6,2.2-6,2.5
				c-2.3,0.2-4.8-0.3-7-1.4l-128.1-78.3c-13.6-9.2-22.5-19.5-24.9-22.4c-11.4-14-19-27.9-21.3-45.1c-0.4-3.2-0.7-6.5-0.7-10
				c-0.1-2-0.2-3.4-0.2-4.6c-0.1-1-0.2-2-0.4-3c-3-20.2-17-38.2-31-47.7l0,0l-77-47.2l0,0c-3.5-1.8-6.6-4.4-9.1-7.6
				c-3.5-4.5-4.8-9.2-5.2-12.2v-24.6c0.2-1.8,0.8-5,3.5-7.3c4-3.5,10.7-3.3,16.1,0.6c12,8.5,55.3,34.4,86.8,53.3
				c15.9,9.5,28.5,17,31.3,18.9l0,0c9.2,5.3,17.6,12,25,19.6c10,10.5,17.1,20.4,21.8,30.4c4.2,8.8,6.5,17.7,7.1,27.3
				c-0.3,6.8,0.5,13.4,2.2,20C292.3,286.7,306.9,299.2,315.1,304.9L315.1,304.9z"/>
		</g>
	</g>
</g>
</svg>
