<?xml version="1.0" encoding="utf-8"?>
<!-- Generator: Adobe Illustrator 22.0.0, SVG Export Plug-In . SVG Version: 6.00 Build 0)  -->
<svg version="1.1" id="Layer_1" xmlns="http://www.w3.org/2000/svg" xmlns:xlink="http://www.w3.org/1999/xlink" x="0px" y="0px"
	 viewBox="0 0 500 500" style="enable-background:new 0 0 500 500;" xml:space="preserve">
<style type="text/css">
	.st0{fill:url(#SVGID_1_);}
	.st1{fill:#0F132F;}
	.st2{fill:url(#SVGID_2_);}
	.st3{fill:url(#SVGID_3_);}
</style>
<linearGradient id="SVGID_1_" gradientUnits="userSpaceOnUse" x1="980" y1="500" x2="480" y2="-3.054742e-06" gradientTransform="matrix(0 -1 -1 0 500 980)">
	<stop  offset="0" style="stop-color:#05025B"/>
	<stop  offset="0.4128" style="stop-color:#0F1330"/>
	<stop  offset="1" style="stop-color:#020015"/>
</linearGradient>
<polygon class="st0" points="500,0 500,500 0,500 0,0 "/>
<g id="b">
	<g id="c">
		<g>
			<g>
				<path class="st1" d="M260.8,353.7l-2.9-0.8c-2.5-0.7-5.1-1.1-7.7-1.1c-0.1,0-0.2,0-0.2,0h0c-6.1,0-10.9,1.9-13.9,3.5l-1,0.6
					l-0.7,0.4l0,0l0.7-0.4c-0.4-0.3-11.9-9.7-14.3-13.1l-0.3-0.3l-120.1,73.9l0,0c-0.5,0.4-5.3,3.7-11.1,1.5
					c-2.1-0.8-3.8-2.1-5.2-3.9c-1.3-1.7-2.1-3.9-2.1-6.2v-23.7c0-3.6,0.9-7.2,2.5-10.3c0.3-0.6,0.7-1.2,1-1.8
					c3.3-5.5,8.2-10.2,14.1-13.4l0,0l76.2-46.3l0,0c5.4-3.9,10.4-8.2,15.1-12.9c3.6-3.7,7.1-7.6,10.2-11.7
					c5.8,12,13.1,23.2,21.7,33.3c10.1,12,21.9,22.4,35.2,31L260.8,353.7L260.8,353.7z"/>
				<path class="st1" d="M418,91.5v25.2c-0.2,2.5-0.8,7.1-3.6,12c-3,5.4-7,8.4-9.2,9.8L319.3,192l0,0c-8.2,6-15,13.3-20.5,21.6
					c-6.6-15.2-15.6-28.9-26.8-40.9c-7.6-8.1-16-15.2-25.3-21.4l-3-1.9l3.5,0.7c1.3,0.3,2.6,0.4,3.9,0.4h0.2c2.6,0,5.3-0.6,7.7-1.7
					l3.1-1.9c1.9,1,10.9,8.9,13.9,12.6l0.3,0.4c41.1-25.2,82.2-50.4,123.3-75.6c4.1-2.9,9.4-3.2,13.4-0.7
					C417,86.2,417.9,90.8,418,91.5L418,91.5z"/>
				<path class="st1" d="M418,381.9v27.1c-0.2,1.6-1,4.4-3.4,6.6c-1.7,1.5-3.9,2.4-6.4,2.7c-2.5,0.2-5.1-0.3-7.5-1.5L263.4,333
					c-14.6-9.8-24.1-20.9-26.7-24c-12.2-15-20.4-29.9-22.8-48.3c-0.3-3.3-0.6-6.8-0.7-10.7c-0.1-2.1-0.2-3.6-0.2-4.9
					c-0.1-1.4-0.2-2.4-0.4-3.2c-3.2-21.6-18.2-40.9-33.2-51.1l0,0l-82.5-50.6l0,0c-3.8-1.9-7.1-4.7-9.7-8.1
					c-3.7-4.8-5.1-9.8-5.6-13.1V92.6c0.2-1.9,0.9-5.4,3.7-7.8c4.3-3.7,11.5-3.5,17.2,0.6c12.9,9.1,59.2,36.8,93,57.1
					c17,10.2,30.5,18.2,33.5,20.2h0c9.9,5.7,18.9,12.8,26.8,21c10.7,11.2,18.3,21.8,23.4,32.6c4.5,9.4,7,19,7.6,29.2
					c-0.3,7.3,0.5,14.4,2.4,21.4c6.1,22.3,21.8,35.7,30.6,41.8l0,0l84.1,52.1l0,0c3.2,1.7,8.9,5.7,12,12.9
					C417.1,376.2,417.8,379,418,381.9L418,381.9z"/>
			</g>
			
				<linearGradient id="SVGID_2_" gradientUnits="userSpaceOnUse" x1="211.7651" y1="253.6506" x2="214.3372" y2="251.2792" gradientTransform="matrix(1 0 0 -1 0 500)">
				<stop  offset="3.000000e-02" style="stop-color:#00FFFE"/>
				<stop  offset="1" style="stop-color:#FE00FE"/>
			</linearGradient>
			<path class="st2" d="M212.9,245.1c0.1,1.2,0.2,2.8,0.2,4.9C213.2,248.3,213.1,246.7,212.9,245.1z"/>
			
				<linearGradient id="SVGID_3_" gradientUnits="userSpaceOnUse" x1="64.6263" y1="420.9216" x2="435.4517" y2="79.4258" gradientTransform="matrix(1 0 0 -1 0 500)">
				<stop  offset="3.000000e-02" style="stop-color:#00FFFE"/>
				<stop  offset="1" style="stop-color:#FE00FE"/>
			</linearGradient>
			<path class="st3" d="M330.3,206.8l80.1-49c6.8-3.9,12.8-9.2,17.5-15.5c2.9-3.9,5.3-8.2,7.1-12.7c1.4-3.6,2.2-7.5,2.3-11.5
				c0.3-12,0.2-20.1-0.6-26.4c-0.8-7-2.4-12.1-4.9-16c-2.1-3.2-4.8-5.2-6.7-6.7l-0.3-0.3c-4.7-3.5-10.4-5.5-16.3-5.8
				c-5.9-0.3-11.7,1.2-16.7,4.3L262,146.9c0,0,0,0,0,0c1.9,1,10.9,8.9,13.9,12.6l0.3,0.4c41.1-25.2,82.2-50.4,123.3-75.6
				c4.1-2.9,9.4-3.2,13.4-0.7c4.2,2.6,5,7.2,5.2,8v25.2c-0.2,2.5-0.8,7.1-3.6,12c-3,5.4-7,8.4-9.2,9.8L319.3,192l0,0
				c-8.2,6-15,13.3-20.5,21.6c-6.6-15.2-15.6-28.9-26.8-40.9c-7.6-8.1-16-15.2-25.3-21.4l-3-1.9l-1.3-0.8L111.5,68.4
				c-2.9-1.7-6-3.1-9.2-4c-3.1-0.9-6.3-1.3-9.6-1.4h0c-8.1,0-15.7,3.2-21.4,9c-5.6,5.7-8.7,13.4-8.7,21.4V119l0,0.1
				c0.9,7,3.3,13.9,6.9,20c4,6.5,9.4,12.1,15.9,16.2l0,0c9.8,5.7,19.6,11.6,29,17.3c4,2.4,6.3,3.9,9,5.5c2.9,1.8,6.1,3.8,12.2,7.5
				c9.8,6,15,9.1,18.1,11c3.7,2.2,4.3,2.6,6.2,3.9c12.8,9,21.3,14.9,27.5,26.1c2.2,3.9,7.3,13.1,6.9,25.5
				c-0.3,7.3-2.4,14.5-6.3,21.3c-3.2,5.6-6.8,9.6-8.8,11.7c-4.4,4.8-8.4,7.7-10.1,8.9c-12.3,8.8-28.4,18.1-43.9,27
				c-18,10.4-34.9,20.1-45.6,28.8c-3.5,2.9-8.6,7.5-12.3,14.9c-2.2,4.4-3.6,9.1-4.3,14c0,0.4-0.1,0.7-0.1,1.1l0.3,31.9l0,0.1
				c0.5,6.3,3.4,11.8,10.5,17.8c3.2,2.7,6.9,4.6,11.1,5.8c3.2,1,6.5,1.5,9.8,1.4c4.1-0.1,8.2-0.9,12-2.5l0,0l127.8-78.2l0.7-0.4
				c-0.4-0.3-11.9-9.7-14.3-13.1l-0.3-0.3l-120.1,73.9l0,0c-0.5,0.4-5.3,3.7-11.1,1.5c-2.1-0.8-3.8-2.1-5.2-3.9
				c-1.3-1.7-2.1-3.9-2.1-6.2v-23.7c0-3.6,0.9-7.2,2.5-10.3c0.3-0.6,0.7-1.2,1-1.8c3.3-5.5,8.2-10.2,14.1-13.4l0,0l76.2-46.3l0,0
				c5.4-3.9,10.4-8.2,15.1-12.9c3.6-3.7,7.1-7.6,10.2-11.7c5.8,12,13.1,23.2,21.7,33.3c10.1,12,21.9,22.4,35.2,31l2.9,1.8l3.8,2.4
				L390,433l0,0c4.9,2.6,10.4,4,15.9,4h0c1.1,0,4.5,0,8.6-1c4.9-1.2,9.2-3.5,12.7-6.8c3.5-3.2,6.1-7.1,7.9-11.7c1.3-3.3,2-7,2-10.1
				c0-1.9,0-3.8,0-5.7c0-3.8,0-7.6,0-11.4c0.1-8.1-0.4-10.6-0.8-12.4c0-0.1,0-0.3-0.1-0.4c-1.4-7.5-4.4-12.7-5.5-14.6
				c-2.8-4.9-6.5-9.4-11.1-13.4c-3.9-3.4-7.4-5.6-9-6.5c-12.9-8-23.5-14.7-32.8-20.7c-16.6-10.6-29.8-19-45.6-27.7
				c-8.1-4.4-14.8-11-19.5-18.9c-4.7-7.9-7.1-16.9-7-26.1C306.1,222,329.3,207.4,330.3,206.8L330.3,206.8z M319.8,308.7L319.8,308.7
				l84.1,52.1l0,0c3.2,1.7,8.9,5.7,12,12.9c1.1,2.6,1.8,5.4,2,8.3v27.1c-0.2,1.6-1,4.4-3.4,6.6c-1.7,1.5-3.9,2.4-6.4,2.7
				c-2.5,0.2-5.1-0.3-7.5-1.5L263.4,333c-14.6-9.8-24.1-20.9-26.7-24c-12.2-15-20.4-29.9-22.8-48.3c-0.4-3.4-0.7-7-0.7-10.7
				c-0.1-2.1-0.2-3.6-0.2-4.9c-0.1-1.1-0.2-2.1-0.4-3.2c-3.2-21.6-18.2-40.9-33.2-51.1l0,0l-82.5-50.6l0,0c-3.8-1.9-7.1-4.7-9.7-8.1
				c-3.7-4.8-5.1-9.8-5.6-13.1V92.6c0.2-1.9,0.9-5.4,3.7-7.8c4.3-3.7,11.5-3.5,17.2,0.6c12.9,9.1,59.2,36.8,93,57.1
				c17,10.2,30.5,18.2,33.5,20.2h0c9.9,5.7,18.9,12.8,26.8,21c10.7,11.2,18.3,21.8,23.4,32.6c4.5,9.4,7,19,7.6,29.2
				c-0.3,7.3,0.5,14.4,2.4,21.4C295.3,289.2,311,302.6,319.8,308.7L319.8,308.7z"/>
		</g>
	</g>
</g>
</svg>
