<?xml version="1.0" encoding="utf-8"?>
<!-- Generator: Adobe Illustrator 22.0.0, SVG Export Plug-In . SVG Version: 6.00 Build 0)  -->
<svg version="1.1" id="Layer_1" xmlns="http://www.w3.org/2000/svg" xmlns:xlink="http://www.w3.org/1999/xlink" x="0px" y="0px"
	 viewBox="0 0 40 40" style="enable-background:new 0 0 40 40;" xml:space="preserve">
<style type="text/css">
	.st0{fill:url(#SVGID_1_);}
	.st1{fill:#FFFFFF;stroke:#FFFFFF;}
</style>
<linearGradient id="SVGID_1_" gradientUnits="userSpaceOnUse" x1="-12.6831" y1="-547.1784" x2="24.6086" y2="-547.1784" gradientTransform="matrix(0 1 -1 0 -527.1784 13.9581)">
	<stop  offset="1.198744e-03" style="stop-color:#FEF20D"/>
	<stop  offset="1" style="stop-color:#F3BA2F"/>
</linearGradient>
<path class="st0" d="M37,26.2V13.6c0-2.1-1.1-4.1-3-5.2L23,2.1c-1.9-1.1-4.1-1.1-6,0L6,8.4c-1.9,1.1-3,3.1-3,5.2v12.6
	c0,2.1,1.1,4.1,3,5.2l11,6.3c1.9,1.1,4.1,1.1,6,0l11-6.3C35.8,30.3,37,28.4,37,26.2z"/>
<title>Asset 1</title>
<g id="Layer_2_1_">
	<g id="Layer_1-2_1_">
		<path class="st1" d="M20,9.4l2.6,2.7l-6.5,6.5L13.5,16L20,9.4z"/>
		<path class="st1" d="M23.9,13.3l2.6,2.7L16.1,26.4l-2.6-2.5L23.9,13.3z"/>
		<path class="st1" d="M12.1,17.3l2.6,2.7l-2.6,2.6L9.5,20L12.1,17.3z"/>
		<path class="st1" d="M27.9,17.3l2.6,2.7L20,30.4l-2.6-2.6L27.9,17.3z"/>
	</g>
</g>
<title>Asset 1</title>
</svg>
