<?xml version="1.0" encoding="utf-8"?>
<!-- Generator: Adobe Illustrator 22.0.0, SVG Export Plug-In . SVG Version: 6.00 Build 0)  -->
<svg version="1.1" id="Layer_1" xmlns="http://www.w3.org/2000/svg" xmlns:xlink="http://www.w3.org/1999/xlink" x="0px" y="0px"
	 viewBox="0 0 40 40" style="enable-background:new 0 0 40 40;" xml:space="preserve">
<style type="text/css">
	.st0{fill:url(#SVGID_1_);}
	.st1{display:none;}
	.st2{display:inline;}
	.st3{fill:#C9E7FC;}
	.st4{fill:#C8E7FC;}
	.st5{fill:#0F315E;}
	.st6{fill:#F4CD5E;}
	.st7{fill:url(#SVGID_2_);}
	.st8{fill:url(#SVGID_3_);}
</style>
<linearGradient id="SVGID_1_" gradientUnits="userSpaceOnUse" x1="887.2169" y1="-2515.1785" x2="924.5087" y2="-2515.1785" gradientTransform="matrix(0 1 -1 0 -2495.1785 -886.0419)">
	<stop  offset="1.198744e-03" style="stop-color:#005390"/>
	<stop  offset="1" style="stop-color:#04214C"/>
</linearGradient>
<path class="st0" d="M37,26.1V13.5c0-2.1-1.1-4.1-3-5.2L23,2c-1.9-1.1-4.1-1.1-6,0L6,8.3c-1.9,1.1-3,3.1-3,5.2v12.6
	c0,2.1,1.1,4.1,3,5.2l11,6.3c1.9,1.1,4.1,1.1,6,0l11-6.3C35.8,30.2,37,28.3,37,26.1z"/>
<g class="st1">
	<g class="st2">
		<path class="st3" d="M14.3,22c-0.1-0.1,0-0.2,0-0.4c0-1.4,0-2.8,0-4.2c0-0.4-0.2-0.7-0.5-1c-0.6-0.4-1.3-0.7-1.9-1.2
			c-0.8-0.6-1.4-1.3-1.8-2.3c-0.3-0.8,0-1.2,0.8-1.4c1.1-0.2,2.2,0,3.3,0.1c0.4,0.1,0.8,0.1,1.2,0.2c0.2,0,0.3,0,0.2-0.2
			c0-0.2,0-0.4,0.1-0.6c0.1-0.3,0.3-0.5,0.5-0.5c0.3,0,0.6,0.1,0.7,0.3c0.2,0.3,0.3,0.6,0.4,0.8c0.1,0.3,0.3,0.4,0.7,0.3
			c1.3-0.4,2.6-0.4,3.9,0c0.3,0.1,0.5,0,0.6-0.3c0.1-0.2,0.2-0.5,0.4-0.7c0.2-0.3,0.4-0.5,0.8-0.5c0.4,0.1,0.5,0.3,0.6,0.6
			c0,0.1,0,0.2,0,0.3c0,0.4,0,0.4,0.5,0.4c1.2-0.2,2.5-0.4,3.7-0.3c0.3,0,0.6,0.1,0.8,0.1c0.5,0.2,0.7,0.5,0.6,1
			c-0.1,0.8-0.6,1.4-1.2,2c-0.6,0.6-1.2,1.1-2,1.4c-0.2,0.1-0.3,0.2-0.5,0.3c-0.4,0.2-0.5,0.5-0.5,0.9c0,1.4,0,2.9,0,4.3
			c0,0.3,0,0.4-0.3,0.2c-2-1.2-4.1-1.5-6.4-1.3C17.5,20.6,15.9,21,14.3,22C14.4,22,14.4,22,14.3,22z M23.1,18.1c0.2,0,0.3,0,0.5,0
			c0.8,0,1.4-0.7,1.4-1.5c-0.1-0.8-0.8-1.4-1.6-1.3c-0.9,0.2-1.8,0.6-2.4,1.3c-0.4,0.4-0.3,0.8,0.2,1C21.7,18,22.4,18.1,23.1,18.1z
			 M17,18.1c0.8,0,1.4-0.1,2-0.4c0.6-0.3,0.7-0.7,0.2-1.1c-0.6-0.6-1.4-1-2.3-1.2c-0.5-0.1-1.2,0.2-1.5,0.7c-0.3,0.5-0.3,1,0.1,1.5
			C15.9,18,16.4,18.1,17,18.1z"/>
		<path class="st4" d="M20.6,29.1c-2.4,0-4.2-0.4-5.8-1.4c-0.4-0.3-0.8-0.6-1-1c-0.7-0.9-0.7-2.1,0-3c0.7-0.9,1.6-1.4,2.6-1.8
			c2.9-1,5.7-0.9,8.5,0.4c0.7,0.3,1.2,0.7,1.7,1.3c0.8,1,0.8,2.2,0,3.2c-0.8,1-1.8,1.5-3,1.8C22.3,29,21.2,29.1,20.6,29.1z
			 M16.4,25.7c0.6,0,1.2-0.5,1.4-1.2c0.1-0.2,0.1-0.4,0-0.5c-0.2-0.2-0.3,0.1-0.4,0.2c-0.4,0.3-0.6,0.2-0.7-0.3c0-0.1,0-0.1,0-0.2
			c-0.1-0.3-0.3-0.4-0.5-0.1c-0.3,0.3-0.5,0.8-0.5,1.2C15.5,25.3,15.9,25.7,16.4,25.7z M24.6,24.8c0-0.4-0.2-0.8-0.4-1.1
			c-0.1-0.1-0.2-0.3-0.4-0.3c-0.2,0-0.2,0.3-0.3,0.4c-0.2,0.6-0.3,0.6-0.7,0.3c0,0-0.1-0.1-0.1-0.1c-0.1,0-0.1-0.1-0.2-0.1
			c-0.1,0.1-0.1,0.2-0.1,0.3c0.1,0.7,0.4,1.1,1,1.4C24,25.9,24.6,25.5,24.6,24.8z"/>
		<path class="st5" d="M23.1,17.4c0.2,0,0.3,0,0.5,0c0.4-0.1,0.7-0.5,0.7-0.9c-0.1-0.4-0.5-0.7-0.9-0.6c-0.7,0.2-1.3,0.5-1.9,1
			c-0.2,0.1-0.1,0.2,0.1,0.3C22,17.4,22.6,17.5,23.1,17.4z"/>
		<path class="st6" d="M23.1,17.4c-0.5,0-1.1-0.1-1.6-0.3c-0.2-0.1-0.2-0.1-0.1-0.3c0.5-0.5,1.2-0.8,1.9-1c0.4-0.1,0.9,0.3,0.9,0.6
			c0.1,0.4-0.3,0.8-0.7,0.9C23.4,17.5,23.3,17.4,23.1,17.4z"/>
		<path class="st6" d="M18.9,17c-0.8,0.4-1.6,0.5-2.3,0.4c-0.4,0-0.7-0.5-0.7-0.9c0.1-0.3,0.6-0.7,0.9-0.7
			C17.6,16.1,18.2,16.4,18.9,17z"/>
	</g>
</g>
<linearGradient id="SVGID_2_" gradientUnits="userSpaceOnUse" x1="10.6859" y1="21.0823" x2="26.2194" y2="29.4118" gradientTransform="matrix(1 0 0 -1 0 42)">
	<stop  offset="0" style="stop-color:#FFE7E0"/>
	<stop  offset="0.1094" style="stop-color:#F8DBF4"/>
	<stop  offset="0.526" style="stop-color:#C4DDFF"/>
	<stop  offset="1" style="stop-color:#CAE9FF"/>
</linearGradient>
<path class="st7" d="M24.7,11.9c1.1-0.2,5.2-1,5.4,0.3c0.2,1.3-1.5,3.1-3.3,4c-0.1,0-0.2,0.1-0.3,0.2c-0.1,0-0.1,0.1-0.2,0.1
	c-0.3,0.2-0.4,0.5-0.4,0.9v4.7c-1.4-1-3.5-1.6-5.8-1.6c-2.3,0-4.4,0.6-5.8,1.6v-4.7c0-0.3-0.1-0.7-0.4-0.9c-0.1,0-0.1-0.1-0.2-0.1
	c-0.1-0.1-0.2-0.1-0.3-0.2c-1.8-0.8-3.5-2.6-3.3-4c0.2-1.3,4.3-0.5,5.4-0.3c0.1,0,0.2,0,0.2,0c0,0,0.1,0,0.1-0.1
	c-0.1-0.3-0.1-1.2,0.5-1.3c0.4-0.1,0.6,0.1,0.8,0.3c0.1,0.1,0.3,0.5,0.4,0.8c0.1,0.2,0.2,0.4,0.4,0.4c0.7-0.2,1.5-0.3,2.2-0.3
	c0.7,0,1.5,0.1,2.2,0.3c0.2,0,0.3-0.2,0.4-0.4c0.1-0.3,0.3-0.7,0.4-0.8c0.2-0.2,0.4-0.4,0.8-0.3c0.6,0.2,0.6,1,0.5,1.3
	c0,0,0,0.1,0.1,0.1C24.5,11.9,24.6,11.9,24.7,11.9z M19.2,17.1c0-0.1-0.2-0.4-0.8-0.8C18,16,17.5,15.8,17,15.6
	c-0.1,0-0.2-0.1-0.4-0.1c-0.2,0-0.4,0.1-0.6,0.2c-0.2,0.2-0.4,0.4-0.5,0.7c-0.1,0.3,0,0.6,0.2,0.8c0.1,0.2,0.3,0.3,0.5,0.4
	c0.1,0,0.2,0.1,0.4,0.1c0.5,0,1,0,1.5-0.1C18.9,17.4,19.2,17.2,19.2,17.1z M23.9,17.7c0.2-0.1,0.4-0.2,0.5-0.4
	c0.2-0.2,0.3-0.5,0.2-0.8c-0.1-0.3-0.2-0.5-0.5-0.7c-0.2-0.1-0.4-0.2-0.6-0.2c-0.1,0-0.2,0-0.4,0.1c-0.5,0.1-1,0.4-1.4,0.6
	c-0.6,0.4-0.8,0.7-0.8,0.8c0,0.1,0.3,0.3,1,0.5c0.5,0.1,1,0.2,1.5,0.1C23.7,17.8,23.8,17.7,23.9,17.7z"/>
<linearGradient id="SVGID_3_" gradientUnits="userSpaceOnUse" x1="14.5682" y1="13.8422" x2="30.1017" y2="22.1717" gradientTransform="matrix(1 0 0 -1 0 42)">
	<stop  offset="0" style="stop-color:#FFE7E0"/>
	<stop  offset="0.1094" style="stop-color:#F8DBF4"/>
	<stop  offset="0.526" style="stop-color:#C4DDFF"/>
	<stop  offset="1" style="stop-color:#CAE9FF"/>
</linearGradient>
<path class="st8" d="M13.2,25.2c0-2.2,3.1-3.9,6.9-3.9c3.8,0,6.9,1.8,6.9,3.9s-3.1,3.9-6.9,3.9S13.2,27.4,13.2,25.2z M15.6,25
	c0.1,0.6,0.7,0.9,1.2,0.6c0.6-0.3,1-0.8,1-1.5c0-0.3-0.2-0.2-0.4,0c-0.3,0.2-0.7,0.5-0.8-0.2C16.4,22.6,15.4,24.3,15.6,25z
	 M23.4,25.6c0.6,0.3,1.1,0,1.2-0.6c0.1-0.7-0.8-2.3-1-1.1c-0.1,0.7-0.5,0.4-0.8,0.2c-0.2-0.2-0.4-0.3-0.4,0
	C22.4,24.8,22.8,25.3,23.4,25.6z"/>
</svg>
