<svg id="41aa0f48-37fd-44c6-8d78-5cc35158b189" data-name="Layer 1" xmlns="http://www.w3.org/2000/svg" xmlns:xlink="http://www.w3.org/1999/xlink" viewBox="0 0 40 40">
  <defs>
    <linearGradient id="eeb54789-560e-4dc7-83ae-4cf06bb9279f" x1="77.4169" y1="-1209.17847" x2="114.7087" y2="-1209.17847" gradientTransform="translate(-1189.17847 -76.0419) rotate(90)" gradientUnits="userSpaceOnUse">
      <stop offset="0" stop-color="#c200fb"/>
      <stop offset="0.48966" stop-color="#3772ff"/>
      <stop offset="0.48976" stop-color="#3773fe"/>
      <stop offset="1" stop-color="#5ac4be"/>
    </linearGradient>
  </defs>
  <title>raydium</title>
  <path d="M37,26.3V13.7a6.00113,6.00113,0,0,0-3-5.2L23,2.2a5.867,5.867,0,0,0-6,0L6,8.5a6.00113,6.00113,0,0,0-3,5.2V26.3a6.00113,6.00113,0,0,0,3,5.2l11,6.3a5.867,5.867,0,0,0,6,0l11-6.3A6.09187,6.09187,0,0,0,37,26.3Z" fill="url(#eeb54789-560e-4dc7-83ae-4cf06bb9279f)"/>
  <g>
    <path d="M30.29944,16.68843V25.9482L20,31.89347,9.69481,25.9482V14.05183L20,8.10078l7.91564,4.57244,1.1948-.68932L20,6.72217,8.5,13.36252v13.275L20,33.27783,31.5,26.6375V15.99913Z" fill="#fff"/>
    <path d="M17.11639,25.954H15.3931V20.17521h5.74429A2.068,2.068,0,0,0,23.18233,18.113a1.96988,1.96988,0,0,0-.6032-1.44174,1.99347,1.99347,0,0,0-1.44175-.6032H15.3931V14.31032h5.75A3.82552,3.82552,0,0,1,24.94576,18.113a3.69311,3.69311,0,0,1-.672,2.15409,3.74469,3.74469,0,0,1-1.65436,1.35565,6.633,6.633,0,0,1-2.05647.31024H17.11639Z" fill="#fff"/>
    <path d="M24.9056,25.81032H22.89506l-1.5509-2.70553a6.55119,6.55119,0,0,0,1.79792-.36761Z" fill="#fff"/>
    <path d="M29.09888,14.76412l1.189.66062,1.18912-.66062V13.36827L30.28792,12.679l-1.189.68932Z" fill="#fff"/>
  </g>
</svg>
