<?xml version="1.0" encoding="utf-8"?>
<!-- Generator: Adobe Illustrator 22.0.0, SVG Export Plug-In . SVG Version: 6.00 Build 0)  -->
<svg version="1.1" id="Layer_1" xmlns="http://www.w3.org/2000/svg" xmlns:xlink="http://www.w3.org/1999/xlink" x="0px" y="0px"
	 viewBox="0 0 500 500" style="enable-background:new 0 0 500 500;" xml:space="preserve">
<style type="text/css">
	.st0{fill:url(#SVGID_1_);}
</style>
<title>decentraland</title>
<linearGradient id="SVGID_1_" gradientUnits="userSpaceOnUse" x1="1339" y1="82.7" x2="839" y2="82.7" gradientTransform="matrix(0 -1 1 0 167.3 1339)">
	<stop  offset="0" style="stop-color:#F6EFE5"/>
	<stop  offset="1" style="stop-color:#AFABA5"/>
</linearGradient>
<polygon class="st0" points="500,0 500,500 0,500 0,0 "/>
<g>
	<path d="M150.3,124.1V99.8c0-19.6,12.8-35.5,32.1-38.9c14.6-2.6,28.1,0.2,38.8,11.3c7,7.3,10.7,16.2,10.8,26.3
		c0.1,8.4,0,16.9,0,25.4h44.3c0-0.5,0.1-1.1,0.1-1.6v-23c0.1-21.8,17.3-39,39-39.2c7.5-0.1,14.8,0.7,21.5,4.3
		c13.7,7.4,20.9,19,21.3,34.6c0.2,8.2,0,16.5,0,25h57.6c10.8,0,17.9,7.2,18.9,17.9c0.8,9.2-1.5,17.5-4.6,25.9
		c-3.1,8.7-7.6,16.8-13.3,24.1c-4.5,5.7-9.6,11.1-14.8,16.2c-6.8,6.6-13.9,12.9-20.9,19.2c-3.8,3.5-7.3,7.2-9.5,11.9
		c-0.6,1.4-1.2,2.9-1.2,4.4c-0.1,35.3,0.1,70.6-0.1,105.9c-0.2,42.4-31.6,80.3-73.2,88.3c-6.4,1.2-13,1.9-19.5,1.9
		c-18.3,0.2-36.6,0.1-54.9,0.1c-44.7,0-82.1-30.5-90.9-74.2c-1.2-6.1-1.7-12.2-1.7-18.4c-0.2-34.4-0.1-68.8-0.1-103.2
		c0-1.1-0.3-2.1-0.7-3.1c-2.8-6.5-7.7-11.3-12.9-15.9c-6.9-6.3-13.8-12.6-20.6-19c-7.9-7.5-15-15.7-20.2-25.3
		C69.9,169.9,65,158.7,65,146c0-2.9,0.3-5.7,0.9-8.5c1.9-8,9.1-13.5,17.4-13.5c21.6,0,43.1,0,64.7,0L150.3,124.1z M214,163h-70.5
		c-4.5,0-8.4,3-9,7.5c-0.4,2.6-0.3,5.2,0.1,7.7c1.6,7.9,5,15,10.5,20.9c5.5,5.9,11.5,11.1,17,16.8c4.2,4.3,6.9,9.4,6.9,15.7
		c0,38.6,0,77.1,0,115.7c0,2.7,0.1,5.5,0.5,8.2c3.9,26.5,26.1,45.6,52.9,45.6c18.4,0,36.7,0,55.1,0c2.7,0,5.5-0.1,8.2-0.5
		c26.2-3.6,45.8-26,45.8-52.5c0-6.4-0.1-12.9,0-19.3c0-1.5-0.4-2.1-1.8-2.5c-13.5-4.2-26.5-10-38.5-17.5
		c-27.7-17.2-48.9-40.2-62.6-69.9c-6.6-14.2-11.1-29.1-12.7-44.7C214.8,183.9,214.6,173.5,214,163z M328.8,266.4
		c0.1-9.6-7.6-17.6-17.3-17.7c-9.6-0.1-17.6,7.6-17.7,17.3c-0.1,9.6,7.6,17.6,17.3,17.7c0,0,0,0,0,0
		C320.7,283.8,328.6,276.1,328.8,266.4C328.8,266.4,328.8,266.4,328.8,266.4z"/>
	<path d="M220.8,266.2c0,9.6-7.9,17.4-17.5,17.4c-9.6,0-17.4-7.9-17.4-17.5c0-9.6,7.9-17.4,17.5-17.4c0,0,0,0,0.1,0
		C213.1,248.7,220.9,256.5,220.8,266.2C220.8,266.2,220.8,266.2,220.8,266.2z"/>
</g>
</svg>
