<?xml version="1.0" encoding="utf-8"?>
<!-- Generator: Adobe Illustrator 22.0.0, SVG Export Plug-In . SVG Version: 6.00 Build 0)  -->
<svg version="1.1" id="Layer_1" xmlns="http://www.w3.org/2000/svg" xmlns:xlink="http://www.w3.org/1999/xlink" x="0px" y="0px"
	 viewBox="0 0 40 40" style="enable-background:new 0 0 40 40;" xml:space="preserve">
<style type="text/css">
	.st0{fill:url(#SVGID_1_);}
	.st1{fill:#FDFDFE;}
	.st2{fill:#FDFEFE;}
</style>
<linearGradient id="SVGID_1_" gradientUnits="userSpaceOnUse" x1="1067.4169" y1="-3085.1785" x2="1104.7087" y2="-3085.1785" gradientTransform="matrix(0 1 -1 0 -3065.1785 -1066.0419)">
	<stop  offset="1.198744e-03" style="stop-color:#3676FB"/>
	<stop  offset="1" style="stop-color:#0A4AE2"/>
</linearGradient>
<path class="st0" d="M37,26.3V13.7c0-2.1-1.1-4.1-3-5.2L23,2.2c-1.9-1.1-4.1-1.1-6,0L6,8.5c-1.9,1.1-3,3.1-3,5.2v12.6
	c0,2.1,1.1,4.1,3,5.2l11,6.3c1.9,1.1,4.1,1.1,6,0l11-6.3C35.8,30.4,37,28.5,37,26.3z"/>
<g>
	<path class="st1" d="M29.5,27.6c-5.9,0-11.8,0-17.7,0c2.9-5.1,5.9-10.2,8.8-15.3C23.6,17.5,26.5,22.5,29.5,27.6z M15.4,25.6
		c3.5,0,6.9,0,10.4,0c-1.7-3-3.5-6-5.2-9C18.9,19.6,17.2,22.6,15.4,25.6z"/>
	<path class="st2" d="M10.5,12.4c2.7,0,5.3,0,8,0c-1.3,2.3-2.7,4.6-4,6.9C13.2,17,11.8,14.7,10.5,12.4z"/>
</g>
</svg>
