<?xml version="1.0" encoding="utf-8"?>
<!-- Generator: Adobe Illustrator 22.0.0, SVG Export Plug-In . SVG Version: 6.00 Build 0)  -->
<svg version="1.1" id="Layer_1" xmlns="http://www.w3.org/2000/svg" xmlns:xlink="http://www.w3.org/1999/xlink" x="0px" y="0px"
	 viewBox="0 0 40 40" style="enable-background:new 0 0 40 40;" xml:space="preserve">
<style type="text/css">
	.st0{fill:url(#SVGID_1_);}
	.st1{fill:#FFFFFF;}
</style>
<linearGradient id="SVGID_1_" gradientUnits="userSpaceOnUse" x1="-2.5831" y1="-549.1784" x2="34.7086" y2="-549.1784" gradientTransform="matrix(0 1 -1 0 -529.1784 3.9581)">
	<stop  offset="0" style="stop-color:#455DF0"/>
	<stop  offset="1" style="stop-color:#345D9D"/>
</linearGradient>
<path class="st0" d="M37,26.3V13.7c0-2.1-1.1-4.1-3-5.2L23,2.2c-1.9-1.1-4.1-1.1-6,0L6,8.5c-1.9,1.1-3,3.1-3,5.2v12.6
	c0,2.1,1.1,4.1,3,5.2l11,6.3c1.9,1.1,4.1,1.1,6,0l11-6.3C35.8,30.4,37,28.5,37,26.3z"/>
<path class="st1" d="M19.9,21.1l-1.6,5.4h8.5c0.3,0,0.4,0.2,0.4,0.4V27l-0.7,2.6c0,0.2-0.2,0.4-0.5,0.4H13l2.2-7.4l-2.4,0.7l0.6-1.7
	l2.4-0.7l3.1-10.4c0.1-0.2,0.3-0.4,0.6-0.4h3.3c0.3,0,0.4,0.2,0.4,0.4v0.1l-2.6,8.8l2.4-0.7l-0.5,1.8C22.4,20.4,19.9,21.1,19.9,21.1
	z"/>
</svg>
