<?xml version="1.0" encoding="utf-8"?>
<!-- Generator: Adobe Illustrator 22.0.0, SVG Export Plug-In . SVG Version: 6.00 Build 0)  -->
<svg version="1.1" id="Layer_1" xmlns="http://www.w3.org/2000/svg" xmlns:xlink="http://www.w3.org/1999/xlink" x="0px" y="0px"
	 viewBox="0 0 40 40" style="enable-background:new 0 0 40 40;" xml:space="preserve">
<style type="text/css">
	.st0{fill:url(#SVGID_1_);}
	.st1{opacity:0.75;fill:#FFFFFF;enable-background:new    ;}
	.st2{opacity:0.25;enable-background:new    ;}
	.st3{fill:#FFFFFF;stroke:#FFFFFF;stroke-width:0.75;stroke-miterlimit:10;}
</style>
<linearGradient id="SVGID_1_" gradientUnits="userSpaceOnUse" x1="1067.4169" y1="-3085.1785" x2="1104.7087" y2="-3085.1785" gradientTransform="matrix(0 1 -1 0 -3065.1785 -1066.0419)">
	<stop  offset="1.198744e-03" style="stop-color:#008CF2"/>
	<stop  offset="1" style="stop-color:#035BC7"/>
</linearGradient>
<path class="st0" d="M37,26.3V13.7c0-2.1-1.1-4.1-3-5.2L23,2.2c-1.9-1.1-4.1-1.1-6,0L6,8.5c-1.9,1.1-3,3.1-3,5.2v12.6
	c0,2.1,1.1,4.1,3,5.2l11,6.3c1.9,1.1,4.1,1.1,6,0l11-6.3C35.8,30.4,37,28.5,37,26.3z"/>
<g id="图层_2-2">
	<path class="st1" d="M26.1,24.2l-2.5,3.9h-3l4.2-5.4l-4.2-5.4h2.9l2.6,3.6h0.1l2.5-3.6h2.8l-4,5.4l4,5.4h-2.8L26.1,24.2L26.1,24.2
		L26.1,24.2z"/>
	<polygon class="st2" points="28,22 27.5,22.8 26.2,20.9 26.2,20.9 26.7,20.2 	"/>
	<path class="st3" d="M19.1,25.7H15c-0.9,0-1.6-0.2-2.2-0.7c-0.5-0.4-0.8-1.1-0.8-1.8c0-0.8,0.3-1.4,0.9-1.8
		c0.6-0.4,1.6-0.6,2.8-0.6h2.4v-2.2h-2.4c-1,0-1.9-0.2-2.5-0.6c-0.6-0.4-1-1-1-1.8c0-0.6,0.2-1.1,0.7-1.5c0.4-0.3,1.1-0.5,1.9-0.5
		h4.3v-2.2h-4.6c-1.5,0-2.6,0.4-3.5,1.1c-0.9,0.7-1.3,1.7-1.3,2.9c0,0.9,0.2,1.6,0.6,2.3c0.4,0.6,0.9,1.1,1.6,1.4
		c-0.7,0.2-1.3,0.7-1.7,1.3c-0.4,0.6-0.7,1.4-0.7,2.4c0,1.4,0.5,2.5,1.6,3.4c1,0.8,2.4,1.3,4,1.3l4.1,0L19.1,25.7z"/>
	<path class="st2" d="M14.8,21.2c0,0-1.5-0.4-2.1-0.7c-0.5-0.2-0.9-0.5-1.4-0.8c-0.3,0.1-0.5,0.3-0.7,0.5c0.5,0.4,1.1,0.7,1.8,0.9
		C13.6,21.4,14.8,21.2,14.8,21.2z"/>
</g>
</svg>
