<?xml version="1.0" encoding="utf-8"?>
<!-- Generator: Adobe Illustrator 22.0.0, SVG Export Plug-In . SVG Version: 6.00 Build 0)  -->
<svg version="1.1" id="Layer_1" xmlns="http://www.w3.org/2000/svg" xmlns:xlink="http://www.w3.org/1999/xlink" x="0px" y="0px"
	 viewBox="0 0 40 40" style="enable-background:new 0 0 40 40;" xml:space="preserve">
<style type="text/css">
	.st0{fill:url(#SVGID_1_);}
	.st1{fill:#FFFFFF;}
</style>
<linearGradient id="SVGID_1_" gradientUnits="userSpaceOnUse" x1="-12.4831" y1="-547.1784" x2="24.8086" y2="-547.1784" gradientTransform="matrix(0 1 -1 0 -527.1784 13.9581)">
	<stop  offset="0" style="stop-color:#C22026"/>
	<stop  offset="0.9988" style="stop-color:#771C18"/>
</linearGradient>
<path class="st0" d="M37,26.4V13.8c0-2.1-1.1-4.1-3-5.2L23,2.3c-1.9-1.1-4.1-1.1-6,0L6,8.6c-1.9,1.1-3,3.1-3,5.2v12.6
	c0,2.1,1.1,4.1,3,5.2l11,6.3c1.9,1.1,4.1,1.1,6,0l11-6.3C35.8,30.5,37,28.6,37,26.4z"/>
<path class="st1" d="M30.1,15.1c-0.9-0.6-1.8-1.2-2.7-1.9c0,0,0,0-0.1,0c0-0.1-0.1-0.2-0.3-0.2l0,0c-2.4-0.6-4.8-1.2-7.2-1.7
	c-2.1-0.5-4.3-1-6.4-1.6c-0.1,0-0.1,0-0.2,0c-0.2-0.1-0.4-0.1-0.7-0.1c-0.1,0-0.1,0-0.2,0.1h-0.1C12.1,9.8,12.1,9.9,12,10l0,0v0.2
	l0,0c1.3,3.8,2.7,7.6,4.1,11.3c1,2.9,2.1,5.8,3.1,8.7c0.1,0.2,0.2,0.3,0.5,0.3l0,0c0.2,0,0.4-0.1,0.5-0.3l3.9-5.7
	c1-1.4,1.9-2.8,2.9-4.2c0.4-0.6,0.8-1.1,1.2-1.7c0.6-0.9,1.3-1.9,2-2.8l0,0v-0.1C30.4,15.6,30.4,15.3,30.1,15.1 M25.5,17.2
	c-0.9,0.5-1.9,1-2.8,1.5c0.5-0.6,1.1-1.2,1.6-1.8c0.7-0.7,1.4-1.5,2.1-2.3l0,0c0.1-0.1,0.1-0.2,0.2-0.2c0.1-0.1,0.1-0.1,0.2-0.2
	c0.4,0.3,0.7,0.5,1.1,0.8c0.3,0.2,0.5,0.4,0.8,0.5C27.7,16,26.6,16.6,25.5,17.2 M23.2,16.9c-0.7,0.8-1.4,1.5-2.2,2.3
	c-1.4-1.7-2.8-3.4-4.2-5.1c-0.6-0.8-1.3-1.5-1.9-2.3l0,0c-0.1-0.2-0.3-0.3-0.4-0.5c-0.1-0.1-0.2-0.2-0.3-0.3
	c0.6,0.1,1.1,0.3,1.7,0.4c0.5,0.1,1,0.2,1.5,0.4c2.9,0.7,5.7,1.4,8.6,2.1C25,14.9,24.1,15.9,23.2,16.9 M20.7,26.5
	c0.1-0.5,0.1-1.1,0.2-1.6c0-0.4,0.1-0.8,0.1-1.3c0.1-0.7,0.1-1.3,0.2-2v-0.1c0-0.4,0.1-0.9,0.1-1.3c0.1,0,0.1-0.1,0.2-0.1
	s0.1-0.1,0.2-0.1c1.1-0.6,2.3-1.2,3.4-1.8c1.1-0.6,2.3-1.2,3.5-1.8c-1.1,1.5-2.1,3.1-3.1,4.6c-0.9,1.3-1.8,2.6-2.7,3.9
	c-0.4,0.5-0.7,1.1-1.1,1.6c-0.4,0.6-0.8,1.2-1.2,1.7C20.6,27.7,20.6,27.1,20.7,26.5 M13.8,12.2c-0.1-0.2-0.1-0.4-0.2-0.5
	c1.3,1.6,2.7,3.2,4,4.8c0.7,0.8,1.4,1.6,2,2.4c0.1,0.2,0.3,0.3,0.4,0.5c0.2,0.2,0.3,0.4,0.5,0.6c-0.1,0.5-0.1,1-0.2,1.5
	c0,0.3-0.1,0.7-0.1,1l0,0c0,0.2,0,0.4-0.1,0.7c0,0.3-0.1,1-0.1,1l0,0c-0.1,1-0.2,2-0.3,3c0,0.4-0.1,0.8-0.1,1.2
	c0-0.1-0.1-0.1-0.1-0.2c-0.1-0.2-0.1-0.4-0.2-0.6l-0.5-1.5C17.1,21.5,15.5,16.8,13.8,12.2"/>
</svg>
