<?xml version="1.0" encoding="utf-8"?>
<!-- Generator: Adobe Illustrator 22.0.0, SVG Export Plug-In . SVG Version: 6.00 Build 0)  -->
<svg version="1.1" id="Layer_1" xmlns="http://www.w3.org/2000/svg" xmlns:xlink="http://www.w3.org/1999/xlink" x="0px" y="0px"
	 viewBox="0 0 500 500" style="enable-background:new 0 0 500 500;" xml:space="preserve">
<style type="text/css">
	.st0{fill:url(#SVGID_1_);}
	.st1{fill:#FFFFFF;}
</style>
<title>decentraland</title>
<linearGradient id="SVGID_1_" gradientUnits="userSpaceOnUse" x1="311" y1="-318.7" x2="-189" y2="-318.7" gradientTransform="matrix(0 -1 -1 0 -68.7 311)">
	<stop  offset="0" style="stop-color:#243144"/>
	<stop  offset="1" style="stop-color:#121B2B"/>
</linearGradient>
<polygon class="st0" points="500,0 500,500 0,500 0,0 "/>
<g>
	<path class="st1" d="M148.9,293.2c0.4,9.4-5,9.4-11,9c-3.3-0.3-6.6,0-10.3,0c0-38.9,0-77.3,0-116.1c8.5,0,17.1,0,25.2,0
		c0,13.9,0,27.6,0,42c7-5.9,14.7-9,24-7.5c14.5,2.2,23.8,10.8,26.1,24.7c1.7,10.3,1.7,21.4-0.3,31.7
		C197.8,302.4,168.1,312,148.9,293.2z M151.7,261.4c1,5.1,1.6,10.2,2.9,15.1c1.4,5,4.8,8.3,10.2,8.5c5.3,0.2,10-1.8,12.3-6.7
		c5.5-11.7,5-23.5-1.2-34.8c-2.5-4.6-7-6.3-12.2-5.6c-4.9,0.6-7.9,3.8-9.1,8.2C153.3,251.1,152.7,256.2,151.7,261.4z"/>
	<path class="st1" d="M384.5,302.5c-9.3,0-17,0.2-24.6-0.2c-1.7-0.1-3.8-1.8-4.9-3.4c-6.3-8.6-12.4-17.5-18.5-26.2
		c-1.1-1.6-2.3-3.1-4.6-6.2c-1.4,4-3,6.7-3.1,9.5c-0.4,8.5-0.1,16.9-0.1,25.7c-8.4,0-16.2,0-24.4,0c0-38.7,0-77.3,0-116
		c8.6,0,16.9,0,24.9,0c0,19.3,0,38.4,0,58.9c4.6-4.6,9-8.2,12.5-12.4c7.1-8.7,15.2-14.3,27.2-11.2c3.1,0.8,6.6,0.1,10.2,0.1
		c-10.4,10.4-20.4,20.5-30.6,30.7C360.6,268.9,371.9,284.8,384.5,302.5z"/>
	<path class="st1" d="M116.6,262.4c-0.3,23.4-18.3,41.3-41.3,40.9c-23.1-0.4-40-18.3-39.7-42.3c0.3-22.8,18.7-41.3,40.8-41
		C98.9,220.3,116.9,239.4,116.6,262.4z M59,261.6c1.8,5.3,2.7,10.7,5.3,15.2c5.5,9.4,17.3,9.4,23.7,0.5c5.7-8,5.9-22.9,0.4-31
		c-6.2-9.1-18.5-9.3-24.1,0.2C61.6,250.9,60.7,256.4,59,261.6z"/>
	<path class="st1" d="M213,319.5c4.8-6.3,9.5-12.4,14.7-19.3c2.4,7.7,5.9,12.5,13.5,12.5c6.3,0.1,9.1-2.2,10-8.5
		c0.4-3.3,0.6-6.7,0.6-10.1c0.1-15.6,0-31.3,0-46.9c0-2.1,0-4.3,0-7c-9.6,0-18.4,0-27.5,0c0-6.5,0-12.3,0-18.7c17.2,0,34.3,0,51.9,0
		c0.1,1.5,0.4,3.2,0.4,4.9c0,23,0.1,45.9,0,68.9c0,3.9-0.2,8-1,11.8c-2.9,13.3-11.3,21.5-24.5,24.5C236,335.3,223.4,331.1,213,319.5
		z"/>
	<path class="st1" d="M433.1,240.2c0,9.7-0.1,18.4,0,27.1c0.3,16.1,9,20.8,22.9,12.6c1.5-0.9,3-1.8,4.9-2.9c0.7,2.7,1.4,4.9,1.9,7.1
		c2.6,11,2.7,11.1-8,15.4c-4,1.6-8.3,2.7-12.6,3.3c-18.5,2.8-31-6.6-33-25.2c-0.8-7.4-0.4-15-0.4-22.5c-0.1-4.7,0-9.4,0-14.6
		c-5.1,0-10,0-15.3,0c0-6.5,0-12.5,0-19.2c5.5,0,10.8,0,16.5,0c0.3-6.6,0.7-12.7,1-19.1c9.1-1.2,17.8-2.3,26.1-3.4
		c-1,7.5-1.9,14.4-3,22.1c8.5,0,16.5,0,24.9,0c0,6.7,0,12.6,0,19.3C450.9,240.2,442.9,240.2,433.1,240.2z"/>
	<path class="st1" d="M262.3,177c8.1,0,15,6.4,14.9,13.8c-0.1,7.3-7.3,13.9-15.1,13.8c-7.7-0.2-14.3-6.4-14.4-13.8
		C247.5,182.8,253.7,177,262.3,177z"/>
</g>
</svg>
