<?xml version="1.0" encoding="utf-8"?>
<!-- Generator: Adobe Illustrator 22.0.0, SVG Export Plug-In . SVG Version: 6.00 Build 0)  -->
<svg version="1.1" id="Layer_1" xmlns="http://www.w3.org/2000/svg" xmlns:xlink="http://www.w3.org/1999/xlink" x="0px" y="0px"
	 viewBox="0 0 40 40" style="enable-background:new 0 0 40 40;" xml:space="preserve">
<style type="text/css">
	.st0{fill:url(#SVGID_1_);}
	.st1{fill:#FFFFFF;}
</style>
<linearGradient id="SVGID_1_" gradientUnits="userSpaceOnUse" x1="167.3169" y1="-1117.1785" x2="204.6086" y2="-1117.1785" gradientTransform="matrix(0 1 -1 0 -1097.1785 -166.0419)">
	<stop  offset="1.198744e-03" style="stop-color:#3E4D6A"/>
	<stop  offset="1" style="stop-color:#1A2A4C"/>
</linearGradient>
<path class="st0" d="M37,26.2V13.6c0-2.1-1.1-4.1-3-5.2L23,2.1c-1.9-1.1-4.1-1.1-6,0L6,8.4c-1.9,1.1-3,3.1-3,5.2v12.6
	c0,2.1,1.1,4.1,3,5.2l11,6.3c1.9,1.1,4.1,1.1,6,0l11-6.3C35.8,30.3,37,28.4,37,26.2z"/>
<title>Asset 1</title>
<g id="Layer_2_1_">
	<g id="Layer_1-2">
		<path class="st1" d="M24.2,11.7c0.6,0,1.2-0.5,1.2-1.2c0-0.7-0.5-1.2-1.2-1.2c-0.6,0-1.2,0.5-1.2,1.2
			C23.1,11.2,23.6,11.7,24.2,11.7z M24.6,14.8c0.5,0,1-0.5,1-1l0,0c0-0.5-0.4-1-1-1c-0.5,0-1,0.4-1,1C23.6,14.4,24,14.8,24.6,14.8z
			 M27.3,15.2c0.5,0,1-0.4,1-1s-0.4-1-1-1s-1,0.4-1,1S26.7,15.2,27.3,15.2z M27,17.8c0.5,0,0.8-0.4,0.8-0.9s-0.4-0.9-0.8-0.9
			c-0.5,0-0.8,0.4-0.8,0.9S26.5,17.8,27,17.8z M29.1,18.7c0.5,0,0.8-0.4,0.8-0.9S29.6,17,29.1,17c-0.5,0-0.8,0.4-0.8,0.9
			c0,0,0,0,0,0l0,0C28.3,18.3,28.6,18.7,29.1,18.7z M24.2,17.5c0.5,0,0.9-0.4,0.9-0.9c0,0,0,0,0,0l0,0v0c0-0.5-0.4-0.9-0.9-0.9
			s-0.9,0.4-0.9,0.9C23.4,17.1,23.8,17.5,24.2,17.5z M23.5,19.6c0.4,0,0.7-0.3,0.7-0.7c0-0.4-0.3-0.7-0.7-0.7h0
			c-0.4,0-0.7,0.3-0.7,0.7S23.1,19.6,23.5,19.6z M26.2,19.9c0.4,0,0.7-0.3,0.7-0.7c0,0,0,0,0,0l0,0v0c0-0.4-0.3-0.7-0.7-0.7
			c-0.4,0-0.7,0.3-0.7,0.7C25.4,19.6,25.8,19.9,26.2,19.9C26.2,19.9,26.2,19.9,26.2,19.9L26.2,19.9L26.2,19.9z M28.3,20.8
			c0.4,0,0.7-0.3,0.7-0.7s-0.3-0.7-0.7-0.7c-0.4,0-0.7,0.3-0.7,0.7C27.6,20.4,27.9,20.8,28.3,20.8L28.3,20.8z M27.3,22.4
			c0.3,0,0.6-0.3,0.6-0.6s-0.3-0.6-0.6-0.6s-0.6,0.3-0.6,0.6S26.9,22.4,27.3,22.4z M25.1,21.5c0.3,0,0.6-0.3,0.6-0.6
			c0-0.3-0.3-0.6-0.6-0.6c-0.3,0-0.6,0.3-0.6,0.6C24.5,21.2,24.7,21.5,25.1,21.5z M22.4,21.1c0.3,0,0.6-0.3,0.6-0.6
			c0-0.3-0.3-0.6-0.6-0.6h0c-0.3,0-0.6,0.3-0.6,0.6C21.8,20.9,22,21.1,22.4,21.1L22.4,21.1z M23.9,22.6c0.3,0,0.5-0.2,0.5-0.5
			c0-0.3-0.2-0.5-0.5-0.5h0c-0.3,0-0.5,0.2-0.5,0.5C23.3,22.4,23.6,22.6,23.9,22.6L23.9,22.6z M26.1,23.5c0.3,0,0.5-0.2,0.5-0.5
			c0-0.3-0.2-0.5-0.5-0.5c-0.3,0-0.5,0.2-0.5,0.5C25.5,23.2,25.7,23.5,26.1,23.5z M24.8,24.1c0.2,0,0.4-0.2,0.4-0.4
			c0-0.2-0.2-0.4-0.4-0.4c-0.2,0-0.4,0.2-0.4,0.4C24.4,23.9,24.6,24.1,24.8,24.1z M23.7,24.4c0.2,0,0.4-0.2,0.4-0.4c0,0,0,0,0,0v0
			c0-0.2-0.2-0.4-0.4-0.4c-0.2,0-0.4,0.2-0.4,0.4c0,0,0,0,0,0v0C23.3,24.3,23.5,24.4,23.7,24.4L23.7,24.4z M22.7,23.3
			c0.3,0,0.5-0.2,0.5-0.5s-0.2-0.5-0.5-0.5c-0.3,0-0.5,0.2-0.5,0.5C22.2,23.1,22.4,23.3,22.7,23.3z M21.2,22.2
			c0.3,0,0.5-0.2,0.5-0.5c0-0.3-0.2-0.5-0.5-0.5c-0.3,0-0.5,0.2-0.5,0.5C20.6,22,20.9,22.2,21.2,22.2z M25.6,29.1
			c0.6,0,1.2-0.5,1.2-1.2c0-0.6-0.5-1.2-1.2-1.2s-1.2,0.5-1.2,1.2C24.4,28.5,24.9,29.1,25.6,29.1L25.6,29.1z M22.6,27.6
			c0.5,0,1-0.4,1-1c0-0.5-0.4-1-1-1c-0.5,0-1,0.4-1,1C21.7,27.1,22.1,27.6,22.6,27.6z M21,29.7c0.5,0,1-0.4,1-1c0-0.5-0.4-1-1-1
			c-0.5,0-1,0.4-1,1C20,29.3,20.4,29.7,21,29.7L21,29.7z M20.5,25.8c0.5,0,0.8-0.4,0.8-0.9c0,0,0,0,0,0l0,0c0-0.5-0.4-0.9-0.8-0.9
			c0,0,0,0,0,0l0,0c-0.5,0-0.8,0.4-0.8,0.9c0,0,0,0,0,0l0,0C19.6,25.4,20,25.8,20.5,25.8L20.5,25.8z M18.8,27.9
			c0.5,0,0.8-0.4,0.8-0.9c0-0.5-0.4-0.9-0.8-0.9S18,26.6,18,27.1C17.9,27.6,18.3,27.9,18.8,27.9L18.8,27.9z M17,29.4
			c0.5,0,0.8-0.4,0.8-0.8c0-0.5-0.4-0.8-0.8-0.8c-0.5,0-0.8,0.4-0.8,0.8C16.1,29,16.5,29.4,17,29.4L17,29.4z M15.5,27.5
			c0.4,0,0.7-0.3,0.7-0.7c0-0.4-0.3-0.7-0.7-0.7c-0.4,0-0.7,0.3-0.7,0.7C14.8,27.2,15.1,27.5,15.5,27.5z M17.3,26
			c0.4,0,0.7-0.3,0.7-0.7c0-0.4-0.3-0.7-0.7-0.7c-0.4,0-0.7,0.3-0.7,0.7C16.6,25.7,16.9,26,17.3,26L17.3,26z M19,23.8
			c0.4,0,0.7-0.3,0.7-0.7c0,0,0,0,0,0l0,0v0c0-0.4-0.3-0.7-0.7-0.7c-0.4,0-0.7,0.3-0.7,0.7c0,0,0,0,0,0l0,0v0
			C18.3,23.5,18.6,23.8,19,23.8z M16.4,24.1c0.3,0,0.6-0.3,0.6-0.6c0-0.3-0.3-0.6-0.6-0.6s-0.6,0.3-0.6,0.6
			C15.8,23.8,16.1,24.1,16.4,24.1z M14.6,25.6c0.3,0,0.6-0.3,0.6-0.6c0,0,0,0,0,0l0,0v0c0-0.3-0.3-0.6-0.6-0.6h0
			c-0.3,0-0.6,0.3-0.6,0.6c0,0,0,0,0,0l0,0v0C14,25.3,14.3,25.6,14.6,25.6C14.6,25.6,14.6,25.6,14.6,25.6L14.6,25.6z M14.2,23.9
			c0.3,0,0.5-0.2,0.5-0.5c0-0.3-0.2-0.5-0.5-0.5s-0.5,0.2-0.5,0.5C13.7,23.6,13.9,23.9,14.2,23.9z M14.2,22.4c0.3,0,0.5-0.2,0.5-0.5
			c0,0,0,0,0,0l0,0c0-0.3-0.2-0.5-0.5-0.5s-0.5,0.2-0.5,0.5C13.7,22.1,13.9,22.4,14.2,22.4z M14.4,21.1c0.2,0,0.4-0.2,0.4-0.4
			c0-0.2-0.2-0.4-0.4-0.4c-0.2,0-0.4,0.2-0.4,0.4C14,20.9,14.2,21.1,14.4,21.1z M16,20.9c0.3,0,0.5-0.2,0.5-0.5s-0.2-0.5-0.5-0.5
			c-0.3,0-0.5,0.2-0.5,0.5C15.5,20.7,15.7,20.9,16,20.9z M17.7,20.2c0.3,0,0.5-0.2,0.5-0.5c0-0.3-0.2-0.5-0.5-0.5h0
			c-0.3,0-0.5,0.2-0.5,0.5C17.1,20,17.4,20.2,17.7,20.2C17.7,20.2,17.7,20.2,17.7,20.2L17.7,20.2z M18.1,21.9c0.3,0,0.6-0.3,0.6-0.6
			c0-0.3-0.3-0.6-0.6-0.6s-0.6,0.3-0.6,0.6C17.5,21.7,17.7,21.9,18.1,21.9L18.1,21.9z M16,22.4c0.3,0,0.5-0.2,0.5-0.5
			c0-0.3-0.2-0.5-0.5-0.5c-0.3,0-0.5,0.2-0.5,0.5c0,0,0,0,0,0v0C15.5,22.2,15.7,22.4,16,22.4C16,22.4,16,22.4,16,22.4L16,22.4
			L16,22.4z M10.1,21.6c0.6,0,1.2-0.5,1.2-1.2c0-0.6-0.5-1.2-1.2-1.2c-0.6,0-1.2,0.5-1.2,1.2S9.5,21.6,10.1,21.6L10.1,21.6z
			 M12.7,19.5c0.5,0,1-0.4,1-1c0-0.6-0.4-1-1-1c-0.5,0-1,0.5-1,1v0C11.7,19.1,12.2,19.5,12.7,19.5L12.7,19.5z M11.7,16.9
			c0.5,0,1-0.4,1-1s-0.4-1-1-1c-0.5,0-1,0.4-1,1c0,0,0,0,0,0v0C10.7,16.5,11.2,16.9,11.7,16.9L11.7,16.9z M14.2,15.7
			c0.5,0,0.8-0.4,0.8-0.9S14.7,14,14.2,14s-0.8,0.4-0.8,0.9C13.4,15.3,13.8,15.7,14.2,15.7L14.2,15.7z M15.3,18.3
			c0.5,0,0.8-0.4,0.8-0.9s-0.4-0.9-0.8-0.9c-0.5,0-0.8,0.4-0.8,0.9S14.8,18.3,15.3,18.3z M17.6,17.8c0.4,0,0.7-0.3,0.7-0.7l0,0
			c0-0.4-0.3-0.7-0.7-0.7c-0.4,0-0.7,0.3-0.7,0.7c0,0,0,0,0,0l0,0C16.8,17.4,17.2,17.7,17.6,17.8L17.6,17.8z M19.5,17.8
			c0.3,0,0.6-0.3,0.6-0.6c0-0.3-0.3-0.6-0.6-0.6c-0.3,0-0.6,0.3-0.6,0.6S19.2,17.8,19.5,17.8L19.5,17.8z M21.2,18.1
			c0.3,0,0.5-0.2,0.5-0.5s-0.2-0.5-0.5-0.5c-0.3,0-0.5,0.2-0.5,0.5C20.7,17.9,20.9,18.1,21.2,18.1z M21.4,16.2
			c0.3,0,0.5-0.2,0.5-0.5c0-0.3-0.2-0.5-0.5-0.5s-0.5,0.2-0.5,0.5C20.9,16,21.1,16.2,21.4,16.2z M20.1,15.6c0.3,0,0.5-0.2,0.5-0.5
			s-0.2-0.5-0.5-0.5c-0.3,0-0.5,0.2-0.5,0.5C19.6,15.3,19.8,15.6,20.1,15.6L20.1,15.6z M18.5,15.2c0.3,0,0.6-0.3,0.6-0.6
			c0-0.3-0.3-0.6-0.6-0.6c-0.3,0-0.6,0.3-0.6,0.6C17.9,14.9,18.2,15.2,18.5,15.2C18.5,15.2,18.5,15.2,18.5,15.2L18.5,15.2z
			 M16.5,15.2c0.4,0,0.7-0.3,0.7-0.7c0-0.4-0.3-0.7-0.7-0.7c-0.4,0-0.7,0.3-0.7,0.7C15.8,14.9,16.1,15.2,16.5,15.2z M13.9,13.4
			c0.5,0,0.8-0.4,0.8-0.8c0-0.5-0.4-0.8-0.8-0.8c-0.5,0-0.8,0.4-0.8,0.8C13.1,13,13.4,13.4,13.9,13.4z M16.2,12.9
			c0.4,0,0.7-0.3,0.7-0.7c0-0.4-0.3-0.7-0.7-0.7c-0.4,0-0.7,0.3-0.7,0.7C15.4,12.5,15.8,12.9,16.2,12.9z M18.1,12.9
			c0.3,0,0.6-0.3,0.6-0.6c0-0.3-0.3-0.6-0.6-0.6c-0.3,0-0.6,0.3-0.6,0.6c0,0,0,0,0,0l0,0v0C17.5,12.6,17.8,12.9,18.1,12.9z
			 M19.8,13.2c0.3,0,0.5-0.2,0.5-0.5s-0.2-0.5-0.5-0.5c-0.3,0-0.5,0.2-0.5,0.5C19.2,13,19.5,13.2,19.8,13.2z M21,13.9
			c0.3,0,0.5-0.2,0.5-0.5c0-0.3-0.2-0.5-0.5-0.5c-0.3,0-0.5,0.2-0.5,0.5C20.6,13.7,20.8,13.9,21,13.9z M21.9,14.6
			c0.2,0,0.4-0.2,0.4-0.4c0,0,0,0,0,0l0,0v0c0-0.2-0.2-0.4-0.4-0.4c0,0,0,0,0,0h0c-0.2,0-0.4,0.2-0.4,0.4c0,0,0,0,0,0l0,0v0
			C21.5,14.5,21.7,14.6,21.9,14.6C21.9,14.6,21.9,14.6,21.9,14.6L21.9,14.6L21.9,14.6z"/>
	</g>
</g>
</svg>
