<?xml version="1.0" encoding="utf-8"?>
<!-- Generator: Adobe Illustrator 22.0.0, SVG Export Plug-In . SVG Version: 6.00 Build 0)  -->
<svg version="1.1" id="Layer_1" xmlns="http://www.w3.org/2000/svg" xmlns:xlink="http://www.w3.org/1999/xlink" x="0px" y="0px"
	 viewBox="0 0 40 40" style="enable-background:new 0 0 40 40;" xml:space="preserve">
<style type="text/css">
	.st0{fill:url(#SVGID_1_);}
	.st1{fill:#FFFFFF;}
</style>
<linearGradient id="SVGID_1_" gradientUnits="userSpaceOnUse" x1="-12.4831" y1="-547.1784" x2="24.8086" y2="-547.1784" gradientTransform="matrix(6.123234e-17 1 -1 6.123234e-17 -527.1784 13.9581)">
	<stop  offset="0" style="stop-color:#13E5A4"/>
	<stop  offset="0.9988" style="stop-color:#3D9E6E"/>
</linearGradient>
<path class="st0" d="M37,26.4V13.8c0-2.1-1.1-4.1-3-5.2L23,2.3c-1.9-1.1-4.1-1.1-6,0L6,8.6c-1.9,1.1-3,3.1-3,5.2v12.6
	c0,2.1,1.1,4.1,3,5.2l11,6.3c1.9,1.1,4.1,1.1,6,0l11-6.3C35.8,30.5,37,28.6,37,26.4z"/>
<path class="st1" d="M12.6,25.9c-0.5-0.3-0.9-0.9-0.9-1.5V21c0-0.1,0-0.3,0.1-0.4c0.2-0.3,0.7-0.5,1-0.3l7.7,4.5
	c0.5,0.3,0.7,0.7,0.7,1.3v3.5c0,0.2,0,0.3-0.1,0.5c-0.3,0.4-0.8,0.6-1.2,0.3L12.6,25.9z M24.2,19.4c0.5,0.3,0.7,0.7,0.7,1.3v7.2
	c0,0.2-0.1,0.4-0.3,0.5l-1.7,0.9c0,0,0,0-0.1,0v-4c0-0.5-0.3-1-0.7-1.3l-6.8-4.1v-4.6c0-0.1,0-0.3,0.1-0.4c0.2-0.3,0.7-0.5,1-0.3
	L24.2,19.4z M27.5,14.1c0.5,0.3,0.7,0.7,0.7,1.3v10.5c0,0.2-0.1,0.4-0.3,0.5l-1.6,0.9V20c0-0.5-0.3-1-0.7-1.3l-6.9-4.2v-4.3
	c0-0.1,0-0.3,0.1-0.4c0.2-0.3,0.7-0.5,1-0.3L27.5,14.1z"/>
</svg>
