<?xml version="1.0" encoding="utf-8"?>
<!-- Generator: Adobe Illustrator 22.0.0, SVG Export Plug-In . SVG Version: 6.00 Build 0)  -->
<svg version="1.1" id="Layer_1" xmlns="http://www.w3.org/2000/svg" xmlns:xlink="http://www.w3.org/1999/xlink" x="0px" y="0px"
	 viewBox="0 0 40 40" style="enable-background:new 0 0 40 40;" xml:space="preserve">
<style type="text/css">
	.st0{fill:url(#SVGID_1_);}
	.st1{fill:#FFFFFF;}
</style>
<title>venus</title>
<linearGradient id="SVGID_1_" gradientUnits="userSpaceOnUse" x1="20" y1="2138.625" x2="20" y2="2101.375" gradientTransform="matrix(1 0 0 1 0 -2100)">
	<stop  offset="0" style="stop-color:#7E1BCC"/>
	<stop  offset="1" style="stop-color:#CC0FE0"/>
</linearGradient>
<path class="st0" d="M37,26.3V13.7c0-2.1-1.1-4.1-3-5.2L23,2.2c-1.8-1.1-4.2-1.1-6,0L6,8.5c-1.9,1.1-3,3.1-3,5.2v12.6
	c0,2.1,1.1,4.1,3,5.2l11,6.3c1.8,1.1,4.2,1.1,6,0l11-6.3C35.8,30.4,37,28.4,37,26.3z"/>
<path class="st1" d="M30.7,27.9l-5.5-9.5l-2.6-4.4l-2.9-5c-0.2-0.3-0.5-0.4-0.7-0.2c-0.1,0-0.2,0.1-0.2,0.2l-5.5,9.4l-2.2,3.9
	c-0.2,0.3-0.1,0.6,0.2,0.7c0.1,0,0.2,0.1,0.3,0.1l4.2,0c0.2,0,0.4-0.1,0.5-0.3l2.2-3.8l0.3-0.6c0,0,0,0,0-0.1
	c0.2-0.2,0.5-0.3,0.8-0.1c0.1,0,0.1,0.1,0.1,0.2l2.3,3.9l0.4,0.7c0,0,0,0.1,0.1,0.1c0.1,0.3-0.1,0.6-0.4,0.7c0,0-0.1,0-0.1,0l-5,0
	c-0.2,0-0.4,0.1-0.5,0.3l-2.1,3.7c-0.2,0.3-0.1,0.6,0.2,0.7c0.1,0,0.2,0.1,0.3,0.1l4.4,0l5.5,0l5.5,0c0.3,0,0.5-0.2,0.5-0.5
	C30.7,28.1,30.7,28,30.7,27.9z"/>
</svg>
