<svg width="500" height="500" viewBox="0 0 500 500" fill="none" xmlns="http://www.w3.org/2000/svg">
<g clip-path="url(#clip0_159_1125)">
<path d="M500 0V500H0V0H500Z" fill="url(#paint0_linear_159_1125)"/>
<path d="M296.264 192.354C293.066 192.354 289.868 192.354 288.27 192.354C277.077 193.952 264.285 195.551 251.494 195.551C238.702 195.551 225.911 193.952 214.718 192.354C211.52 192.354 208.322 192.354 206.723 192.354C158.755 198.749 123.578 213.14 123.578 232.327C123.578 254.712 179.541 273.9 249.895 273.9C320.248 273.9 376.212 256.311 376.212 232.327C379.41 213.14 345.832 197.15 296.264 192.354Z" fill="black"/>
<path d="M331.441 278.697C325.045 277.098 320.248 277.098 313.853 278.697C296.264 281.895 273.879 285.093 251.494 285.093C229.108 285.093 208.322 283.494 189.135 278.697C182.739 277.098 177.942 277.098 171.546 278.697C123.578 286.692 90 305.879 90 325.067C90 353.848 161.953 377.832 249.895 377.832C337.837 377.832 409.79 353.848 409.79 325.067C412.987 304.28 379.41 286.692 331.441 278.697Z" fill="black"/>
<path d="M249.895 185.958C302.879 185.958 345.832 171.64 345.832 153.979C345.832 136.317 302.879 122 249.895 122C196.91 122 153.958 136.317 153.958 153.979C153.958 171.64 196.91 185.958 249.895 185.958Z" fill="black"/>
</g>
<defs>
<linearGradient id="paint0_linear_159_1125" x1="250" y1="0" x2="250" y2="500" gradientUnits="userSpaceOnUse">
<stop stop-color="#F7F7F7"/>
<stop offset="1" stop-color="#DFE1E1"/>
</linearGradient>
<clipPath id="clip0_159_1125">
<rect width="500" height="500" fill="white"/>
</clipPath>
</defs>
</svg>
