<svg xmlns="http://www.w3.org/2000/svg" viewBox="0 0 40 40"><linearGradient id="a" gradientUnits="userSpaceOnUse" x1="20" y1="-5.803" x2="20" y2="32.347"><stop offset="0" stop-color="#0091ff"/><stop offset="1" stop-color="#2775c9"/></linearGradient><path d="M37 26.3V13.7c0-2.1-1.1-4.1-3-5.2L23 2.2c-1.9-1.1-4.1-1.1-6 0L6 8.5c-1.9 1.1-3 3.1-3 5.2v12.6c0 2.1 1.1 4.1 3 5.2l11 6.3c1.9 1.1 4.1 1.1 6 0l11-6.3c1.8-1.1 3-3 3-5.2z" fill="url(#a)"/><linearGradient id="b" gradientUnits="userSpaceOnUse" x1="1581.74" y1="-148.627" x2="2037.908" y2="307.541"><stop offset="0" stop-color="#455df0"/><stop offset="1" stop-color="#345d9d"/></linearGradient><path fill="none" stroke="url(#b)" stroke-miterlimit="10" d="M1661.2-227.1h297.2V386h-297.2z"/><linearGradient id="c" gradientUnits="userSpaceOnUse" x1="1297.516" y1="-458.814" x2="1708.553" y2="-47.778"><stop offset="0" stop-color="#455df0"/><stop offset="1" stop-color="#345d9d"/></linearGradient><path fill="none" stroke="url(#c)" stroke-width=".869" stroke-miterlimit="10" d="M1661.2-1.7l-454.6-276V-367h454.6z"/><path d="M20 30.5c-5.8 0-10.5-4.7-10.5-10.5S14.2 9.5 20 9.5 30.5 14.2 30.5 20 25.8 30.5 20 30.5zm-.6-14.4c-1.2.1-2.1 1-2.2 2.2 0 1.1.7 1.8 2.1 2.1l1 .2c1 .2 1.3.5 1.3 1.1 0 .5-.7 1.1-1.6 1.1-.6.1-1.3-.3-1.6-.8-.1-.2-.3-.3-.5-.3h-.5c-.2 0-.3.2-.3.4.3 1.1 1.2 1.8 2.3 1.9v.8c0 .3.3.6.6.6s.6-.3.6-.6V24c1.3 0 2.3-1 2.3-2.3 0-1.1-.7-1.8-2.2-2.1l-.9-.2c-.9-.2-1.3-.5-1.3-1s.5-1.1 1.4-1.1c.6-.1 1.1.2 1.4.7.1.2.4.4.6.4h.4c.2 0 .3-.2.3-.4-.2-1-1.1-1.7-2.1-1.8v-.6c0-.3-.3-.6-.6-.6s-.6.3-.6.6c.1-.2.1.5.1.5zM12.1 20c0 3.4 2.2 6.4 5.4 7.4h.1c.2 0 .4-.2.4-.4v-.2c0-.3-.2-.6-.5-.8-3.4-1.4-5-5.2-3.6-8.6.7-1.7 2-3 3.6-3.6.3-.1.5-.4.5-.8v-.2c0-.2-.2-.4-.4-.4h-.1c-3.2 1.2-5.4 4.2-5.4 7.6zm15.8 0c0-3.4-2.2-6.4-5.4-7.4h-.1c-.2 0-.4.2-.4.4v.1c0 .4.2.7.5.8 3.4 1.4 5 5.2 3.6 8.6-.7 1.6-2 3-3.6 3.6-.3.1-.5.4-.5.8v.2c0 .2.2.4.4.4h.1c3.2-1.1 5.4-4.1 5.4-7.5z" fill="#fff"/></svg>