<?xml version="1.0" encoding="utf-8"?>
<!-- Generator: Adobe Illustrator 22.0.0, SVG Export Plug-In . SVG Version: 6.00 Build 0)  -->
<svg version="1.1" id="Layer_1" xmlns="http://www.w3.org/2000/svg" xmlns:xlink="http://www.w3.org/1999/xlink" x="0px" y="0px"
	 viewBox="0 0 500 500" style="enable-background:new 0 0 500 500;" xml:space="preserve">
<style type="text/css">
	.st0{fill:url(#SVGID_1_);}
	.st1{fill:#41E6AF;}
</style>
<linearGradient id="SVGID_1_" gradientUnits="userSpaceOnUse" x1="500" y1="250.7334" x2="6.737355e-08" y2="250.7334" gradientTransform="matrix(0 -1 1 0 0 500)">
	<stop  offset="0" style="stop-color:#010201"/>
	<stop  offset="1" style="stop-color:#0D2213"/>
</linearGradient>
<polygon class="st0" points="500.7,0 500.7,500 0.7,500 0.7,0 "/>
<g>
	<path id="Layer" class="st1" d="M439.7,223.6l-10.8-18l0,0l-58.9-99h-0.3l-1.9-3.5h-21.5l-83.7,147.2l85,146.4h21.5l0.5-0.8
		L440,275.6h-43.3L359.3,342L306,250l52.2-92l37.9,65.4L439.7,223.6z"/>
	<path id="Layer_1_" class="st1" d="M112.2,199.7l39.3-67l-13.2-21.3l0,0l-9.2-15.1L61.9,215l0,0l-1.9,3.2l10.8,18.8H240l85.3-146.1
		l-11.8-20.5l-118.4,0.3h-1.9l-18.8-0.3l10,18.8l0,0l10,18.8l77.5-0.3l-53.3,91.8H112.2z"/>
	<path id="Layer_2_" class="st1" d="M195.9,122.2c-3,0-6.2,0.5-9.4,1.6c-3.5,1.1-7,2.7-10.2,4.6c-9.2,5.7-15.6,13.7-16.7,21.3
		c-0.5,3.5,0.3,6.5,2.2,8.6l0,0c0.3,0.5,0.8,0.8,1.1,1.3c0.3,0.3,0.5,0.3,0.8,0.5c0.3,0.3,0.3,0.3,0.5,0.5c0.5,0.3,0.8,0.5,1.3,0.8
		l0,0c5.7,2.7,14.5,2.2,23.1-1.9l0.3-0.3c0.8-0.3,1.6-0.8,2.4-1.1c0.8-0.3,1.3-0.8,2.2-1.3c0.8-0.5,1.6-1.1,2.4-1.6
		c0.8-0.5,1.3-1.1,2.2-1.6l0.5-0.3c0.5-0.5,1.1-0.8,1.6-1.3c0.3-0.3,0.3-0.3,0.5-0.5c0.5-0.3,0.8-0.8,1.1-1.1s0.5-0.5,0.8-1.1
		c0.3-0.5,0.8-0.8,1.1-1.3c0.3-0.3,0.3-0.3,0.5-0.5c0.3-0.5,0.8-0.8,1.1-1.3l0.5-0.5c0.3-0.5,0.5-0.8,0.8-1.3c0,0,0,0,0-0.3l0.3-0.5
		c0.5-0.5,0.8-1.3,1.1-1.9c0.3-0.5,0.5-1.3,0.8-1.9l0.3-0.3c0-0.3,0.3-0.5,0.3-0.5l0,0c0-0.3,0-0.3,0.3-0.5c0-0.5,0.3-0.8,0.3-1.3
		c0-0.5,0.3-0.5,0.3-0.8c0-0.3,0-0.5,0-0.5c0-0.5,0-0.8,0-1.1V134c0-0.5,0-0.8,0-1.3c0-0.3,0-0.3,0-0.5s0-0.5,0-0.5
		c0-0.3,0-0.3,0-0.5v-0.3c0-0.5-0.3-0.8-0.5-1.3s-0.5-0.8-0.8-1.3l0,0C206.9,124.1,201.8,122.2,195.9,122.2z"/>
	<path id="Layer_3_" class="st1" d="M215.6,141.8c0,0.5-0.3,0.8-0.5,1.3l0,0c0,0.3,0,0.3-0.3,0.5l0,0c-0.3,0.8-0.5,1.3-1.1,2.2l0,0
		l0,0c-3,5.7-7.8,11-13.7,15.3c-0.8,0.5-1.6,1.1-2.4,1.6c-0.8,0.5-1.6,1.1-2.4,1.3h-0.3l0,0c-0.3,0.3-0.5,0.3-0.8,0.5
		c-0.5,0.3-0.8,0.5-1.3,0.8h-0.3c-0.3,0-0.5,0.3-0.8,0.3c-0.5,0.3-1.1,0.5-1.6,0.5l-0.5,0.3c0,0,0,0-0.3,0c-0.3,0-0.5,0.3-0.8,0.3
		c-0.5,0.3-1.1,0.3-1.6,0.5l-0.5,0.3h-0.3c-0.5,0.3-1.1,0.3-1.6,0.5c-0.3,0-0.5,0.3-1.1,0.3l0,0l0,0H183c-0.5,0-1.1,0.3-1.3,0.3
		c-0.3,0-0.8,0-1.1,0.3h-0.3c-0.3,0-0.5,0-0.8,0.3c-0.3,0-0.5,0-0.8,0c-0.8,0-1.9,0.3-2.7,0.3h-0.3c-0.8,0-1.6,0-2.4,0
		c-0.3,0-0.5,0-0.5,0h-0.3c-0.5,0-1.1,0-1.6-0.3c-0.3,0-0.5,0-0.8-0.3c-0.5,0-1.1-0.3-1.6-0.3c-0.3,0-0.5-0.3-0.8-0.3l14.8,24
		l31.8-0.3l16.4-29.1l-14.8-24.2c0,0.3,0,0.5-0.3,0.8c0,0.3,0,0.3,0,0.5c0,0.3-0.3,0.5-0.3,1.1C215.6,141.5,215.6,141.8,215.6,141.8
		z"/>
	<path id="Layer_4_" class="st1" d="M384.3,229.3c1.6,2.4,2.7,5.4,3.5,8.9s1.3,7.3,1.3,11c0,10.8-3.5,20.5-9.4,25.3
		c-2.7,2.2-5.7,3.2-8.6,2.7l0,0c-0.5,0-1.1-0.3-1.6-0.3c-0.3,0-0.5-0.3-0.8-0.3c-0.3,0-0.5-0.3-0.8-0.3c-0.5-0.3-1.1-0.5-1.3-0.8
		l0,0c-5.4-3.5-9.4-11.3-10.5-20.7v-0.3c0-0.8-0.3-1.6-0.3-2.7c0-0.8,0-1.6,0-2.4c0-1.1,0-1.9,0-3c0-0.8,0-1.6,0.3-2.4v-0.5
		c0-0.5,0.3-1.3,0.3-1.9c0-0.3,0-0.5,0-0.8c0-0.5,0.3-1.1,0.3-1.6c0-0.5,0.3-0.8,0.3-1.3c0.3-0.5,0.3-1.1,0.5-1.6
		c0-0.3,0.3-0.5,0.3-0.8c0.3-0.5,0.3-1.1,0.5-1.6l0.3-0.8c0.3-0.5,0.5-0.8,0.5-1.3c0,0,0,0,0-0.3l0.3-0.5c0.3-0.8,0.8-1.3,1.1-1.9
		c0.3-0.5,0.8-1.1,1.1-1.6l0.3-0.3c0.3-0.3,0.3-0.3,0.5-0.5l0,0c0.3-0.3,0.3-0.3,0.3-0.5c0.3-0.3,0.5-0.5,0.8-0.8
		c0.3-0.3,0.5-0.5,0.5-0.5c0.3-0.3,0.3-0.3,0.5-0.5c0.3-0.3,0.5-0.5,0.8-0.8l0.5-0.3c0.3-0.3,0.8-0.5,1.1-0.8c0.3,0,0.3,0,0.5-0.3
		c0.3,0,0.5-0.3,0.5-0.3s0.3,0,0.3-0.3h0.3c0.5,0,0.8-0.3,1.3-0.3s1.1,0,1.6,0l0,0C377,220.9,381.1,224.2,384.3,229.3z"/>
	<path id="Layer_5_" class="st1" d="M357.1,222.8c-0.3,0.3-0.5,0.8-0.8,1.1l0,0c0,0.3-0.3,0.3-0.3,0.5l0,0c-0.5,0.5-0.8,1.3-1.3,1.9
		l0,0l0,0c-3.5,5.4-5.4,12.4-5.9,19.6c0,1.1,0,1.9,0,3c0,0.8,0,1.9,0,2.7v0.3l0,0c0,0.3,0,0.8,0,1.1c0,0.5,0,1.1,0.3,1.6v0.3
		c0,0.3,0,0.5,0,0.8c0,0.5,0.3,1.1,0.3,1.6v0.5c0,0,0,0,0,0.3c0,0.3,0,0.5,0.3,0.8c0,0.5,0.3,1.1,0.3,1.6l0.3,0.5v0.3
		c0,0.5,0.3,1.1,0.5,1.6c0,0.3,0.3,0.5,0.3,0.8l0,0l0,0v0.3c0.3,0.5,0.3,0.8,0.5,1.3c0,0.3,0.3,0.5,0.5,1.1v0.3
		c0,0.3,0.3,0.5,0.3,0.8c0.3,0.3,0.3,0.5,0.3,0.5c0.3,0.8,0.8,1.6,1.3,2.4l0.3,0.3c0.5,0.8,0.8,1.3,1.3,1.9c0,0.3,0.3,0.3,0.3,0.5
		l0.3,0.3c0.3,0.5,0.8,0.8,1.1,1.3c0.3,0.3,0.3,0.5,0.5,0.5c0.5,0.5,0.8,0.8,1.1,1.3c0.3,0.3,0.5,0.3,0.5,0.5H331L314.6,250
		l16.1-29.1H359c-0.3,0.3-0.3,0.3-0.5,0.5l-0.3,0.3C357.9,222,357.6,222.3,357.1,222.8C357.4,222.8,357.1,222.8,357.1,222.8z"/>
	<path id="Layer_6_" class="st1" d="M195.9,377.6c-3,0-6.2-0.5-9.4-1.6c-3.5-1.1-7-2.7-10.2-4.6c-9.2-5.7-15.6-13.7-16.7-21.3
		c-0.5-3.5,0.3-6.5,2.2-8.6l0,0c0.3-0.5,0.8-0.8,1.1-1.3c0.3-0.3,0.5-0.3,0.8-0.5c0.3-0.3,0.3-0.3,0.5-0.5c0.5-0.3,0.8-0.5,1.3-0.8
		l0,0c5.7-2.7,14.5-2.2,23.1,1.9l0.3,0.3c0.8,0.3,1.6,0.8,2.4,1.1c0.8,0.3,1.3,0.8,2.2,1.3c0.8,0.5,1.6,1.1,2.4,1.6
		c0.8,0.5,1.3,1.1,2.2,1.6l0.5,0.3c0.5,0.5,1.1,0.8,1.6,1.3c0.3,0.3,0.3,0.3,0.5,0.5c0.5,0.3,0.8,0.8,1.1,1.1
		c0.3,0.3,0.5,0.5,0.8,1.1s0.8,0.8,1.1,1.3c0.3,0.3,0.3,0.3,0.5,0.5c0.3,0.5,0.8,0.8,1.1,1.3l0.5,0.5c0.3,0.5,0.5,0.8,0.8,1.3v0.3
		l0.3,0.5c0.5,0.5,0.8,1.3,1.1,1.9s0.5,1.3,0.8,1.9l0.3,0.3c0,0.3,0.3,0.5,0.3,0.5l0,0c0,0.3,0,0.3,0.3,0.5c0,0.5,0.3,0.8,0.3,1.3
		c0,0.5,0.3,0.5,0.3,0.8c0,0.3,0,0.5,0,0.5c0,0.5,0,0.8,0,1.1v0.5c0,0.5,0,0.8,0,1.3c0,0.3,0,0.3,0,0.5c0,0.3,0,0.5,0,0.5
		c0,0.3,0,0.3,0,0.5v0.3c0,0.5-0.3,0.8-0.5,1.3s-0.5,0.8-0.8,1.3l0,0C206.9,375.7,201.8,377.8,195.9,377.6z"/>
	<path id="Layer_7_" class="st1" d="M215.6,357.9c0-0.5-0.3-0.8-0.5-1.3l0,0c0-0.3,0-0.3-0.3-0.5l0,0c-0.3-0.8-0.5-1.3-1.1-2.2l0,0
		c-3-5.7-7.8-11-13.7-15.3c-0.8-0.5-1.6-1.1-2.4-1.6c-0.8-0.5-1.6-1.1-2.4-1.3h-0.3l0,0c-0.3-0.3-0.5-0.3-0.8-0.5
		c-0.5-0.3-0.8-0.5-1.3-0.8h-0.3c-0.3,0-0.5-0.3-0.8-0.3c-0.5-0.3-1.1-0.5-1.6-0.5l-0.5-0.3c0,0,0,0-0.3,0c-0.3,0-0.5-0.3-0.8-0.3
		c-0.5-0.3-1.1-0.3-1.6-0.5l-0.5-0.3h-0.3c-0.5-0.3-1.1-0.3-1.6-0.5c-0.3,0-0.5-0.3-1.1-0.3l0,0l0,0H183c-0.5,0-1.1-0.3-1.3-0.3
		c-0.3,0-0.8,0-1.1-0.3h-0.3c-0.3,0-0.5,0-0.8-0.3c-0.3,0-0.5,0-0.8,0c-0.8,0-1.9-0.3-2.7-0.3h-0.3c-0.8,0-1.6,0-2.4,0
		c-0.3,0-0.5,0-0.5,0h-0.3c-0.5,0-1.1,0-1.6,0.3c-0.3,0-0.5,0-0.8,0.3c-0.5,0-1.1,0.3-1.6,0.3c-0.3,0-0.5,0.3-0.8,0.3l14.8-24
		l31.8,0.3l16.4,29.1l-14.8,24.2c0-0.3,0-0.5-0.3-0.8c0-0.3,0-0.3,0-0.5c0-0.3-0.3-0.5-0.3-1.1C215.6,358.2,215.6,357.9,215.6,357.9
		z"/>
	<path id="Layer_8_" class="st1" d="M271.8,391.8l-77.5-0.3l-11.8,22.3l-8.1,15.3l20.7-0.3v0.3l118.4,0.3l11.8-20.5L240,262.9
		l-169.3-0.3L60,281.5l2.2,3.5h-0.3l67.3,118.4l22.3-36.3l-39.3-66.7h106.3L271.8,391.8z"/>
</g>
</svg>
