<?xml version="1.0" encoding="utf-8"?>
<!-- Generator: Adobe Illustrator 22.0.0, SVG Export Plug-In . SVG Version: 6.00 Build 0)  -->
<svg version="1.1" id="Layer_1" xmlns="http://www.w3.org/2000/svg" xmlns:xlink="http://www.w3.org/1999/xlink" x="0px" y="0px"
	 viewBox="0 0 40 40" style="enable-background:new 0 0 40 40;" xml:space="preserve">
<style type="text/css">
	.st0{fill:url(#SVGID_1_);}
	.st1{fill:#FFFFFF;}
	.st2{fill:url(#SVGID_2_);}
	.st3{fill:#FEFEFE;}
</style>
<linearGradient id="SVGID_1_" gradientUnits="userSpaceOnUse" x1="-12.5831" y1="-1005.1785" x2="24.7086" y2="-1005.1785" gradientTransform="matrix(0 1 -1 0 -985.1785 13.9581)">
	<stop  offset="1.198744e-03" style="stop-color:#074D7C"/>
	<stop  offset="1" style="stop-color:#003264"/>
</linearGradient>
<path class="st0" d="M37,26.3V13.7c0-2.1-1.1-4.1-3-5.2L23,2.2c-1.9-1.1-4.1-1.1-6,0L6,8.5c-1.9,1.1-3,3.1-3,5.2v12.6
	c0,2.1,1.1,4.1,3,5.2l11,6.3c1.9,1.1,4.1,1.1,6,0l11-6.3C35.8,30.4,37,28.5,37,26.3z"/>
<g>
	<path class="st1" d="M11.2,19.9c-0.2-0.1-0.4-0.2-0.6-0.3c-0.4-0.2-0.7-0.4-1.1-0.5c0,0-0.1-0.1-0.1-0.1c0-0.4,0-0.8,0.1-1.1
		c0.1-0.6,0.2-1.1,0.4-1.7c0.2-0.7,0.5-1.3,0.9-1.9c0.3-0.5,0.7-0.9,1-1.3c0.7-0.7,1.5-1.4,2.4-1.9c0.7-0.4,1.5-0.7,2.3-1
		c0.5-0.2,1.1-0.3,1.7-0.4c0.4-0.1,0.8-0.1,1.3-0.1c0.3,0,0.6,0,0.8,0c0.4,0,0.8,0,1.1,0.1c0.7,0.1,1.4,0.3,2.1,0.5
		c0.7,0.3,1.4,0.6,2.1,1c0.5,0.3,0.9,0.7,1.4,1c0.6,0.5,1.1,1.1,1.5,1.7c0.3,0.5,0.6,1,0.9,1.5c0.4,0.9,0.7,1.8,0.9,2.7
		c0.1,0.3,0.1,0.6,0.2,0.9c0,0.1,0,0.1-0.1,0.1c-0.5,0.3-1.1,0.5-1.6,0.8c0,0,0,0-0.1,0c0.1,0.1,0.2,0.1,0.3,0.2
		c0.5,0.3,0.9,0.6,1.4,0.8c0,0,0.1,0,0,0.1c0,0.3-0.1,0.7-0.1,1c-0.1,0.5-0.2,1-0.4,1.6c-0.3,0.8-0.6,1.5-1.1,2.2
		c-0.3,0.5-0.7,0.9-1.1,1.3c-0.7,0.8-1.6,1.4-2.5,2c-0.9,0.5-1.9,0.9-2.9,1.1c-0.4,0.1-0.8,0.2-1.3,0.2c-0.2,0-0.5,0-0.7,0.1
		c-0.3,0-0.6,0-0.9,0c-0.4,0-0.8-0.1-1.2-0.1c-0.6-0.1-1.3-0.2-1.9-0.4c-1-0.3-2-0.9-2.8-1.5c-0.4-0.3-0.8-0.7-1.2-1.1
		c-0.5-0.6-1-1.2-1.4-1.9c-0.4-0.7-0.7-1.5-1-2.3c-0.2-0.6-0.3-1.3-0.5-1.9c0-0.1,0-0.1,0-0.2c0-0.1,0-0.1,0-0.1
		C10.1,20.6,10.6,20.2,11.2,19.9C11.2,19.9,11.2,19.9,11.2,19.9z"/>
	<linearGradient id="SVGID_2_" gradientUnits="userSpaceOnUse" x1="20.0032" y1="10.3472" x2="20.0032" y2="29.6545">
		<stop  offset="1.198744e-03" style="stop-color:#074D7C"/>
		<stop  offset="1" style="stop-color:#003264"/>
	</linearGradient>
	<path class="st2" d="M27.1,19.9c0.2,0.1,0.3,0.2,0.5,0.3c0.7,0.4,1.4,0.8,2,1.3c0,0,0,0,0,0.1c-0.1,0.6-0.2,1.1-0.3,1.6
		C29,24.1,28.6,25,28,25.8c-0.8,1.1-1.8,1.9-3,2.5c-0.8,0.5-1.7,0.8-2.6,1c-0.6,0.1-1.1,0.2-1.7,0.3c-0.4,0-0.9,0.1-1.3,0
		c-0.9,0-1.8-0.2-2.7-0.5c-1-0.3-1.9-0.8-2.8-1.4c-0.9-0.7-1.7-1.6-2.3-2.6c-0.6-1.1-1-2.3-1.3-3.5c0-0.1,0-0.1,0.1-0.2
		c0.8-0.5,1.6-1,2.4-1.5c0,0,0,0,0.1,0c-0.2-0.1-0.3-0.2-0.5-0.3c-0.7-0.4-1.3-0.8-2-1.1c-0.1,0-0.1-0.1-0.1-0.2
		c0.1-0.8,0.3-1.6,0.7-2.4c0.4-0.9,0.9-1.7,1.6-2.4c0.9-1,2-1.7,3.2-2.3c0.7-0.3,1.5-0.6,2.3-0.7c0.4-0.1,0.8-0.1,1.2-0.2
		c0.3,0,0.6,0,0.9,0c0.8,0,1.6,0.1,2.4,0.3c1.2,0.3,2.3,0.9,3.3,1.7c1,0.8,1.8,1.8,2.4,2.9c0.5,1,0.9,2,1.2,3.1c0,0.1,0,0.1-0.1,0.1
		C28.8,19,27.9,19.4,27.1,19.9C27.1,19.9,27.1,19.9,27.1,19.9z"/>
	<path class="st3" d="M19.9,18.6c0.2-0.3,0.3-0.6,0.5-0.8c0.3-0.6,0.7-1.1,1-1.7c0,0,0-0.1,0.1-0.1c0.4,0,0.8,0,1.2,0
		c0,0,0,0.1,0,0.1c-0.7,1.1-1.3,2.3-2,3.4c0,0.1,0,0.1,0,0.2c0.7,1.4,1.5,2.7,2.2,4.1c0,0,0,0,0,0c0,0,0,0.1,0,0.1
		c-0.2,0-0.4,0-0.5,0c-0.3,0-0.5,0-0.8,0c-0.1,0-0.1,0-0.1-0.1c-0.5-0.9-1.1-1.9-1.6-2.8c0,0,0,0,0-0.1c-0.1,0.2-0.2,0.3-0.3,0.5
		c-0.5,0.8-0.9,1.6-1.4,2.4c0,0-0.1,0.1-0.1,0.1c-0.4,0-0.8-0.1-1.2-0.1c0,0,0-0.1,0-0.1c0.7-1.1,1.3-2.2,2-3.3
		c0.1-0.2,0.3-0.5,0.4-0.7c0-0.1,0-0.1,0-0.2c-0.7-1.1-1.4-2.3-2.1-3.4c0,0,0,0,0-0.1c0.1,0,0.3,0,0.4,0c0.3,0,0.6,0,0.9-0.1
		c0.1,0,0.1,0,0.1,0.1C18.9,16.8,19.4,17.7,19.9,18.6C19.9,18.5,19.9,18.5,19.9,18.6z"/>
</g>
<title>Asset 1</title>
<title>Asset 1</title>
</svg>
