<svg width="500" height="500" viewBox="0 0 500 500" fill="none" xmlns="http://www.w3.org/2000/svg">
<g clip-path="url(#clip0_160_1237)">
<path d="M500 0V500H0V0H500Z" fill="url(#paint0_linear_160_1237)"/>
<path d="M90 250C90 161.602 161.602 90 250 90C338.398 90 410 161.602 410 250C410 338.398 338.398 410 250 410C161.602 410 90 338.398 90 250Z" stroke="white" stroke-width="15"/>
<path d="M94.7761 205.684C124.87 197.008 119.36 194.943 125.717 197.008C132.075 199.074 240.973 402.312 241.642 405.224" stroke="white" stroke-width="15"/>
<path d="M125.821 198.656C129.57 199.427 171.611 225.343 176.232 231.274C180.854 237.204 187.155 256.266 192.196 260.079C197.237 263.891 201.858 262.62 206.479 260.926C211.1 259.231 226.644 238.475 230.845 235.51C235.046 232.544 240.087 234.239 242.608 238.899C245.128 243.558 323.313 384.046 326.418 389.701" stroke="white" stroke-width="15"/>
<path d="M233.284 236.865L221.343 367.014" stroke="white" stroke-width="15"/>
<path d="M258.358 262.371C263.012 258.99 263.435 260.68 265.974 257.722C268.512 254.765 269.359 247.581 270.628 243.355C271.897 239.13 276.974 240.398 280.359 241.665C283.744 242.933 287.129 244.623 290.09 248.849C293.052 253.074 359.054 330.403 366.247 333.783C373.44 337.164 374.299 336.422 382.537 337.164" stroke="white" stroke-width="15"/>
</g>
<defs>
<linearGradient id="paint0_linear_160_1237" x1="250" y1="0" x2="250" y2="500" gradientUnits="userSpaceOnUse">
<stop stop-color="#3D3E54"/>
<stop offset="1" stop-color="#292938"/>
</linearGradient>
<clipPath id="clip0_160_1237">
<rect width="500" height="500" fill="white"/>
</clipPath>
</defs>
</svg>
