<svg id="Layer_1" data-name="Layer 1" xmlns="http://www.w3.org/2000/svg" xmlns:xlink="http://www.w3.org/1999/xlink" viewBox="0 0 40 40">
  <defs>
    <style>
      .cls-1 {
        fill: url(#linear-gradient);
      }

      .cls-2 {
        fill: #fff;
      }
    </style>
    <linearGradient id="linear-gradient" x1="20" y1="-5.8026" x2="20" y2="32.3468" gradientTransform="matrix(1, 0, 0, -1, 0, 40)" gradientUnits="userSpaceOnUse">
      <stop offset="0" stop-color="#8656ef"/>
      <stop offset="0.84744" stop-color="#2b97fc"/>
      <stop offset="1" stop-color="#1aa3ff"/>
    </linearGradient>
  </defs>
  <title>euroc</title>
  <path class="cls-1" d="M37,26.3V13.7a6.00113,6.00113,0,0,0-3-5.2L23,2.2a5.867,5.867,0,0,0-6,0L6,8.5a6.00113,6.00113,0,0,0-3,5.2V26.3a6.00113,6.00113,0,0,0,3,5.2l11,6.3a5.867,5.867,0,0,0,6,0l11-6.3A6.09187,6.09187,0,0,0,37,26.3Z"/>
  <g id="Path">
    <path class="cls-2" d="M14.81035,20.67079l-.52987.71524a.37318.37318,0,0,0,.333.54134h1.734c.54831,2.26676,2.12728,3.81255,4.24288,3.7806a3.63187,3.63187,0,0,0,3.39021-2.23378.37324.37324,0,0,0-.18208-.50817l-.82708-.3695a.37178.37178,0,0,0-.485.17369,2.08906,2.08906,0,0,1-1.896,1.29714,2.13462,2.13462,0,0,1-1.87514-1.14762,4.20651,4.20651,0,0,1-.44754-.99215h2.22089a.37334.37334,0,0,0,.333-.20483l.52987-.71523a.37314.37314,0,0,0-.333-.54135H18.01786c-.0086-.15382-.01393-.31071-.01393-.47252-.00164-.16038.00287-.31727.01127-.47191h2.47343a.37335.37335,0,0,0,.333-.20482l.52987-.71524a.37318.37318,0,0,0-.333-.54134H18.26508c.40268-1.31312,1.24347-2.17337,2.32534-2.15637a2.1018,2.1018,0,0,1,1.87474,1.19043.36924.36924,0,0,0,.47231.15259l.83138-.367a.3725.3725,0,0,0,.17819-.51861,3.64737,3.64737,0,0,0-3.35662-2.082,3.88353,3.88353,0,0,0-3.2329,1.59228,5.71709,5.71709,0,0,0-1.00629,2.18873H15.1436a.37331.37331,0,0,0-.333.20482l-.52988.71524a.37314.37314,0,0,0,.333.54134h1.538c-.00737.15526-.01454.31092-.01454.47191-.00205.15956.00184.31686.0086.47252h-1.002a.37334.37334,0,0,0-.333.20483Z"/>
    <path class="cls-2" d="M10.377,19.3841a9.6344,9.6344,0,0,1,15.64716-6.90434.4598.4598,0,0,0,.59419-.01536l.70847-.63208a.4614.4614,0,0,0-.01126-.699A11.49446,11.49446,0,0,0,10.3608,26.26488a.46061.46061,0,0,0,.69189.0891l.70766-.63147a.45853.45853,0,0,0,.08357-.587,9.59213,9.59213,0,0,1-1.46673-5.7514Z"/>
    <path class="cls-2" d="M29.63945,13.73532a.46076.46076,0,0,0-.69189-.0891l-.70766.63147a.45854.45854,0,0,0-.08357.587A9.63526,9.63526,0,0,1,13.9757,27.52024a.45979.45979,0,0,0-.59418.01536l-.70828.63208a.4614.4614,0,0,0,.01127.699A11.49438,11.49438,0,0,0,29.63924,13.73532Z"/>
  </g>
</svg>
