<?xml version="1.0" encoding="utf-8"?>
<!-- Generator: Adobe Illustrator 22.0.0, SVG Export Plug-In . SVG Version: 6.00 Build 0)  -->
<svg version="1.1" id="Layer_1" xmlns="http://www.w3.org/2000/svg" xmlns:xlink="http://www.w3.org/1999/xlink" x="0px" y="0px"
	 viewBox="0 0 40 40" style="enable-background:new 0 0 40 40;" xml:space="preserve">
<style type="text/css">
	.st0{fill:url(#SVGID_1_);}
	.st1{fill:#FFFFFF;}
</style>
<linearGradient id="SVGID_1_" gradientUnits="userSpaceOnUse" x1="-92.5831" y1="681.1784" x2="-55.2914" y2="681.1784" gradientTransform="matrix(6.123234e-17 1 1 -6.123234e-17 -661.1784 93.9581)">
	<stop  offset="0" style="stop-color:#FFCC00"/>
	<stop  offset="0.9883" style="stop-color:#F49916"/>
</linearGradient>
<path class="st0" d="M37,26.3V13.7c0-2.1-1.1-4.1-3-5.2L23,2.2c-1.9-1.1-4.1-1.1-6,0L6,8.5c-1.9,1.1-3,3.1-3,5.2v12.6
	c0,2.1,1.1,4.1,3,5.2l11,6.3c1.9,1.1,4.1,1.1,6,0l11-6.3C35.8,30.4,37,28.5,37,26.3z"/>
<path class="st1" d="M25.1,27.5c-1.3,0.5-2.6,0.3-3.1,0.2c-0.3,0-0.7-0.1-1.2-0.2l-0.8,3L18.1,30l0.8-3l-1.4-0.4l-0.8,3l-1.9-0.5
	l0.8-3l-3.6-1l1-2.1l1.1,0.3c0.4,0.1,0.5,0.1,0.7,0c0.2-0.1,0.3-0.3,0.3-0.5l2.1-7.7c0.1-0.5,0.1-0.6,0-0.9c-0.2-0.3-0.7-0.5-1-0.6
	l-1.1-0.3l0.5-1.9l3.6,1l0.8-3l1.9,0.5l-0.8,3l1.4,0.4l0.8-3l1.9,0.5l-0.8,3c1.4,0.5,2.3,1,3,1.9c0.9,1.2,0.5,2.6,0.3,3
	c-0.1,0.3-0.5,1-0.9,1.3c-0.4,0.4-1.3,0.6-1.3,0.6s0.8,0.4,1.4,1.1c0.5,0.6,0.7,1.6,0.4,2.8C27,25.8,26.4,27,25.1,27.5z M21.2,21
	c-0.7-0.2-1.4-0.4-2.1-0.6l-1.1,4c0,0,1.2,0.4,2.1,0.5c0.8,0.2,1.7,0.2,2.2,0.1c0.5-0.1,1.1-0.3,1.3-1.3c0.2-0.9-0.3-1.5-0.6-1.7
	C22.8,21.8,22.1,21.4,21.2,21L21.2,21z M21.2,19.1c0.7,0.2,1.4,0.2,2,0c0.6-0.1,1-0.5,1.2-1.2c0.2-0.7-0.1-1.4-0.8-1.8
	c-0.7-0.4-1.2-0.6-1.8-0.8s-1.2-0.3-1.2-0.3l-1,3.6C19.6,18.6,20.5,18.9,21.2,19.1z"/>
</svg>
