<?xml version="1.0" encoding="utf-8"?>
<!-- Generator: Adobe Illustrator 22.0.0, SVG Export Plug-In . SVG Version: 6.00 Build 0)  -->
<svg version="1.1" id="Layer_1" xmlns="http://www.w3.org/2000/svg" xmlns:xlink="http://www.w3.org/1999/xlink" x="0px" y="0px"
	 viewBox="0 0 40 40" style="enable-background:new 0 0 40 40;" xml:space="preserve">
<style type="text/css">
	.st0{fill:url(#SVGID_1_);}
	.st1{fill:#F00500;}
	.st2{fill:#FFFFFF;}
	.st3{fill:none;}
	.st4{fill:#FFA409;}
	.st5{fill:#FF9300;}
	.st6{fill:#FF8300;}
</style>
<linearGradient id="SVGID_1_" gradientUnits="userSpaceOnUse" x1="257.4169" y1="1819.2784" x2="294.7087" y2="1819.2784" gradientTransform="matrix(0 1 1 0 -1799.1785 -256.0419)">
	<stop  offset="1.198744e-03" style="stop-color:#FDBA12"/>
	<stop  offset="1" style="stop-color:#DC1C14"/>
</linearGradient>
<path class="st0" d="M37.1,26.3V13.7c0-2.1-1.1-4.1-3-5.2l-11-6.3c-1.9-1.1-4.1-1.1-6,0l-11,6.3c-1.9,1.1-3,3.1-3,5.2v12.6
	c0,2.1,1.1,4.1,3,5.2l11,6.3c1.9,1.1,4.1,1.1,6,0l11-6.3C35.9,30.4,37.1,28.5,37.1,26.3z"/>
<g id="Group_938" transform="translate(-953.348 -232.003)">
	<g id="Group_931">
		<path id="Path_8573" class="st1" d="M978.2,244c-0.5,0.5-1,1.1-1.4,1.7h-0.1c-0.8-0.2-1.6-0.4-2.4-0.5c-0.2,0-1.1,0-1.4,0
			c-0.9,0.1-1.6,0.2-2.3,0.5h-0.1c-0.4-0.6-0.9-1.1-1.5-1.7c2.6-1.3,5.6-1.5,8.2-0.4c0.3,0.1,0.6,0.2,0.8,0.4H978.2z"/>
		<path id="Path_8574" class="st1" d="M983,255.7c-0.4,1.1-1,2.1-1.7,3c-0.4,0.5-0.9,0.9-1.4,1.3c-1.1,0.9-2.5,1.6-3.9,1.9
			c-1.6,0.4-3.2,0.4-4.8,0c-1.4-0.3-2.8-1-3.9-1.9c-0.5-0.4-0.9-0.8-1.4-1.3c-2.2-2.6-2.8-6.1-1.7-9.3c0.2-0.6,0.5-1.2,0.8-1.7
			c0.1-0.2,0.3-0.5,0.4-0.6c0.3,1.3,0.7,2.4,0.8,2.8c0,0,0,0,0,0.1c-0.7,1.5-1.1,2.9-1.2,4.3c0,0,0,0,0,0.1c0,0.4,0,0.7,0.1,0.9
			c0.2,0.9,0.9,1.8,2.1,2.8c1.8,1.6,4.3,2.7,6.2,2.8c2,0.1,4.8-1,6.8-2.7c0.3-0.3,0.6-0.6,0.9-0.9c0.2-0.2,0.5-0.6,0.5-0.6l0,0l0,0
			l0,0l0,0l0,0l0,0l0,0l0,0l0,0l0,0c0,0,0,0,0-0.1s0.2-0.4,0.3-0.5c0.2-0.4,0.3-0.8,0.3-1.1c0-0.2,0-0.5,0-0.6c0,0,0,0,0-0.1
			s0-0.2,0-0.2c0-0.1,0-0.3,0-0.4c-0.1-1.4-0.5-2.5-1.2-3.8l-0.1-0.1l0,0l0,0c0.1-0.3,0.5-1.5,0.8-2.9l0,0v0.1
			c0.1,0.1,0.3,0.4,0.4,0.6c0.4,0.7,0.8,1.5,1,2.3C983.7,251.7,983.6,253.8,983,255.7z"/>
		<path id="Path_8575" d="M979,252c0,0-0.2,0.2-0.3,0.3c-0.4,0.3-1.2,0.6-2,0.7c-0.4,0.1-0.9,0.1-1,0c-0.1,0-0.1-0.1-0.1-0.2
			c0.1-0.2,0.3-0.5,0.6-0.7c0.2-0.1,0.8-0.5,1.2-0.7c0.5-0.3,0.9-0.5,1.2-0.5c0.1,0,0.2,0,0.2,0c0.1,0,0.1,0.2,0.1,0.4
			C979,251.4,979,251.9,979,252z"/>
		<path id="Path_8576" d="M971.7,253c0,0-0.1,0.1-0.2,0.1c-0.1,0-0.4,0-0.6,0c-0.7-0.1-1.3-0.3-1.9-0.5c-0.3-0.1-0.5-0.3-0.6-0.4
			l-0.1-0.1V252c0-0.2,0-0.5,0-0.6s0-0.2,0.1-0.3c0,0,0,0,0.1,0s0.2,0,0.4,0.1c0.4,0.1,0.9,0.4,1.6,0.8c0.6,0.3,0.8,0.5,0.9,0.7
			C971.6,252.7,971.7,252.9,971.7,253z"/>
		<path id="Path_8577" d="M976.1,257.3c0,0,0,0.2-0.1,0.3c0,0.2-0.1,0.3-0.1,0.3h-0.1h-0.1l-0.1,0.3c-0.1,0.2-0.1,0.3-0.2,0.4l0,0
			l-0.1-0.1l-0.1-0.1v-0.9l0,0c-0.1,0-0.4,0.1-0.6,0.1c-0.7,0.1-1.4,0.1-2,0c-0.1,0-0.2,0-0.2,0s0,0.2,0,0.4v0.4l-0.1,0.1l-0.1,0.1
			c0,0,0,0-0.1-0.2c-0.1-0.1-0.1-0.3-0.2-0.5v-0.1h-0.1h-0.1v-0.1c0-0.1,0-0.2,0-0.2v-0.1l-0.1-0.1l-0.1-0.1c0,0,0,0,0-0.1l0,0h0.4
			h0.4l0,0l0,0h0.1c0.1,0,0.3,0,0.5,0h0.4l0.1-0.2l0.1-0.2h0.1v-0.3v-0.3l-0.2-0.1c-0.5-0.2-0.9-0.5-1-0.8c0-0.1,0-0.1,0-0.4
			c0-0.3,0-0.3,0-0.4c0-0.2,0.2-0.3,0.3-0.3s0.2,0,0.9,0h0.9h0.1c0.1,0.1,0.2,0.1,0.2,0.2c0.1,0.1,0.1,0.2,0.1,0.4
			c0,0.3,0,0.5,0,0.6s-0.1,0.2-0.2,0.4c-0.2,0.2-0.4,0.4-0.7,0.5h-0.1v0.3v0.3h0.1h0.1l0.1,0.1l0.1,0.1h0.4c0.2,0,0.4,0,0.4,0
			s0,0,0.1,0v-0.1h0.4C976,257.3,976.1,257.3,976.1,257.3z"/>
		<path id="Path_8578" d="M974.4,258.2C974.3,258.2,974.3,258.2,974.4,258.2c-0.1,0-0.2,0-0.2-0.1l-0.1-0.1l0,0.2
			c-0.2,0.2-0.2,0.2-0.2,0.2c-0.1,0-0.1,0-0.2-0.2c-0.1-0.1-0.1-0.1-0.1-0.1s0,0-0.1,0h-0.1v0.1v0.1h-0.1c-0.1,0-0.1,0-0.2-0.1H973
			V258h0.8h0.8v0.1C974.6,258.1,974.6,258.1,974.4,258.2z"/>
	</g>
	<path id="Path_8579" class="st2" d="M982.1,254.4L982.1,254.4c-0.7-0.1-2.9-0.2-4.8,1.4c0,0-0.6-2.9-3.6-2.9s-4.1,2.9-4.1,2.9
		c-1.7-1.8-3.9-1.7-4.7-1.5c0,0,0,0,0,0.1c0,0.4,0,0.7,0.1,0.9c0.2,0.9,0.9,1.8,2.1,2.8c1.8,1.6,4.3,2.7,6.2,2.8
		c2,0.1,4.8-1,6.8-2.7c0.3-0.3,0.6-0.6,0.9-0.9c0.2-0.2,0.5-0.6,0.5-0.6l0,0l0,0l0,0l0,0l0,0l0,0l0,0l0,0l0,0l0,0c0,0,0,0,0-0.1
		s0.2-0.4,0.3-0.5c0.2-0.4,0.3-0.8,0.3-1.1C982.1,254.8,982.1,254.5,982.1,254.4z M974.4,258.2C974.3,258.2,974.3,258.2,974.4,258.2
		c-0.1,0-0.2,0-0.2-0.1l-0.1-0.1l0,0.2c-0.2,0.2-0.2,0.2-0.2,0.2c-0.1,0-0.1,0-0.2-0.2c-0.1-0.1-0.1-0.1-0.1-0.1s0,0-0.1,0h-0.1v0.1
		v0.1h-0.1c-0.1,0-0.1,0-0.2-0.1H973V258h0.8h0.8v0.1C974.6,258.1,974.6,258.1,974.4,258.2z M976,257.6c0,0.2-0.1,0.3-0.1,0.3h-0.1
		h-0.1l-0.1,0.3c-0.1,0.2-0.1,0.3-0.2,0.4l0,0l-0.1-0.1l-0.1-0.1v-0.9l0,0c-0.1,0-0.4,0.1-0.6,0.1c-0.7,0.1-1.4,0.1-2,0
		c-0.1,0-0.2,0-0.2,0s0,0.2,0,0.4v0.4l-0.1,0.1l-0.1,0.1c0,0,0,0-0.1-0.2c-0.1-0.1-0.1-0.3-0.2-0.5v-0.1h-0.1h-0.1v-0.1
		c0-0.1,0-0.2,0-0.2v-0.1l-0.1-0.1l-0.1-0.1c0,0,0,0,0-0.1l0,0h0.4h0.4l0,0l0,0h0.1c0.1,0,0.3,0,0.5,0h0.4l0.1-0.2l0.1-0.2h0.1v-0.3
		v-0.3l-0.2-0.1c-0.5-0.2-0.9-0.5-1-0.8c0-0.1,0-0.1,0-0.4c0-0.3,0-0.3,0-0.4c0-0.2,0.2-0.3,0.3-0.3s0.2,0,0.9,0h0.9h0.1
		c0.1,0.1,0.2,0.1,0.2,0.2c0.1,0.1,0.1,0.2,0.1,0.4c0,0.3,0,0.5,0,0.6s-0.1,0.2-0.2,0.4c-0.2,0.2-0.4,0.4-0.7,0.5h-0.1v0.3v0.3h0.1
		h0.1l0.1,0.1l0.1,0.1h0.4c0.2,0,0.4,0,0.4,0s0,0,0.1,0v-0.1h0.4c0.3,0,0.4,0,0.4,0C976.1,257.3,976,257.4,976,257.6z"/>
	<path id="Path_8580" class="st3" d="M965,254.3c-0.2,0-0.3,0.1-0.3,0.1"/>
	<path id="Path_8581" class="st3" d="M982.4,254.4c0,0-0.1,0-0.3,0"/>
	<path id="Path_8582" class="st4" d="M982.1,254.1c0-0.1,0-0.3,0-0.4c-0.1-1.4-0.5-2.5-1.2-3.8l-0.1-0.1l0,0l0,0
		c0.1-0.3,0.5-1.5,0.8-2.9c0.4-1.9,0.7-4-0.1-4.7c0,0-1.4-0.1-3.3,1.8c-0.5,0.5-1,1.1-1.4,1.7h-0.1c-0.8-0.2-1.6-0.4-2.4-0.5
		c-0.2,0-1.1,0-1.4,0c-0.9,0.1-1.6,0.2-2.3,0.5h-0.1c-0.4-0.6-0.9-1.1-1.5-1.7c-2-1.9-3.4-1.8-3.4-1.8c-0.9,0.7-0.6,3-0.1,4.9
		c0.3,1.3,0.7,2.4,0.8,2.8c0,0,0,0,0,0.1c-0.7,1.5-1.1,2.9-1.2,4.3c0.8-0.1,3-0.2,4.7,1.5c0,0,1.1-2.9,4.1-2.9s3.6,2.9,3.6,2.9
		c2-1.6,4.1-1.6,4.8-1.5C982.1,254.3,982.1,254.2,982.1,254.1z M966.8,248.7c0,0-1.2-2.9-0.9-4.5l0,0c0-0.3,0.1-0.5,0.3-0.7
		c0,0,1.3,0.1,3.4,2.5c0,0-0.4,0.2-0.9,0.6l0,0C968.1,247,967.4,247.7,966.8,248.7L966.8,248.7z M971.7,253c0,0-0.1,0.1-0.2,0.1
		c-0.1,0-0.4,0-0.6,0c-0.7-0.1-1.3-0.3-1.9-0.5c-0.3-0.1-0.5-0.3-0.6-0.4l-0.1-0.1V252c0-0.2,0-0.5,0-0.6s0-0.2,0.1-0.3
		c0,0,0,0,0.1,0s0.2,0,0.4,0.1c0.4,0.1,0.9,0.4,1.6,0.8c0.6,0.3,0.8,0.5,0.9,0.7C971.6,252.7,971.7,252.9,971.7,253z M979,252
		c0,0-0.2,0.2-0.3,0.3c-0.4,0.3-1.2,0.6-2,0.7c-0.4,0.1-0.9,0.1-1,0c-0.1,0-0.1-0.1-0.1-0.2c0.1-0.2,0.3-0.5,0.6-0.7
		c0.2-0.1,0.8-0.5,1.2-0.7c0.5-0.3,0.9-0.5,1.2-0.5c0.1,0,0.2,0,0.2,0c0.1,0,0.1,0.2,0.1,0.4C979,251.4,979,251.9,979,252z
		 M978.4,246.6L978.4,246.6c-0.5-0.4-0.9-0.6-0.9-0.6c2-2.3,3.3-2.5,3.3-2.5c0.1,0.2,0.2,0.4,0.3,0.7l0,0c0.3,1.6-0.8,4.5-0.8,4.5
		C979.8,247.9,979.2,247.1,978.4,246.6L978.4,246.6z"/>
	<path id="Path_8583" class="st3" d="M976.8,245.6L976.8,245.6"/>
	<path id="Path_8584" class="st3" d="M980.8,249.7C980.8,249.8,980.8,249.8,980.8,249.7"/>
	<g id="Group_934">
		<g id="Group_933">
			<g id="Group_932">
				<path id="Path_8585" class="st5" d="M981.1,244.2c-0.2,0-1.4,0-2.7,2.4l0,0c-0.5-0.4-0.9-0.6-0.9-0.6c2-2.3,3.3-2.5,3.3-2.5
					C981,243.7,981.1,243.9,981.1,244.2z"/>
			</g>
			<path id="Path_8586" class="st6" d="M980.3,248.7c-0.5-0.8-1.1-1.6-1.8-2.2c1.3-2.4,2.4-2.4,2.7-2.4l0,0
				C981.4,245.8,980.3,248.7,980.3,248.7z"/>
			<path id="Path_8587" class="st6" d="M981.2,244.2C981.1,244.2,981.1,244.2,981.2,244.2L981.2,244.2z"/>
		</g>
	</g>
	<path id="Path_8588" class="st3" d="M970.5,245.7l-0.1-0.1"/>
	<path id="Path_8589" class="st3" d="M966.2,249.9c0,0.1,0.1,0.2,0.1,0.2"/>
	<g id="Group_937">
		<g id="Group_936">
			<g id="Group_935">
				<path id="Path_8590" class="st5" d="M969.6,245.9c0,0-0.4,0.2-0.9,0.6l0,0c-1.3-2.4-2.5-2.4-2.8-2.4c0-0.3,0.1-0.5,0.3-0.7
					C966.2,243.5,967.5,243.6,969.6,245.9z"/>
			</g>
			<path id="Path_8591" class="st6" d="M968.7,246.6c-0.6,0.5-1.3,1.2-1.9,2.2c0,0-1.2-2.9-0.9-4.5l0,0
				C966.2,244.1,967.4,244.1,968.7,246.6z"/>
			<path id="Path_8592" class="st6" d="M965.9,244.2L965.9,244.2L965.9,244.2z"/>
		</g>
	</g>
	<path id="Path_8593" class="st2" d="M977.2,250.3c0,0-1,0.1-0.9-0.7s0.9-0.9,1.1-0.8c0.2,0,1.1,0.3,0.9,1c-0.2,0.6-0.4,0.5-0.5,0.6
		C977.7,250.3,977.2,250.3,977.2,250.3z"/>
	<path id="Path_8594" class="st2" d="M969.9,250.3c0,0-1,0.1-0.9-0.7s0.9-0.9,1.1-0.8c0.2,0,1.1,0.3,0.9,1s-0.4,0.5-0.5,0.6
		C970.4,250.3,969.9,250.3,969.9,250.3z"/>
</g>
<title>Asset 1</title>
</svg>
