<?xml version="1.0" encoding="utf-8"?>
<!-- Generator: Adobe Illustrator 22.0.0, SVG Export Plug-In . SVG Version: 6.00 Build 0)  -->
<svg version="1.1" id="Layer_1" xmlns="http://www.w3.org/2000/svg" xmlns:xlink="http://www.w3.org/1999/xlink" x="0px" y="0px"
	 viewBox="0 0 500 500" style="enable-background:new 0 0 500 500;" xml:space="preserve">
<style type="text/css">
	.st0{fill:url(#SVGID_1_);}
	.st1{fill:#FFFFFF;}
</style>
<title>decentraland</title>
<linearGradient id="SVGID_1_" gradientUnits="userSpaceOnUse" x1="1289" y1="869.3" x2="1289" y2="369.3" gradientTransform="matrix(0 -1 -1 0 869.3 1539)">
	<stop  offset="0" style="stop-color:#E2A439"/>
	<stop  offset="1" style="stop-color:#E95028"/>
</linearGradient>
<polygon class="st0" points="500,0 500,500 0,500 0,0 "/>
<path class="st1" d="M407.8,411.9L201.3,266.3l-108,48.2c-0.7,0.4-1.6,0.6-2.4,0.5c-0.8-0.1-1.6-0.5-2.2-1.1c-0.6-0.6-1-1.4-1.1-2.2
	c-0.1-0.8,0.1-1.7,0.5-2.4l48.1-108L88,93.3c-0.4-0.7-0.6-1.6-0.5-2.4c0.1-0.8,0.5-1.6,1.1-2.2c0.6-0.6,1.4-1,2.2-1.1
	c0.8-0.1,1.7,0.1,2.4,0.5l108,48l107.9-48c0.7-0.4,1.6-0.6,2.4-0.5c0.8,0.1,1.6,0.5,2.2,1.1c0.6,0.6,1,1.4,1.1,2.2
	c0.1,0.8-0.1,1.7-0.5,2.4l-48.2,107.9l145.7,206.6c0.4,0.6,0.6,1.3,0.6,2c-0.1,0.7-0.4,1.4-0.9,1.9c-0.5,0.5-1.2,0.8-1.9,0.9
	C409,412.5,408.3,412.3,407.8,411.9z"/>
</svg>
