<svg width="500" height="500" viewBox="0 0 500 500" fill="none" xmlns="http://www.w3.org/2000/svg">
<g clip-path="url(#clip0_909_1116)">
<path d="M500 0V500H0V0H500Z" fill="url(#paint0_linear_909_1116)"/>
<path d="M241.496 258.089C250.451 245.804 246.588 232.645 244.076 219.677C238.82 192.376 233.292 165.212 227.859 137.993C225.812 127.66 223 117.45 222.29 106.871C220.311 88.0197 219.178 91.2275 235.94 90.9955C242.52 90.9136 249.099 90.9955 255.679 90.9955C257.918 90.8774 260.153 91.2879 262.204 92.1938C264.256 93.0996 266.065 94.4754 267.486 96.2099C269.383 110.474 268.155 124.725 266.79 138.922C266.162 145.365 267.786 151.521 267.868 157.718C268.155 178.508 270.475 199.406 266.271 220.1C265.597 223.457 265.77 226.929 266.776 230.201C268.783 236.904 269.288 243.183 262.818 248.029C261.767 248.807 261.453 250.363 260.838 251.564C259.815 255.959 256.32 259.099 255.16 263.576C252.348 274.496 256.866 284.434 258.695 294.631C263.514 321.508 269.179 348.222 274.379 375.031C275.54 380.969 277.437 386.811 277.273 392.981C277.492 398.086 280.836 404.325 277.901 407.887C275.171 411.232 268.551 408.993 263.678 408.952C254.914 408.884 246.123 409.785 237.387 408.42C236.978 408.392 236.576 408.295 236.2 408.133C235.827 407.702 235.588 407.172 235.51 406.607C235.433 406.043 235.521 405.468 235.763 404.952C236.718 402.891 238.725 401.526 239.694 398.878C235.681 397.827 233.36 395.534 235.981 391.329C242.056 381.624 240.144 371.264 237.947 361.176C237.005 356.808 236.281 352.986 237.947 348.686C240.677 341.479 239.844 333.916 238.998 326.504C238.155 318.676 238.836 310.758 241.005 303.189C244.395 290.491 245.813 277.347 245.209 264.218C245.018 261.215 242.847 260.041 241.496 258.089Z" fill="#4B85D7"/>
<path d="M346.467 200.881C349.784 211.569 350.985 222.721 353.292 233.641C351.927 234.897 350.316 236.085 350.89 238.187C352.337 243.51 350.507 248.52 349.525 253.598C348.515 258.511 348.515 263.578 349.525 268.491C350.685 273.841 351.668 279.192 350.89 284.707C350.582 286.528 350.884 288.399 351.75 290.031C355.572 296.678 354.302 303.135 352.828 310.329C349.006 328.879 349.32 347.799 350.685 366.636C351.026 371.414 351.545 376.123 350.78 380.887C350.016 385.651 348.897 390.702 353.278 394.906C355.19 396.749 354.316 399.301 352.377 400.926C350.021 403.066 348.13 405.668 346.822 408.57C346.336 408.849 345.78 408.982 345.221 408.953C344.662 408.924 344.123 408.734 343.669 408.406C343.272 408.42 342.878 408.335 342.522 408.16C339.507 405.717 336.683 403.047 334.072 400.175C329.281 392.817 329.459 384.068 327.657 375.932C323.139 355.457 319.385 334.886 315.372 314.328C315.148 312.517 315.07 310.691 315.14 308.868C314.322 299.998 312.584 291.238 309.952 282.728C306.239 264.532 302.24 246.391 299.032 228.127C297.667 220.933 300.397 214.476 306.021 209.289C314.907 201.181 323.575 192.841 332.23 184.487C339.055 177.852 340.898 170.167 338.891 160.544C334.141 137.762 330.346 114.788 326.155 91.8829C332.98 89.9172 339.806 91.487 346.631 90.982C348.555 94.2034 348.555 94.2034 345.266 100.073C346.972 101.643 349.839 99.1994 351.204 101.684C352.446 103.922 351.558 106.12 350.944 108.277C349.784 112.263 350.002 116.358 350.03 120.426C350.03 125.203 349.92 129.872 347.3 134.199C345.47 137.243 345.771 140.765 346.317 144.15C347.077 147.469 347.381 150.877 347.218 154.278C346.235 162.701 348.583 169.43 356.35 173.635C353.77 177.47 349.525 179.955 347.818 184.555C345.225 189.783 344.201 195.188 346.467 200.881Z" fill="#655DD7"/>
<path d="M113.088 94.6946C110.835 91.4185 112.268 90.2446 115.667 90.231C127.953 90.231 140.238 89.7123 152.373 90.3675C155.939 90.4919 159.36 91.8132 162.084 94.1186C164.808 96.424 166.676 99.5792 167.388 103.076C170.842 118.555 174.623 134.021 176.234 149.869C178.322 162.878 180.452 175.873 178.513 189.114C177.94 193.072 180.97 196.403 180.67 200.348C179.387 206.545 178.036 212.729 176.575 218.899C174.459 227.785 173.231 236.644 174.678 245.858C176.548 257.748 178.418 269.705 175.046 281.663C174.186 284.734 175.797 286.932 177.585 289.048C180.083 292.023 181.544 295.559 180.179 299.149C178.377 303.872 175.633 307.926 179.073 313.332C180.588 315.707 177.053 317.795 175.087 318.887C167.156 323.296 164.768 330.995 162.502 338.844C161.027 348.14 164.945 356.89 165.232 365.994C166.187 372.628 167.388 379.249 166.201 385.978C165.99 386.865 166.004 387.791 166.243 388.671C166.481 389.55 166.936 390.357 167.566 391.015C168.514 391.993 169.155 393.227 169.409 394.565C170.132 398.359 171.306 403.082 168.044 405.348C164.044 408.078 162.147 402.891 159.499 400.871C158.393 399.383 158.27 397.472 157.56 395.793C154.898 395.397 154.462 400.612 151.499 398.277C149.534 396.735 150.134 394.182 150.134 391.862C150.353 379.454 150.585 367.046 150.285 354.637C150.285 351.416 149.288 347.512 155.281 348.003C150.298 345.888 148.237 341.492 145.985 337.274C154.953 326.941 156.523 315.789 153.288 302.207C147.241 276.858 143.159 251.045 138.272 225.437C143.432 226.284 144.77 231.225 148.155 234.023C148.565 230.164 148.316 226.264 147.418 222.489C144.784 212.592 147.09 202.3 144.797 192.376C144.595 191.585 144.634 190.752 144.909 189.984C145.184 189.215 145.682 188.546 146.34 188.063C151.063 184.923 149.902 180.459 149.93 175.846C150.08 156.585 147.582 137.202 151.936 118.078C153.301 112.044 150.448 105.192 155.581 99.8135C156.373 98.9945 155.089 99.677 155.049 99.7043C150.489 101.97 148.933 96.865 145.671 95.773C136.116 92.5652 126.342 93.6982 116.623 94.2032C115.34 94.2578 114.275 94.6127 113.088 94.6946Z" fill="#2EB0D4"/>
<path d="M346.685 408.187C344.215 403.86 347.149 401.99 350.344 400.366C353.224 398.891 354.521 396.271 351.313 394.906C346.59 393.022 347.518 389.65 348.146 386.715C351.135 372.71 347.149 358.8 347.9 344.823C348.555 332.742 347.545 320.348 351.122 308.813C353.429 301.374 349.757 295.531 349.757 289.279C349.62 275.138 342.931 260.955 349.224 246.827C350.589 243.769 349.224 241.121 348.46 238.364C347.259 233.846 348.269 231.716 353.292 233.586C353.401 234.951 353.497 236.221 353.606 237.545C355.271 243.701 353.306 250.322 356.063 256.396C356.752 258.016 357.672 259.529 358.793 260.887L361.864 279.479C362.752 291.027 366.055 302.124 368.089 313.454C368.361 314.32 368.938 315.057 369.713 315.529C371.201 326.886 374.819 337.875 375.433 349.382C377.125 356.207 375.269 363.796 379.733 370.048C382.626 381.569 385.425 393.104 386.421 404.979C387.486 407.532 386.694 409.075 383.869 408.924C371.447 408.542 359.039 410.044 346.685 408.187Z" fill="#6D52D8"/>
<path d="M113.088 94.6954C113.483 92.0881 115.299 91.5012 117.551 91.6786C127.106 92.4158 136.907 90.0269 146.435 93.9719C149.302 95.1595 151.663 95.7191 152.318 100.797C155.049 92.6069 158.366 96.5928 162.761 98.6266C153.902 99.9917 154.912 105.82 153.97 111.717C150.94 130.828 151.527 150.034 151.499 169.24C151.499 172.843 151.035 176.474 152.469 179.996C153.424 182.303 152.728 185.524 151.281 186.344C145.48 189.62 148.633 193.933 148.046 198.342C146.285 211.405 151.663 223.677 150.107 236.413C149.971 237.437 150.544 238.938 149.001 239.143C148.665 239.219 148.315 239.218 147.978 239.14C147.642 239.062 147.328 238.909 147.058 238.692C146.789 238.476 146.573 238.201 146.425 237.889C146.277 237.577 146.201 237.236 146.203 236.891C146.08 231.185 139.774 229.915 138.109 225.37L137.699 220.237C136.525 216.142 137.699 211.515 135.297 207.624C131.201 197.537 130.751 186.644 128.471 176.16C123.093 151.33 118.397 126.35 113.456 101.425C113.185 99.1923 113.062 96.9442 113.088 94.6954Z" fill="#29B8D4"/>
<path d="M241.496 258.089C246.178 257.529 246.86 260.027 247.161 264.163C248.062 276.953 247.297 290.262 243.475 301.742C239.653 313.222 241.769 323.897 241.578 334.94C241.482 340.755 242.37 346.693 238.848 352.03C238.286 352.757 237.953 353.633 237.889 354.549C237.826 355.465 238.036 356.38 238.493 357.176C243.953 366.254 240.663 376.287 241.482 385.842C241.755 389.022 239.38 390.606 237.21 392.312C236.658 392.733 236.287 393.349 236.173 394.033C236.059 394.718 236.21 395.42 236.595 395.998C237.606 397.445 238.466 396.093 239.326 395.493C239.635 395.243 239.995 395.065 240.38 394.969C240.765 394.873 241.167 394.863 241.557 394.938C241.947 395.013 242.316 395.173 242.637 395.405C242.959 395.638 243.227 395.938 243.421 396.284C244.444 397.759 243.516 399.014 242.438 399.806C240.09 401.499 239.476 405.075 236.09 405.58C230.507 405.471 228.351 401.485 226.658 397.09C224.665 391.916 224.692 386.169 222.563 381.01C220.092 377.761 220.911 373.693 219.833 370.089C222.645 366.854 218.563 364.779 218.468 362.022C215.178 345.969 212.448 329.78 208.476 313.891C203.889 295.491 211.206 282.837 225.866 272.94C229.702 270.347 232.692 266.839 235.79 263.535C240.691 262.047 240.185 265.651 239.476 268.108C238.575 271.275 238.711 273.759 240.936 276.298C244.049 279.793 240.513 282.55 239.803 285.594C243.148 277.404 244.103 269.214 240.854 260.682C240.7 260.254 240.661 259.794 240.74 259.346C240.819 258.898 241.014 258.479 241.305 258.13L241.496 258.089Z" fill="#448FD6"/>
<path d="M260.77 251.537C260.77 249.544 260.129 247.319 262.245 245.927C267.623 242.391 266.776 237.491 264.975 232.604C262.765 227.055 262.814 220.863 265.111 215.35C265.985 212.761 266.319 210.02 266.094 207.296C266.094 193.428 266.094 179.559 266.094 165.69C266.094 160.721 265.944 155.957 264.074 151.03C261.78 144.996 264.374 138.43 265.07 132.274C266.435 120.508 265.357 108.796 266.107 97.0837C271.185 95.9916 271.568 100.032 272.933 103.172C275.267 108.632 274.557 114.884 277.233 120.262L277.164 120.194C278.843 127.019 277.26 134.458 281.41 140.751C285.955 158.21 288.467 176.092 292.111 193.741C293.64 201.113 296.452 208.375 293.476 216.114C291.886 220.563 289.406 224.641 286.187 228.099C278.162 236.383 269.676 244.208 260.77 251.537Z" fill="#5379D5"/>
<path d="M356.377 173.635C349.17 172.72 345.566 169.171 345.348 162.414C345.129 155.657 345.348 149.324 344.119 142.772C343.327 138.676 343.368 134.199 347.013 130.677C348.979 128.794 347.846 125.9 348.037 123.456C348.514 117.204 346.672 110.693 350.234 104.755C350.404 104.357 350.476 103.924 350.445 103.492C350.415 103.06 350.281 102.641 350.057 102.271C349.156 101.056 348.064 102.094 347.054 102.462C345.429 103.049 344.324 106.557 342.099 103.704C340.16 101.247 342.413 99.6093 343.819 97.8757C345.225 96.1421 346.644 93.7806 348.05 91.7603C355.353 90.327 362.683 90.7638 370.014 91.5829C379.815 95.4459 381.794 104.25 383.473 113.137C384.579 119.061 384.961 125.135 386.462 130.882C388.605 139.209 385.766 145.897 380.21 151.453C372.553 159.247 364.349 166.291 356.377 173.635Z" fill="#6C53D7"/>
<path d="M162.461 338.844C163.826 330.272 164.058 321.195 174.364 317.468C176.097 316.84 178.855 315.625 177.476 312.458C176.602 310.411 176.903 306.875 172.821 309.305C171.565 310.042 170.801 308.827 170.746 307.531C170.746 305.988 171.511 305.265 172.985 304.637C179.81 301.702 181.052 295.368 175.715 290.031C172.33 286.673 171.784 283.847 173.504 279.247C176.234 271.903 175.62 263.822 174.132 256.397C171.797 244.657 171.074 232.891 173.736 221.465C175.333 214.64 176.043 207.419 178.855 200.84C180.807 198.751 179.769 196.24 179.96 193.878C180.151 191.517 180.384 188.718 184.137 189.947C184.334 190.29 184.416 190.687 184.369 191.08C185.257 199.947 186.99 208.709 189.543 217.247L189.898 219.554C190.864 225.32 191.507 231.135 191.823 236.972C192.328 244.562 196.054 251.032 197.678 258.185C200.409 268.859 203.862 279.547 201.419 290.713C199.385 300.05 192.328 306.097 185.462 311.94C176.261 319.693 167.197 327.392 162.461 338.844Z" fill="#38A2D3"/>
<path d="M145.835 337.274C154.161 342.148 157.574 347.908 155.813 354.296C152.933 353.641 155.403 349.887 152.209 348.836C152.073 365.217 152.837 381.324 151.609 397.281C153.069 397.732 153.438 397.008 153.943 396.216C154.953 394.633 152.578 390.756 156.673 391.411C159.935 391.917 159.662 394.892 159.621 397.418C159.621 398.332 159.621 399.233 159.621 400.148C159.908 405.239 156.209 406.591 152.387 407.587C144.884 409.398 137.092 409.668 129.482 408.379C125.564 408.16 123.503 404.953 121.755 402.414C114.671 392.08 110.671 369.312 123.271 357.9C130.847 351.061 137.481 343.171 145.835 337.274Z" fill="#29B8D4"/>
<path d="M129.522 408.379C137.016 407.847 144.538 409.267 151.991 405.963C155.24 404.516 157.833 403.069 159.662 400.148C163.048 400.148 164.167 403.465 167.853 406.154C166.406 400.312 171.484 394.92 164.263 391.726C162.897 391.112 163.362 389.788 163.648 388.791C165.778 381.297 164.645 373.598 165.095 365.995C168.972 379.291 170.897 392.982 173.285 406.577C173.531 407.943 174.514 409.813 171.688 409.731C157.751 409.308 143.787 410.823 129.891 408.898C129.795 408.871 129.673 408.557 129.522 408.379Z" fill="#36ABCF"/>
<path d="M184.083 189.946C180.52 190.684 181.735 193.577 181.53 195.775C181.325 197.973 182.022 200.389 178.8 200.839C173.982 184.049 179.278 166.714 176.193 149.869C179.763 163.026 182.399 176.418 184.083 189.946Z" fill="#41A1CB"/>
<path d="M277.205 120.262C273.383 119.771 274.243 116.74 274.407 114.515C274.816 109.41 271.24 105.451 270.68 100.578C270.371 99.6037 269.771 98.747 268.961 98.1225C268.151 97.4981 267.17 97.1357 266.149 97.0837C263.418 93.1797 259.46 91.6236 254.832 91.6236C246.219 91.6236 237.592 91.883 228.992 91.5281C224.01 91.3233 221.812 92.7702 222.386 97.9847C222.545 100.928 222.513 103.878 222.29 106.816C219.751 102.407 220.434 97.2612 218.918 92.5928C218.058 89.931 220.283 90.2177 221.648 90.204C234.357 90.204 247.106 89.6034 259.76 90.4633C263.074 90.752 266.221 92.0489 268.776 94.1793C271.331 96.3098 273.172 99.1717 274.052 102.38C275.971 108.155 277.033 114.179 277.205 120.262Z" fill="#5A82B2"/>
<path d="M241.482 258.131C247.366 266.321 244.963 274.852 242.356 283.288C241.939 285.021 241.651 286.782 241.496 288.557C241.291 289.922 241.086 291.52 239.271 291.287C237.455 291.055 237.414 289.39 237.606 288.039C237.744 286.698 238.182 285.405 238.889 284.258C241.209 280.9 242.547 278.197 237.619 275.617C234.753 274.115 236.555 271.099 237.619 269.133C239.134 266.403 239.558 264.533 235.927 263.673C237.355 261.445 239.25 259.554 241.482 258.131Z" fill="#4B85D7"/>
<path d="M197.624 258.184C192.751 250.281 188.915 242.09 189.652 232.399C189.98 228.14 189.802 223.84 189.843 219.554C193.259 232.251 195.858 245.154 197.624 258.184Z" fill="#41A1CB"/>
<path d="M237.319 408.393C249.099 408.393 260.879 408.188 272.646 408.393C276.741 408.461 278.406 407.628 277.451 403.096C276.768 399.834 277.246 396.339 277.205 392.954C279.676 398.032 279.184 403.765 281.396 409.826C266.271 408.802 251.747 411.519 237.319 408.393Z" fill="#5E7DAC"/>
<path d="M369.672 315.556C365.331 313.754 365.413 308.636 365.14 305.919C364.28 297.074 359.68 288.665 361.823 279.506C364.977 290.071 366.437 300.978 368.648 311.748C368.853 313.031 369.317 314.287 369.672 315.556Z" fill="#6A57B4"/>
<path d="M222.659 381.025C227.3 380.219 224.829 383.837 225.088 385.338C226.344 392.518 227.573 399.63 233.729 404.571C234.48 405.019 235.288 405.363 236.131 405.595V408.107C233.27 407.219 230.712 405.55 228.747 403.288C226.782 401.026 225.486 398.261 225.006 395.303C224.078 390.553 222.44 385.952 222.659 381.025Z" fill="#5A8AB4"/>
<path d="M358.752 260.914C353.401 258.28 352.132 253.215 352.719 248.219C353.128 244.67 353.237 241.108 353.606 237.572C356.336 245.135 357.087 253.12 358.752 260.914Z" fill="#655DD7"/>
<path d="M346.685 408.188L380.811 408.284C383.323 408.284 386.025 408.666 386.38 405.008C387.827 406.728 388.728 409.512 385.889 409.471C371.843 409.212 357.715 411.41 343.737 408.379L346.685 408.188Z" fill="#675FA3"/>
<path d="M310.048 282.741C313.884 287.164 314.143 292.856 315.153 298.166C315.808 301.62 315.249 305.305 315.235 308.882C312.501 300.398 310.76 291.626 310.048 282.741Z" fill="#636DB5"/>
<path d="M189.488 217.248C185.557 212.347 185.721 206.136 184.369 200.458C183.673 197.496 184.288 194.22 184.369 191.08C187.092 199.573 188.81 208.355 189.488 217.248Z" fill="#41A1CB"/>
<path d="M379.692 370.076C372.034 366.254 376.702 358.896 374.982 353.354C374.627 352.194 375.242 350.733 375.392 349.409C377.931 356.071 378.886 363.06 379.692 370.076Z" fill="#6D54AE"/>
<path d="M281.382 140.751C275.922 137.693 277.164 132.424 277.096 127.619C277.096 125.148 277.096 122.678 277.096 120.193C279.421 126.828 280.862 133.74 281.382 140.751Z" fill="#5A82B2"/>
<path d="M346.467 200.88C343.737 196.785 344.447 188.063 347.832 184.5C345.47 189.796 347.381 195.461 346.467 200.88Z" fill="#67649E"/>
<path d="M135.297 207.692C140.32 211.091 136.825 216.115 137.699 220.305C135.955 216.337 135.134 212.024 135.297 207.692Z" fill="#2EB0D4"/>
<path d="M334.141 400.148C338.236 401.513 340.665 404.53 342.59 408.134C338.631 406.687 335.219 404.653 334.141 400.148Z" fill="#675FA3"/>
<path d="M218.645 362.035C219.669 364.629 226.112 366.321 220.01 370.102C220.161 367.304 217.567 364.984 218.645 362.035Z" fill="#4B85D7"/>
<path d="M139.337 194.464C137.303 191.639 137.767 188.677 138.3 184.978C141.74 188.24 140.416 191.393 139.337 194.464Z" fill="#2EB0D4"/>
<path d="M177.763 238.091C175.51 235.361 176.002 232.358 176.48 228.713C180.138 231.88 178.213 235.115 177.763 238.091Z" fill="#2EB0D4"/>
<path d="M179.496 217.193C182.104 219.336 181.885 221.698 180.001 224.947C178.008 222.039 179.169 219.596 179.496 217.193Z" fill="#2EB0D4"/>
</g>
<defs>
<linearGradient id="paint0_linear_909_1116" x1="250" y1="0" x2="250" y2="500" gradientUnits="userSpaceOnUse">
<stop stop-color="#EDF7FF"/>
<stop offset="1" stop-color="#EDF7FF"/>
</linearGradient>
<clipPath id="clip0_909_1116">
<rect width="500" height="500" fill="white"/>
</clipPath>
</defs>
</svg>
