<?xml version="1.0" encoding="utf-8"?>
<!-- Generator: Adobe Illustrator 22.0.0, SVG Export Plug-In . SVG Version: 6.00 Build 0)  -->
<svg version="1.1" id="Layer_1" xmlns="http://www.w3.org/2000/svg" xmlns:xlink="http://www.w3.org/1999/xlink" x="0px" y="0px"
	 viewBox="0 0 500 500" style="enable-background:new 0 0 500 500;" xml:space="preserve">
<style type="text/css">
	.st0{fill:#2D2D4F;}
	.st1{fill:#FFFFFF;}
</style>
<polygon class="st0" points="500,0 500,500 0,500 0,0 "/>
<title>traderjoe</title>
<path class="st1" d="M200.8,158c-29.6,0-56.7-0.4-83.8,0.2c-12.8,0.3-17.5-4.8-17-17.3c0.6-15.7,0.6-31.5,0-47.2
	c-0.4-11.6,4.2-17,16-17c83.5,0.1,167.1-0.2,250.6,0.2C387.6,77,400,90,399.8,110.8c-0.5,55.8,7.9,46.4-45.2,47.2
	c-17.8,0.3-35.7,0-55.7,0c0,6.7,0,12.4,0,18.1c0,74.3,0,148.6,0,222.9c0,23.9-0.2,24.1-24.8,24.1c-12.5,0-25,0.2-37.4,0
	c-24.6-0.4-35.8-11.4-35.8-35.9c-0.1-70,0-139.9,0-209.9C200.8,171.5,200.8,165.6,200.8,158z"/>
</svg>
