<?xml version="1.0" encoding="utf-8"?>
<!-- Generator: Adobe Illustrator 22.0.0, SVG Export Plug-In . SVG Version: 6.00 Build 0)  -->
<svg version="1.1" id="Layer_1" xmlns="http://www.w3.org/2000/svg" xmlns:xlink="http://www.w3.org/1999/xlink" x="0px" y="0px"
	 viewBox="0 0 500 500" style="enable-background:new 0 0 500 500;" xml:space="preserve">
<style type="text/css">
	.st0{fill:url(#SVGID_1_);}
	.st1{fill:#BD4A2E;}
	.st2{fill:#FEEA36;}
	.st3{fill:#FEF84E;}
	.st4{fill:#FAA920;}
	.st5{fill:#562924;}
	.st6{fill:#713D36;}
</style>
<linearGradient id="SVGID_1_" gradientUnits="userSpaceOnUse" x1="2420" y1="-710" x2="1920" y2="-710" gradientTransform="matrix(0 -1 1 0 960 2420)">
	<stop  offset="0" style="stop-color:#E4A672"/>
	<stop  offset="1" style="stop-color:#B86F50"/>
</linearGradient>
<polygon class="st0" points="500,0 500,500 0,500 0,0 "/>
<g>
	<path class="st1" d="M293.8,60c0,9.7,0,19.5,0,29.2c-0.5,0.8-0.9,1.5-1.4,2.3c-8.5,6.9-18.5,3.8-28,4.1c-9.6,0.7-19.2,0.7-28.8,0
		c-9.5-0.3-19.5,2.8-28.1-4.1c-0.5-0.8-0.9-1.5-1.4-2.3c0-9.7,0-19.5,0-29.2C235.4,60,264.6,60,293.8,60z"/>
	<path class="st1" d="M89.2,293.8c-9.7,0-19.5,0-29.2,0c0-29.2,0-58.5,0-87.7c9.7,0,19.5,0,29.2,0c0.8,0.5,1.5,0.9,2.3,1.4
		c6.9,8.5,3.8,18.5,4.1,28c0.7,9.6,0.7,19.2,0,28.8c-0.3,9.5,2.8,19.5-4.1,28.1C90.7,292.9,90,293.4,89.2,293.8z"/>
	<path class="st1" d="M206.2,440c0-9.7,0-19.5,0-29.2c0.5-0.8,0.9-1.5,1.4-2.3c8.5-6.9,18.5-3.8,28-4.1c9.6-0.7,19.2-0.7,28.8,0
		c9.5,0.3,19.5-2.8,28.1,4.1c0.5,0.8,0.9,1.5,1.4,2.3c0,9.7,0,19.5,0,29.2C264.6,440,235.4,440,206.2,440z"/>
	<path class="st1" d="M410.8,206.2c9.7,0,19.5,0,29.2,0c0,29.2,0,58.5,0,87.7c-9.7,0-19.5,0-29.2,0c-0.8-0.5-1.5-0.9-2.3-1.4
		c-6.9-8.5-3.8-18.5-4.1-28c-0.7-9.6-0.7-19.2,0-28.8c0.3-9.5-2.8-19.5,4.1-28.1C409.3,207.1,410,206.6,410.8,206.2z"/>
	<path class="st1" d="M89.2,206.2c0-27.6,0-55.1-0.1-82.7c0-3.4,0.5-5.3,4.6-5.1c8.2,0.3,16.4,0.1,24.7,0.1c0.7,0.4,1.5,0.9,2.2,1.3
		c6.6,7.8,4.7,17.4,4.9,26.3c0.2,12.4,4,20.8,17.2,24.8c13.7,4.1,15.7,20.1,5.8,37.6c-9.4,6-19.8,4.2-30,4.1
		C108.4,212.2,97.4,215.8,89.2,206.2z"/>
	<path class="st1" d="M118.5,118.5c0-8.2,0.2-16.5-0.1-24.7c-0.2-4.1,1.7-4.6,5.1-4.6c27.6,0.1,55.1,0.1,82.7,0.1
		c9.3,9.5,7.6,19.8,2,30.3c-10.6,8.5-23.2,5.5-35.1,6.1c-8.3,0.4-16.5-0.2-24.8-0.6C137.9,124.4,126.7,128.2,118.5,118.5z"/>
	<path class="st1" d="M410.8,293.8c0,27.6,0,55.1,0.1,82.7c0,3.4-0.5,5.3-4.6,5.1c-8.2-0.3-16.4-0.1-24.7-0.1
		c-0.7-0.4-1.5-0.9-2.2-1.3c-6.6-7.8-4.7-17.4-4.9-26.3c-0.2-12.4-4-20.8-17.2-24.8c-13.7-4.1-15.7-20.1-5.8-37.6
		c9.4-6,19.8-4.2,30-4.1C391.6,287.8,402.6,284.2,410.8,293.8z"/>
	<path class="st1" d="M381.5,381.5c0,8.2-0.2,16.5,0.1,24.7c0.2,4.1-1.7,4.6-5.1,4.6c-27.6-0.1-55.1-0.1-82.7-0.1
		c-9.3-9.5-7.6-19.8-2-30.3c10.6-8.5,23.2-5.5,35.1-6.1c8.3-0.4,16.5,0.2,24.8,0.6C362.1,375.6,373.3,371.8,381.5,381.5z"/>
	<path class="st1" d="M381.5,118.5c8.2,0,16.5,0.2,24.7-0.1c4.1-0.2,4.6,1.7,4.6,5.1c-0.1,27.6-0.1,55.1-0.1,82.7
		c-8.1,9.5-19,6.1-29.1,6.5c-10.1,0.1-20.5,1.8-29.9-3.8c-11.5-18.9-8.4-31.2,10.6-39.8c9.5-4.3,11.3-12.2,11.9-21.3
		c0.6-9.5-1.9-19.5,5-27.9C380,119.3,380.8,118.9,381.5,118.5z"/>
	<path class="st1" d="M293.8,89.2c27.6,0,55.1,0,82.7-0.1c3.4,0,5.3,0.5,5.1,4.6c-0.3,8.2-0.1,16.4-0.1,24.7
		c-8.2,9.7-19.4,6-29.6,6.6c-14.1,0.7-28.1,0.9-42.2,0.4c-6.4-0.2-12.5-1.3-17.6-5.7C286.3,109.1,284.5,98.9,293.8,89.2z"/>
	<path class="st1" d="M118.5,381.5c-8.2,0-16.5-0.2-24.7,0.1c-4.1,0.2-4.6-1.7-4.6-5.1c0.1-27.6,0.1-55.1,0.1-82.7
		c8.1-9.5,19-6.1,29.1-6.5c10.1-0.1,20.5-1.8,29.9,3.8c11.5,18.9,8.4,31.2-10.6,39.8c-9.5,4.3-11.3,12.2-11.9,21.3
		c-0.6,9.5,1.9,19.5-5,27.9C120,380.7,119.2,381.1,118.5,381.5z"/>
	<path class="st1" d="M206.2,410.8c-27.6,0-55.1,0-82.7,0.1c-3.4,0-5.3-0.5-5.1-4.6c0.3-8.2,0.1-16.4,0.1-24.7
		c8.2-9.7,19.4-6,29.6-6.6c14.1-0.7,28.1-0.9,42.2-0.4c6.4,0.2,12.5,1.3,17.6,5.7C213.7,390.9,215.5,401.1,206.2,410.8z"/>
	<path class="st2" d="M235.4,89.2c9.7,0,19.5,0,29.2,0c9.4,9.8,7.7,20.1,1.4,30.6c-10.5,6.9-21.1,6.9-31.8,0.3
		C227.6,109.6,226,99.2,235.4,89.2z"/>
	<path class="st3" d="M264.6,118.5c0-9.7,0-19.5,0-29.2c9.7,0,19.5,0,29.2,0c0,9.7,0,19.5,0,29.2c-0.4,0.7-0.9,1.5-1.3,2.2
		c-8.9,6-17.7,6-26.6,0C265.5,120,265.1,119.2,264.6,118.5z"/>
	<path class="st3" d="M235.4,89.2c0,9.7,0,19.5,0,29.2c-0.4,0.7-0.9,1.5-1.3,2.2c-8.9,6-17.7,6-26.6,0c-0.4-0.7-0.9-1.5-1.3-2.2
		c0-9.7,0-19.5,0-29.2C215.9,89.2,225.6,89.2,235.4,89.2z"/>
	<path class="st3" d="M118.5,293.8c-9.7,0-19.5,0-29.2,0c0-9.7,0-19.5,0-29.2c9.8-9.4,20-7.6,30.5-1.4
		C126.2,273.7,127.8,284,118.5,293.8z"/>
	<path class="st3" d="M89.2,206.2c9.7,0,19.5,0,29.2,0c9.4,9.8,7.6,20,1.4,30.5c-10.5,6.4-20.8,8-30.7-1.3
		C89.2,225.6,89.2,215.9,89.2,206.2z"/>
	<path class="st2" d="M89.2,235.4c9.7,0,19.5,0,29.2,0c0.7,0.4,1.5,0.9,2.2,1.3c6,8.9,6,17.7,0,26.6c-0.7,0.4-1.5,0.9-2.2,1.3
		c-9.7,0-19.5,0-29.2,0C89.2,254.9,89.2,245.1,89.2,235.4z"/>
	<path class="st3" d="M206.2,410.8c0-9.7,0-19.5,0-29.2c0.5-0.8,1.1-1.6,1.6-2.4c10.3-6.1,20.2-5.5,29.8,1.6
		c5.3,10.5,7.1,20.7-2.2,30C225.6,410.8,215.9,410.8,206.2,410.8z"/>
	<path class="st2" d="M235.4,410.8c0-9.7,0-19.5,0-29.2c0.5-0.8,1.1-1.6,1.6-2.4c10.3-6.1,20.2-5.5,29.8,1.6
		c5.3,10.5,7.1,20.7-2.2,30C254.9,410.8,245.1,410.8,235.4,410.8z"/>
	<path class="st3" d="M264.6,410.8c0-9.7,0-19.5,0-29.2c0.4-0.7,0.9-1.5,1.3-2.2c8.9-6,17.7-6,26.6,0c0.4,0.7,0.9,1.5,1.3,2.2
		c0,9.7,0,19.5,0,29.2C284.1,410.8,274.4,410.8,264.6,410.8z"/>
	<path class="st2" d="M410.8,235.4c0,9.7,0,19.5,0,29.2c-8.2,9-18,7.2-27.9,3.9c-1.7-0.8-3.1-1.9-4.2-3.4
		c-4.9-9.7-4.9-19.5-0.4-29.3c1-1.6,2.3-2.9,4-3.8C392.3,228.2,402.2,226.2,410.8,235.4z"/>
	<path class="st3" d="M381.5,264.6c9.7,0,19.5,0,29.2,0c0,9.7,0,19.5,0,29.2c-9.7,0-19.5,0-29.2,0
		C373.3,284.1,372,274.4,381.5,264.6z"/>
	<path class="st3" d="M410.8,235.4c-9.7,0-19.5,0-29.2,0c-9.5-9.7-8.3-19.5,0-29.2c9.7,0,19.5,0,29.2,0
		C410.8,215.9,410.8,225.6,410.8,235.4z"/>
	<path class="st3" d="M118.5,118.5c9.7,0,19.5,0,29.2,0c8,10.4,13.6,22.9,29.1,25.1c5.5,0.8,6.2,7.8,6.7,13.2
		c0.7,7.2-0.3,14.3-0.2,21.5c0.3,10,2,20.2-4.6,29.2c-9.6,6.5-19.4,7.3-29.4,1.1c-0.5-0.8-1.1-1.6-1.6-2.4c0-0.5,0-1,0-1.5
		c0-8.8,0-17.5,0-26.3c-8.4-3.2-17.1-1-25.6-1.4c-3.5-0.2-3.7-1.9-3.7-4.6C118.5,154.4,118.5,136.4,118.5,118.5z"/>
	<path class="st2" d="M118.5,235.4c0-9.7,0-19.5,0-29.2c9.7,0,19.5,0,29.2,0c9,9.8,8.5,20.3,2.1,31.1
		C139,242.6,128.4,245,118.5,235.4z"/>
	<path class="st4" d="M176.9,176.9c0-0.5,0-1,0-1.5c0-8.7,0-17.5,0-26.2c-8.3-3.3-17-1-25.6-1.5c-3.4-0.2-3.8-1.8-3.7-4.5
		c0.1-8.3,0-16.5,0-24.8c19.5,0,39,0,58.5,0c9.6,8.2,6,19.3,6.5,29.5c0,10.6,2.3,21.6-5.4,30.9C196.7,184.5,186.5,186.3,176.9,176.9
		z"/>
	<path class="st3" d="M381.5,381.5c-9.7,0-19.5,0-29.2,0c-8-10.4-13.6-22.9-29.1-25.1c-5.5-0.8-6.2-7.8-6.7-13.2
		c-0.7-7.2,0.3-14.3,0.2-21.5c-0.3-10-2-20.2,4.6-29.2c9.6-6.5,19.4-7.3,29.4-1.1c0.5,0.8,1.1,1.6,1.6,2.4c0,0.5,0,1,0,1.5
		c0,8.8,0,17.5,0,26.3c8.4,3.2,17.1,1,25.6,1.4c3.5,0.2,3.7,1.9,3.7,4.6C381.5,345.6,381.5,363.6,381.5,381.5z"/>
	<path class="st2" d="M381.5,264.6c0,9.7,0,19.5,0,29.2c-9.7,0-19.5,0-29.2,0c-9-9.8-8.5-20.3-2.1-31.1
		C361,257.4,371.6,255,381.5,264.6z"/>
	<path class="st4" d="M323.1,323.1c0,0.5,0,1,0,1.5c0,8.7,0,17.5,0,26.2c8.3,3.3,17,1,25.6,1.5c3.4,0.2,3.8,1.8,3.7,4.5
		c-0.1,8.3,0,16.5,0,24.8c-19.5,0-39,0-58.5,0c-9.6-8.2-6-19.3-6.5-29.5c0-10.6-2.3-21.6,5.4-30.9
		C303.3,315.5,313.5,313.7,323.1,323.1z"/>
	<path class="st3" d="M352.3,118.5c9.7,0,19.5,0,29.2,0c0,17.5-0.1,35,0.1,52.5c0,3.8-0.1,6.3-5.2,6.1c-7.7-0.3-15.4,0.2-23.1,0.3
		c-2.3,8-0.4,16.3-1,24.4c-0.1,1.5,0,2.9,0,4.4c-0.5,0.8-1,1.6-1.6,2.4c-9.9,6.2-19.7,5.4-29.2-0.9c-6.9-8.8-5.2-19.1-4.9-29.1
		c0.2-5.7-0.5-11.5-0.5-17.2c0-10.6,2.6-19,14.9-20.8C343.8,138.7,344.3,124.9,352.3,118.5z"/>
	<path class="st2" d="M381.5,206.2c0,9.7,0,19.5,0,29.2c-9.8,9.6-20.4,7.2-31.2,2c-6.5-10.9-7-21.4,2-31.2
		C362.1,206.2,371.8,206.2,381.5,206.2z"/>
	<path class="st4" d="M352.3,118.5c0,0.5,0,1,0,1.5c0,8.7,0,17.5,0,26.2c-8.3,3.3-17,1-25.6,1.5c-3.4,0.2-3.8,1.8-3.7,4.5
		c0.1,8.3,0,16.5,0,24.8c-9.5,9.4-19.7,7.5-30.2,2.1c-7.9-9.2-5.5-20.3-5.6-30.9c0.5-10.2-3.2-21.4,6.5-29.6
		C313.3,118.5,332.8,118.5,352.3,118.5z"/>
	<path class="st3" d="M147.7,381.5c-9.7,0-19.5,0-29.2,0c0-17.5,0.1-35-0.1-52.5c0-3.8,0.1-6.3,5.2-6.1c7.7,0.3,15.4-0.2,23.1-0.3
		c2.3-8,0.4-16.3,1-24.4c0.1-1.5,0-2.9,0-4.4c0.5-0.8,1-1.6,1.6-2.4c9.9-6.2,19.7-5.4,29.2,0.9c6.9,8.8,5.2,19.1,4.9,29.1
		c-0.2,5.7,0.5,11.5,0.5,17.2c0,10.6-2.6,19-14.9,20.8C156.2,361.3,155.7,375.1,147.7,381.5z"/>
	<path class="st2" d="M118.5,293.8c0-9.7,0-19.5,0-29.2c9.8-9.6,20.4-7.2,31.2-2c6.5,10.9,7,21.4-2,31.2
		C137.9,293.8,128.2,293.8,118.5,293.8z"/>
	<path class="st4" d="M147.7,381.5c0-0.5,0-1,0-1.5c0-8.7,0-17.5,0-26.2c8.3-3.3,17-1,25.6-1.5c3.4-0.2,3.8-1.8,3.7-4.5
		c-0.1-8.3,0-16.5,0-24.8c9.5-9.4,19.7-7.5,30.2-2.1c7.9,9.2,5.5,20.3,5.6,30.9c-0.5,10.2,3.2,21.4-6.5,29.6
		C186.7,381.5,167.2,381.5,147.7,381.5z"/>
	<path class="st4" d="M235.4,118.5c9.7,0,19.5,0,29.2,0c9.6,9.9,7.2,20.5,1.9,31.3c-10.8,6.6-21.7,6.4-32.7,0.2
		C228.1,139.2,225.8,128.5,235.4,118.5z"/>
	<path class="st2" d="M264.6,147.7c0-9.7,0-19.5,0-29.2c9.7,0,19.5,0,29.2,0c0,9.7,0,19.5,0,29.2C282,156.3,275.4,156.3,264.6,147.7
		z"/>
	<path class="st2" d="M235.4,118.5c0,9.7,0,19.5,0,29.2c-10.8,8.6-17.4,8.6-29.2,0c0-9.7,0-19.5,0-29.2
		C215.9,118.5,225.6,118.5,235.4,118.5z"/>
	<path class="st4" d="M147.7,264.6c-9.7,0-19.5,0-29.2,0c0-9.7,0-19.5,0-29.2c9.7,0,19.5,0,29.2,0
		C156.4,246.1,156.4,253.9,147.7,264.6z"/>
	<path class="st2" d="M206.2,381.5c0-9.7,0-19.5,0-29.2c9.8-9,20.3-8.5,31.1-2.1c5.3,10.8,7.8,21.4-1.9,31.4
		C225.6,381.5,215.9,381.5,206.2,381.5z"/>
	<path class="st4" d="M235.4,381.5c0-9.7,0-19.5,0-29.2c9.7-9.6,20.2-8.1,31-2.2c5.4,10.8,7.8,21.5-1.8,31.4
		C254.9,381.5,245.1,381.5,235.4,381.5z"/>
	<path class="st2" d="M264.6,381.5c0-9.7,0-19.5,0-29.2c10.8-8.6,17.4-8.6,29.2,0c0,9.7,0,19.5,0,29.2
		C284.1,381.5,274.4,381.5,264.6,381.5z"/>
	<path class="st4" d="M352.3,235.4c9.7,0,19.5,0,29.2,0c0,9.7,0,19.5,0,29.2c-9.7,0-19.5,0-29.2,0
		C343.6,253.9,343.6,246.1,352.3,235.4z"/>
	<path class="st5" d="M147.7,264.6c0-9.7,0-19.5,0-29.2c0-9.7,0-19.5,0-29.2c9.7,0,19.5,0,29.2,0c0.8,0.5,1.6,1,2.4,1.5
		c3.2,3.4,4.1,7.6,4.3,12c0.9,20.2,0.9,40.5,0,60.7c-0.2,4.4-1.1,8.6-4.3,12c-0.8,0.5-1.6,1-2.4,1.5c-9.7,0-19.5,0-29.2,0
		C147.7,284.1,147.7,274.4,147.7,264.6z"/>
	<path class="st5" d="M176.9,176.9c9.7,0,19.5,0,29.2,0c0.8,0.5,1.6,1.1,2.4,1.6c6.1,10.3,5.5,20.2-1.6,29.8
		c-10.5,5.3-20.7,7.1-30-2.2C176.9,196.4,176.9,186.7,176.9,176.9z"/>
	<path class="st5" d="M206.2,147.7c9.7,0,19.5,0,29.2,0c9.7,0,19.5,0,29.2,0c9.7,0,19.5,0,29.2,0c0,9.7,0,19.5,0,29.2
		c-0.5,0.8-1.1,1.6-1.6,2.4c-4.6,4.3-10.5,4.4-16.2,4.5c-17.3,0.5-34.5,0.4-51.8,0c-6.8-0.2-13.5-0.9-18.1-7
		C206.2,167.2,206.2,157.4,206.2,147.7z"/>
	<path class="st5" d="M352.3,235.4c0,9.7,0,19.5,0,29.2c0,9.7,0,19.5,0,29.2c-9.7,0-19.5,0-29.2,0c-0.8-0.5-1.6-1-2.4-1.5
		c-3.2-3.4-4.1-7.6-4.3-12c-0.9-20.2-0.9-40.5,0-60.7c0.2-4.4,1.1-8.6,4.3-12c0.8-0.5,1.6-1,2.4-1.5c9.7,0,19.5,0,29.2,0
		C352.3,215.9,352.3,225.6,352.3,235.4z"/>
	<path class="st5" d="M323.1,323.1c-9.7,0-19.5,0-29.2,0c-0.8-0.5-1.6-1.1-2.4-1.6c-6.1-10.3-5.5-20.2,1.6-29.8
		c10.5-5.3,20.7-7.1,30,2.2C323.1,303.6,323.1,313.3,323.1,323.1z"/>
	<path class="st5" d="M293.8,352.3c-9.7,0-19.5,0-29.2,0c-9.7,0-19.5,0-29.2,0c-9.7,0-19.5,0-29.2,0c0-9.7,0-19.5,0-29.2
		c0.5-0.8,1.1-1.6,1.6-2.4c4.6-4.3,10.5-4.4,16.2-4.5c17.3-0.5,34.5-0.4,51.8,0c6.8,0.2,13.5,0.9,18.1,7
		C293.8,332.8,293.8,342.6,293.8,352.3z"/>
	<path class="st5" d="M293.8,176.9c9.7,0,19.5,0,29.2,0c0,9.7,0,19.5,0,29.2c-9.8,9.4-20,7.6-30.5,1.4
		C286.1,197.1,284.5,186.8,293.8,176.9z"/>
	<path class="st5" d="M206.2,323.1c-9.7,0-19.5,0-29.2,0c0-9.7,0-19.5,0-29.2c9.8-9.4,20-7.6,30.5-1.4
		C213.9,302.9,215.5,313.2,206.2,323.1z"/>
	<path class="st6" d="M206.2,293.8c-9.7,0-19.5,0-29.2,0c0-29.2,0-58.5,0-87.7c9.7,0,19.5,0,29.2,0c0.8,0.5,1.6,1,2.4,1.5
		c3.2,3.4,4.1,7.6,4.3,12c0.9,20.2,0.9,40.5,0,60.7c-0.2,4.4-1.1,8.6-4.3,12C207.7,292.8,206.9,293.3,206.2,293.8z"/>
	<path class="st6" d="M293.8,176.9c0,9.7,0,19.5,0,29.2c-0.5,0.8-1.1,1.6-1.6,2.4c-4.6,4.3-10.5,4.4-16.2,4.5
		c-17.3,0.5-34.5,0.4-51.8,0c-6.8-0.2-13.5-0.9-18.1-7c0-9.7,0-19.5,0-29.2C235.4,176.9,264.6,176.9,293.8,176.9z"/>
	<path class="st6" d="M293.8,206.2c9.7,0,19.5,0,29.2,0c0,29.2,0,58.5,0,87.7c-9.7,0-19.5,0-29.2,0c-0.8-0.5-1.6-1.1-2.4-1.6
		c-4.3-4.6-4.4-10.5-4.5-16.2c-0.5-17.3-0.4-34.5,0-51.8C287.1,217.4,287.8,210.7,293.8,206.2z"/>
	<path class="st6" d="M206.2,323.1c0-9.7,0-19.5,0-29.2c3.6-4.4,8.3-6.4,14-6.7c19.9-0.8,39.8-0.8,59.8,0c5.7,0.2,10.4,2.2,14,6.7
		c0,9.7,0,19.5,0,29.2C264.6,323.1,235.4,323.1,206.2,323.1z"/>
	<circle class="st5" cx="250" cy="250" r="62"/>
</g>
</svg>
