<?xml version="1.0" encoding="utf-8"?>
<!-- Generator: Adobe Illustrator 22.0.0, SVG Export Plug-In . SVG Version: 6.00 Build 0)  -->
<svg version="1.1" id="Layer_1" xmlns="http://www.w3.org/2000/svg" xmlns:xlink="http://www.w3.org/1999/xlink" x="0px" y="0px"
	 viewBox="0 0 40 40" style="enable-background:new 0 0 40 40;" xml:space="preserve">
<style type="text/css">
	.st0{fill:url(#SVGID_1_);}
	.st1{fill:#070807;}
	.st2{fill:#070707;}
	.st3{fill:#9F9F9F;}
	.st4{fill:#DEDEDE;}
	.st5{fill:#FCFCFC;}
	.st6{fill:#DCDCDC;}
	.st7{fill:#F8F8F8;}
	.st8{fill:#DADADA;}
	.st9{fill:#A7D43E;}
</style>
<linearGradient id="SVGID_1_" gradientUnits="userSpaceOnUse" x1="564.5669" y1="-3007.1785" x2="527.2752" y2="-3007.1785" gradientTransform="matrix(0 1 -1 0 -2987.1785 -526.0419)">
	<stop  offset="0" style="stop-color:#9B9B9B"/>
	<stop  offset="1" style="stop-color:#E0E0E0"/>
</linearGradient>
<path class="st0" d="M37,26.2V13.6c0-2.1-1.1-4.1-3-5.2L23,2.1c-1.9-1.1-4.1-1.1-6,0L6,8.4c-1.9,1.1-3,3.1-3,5.2v12.6
	c0,2.1,1.1,4.1,3,5.2l11,6.3c1.9,1.1,4.1,1.1,6,0l11-6.3C35.8,30.3,37,28.4,37,26.2z"/>
<title>Asset 1</title>
<g>
	<path class="st1" d="M29.5,12.6c0,1.5-0.4,2.9-1.6,3.9c-0.2,0.1,0,0.3,0,0.4c0.2,2,0.2,3.8-1,5.5c-0.2,0.2-0.3,0.5-0.6,0.6
		c-0.3,0.3-0.5,0.6-0.5,1c0.1,2-1,2.9-3.1,2.5c-0.5-0.1-0.9,0.2-1.3,0.3c-1.3,0.4-2.5,0.2-3.7-0.3c-0.2-0.1-0.4,0-0.6,0
		c-2.2,0.3-3.3-0.7-3-3c0-0.1,0-0.2-0.1-0.2c-1.5-1.2-2-2.8-2-4.6c0-0.7,0-1.3,0.1-2c0-0.2,0-0.3-0.2-0.5c-1.4-1.2-1.9-4.1-1-5.7
		c0.5-0.9,1.5-1.2,2.9-0.9c1.5,0.4,2.6,1.4,3.7,2.5c0.2,0.3,0.5,0.2,0.8,0.2c1.2-0.1,2.3-0.1,3.5,0c0.5,0,0.8-0.1,1.1-0.5
		c1.1-1.1,2.3-2,3.9-2.3c1.5-0.2,2.5,0.5,2.7,2C29.5,12,29.5,12.3,29.5,12.6z M21.2,25.8c0.2-0.1,0.1-0.3,0-0.4
		c-0.3-0.2-0.6-0.4-0.8-0.6c-0.3-0.4-0.6-0.3-0.9,0c-0.2,0.2-0.5,0.4-0.7,0.7c-0.2,0.1-0.2,0.2,0,0.4C19.2,26.2,20.8,26.2,21.2,25.8
		z M21.7,19.7c-1.1-0.6-2.3-0.6-3.4,0c-0.3,0.2-0.5,0.3-0.8,0.5c-1.2,1.1-2.2,2.4-2.3,4.2c-0.1,1,0.4,1.6,1.4,1.5
		c1-0.1,1.8-0.5,2.5-1.1c0.8-0.7,0.8-1.4,0-2.1c-0.1-0.2-0.3-0.5-0.4-0.7c0-0.4,0.3-0.5,0.7-0.5c0.4,0,0.8,0,1.2,0
		c0.4,0,0.6,0.1,0.6,0.5c-0.1,0.2-0.2,0.4-0.3,0.6c-0.7,0.4-0.8,1.2-0.3,1.8c0.7,0.7,1.6,1.1,2.6,1.4c1.1,0.3,1.8-0.5,1.6-1.5
		c0.1-0.8-0.3-1.5-0.7-2.2C23.5,21.1,22.8,20.2,21.7,19.7z M22.3,13.6c-1.5-0.4-3.1-0.4-4.6,0c-0.5,0.1-0.9,0.2-1.3,0.5
		c-0.5,0.2-0.9,0.5-1.2,0.8c-0.1,0.1-0.2,0.2-0.3,0.3c0-0.2,0.1-0.3,0.1-0.5c0.1-0.5,0.5-0.8,0.7-1.2c0.3-0.2,0.6-0.4,0.9-0.7
		c0.1-0.1,0-0.1-0.1-0.1c-0.9-0.8-1.7-1.5-2.8-2c-0.6-0.3-1.2-0.4-1.8,0.1c-0.8,0.9-0.7,1.9-0.5,3c0.2,0.9,0.7,1.7,1.4,2.2
		c0.1,0.1,0.2,0.2,0.2,0.4c-0.2,1-0.2,1.9-0.1,2.9c0.1,1,0.3,2,1,2.8c0.1,0.3,0.4,0.5,0.6,0.7c0.2,0.1,0.2,0.2,0.3-0.1
		c0.3-0.7,0.7-1.3,1.2-1.9c0.1-0.1,0.1-0.1,0-0.1c-0.2-0.1-0.4-0.1-0.6-0.2c0.2-0.1,0.3-0.1,0.5-0.2c0,0,0,0,0,0
		c0.1-0.1,0.2-0.2,0.4-0.3c-0.1,0-0.3,0-0.4,0c-0.3,0-0.5-0.1-0.8-0.2c-0.2-0.1-0.4-0.2-0.3-0.5c0-0.1,0-0.2,0.1-0.4
		c-0.1,0.1-0.3,0.1-0.4,0.2c0,0-0.1,0-0.1,0.1c0.2-0.9,1.2-1.2,1.9-0.6c0.3,0.2,0.5,0.5,0.8,0.7c0.1,0.1,0.2,0.3,0.4,0.1
		c0.4-0.4,0.8-0.6,1.3-0.8c0.9-0.2,1.7-0.2,2.6,0c0.2,0.1,0.5,0.2,0.7,0.3c0.7,0.7,1.2,0.2,1.7-0.3c0.3-0.3,0.6-0.6,1.1-0.4
		c0.4,0.2,0.8,0.4,0.9,0.9c-0.2,0.1-0.2-0.1-0.3-0.1c-0.1,0-0.1,0-0.2,0c0,0,0,0.1,0,0.1c0.3,0.8-0.3,0.8-0.8,0.9
		c-0.2,0-0.4,0-0.6,0c0.2,0.2,0.4,0.3,0.6,0.4c0.1,0,0.2,0.1,0.3,0.1c-0.1,0-0.2,0.1-0.3,0.1c-0.3,0-0.3,0.1-0.1,0.4
		c0.3,0.3,0.5,0.7,0.7,1c0.6,1,0.6,1,1.3,0.1c0,0,0.1-0.1,0.1-0.1c1-1.6,1-3.3,0.9-5.1c0-0.3-0.3-0.7,0.1-1c0.7-0.5,1.2-1.2,1.4-2.1
		c0.2-0.6,0.2-1.3,0.1-1.9c-0.2-1.2-1-1.8-2-1.5c-1.2,0.4-2.2,1.4-3.2,2.2c-0.1,0.1,0,0.1,0,0.1c0.3,0.2,0.6,0.4,0.9,0.7
		c0.4,0.5,0.7,1,0.8,1.6c0,0,0,0.1,0,0.1c0,0-0.1-0.1-0.1-0.1c-0.4-0.5-0.9-0.8-1.5-1C23.2,13.8,22.8,13.6,22.3,13.6z M23.8,19.5
		c0.5,0.1,0.6-0.1,0.7-0.5c0,0,0-0.1-0.1-0.1c-0.3,0.2-0.6,0.3-0.9,0.5C23.7,19.4,23.8,19.5,23.8,19.5z M16.1,19.5
		c0,0,0.2-0.1,0.3-0.1c-0.3-0.2-0.6-0.3-0.9-0.5c0,0-0.1,0.1-0.1,0.1C15.5,19.3,15.6,19.5,16.1,19.5z"/>
	<path class="st2" d="M17.8,29.5c-0.1,0.1,0.1,0.3-0.1,0.4c-0.3,0.2-0.7,0.4-1,0.4c-0.4,0-0.5-1.2-0.2-1.5c0.1-0.1,0.1-0.2-0.1-0.3
		c-0.1,0-0.3-0.1-0.4-0.2c-0.3-0.2-0.5-0.4-0.6,0.2c-0.1,0.3-0.6,0.2-0.9,0.2c-0.1,0-0.1-0.2-0.1-0.3c-0.1-0.4-0.2-0.7,0.3-0.9
		c0.1,0,0-0.1,0-0.2c-0.2-0.2-0.3-0.4-0.5-0.6c-0.2-0.1-0.2-0.8-0.6-0.3c-0.1,0.1-0.5-0.1-0.7-0.3c-0.1-0.1,0.1-0.4,0.1-0.6
		c0-0.2,0.2-0.2,0.3-0.2c0.4,0,0.1-0.3,0.2-0.4c0-0.2,0-0.3,0-0.5c0,0.1,0.1,0.3,0.1,0.4c0.4,1.2,1.4,1.8,2.5,2.2
		c2.9,1,5.8,1,8.7-0.4c0.9-0.4,1.6-1.1,1.8-2.2c0,0,0-0.1,0-0.1c0,0,0,0.1,0,0.1c0,0.1,0,0.3,0,0.4c-0.1,0.3,0,0.4,0.3,0.5
		c0.3,0,0.2,0.4,0.3,0.7c0.1,0.2-0.1,0.1-0.2,0.2c-0.3,0.1-0.5,0.4-0.8,0c-0.1-0.1-0.1,0-0.1,0.1c-0.2,0.2-0.3,0.4-0.5,0.6
		c-0.2,0.3-0.6,0.4,0,0.8c0.2,0.1,0,0.6-0.1,0.9c0,0.2-0.2,0-0.3,0c-0.4,0-0.8,0-0.8-0.6c0-0.1-0.1-0.1-0.2-0.1
		c-0.1,0.1-0.2,0.1-0.3,0.2c-0.5,0.1-0.7,0.3-0.2,0.8c0.2,0.2-0.1,0.4-0.2,0.6c-0.1,0.2-0.2,0.6-0.4,0.5c-0.4-0.2-1.2-0.1-1-1
		c0-0.2,0-0.4-0.3-0.2c0,0-0.1,0-0.2,0c-0.9,0.2-0.9,0.2-0.5,1.1c0.1,0.2,0.1,0.3-0.1,0.5c-0.3,0.2-0.5,0.4-0.7,0.7
		c-0.3,0.4-0.6,0.4-0.9,0c-0.2-0.2-0.4-0.4-0.6-0.5c-0.6-0.5,0-0.9,0.1-1.3c0-0.2,0-0.2-0.1-0.2c-0.3,0-0.5-0.1-0.7-0.1
		C17.8,29,17.7,29.1,17.8,29.5z"/>
	<path class="st3" d="M13.9,22.1c-0.7-0.8-0.8-1.8-1-2.8c-0.1-1,0-1.9,0.1-2.9c0-0.2,0-0.3-0.2-0.4c-0.8-0.5-1.3-1.3-1.4-2.2
		c0.1-0.3,0.2-0.6,0.4-0.9c0.5-1.2,0.7-1.3,1.6-0.8c0.7,0.4,1.4,0.9,2.1,1.4c-0.2,0.4-0.6,0.8-0.7,1.2c0,0.2-0.1,0.3-0.1,0.5
		c0.1-0.1,0.2-0.2,0.3-0.3c0.4-0.3,0.8-0.6,1.2-0.8c0,0.1-0.1,0.3-0.1,0.4c-0.5,1.6-0.1,2.8,1.3,3.6c0.4,0.2,0.8,0.4,1.2,0.5
		c-0.4,0.2-0.9,0.4-1.3,0.8c-0.1,0.1-0.3,0-0.4-0.1c-0.3-0.2-0.5-0.5-0.8-0.7c-0.7-0.6-1.7-0.3-1.9,0.6c0,0.3-0.1,0.6,0.2,0.9
		c0.1,0.1,0.2,0.1,0.3,0.2C14.5,20.8,14.3,21.5,13.9,22.1z"/>
	<path class="st3" d="M23.7,14c0.6,0.2,1.1,0.6,1.5,1c0,0,0.1,0.1,0.1,0.1c0,0,0-0.1,0-0.1c-0.1-0.6-0.5-1.1-0.8-1.6
		c0-0.1,0.1-0.1,0.1-0.2c0.8-0.5,1.7-1,2.5-1.6c0.3-0.2,0.4-0.1,0.5,0.2c0.4,0.6,0.7,1.3,0.9,2c-0.2,0.9-0.7,1.6-1.4,2.1
		c-0.5,0.3-0.2,0.7-0.1,1c0.1,1.8,0.1,3.5-0.9,5.1c0,0-0.1,0.1-0.1,0.1c-0.2-0.6-0.4-1.2-0.8-1.8c0-0.1-0.1-0.2,0-0.2
		c0.5-0.2,0.4-0.6,0.4-1c-0.1-0.5-0.5-0.8-0.9-0.9c-0.5-0.2-0.8,0.1-1.1,0.4c-0.5,0.5-0.9,1-1.7,0.3c-0.2-0.2-0.5-0.2-0.7-0.3
		c0.1,0,0.2-0.1,0.3-0.1c1.1-0.4,2.1-1,2.3-2.2C24.1,15.5,23.9,14.7,23.7,14z"/>
	<path class="st4" d="M23.7,14c0.2,0.7,0.4,1.4,0.2,2.2c-0.3,1.3-1.2,1.8-2.3,2.2c-0.1,0-0.2,0.1-0.3,0.1c-0.9-0.2-1.7-0.2-2.6,0
		c-0.4-0.2-0.8-0.3-1.2-0.5c-1.4-0.8-1.8-2-1.3-3.6c0-0.1,0.1-0.3,0.1-0.4c0.4-0.2,0.9-0.4,1.3-0.5c0,0.1,0,0.1-0.1,0.2
		c-0.5,0.7-0.5,1.1,0.4,1.4c0.9,0.3,1.8,0.1,2.7-0.1c0.1,0,0.2,0,0.2,0c0,0.1-0.1,0.1-0.1,0.2c-0.3,0.5-0.7,0.7-1.2,0.9
		c0,0-0.1,0-0.1,0.1c0,0,0.1,0,0.1,0c0.5,0.1,0.9,0,1.4-0.1c0.8-0.2,1.9-0.8,1.8-1.8c0-0.3-0.3-0.5-0.4-0.8
		C22.8,13.6,23.2,13.8,23.7,14z"/>
	<path class="st3" d="M15.2,24.3c0.1-1.8,1.1-3.1,2.3-4.2c0.2-0.2,0.5-0.3,0.8-0.5c0,0.8,0,1.6,0.4,2.3c0.1,0.2,0.3,0.5,0.4,0.7
		c-0.5,1-1.3,1.6-2.3,2C16.3,24.9,15.6,25.1,15.2,24.3z"/>
	<path class="st3" d="M20.9,22.6c0.1-0.2,0.2-0.4,0.3-0.6c0,0,0.1-0.1,0.1-0.1c0.4-0.7,0.4-1.5,0.4-2.2c1.1,0.5,1.8,1.4,2.3,2.4
		c0.4,0.7,0.8,1.3,0.7,2.2c-0.2,0.5-0.6,0.6-1,0.5c-0.9-0.1-1.5-0.6-2.2-1.2C21.3,23.3,21,23.1,20.9,22.6z"/>
	<path class="st5" d="M22.3,13.6c0.1,0.3,0.4,0.5,0.4,0.8c0.1,1-0.9,1.6-1.8,1.8c-0.5,0.1-0.9,0.2-1.4,0.1c0,0-0.1,0-0.1,0
		c0,0,0.1,0,0.1-0.1c0.5-0.2,0.9-0.4,1.2-0.9c0-0.1,0.1-0.1,0.1-0.2c-0.1,0-0.2,0-0.2,0c-0.9,0.2-1.8,0.5-2.7,0.1
		c-0.8-0.3-0.9-0.7-0.4-1.4c0,0,0-0.1,0.1-0.2C19.2,13.2,20.8,13.2,22.3,13.6z"/>
	<path class="st6" d="M28.5,13.8c-0.2-0.7-0.5-1.4-0.9-2c-0.2-0.2-0.3-0.3-0.5-0.2c-0.8,0.5-1.7,1-2.5,1.6c-0.1,0-0.1,0.1-0.1,0.2
		c-0.3-0.2-0.6-0.4-0.9-0.7c-0.1,0-0.1-0.1,0-0.1c1-0.8,1.9-1.8,3.2-2.2c1-0.3,1.7,0.3,2,1.5C28.7,12.6,28.7,13.2,28.5,13.8z"/>
	<path class="st6" d="M15.6,13.4c-0.7-0.5-1.4-0.9-2.1-1.4c-0.9-0.5-1.1-0.4-1.6,0.8c-0.1,0.3-0.2,0.6-0.4,0.9
		c-0.2-1.1-0.3-2.1,0.5-3c0.5-0.6,1.2-0.5,1.8-0.1c1,0.5,1.9,1.3,2.8,2c0,0,0.1,0.1,0.1,0.1C16.3,13,15.9,13.2,15.6,13.4z"/>
	<path class="st5" d="M21.7,19.7c-0.1,0.8-0.1,1.5-0.4,2.2c0,0-0.1,0.1-0.1,0.1c0-0.4-0.2-0.5-0.6-0.5c-0.4,0-0.8,0-1.2,0
		c-0.4,0-0.6,0.1-0.7,0.5c-0.4-0.7-0.4-1.5-0.4-2.3C19.5,19.1,20.6,19.1,21.7,19.7z"/>
	<path class="st7" d="M20.9,22.6c0.1,0.4,0.4,0.7,0.7,1c0.6,0.6,1.3,1,2.2,1.2c0.5,0.1,0.8,0,1-0.5c0.2,1.1-0.6,1.8-1.6,1.5
		c-1-0.2-1.9-0.6-2.6-1.4C20,23.9,20.2,23.1,20.9,22.6z"/>
	<path class="st7" d="M15.2,24.3c0.4,0.7,1,0.5,1.6,0.3c1-0.4,1.8-1,2.3-2c0.8,0.7,0.8,1.4,0,2.1c-0.7,0.6-1.6,1-2.5,1.1
		C15.7,26,15.1,25.3,15.2,24.3z"/>
	<path class="st8" d="M13.9,22.1c0.3-0.6,0.5-1.3,0.9-1.8c-0.1-0.1-0.2-0.1-0.3-0.2c-0.3-0.2-0.2-0.6-0.2-0.9c0,0,0.1,0,0.1-0.1
		c0.1-0.1,0.3-0.1,0.4-0.2c0,0.1-0.1,0.2-0.1,0.4c0,0.3,0.1,0.4,0.3,0.5c0.3,0.1,0.5,0.1,0.8,0.2c0.1,0,0.3,0,0.4,0
		c-0.1,0.1-0.2,0.2-0.4,0.3c0,0,0,0,0,0c-0.2,0.1-0.3,0.1-0.5,0.2c0.2,0.1,0.4,0.1,0.6,0.2c0.1,0,0.1,0.1,0,0.1
		c-0.5,0.6-0.9,1.2-1.2,1.9c-0.1,0.2-0.2,0.2-0.3,0.1C14.4,22.6,14.1,22.4,13.9,22.1z"/>
	<path class="st8" d="M25.6,19.2c0,0.4,0.2,0.8-0.4,1c-0.1,0,0,0.1,0,0.2c0.4,0.5,0.6,1.1,0.8,1.8c-0.7,0.9-0.7,0.9-1.3-0.1
		c-0.2-0.4-0.4-0.7-0.7-1c-0.2-0.3-0.2-0.3,0.1-0.4c0.1,0,0.2-0.1,0.3-0.1c-0.1,0-0.2-0.1-0.3-0.1c-0.2-0.1-0.5-0.2-0.6-0.4
		c0.2,0,0.4,0,0.6,0c0.5-0.1,1.1-0.1,0.8-0.9c0,0,0-0.1,0-0.1c0.1,0,0.1,0,0.2,0C25.4,19.1,25.4,19.2,25.6,19.2z"/>
	<path class="st3" d="M18.8,25.4c0.2-0.2,0.5-0.4,0.7-0.7c0.3-0.4,0.5-0.4,0.9,0c0.2,0.2,0.5,0.4,0.8,0.6c0.2,0.1,0.2,0.3,0,0.4
		c-0.6-0.6-1.3-0.4-2-0.2C19.1,25.6,18.9,25.6,18.8,25.4z"/>
	<path class="st7" d="M18.8,25.4c0.1,0.2,0.2,0.2,0.4,0.1c0.7-0.2,1.4-0.4,2,0.2c-0.4,0.4-2,0.4-2.4,0
		C18.6,25.7,18.7,25.5,18.8,25.4z"/>
	<path class="st9" d="M23.8,19.5c0,0-0.1,0-0.2-0.1c0.3-0.2,0.6-0.3,0.9-0.5c0,0,0.1,0.1,0.1,0.1C24.5,19.3,24.3,19.5,23.8,19.5z"/>
	<path class="st9" d="M16.1,19.5c-0.4,0-0.6-0.2-0.7-0.5c0,0,0.1-0.1,0.1-0.1c0.3,0.2,0.6,0.3,0.9,0.5
		C16.2,19.4,16.1,19.5,16.1,19.5z"/>
</g>
</svg>
