<svg width="500" height="500" viewBox="0 0 500 500" fill="none" xmlns="http://www.w3.org/2000/svg">
<g clip-path="url(#clip0_896_113)">
<path d="M500 0V500H0V0H500Z" fill="url(#paint0_linear_896_113)"/>
<path d="M118.104 136.695C98.297 147.895 86 168.998 86 191.754V308.246C86 331.002 98.3102 352.106 118.118 363.318L194.492 406.543L235.931 430V331.24L221.836 323.266L171.947 295.023V204.964L221.836 176.72L235.931 168.747V70L194.492 93.4569L118.104 136.695ZM208.164 152.576L146.771 187.325C145.171 188.224 144.18 189.929 144.18 191.767V308.259C144.18 310.097 145.171 311.789 146.771 312.688L208.164 347.438V382.385L131.79 339.16C120.67 332.866 113.767 321.032 113.767 308.259V191.767C113.767 178.994 120.67 167.16 131.79 160.866L208.164 117.628V152.576ZM413.895 191.754V308.246C413.895 331.002 401.585 352.106 381.777 363.318L305.403 406.543L263.964 430V331.24L278.059 323.266L327.948 295.023V278.666H355.715V308.246C355.715 310.084 354.724 311.776 353.124 312.675L291.732 347.425V382.372L368.106 339.147C379.226 332.853 386.128 321.019 386.128 308.246V191.754C386.128 178.981 379.226 167.147 368.106 160.853L291.732 117.615V152.562L353.124 187.311C354.724 188.211 355.715 189.916 355.715 191.754V221.334H327.948V204.977L278.059 176.733L263.964 168.76V70L305.403 93.4569L381.777 136.695C401.585 147.908 413.882 169.011 413.882 191.767L413.895 191.754Z" fill="#21D192"/>
</g>
<defs>
<linearGradient id="paint0_linear_896_113" x1="250" y1="0" x2="250" y2="500" gradientUnits="userSpaceOnUse">
<stop stop-color="#262627"/>
<stop offset="1" stop-color="#151516"/>
</linearGradient>
<clipPath id="clip0_896_113">
<rect width="500" height="500" fill="white"/>
</clipPath>
</defs>
</svg>
