<?xml version="1.0" encoding="utf-8"?>
<!-- Generator: Adobe Illustrator 22.0.0, SVG Export Plug-In . SVG Version: 6.00 Build 0)  -->
<svg version="1.1" id="Layer_1" xmlns="http://www.w3.org/2000/svg" xmlns:xlink="http://www.w3.org/1999/xlink" x="0px" y="0px"
	 viewBox="0 0 40 40" style="enable-background:new 0 0 40 40;" xml:space="preserve">
<style type="text/css">
	.st0{fill:url(#SVGID_1_);}
	.st1{fill:#FFFFFF;}
</style>
<linearGradient id="SVGID_1_" gradientUnits="userSpaceOnUse" x1="177.4169" y1="-1119.1785" x2="214.7086" y2="-1119.1785" gradientTransform="matrix(0 1 -1 0 -1099.1785 -176.0419)">
	<stop  offset="0" style="stop-color:#565A81"/>
	<stop  offset="0.9128" style="stop-color:#242447"/>
</linearGradient>
<path class="st0" d="M37,26.3V13.7c0-2.1-1.1-4.1-3-5.2L23,2.2c-1.9-1.1-4.1-1.1-6,0L6,8.5c-1.9,1.1-3,3.1-3,5.2v12.6
	c0,2.1,1.1,4.1,3,5.2l11,6.3c1.9,1.1,4.1,1.1,6,0l11-6.3C35.8,30.4,37,28.5,37,26.3z"/>
<g>
	<polygon class="st1" points="14.3,20.2 14.3,20.2 15.3,20.8 20.4,23.8 20.4,23.8 26.6,20.2 20.4,10 20.4,10 20.4,10 20.4,10 
		20.4,10 	"/>
	<polygon class="st1" points="26.6,21.4 20.4,25 20.4,25 14.3,21.4 20.4,30 20.4,30 	"/>
</g>
</svg>
