<?xml version="1.0" standalone="no"?>
<!DOCTYPE svg PUBLIC "-//W3C//DTD SVG 20010904//EN"
 "http://www.w3.org/TR/2001/REC-SVG-20010904/DTD/svg10.dtd">
<svg version="1.0" xmlns="http://www.w3.org/2000/svg"
 width="500.000000pt" height="500.000000pt" viewBox="0 0 500.000000 500.000000"
 preserveAspectRatio="xMidYMid meet">
<metadata>
Created by potrace 1.16, written by Peter Selinger 2001-2019
</metadata>
<g transform="translate(0.000000,500.000000) scale(0.100000,-0.100000)"
fill="#000000" stroke="none">
<path d="M2180 4994 c-14 -2 -77 -11 -140 -20 -63 -9 -117 -19 -120 -23 -3 -4
-43 -15 -90 -25 -47 -10 -89 -21 -95 -26 -5 -4 -37 -15 -70 -25 -33 -9 -64
-20 -70 -25 -5 -4 -28 -13 -50 -20 -21 -7 -60 -24 -86 -36 -26 -13 -52 -24
-57 -24 -6 0 -17 -6 -24 -12 -8 -7 -45 -29 -82 -48 -60 -30 -120 -66 -190
-112 -10 -7 -39 -28 -63 -45 -24 -18 -47 -33 -53 -33 -5 0 -14 -9 -20 -20 -6
-11 -17 -20 -25 -20 -8 0 -20 -8 -27 -18 -7 -9 -24 -25 -39 -34 -35 -22 -257
-244 -294 -293 -17 -22 -38 -46 -47 -53 -10 -7 -18 -19 -18 -27 0 -8 -9 -19
-20 -25 -11 -6 -20 -15 -20 -20 0 -6 -15 -29 -32 -53 -18 -24 -39 -53 -46 -63
-46 -70 -82 -130 -112 -190 -19 -37 -41 -74 -48 -82 -6 -7 -12 -17 -12 -22 0
-5 -13 -39 -30 -75 -16 -36 -30 -69 -30 -73 0 -4 -7 -20 -15 -36 -8 -16 -22
-54 -31 -85 -9 -31 -20 -60 -24 -66 -5 -5 -16 -48 -26 -95 -10 -47 -21 -87
-25 -90 -4 -3 -15 -57 -26 -120 -27 -168 -27 -752 0 -920 11 -63 22 -117 26
-120 4 -3 15 -43 25 -90 10 -47 21 -89 26 -95 4 -5 15 -35 24 -66 9 -31 23
-69 31 -85 8 -16 15 -32 15 -36 0 -4 13 -36 29 -70 15 -35 31 -73 35 -85 4
-13 12 -23 17 -23 5 0 9 -5 9 -11 0 -9 38 -81 106 -199 11 -20 31 -48 82 -116
17 -24 32 -48 32 -54 0 -5 9 -14 20 -20 11 -6 20 -17 20 -25 0 -8 8 -20 18
-27 9 -7 30 -31 47 -53 37 -49 259 -271 294 -293 15 -9 32 -25 39 -34 7 -10
19 -18 27 -18 8 0 19 -9 25 -20 6 -11 15 -20 20 -20 6 0 29 -15 53 -32 24 -18
53 -39 63 -46 70 -46 130 -82 190 -112 37 -19 74 -41 82 -47 7 -7 18 -13 24
-13 5 0 31 -11 57 -24 26 -12 65 -29 86 -36 22 -7 45 -16 50 -20 6 -5 37 -16
70 -25 33 -10 65 -21 70 -25 6 -5 48 -16 95 -26 47 -10 87 -21 90 -25 3 -4 57
-15 120 -26 96 -15 173 -18 460 -18 287 0 364 3 460 18 63 11 117 22 120 26 3
4 43 15 90 25 47 10 90 21 95 26 6 4 37 15 70 25 33 9 65 20 70 25 6 4 28 13
50 20 21 7 60 24 86 36 26 13 52 24 57 24 6 0 17 6 24 12 8 7 45 29 82 48 60
30 120 66 190 112 10 7 39 28 63 45 24 18 47 33 53 33 5 0 14 9 20 20 6 11 17
20 25 20 8 0 20 8 27 18 7 9 25 25 40 34 34 22 284 272 306 306 9 15 25 33 34
40 10 7 18 19 18 27 0 8 9 19 20 25 11 6 20 15 20 20 0 6 15 30 33 54 50 68
70 96 81 116 68 118 106 190 106 199 0 6 4 11 9 11 5 0 13 10 17 23 4 12 20
50 35 85 16 34 29 66 29 70 0 4 7 20 15 36 8 16 22 54 31 85 9 31 20 61 24 66
5 6 16 48 26 95 10 47 21 87 25 90 4 3 15 57 26 120 15 96 18 173 18 460 0
287 -3 364 -18 460 -11 63 -22 117 -26 120 -4 3 -15 43 -25 90 -10 47 -21 90
-26 95 -4 6 -15 37 -25 70 -9 33 -20 65 -25 70 -4 6 -11 21 -15 35 -4 14 -21
53 -36 88 -16 34 -29 67 -29 72 0 5 -6 15 -12 22 -7 8 -29 45 -48 82 -30 60
-66 120 -112 190 -7 10 -28 39 -45 63 -18 24 -33 47 -33 53 0 5 -9 14 -20 20
-11 6 -20 17 -20 25 0 8 -8 20 -18 27 -9 7 -30 31 -47 53 -37 49 -259 271
-294 293 -15 9 -32 25 -39 34 -7 10 -19 18 -27 18 -8 0 -19 9 -25 20 -6 11
-15 20 -20 20 -6 0 -29 15 -53 33 -24 17 -53 38 -63 45 -70 46 -130 82 -190
112 -37 19 -74 41 -82 48 -7 6 -18 12 -24 12 -5 0 -31 11 -57 24 -26 12 -65
29 -86 36 -22 7 -44 16 -50 20 -5 5 -37 16 -70 25 -33 10 -64 21 -70 25 -5 5
-48 16 -95 26 -47 10 -87 21 -90 25 -3 4 -54 15 -115 25 -86 14 -180 18 -435
20 -179 1 -336 0 -350 -2z m635 -188 c56 -6 93 -13 145 -26 19 -5 63 -14 98
-21 34 -6 65 -16 68 -20 3 -5 16 -9 30 -9 13 0 24 -4 24 -8 0 -5 14 -9 30 -9
17 0 40 -5 53 -11 12 -6 45 -18 72 -28 28 -10 56 -22 63 -27 6 -5 12 -7 12 -3
0 3 16 -3 35 -14 20 -11 42 -20 50 -20 7 0 22 -11 33 -25 19 -24 40 -36 27
-15 -3 6 -4 10 -1 10 9 0 253 -148 303 -183 360 -257 653 -626 815 -1027 115
-283 168 -564 168 -887 0 -270 -46 -541 -132 -772 -21 -58 -44 -119 -50 -136
-22 -59 -103 -212 -166 -315 -245 -397 -614 -719 -1047 -910 -137 -61 -312
-120 -430 -144 -233 -48 -263 -51 -550 -51 -295 0 -440 15 -655 65 -311 73
-596 220 -788 406 l-87 84 90 -41 c383 -176 737 -246 1180 -236 432 10 782 90
1143 263 454 216 786 532 996 945 84 168 133 308 172 500 25 124 27 151 27
364 -1 154 -6 250 -15 290 l-13 60 -60 6 c-79 8 -154 38 -218 88 -59 45 -83
74 -123 151 -27 52 -29 63 -29 175 0 111 2 124 28 176 15 31 46 78 68 103 49
55 49 54 -32 163 -118 156 -256 299 -391 402 -135 103 -133 101 -258 174 -87
50 -275 137 -297 137 -8 0 -12 4 -9 9 3 4 -6 6 -21 3 -20 -4 -24 -2 -18 8 6
10 4 12 -9 7 -9 -4 -29 -1 -44 7 -56 27 -273 71 -417 83 -166 15 -454 4 -512
-18 -14 -5 -38 -9 -55 -9 -30 0 -51 -5 -193 -47 -33 -10 -66 -16 -74 -15 -7 2
-10 -1 -7 -6 3 -5 -10 -13 -29 -16 -94 -18 -446 -203 -453 -239 -2 -9 10 -45
26 -79 100 -213 56 -467 -112 -645 -76 -80 -165 -132 -280 -162 -100 -26 -171
-26 -271 -1 -43 11 -84 20 -90 20 -22 0 -98 -218 -139 -401 -26 -115 -46 -295
-46 -416 0 -62 0 -63 38 -82 53 -27 109 -92 123 -143 14 -52 7 -144 -14 -184
-9 -16 -30 -44 -47 -63 -16 -18 -30 -35 -30 -37 0 -2 13 -42 30 -89 115 -332
354 -608 628 -725 241 -102 554 -98 902 12 257 81 568 237 765 383 112 84 238
220 323 349 98 150 194 391 226 566 25 138 39 291 29 301 -6 6 -75 54 -154
109 -79 54 -208 143 -287 197 -78 54 -193 133 -255 176 -62 42 -136 93 -166
113 l-53 35 -67 -46 c-197 -136 -368 -254 -466 -321 -60 -41 -171 -117 -245
-169 l-135 -93 3 -74 c7 -174 55 -384 127 -553 52 -121 63 -143 141 -260 86
-131 219 -269 357 -373 59 -44 66 -52 50 -60 -42 -22 -282 -112 -297 -112 -26
0 -208 182 -290 289 -245 322 -370 687 -383 1121 l-5 175 34 22 c18 12 96 65
173 117 77 53 176 121 220 150 44 30 112 76 150 103 39 27 156 107 260 178
105 71 216 147 248 169 32 23 74 51 92 63 l34 22 108 -72 c59 -40 171 -116
248 -169 77 -52 209 -142 292 -199 84 -57 245 -167 358 -244 l205 -140 0 -125
c-1 -686 -336 -1289 -903 -1630 -82 -49 -361 -183 -452 -217 -310 -115 -546
-163 -805 -163 -157 0 -288 19 -406 60 -604 208 -997 847 -996 1620 0 693 307
1341 843 1785 98 82 188 148 237 175 15 9 67 39 116 68 68 41 91 50 97 40 7
-10 9 -9 9 3 0 20 36 38 82 42 9 1 16 6 15 12 -1 5 11 10 28 11 16 1 31 6 33
12 2 6 27 18 55 28 29 9 57 21 63 25 6 5 25 10 42 12 18 2 35 7 39 10 3 4 17
7 29 7 13 0 25 4 28 9 3 4 34 14 68 20 35 7 79 16 98 21 95 22 123 27 186 29
38 1 71 4 73 7 6 5 450 -4 516 -10z m-259 -1871 c90 -146 93 -160 94 -405 l0
-215 66 -34 c36 -19 89 -57 117 -85 l52 -51 -193 -3 c-105 -1 -279 -1 -385 0
l-192 3 52 51 c29 29 82 67 118 85 l65 34 0 215 c0 202 2 218 24 272 27 66
113 208 126 208 5 0 30 -34 56 -75z m1589 -864 c47 -22 99 -74 114 -114 26
-68 10 -152 -37 -208 -131 -153 -377 -64 -377 137 0 143 167 247 300 185z
m-1530 -31 c3 -10 3 -36 -1 -56 l-7 -38 -24 30 c-31 38 -35 29 -58 -102 -10
-58 -22 -107 -26 -110 -5 -3 -9 4 -9 14 0 29 -38 213 -45 221 -4 3 -16 -7 -28
-23 -19 -26 -21 -27 -28 -10 -12 30 -10 69 3 82 8 8 48 12 114 12 93 0 103 -2
109 -20z"/>
<path d="M1194 4083 c-155 -132 -320 -315 -400 -446 -16 -26 -38 -62 -50 -80
-11 -18 -33 -56 -50 -85 -28 -51 -28 -54 -10 -67 10 -8 40 -19 68 -24 209 -45
443 60 548 246 36 64 70 186 70 252 0 106 -55 271 -90 271 -4 0 -43 -30 -86
-67z"/>
<path d="M4237 3502 c-14 -15 -38 -54 -53 -86 -22 -49 -27 -74 -27 -141 -1
-70 3 -89 27 -136 35 -67 94 -129 155 -162 51 -28 145 -46 155 -29 6 10 -24
123 -65 243 -25 76 -142 323 -156 332 -6 4 -22 -6 -36 -21z"/>
<path d="M3990 2002 c-76 -51 -82 -152 -13 -212 104 -92 263 35 198 160 -34
67 -125 92 -185 52z"/>
</g>
</svg>
