<?xml version="1.0" encoding="utf-8"?>
<!-- Generator: Adobe Illustrator 22.0.0, SVG Export Plug-In . SVG Version: 6.00 Build 0)  -->
<svg version="1.1" id="Layer_1" xmlns="http://www.w3.org/2000/svg" xmlns:xlink="http://www.w3.org/1999/xlink" x="0px" y="0px"
	 viewBox="0 0 500 500" style="enable-background:new 0 0 500 500;" xml:space="preserve">
<style type="text/css">
	.st0{fill:url(#SVGID_1_);}
	.st1{fill:url(#SVGID_2_);}
	.st2{fill:url(#SVGID_3_);}
	.st3{fill:url(#SVGID_4_);}
	.st4{fill:url(#SVGID_5_);}
	.st5{fill:url(#SVGID_6_);}
</style>
<linearGradient id="SVGID_1_" gradientUnits="userSpaceOnUse" x1="980" y1="499.3" x2="480" y2="-0.7" gradientTransform="matrix(0 -1 -1 0 500 980)">
	<stop  offset="0" style="stop-color:#01115C"/>
	<stop  offset="1" style="stop-color:#0034A2"/>
</linearGradient>
<polygon class="st0" points="500.7,0 500.7,500 0.7,500 0.7,0 "/>
<g>
	
		<linearGradient id="SVGID_2_" gradientUnits="userSpaceOnUse" x1="409.5248" y1="214.0346" x2="193.3392" y2="272.2979" gradientTransform="matrix(1 0 0 -1 0 500)">
		<stop  offset="0.1445" style="stop-color:#ADADAD"/>
		<stop  offset="0.2858" style="stop-color:#CBCBCB"/>
		<stop  offset="0.434" style="stop-color:#E2E2E2"/>
		<stop  offset="0.5935" style="stop-color:#F2F2F2"/>
		<stop  offset="0.7706" style="stop-color:#FCFCFC"/>
		<stop  offset="1" style="stop-color:#FFFFFF"/>
	</linearGradient>
	<path class="st1" d="M352.3,222.3c19.8,26.4-38.2,77.5-25.2,56.4H203.6c-13.4-17.5-22.6-36.6-27-56.4H352.3z"/>
	
		<linearGradient id="SVGID_3_" gradientUnits="userSpaceOnUse" x1="329.7146" y1="29.4314" x2="24.1282" y2="455.6454" gradientTransform="matrix(1 0 0 -1 0 500)">
		<stop  offset="0" style="stop-color:#ADADAD"/>
		<stop  offset="0.1651" style="stop-color:#CBCBCB"/>
		<stop  offset="0.3384" style="stop-color:#E2E2E2"/>
		<stop  offset="0.5249" style="stop-color:#F2F2F2"/>
		<stop  offset="0.7319" style="stop-color:#FCFCFC"/>
		<stop  offset="1" style="stop-color:#FFFFFF"/>
	</linearGradient>
	<path class="st2" d="M316.5,374.6c-16.9,13.6-35.8,25.7-56.6,36.1l-9.8,4.9l-9.9-4.9c-92.9-46.6-148.4-127-148.4-215V92.3h56.7
		v103.4c0,6.6,0.5,13.2,1.4,19.7c7.1,53.5,43.3,102.8,100.1,136.1c0.1,0.1,0.1,0.1,0.2,0.1c0.1,0,0.1-0.1,0.2-0.1
		c0.1-0.1,0.2-0.1,0.2-0.2C270.6,362.7,292.8,370.6,316.5,374.6z"/>
	
		<linearGradient id="SVGID_4_" gradientUnits="userSpaceOnUse" x1="253.9304" y1="93.9406" x2="399.0754" y2="277.9279" gradientTransform="matrix(1 0 0 -1 0 500)">
		<stop  offset="0.1537" style="stop-color:#ADADAD"/>
		<stop  offset="0.2935" style="stop-color:#CBCBCB"/>
		<stop  offset="0.4401" style="stop-color:#E2E2E2"/>
		<stop  offset="0.5979" style="stop-color:#F2F2F2"/>
		<stop  offset="0.7731" style="stop-color:#FCFCFC"/>
		<stop  offset="1" style="stop-color:#FFFFFF"/>
	</linearGradient>
	<path class="st3" d="M406.5,222.3c-2.6,20.4-8.3,40.3-16.7,59.2c-15.5,34.9-40.5,66.7-73.4,93.1c-23.6-4-45.9-11.9-66.1-23.2
		c7.6-4.4,14.8-9.2,21.6-14.2c0.7-0.5,1.4-0.9,2-1.5c37.8-27.3,66-67.2,78.3-113.5H406.5z"/>
	
		<linearGradient id="SVGID_5_" gradientUnits="userSpaceOnUse" x1="123.411" y1="232.1314" x2="246.0688" y2="348.6563" gradientTransform="matrix(1 0 0 -1 0 500)">
		<stop  offset="0.1445" style="stop-color:#ADADAD"/>
		<stop  offset="0.4269" style="stop-color:#C9C9C9"/>
		<stop  offset="1" style="stop-color:#FFFFFF"/>
	</linearGradient>
	<path class="st4" d="M408.3,92.3H148.4V149h259.9V92.3z"/>
	
		<linearGradient id="SVGID_6_" gradientUnits="userSpaceOnUse" x1="384.8415" y1="402.6115" x2="377.6869" y2="291.1974" gradientTransform="matrix(1 0 0 -1 0 500)">
		<stop  offset="0.1445" style="stop-color:#ADADAD"/>
		<stop  offset="0.2858" style="stop-color:#CBCBCB"/>
		<stop  offset="0.434" style="stop-color:#E2E2E2"/>
		<stop  offset="0.5935" style="stop-color:#F2F2F2"/>
		<stop  offset="0.7706" style="stop-color:#FCFCFC"/>
		<stop  offset="1" style="stop-color:#FFFFFF"/>
	</linearGradient>
	<path class="st5" d="M408.3,149v46.7c0,1.9-0.1,3.9-0.1,5.8h-56.7c0.1-1.9,0.1-3.9,0.1-5.8V149H408.3z"/>
</g>
</svg>
