<?xml version="1.0" encoding="utf-8"?>
<!-- Generator: Adobe Illustrator 22.0.0, SVG Export Plug-In . SVG Version: 6.00 Build 0)  -->
<svg version="1.1" id="Layer_1" xmlns="http://www.w3.org/2000/svg" xmlns:xlink="http://www.w3.org/1999/xlink" x="0px" y="0px"
	 viewBox="0 0 2000 2000" style="enable-background:new 0 0 2000 2000;" xml:space="preserve">
<style type="text/css">
	.st0{fill:#181642;}
	.st1{fill:#425CC7;}
	.st2{fill:#005CB9;}
	.st3{fill:#3CB4E5;}
	.st4{fill:#00A0DF;}
</style>
<rect y="0" class="st0" width="2000" height="2000"/>
<g>
	<path id="Fill-3" class="st1" d="M1039.1,1227.8v455.5c0,24.2-15.3,35.9-34,25.4l-257.8-141.5c-21-14-33.7-37.5-34-62.6v-445
		c3.8,3.2,7.6,5.7,12.1,7.9L1039.1,1227.8z"/>
	<g id="Group-7" transform="translate(0.000000, 7.985345)">
		<g id="Clip-6">
		</g>
		<path id="Fill-5" class="st2" d="M741.6,1002l517.5-265.4c17.2-10.8,28-29.9,28.3-50.2V364.1c0-20-12.7-29.2-28.3-21.3
			L782.3,587.2C733,613.6,710.5,626,713,681.6v298.8C713,999.8,726,1010,741.6,1002"/>
	</g>
	<path id="Fill-8" class="st3" d="M741.6,641l517.5,265.4c17.2,11.1,28,29.9,28.3,50.5v322.3c0,20-12.7,29.2-28.3,21.3l-517.5-265.4
		c-17.5-10.8-28-29.9-28.6-50.2V662.3C713,642.6,726,633.1,741.6,641"/>
	<path id="Fill-10" class="st4" d="M741.6,1010.1l360.1-184.7L741.9,640.7c-6-4.1-14-4.1-20,0c-5.1,9.5-8.3,20.3-8.6,31.2v312.5
		c0.3,7,1.6,13.7,4.1,20c4.8,8.3,15.3,10.8,23.2,6C741,1010.4,741.3,1010.4,741.6,1010.1"/>
</g>
</svg>
