<svg id="a8a137d7-e4a8-43cb-b227-08a459bed02a" data-name="Layer 1" xmlns="http://www.w3.org/2000/svg" xmlns:xlink="http://www.w3.org/1999/xlink" viewBox="0 0 40 40">
  <defs>
    <linearGradient id="40c3c21d-d379-445a-8181-8b2cd500cdc2" x1="77.4169" y1="-1209.17847" x2="114.7087" y2="-1209.17847" gradientTransform="translate(-1189.17847 -76.0419) rotate(90)" gradientUnits="userSpaceOnUse">
      <stop offset="0.0012" stop-color="#ffd15c"/>
      <stop offset="0.2954" stop-color="#f8ca53"/>
      <stop offset="0.77368" stop-color="#e6b53b"/>
      <stop offset="1" stop-color="#dbaa2d"/>
    </linearGradient>
  </defs>
  <title>orca</title>
  <path d="M37,26.3V13.7a6.00113,6.00113,0,0,0-3-5.2L23,2.2a5.867,5.867,0,0,0-6,0L6,8.5a6.00113,6.00113,0,0,0-3,5.2V26.3a6.00113,6.00113,0,0,0,3,5.2l11,6.3a5.867,5.867,0,0,0,6,0l11-6.3A6.09187,6.09187,0,0,0,37,26.3Z" fill="url(#40c3c21d-d379-445a-8181-8b2cd500cdc2)"/>
  <g>
    <path d="M13.13259,25.65438a.73632.73632,0,0,0,.29423-.38541.76978.76978,0,0,0-.00367-.46628l-.003-.00959.02368-.13808c.06524.03674.14046.08609.22622.14638l.07953.05656c.03951.02818.08107.05784.10887.07721a1.87082,1.87082,0,0,0,.18691.11729A8.56078,8.56078,0,0,0,18.75625,26.657a2.97334,2.97334,0,0,0,2.65719-1.65577,4.29233,4.29233,0,0,0,.15043-3.09568,5.3273,5.3273,0,0,0-1.98134-2.79237,13.638,13.638,0,0,1-3.9926-4.56345,3.69874,3.69874,0,0,1-.51043-1.83322.627.627,0,0,1,.14889-.38406.755.755,0,0,1,.44718-.19862,13.93062,13.93062,0,0,0,1.74874-.46749c.23929-.07451.47993-.14945.71761-.219a9.95766,9.95766,0,0,1,2.81733-.47613c1.91726.0036,4.16736.836,6.53642,4.29886a8.61156,8.61156,0,0,1-2.13344,12.03056,8.65714,8.65714,0,0,1-6.17173,1.73073A9.70819,9.70819,0,0,1,13.13259,25.65438Zm.353-1.15127-.00219.00367Zm-.19052.08686.00605.0011Z" fill="#fff" stroke="#000"/>
    <path d="M14.87477,12.361a59.431,59.431,0,0,1,6.62721-1.4477c1.19032,0,5.94685,2.30975,7.335,6.5307,1.9679,5.98379-3.3847,9.90723-3.98919,9.52259,5.75859-4.76129-3.66748-13.56222-8.30009-12.90053-.57908.08274-.25737.57907-.25737.57907L16.16161,15.932l-.96513-1.60855Z"/>
    <path d="M28.04483,15.64414c1.7169,3.02227,1.36006,1.29192.979,4.74689.70532-1.141,1.80813-.28665,2.26361.14966a.12223.12223,0,0,0,.21252-.08326,5.2045,5.2045,0,0,0-1.01255-2.80795A5.1942,5.1942,0,0,0,28.04483,15.64414Z"/>
    <path d="M29.02379,20.391c.3811-3.455.73794-1.72462-.979-4.74689a5.1942,5.1942,0,0,1,2.44254,2.00534,5.2045,5.2045,0,0,1,1.01255,2.80795.12223.12223,0,0,1-.21252.08326C30.83192,20.10438,29.72911,19.25005,29.02379,20.391Zm0,0,.16813-.41533" fill="none" stroke="#000"/>
    <path d="M14.23161,19.93015c-.72436,1.22648-2.21065,1.13447-2.1822,2.59722,1.32748,2.94943,1.3354,2.73787,1.3354,2.73787,2.45895-1.38142,1.44846-4.43161,1.08358-5.32872A.13215.13215,0,0,0,14.23161,19.93015Z"/>
    <path d="M8.65754,22.64177c1.41239.18427,2.25493-1.04356,3.39007-.12058,1.50693,2.86192,1.33533,2.73787,1.33533,2.73787-2.60244,1.08725-4.38388-1.58692-4.86618-2.42678A.13216.13216,0,0,1,8.65754,22.64177Z"/>
    <path d="M20.50468,20.82212S21.9202,22.27,21.18027,22.495c-.92267-.56788-2.57606-.12656-3.38644.14677a.24608.24608,0,0,1-.32319-.30769c.27558-.75826.95605-2.162,2.26194-2.34841C20.50468,19.79252,20.50468,20.82212,20.50468,20.82212Z"/>
    <path d="M21.37329,13.74439c-.16085-.2252-.48256-.83645.51474-.83645a5.07241,5.07241,0,0,1,2.831,1.547c-.09652.25461-.73993.31155-1.06164.28678a3.65442,3.65442,0,0,1-1.28684-.28678A3.06223,3.06223,0,0,1,21.37329,13.74439Z" fill="#fff"/>
  </g>
</svg>
