<svg id="Layer_1" data-name="Layer 1" xmlns="http://www.w3.org/2000/svg" xmlns:xlink="http://www.w3.org/1999/xlink" viewBox="0 0 40 40"><defs><style>.cls-1{fill:url(#linear-gradient);}.cls-2{fill:#311f1b;}.cls-3{fill:#f6a32b;}.cls-4{fill:#fff;}.cls-5{fill:#ddd;}.cls-6{fill:#ef8105;}.cls-7{fill:#ef8005;}.cls-8{fill:#c65017;}.cls-9{fill:#fccb5f;}.cls-10{fill:#de6c0f;}.cls-11{fill:#ee8007;}.cls-12{fill:#f8e035;}.cls-13{fill:#b11922;}.cls-14{fill:#fdfdfb;}.cls-15{fill:#fffdfc;}.cls-16{fill:#d11f2a;}.cls-17{fill:#d51f29;}.cls-18{fill:#dadad9;}.cls-19{fill:#dadada;}.cls-20{fill:#faf9f7;}.cls-21{fill:#c4c4c3;}.cls-22{fill:#fffffd;}.cls-23{fill:#cccdce;}.cls-24{fill:#cdcfcf;}.cls-25{fill:#faf9f9;}.cls-26{fill:#f8f8f8;}.cls-27{fill:#5b3d38;}.cls-28{fill:#ef857f;}.cls-29{fill:#f5ada6;}</style><linearGradient id="linear-gradient" x1="654.66688" y1="-2917.17847" x2="617.37519" y2="-2917.17847" gradientTransform="translate(-2897.17847 -616.04187) rotate(90)" gradientUnits="userSpaceOnUse"><stop offset="0" stop-color="#be5117"/><stop offset="1" stop-color="#f6a42c"/></linearGradient></defs><title>babydoge</title><path class="cls-1" d="M37,26.3V13.7a6.00112,6.00112,0,0,0-3-5.2L23,2.2a5.867,5.867,0,0,0-6,0L6,8.5a6.00112,6.00112,0,0,0-3,5.2V26.3a6.00113,6.00113,0,0,0,3,5.2l11,6.3a5.867,5.867,0,0,0,6,0l11-6.3A6.09188,6.09188,0,0,0,37,26.3Z"/><path class="cls-2" d="M14.38989,24.88918a2.84641,2.84641,0,0,1,.654-1.831.41613.41613,0,0,0-.13079-.61658,4.68577,4.68577,0,0,1-2.52236-3.32577,7.00843,7.00843,0,0,1,.2429-3.28841,1.513,1.513,0,0,0,.03736-.71,8.70273,8.70273,0,0,1,.13079-4.93261c.411-1.19578,1.04632-1.45736,2.20473-.91552A7.158,7.158,0,0,1,16.80015,10.465a.37436.37436,0,0,0,.4671.07473,7.96576,7.96576,0,0,1,6.27787.03737.3411.3411,0,0,0,.411-.07474A8.27279,8.27279,0,0,1,25.65642,9.344a3.47585,3.47585,0,0,1,.84079-.29895,1.09,1.09,0,0,1,1.19578.54184,5.70338,5.70338,0,0,1,.61658,1.90578,9.27552,9.27552,0,0,1-.20552,3.86762.52763.52763,0,0,0,.03736.33631,7.52186,7.52186,0,0,1,.37369,2.95209,4.68174,4.68174,0,0,1-2.57841,3.81157.39926.39926,0,0,0-.13079.61657,3.11424,3.11424,0,0,1,.61657,2.485c0,.09342-.07473.16816.07474.28026a2.13457,2.13457,0,0,1,.95289,2.11131,4.41689,4.41689,0,0,1-.44842,1.56947,1.636,1.636,0,0,1-1.5321.99026h-.54184A2.4154,2.4154,0,0,0,23.732,30.756a2.22281,2.22281,0,0,1-1.70026.09342c-.03736,0-.07473-.03737-.09342-.03737-.37368-.411-.84078-.29894-1.32657-.29894h-.71a1.7356,1.7356,0,0,0-.87815.24289,2.09019,2.09019,0,0,1-2.11131-.09342.80256.80256,0,0,0-.4671-.13079H15.39884a1.69415,1.69415,0,0,1-1.5321-.99026,4.146,4.146,0,0,1-.411-1.42.55393.55393,0,0,0-.24289-.411,3.7507,3.7507,0,0,1-1.15842-5.19419c.03737-.03737.07474-.07473.07474-.09342a.27609.27609,0,0,1,.29894-.13079c.13079.03737.16816.13079.20553.28027a3.06749,3.06749,0,0,0,.95289,1.86841A4.93825,4.93825,0,0,0,14.38989,24.88918Z"/><path class="cls-3" d="M12.83911,18.79816a6.16856,6.16856,0,0,1,.2429-2.74657,7.96474,7.96474,0,0,1,2.91472-4.20393c.20552-.16816.24289-.29894.07474-.50447a11.14114,11.14114,0,0,0-.84079-.99026c.13079-.13079.24289-.03737.33631.03737a5.90851,5.90851,0,0,1,1.08368.8221.68957.68957,0,0,0,.65395.07474A7.60313,7.60313,0,0,1,21.99433,10.82a8.07668,8.07668,0,0,1,1.56947.50448.3776.3776,0,0,0,.4671-.07474,9.18441,9.18441,0,0,1,1.08368-.8221c.13079-.09342.28027-.20553.44842-.09342a9.57314,9.57314,0,0,0-.8221.91552c-.24289.33631-.24289.411.09342.65394a8.03364,8.03364,0,0,1,3.15762,5.90419,2.9244,2.9244,0,0,1-.03737.99026,1.36034,1.36034,0,0,1-1.25183.67263,2.86373,2.86373,0,0,1-2.03657-.67263c-.54184-.44842-1.04631-.91552-1.56947-1.42a6.31383,6.31383,0,0,0-1.02763-.84078,2.85976,2.85976,0,0,0-3.40051.03737,14.51029,14.51029,0,0,0-1.40131,1.21447c-.33631.29894-.65394.67262-1.02763.95289a3.11872,3.11872,0,0,1-2.1113.74736A1.72748,1.72748,0,0,1,12.83911,18.79816Z"/><path class="cls-4" d="M12.83911,18.79816a2.49505,2.49505,0,0,0,.99026.50447,2.792,2.792,0,0,0,2.41025-.71c.61658-.50447,1.19579-1.08368,1.775-1.62552a3.85975,3.85975,0,0,1,1.58815-.99026,2.94581,2.94581,0,0,1,2.74656.654c.71.57921,1.364,1.25184,2.07394,1.90578a2.78393,2.78393,0,0,0,2.541.8221,2.11828,2.11828,0,0,0,.95289-.54184,5.4747,5.4747,0,0,1-.09342.54184,7.83779,7.83779,0,0,1-.61657.91552,6.29482,6.29482,0,0,1-2.20473,1.42,12.279,12.279,0,0,1-3.02683.61657,15.781,15.781,0,0,1-4.68972-.24289A6.73281,6.73281,0,0,1,13.82937,20.405a3.53829,3.53829,0,0,1-.84078-1.12105A.9938.9938,0,0,1,12.83911,18.79816Z"/><path class="cls-5" d="M12.9699,19.32131a4.16244,4.16244,0,0,1,.67263.8221,6.449,6.449,0,0,0,1.58815,1.19579,10.09081,10.09081,0,0,0,3.77419.91552,15.06878,15.06878,0,0,0,4.93261-.33631,6.48857,6.48857,0,0,0,3.195-1.73763,4.139,4.139,0,0,0,.4671-.65394c.03737-.07474.07474-.16816.20553-.16816A4.12,4.12,0,0,1,25.89932,21.881a8.6409,8.6409,0,0,1-3.49394,1.12105,14.70986,14.70986,0,0,1-5.56787-.29895,6.02166,6.02166,0,0,1-3.06419-1.73763A3.75759,3.75759,0,0,1,12.9699,19.32131Z"/><path class="cls-3" d="M21.82618,29.74706a2.7033,2.7033,0,0,1-.03737-.78474V27.26207c0-.07474.03737-.07474.07474-.03737.07473.07474.03737.16816.07473.28026a21.40645,21.40645,0,0,0,1.94315-1.96183,2.56641,2.56641,0,0,0,.67263-1.45736c0-.03737.03737-.09342.03737-.13079.13079-.07474.24289-.09342.37368-.16816.16816,0,.16816.16816.20553.28026a3.53265,3.53265,0,0,1,.03737,1.40131,8.34805,8.34805,0,0,1-.74737,2.37289,7.32726,7.32726,0,0,1-.74736,1.42c-.07474.09342-.13079.24289-.2429.299a.17791.17791,0,0,1-.13079.03736,2.518,2.518,0,0,0-1.32657.16816A.22112.22112,0,0,1,21.82618,29.74706Z"/><path class="cls-3" d="M18.94882,27.80391c0,.65394.03737,1.2892,0,1.94315a.20244.20244,0,0,1-.20552,0,2.32647,2.32647,0,0,0-1.28921-.13079.264.264,0,0,1-.28026-.03737,1.77056,1.77056,0,0,0-.20552-.4671,12.91064,12.91064,0,0,1-1.32658-3.28841A4.16522,4.16522,0,0,1,15.567,24.1605a.57724.57724,0,0,1,.20552-.37368c.13079.07474.24289.09342.37368.16816a.28689.28689,0,0,1,.09342.24289,2.47333,2.47333,0,0,0,.54184,1.21447,18.45726,18.45726,0,0,0,1.86842,1.96183A.67377.67377,0,0,1,18.94882,27.80391Z"/><path class="cls-5" d="M19.49066,28.8689V27.29943c0-.24289-.09342-.37368-.33631-.33631a.68651.68651,0,0,1-.16816-.299,5.918,5.918,0,0,0-.95289-1.79367.81726.81726,0,0,0-.44842-.37368c-.07474-.03737-.13079-.03737-.13079-.16816.54184.07473,1.08368.20552,1.62552.24289.20553,0,.13079.09342.07474.2429a1.25507,1.25507,0,0,0,.29894,1.42,1.3842,1.3842,0,0,0,1.45737.28026,1.3308,1.3308,0,0,0,.71-1.66289c-.09342-.28026,0-.28026.20553-.28026.411-.03737.8221-.09342,1.25183-.16816.03737.09343-.03736.13079-.07473.20553a5.7837,5.7837,0,0,0-1.19579,2.20473c-.03737.07473-.03737.13079-.09342.16816-.29894-.03737-.37368.03736-.37368.33631,0,.50447,0,1.02763-.03737,1.5321A1.46011,1.46011,0,0,1,19.49066,28.8689Z"/><path class="cls-4" d="M17.45409,24.34734c.65395.2429.87816.82211,1.19579,1.364a3.09363,3.09363,0,0,1,.4671,1.25183c-.20553.09342-.16816.299-.16816.4671v.37369c-.71-.8221-1.58815-1.49473-2.24209-2.41026a2.301,2.301,0,0,1-.54184-1.45736C16.59462,24.06708,17.00567,24.21655,17.45409,24.34734Z"/><path class="cls-4" d="M21.658,27.00049a4.17233,4.17233,0,0,1,.67263-1.62552,6.015,6.015,0,0,1,.71-.95289c.50447-.13079,1.04631-.28026,1.53209-.44842a1.41307,1.41307,0,0,1-.28026,1.08368,10.286,10.286,0,0,1-1.66288,1.94315,8.159,8.159,0,0,0-.78474.8221c-.09342-.16816,0-.33631-.07473-.50447A.25089.25089,0,0,0,21.658,27.00049Z"/><path class="cls-6" d="M23.433,29.50416A11.76846,11.76846,0,0,0,25.02116,25.73a3.19963,3.19963,0,0,0-.07473-1.96183.56776.56776,0,0,1,.13079-.09343c.411-.20552.411-.20552.5792.20553a3.39407,3.39407,0,0,1,.07474,2.11131,11.44592,11.44592,0,0,1-1.5321,3.49393c-.07473.09342-.13079.16816-.20552.28026C23.76933,29.74706,23.5638,29.74706,23.433,29.50416Z"/><path class="cls-6" d="M15.7912,23.76814a4.44342,4.44342,0,0,0,.20553,2.95209,9.93453,9.93453,0,0,0,1.21447,2.541c.07473.09342.07473.16816-.03737.28026a.35772.35772,0,0,1-.411.2429,7.29688,7.29688,0,0,1-1.15842-2.07394,7.071,7.071,0,0,1-.71-2.541,2.68423,2.68423,0,0,1,.24289-1.364c.16816-.33631.16816-.33631.4671-.13078A.87224.87224,0,0,1,15.7912,23.76814Z"/><path class="cls-7" d="M24.55406,29.95258a14.30167,14.30167,0,0,0,1.58815-3.49393c.07474-.20553.13079-.13079.2429-.03737a1.91849,1.91849,0,0,1,.4671,1.5321,3.52563,3.52563,0,0,1-.37368,1.2892,1.17566,1.17566,0,0,1-.95289.71A8.399,8.399,0,0,1,24.55406,29.95258Z"/><path class="cls-7" d="M15.6791,29.95258a1.36656,1.36656,0,0,1-1.56947-1.12105,2.48027,2.48027,0,0,1-.09342-1.79367,1.48247,1.48247,0,0,1,.37369-.61658c.09342-.09342.16815-.16816.20552.03737a12.692,12.692,0,0,0,1.49473,3.32577c.07474.13079.07474.16816-.09342.16816Z"/><path class="cls-8" d="M27.24458,13.77213A9.35272,9.35272,0,0,0,25.507,11.77292c-.37368-.29894-.37368-.33631-.03737-.71a5.44958,5.44958,0,0,1,1.28921-1.08368.54177.54177,0,0,1,.16816.28026,6.08369,6.08369,0,0,1,.37368,1.94315,4.69008,4.69008,0,0,1,.03737,1.02763A.44646.44646,0,0,1,27.24458,13.77213Z"/><path class="cls-8" d="M13.97884,9.99793a5.06726,5.06726,0,0,1,1.49473,1.32658.187.187,0,0,1,0,.28026,9.29984,9.29984,0,0,0-1.94315,2.16736.35835.35835,0,0,1-.16815-.33632,10.07019,10.07019,0,0,1,.33631-2.98946C13.75463,10.27819,13.77332,10.11,13.97884,9.99793Z"/><path class="cls-9" d="M25.54432,10.27819a3.17283,3.17283,0,0,0-1.15842.74737.94126.94126,0,0,1-1.21446.24289,6.65321,6.65321,0,0,0-3.56867-.50447,6.62277,6.62277,0,0,0-2.52236.71c-.09342.07473-.16816.03737-.28026-.03737-.44842-.33631-.84079-.71-1.32658-1.02763a.39308.39308,0,0,0-.28026-.09342c-.29894-.24289-.57921-.4671-.91552-.71a1.99587,1.99587,0,0,1,.8221.29894,9.74492,9.74492,0,0,1,1.5321,1.12105.40268.40268,0,0,0,.54184.09342,7.4158,7.4158,0,0,1,6.35261,0,.39884.39884,0,0,0,.50447-.07474,7.91822,7.91822,0,0,1,2.03657-1.40131,1.23484,1.23484,0,0,1,.28026-.09342c.03737,0,.03737,0,.09342.03737C26.12353,9.82978,25.84327,10.07267,25.54432,10.27819Z"/><path class="cls-7" d="M12.05438,23.6934a1.78007,1.78007,0,0,1,.16816-.54184,3.95454,3.95454,0,0,0,.99025,1.5321,3.347,3.347,0,0,0,1.04632.71c.28026.13079.28026.28027.03736.44842a1.93127,1.93127,0,0,0-.61657.67263c-.13079.03737-.2429-.07473-.29895-.13079a3.47145,3.47145,0,0,1-1.25183-1.9992A1.13819,1.13819,0,0,1,12.05438,23.6934Z"/><path class="cls-10" d="M13.97884,9.99793a8.10709,8.10709,0,0,0-.50447,3.40051,1.32768,1.32768,0,0,0,.07474.37369c-.13079.28026-.28026.54184-.44842.84078a1.51285,1.51285,0,0,1-.13079-.74736,8.15313,8.15313,0,0,1,.28026-3.28841c.03737-.13079.09342-.28026.13079-.411C13.54911,9.699,13.54911,9.699,13.97884,9.99793Z"/><path class="cls-10" d="M27.24458,13.77213a9.20609,9.20609,0,0,0-.20553-3.02683,6.30646,6.30646,0,0,1-.24289-.78474l.03736-.03736c.37369-.2429.37369-.2429.54184.16815a6.59882,6.59882,0,0,1,.46711,2.485,11.07254,11.07254,0,0,1-.09342,1.775.85893.85893,0,0,1-.07474.2429A8.66786,8.66786,0,0,0,27.24458,13.77213Z"/><path class="cls-11" d="M19.49066,28.8689a1.8682,1.8682,0,0,0,1.775,0c0,.299.03737.57921.03737.87816,0,.16815-.03737.20552-.16816.20552H19.64013c-.13078,0-.20552-.03737-.16815-.16816C19.49066,29.46679,19.49066,29.16785,19.49066,28.8689Z"/><path class="cls-5" d="M12.05438,23.6934a3.5602,3.5602,0,0,0,1.58815,2.8213,2.30062,2.30062,0,0,0-.16816.54184c-.03737.13079-.07473.16816-.16815.07474A3.255,3.255,0,0,1,12.05438,23.6934Z"/><path class="cls-12" d="M20.12592,26.085a.79582.79582,0,1,1,.69132-1.42A.89774.89774,0,0,1,20.12592,26.085Z"/><path class="cls-13" d="M15.62305,23.02077c-.03737-.20552.03737-.24289.20552-.16816a11.10939,11.10939,0,0,0,3.40051.67263c.33632,0,.37369.03737.33632.44842-.03737.299-.2429.13079-.37368.16816-.03737,0-.09343-.03737-.13079-.03737.03736-.07474.07473-.07474.13079-.09342A9.6133,9.6133,0,0,1,15.62305,23.02077Z"/><path class="cls-13" d="M21.658,24.06708c-.44842.09342-.4671.07474-.4671-.33631,0-.20553.09342-.2429.28026-.2429a11.23058,11.23058,0,0,0,2.61578-.411,7.96173,7.96173,0,0,0,.87815-.28026c.09342-.03737.20553-.07474.16816.09342a1.59011,1.59011,0,0,1-.71.44842,11.38332,11.38332,0,0,1-2.7092.61658c-.03737,0-.09342-.03737-.07473.03736C21.62065,24.02971,21.658,24.06708,21.658,24.06708Z"/><path class="cls-14" d="M17.37936,29.50416a2.13109,2.13109,0,0,1,1.56946.2429c0,.29894-.09342.54184-.41105.61657a3.7522,3.7522,0,0,1-.91552,0h0c0-.13078.13079-.13078.20552-.13078a3.523,3.523,0,0,1-.37368-.37369A.35739.35739,0,0,1,17.37936,29.50416Z"/><path class="cls-15" d="M21.82618,29.74706a2.08392,2.08392,0,0,1,1.5321-.2429c.13078.09342.03736.16816,0,.28026a1.74944,1.74944,0,0,1-.50447.54184c-.16816.13079-.37369.03737-.57921.03737A.54086.54086,0,0,1,21.82618,29.74706Z"/><path class="cls-16" d="M21.658,24.06708c-.13079-.03737-.37368.07474-.37368-.07474,0-.16815.24289-.07473.33631-.09342a13.84176,13.84176,0,0,0,2.61578-.54184,9.2626,9.2626,0,0,0,.87815-.411c.03737.16816-.09342.20553-.24289.28027a8.09622,8.09622,0,0,1-2.69051.78473A4.48885,4.48885,0,0,1,21.658,24.06708Z"/><path class="cls-17" d="M15.62305,23.02077c.09342-.07474.16815,0,.28026.07474a8.0658,8.0658,0,0,0,3.02683.78473,2.35193,2.35193,0,0,1,.50447.07474c.07474,0,.13079,0,.09342.09342,0,.07473-.07474.07473-.13079.07473H19.0983a8.26907,8.26907,0,0,1-3.26973-.87815C15.71647,23.15156,15.62305,23.11419,15.62305,23.02077Z"/><path class="cls-18" d="M22.23723,30.36363c.57921.07474.78473-.411,1.08368-.74736v-.09342h.09342a1.87747,1.87747,0,0,1,.54184.28026A1.56251,1.56251,0,0,1,22.23723,30.36363Z"/><path class="cls-19" d="M17.37936,29.50416c.09342.33632.41105.46711.61657.74737-.09342.09342-.29894-.03737-.41105.09342a1.21336,1.21336,0,0,1-.84079-.57921c.13079-.07474.28027-.16816.41106-.24289A.29411.29411,0,0,0,17.37936,29.50416Z"/><path class="cls-20" d="M20.12592,26.085c.71-.29895.8221-.50447.65395-1.45737a.80216.80216,0,0,1-.65395,1.45737Z"/><path class="cls-21" d="M20.40618,24.011c-.16815,0-.33631.09342-.33631-.20553,0-.28026.13079-.24289.29895-.24289s.33631-.07474.33631.24289C20.70513,24.10445,20.4996,23.97366,20.40618,24.011Z"/><path class="cls-19" d="M17.62225,30.36363a7.48339,7.48339,0,0,1,.91552,0A2.51337,2.51337,0,0,1,17.62225,30.36363Z"/><path class="cls-2" d="M15.26805,16.18238a1.0978,1.0978,0,0,1,1.04631-1.121,1.112,1.112,0,0,1,1.21447.99026.67218.67218,0,0,1-.411.78473,1.92362,1.92362,0,0,1-1.32658.16816A.752.752,0,0,1,15.26805,16.18238Z"/><path class="cls-2" d="M24.51669,17.04185a3.04849,3.04849,0,0,1-.67263-.13079.81892.81892,0,0,1-.54184-1.15842,1.1405,1.1405,0,0,1,2.20473.44842C25.507,16.76159,25.17064,17.04185,24.51669,17.04185Z"/><path class="cls-22" d="M18.12672,13.88423c0,.411-.33631.67263-.8221.654-.03737,0-.07474,0-.09342-.03737-.50447-.07474-.78474-.29895-.74737-.67263a.933.933,0,0,1,.99026-.74737A.75427.75427,0,0,1,18.12672,13.88423Z"/><path class="cls-22" d="M22.64828,13.88423a.77813.77813,0,0,1,.71-.78473.93983.93983,0,0,1,.95289.78473.49716.49716,0,0,1-.2429.4671,1.14419,1.14419,0,0,1-1.121.09343A.61852.61852,0,0,1,22.64828,13.88423Z"/><path class="cls-2" d="M19.07961,17.07922a1.53583,1.53583,0,0,1,1.56947-.54184,1.09341,1.09341,0,0,1,.411.09342.78987.78987,0,0,1,.65394.91552,1.10872,1.10872,0,0,1-.61657.87815c-.2429.13079-.2429.13079-.03737.37369.44842.24289.67263.20552.99026-.16816.09342-.13079.16815-.28026.28026-.44842a.2118.2118,0,0,1,.33631-.09342.23057.23057,0,0,1,.09342.33631,1.71917,1.71917,0,0,1-.74736.87816.46571.46571,0,0,0-.20553.28026,2.06086,2.06086,0,0,1-.61657,1.19578,1.17459,1.17459,0,0,1-1.70026.03737,2.16923,2.16923,0,0,1-.61657-1.21447.54013.54013,0,0,0-.20553-.33631,1.85415,1.85415,0,0,1-.67263-.84079.23937.23937,0,1,1,.42974-.20552,2.24812,2.24812,0,0,0,.28026.44842.67081.67081,0,0,0,1.04631.07474c.13079-.16816,0-.20553-.09342-.299A1.25529,1.25529,0,0,1,19.07961,17.07922Z"/><path class="cls-23" d="M19.07961,17.07922c-.07474.78473.37368,1.15841,1.02763,1.42a.66393.66393,0,0,1-.299.20553A1.22382,1.22382,0,0,1,19.07961,17.07922Z"/><path class="cls-24" d="M21.06013,18.77947a1.14358,1.14358,0,0,1-.411-.28026,1.49313,1.49313,0,0,0,1.08368-.99026.6.6,0,0,1-.09342.654,1.51171,1.51171,0,0,1-.50447.4671C21.06013,18.66737,20.98539,18.66737,21.06013,18.77947Z"/><path class="cls-25" d="M16.57594,15.435c.20552.03737.33631.09342.33631.33632a.34458.34458,0,0,1-.33631.37368.37478.37478,0,0,1-.37368-.37368C16.20226,15.5658,16.333,15.435,16.57594,15.435Z"/><path class="cls-26" d="M24.59143,15.84606a.3287.3287,0,0,1-.33632.29895.37478.37478,0,0,1-.37368-.37368.36726.36726,0,0,1,.33632-.37368A.41986.41986,0,0,1,24.59143,15.84606Z"/><path class="cls-27" d="M20.36882,17.4529a1.74672,1.74672,0,0,1-.61658-.07474c-.28026-.13079-.28026-.33631-.03737-.50447a1.5524,1.5524,0,0,1,1.28921.03737c.20552.13079.20552.33631-.03737.44842A.70575.70575,0,0,1,20.36882,17.4529Z"/><path class="cls-28" d="M20.98539,20.19947a.65678.65678,0,0,1-1.21447,0,.29732.29732,0,0,1,.16816-.16816A1.12449,1.12449,0,0,1,20.98539,20.19947Z"/><path class="cls-29" d="M20.98539,20.19947a1.70042,1.70042,0,0,0-1.21447,0c-.13079-.09342-.16815-.20553.03737-.2429a1.92833,1.92833,0,0,1,1.21447,0C21.22829,20.03131,21.06013,20.12473,20.98539,20.19947Z"/></svg>