<?xml version="1.0" encoding="utf-8"?>
<!-- Generator: Adobe Illustrator 22.0.0, SVG Export Plug-In . SVG Version: 6.00 Build 0)  -->
<svg version="1.1" id="Layer_1" xmlns="http://www.w3.org/2000/svg" xmlns:xlink="http://www.w3.org/1999/xlink" x="0px" y="0px"
	 viewBox="0 0 500 500" style="enable-background:new 0 0 500 500;" xml:space="preserve">
<style type="text/css">
	.st0{fill:url(#SVGID_1_);}
	.st1{fill:none;}
	.st2{fill:#FFFFFF;}
	.st3{fill:#0E0F23;}
	.st4{clip-path:url(#SVGID_3_);}
	.st5{fill:url(#SVGID_4_);}
</style>
<title>decentraland</title>
<linearGradient id="SVGID_1_" gradientUnits="userSpaceOnUse" x1="1539" y1="619.3" x2="1039" y2="619.3" gradientTransform="matrix(0 -1 -1 0 869.3 1539)">
	<stop  offset="0" style="stop-color:#161F3A"/>
	<stop  offset="1" style="stop-color:#161F3A"/>
</linearGradient>
<polygon class="st0" points="500,0 500,500 0,500 0,0 "/>
<path class="st1" d="M75,75h350v350H75V75z"/>
<path class="st2" d="M407.8,296.8l-62.4,87.5c-13.4,15.4-33.9,22.5-53.9,18.6c-42.1-6.2-81.9-23.1-115.7-49
	c-35.3-23.7-64.1-55.9-83.5-93.7c-10.1-17.6-10.1-39.3,0-57l62.2-87.5c13.5-15.3,34-22.4,54.1-18.6c42.1,6.2,81.9,23.1,115.7,49
	c35.3,23.6,64,55.9,83.4,93.7c10.1,17.6,10.1,39.3,0,57H407.8z M171.7,127.6c9.3-9.2,22.7-13,35.5-10c38.4,5.9,74.6,21.4,105.3,45.2
	c32.3,21.5,58.7,50.7,76.7,85.1c6.8,11.2,7.5,25.1,1.9,36.9l8.4,6l-8.4-6l-62.8,87.5c-9.3,9.2-22.6,13-35.3,10
	c-38.4-5.9-74.7-21.4-105.5-45.2c-32.3-21.5-58.6-50.8-76.5-85.1c-6.9-11.2-7.6-25.1-1.9-36.9C109.1,215.1,171.7,127.6,171.7,127.6z
	"/>
<path class="st2" d="M163.4,121.7c20.5-28.6,89.9-14,155.1,32.8s101.3,107.7,80.8,136.3l-62.5,87.5c-20.5,28.6-90,13.8-155.3-32.8
	s-101.3-107.7-81-136.3l63.6-87.5H163.4z"/>
<path class="st3" d="M159.1,118.3c12.6-13.6,31.3-19.6,49.5-15.9c41.2,6,80.2,22.5,113.3,47.7c34.6,23.1,62.7,54.7,81.6,91.8
	c9.3,16.1,9.3,36,0,52.2L341,381.6c-12.5,13.6-31.3,19.7-49.5,15.9c-41.2-6-80.2-22.5-113.3-47.7c-34.6-23-62.8-54.5-81.8-91.5
	c-9.3-16.2-9.3-36.1,0-52.3l62.7-87.5V118.3z M395.2,287.6L395.2,287.6c6.7-13.3,6.1-29.2-1.8-41.8c-18.3-35.2-45.2-65.2-78.3-87.2
	c-31.4-24.3-68.5-40.1-107.7-46c-14.5-3.2-29.6,1.3-39.9,11.9l0,0c-6.4,13.1-5.8,28.5,1.8,41c18.3,35.3,45.2,65.3,78.3,87.3
	c31.4,24.3,68.5,40.1,107.7,46c14.2,3,29-1.2,39.5-11.3v-0.8L395.2,287.6z M298,183.4c16.6,11,30.1,26.1,39.1,43.8
	c3.8,5.8,4.1,13.1,1,19.2c-4.8,4.9-11.8,6.9-18.5,5.4c-19.5-3.1-37.8-11.1-53.5-23.1c-16.7-10.9-30.2-26-39.3-43.8
	c-3.6-5.8-4-13.1-1-19.3c4.9-4.9,12-6.9,18.8-5.4C264.2,163.4,282.5,171.3,298,183.4z"/>
<g>
	<defs>
		<path id="SVGID_2_" d="M159.1,118.3c12.6-13.6,31.3-19.6,49.5-15.9c41.2,6,80.2,22.5,113.3,47.7c34.6,23.1,62.7,54.7,81.6,91.8
			c9.3,16.1,9.3,36,0,52.2L341,381.6c-12.5,13.6-31.3,19.7-49.5,15.9c-41.2-6-80.2-22.5-113.3-47.7c-34.6-23-62.8-54.5-81.8-91.5
			c-9.3-16.2-9.3-36.1,0-52.3l62.7-87.5V118.3z M395.2,287.6L395.2,287.6c6.7-13.3,6.1-29.2-1.8-41.8
			c-18.3-35.2-45.2-65.2-78.3-87.2c-31.4-24.3-68.5-40.1-107.7-46c-14.5-3.2-29.6,1.3-39.9,11.9l0,0c-6.4,13.1-5.8,28.5,1.8,41
			c18.3,35.3,45.2,65.3,78.3,87.3c31.4,24.3,68.5,40.1,107.7,46c14.2,3,29-1.2,39.5-11.3v-0.8L395.2,287.6z M298,183.4
			c16.6,11,30.1,26.1,39.1,43.8c3.8,5.8,4.1,13.1,1,19.2c-4.8,4.9-11.8,6.9-18.5,5.4c-19.5-3.1-37.8-11.1-53.5-23.1
			c-16.7-10.9-30.2-26-39.3-43.8c-3.6-5.8-4-13.1-1-19.3c4.9-4.9,12-6.9,18.8-5.4C264.2,163.4,282.5,171.3,298,183.4z"/>
	</defs>
	<clipPath id="SVGID_3_">
		<use xlink:href="#SVGID_2_"  style="overflow:visible;"/>
	</clipPath>
	<g class="st4">
		
			<linearGradient id="SVGID_4_" gradientUnits="userSpaceOnUse" x1="-714.6732" y1="215.8484" x2="-714.0367" y2="215.8484" gradientTransform="matrix(62.01 312.2 -312.2 62.01 112009.2109 209861.4219)">
			<stop  offset="0" style="stop-color:#27B0E6"/>
			<stop  offset="0.52" style="stop-color:#C26BB3"/>
			<stop  offset="1" style="stop-color:#FA52A0"/>
		</linearGradient>
		<path class="st5" d="M69,303.4c1.7,0,4.5,4,5.9,5.1c5.1,4,10.4,7.7,15.9,11.1c14.2,10,31.7,14.2,48.8,11.6
			c25.8-5.7,49.2-50.9,75.3-44.7c14.5,3.2,24.8,23.7,37.7,37.9c8.5,13.1,23.8,20.2,39.3,18c40.3-7.8,55.4-87.2,96.3-82.7
			c33.9,3.5,20.7,44.2,53.1,58.7c0,0,78.6-68.6,79.5-80.3c2.2-45.8-41.2-584.8-39.1-584.8L94.1-203.6L69.3,305.5L69,303.4z"/>
	</g>
</g>
<path class="st2" d="M328,331.1c10.5,2,21.2,2.3,31.8,1c1.3-0.2,2.2-1.4,2.1-2.7c-0.3-1.2-1.4-1.9-2.5-1.9
	c-10.2,1.5-20.5,1.2-30.5-1c-1.3-0.1-2.5,0.8-2.7,2.1C326,329.7,326.8,330.8,328,331.1z M310.1,327.1c3,0.9,6,1.5,9.1,2.1
	c1,0.4,2.1-0.2,2.4-1.1c0.1-0.1,0.1-0.3,0.1-0.4c0.3-1.2-0.5-2.4-1.6-2.7c0,0-0.1,0-0.1,0l-8.6-2.2c-1.2-0.4-2.4,0.2-2.8,1.4
	c0,0.1,0,0.1-0.1,0.2C308.2,325.4,308.9,326.6,310.1,327.1z M140.5,183.9c8.4,34.8,41.8,67.3,68.7,90.4c0.8,0.9,2.2,1,3.1,0.3
	c0.9-0.8,1-2.2,0.3-3.1c-0.2-0.2-0.3-0.3-0.5-0.5c-26.1-22.6-58.9-54.3-67.1-88.1c-0.4-1.2-1.6-1.9-2.9-1.6
	C140.9,181.5,140.2,182.7,140.5,183.9z M138.4,169.9c0,1.6,0,3.2,0,4.8c0.2,1.2,1.3,2,2.5,1.9c1.2-0.2,2-1.4,1.8-2.6
	c0,0,0-0.1,0-0.1c0-1.6,0-3,0-4.5c0-1.2-1-2.2-2.2-2.2c-0.1,0-0.1,0-0.2,0c-1.3,0.1-2.2,1.1-2.2,2.4L138.4,169.9z"/>
</svg>
