<svg width="500" height="500" viewBox="0 0 500 500" fill="none" xmlns="http://www.w3.org/2000/svg">
<g clip-path="url(#clip0_160_1229)">
<path d="M500 0V500H0V0H500Z" fill="url(#paint0_linear_160_1229)"/>
<path d="M163.005 90C151.96 90 143.005 98.9543 143.005 110C143.005 121.046 151.96 130 163.005 130H229.672C240.718 130 249.672 121.046 249.672 110C249.672 98.9543 240.718 90 229.672 90H163.005Z" fill="white"/>
<path d="M343.253 155.434C353.618 151.616 358.924 140.118 355.106 129.753C351.286 119.389 339.79 114.082 329.425 117.901L156.091 181.76C145.727 185.579 140.42 197.077 144.239 207.441C148.057 217.806 159.555 223.113 169.919 219.294L343.253 155.434Z" fill="white"/>
<path d="M343.253 318.246C353.618 314.428 358.924 302.93 355.106 292.566C351.286 282.201 339.79 276.895 329.425 280.713L156.091 344.572C145.727 348.392 140.42 359.888 144.239 370.253C148.057 380.618 159.555 385.925 169.919 382.106L343.253 318.246Z" fill="white"/>
<path d="M269.672 370C258.626 370 249.672 378.954 249.672 390C249.672 401.046 258.626 410 269.672 410H336.338C347.384 410 356.338 401.046 356.338 390C356.338 378.954 347.384 370 336.338 370H269.672Z" fill="white"/>
<path d="M343.518 235.334C353.827 231.369 358.971 219.797 355.006 209.488C351.04 199.178 339.468 194.035 329.16 198.001L155.826 264.668C145.516 268.633 140.373 280.204 144.338 290.513C148.304 300.823 159.876 305.966 170.185 302.001L343.518 235.334Z" fill="white"/>
</g>
<defs>
<linearGradient id="paint0_linear_160_1229" x1="250" y1="0" x2="250" y2="500" gradientUnits="userSpaceOnUse">
<stop/>
<stop offset="1"/>
</linearGradient>
<clipPath id="clip0_160_1229">
<rect width="500" height="500" fill="white"/>
</clipPath>
</defs>
</svg>
