<?xml version="1.0" encoding="utf-8"?>
<!-- Generator: Adobe Illustrator 22.0.0, SVG Export Plug-In . SVG Version: 6.00 Build 0)  -->
<svg version="1.1" id="Layer_1" xmlns="http://www.w3.org/2000/svg" xmlns:xlink="http://www.w3.org/1999/xlink" x="0px" y="0px"
	 viewBox="0 0 40 40" style="enable-background:new 0 0 40 40;" xml:space="preserve">
<style type="text/css">
	.st0{fill:url(#SVGID_1_);}
	.st1{fill:#FFFFFF;}
</style>
<linearGradient id="SVGID_1_" gradientUnits="userSpaceOnUse" x1="977.4169" y1="3217.1785" x2="1014.7087" y2="3217.1785" gradientTransform="matrix(0 1 1 0 -3197.1785 -976.0419)">
	<stop  offset="1.198744e-03" style="stop-color:#268AEF"/>
	<stop  offset="1" style="stop-color:#011759"/>
</linearGradient>
<path class="st0" d="M37,26.3V13.7c0-2.1-1.1-4.1-3-5.2L23,2.2c-1.9-1.1-4.1-1.1-6,0L6,8.5c-1.9,1.1-3,3.1-3,5.2v12.6
	c0,2.1,1.1,4.1,3,5.2l11,6.3c1.9,1.1,4.1,1.1,6,0l11-6.3C35.8,30.4,37,28.5,37,26.3z"/>
<g>
	<path class="st1" d="M30.3,14.4v11.1c-3,2.1-6.9,3.7-9.7,6v-1.9c2.6-1.7,5.4-3.3,8.1-5v-7.5c-2.3,1.4-4.6,2.5-6.7,4v2.5l-1.4,0.7
		V20L30.3,14.4z"/>
	<path class="st1" d="M19.4,20v5.8c0,0.8,0,1.6,0,2.3v3.2l-9.7-5.9V14.4l1.6,0.9v9.3l6.7,4.1V21l-2.2-1.3v-1.8L19.4,20z"/>
	<path class="st1" d="M29.7,13.7l-1.6,0.9l-1.6-0.9L20,10.2l-6.5,3.5l6.5,3.7l0.5-0.3l0.5-0.3l1.1-0.6l1.6,0.8l-0.7,0.4L20.5,19
		L20,19.3c-3.2-1.9-6.4-3.7-9.7-5.6c3.2-1.8,6.3-3.5,9.6-5.2c2.8,1.3,5.4,2.8,8.1,4.3C28.6,13.1,29.1,13.4,29.7,13.7z"/>
</g>
</svg>
