<?xml version="1.0" encoding="utf-8"?>
<!-- Generator: Adobe Illustrator 22.0.0, SVG Export Plug-In . SVG Version: 6.00 Build 0)  -->
<svg version="1.1" id="Layer_1" xmlns="http://www.w3.org/2000/svg" xmlns:xlink="http://www.w3.org/1999/xlink" x="0px" y="0px"
	 viewBox="0 0 500 500" style="enable-background:new 0 0 500 500;" xml:space="preserve">
<style type="text/css">
	.st0{fill:url(#SVGID_1_);}
	.st1{fill:#C7EE00;}
	.st2{fill:#111111;}
</style>
<title>decentraland</title>
<linearGradient id="SVGID_1_" gradientUnits="userSpaceOnUse" x1="1539" y1="619.3" x2="1039" y2="619.3" gradientTransform="matrix(0 -1 -1 0 869.3 1539)">
	<stop  offset="0" style="stop-color:#111111"/>
	<stop  offset="1" style="stop-color:#111111"/>
</linearGradient>
<polygon class="st0" points="500,0 500,500 0,500 0,0 "/>
<g>
	<path class="st1" d="M400.4,157.6l-147.4,76.1c-1.8,0.9-3.9,0.9-5.7,0L98.9,157.3c-4.5-2.3-4.5-8.7,0-11.1l147.9-75.6
		c1.8-0.9,3.9-0.9,5.7,0l147.8,75.9C404.8,148.9,404.9,155.3,400.4,157.6z"/>
	<path class="st1" d="M86.3,356.6l139.5,72.7c4.1,2.2,9.1-0.8,9.1-5.5V264c0-2.3-1.3-4.5-3.4-5.5L92,186.5c-4.1-2.1-9.1,0.9-9.1,5.5
		v159.1C83,353.4,84.3,355.5,86.3,356.6z"/>
	<path class="st2" d="M191.7,361.9c2.2,5.5-3.7,10.8-9,8l-8.1-4.3c-1.3-0.7-2.4-1.9-2.9-3.3l-13.7-34.3l-12.7,16.4
		c-1.9,2.4-5.3,3.2-8,1.8l-8.8-4.5c-3.6-1.8-4.6-6.5-2.1-9.6l22-28.1l-20.5-51.5c-2.2-5.5,3.6-10.8,8.9-8.1l8.1,4.2
		c1.4,0.7,2.4,1.9,3,3.3l13.9,34.9l12.9-16.6c1.9-2.4,5.3-3.2,8-1.7l8.6,4.4c3.6,1.8,4.6,6.5,2.1,9.6l-22,28.4L191.7,361.9z"/>
	<path class="st1" d="M413.7,356.6l-139.5,72.7c-4.1,2.2-9.1-0.8-9.1-5.5V263.9c0-2.3,1.3-4.5,3.4-5.5L408,186.5
		c4.1-2.1,9.1,0.9,9.1,5.5v159.1C417,353.4,415.7,355.5,413.7,356.6z"/>
	<path class="st2" d="M265.7,107.9c1.9-1,4.1-0.9,5.9,0l10.2,5.4c4.6,2.4,4.5,9-0.1,11.3l-88.5,45.6c-1.9,1-4.1,0.9-5.9,0l-10.2-5.4
		c-4.6-2.4-4.5-9,0.1-11.3L265.7,107.9z M311.6,130.8c1.9-1,4.1-1,5.9,0l10.2,5.4c4.6,2.4,4.5,9-0.1,11.3l-89.6,46.2
		c-1.9,1-4.1,1-5.9,0l-10.2-5.4c-4.6-2.4-4.5-9,0.1-11.3L311.6,130.8z"/>
	<path class="st2" d="M353,254.6c0-4.7-4.9-7.8-9.2-5.8l-9.8,4.7c-2.2,1.1-3.6,3.3-3.6,5.8v42.2l-38,18.3c-2.2,1.1-3.6,3.3-3.6,5.8
		v10.8c0,4.7,4.9,7.8,9.2,5.8l32.5-15.6v36c0,4.7,4.9,7.8,9.2,5.8l9.8-4.7c2.2-1.1,3.6-3.3,3.6-5.8v-42.2l38-18.3
		c2.2-1.1,3.6-3.3,3.6-5.8v-10.8c0-4.7-4.9-7.8-9.2-5.8L353,290.6V254.6z"/>
</g>
</svg>
