<svg id="Layer_1" data-name="Layer 1" xmlns="http://www.w3.org/2000/svg" xmlns:xlink="http://www.w3.org/1999/xlink" viewBox="0 0 40 40">
  <defs>
    <style>
      .cls-1 {
        fill: url(#linear-gradient);
      }

      .cls-2 {
        fill: #333;
      }

      .cls-3 {
        fill: #787878;
      }

      .cls-4 {
        fill: #797979;
      }

      .cls-5 {
        fill: #c7c7c7;
      }

      .cls-6 {
        fill: #bababa;
      }

      .cls-7 {
        fill: #e5e5e5;
      }

      .cls-8 {
        fill: #b8b8b8;
      }

      .cls-9 {
        fill: #a9a9a9;
      }

      .cls-10 {
        fill: #d9d9d9;
      }

      .cls-11 {
        fill: #e0e0e0;
      }

      .cls-12 {
        fill: #a7a7a7;
      }

      .cls-13 {
        fill: #ffa600;
      }

      .cls-14 {
        fill: #fb3d6e;
      }

      .cls-15 {
        fill: #fffaf8;
      }

      .cls-16 {
        fill: #343333;
      }

      .cls-17 {
        fill: #bd850f;
      }

      .cls-18 {
        fill: #a78011;
      }

      .cls-19 {
        fill: #e26d00;
      }

      .cls-20 {
        fill: #ffb6c1;
      }

      .cls-21 {
        fill: #d66301;
      }

      .cls-22 {
        fill: #fc6286;
      }

      .cls-23 {
        fill: #fc6287;
      }

      .cls-24 {
        fill: #ffefef;
      }

      .cls-25 {
        fill: #fff2f1;
      }

      .cls-26 {
        fill: #ffe5e7;
      }
    </style>
    <linearGradient id="linear-gradient" x1="257.3169" y1="2277.17847" x2="294.60862" y2="2277.17847" gradientTransform="matrix(0, 1, 1, 0, -2257.17847, -256.0419)" gradientUnits="userSpaceOnUse">
      <stop offset="0" stop-color="#ff6686"/>
      <stop offset="1" stop-color="#ff2e59"/>
    </linearGradient>
  </defs>
  <title>SHIBGF</title>
  <path class="cls-1" d="M37,26.2V13.6a6.00113,6.00113,0,0,0-3-5.2L23,2.1a5.867,5.867,0,0,0-6,0L6,8.4a6.00113,6.00113,0,0,0-3,5.2V26.2a6.00113,6.00113,0,0,0,3,5.2l11,6.3a5.867,5.867,0,0,0,6,0l11-6.3A6.09187,6.09187,0,0,0,37,26.2Z"/>
  <g>
    <path class="cls-2" d="M19.64669,30.64017h-.06421c-.23078-.01765-.46226-.01906-.69244-.05389a10.94479,10.94479,0,0,1-1.56067-.35887,13.04163,13.04163,0,0,1-4.53166-2.49433,10.22607,10.22607,0,0,1-.8-.75615,8.17391,8.17391,0,0,1-1.45542-2.06326,5.68792,5.68792,0,0,1-.51977-1.68828A3.12794,3.12794,0,0,1,10,22.81386V22.282a4.20815,4.20815,0,0,1,.34053-1.57962c.13437-.33311.29892-.6526.44883-.97869.204-.44382.41094-.88633.617-1.3292.12071-.25938.24863-.51537.37-.77448a.25965.25965,0,0,0,.02124-.17911q-.216-.926-.36523-1.86522-.0906-.571-.15546-1.14582c-.03528-.31336-.06844-.627-.09057-.94132-.01739-.24719-.02694-.4953-.04025-.74281-.02179-.405-.00629-.80972-.01219-1.21449a11.35393,11.35393,0,0,1,.061-1.1543q.0201-.2299.05371-.45766a.69666.69666,0,0,1,.35374-.50668.53192.53192,0,0,1,.218-.05276q.02,0,.04008,0,.01959,0,.03924,0,.05136,0,.10276,0,.01908,0,.03817,0t.038,0a3.18064,3.18064,0,0,1,.98044.31907,8.45252,8.45252,0,0,1,1.78652,1.14851,9.64914,9.64914,0,0,1,.93737.8326,9.14206,9.14206,0,0,1,.66253.78578c.08113.10657.0804.10766.20392.06577a8.85431,8.85431,0,0,1,1.84669-.40555c.27318-.03119.54729-.05011.82169-.06878.22367-.01521.44825-.01857.67065-.01942.225-.00085.45243-.00055.67873.01868.17694.015.35493.02189.53232.03652a10.02927,10.02927,0,0,1,1.32694.2023,7.34869,7.34869,0,0,1,.87181.24778.11269.11269,0,0,0,.15013-.04553,8.8902,8.8902,0,0,1,.97817-1.11115,4.77518,4.77518,0,0,1,.38478-.33463c.38054-.29309.74655-.60575,1.15408-.86273a6.38682,6.38682,0,0,1,1.64347-.77272,1.27447,1.27447,0,0,1,.26342-.03653q.01918,0,.03836,0,.05179,0,.10356,0,.01977,0,.03953,0c.01344,0,.02685,0,.0403,0a.6496.6496,0,0,1,.57318.54081c.03993.27476.06225.55124.085.82794.04945.601.02906,1.20291.02771,1.80435-.00061.27155-.01939.54358-.04174.815-.01724.20938-.03163.419-.05051.62833-.02762.30607-.0626.61122-.1028.91575-.06174.46772-.13919.933-.22375,1.3971-.06864.37676-.14871.75111-.23476,1.12416a.32933.32933,0,0,0,.02546.23274c.28662.5897.56269,1.18441.837,1.77993.18513.40191.38255.79823.55871,1.20415a4.17114,4.17114,0,0,1,.32251,1.12407,2.72419,2.72419,0,0,1,.0218.36267q0,.039,0,.07806v.04939c.00255.01906-.00642.03979.00812.05719v.50243c-.01564.0212-.00492.04553-.00813.06823q0,.024,0,.048v.06109a3.80368,3.80368,0,0,1-.27033,1.341A7.37626,7.37626,0,0,1,28.286,26.681a11.1641,11.1641,0,0,1-2.059,1.81652,12.857,12.857,0,0,1-1.52868.91249,12.046,12.046,0,0,1-3.11391,1.0973,5.23068,5.23068,0,0,1-1.0748.125.88533.88533,0,0,1-.09652.00782h-.618"/>
    <path class="cls-3" d="M12.01092,9.36633l-.11609-.0009q-.00813-.00548-.00478-.00976l.00622-.004h.11345c.00635.00275.00863.00583.00688.00925Z"/>
    <path class="cls-4" d="M28.1213,9.36548l-.116.00084Q27.99658,9.3607,28,9.35607l.00647-.00437h.11346q.00916.00374.00672.00861Z"/>
    <path class="cls-5" d="M19.70761,30.63383a.11653.11653,0,0,1,.00066.01447"/>
    <path class="cls-6" d="M28.00648,9.3517a.03431.03431,0,0,1-.00121.01463l-.03259-.0015a.05745.05745,0,0,1,.00139-.01313Z"/>
    <path class="cls-7" d="M12.07455,9.3517q-.00006.00735.00022.0147l-.03188-.00077q-.01688-.00607-.00075-.01393Z"/>
    <path class="cls-8" d="M12.04214,9.3517a.09022.09022,0,0,0,.00075.01394l-.032.00071a.04.04,0,0,1-.00119-.01465Z"/>
    <path class="cls-9" d="M11.89627,9.3517l-.00144.01373-.03185.0002c-.006-.00349-.00785-.0067-.00561-.00968l.00649-.00425Z"/>
    <path class="cls-10" d="M11.86386,9.3517a.07554.07554,0,0,1-.00087.01394l-.032.00025c.00035-.00473.00052-.00945.00049-.01419Z"/>
    <path class="cls-11" d="M28.18476,9.3517a.1172.1172,0,0,1,.00047.01377l-.03167-.00024q-.01743-.00525-.00121-.01353Z"/>
    <path class="cls-12" d="M28.15235,9.3517l.00121.01353-.03227.00026-.00135-.01379Z"/>
    <path class="cls-13" d="M28.17348,18.57646c.01868.03589.03875.07114.05585.10777q.459.98324.91737,1.96677a4.54007,4.54007,0,0,1,.36122,1.13052,4.351,4.351,0,0,1,.06023,1.04051,5.07744,5.07744,0,0,1-.48608,1.83618,7.16668,7.16668,0,0,1-.988,1.53525,10.01864,10.01864,0,0,1-1.60547,1.53846A12.581,12.581,0,0,1,23.00619,29.634a10.58323,10.58323,0,0,1-1.46448.40914c-.26461.05346-.53112.09566-.79992.12326a6.6909,6.6909,0,0,1-.82459.04265c-.21063-.00442-.42067-.019-.63023-.04143a10.22631,10.22631,0,0,1-2.70441-.69538,12.514,12.514,0,0,1-3.17839-1.83874,9.80121,9.80121,0,0,1-1.61091-1.60171,7.01967,7.01967,0,0,1-.87012-1.40024,5.28091,5.28091,0,0,1-.39737-1.21263,4.4117,4.4117,0,0,1,.33419-2.7431q.46466-1.00293.9344-2.00349a.33221.33221,0,0,1,.05151-.09107,2.77353,2.77353,0,0,1,.56574-.65018,6.81513,6.81513,0,0,1,.81675-.64929,7.91149,7.91149,0,0,1,.74207-.44649,11.0766,11.0766,0,0,1,2.72658-.98356,14.07938,14.07938,0,0,1,1.51521-.25622c.20074-.02309.4024-.03881.60407-.05318a.19239.19239,0,0,1,.208.106.14486.14486,0,0,0,.13559.07262,3.83892,3.83892,0,0,0,.42419-.05667,3.93013,3.93013,0,0,1,.67816-.01327c.16671.0161.332.03684.49689.06517.10523.01807.20493.012.26078-.106a.1397.1397,0,0,1,.146-.0673c.16714.00537.33379.02026.49982.03763a13.97411,13.97411,0,0,1,1.51779.23987,11.04831,11.04831,0,0,1,2.91082,1.04031,7.23376,7.23376,0,0,1,1.44416,1.00779,6.69961,6.69961,0,0,1,.49446.501C28.08875,18.43192,28.12292,18.50992,28.17348,18.57646Z"/>
    <path class="cls-13" d="M12.29949,17.52057a.18055.18055,0,0,1-.02314-.07677q-.14826-.63888-.2686-1.28364-.08543-.46185-.15515-.92625c-.03263-.21888-.06076-.43849-.08755-.65818q-.04068-.33359-.07432-.668c-.01589-.15848-.02762-.31742-.03832-.47635-.01523-.22631-.0279-.45279-.04142-.67921-.00209-.035-.00312-.07015-.00417-.10525-.01321-.44011-.0204-.88019-.0037-1.32045.00983-.25912.02392-.51784.04564-.77625q.02138-.25434.054-.50731a.49562.49562,0,0,1,.01542-.07935.23769.23769,0,0,1,.27162-.16517,3.0689,3.0689,0,0,1,.35051.09871,5.75165,5.75165,0,0,1,1.17821.55177,8.55284,8.55284,0,0,1,1.03766.74751c.07679.06375.15875.12125.2374.18281a6.3186,6.3186,0,0,1,.79124.75335,9.798,9.798,0,0,1,.6862.86145l.04208.05955c.05434.07779.04451.06906.12173.03762q.319-.12985.64918-.22753a8.32651,8.32651,0,0,1,.87406-.20652c.25243-.04611.50642-.08079.76144-.10762q.35049-.03688.70283-.05078c.23747-.00937.475-.02019.71279-.01484.324.00728.64788.01966.97089.04753.296.02552.59076.06127.88337.11249a7.64944,7.64944,0,0,1,1.59479.4477c.07646.03139.067.03834.12142-.039a9.60327,9.60327,0,0,1,.81016-1.01081,5.85115,5.85115,0,0,1,.77374-.71273c.10813-.081.21253-.16646.31767-.25112a7.59424,7.59424,0,0,1,1.30342-.85849A5.15626,5.15626,0,0,1,27.966,9.81212a.29589.29589,0,0,1,.15928-.01125.23788.23788,0,0,1,.17684.17172.42729.42729,0,0,1,.012.0635c.02134.1633.03783.32709.0532.49109.0184.19638.03025.39315.03942.59.00994.2131.01392.42652.01781.63984.006.3269-.005.65367-.01778.98018-.01162.29676-.02844.5934-.05655.88923-.01915.20157-.0344.40355-.056.60484s-.049.40192-.07392.60282c-.0276.22236-.062.4437-.09666.665q-.06143.392-.13572.78173-.11457.6046-.25607,1.20356a.35539.35539,0,0,1-.01335.03758c-.04441-.00046-.06585-.03329-.08742-.064a6.54068,6.54068,0,0,0-.91962-1.031,6.85346,6.85346,0,0,0-1.37513-.97759,8.611,8.611,0,0,0-2.04311-.78039c-.03645-.00924-.07537-.01418-.09313-.05514a.15322.15322,0,0,1,.04454-.10918,2.236,2.236,0,0,0,.37729-.92824c.00486-.03215.007-.06417.00944-.09638.00814-.10946.0029-.11117-.10919-.12469a3.50992,3.50992,0,0,0-.45092-.02755A2.58915,2.58915,0,0,0,21.388,13.836c-.03247.02634-.06584.05919-.11544.03793-.0413-.11978-.1347-.13-.24507-.13136a1.08451,1.08451,0,0,0-.47861.09672.42214.42214,0,0,1-.1809.03569c-.23348,0-.467-.0007-.70043.00034a.50472.50472,0,0,1-.22706-.04765,1.12681,1.12681,0,0,0-.55378-.08157c-.08494.00362-.10771.06855-.14073.12587-.04606.0244-.07809-.00779-.10821-.03159a2.38815,2.38815,0,0,0-1.26336-.48887,4.57013,4.57013,0,0,0-.89362.006c-.09675.00864-.103.016-.09482.11406a2.08953,2.08953,0,0,0,.37344,1.012c.02674.03932.06622.073.05974.128-.01862.04422-.06083.04853-.09967.05851a9.27761,9.27761,0,0,0-1.46192.49517,7.16855,7.16855,0,0,0-1.86315,1.18473,6.582,6.582,0,0,0-1.0006,1.09783C12.37079,17.47991,12.35532,17.52821,12.29949,17.52057Z"/>
    <path class="cls-14" d="M23.20779,14.617a9.2996,9.2996,0,0,1,1.00086.29469,7.64529,7.64529,0,0,1,2.00949,1.06581,6.93485,6.93485,0,0,1,.98011.89319,5.89227,5.89227,0,0,1,.47065.58728c.01548.02206.03295.04271.0495.064a.22582.22582,0,0,0,.02571.15388c.135.27444.2664.55061.3987.82636.01155.02408.02047.04943.03064.0742a.66372.66372,0,0,1-.11388-.12481,6.14031,6.14031,0,0,0-.53572-.55148,6.86917,6.86917,0,0,0-.83152-.644,8.54116,8.54116,0,0,0-1.185-.64873,10.48836,10.48836,0,0,0-1.14862-.43962,12.12259,12.12259,0,0,0-1.3629-.35073c-.19584-.03817-.3919-.0758-.58889-.10725-.17832-.02847-.358-.04846-.53717-.07172-.17658-.02292-.35376-.039-.53148-.05091-.07268-.00485-.14525-.01037-.21807-.01314-.03357-.00128-.05834.007-.06927.04136l-.007.01458a.19758.19758,0,0,1-.2201.12774.827.827,0,0,1-.09621-.01191,3.501,3.501,0,0,0-.44042-.06046,3.05926,3.05926,0,0,0-.38012-.01091,3.27219,3.27219,0,0,0-.6099.07111.54738.54738,0,0,1-.1529.01142.17862.17862,0,0,1-.15229-.09224l-.00806-.014c-.03872-.08645-.03257-.07947-.1284-.07459-.12385.0063-.24752.017-.37108.02789-.1155.01018-.23085.02231-.3461.03507-.10184.01127-.2038.02226-.30509.03751-.18395.0277-.36782.05586-.55086.08974q-.28647.053-.57071.11626a12.171,12.171,0,0,0-1.26938.35673,9.872,9.872,0,0,0-1.5069.6518,7.41122,7.41122,0,0,0-1.24787.83922,5.87777,5.87777,0,0,0-.79782.80336c-.01354.01671-.02919.03172-.04386.04757a.15008.15008,0,0,1,.0236-.06807q.19962-.41594.40005-.83151a.20054.20054,0,0,0,.03-.16107c.01506-.01893.03114-.03713.045-.05688a6.49779,6.49779,0,0,1,.94388-1.06395,7.06682,7.06682,0,0,1,1.43372-1.00744,8.431,8.431,0,0,1,1.88383-.72423c.06788-.0175.136-.03405.204-.051.04252-.0089.06411.02176.08678.0477a2.05905,2.05905,0,0,0,1.40925.71221,1.96713,1.96713,0,0,0,.49284-.012c.05676-.00906.085-.0313.084-.09428a.68722.68722,0,0,0-.11876-.4179,3.7654,3.7654,0,0,0-1.50358-1.247c-.03863-.0176-.08284-.0286-.102-.07375a.03958.03958,0,0,1,.03009-.03635.137.137,0,0,1,.07983-.00035,2.60522,2.60522,0,0,1,1.50212.92287.22741.22741,0,0,1,.03525.05417c-.024-.1526-.05337-.30408-.08967-.45434a.14722.14722,0,0,1,.01419-.14632c.00191-.01335.00315-.02683.00583-.04.01481-.07276.04485-.10993.11611-.11461a1.18017,1.18017,0,0,1,.5269.048c.02752.011.05507.02217.08163.03525a.42836.42836,0,0,0,.21941.04411.96072.96072,0,0,0,.10489-.00666.45041.45041,0,0,1,.18409.01152.15943.15943,0,0,0,.07919-.00016.43968.43968,0,0,1,.18409-.01119c.029.00505.05917.00358.08874.00582a.46439.46439,0,0,0,.24292-.04692.84677.84677,0,0,1,.39917-.08647c.05121.00148.10248.00136.15371.00221a.32293.32293,0,0,1,.04035.00223.12532.12532,0,0,1,.12345.11718c.00264.01321.00423.02663.00631.04a.15721.15721,0,0,1,.01356.14683c-.03012.1487-.06424.2966-.08727.447a2.39684,2.39684,0,0,1,.81524-.70113,2.68533,2.68533,0,0,1,.662-.256.25762.25762,0,0,1,.13512-.01368.04083.04083,0,0,1,.0319.03485c-.01535.0439-.05663.05518-.09274.07166a3.7138,3.7138,0,0,0-1.55449,1.31673.29552.29552,0,0,0-.06061.19595.70357.70357,0,0,1-.01443.15278c-.0084.06047.01842.09.0781.09726a2.27246,2.27246,0,0,0,.90544-.062,2.02322,2.02322,0,0,0,1.00184-.63884C23.14324,14.63733,23.16513,14.6067,23.20779,14.617Z"/>
    <path class="cls-15" d="M20.0087,29.7627c-.22422-.002-.44782-.01267-.67125-.03366a9.126,9.126,0,0,1-2.20464-.49736,11.60082,11.60082,0,0,1-3.86554-2.28384A8.36766,8.36766,0,0,1,12.01585,25.572a5.35436,5.35436,0,0,1-.60893-1.076,3.35554,3.35554,0,0,1-.23384-.84827,1.9939,1.9939,0,0,1,.0102-.6612,1.13332,1.13332,0,0,1,.046-.16347.76632.76632,0,0,1,.5668-.50526,1.48113,1.48113,0,0,1,.52316-.024,3.9337,3.9337,0,0,1,1.086.3083,9.30606,9.30606,0,0,1,1.24837.64943q.39112.23787.76533.50157a1.38562,1.38562,0,0,0,.15044.09515.65278.65278,0,0,0,.54812.03568,1.18579,1.18579,0,0,0,.257-.136,2.76957,2.76957,0,0,0,.32273-.25745c.211-.1935.41927-.39.63109-.58257a5.49692,5.49692,0,0,1,.68187-.53385,3.66963,3.66963,0,0,1,1.11763-.50024,3.80787,3.80787,0,0,1,.54962-.09522,3.30614,3.30614,0,0,1,.57447-.00833,3.553,3.553,0,0,1,1.36393.37642,4.6145,4.6145,0,0,1,.84077.56024c.21714.17859.421.37183.62555.56437.116.10925.23247.218.35489.32019a2.23877,2.23877,0,0,0,.26774.196,1.10624,1.10624,0,0,0,.1882.09348.65447.65447,0,0,0,.56272-.03679,1.51443,1.51443,0,0,0,.14989-.096,13.10832,13.10832,0,0,1,1.24251-.7762,7.34314,7.34314,0,0,1,1.10451-.50048,3.77518,3.77518,0,0,1,.60976-.15966,2.02486,2.02486,0,0,1,.47608-.02439,1.01522,1.01522,0,0,1,.29164.06373.74717.74717,0,0,1,.42067.38267,1.10825,1.10825,0,0,1,.09875.34069,2.32965,2.32965,0,0,1-.04.781,3.877,3.877,0,0,1-.38831,1.0436,6.39849,6.39849,0,0,1-.75185,1.10217,9.533,9.533,0,0,1-1.4207,1.3699,11.73975,11.73975,0,0,1-3.13582,1.77818,9.89392,9.89392,0,0,1-1.59218.45757q-.41309.08148-.83268.12156C20.46194,29.75015,20.23562,29.76077,20.0087,29.7627Z"/>
    <path class="cls-15" d="M16.25532,17.98151a1.64456,1.64456,0,0,1,.95626.31633,1.06785,1.06785,0,0,1,.268.2784.69285.69285,0,0,1,.11.27568.49127.49127,0,0,1-.12633.41858.65749.65749,0,0,1-.22975.162,1.15721,1.15721,0,0,1-.52887.09357,1.66225,1.66225,0,0,1-.77583-.22778,1.25387,1.25387,0,0,1-.32358-.266.7678.7678,0,0,1-.18054-.34787.49013.49013,0,0,1,.12418-.44927.75821.75821,0,0,1,.36722-.21014A1.33337,1.33337,0,0,1,16.25532,17.98151Z"/>
    <path class="cls-15" d="M23.2624,19.52837a1.23266,1.23266,0,0,1-.47576-.09479.69052.69052,0,0,1-.202-.1323.49878.49878,0,0,1-.1439-.51024.76142.76142,0,0,1,.1635-.30368,1.33488,1.33488,0,0,1,.47032-.34936,1.63245,1.63245,0,0,1,.68051-.15569,1.17413,1.17413,0,0,1,.43621.07237.76512.76512,0,0,1,.22335.12814.50788.50788,0,0,1,.161.56948.81193.81193,0,0,1-.15612.27185,1.19213,1.19213,0,0,1-.24.21576A1.67433,1.67433,0,0,1,23.2624,19.52837Z"/>
    <path class="cls-2" d="M18.21622,20.97233c.04374.05459.08772.109.13114.16385a.39583.39583,0,0,1,.05507.0986.02034.02034,0,0,1-.01154.027.131.131,0,0,1-.15118-.01323c-.01976-.01835-.04148-.03456-.062-.05211a2.78133,2.78133,0,0,0-.53232-.35224,3.61359,3.61359,0,0,0-.4065-.18012,2.19759,2.19759,0,0,0-.64584-.13741,1.17354,1.17354,0,0,0-.18558.01064,1.65473,1.65473,0,0,0-.59033.18571c-.1775.09151-.3514.18955-.52268.29222a1.28772,1.28772,0,0,0-.18619.14267.37261.37261,0,0,1-.16456.09888.2859.2859,0,0,1-.04739.00893,2.67442,2.67442,0,0,1-.35621-.0029,2.97779,2.97779,0,0,1-.39951-.06016,4.4386,4.4386,0,0,1-.42713-.12245.157.157,0,0,1-.10735-.09071.04626.04626,0,0,1-.00408-.02338.02754.02754,0,0,1,.01277-.01808.07288.07288,0,0,1,.03128-.00554,3.36351,3.36351,0,0,0,.35531-.02272,3.02419,3.02419,0,0,0,.4001-.05822.303.303,0,0,0,.14081-.07514c.02419-.02147.02158-.03479-.0076-.04433-.04863-.01591-.09811-.02962-.1457-.04819a.81814.81814,0,0,1-.34259-.23687.27871.27871,0,0,1-.02016-.02514.02032.02032,0,0,1-.0019-.01511c.00271-.00908.01134-.01.0192-.009a.398.398,0,0,1,.03973.00691c.139.03262.277.071.41728.09637a1.27139,1.27139,0,0,0,.29751.02717.63.63,0,0,0,.33744-.12232c.0214-.01533.02062-.02663-.0013-.04342-.01072-.0082-.02171-.01609-.033-.02344a1.47335,1.47335,0,0,1-.30206-.2798.05805.05805,0,0,1-.01331-.02.02717.02717,0,0,1,.0024-.02174.02477.02477,0,0,1,.02118-.00689.4073.4073,0,0,1,.05243.02092q.103.04692.20582.09446a1.422,1.422,0,0,0,.29111.09689.29908.29908,0,0,0,.15973-.00382c.082-.0267.16415-.0528.24558-.08107a2.06114,2.06114,0,0,1,.31026-.08954.66669.66669,0,0,1,.08815-.01014,2.13109,2.13109,0,0,1,.45851.039,3.12485,3.12485,0,0,1,.5002.12817,3.09014,3.09014,0,0,1,.99026.57038c.05131.04352.09715.09358.14457.14156.01692.01712.00976.03059-.02066.0432C18.22881,20.96928,18.22142,20.95887,18.21622,20.97233Z"/>
    <path class="cls-2" d="M21.86328,20.96547c-.02677,0-.0405-.01255-.029-.02712a.98823.98823,0,0,1,.07351-.08591,2.35466,2.35466,0,0,1,.54572-.40183,3.45985,3.45985,0,0,1,.76157-.31134,3.01249,3.01249,0,0,1,.38-.07561,2.34776,2.34776,0,0,1,.29031-.01721.86769.86769,0,0,1,.2928.05351c.12233.04183.245.08269.36675.12614a.33739.33739,0,0,0,.19113.00638,1.5781,1.5781,0,0,0,.32-.11168c.06607-.03051.13152-.06235.19747-.09313.00868-.004.01954-.01349.02776-.00014.0064.01039-.00052.01985-.00574.02942a.61668.61668,0,0,1-.12624.157,1.526,1.526,0,0,1-.16354.13241.15815.15815,0,0,0-.05764.05044.6256.6256,0,0,0,.3608.1401,2.25823,2.25823,0,0,0,.72072-.12987c.0136-.005.02906-.02243.04378-.00666.01717.01839.00022.03464-.00933.05019a.409.409,0,0,1-.14.13231,1.35412,1.35412,0,0,1-.24746.119c-.02276.00826-.04525.01739-.06737.02723-.01913.00851-.05067.00682-.05449.02815-.00543.03034.02693.04227.04731.05891a.32442.32442,0,0,0,.15821.05667c.11159.0192.22382.03618.33644.04751s.22609.01467.33919.02142c.00808.00048.01622-.00006.0243.00032.04926.00232.06294.02632.03782.0672a.13874.13874,0,0,1-.05367.04793.79811.79811,0,0,1-.11178.04653,2.78261,2.78261,0,0,1-.52537.12689,4.42589,4.42589,0,0,1-.46771.03115c-.035.0019-.07019.00181-.1052.004a.23122.23122,0,0,1-.165-.0535c-.05465-.044-.10842-.08919-.16411-.13185a3.03127,3.03127,0,0,0-1.00638-.50519,1.27123,1.27123,0,0,0-.52861-.0381,2.59926,2.59926,0,0,0-.6502.18655,3.01615,3.01615,0,0,0-.609.334,2.42785,2.42785,0,0,0-.2094.16583c-.018.01623-.03688.03163-.056.04652a.04373.04373,0,0,1-.0455.00784.15172.15172,0,0,0-.04676-.01083c-.05256-.00429-.05338-.00664-.03155-.05763a.56524.56524,0,0,1,.09358-.141c.02267-.02672.04665-.05232.07-.07842C21.87125,20.98131,21.87384,20.9728,21.86328,20.96547Z"/>
    <path class="cls-16" d="M16.64787,19.8557a2.45161,2.45161,0,0,0-.28008.02385c-.09828.01553-.1975.0257-.29567.04291a.05878.05878,0,0,1-.03094-.00518.01206.01206,0,0,1-.00292-.01975.07056.07056,0,0,1,.02624-.01715,2.39689,2.39689,0,0,1,.45362-.11274,1.74949,1.74949,0,0,1,.3632-.01,1.85576,1.85576,0,0,1,.64294.17734,1.96239,1.96239,0,0,1,.80154.69813c.00749.01117.01511.02234.02146.03416a.0297.0297,0,0,1-.00582.03692.024.024,0,0,1-.036.00084c-.02741-.02587-.05372-.053-.07937-.08061-.06057-.06524-.11831-.13327-.18113-.19624a1.98093,1.98093,0,0,0-.564-.40114A1.84758,1.84758,0,0,0,16.64787,19.8557Z"/>
    <path class="cls-16" d="M23.43108,19.85263a1.83767,1.83767,0,0,0-1.11609.34569,2.25249,2.25249,0,0,0-.4031.37262c-.03328.03888-.06913.07563-.105.11216a.14519.14519,0,0,1-.03966.02685.02479.02479,0,0,1-.02127-.0056.02575.02575,0,0,1-.00858-.02063.13108.13108,0,0,1,.01747-.03568,1.99968,1.99968,0,0,1,.70873-.66147,1.72978,1.72978,0,0,1,.4887-.18771,1.76228,1.76228,0,0,1,.99405.05755.86088.86088,0,0,1,.08118.03574.02509.02509,0,0,1,.01314.01787c-.00083.01552-.0155.012-.0242.01074-.10108-.0151-.20169-.034-.30312-.046C23.61967,19.86368,23.52519,19.85973,23.43108,19.85263Z"/>
    <path class="cls-17" d="M21.86328,20.96547a.04729.04729,0,0,1,.00985-.01149c.0067-.004.0152-.00624.01923.00328l-.00263.01391a.232.232,0,0,1-.02425.01893Z"/>
    <path class="cls-18" d="M18.21622,20.97233l-.00768-.00943.0108-.00413a.09067.09067,0,0,1,.016.01181Z"/>
    <path class="cls-19" d="M27.32554,11.55609a.29424.29424,0,0,1,.10532.14957,1.31846,1.31846,0,0,1,.07431.29731,3.33607,3.33607,0,0,1,.01576.46847c.00126.06476-.00041.12958-.00083.19438a.42505.42505,0,0,1-.01119.12049.138.138,0,0,0-.0039.04016,2.93887,2.93887,0,0,1-.03668.38564c-.0288.235-.06581.46892-.10674.70228-.05353.30515-.11134.6093-.17632.91225-.05821.27139-.11651.54273-.17938.81309-.0299.1286-.05643.258-.08519.38683-.00506.02265-.01357.04453-.02214.07209a.39085.39085,0,0,1-.07045-.09587c-.11149-.17854-.2272-.35422-.35052-.52481-.079-.10922-.1579-.21852-.23953-.32575-.05707-.075-.11752-.14749-.17853-.21936-.09585-.11292-.1897-.2279-.2913-.33549a3.49867,3.49867,0,0,0-.33559-.32783.5638.5638,0,0,1-.04167-.03838,3.6021,3.6021,0,0,0-.31291-.268c-.02961-.02328-.05755-.04869-.08627-.07313a.13732.13732,0,0,1,.04074-.09419,18.58682,18.58682,0,0,1,1.22194-1.4996,5.87686,5.87686,0,0,1,.53762-.51416,1.79046,1.79046,0,0,1,.2122-.14842A.42437.42437,0,0,1,27.32554,11.55609Z"/>
    <path class="cls-19" d="M15.02476,13.89023l-.31176.257-.01215.0107c-.13768.13314-.287.25475-.4131.39914-.07269.08322-.14914.163-.22179.24623-.16326.18712-.31671.38169-.46239.58233-.13155.18118-.25813.366-.37585.55666q-.04464.0723-.0903.144a.01773.01773,0,0,1-.01326.0069.01539.01539,0,0,1-.01144-.00826.53564.53564,0,0,1-.0159-.05427q-.04815-.21291-.09557-.426c-.04936-.22371-.09935-.4473-.1468-.67141q-.06363-.30053-.122-.60213c-.03269-.16922-.06214-.33907-.092-.50883-.02095-.1193-.04195-.23865-.05952-.35848-.01484-.10114-.02464-.203-.03692-.30455-.00937-.07743-.01931-.15479-.02859-.23223-.00192-.016-.00253-.03229-.00292-.04846a.65.65,0,0,0-.01227-.14483.30687.30687,0,0,1-.00382-.07256q-.00075-.22277-.0008-.44555a1.58579,1.58579,0,0,1,.05121-.39162.6527.6527,0,0,1,.10074-.2282.108.108,0,0,1,.07549-.05579,1.05969,1.05969,0,0,1,.62307.3472,11.29378,11.29378,0,0,1,1.36,1.53981c.0934.11893.18245.24129.27268.3627A.151.151,0,0,1,15.02476,13.89023Z"/>
    <path class="cls-20" d="M17.16659,13.53014a3.62844,3.62844,0,0,1,.91414.54508,3.70011,3.70011,0,0,1,.78563.87584.19994.19994,0,0,1,.03415.10563c.00257.09159.00888.18307.01179.27465.00131.04127-.00206.04492-.04371.05353a1.28556,1.28556,0,0,1-.2162.02772c-.07278.00247-.14566.00218-.21849.00218a1.99393,1.99393,0,0,1-.53426-.0789,2.06988,2.06988,0,0,1-.98715-.60487.86291.86291,0,0,0-.10254-.114.24737.24737,0,0,0-.04449-.06711,2.18944,2.18944,0,0,1-.39031-.89856c-.01621-.08736-.02315-.17651-.03262-.265-.00384-.03588.00337-.04438.03766-.048.10732-.01125.21468-.02248.32222-.03121.06992-.00569.14017-.00917.21032-.00993a3.17987,3.17987,0,0,1,1.1.15882,2.12324,2.12324,0,0,1,.64749.36086c.023.0188.04678.03653.07017.05476a2.05583,2.05583,0,0,0,.06144.34136c.0194.11116.03842.22238.05888.341-.03332-.0089-.04237-.03245-.05507-.04972a2.42057,2.42057,0,0,0-.264-.30574,2.58728,2.58728,0,0,0-.86843-.55088,3.09945,3.09945,0,0,0-.41761-.12583.43745.43745,0,0,0-.048-.00609C17.18369,13.513,17.16273,13.4949,17.16659,13.53014Z"/>
    <path class="cls-20" d="M23.20779,14.617c-.0152.01516-.03177.02917-.04539.04563a2.02242,2.02242,0,0,1-.61628.50377,2.21174,2.21174,0,0,1-.6247.21527,2.45556,2.45556,0,0,1-.58829.029,1.59042,1.59042,0,0,1-.19181-.02761c-.03171-.00555-.03639-.01316-.03693-.0428-.00049-.02695.00025-.054.00157-.0809.00318-.06461.00877-.12915.01-.19378a.22157.22157,0,0,1,.03878-.12064,3.751,3.751,0,0,1,.7131-.8118,3.703,3.703,0,0,1,.78282-.51324c.06533-.032.13274-.0598.1992-.08953.00368-.00806.01308-.00947.0183-.01573a.05533.05533,0,0,0-.04929.00123,1.67214,1.67214,0,0,0-.3056.07616,2.61857,2.61857,0,0,0-.94543.53188,2.58091,2.58091,0,0,0-.35243.38919c-.01079.01438-.01539.03549-.04012.04053-.00977-.02406.00537-.04606.00632-.06871a.60352.60352,0,0,1,.00875-.07223c.01974-.11975.04083-.23923.0718-.35675a1.04211,1.04211,0,0,0,.025-.18407c.04033-.03169.08033-.0638.121-.095a2.2278,2.2278,0,0,1,.89224-.40459,3.50988,3.50988,0,0,1,.56133-.071c.16517-.00924.32928.00094.49363.00808.09146.004.18254.01766.27366.0282.04466.00517.05005.0117.04648.05684a2.18978,2.18978,0,0,1-.428,1.1619C23.23316,14.57576,23.221,14.59675,23.20779,14.617Z"/>
    <path class="cls-21" d="M27.32554,11.55609a.08107.08107,0,0,1-.06071.016.44913.44913,0,0,0-.20582.06417,2.49542,2.49542,0,0,0-.31691.22223l-.01231.01048a4.95117,4.95117,0,0,0-.36643.35276c-.07557.09154-.16964.1658-.23677.26434a.17351.17351,0,0,1-.02212.02356,2.79049,2.79049,0,0,0-.20113.231c-.05734.07114-.11839.1393-.17533.21074-.0804.10088-.16516.19814-.24214.30191-.09452.12739-.19423.25091-.29078.37682-.05892.07685-.11589.15519-.17432.23242a.235.235,0,0,1-.029.02741c-.046-.033-.09251-.0652-.13772-.09918-.02277-.01713-.02381-.033-.00579-.05516.07638-.09414.15329-.18784.22985-.28183.05954-.0731.11852-.14664.17834-.21951.03589-.04372.07215-.08719.10956-.1296.09446-.10709.19331-.21055.2835-.32109.08033-.09846.17569-.18242.25586-.281.05086-.06251.11337-.11544.16938-.17388a5.94315,5.94315,0,0,1,.492-.45624,2.09626,2.09626,0,0,1,.4278-.28938.67051.67051,0,0,1,.16864-.05509A.19478.19478,0,0,1,27.32554,11.55609Z"/>
    <path class="cls-21" d="M15.02476,13.89023a1.12953,1.12953,0,0,1-.13024-.16343c-.119-.15289-.22977-.312-.35423-.46083-.07069-.08454-.13406-.17516-.20332-.26095-.06586-.08159-.13531-.16028-.20277-.2406-.04668-.05556-.09267-.11171-.13894-.16761l-.01016-.01257c-.07356-.06767-.134-.1475-.20084-.22124-.09962-.11-.2008-.21825-.30834-.3201a3.36584,3.36584,0,0,0-.41476-.3462.929.929,0,0,0-.222-.11474.2151.2151,0,0,0-.06346-.01035.058.058,0,0,1-.05265-.03168.21587.21587,0,0,1,.14227-.00965.8424.8424,0,0,1,.281.12,2.965,2.965,0,0,1,.33678.25028c.22249.18442.42208.39238.6253.59674.07585.10187.17553.18208.25438.28162.055.0695.11916.13172.17771.19853q.10908.12445.2155.25125c.0692.08241.13715.16588.205.2494s.13541.16736.20227.25172c.025.03157.02367.04335-.00723.06646C15.113,13.8285,15.0686,13.859,15.02476,13.89023Z"/>
    <path class="cls-22" d="M22.81885,13.51593a.10629.10629,0,0,1,.07855-.00789c-.01155.017-.03054.01759-.04755.02239Z"/>
    <path class="cls-23" d="M17.16659,13.53014a.24193.24193,0,0,1-.02926-.01166l-.00644-.01288.00653-.00356a.07242.07242,0,0,1,.06011.01369Z"/>
    <path class="cls-2" d="M20.00787,26.01705a.23046.23046,0,0,0-.01648.02211,1.05545,1.05545,0,0,1-.5.44381,1.65112,1.65112,0,0,1-.46486.133,2.1468,2.1468,0,0,1-.97522-.08406,1.5058,1.5058,0,0,1-.288-.12728c-.021-.01213-.04185-.0247-.06211-.03805a.1725.1725,0,0,1,.01144-.28687.14307.14307,0,0,1,.132-.00973.21906.21906,0,0,1,.03562.019,1.53479,1.53479,0,0,0,.51456.18543,1.94434,1.94434,0,0,0,.508.02828,1.28527,1.28527,0,0,0,.44607-.10737.82646.82646,0,0,0,.2168-.13974.6379.6379,0,0,0,.20489-.38542,1.2583,1.2583,0,0,0,.01566-.20158c-.00159-.22144-.00059-.44289-.0006-.66434,0-.01891.00045-.03783-.0003-.05671-.00115-.02912-.00767-.03642-.03732-.04276-.01053-.00226-.02144-.00273-.032-.00474a1.65309,1.65309,0,0,1-.613-.24164,1.17164,1.17164,0,0,1-.339-.33222.84694.84694,0,0,1-.14548-.52089.58227.58227,0,0,1,.22917-.44595.97878.97878,0,0,1,.30794-.15822,2.2097,2.2097,0,0,1,.403-.08558c.09392-.01241.18824-.01784.28249-.02259a3.24967,3.24967,0,0,1,.90092.07381,1.24857,1.24857,0,0,1,.252.08645,1.06039,1.06039,0,0,1,.10665.05774.59988.59988,0,0,1,.29987.56345.879.879,0,0,1-.222.5523,1.32,1.32,0,0,1-.46516.34376,1.67992,1.67992,0,0,1-.42369.13114.25463.25463,0,0,0-.03166.0064.03056.03056,0,0,0-.02365.029l-.00071.03239c0,.25116-.00072.50232.00039.75347a.8551.8551,0,0,0,.03161.232.652.652,0,0,0,.28078.37357.99384.99384,0,0,0,.35052.14174,1.874,1.874,0,0,0,1.05048-.08708,1.00887,1.00887,0,0,0,.17432-.08495.33124.33124,0,0,1,.0496-.0272.14178.14178,0,0,1,.15782.027.172.172,0,0,1-.01721.27229,1.56817,1.56817,0,0,1-.38176.17385,2.15883,2.15883,0,0,1-.87272.08143,1.69239,1.69239,0,0,1-.49219-.12521,1.07737,1.07737,0,0,1-.542-.46632A.13069.13069,0,0,0,20.00787,26.01705Z"/>
    <path class="cls-24" d="M11.83151,23.7717c0-.04861.00043-.09723-.00017-.14583a.127.127,0,0,1,.02156-.07625c.02268-.03343.04041-.07028.06376-.10318a.31264.31264,0,0,1,.12029-.1057c.02416-.01147.04526-.02928.06923-.04124a.68222.68222,0,0,1,.17594-.075c.01847-.00345.03659-.009.05473-.014a.19087.19087,0,0,1,.04647-.01359,1.51929,1.51929,0,0,1,.26524-.01853,2.46566,2.46566,0,0,1,.32813.03973,1.08847,1.08847,0,0,1,.18557.05081.48532.48532,0,0,0,.09368.02331,2.36814,2.36814,0,0,1,.26155.107.80361.80361,0,0,1,.15362.06919c.06457.04358.13763.07223.20154.1176.06369.04521.13146.08468.19746.12664a4.007,4.007,0,0,1,.32027.24559,2.316,2.316,0,0,0,.18442.157.10594.10594,0,0,1,.03357.03464.43767.43767,0,0,0,.09089.10279c.071.06305.12344.14267.19063.209a.14679.14679,0,0,1,.0267.0402.37273.37273,0,0,0,.05266.07121.53214.53214,0,0,1,.115.16383.09154.09154,0,0,0,.02106.03421.25077.25077,0,0,1,.06874.108.07944.07944,0,0,0,.02256.03292.2976.2976,0,0,1,.06984.11716.1377.1377,0,0,0,.01509.03735.42268.42268,0,0,1,.06434.1979.59175.59175,0,0,0,.02205.10235.26351.26351,0,0,1,.00848.14385c-.01685.08708-.03793.17335-.05738.25993-.00294.01313-.00232.03077-.01062.03837-.053.04853-.06713.12115-.11374.17491a.89823.89823,0,0,1-.15483.1521.62738.62738,0,0,1-.119.06742,1.18682,1.18682,0,0,1-.33625.07949A.4058.4058,0,0,1,14.473,26.27a.62745.62745,0,0,1-.19714-.03784.11465.11465,0,0,0-.03932-.00809.37775.37775,0,0,1-.17337-.06016c-.03046-.02081-.072-.02109-.101-.0472a.34991.34991,0,0,1-.1423-.07205,3.19364,3.19364,0,0,1-.40154-.28374.335.335,0,0,0-.03926-.02836.74952.74952,0,0,1-.16054-.12149c-.0271-.02988-.06875-.0406-.09987-.06791-.089-.07811-.178-.15643-.26792-.23325-.08654-.0739-.164-.15616-.24622-.23389a.65183.65183,0,0,0-.085-.07451.707.707,0,0,1-.09536-.09726c-.05531-.05458-.10214-.1178-.15191-.1779a.38693.38693,0,0,1-.02645-.04053.135.135,0,0,0-.02166-.03383.78559.78559,0,0,1-.15575-.204.5837.5837,0,0,1-.05573-.07895c-.02146-.05251-.05535-.09774-.07883-.14822-.02366-.05086-.0453-.103-.0671-.15481a.39167.39167,0,0,1-.03581-.18907c.00317-.03482.00056-.07016.00056-.10527Z"/>
    <path class="cls-24" d="M24.684,25.20259a.12682.12682,0,0,1,.01377-.054,2.88488,2.88488,0,0,1,.13874-.26242c.05413-.08966.11252-.17628.17076-.26287.04785-.07116.107-.1346.15893-.20318.06376-.08424.146-.1514.21331-.23152a3.11765,3.11765,0,0,1,.28458-.26133,1.85241,1.85241,0,0,1,.3396-.24488c.06513-.03749.12261-.08828.18779-.12568a1.54809,1.54809,0,0,1,.27125-.1394,1.41083,1.41083,0,0,0,.16935-.07613.1566.1566,0,0,1,.06071-.01956.05112.05112,0,0,0,.02353-.00495,1.513,1.513,0,0,1,.19716-.06935.23182.23182,0,0,1,.10191-.02268.1583.1583,0,0,0,.04772-.0069.56407.56407,0,0,1,.19133-.02551.14174.14174,0,0,0,.04787-.00589.30218.30218,0,0,1,.14436-.00726c.07423.01422.14967.01275.22384.02838a.76438.76438,0,0,1,.42954.25184.39413.39413,0,0,1,.08871.19483.82689.82689,0,0,1-.06158.46506c-.011.02709-.02629.0524-.03961.07853a3.21286,3.21286,0,0,1-.52482.72091,6.73209,6.73209,0,0,1-.57748.54081,7.42424,7.42424,0,0,1-.69673.5211c-.02123.02585-.05566.02968-.081.04862a.04016.04016,0,0,1-.04636.00574c-.02161-.056.02311-.07737.05641-.10062.11935-.08333.24263-.16056.35964-.24783a6.6282,6.6282,0,0,0,1.10189-1.009,3.39029,3.39029,0,0,0,.26661-.36609,1.21835,1.21835,0,0,0,.15611-.3799.487.487,0,0,0-.36518-.62506,1.1666,1.1666,0,0,0-.615-.02259,3.085,3.085,0,0,0-1.31943.63692,3.67368,3.67368,0,0,0-.62637.6066,2.309,2.309,0,0,0-.40907.666.68674.68674,0,0,0-.04077.36554c.00887.04588.02884.09487-.00233.14135-.01865.01513-.02992.00438-.03974-.01136h0A.92511.92511,0,0,1,24.684,25.20259Z"/>
    <path class="cls-25" d="M26.28849,25.98055a.41246.41246,0,0,1,.12289-.10244c.06518-.04764.13254-.09227.19824-.1392a1.07075,1.07075,0,0,0,.09539-.07414,1.578,1.578,0,0,1,.13548-.10164,1.12111,1.12111,0,0,0,.14108-.12033,1.10376,1.10376,0,0,1,.12792-.11069,1.59487,1.59487,0,0,0,.20063-.18626.50629.50629,0,0,1,.06-.05379.777.777,0,0,0,.15343-.15367.49729.49729,0,0,1,.05387-.06,2.38182,2.38182,0,0,0,.28348-.3405.44325.44325,0,0,1,.03565-.0437.44414.44414,0,0,0,.05877-.08661c.03573-.06317.07127-.12645.10792-.18908.00508-.00868.016-.01393.02424-.02077a.10369.10369,0,0,1-.024.07547.64121.64121,0,0,0-.07424.12417.43641.43641,0,0,1-.08765.12473.07033.07033,0,0,0-.01524.01876,1.643,1.643,0,0,1-.22819.29021c-.0742.08171-.147.16446-.22626.24149a3.82532,3.82532,0,0,1-.28275.26506c-.06514.05163-.128.10665-.18969.162-.06581.05907-.13627.11194-.20517.16642-.12013.095-.246.18277-.37047.27218A.219.219,0,0,1,26.28849,25.98055Z"/>
    <path class="cls-25" d="M26.15879,26.02917h.04867a.34667.34667,0,0,1-.13947.09336,1.08884,1.08884,0,0,1-.19252.08159,1.94425,1.94425,0,0,1-.31459.06872.29256.29256,0,0,0-.05559.00939.20608.20608,0,0,1-.08038.00529c-.07456-.01032-.14883-.02279-.223-.03546a.0803.0803,0,0,1-.04791-.0284l.008-.01066a.135.135,0,0,1,.10891-.00326,1.10268,1.10268,0,0,0,.63652-.074.146.146,0,0,0,.06441-.04654C26.02906,26.05348,26.07786,25.991,26.15879,26.02917Z"/>
    <path class="cls-25" d="M24.68392,25.68882l.03248.0162.00994.00627a.76309.76309,0,0,0,.38073.44992c.02509.01262.05931.02059.04694.06237l0,.00008a.11339.11339,0,0,1-.063-.01033c-.05179-.0338-.105-.065-.15581-.10082a.87651.87651,0,0,1-.24076-.32832A.21137.21137,0,0,1,24.68392,25.68882Z"/>
    <path class="cls-25" d="M24.684,25.20259a.86431.86431,0,0,1-.0103.12731.73149.73149,0,0,0,0,.23161.86169.86169,0,0,1,.01029.12731.38057.38057,0,0,1-.04508-.15956.46243.46243,0,0,1,.018-.23638C24.66964,25.26358,24.65933,25.22789,24.684,25.20259Z"/>
    <path class="cls-25" d="M26.20746,26.02917a.081.081,0,0,1,.081-.04862C26.28192,26.03082,26.24426,26.02928,26.20746,26.02917Z"/>
    <path class="cls-26" d="M12.6152,23.22794a.89552.89552,0,0,1,.32617.03511.16005.16005,0,0,0,.03924.00913.83749.83749,0,0,1,.22735.05331c.06473.01809.12765.04269.19129.06464a.052.052,0,0,1,.02161.01025.31072.31072,0,0,0,.12184.05981,2.00844,2.00844,0,0,1,.285.15009c.07249.04674.1483.089.21708.14065.10532.07908.2155.15149.31414.24016.05793.05208.11223.108.17166.15837.01434.01215.02969.02312.04445.0348a.12121.12121,0,0,1,.0308.02578c.04525.07471.12013.1234.16879.1955.02994.04437.07357.07791.10469.12281.05054.07291.11032.13951.15943.21328a1.6233,1.6233,0,0,1,.13272.21169c.01228.02651.03353.04891.04544.07553a1.11944,1.11944,0,0,1,.10251.32057.49021.49021,0,0,1-.00108.19159c-.00681.0255-.00028.05444-.00626.08032a.38076.38076,0,0,1-.036.11536.08133.08133,0,0,0-.01363.02919.434.434,0,0,1-.0882.17.60738.60738,0,0,1-.18652.176c-.00662.00456-.01525.00649-.02127.01161a.5689.5689,0,0,1-.2538.09582.58634.58634,0,0,1-.13687.00858.94061.94061,0,0,1-.38739-.06552c-.01953-.00868-.04069-.01368-.061-.02065a.67319.67319,0,0,1-.12577-.05407c-.0277-.01636-.058-.02833-.08726-.04205l-.01528-.00527c-.01218-.00575-.02824-.00891-.03548-.01856-.03908-.05209-.11088-.05505-.15188-.10343a.05246.05246,0,0,0-.0174-.01651,1.43973,1.43973,0,0,1-.16758-.11154.278.278,0,0,1-.0515-.03848.37135.37135,0,0,0-.07141-.05127.86409.86409,0,0,1-.1098-.08147c-.09515-.07481-.19072-.14913-.28457-.22555-.05838-.04754-.11537-.097-.17035-.14842-.05715-.05344-.111-.11034-.16652-.16556a.31936.31936,0,0,0-.06728-.05785.143.143,0,0,1-.0449-.04571.53187.53187,0,0,0-.04692-.05535.96.96,0,0,1-.11288-.12648c-.0236-.036-.065-.05578-.09067-.09171a.48013.48013,0,0,1-.05176-.07177.09645.09645,0,0,0-.02162-.03384.94366.94366,0,0,1-.12562-.16758,1.22829,1.22829,0,0,1-.15176-.25681,2.5184,2.5184,0,0,1-.09119-.26794.23425.23425,0,0,1-.004-.06434c-.00056-.02968.00245-.05965-.00061-.089a.36983.36983,0,0,1,.10833-.28548.58415.58415,0,0,1,.27741-.18584A.84348.84348,0,0,1,12.6152,23.22794Z"/>
    <path class="cls-26" d="M26.15879,26.02917a.37954.37954,0,0,0-.162.081,1.35574,1.35574,0,0,1-.559.13124.72968.72968,0,0,1-.72136-.53643h0c-.00708-.05058-.01133-.10177-.02193-.15162a.60664.60664,0,0,1,.00093-.20825,1.44334,1.44334,0,0,1,.10514-.32134c.04932-.06409.07725-.141.12688-.20556.05244-.0682.09686-.14254.14537-.2138a.91841.91841,0,0,1,.06185-.08483c.05282-.06111.10523-.12289.16223-.18.08182-.082.16176-.16571.24693-.24465a2.10008,2.10008,0,0,1,.21781-.17875c.046-.03245.087-.0721.1306-.108a.3638.3638,0,0,1,.05164-.03866c.0772-.04324.14716-.09771.22289-.14294.06906-.04125.14119-.07738.21218-.11539.03556-.01905.0717-.037.10737-.05587.04-.02113.08314-.03459.12212-.05976a.73443.73443,0,0,1,.09775-.03367,1.26708,1.26708,0,0,1,.1537-.0486.42356.42356,0,0,0,.08479-.02634.07265.07265,0,0,1,.03051-.01,1.97113,1.97113,0,0,0,.25378-.04779.40728.40728,0,0,1,.05647-.00364c.0297-.00058.05957.0018.08909-.00053a1.029,1.029,0,0,1,.37475.04931.26679.26679,0,0,1,.03835.01248.84258.84258,0,0,1,.24026.162.42124.42124,0,0,1,.12269.27383.54225.54225,0,0,1-.05237.31456.06655.06655,0,0,0-.0082.02264.75717.75717,0,0,1-.14854.31,1.87336,1.87336,0,0,1-.10779.16119.79388.79388,0,0,1-.05184.06182.09856.09856,0,0,0-.02153.024.818.818,0,0,1-.11275.14679,1.29291,1.29291,0,0,1-.10244.11423c-.06467.06518-.13045.12928-.19456.195-.10174.10432-.2119.199-.32264.29353-.049.04184-.10066.08113-.14691.12646a.37976.37976,0,0,1-.05093.03955,1.73106,1.73106,0,0,0-.17712.14042l-.00588.00555c-.08873.05117-.15935.12915-.2488.17689-.06236.03328-.1137.0817-.17736.11173A.145.145,0,0,0,26.15879,26.02917Z"/>
    <path class="cls-24" d="M24.71637,25.705a.16939.16939,0,0,1,.0261.03986.86606.86606,0,0,0,.15218.25493.51307.51307,0,0,0,.12845.10832.668.668,0,0,0,.40332.11571c.043-.00117.08606-.00047.12909-.00012a.54952.54952,0,0,0,.18864-.03524c.0732-.02589.14694-.05029.22068-.07464a.15425.15425,0,0,1,.03193-.00363.30509.30509,0,0,1-.14773.07687,2.077,2.077,0,0,1-.2811.06469.76525.76525,0,0,1-.3027-.01661.422.422,0,0,0-.11122-.01158.08573.08573,0,0,0-.04307-.03391.80765.80765,0,0,1-.22828-.16295.927.927,0,0,1-.1594-.25A.17961.17961,0,0,1,24.71637,25.705Z"/>
  </g>
</svg>
