<?xml version="1.0" encoding="utf-8"?>
<!-- Generator: Adobe Illustrator 22.0.0, SVG Export Plug-In . SVG Version: 6.00 Build 0)  -->
<svg version="1.1" id="Layer_1" xmlns="http://www.w3.org/2000/svg" xmlns:xlink="http://www.w3.org/1999/xlink" x="0px" y="0px"
	 viewBox="0 0 1024 1024" style="enable-background:new 0 0 1024 1024;" xml:space="preserve">
<style type="text/css">
	.st0{fill:url(#SVGID_1_);}
	.st1{fill:#FFFFFF;}
</style>
<linearGradient id="SVGID_1_" gradientUnits="userSpaceOnUse" x1="3.448076e-08" y1="3.448076e-08" x2="1024" y2="1024">
	<stop  offset="0" style="stop-color:#7587E9"/>
	<stop  offset="0.3419" style="stop-color:#6896EB"/>
	<stop  offset="0.9962" style="stop-color:#45BDF0"/>
	<stop  offset="1" style="stop-color:#45BDF0"/>
</linearGradient>
<rect x="0" class="st0" width="1024" height="1024"/>
<g>
	<g id="Layer_1_1_">
		<path class="st1" d="M258.6,439.7c7.5,16.1,26.2,47.9,26.2,47.9l214.8-355.2L289.8,278.6c-12.5,8.2-22.6,19.7-29.8,32.8
			C240.6,351.8,240.3,398.7,258.6,439.7z"/>
		<path class="st1" d="M173.4,556.4c4.9,68.9,39,132.2,93.8,173.8L499.1,892c0,0-145-209.3-267.7-417.2
			c-12.5-22-20.7-45.9-24.6-70.9c-1.6-11.2-1.6-22.6,0-34.1c-3.3,5.9-9.5,18-9.5,18c-12.5,25.3-21,52.5-24.9,80.4
			C170.4,497.4,170.4,527.3,173.4,556.4z"/>
		<path class="st1" d="M765.1,584.7c-7.5-16.1-26.2-47.9-26.2-47.9L524,892l209.6-146.3c12.5-8.2,22.6-19.7,29.8-32.8
			C783.1,672.2,783.5,625.3,765.1,584.7z"/>
		<path class="st1" d="M850.4,467.6c-4.9-68.9-39-132.2-93.8-173.8L524.7,132c0,0,145,209.3,267.7,417.2
			c12.5,22,20.7,45.9,24.6,70.9c1.6,11.2,1.6,22.6,0,34.1c3.3-5.9,9.5-18,9.5-18c12.5-25.3,21-52.5,24.9-80.4
			C853.3,526.6,853.3,497.1,850.4,467.6z"/>
		<path class="st1" d="M259.9,311.4c7.2-13.1,17.4-24.6,29.8-32.8l209.6-146.3L284.6,487.6c0,0-18.7-31.8-26.2-47.9
			C239.9,398.7,240.6,351.8,259.9,311.4z M173.4,556.4c4.9,68.9,39,132.2,93.8,173.8L499.1,892c0,0-145-209.3-267.7-417.2
			c-12.5-22-20.7-45.9-24.6-70.9c-1.6-11.2-1.6-22.6,0-34.1c-3.3,5.9-9.5,18-9.5,18c-12.5,25.3-21,52.5-24.9,80.4
			C170.4,497.4,170.4,527.3,173.4,556.4z M764.8,584.7c-7.5-16.1-26.2-47.9-26.2-47.9L524,892l209.6-146.3
			c12.5-8.2,22.6-19.7,29.8-32.8C782.8,672.6,783.5,625.7,764.8,584.7L764.8,584.7z M850,467.9c-4.9-68.9-39-132.2-93.8-173.8
			L524.7,132.3c0,0,145,209.3,267.7,417.2c12.5,22,20.7,45.9,24.6,70.9c1.6,11.2,1.6,22.6,0,34.1c3.3-5.9,9.5-18,9.5-18
			c12.5-25.3,21-52.5,24.9-80.4c2.3-29.5,2.3-59-0.7-88.6L850,467.9z"/>
	</g>
</g>
</svg>
