<?xml version="1.0" encoding="utf-8"?>
<!-- Generator: Adobe Illustrator 22.0.0, SVG Export Plug-In . SVG Version: 6.00 Build 0)  -->
<svg version="1.1" id="Layer_1" xmlns="http://www.w3.org/2000/svg" xmlns:xlink="http://www.w3.org/1999/xlink" x="0px" y="0px"
	 viewBox="0 0 500 500" enable-background="new 0 0 500 500" xml:space="preserve">
<rect fill="#151936" width="500" height="500"/>
<g>
	<path fill="#F9F9F9" d="M202.5,196.4c12.1,11,23.8,21.7,39,35.6c-5.8,4.3-11.8,7.8-16.5,12.4c-13.5,13.2-12.9,33.3,0.9,47.1
		c14.4,14.4,36.9,14.5,51.1,0.3c13.9-13.9,14.8-34.2,1.1-47c-30.2-28.3-60.9-56.1-91.4-84c-10.6-9.7-22.6-12.3-35.8-6.7
		c-13.5,5.8-21,16.4-21.3,31.2c-0.4,18.1-0.1,36.2-0.1,54.3c0.2,49.2,0.4,98.3,0.6,147.5c0,4.2,0,8.4,0,12.5
		c-23.6,1.8-43.2-12.1-48.3-33.6C80.5,360.1,80,354,80,348c-0.1-53-0.4-106.1,0-159.1c0.3-44.4,24.7-76.5,65.6-86.2
		c25.3-6.1,49.6-2.1,69.2,15.5c36.5,32.9,72.5,66.4,107.5,100.9c21.2,20.9,20.3,68.5,0.4,96.6c-25.8,36.3-69.8,48.6-108.5,30.2
		c-38-18.1-58.4-64.9-46.3-106.1C173.4,220.7,187.9,209.2,202.5,196.4z"/>
	<path fill="#4AA5D7" d="M367.1,398.9c0-4.2,0-8.9,0-13.5c0.2-64.3,0.1-128.5,0.9-192.8c0.2-18-5.2-31.4-22-38.5
		c-16.6-7-30.2-0.9-41.9,11.3c-3,3.1-6.3,5.8-10.8,9.9c-12.3-10.9-24.3-21.6-36.2-32.1c20.7-33.7,60.4-49.5,98.1-39.9
		c38.9,9.8,64.2,40.8,64.9,84.5c0.8,56-0.7,112.1-1.4,168.2C418.2,383.4,388.5,405.3,367.1,398.9z"/>
</g>
</svg>
