<?xml version="1.0" encoding="utf-8"?>
<!-- Generator: Adobe Illustrator 22.0.0, SVG Export Plug-In . SVG Version: 6.00 Build 0)  -->
<svg version="1.1" id="Layer_1" xmlns="http://www.w3.org/2000/svg" xmlns:xlink="http://www.w3.org/1999/xlink" x="0px" y="0px"
	 viewBox="0 0 40 40" style="enable-background:new 0 0 40 40;" xml:space="preserve">
<style type="text/css">
	.st0{fill:url(#SVGID_1_);}
	.st1{fill:#FF1100;}
	.st2{fill:#FDBF41;}
	.st3{fill:#F1ECE2;}
	.st4{fill:#007FFF;}
	.st5{opacity:0.48;fill:url(#SVGID_2_);enable-background:new    ;}
</style>
<linearGradient id="SVGID_1_" gradientUnits="userSpaceOnUse" x1="1067.4169" y1="-3085.1785" x2="1104.7087" y2="-3085.1785" gradientTransform="matrix(0 1 -1 0 -3065.1785 -1066.0419)">
	<stop  offset="1.198744e-03" style="stop-color:#007FFF"/>
	<stop  offset="0.5359" style="stop-color:#E1B967"/>
	<stop  offset="1" style="stop-color:#CC2B2E"/>
</linearGradient>
<path class="st0" d="M37,26.3V13.7c0-2.1-1.1-4.1-3-5.2L23,2.2c-1.9-1.1-4.1-1.1-6,0L6,8.5c-1.9,1.1-3,3.1-3,5.2v12.6
	c0,2.1,1.1,4.1,3,5.2l11,6.3c1.9,1.1,4.1,1.1,6,0l11-6.3C35.8,30.4,37,28.5,37,26.3z"/>
<g>
	<path class="st1" d="M21.2,25.6c-3.5,0-6.3-0.4-8.3-1.1c-0.4-0.1-1.3-0.5-1.6-1c-0.2-0.3-0.2-1-0.1-1.7c0,0,0,0.1,0.1,0.1
		c0.3,0.5,1.2,0.9,1.6,1c2.1,0.7,4.8,1.1,8.4,1.1c4-0.1,6.4-0.5,7.9-1.1c0,0,0,0,0,0c-0.1,0.9-0.1,1.8-2.5,2.2
		C25.3,25.4,23.5,25.5,21.2,25.6z"/>
	<path class="st2" d="M21.2,26.8c-3.5,0-6.3-0.4-8.3-1.1c-0.4-0.1-1.3-0.5-1.6-1c-0.2-0.3-0.2-1-0.1-1.7c0,0,0,0.1,0.1,0.1
		c0.3,0.5,1.2,0.9,1.6,1c2.1,0.7,4.8,1.1,8.4,1.1c4-0.1,6.4-0.5,7.9-1.1c0,0,0,0,0,0C29,25.1,29,26,26.6,26.4
		C25.3,26.7,23.5,26.8,21.2,26.8z"/>
	<path class="st3" d="M30,25.5c0,0.8-1.8,2.5-9.6,2.6c-3.5,0-6.3-0.4-8.3-1.1c-0.4-0.1-1.3-0.5-1.6-1c-0.2-0.3-0.2-1-0.1-1.7
		c0,0,0,0.1,0.1,0.1c0.3,0.5,1.2,0.9,1.6,1c2.1,0.7,4.8,1.1,8.4,1.1c6.2-0.1,8.6-1.2,9.4-2L30,25.5z"/>
	<path class="st1" d="M20.7,10.4c1.4,0.5,3.5,3.3,0.6,10.5c-1.4,3.3-3.3,5.5-5.3,7c-0.4,0.3-1.4,0.8-2.4,0.8c-0.4,0-1.1-0.3-1.9-0.6
		c0.2,0,0.4,0.1,0.5,0.1c1,0.1,2-0.5,2.4-0.8c2-1.5,3.9-3.7,5.3-7.1c2.4-6,1.4-9,0.2-10.1L20.7,10.4z"/>
	<path class="st2" d="M21.9,10.5c1.4,0.5,3.5,3.4,0.6,10.8c-1.4,3.4-3.3,5.7-5.3,7.2c-0.4,0.3-1.4,0.9-2.4,0.8
		c-0.4,0-1.1-0.3-1.9-0.6c0.2,0,0.4,0.1,0.5,0.1c1,0.1,2-0.5,2.4-0.8c2-1.5,3.9-3.8,5.3-7.3c2.4-6.2,1.4-9.3,0.2-10.4L21.9,10.5z"/>
	<path class="st3" d="M23,11.2c1.4,0.5,3.5,3.4,0.6,10.8c-1.4,3.4-3.3,5.7-5.3,7.2c-0.4,0.3-1.4,0.9-2.4,0.8c-0.4,0-1.1-0.3-1.9-0.6
		c0.2,0,0.4,0.1,0.5,0.1c1,0.1,2-0.5,2.4-0.8c2-1.5,3.9-3.8,5.3-7.3c2.4-6.2,1.4-9.3,0.2-10.4L23,11.2z"/>
	<path class="st4" d="M24.5,22.3c3-7.7,0.9-10.7-0.6-11.2l-0.7-0.2c0,0,0,0,0,0c-1-0.2-2.4,0.5-3.8,1.9c-0.2,0.2,0.6-0.1,0.9-0.4
		c0.6-0.5,1.6-0.8,2.5-0.4c2.1,0.9,2.1,5.4,0.1,10.2s-5.1,7.8-7.1,7c-0.3-0.1-0.6-0.3-0.8-0.5c-0.6-0.5-0.8-1.2-0.8-2.9v2.1
		c-0.1-0.2-0.3-0.5-0.4-0.7c0-0.5-0.3-1.2-0.4-0.4c0.1,1.7,0.8,2.8,1.8,3.4h0c0,0-0.1,0-0.1,0c-0.1,0-0.1,0-0.4-0.1
		c0.8,0.3,1.2,0.5,1.7,0.5c1.1,0,2.4-0.6,2.8-0.9C21.4,28,23.2,25.8,24.5,22.3z"/>
	<path class="st1" d="M20.4,18.4c3.5,0,6.3,0.4,8.3,1.1c0.4,0.1,1.3,0.5,1.6,1c0.2,0.3,0.2,1,0.1,1.7c0,0,0-0.1-0.1-0.1
		c-0.3-0.5-1.2-0.9-1.6-1C26.8,20.5,24,20,20.4,20c-4,0.1-6.4,0.5-7.9,1.1c0,0,0,0,0,0c0.1-0.9,0.1-1.8,2.5-2.2
		C16.4,18.6,18.2,18.4,20.4,18.4z"/>
	<path class="st2" d="M20.4,19.9c3.5,0,6.3,0.4,8.3,1.1c0.4,0.1,1.3,0.5,1.6,1c0.2,0.3,0.2,1,0.1,1.7c0,0,0-0.1-0.1-0.1
		c-0.3-0.5-1.2-0.9-1.6-1c-2.1-0.7-4.8-1.1-8.4-1.1c-4,0.1-6.4,0.5-7.9,1.1c0,0,0,0,0,0c0.1-0.9,0.1-1.8,2.5-2.2
		C16.4,20.1,18.2,19.9,20.4,19.9z"/>
	
		<linearGradient id="SVGID_2_" gradientUnits="userSpaceOnUse" x1="22.1207" y1="313.9102" x2="22.265" y2="317.1057" gradientTransform="matrix(1 0 0 1 0 -290)">
		<stop  offset="0.16" style="stop-color:#191919"/>
		<stop  offset="0.97" style="stop-color:#191919;stop-opacity:0"/>
	</linearGradient>
	<path class="st5" d="M29.9,26C30,26,30,26,29.9,26c-0.1-0.1-0.2-0.2-0.3-0.2c-0.3-0.2-0.6-0.3-0.9-0.4c-0.1,0-0.1-0.1-0.2-0.1
		c0,0-0.1,0-0.1,0c-0.3-0.1-0.6-0.2-0.9-0.3c0,0,0,0-0.1,0c-0.1,0-0.3-0.1-0.4-0.1c-0.3-0.1-0.5-0.1-0.8-0.2c-0.2,0-0.4-0.1-0.6-0.1
		c-0.2,0-0.3,0-0.5-0.1c0,0,0,0-0.1,0c-0.6-0.1-1.1-0.1-1.7-0.2c-0.4,0-0.7,0-1.1-0.1c-0.5,0-0.9,0-1.4,0c-0.6,0-1.2,0-1.8,0
		c-0.7,0-1.3,0.1-2,0.2c-0.1,0-0.2,0-0.3,0c0,0,0,0-0.1,0c-0.5,0.1-1,0.1-1.4,0.2c-0.3,0.1-0.6,0.1-0.8,0.2l0,0c0,0-0.1,1.1,0.1,2.1
		c0.3,0.1,0.5,0.1,0.8,0.2c0.2,0,0.5,0.1,0.7,0.1c0.3,0,0.7,0.1,1,0.1c0.3,0,0.7,0.1,1,0.1c0.2,0,0.4,0,0.6,0c0.3,0,0.6,0,0.9,0
		c0.3,0,0.5,0,0.8,0c0.4,0,0.9,0,1.3,0c0.4,0,0.8,0,1.3,0c0.5,0,1-0.1,1.5-0.1c0.8-0.1,1.5-0.2,2.3-0.3c0.7-0.1,1.3-0.3,1.9-0.5
		c0.3-0.1,0.5-0.2,0.8-0.4C29.7,26.2,29.8,26.1,29.9,26L29.9,26z"/>
	<path class="st3" d="M10.9,23.9c0-0.8,1.8-2.5,9.6-2.6c3.5,0,6.3,0.4,8.3,1.1c0.4,0.1,1.3,0.5,1.6,1c0.2,0.3,0.2,1,0.1,1.7
		c0,0,0-0.1-0.1-0.1c-0.3-0.5-1.2-0.9-1.6-1c-2.1-0.7-4.8-1.1-8.4-1.1c-6.2,0.1-8.6,1.2-9.4,2L10.9,23.9z"/>
	<path class="st4" d="M10.9,25.4c0-0.8,1.8-2.5,9.6-2.6c3.5,0,6.3,0.4,8.3,1.1c0.4,0.1,1.3,0.5,1.6,1c0.1,0.3,0.2,0.9,0.1,1.5
		c-0.3-0.5-1.3-0.8-1.6-1c-2.1-0.7-4.8-1.1-8.4-1.1c-6.2,0.1-8.6,1.2-9.4,2L10.9,25.4z"/>
	<path class="st1" d="M11.6,28.5C10.1,27.9,8,25,11,17.5c1.4-3.4,3.3-5.7,5.3-7.2c0.4-0.3,1.4-0.9,2.4-0.8c0.6,0,1.8,0.5,3.1,1.1
		c-0.1,0-0.3,0-0.4,0c-0.4,0-0.8,0.1-1,0.1c-1-0.1-2,0.5-2.4,0.8c-2,1.5-3.9,3.8-5.3,7.1c-2.5,6.1-1.4,9.1-0.2,10.2L11.6,28.5z"/>
	<path class="st2" d="M12.8,29.1c-1.4-0.5-3.5-3.5-0.6-11c1.4-3.5,3.3-5.8,5.3-7.3c0.4-0.3,1.4-0.9,2.4-0.8c0.4,0,1.3,0.3,2.2,0.7
		c-0.4-0.1-0.6-0.2-0.8-0.2c-1-0.1-2,0.5-2.4,0.8c-2,1.5-3.9,3.9-5.3,7.4c-3,7.6-0.8,10.5,0.6,11l1.2,0.4L12.8,29.1z"/>
	<path class="st3" d="M13.9,29.6c-1.4-0.5-3.5-3.5-0.6-11.2c1.4-3.5,3.3-5.9,5.3-7.4c0.4-0.3,1.4-0.9,2.4-0.8c0.4,0,1.3,0.4,2.3,0.8
		c-0.3-0.1-0.6-0.2-0.8-0.2c-1-0.1-2,0.5-2.4,0.8c-2,1.6-3.9,4-5.3,7.6c-2.5,6.6-0.8,9.9,0.5,11L13.9,29.6z"/>
	<path class="st4" d="M14.6,18.8c-3,7.7-0.9,10.7,0.6,11.2l0.7,0.2c0,0,0,0,0,0c1,0.2,2.4-0.5,3.8-1.9c0.2-0.2-0.6,0.1-0.9,0.4
		c-0.6,0.5-1.6,0.8-2.5,0.4C14.1,28.3,14,23.7,16,19c2-4.7,5.1-7.8,7.1-7c0.3,0.1,0.6,0.3,0.8,0.5c0.6,0.5,0.8,1.2,0.8,2.9v-2.1
		c0.1,0.2,0.3,0.5,0.4,0.7c0,0.5,0.3,1.2,0.4,0.4c-0.1-1.7-0.8-2.8-1.8-3.4h0c0,0,0.1,0,0.1,0c0.1,0,0.1,0,0.4,0.1
		c-0.8-0.3-1.2-0.5-1.7-0.5c-1.1,0-2.4,0.6-2.8,0.9C17.7,13.1,15.9,15.3,14.6,18.8z"/>
	<path class="st4" d="M21.1,27.6c6-0.2,8.5-1.2,9.3-2.1l0.1,0.7l0,0c0,0.1,0,0.3,0,0.4c-0.1,0.7-2.3,2.6-10.7,2.6
		c-0.3,0-0.6,0-0.9,0c0.6-0.6,1.2-1.1,1.6-1.6C20.7,27.6,20.9,27.6,21.1,27.6z"/>
</g>
</svg>
