<?xml version="1.0" encoding="utf-8"?>
<!-- Generator: Adobe Illustrator 22.0.0, SVG Export Plug-In . SVG Version: 6.00 Build 0)  -->
<svg version="1.1" id="Layer_1" xmlns="http://www.w3.org/2000/svg" xmlns:xlink="http://www.w3.org/1999/xlink" x="0px" y="0px"
	 viewBox="0 0 40 40" style="enable-background:new 0 0 40 40;" xml:space="preserve">
<style type="text/css">
	.st0{fill:url(#SVGID_1_);}
	.st1{fill:#FFFFFF;}
	.st2{fill:#EB8726;}
	.st3{fill:#EB8826;}
	.st4{fill:#A7312A;}
	.st5{fill:#F7C115;}
	.st6{fill:#E14529;}
	.st7{fill:#EB8825;}
	.st8{fill:#EB8724;}
	.st9{fill:#E04227;}
	.st10{fill:#F7C218;}
	.st11{fill:#E04226;}
	.st12{fill:#F7C117;}
	.st13{fill:#E1452A;}
	.st14{fill:#E04328;}
</style>
<linearGradient id="SVGID_1_" gradientUnits="userSpaceOnUse" x1="20" y1="0.375" x2="20" y2="37.625" gradientTransform="matrix(1 0 0 -1 0 39)">
	<stop  offset="0" style="stop-color:#D81D14"/>
	<stop  offset="1" style="stop-color:#FFDA00"/>
</linearGradient>
<path class="st0" d="M37,26.3V13.7c0-2.1-1.1-4.1-3-5.2L23,2.2c-1.9-1.1-4.1-1.1-6,0L6,8.5c-1.9,1.1-3,3.1-3,5.2v12.6
	c0,2.1,1.1,4.1,3,5.2l11,6.3c1.9,1.1,4.1,1.1,6,0l11-6.3C35.8,30.4,37,28.5,37,26.3z"/>
<title>Asset 1</title>
<polygon class="st1" points="14.9,29.1 25.3,29 25.4,11 14.9,11 "/>
<g>
	<path class="st2" d="M20.1,13.7c-0.3,0-0.3,0-0.2,0c-1.7-0.9-3.4-1.8-5-2.6C14.8,11,14.8,11,14.7,11c1.8-1,3.6-1.9,5.4-2.9
		C20.1,9.9,20.1,11.8,20.1,13.7z"/>
	<path class="st3" d="M14.9,29.1c1.8-0.9,3.5-2,5.3-2.9l0,0c0,1.9,0.1,3.8,0.1,5.7C18.4,31,16.6,30.1,14.9,29.1z"/>
	<path class="st4" d="M14.7,16.9L14.7,16.9c-0.1,0-0.1,0-0.1,0c-1.6-1-3.3-2-4.9-3c1.7-1,3.4-2,5.1-3c0.1,0.1,0.1,0.1,0.2,0.2
		c0,1.9,0,3.7,0,5.6C14.8,16.8,14.7,16.8,14.7,16.9z"/>
	<path class="st5" d="M25.3,17v-0.1c1.7-1,3.4-2,5.1-2.9c0,2,0,4,0,6c-1.7-0.9-3.4-1.8-5.1-2.8C25.3,17.1,25.3,17.1,25.3,17z"/>
	<path class="st6" d="M20.1,26.2c1.7-1.1,3.5-2.1,5.2-3.2v0.1c0,2,0,3.9,0,5.9c0,0,0,0.1-0.1,0.1C23.5,28.2,21.8,27.2,20.1,26.2
		C20.1,26.3,20.1,26.2,20.1,26.2z"/>
	<path class="st7" d="M30.4,13.9c-1.7,1-3.4,2-5.1,2.9c0-2-0.1-4-0.1-5.9C27,11.9,28.7,12.9,30.4,13.9z"/>
	<path class="st8" d="M25.3,17.2c1.7,0.9,3.4,1.8,5.1,2.8c0,0.1,0,0.1,0,0.2c-1.7,1-3.4,2-5,3c-0.1,0-0.1,0-0.1,0v-0.1l0,0
		C25.3,21.1,25.3,19.1,25.3,17.2z"/>
	<path class="st9" d="M25.5,23.1c1.7-1,3.4-2,5-3c0,1.9,0,3.9,0,5.8C28.8,25,27.1,24.1,25.5,23.1z"/>
	<path class="st10" d="M20.1,13.7c0-1.9,0-3.8,0-5.7c1.7,1,3.4,2,5.1,2.9C23.5,11.9,21.8,12.8,20.1,13.7z"/>
	<path class="st4" d="M25.5,23.1c1.7,0.9,3.4,1.9,5,2.8c-1.7,1-3.5,2.1-5.2,3.1c0-2,0-3.9,0-5.9C25.4,23.1,25.4,23.1,25.5,23.1z"/>
	<path class="st11" d="M9.6,20.1c1.7,1,3.6,1.9,5.3,2.9c-1.6,1-3.6,2.2-5.2,3.2C9.7,24.1,9.6,22,9.6,20.1z"/>
	<path class="st4" d="M9.7,26.2c1.6-1,3.5-2.1,5.1-3.1l0.1,0c0,2,0,4.1,0,6.1C13.1,28.1,11.4,27.1,9.7,26.2z"/>
	<path class="st12" d="M20.1,26.2c1.7,1,3.4,1.8,5.1,2.8c-1.7,0.9-3.4,2-5.1,2.9C20.2,30,20.1,28.1,20.1,26.2z"/>
	<path class="st11" d="M9.7,13.9c1.6,1,3.3,2,4.9,3c-1.7,1-3.3,2-5,2.9C9.6,17.9,9.7,15.9,9.7,13.9z"/>
	<path class="st10" d="M14.9,22.8c0-1.9,0-3.7,0-5.6c1.7,0.9,3.4,1.9,5.1,2.8l0,0C18.2,20.9,16.6,21.9,14.9,22.8z"/>
	<path class="st13" d="M19.9,20L19.9,20c1.8-1,3.6-2,5.4-3c0,0.1,0,0.1,0,0.2c0,1.9,0.1,3.9,0,5.8C23.6,22,21.7,21,19.9,20z"/>
	<path class="st14" d="M14.7,16.8c0-2,0-3.9,0.1-5.9c1.8,1,3.6,1.9,5.3,2.8C18.3,14.7,16.4,15.8,14.7,16.8z"/>
</g>
<path class="st8" d="M14.8,23c-1.7-0.9-3.5-1.9-5.2-2.9c0-0.1,0-0.2,0-0.3c1.7-1,3.4-1.9,5-2.9c0.2-0.1,0.2-0.1,0.2-0.1v0.3l0,0
	C14.8,19.1,14.8,21.1,14.8,23z"/>
</svg>
