<svg id="25ef8583-e144-4dc9-999f-952dde7d651e" data-name="Layer 1" xmlns="http://www.w3.org/2000/svg" xmlns:xlink="http://www.w3.org/1999/xlink" viewBox="0 0 34 37.25">
  <defs>
    <clipPath id="00d2b3d4-0d8f-4630-8873-e89c0c1dfe86" transform="translate(-3 -1.51352)">
      <path d="M37,26.43852v-12.6a6.00113,6.00113,0,0,0-3-5.2l-11-6.3a5.867,5.867,0,0,0-6,0l-11,6.3a6.00113,6.00113,0,0,0-3,5.2v12.6a6.00113,6.00113,0,0,0,3,5.2l11,6.3a5.867,5.867,0,0,0,6,0l11-6.3A6.2209,6.2209,0,0,0,37,26.43852Z" fill="none"/>
    </clipPath>
    <clipPath id="ae8c9924-a022-4b40-9894-f8386aaf54db" transform="translate(-3 -1.51352)">
      <path d="M34.5,25.51205V14.765a5.11861,5.11861,0,0,0-2.55882-4.43529L22.55882,4.95617a5.00426,5.00426,0,0,0-5.11764,0L8.05882,10.3297A5.11863,5.11863,0,0,0,5.5,14.765V25.51205a5.11864,5.11864,0,0,0,2.55882,4.4353l9.38236,5.37353a5.00426,5.00426,0,0,0,5.11764,0l9.38236-5.37353A5.30608,5.30608,0,0,0,34.5,25.51205Z" fill="none"/>
    </clipPath>
  </defs>
  <title>arbitrum</title>
  <g>
    <path d="M37,26.43852v-12.6a6.00113,6.00113,0,0,0-3-5.2l-11-6.3a5.867,5.867,0,0,0-6,0l-11,6.3a6.00113,6.00113,0,0,0-3,5.2v12.6a6.00113,6.00113,0,0,0,3,5.2l11,6.3a5.867,5.867,0,0,0,6,0l11-6.3A6.2209,6.2209,0,0,0,37,26.43852Z" transform="translate(-3 -1.51352)" fill="#96bedc"/>
    <path d="M34.5,25.51205V14.765a5.11861,5.11861,0,0,0-2.55882-4.43529L22.55882,4.95617a5.00426,5.00426,0,0,0-5.11764,0L8.05882,10.3297A5.11863,5.11863,0,0,0,5.5,14.765V25.51205a5.11864,5.11864,0,0,0,2.55882,4.4353l9.38236,5.37353a5.00426,5.00426,0,0,0,5.11764,0l9.38236-5.37353A5.30608,5.30608,0,0,0,34.5,25.51205Z" transform="translate(-3 -1.51352)" fill="#2d374b"/>
    <g clip-path="url(#00d2b3d4-0d8f-4630-8873-e89c0c1dfe86)">
      <g id="8fcf1b5a-d318-4911-8775-1bdaf7f15d13" data-name="bdc39734-a00f-455b-be58-cf567162750b">
        <g id="503ffc6f-936b-422e-9edd-96c1f34e6859" data-name="bed6d435-70e2-4215-8531-476581435da7">
          <polygon points="23.212 11.329 17.683 11.349 5.172 31.993 9.545 34.511 10.734 32.494 23.212 11.329" fill="#fff"/>
          <path d="M3.00012,30.52734,6.715,32.66787l12.3621-19.82528L16.979,12.78718c-1.78761-.02529-3.71322.43942-4.59715,1.88225L5.36173,25.5502,3,29.17894v1.34841Z" transform="translate(-3 -1.51352)" fill="#fff"/>
          <g clip-path="url(#ae8c9924-a022-4b40-9894-f8386aaf54db)">
            <polygon points="17.061 24.765 22.313 33.008 27.165 30.196 20.267 19.324 17.061 24.765" fill="#28a0f0"/>
            <path d="M34.58253,28.40287,34.579,26.1502,27.04231,14.41149,24.24612,19.156l7.27566,11.767,2.63066-1.52435a1.16588,1.16588,0,0,0,.43056-.849Z" transform="translate(-3 -1.51352)" fill="#28a0f0"/>
          </g>
        </g>
      </g>
    </g>
  </g>
</svg>
