<svg version="1.1" id="Layer_1" xmlns="http://www.w3.org/2000/svg" x="0" y="0" viewBox="0 0 40 40" xml:space="preserve"><style>.st2{fill:#fff}</style><linearGradient id="SVGID_1_" gradientUnits="userSpaceOnUse" x1="167.417" y1="-1117.178" x2="204.709" y2="-1117.178" gradientTransform="rotate(90 -465.568 -631.61)"><stop offset="0" stop-color="#cfbb3f"/><stop offset=".999" stop-color="#a28a28"/></linearGradient><path d="M37 26.3V13.7c0-2.1-1.1-4.1-3-5.2L23 2.2c-1.9-1.1-4.1-1.1-6 0L6 8.5c-1.9 1.1-3 3.1-3 5.2v12.6c0 2.1 1.1 4.1 3 5.2l11 6.3c1.9 1.1 4.1 1.1 6 0l11-6.3c1.8-1.1 3-3 3-5.2z" fill="url(#SVGID_1_)"/><path class="st2" d="M30.2 19.7c0 1.4-.2 2.7-.7 3.9-.4 1.2-1.1 2.2-1.9 3.1-.8.9-1.8 1.6-2.9 2-1.1.5-2.4.7-3.8.7H14V9.9h6.9c1.4 0 2.6.2 3.8.7 1.1.5 2.1 1.2 2.9 2 .8.9 1.4 1.9 1.9 3.1.5 1.3.7 2.6.7 4zm-4.3 0c0-1-.1-1.8-.3-2.6s-.6-1.4-1-2-1-1-1.6-1.3c-.6-.3-1.3-.4-2.1-.4h-2.8V26h2.8c.8 0 1.5-.1 2.1-.4.6-.3 1.1-.7 1.6-1.3s.8-1.2 1-2c.2-.7.3-1.6.3-2.6z"/><path class="st2" d="M11.9 18.5H22v2.2H11.9z"/></svg>