<?xml version="1.0" encoding="utf-8"?>
<!-- Generator: Adobe Illustrator 22.0.0, SVG Export Plug-In . SVG Version: 6.00 Build 0)  -->
<svg version="1.1" id="Layer_1" xmlns="http://www.w3.org/2000/svg" xmlns:xlink="http://www.w3.org/1999/xlink" x="0px" y="0px"
	 viewBox="0 0 500 500" style="enable-background:new 0 0 500 500;" xml:space="preserve">
<style type="text/css">
	.st0{fill:#28DA98;}
	.st1{fill:#FFFFFF;}
	.st2{fill:#1D4332;}
</style>
<polygon class="st0" points="500.7,1 500.7,501 0.7,501 0.7,1 "/>
<g>
	<path class="st1" d="M280.9,250c0-17.1-13.8-30.9-30.9-30.9l27.6-27.6c0,17.1,13.8,30.9,30.9,30.9L280.9,250z"/>
	<path class="st1" d="M222.4,191.5c0-17.1-13.8-30.9-30.9-30.9l27.6-27.6c0,17.1,13.8,30.9,30.9,30.9L222.4,191.5z"/>
	<path class="st2" d="M280.9,367c0-17.1-13.8-30.9-30.9-30.9h0l27.6-27.6c0,17.1,13.8,30.9,30.9,30.9L280.9,367z"/>
	<path class="st2" d="M222.4,308.5c0-17.1-13.8-30.9-30.9-30.9l27.6-27.6c0,17.1,13.8,30.9,30.9,30.9L222.4,308.5z"/>
	<path class="st2" d="M445,230.5c-5.4-5.4-12.4-8.1-19.5-8.1l0,0c-17.1,0-30.9-13.8-30.9-30.9c0-7.1-2.7-14.1-8.1-19.5
		c-5.4-5.4-12.4-8.1-19.5-8.1l0,0h0c-17.1,0-30.9-13.8-30.9-30.9c0-7.1-2.7-14.1-8.1-19.5c-10.8-10.8-28.2-10.8-39,0l0,0
		c-5.4,5.4-8.1,12.4-8.1,19.5c0,1.2-0.1,2.4-0.2,3.5l0-0.1c-1.7,15.4-14.8,27.5-30.7,27.5l0,0c-7.1,0-14.1,2.7-19.5,8.1l0,0
		c-5.4,5.4-8.1,12.4-8.1,19.5c0,17.1-13.8,30.9-30.9,30.9c-7.1,0-14.1,2.7-19.5,8.1c0,0,0,0,0,0c-10.8,10.8-10.8,28.2,0,39
		c10.8,10.8,28.2,10.8,39,0c5.4-5.4,8.1-12.4,8.1-19.5c0-17.1,13.8-30.9,30.9-30.9c7.1,0,14.1-2.7,19.5-8.1
		c5.4-5.4,8.1-12.5,8.1-19.6l0.2-3.4c1.7-15.4,14.8-27.5,30.7-27.5c0,0,0,0,0,0c17.1,0,30.9,13.8,30.9,30.9c0,7.1,2.7,14.1,8.1,19.5
		l0,0c5.4,5.4,12.5,8.1,19.5,8.1c17.1,0,30.9,13.9,30.9,30.9c0,17.1-13.8,30.9-30.9,30.9c-7.1,0-14.1,2.7-19.5,8.1l0,0
		c-5.4,5.4-8.1,12.5-8.1,19.5c0,17.1-13.8,30.9-30.9,30.9c-7.1,0-14.1,2.7-19.5,8.1l0,0c-10.8,10.8-10.8,28.2,0,39l0,0
		c10.8,10.8,28.2,10.8,39,0c5.4-5.4,8.1-12.4,8.1-19.5c0-17.1,13.8-30.9,30.9-30.9v0c7.1,0,14.1-2.7,19.5-8.1
		c5.4-5.4,8.1-12.4,8.1-19.5c0-17.1,13.8-30.9,30.9-30.9c7.1,0,14.1-2.7,19.5-8.1C455.7,258.7,455.7,241.3,445,230.5"/>
	<path class="st1" d="M280.7,136.5c0.1-1.1,0.2-2.3,0.2-3.5L280.7,136.5z"/>
	<path class="st1" d="M328,230.5c-10.8-10.8-28.2-10.8-39,0c0,0,0,0,0,0c-5.4,5.4-8.1,12.5-8.1,19.5c0,17.1-13.8,30.9-30.9,30.9
		c-7.1,0-14.1,2.7-19.5,8.1l0,0c-5.4,5.4-8.1,12.5-8.1,19.5c0,17.1-13.8,30.9-30.9,30.9c0,0,0,0,0,0l0,0
		c-17.1,0-30.9-13.8-30.9-30.9c0-7.1-2.7-14.1-8.1-19.5c-5.4-5.4-12.4-8.1-19.5-8.1c-17.1,0-30.9-13.8-30.9-30.9c0,0,0,0,0-0.1
		c0-17.1,13.8-30.9,30.9-30.9c7.1,0,14.1-2.7,19.5-8.1c5.4-5.4,8.1-12.4,8.1-19.5c0-17.1,13.8-30.9,30.9-30.9
		c7.1,0,14.1-2.7,19.5-8.1c10.8-10.8,10.8-28.2,0-39c-10.8-10.8-28.2-10.8-39,0l0,0c-5.4,5.4-8.1,12.4-8.1,19.5
		c0,17.1-13.8,30.9-30.9,30.9l0,0c-7.1,0-14.1,2.7-19.5,8.1l0,0c-5.4,5.4-8.1,12.4-8.1,19.5c0,17.1-13.8,30.9-30.9,30.9
		c-7.1,0-14.1,2.7-19.5,8.1c0,0,0,0,0,0c-10.8,10.8-10.8,28.2,0,39c5.4,5.4,12.4,8.1,19.5,8.1c17.1,0,30.9,13.8,30.9,30.9
		c0,7.1,2.7,14.1,8.1,19.5l0,0c5.4,5.4,12.5,8.1,19.6,8.1c17,0,30.8,13.9,30.8,30.9c0,7.1,2.7,14.1,8.1,19.5l0,0
		c10.8,10.8,28.2,10.8,39,0c5.4-5.4,8.1-12.4,8.1-19.5c0-17.1,13.8-30.9,30.9-30.9v0c7.1,0,14.1-2.7,19.5-8.1
		c5.4-5.4,8.1-12.5,8.1-19.6c0-17,13.9-30.8,30.9-30.8c7.1,0,14.1-2.7,19.5-8.1C338.8,258.7,338.8,241.3,328,230.5"/>
</g>
</svg>
