<?xml version="1.0" encoding="utf-8"?>
<!-- Generator: Adobe Illustrator 22.0.0, SVG Export Plug-In . SVG Version: 6.00 Build 0)  -->
<svg version="1.1" id="Layer_1" xmlns="http://www.w3.org/2000/svg" xmlns:xlink="http://www.w3.org/1999/xlink" x="0px" y="0px"
	 viewBox="0 0 40 40" style="enable-background:new 0 0 40 40;" xml:space="preserve">
<style type="text/css">
	.st0{fill:url(#SVGID_1_);}
	.st1{fill:#FFFFFF;}
</style>
<linearGradient id="SVGID_1_" gradientUnits="userSpaceOnUse" x1="-182.5831" y1="-729.1784" x2="-145.2914" y2="-729.1784" gradientTransform="matrix(6.123234e-17 1 -1 6.123234e-17 -709.1784 183.9581)">
	<stop  offset="3.906250e-02" style="stop-color:#426A85"/>
	<stop  offset="0.8105" style="stop-color:#1F3D4F"/>
</linearGradient>
<path class="st0" d="M37,26.3V13.7c0-2.1-1.1-4.1-3-5.2L23,2.2c-1.9-1.1-4.1-1.1-6,0L6,8.5c-1.9,1.1-3,3.1-3,5.2v12.6
	c0,2.1,1.1,4.1,3,5.2l11,6.3c1.9,1.1,4.1,1.1,6,0l11-6.3C35.8,30.4,37,28.5,37,26.3z"/>
<g>
	<path id="b_1_" class="st1" d="M19.7,10.1c0.5-0.2,1.1,0.3,0.8,0.8c-0.1,0.4-0.7,0.5-1,0.2S19.3,10.2,19.7,10.1L19.7,10.1z
		 M14.6,10.6c0.3-0.1,0.7,0.1,0.6,0.5c0,0.3-0.4,0.6-0.7,0.4C14.1,11.3,14.2,10.7,14.6,10.6z M25.1,11.5c-0.5-0.1-0.5-0.8-0.1-0.9
		c0.3-0.2,0.7,0.1,0.7,0.5C25.7,11.3,25.4,11.6,25.1,11.5z M15.7,12.8c0.5-0.3,1.2,0.1,1.1,0.7c0,0.6-0.8,0.9-1.2,0.5
		C15.2,13.7,15.3,13,15.7,12.8z M23.2,13.1c0.2-0.6,1.1-0.6,1.3,0c0.2,0.4-0.1,0.9-0.5,1.1C23.5,14.2,22.9,13.6,23.2,13.1z
		 M19.1,14.1c0-0.5,0.4-0.8,0.9-0.9c0.3,0.1,0.6,0.2,0.8,0.5c0.2,0.4,0,1-0.4,1.2C20.2,15,19.9,15,19.7,15
		C19.4,14.8,19.1,14.5,19.1,14.1z M11.4,14.8c0.4-0.3,1,0.2,0.9,0.7c-0.1,0.4-0.7,0.6-1,0.3C11,15.6,11.1,15,11.4,14.8L11.4,14.8z
		 M27.9,14.8c0.4-0.3,1,0,1,0.5c0,0.4-0.5,0.8-0.9,0.5C27.6,15.6,27.5,15,27.9,14.8L27.9,14.8z M21.3,15.6c0.6-0.2,1.4,0,1.7,0.6
		c0.5,0.7,0.2,1.7-0.5,2.1c-0.8,0.5-1.9,0.1-2.1-0.8C20,16.8,20.5,15.9,21.3,15.6L21.3,15.6z M17.6,15.7c0.7-0.3,1.6-0.1,2,0.6
		c0.4,0.7,0.1,1.6-0.6,2s-1.7,0.1-2-0.6C16.5,17,16.9,16,17.6,15.7z M14,16.9c0.1-0.4,0.5-0.7,0.9-0.8c0.5,0,0.8,0.4,0.9,0.9
		c0,0.5-0.4,0.9-0.9,0.9C14.3,18,13.9,17.5,14,16.9z M24.8,16.3c0.5-0.3,1.3,0.1,1.3,0.8c0,0.7-0.8,1.1-1.3,0.7
		C24.1,17.5,24.2,16.6,24.8,16.3z M16.1,18.6c0.6-0.2,1.4,0.1,1.7,0.7c0.3,0.6,0.2,1.4-0.3,1.8c-0.7,0.6-1.9,0.4-2.3-0.5
		C14.7,19.9,15.3,18.8,16.1,18.6L16.1,18.6z M23.1,18.6c0.6-0.2,1.4,0.1,1.7,0.6c0.4,0.6,0.2,1.6-0.4,2c-0.7,0.5-1.8,0.2-2.1-0.5
		C21.7,19.9,22.2,18.8,23.1,18.6z M12,19.3c0.6-0.2,1.2,0.4,0.9,0.9c-0.1,0.5-0.8,0.7-1.2,0.3C11.3,20.2,11.5,19.5,12,19.3z
		 M27,20.1c0-0.5,0.3-0.8,0.8-0.9c0.4,0.1,0.7,0.4,0.7,0.8c0,0.5-0.6,0.9-1.1,0.6C27.2,20.5,27.1,20.3,27,20.1z M9.3,19.6
		c0.3-0.1,0.7,0.1,0.7,0.5s-0.6,0.6-0.9,0.2C8.9,20.1,9,19.7,9.3,19.6L9.3,19.6z M30.3,19.6c0.2-0.2,0.6,0,0.7,0.2
		c0.2,0.3-0.1,0.7-0.5,0.6C30,20.5,29.9,19.8,30.3,19.6z M17.9,21.5c0.9-0.2,1.8,0.5,1.8,1.4c0.1,0.9-0.9,1.7-1.8,1.5
		c-0.7-0.1-1.2-0.8-1.2-1.5C16.8,22.3,17.3,21.7,17.9,21.5z M21.4,21.5c0.9-0.2,1.9,0.5,1.8,1.4c0,0.9-0.9,1.6-1.7,1.5
		c-0.8-0.1-1.4-1-1.2-1.8C20.4,22.1,20.9,21.7,21.4,21.5L21.4,21.5z M14.7,22.1c0.6-0.1,1.2,0.6,0.9,1.1c-0.2,0.6-1.1,0.8-1.5,0.3
		S14.1,22.2,14.7,22.1z M24.9,22.1c0.5-0.2,1.2,0.2,1.2,0.8c0,0.6-0.8,1.1-1.3,0.7C24.1,23.3,24.2,22.3,24.9,22.1z M27.7,24.9
		c-0.2-0.4,0.2-0.9,0.6-0.8c0.2,0,0.4,0.2,0.5,0.3c0,0.2,0.1,0.5-0.1,0.7C28.5,25.4,27.9,25.3,27.7,24.9z M11.4,24.2
		c0.4-0.3,1,0.1,0.9,0.6c-0.1,0.4-0.6,0.7-0.9,0.4C11,25,11,24.4,11.4,24.2z M19.6,25.1c0.5-0.2,1.2,0.2,1.2,0.8
		c0,0.7-0.8,1.1-1.3,0.7C18.9,26.3,19,25.3,19.6,25.1z M15.8,25.9c0.5-0.2,1.1,0.2,1,0.7c0,0.4-0.4,0.8-0.8,0.7
		c-0.3,0-0.6-0.3-0.7-0.6C15.4,26.4,15.5,26.1,15.8,25.9L15.8,25.9z M23.5,26c0.5-0.3,1.2,0.1,1.1,0.7c0,0.6-0.8,0.9-1.2,0.6
		C23,26.9,23.1,26.2,23.5,26z M24.9,29.2c-0.2-0.3,0-0.7,0.4-0.8c0.3,0.1,0.6,0.3,0.5,0.6C25.7,29.4,25.1,29.6,24.9,29.2L24.9,29.2z
		 M14.2,28.9c0.1-0.3,0.3-0.5,0.6-0.4c0.4,0,0.6,0.7,0.2,0.9C14.7,29.6,14.3,29.3,14.2,28.9z M19.4,29.2c0.1-0.4,0.6-0.5,0.9-0.4
		c0.2,0.1,0.3,0.3,0.3,0.5c0,0.1-0.1,0.2-0.1,0.3C20.4,29.8,20.2,30,20,30C19.6,30,19.2,29.6,19.4,29.2L19.4,29.2z"/>
</g>
</svg>
