<svg width="500" height="500" viewBox="0 0 500 500" fill="none" xmlns="http://www.w3.org/2000/svg">
<g clip-path="url(#clip0_909_1103)">
<path d="M500 0V500H0V0H500Z" fill="url(#paint0_linear_909_1103)"/>
<path d="M274.563 264.328L250 239.765L225.438 264.328C218.615 271.152 218.615 282.239 225.438 289.062L250 313.625L274.563 289.062C281.386 282.239 281.386 271.152 274.563 264.328ZM250 90C161.642 90 90 161.642 90 250C90 338.359 161.642 410 250 410C338.358 410 410.001 338.359 410.001 250C410.171 161.812 338.358 90 250 90ZM367.527 199.68L331.404 271.926C321.105 292.523 321.408 316.831 332.218 337.165V337.165C334.606 341.6 333.753 347.058 330.171 350.64L316.695 364.115C312.26 368.55 304.925 368.55 300.49 364.115L250 313.625L199.51 364.115C195.075 368.55 187.74 368.55 183.305 364.115L169.829 350.64C166.247 347.058 165.395 341.6 167.783 337.165V337.165C178.592 316.831 178.895 292.523 168.596 271.926L132.473 199.68C130.256 195.245 131.109 189.957 134.691 186.546L157.548 163.518C161.983 159.083 169.318 159.083 173.753 163.518L250 239.765L326.247 163.518C330.682 159.083 338.017 159.083 342.452 163.518L365.31 186.375C368.892 189.957 369.745 195.245 367.527 199.68ZM274.563 264.328L250 239.765L225.438 264.328C218.615 271.152 218.615 282.239 225.438 289.062L250 313.625L274.563 289.062C281.386 282.239 281.386 271.152 274.563 264.328Z" fill="#8759FF"/>
</g>
<defs>
<linearGradient id="paint0_linear_909_1103" x1="250" y1="0" x2="250" y2="500" gradientUnits="userSpaceOnUse">
<stop stop-color="#101113"/>
<stop offset="1" stop-color="#101113"/>
</linearGradient>
<clipPath id="clip0_909_1103">
<rect width="500" height="500" fill="white"/>
</clipPath>
</defs>
</svg>
