<?xml version="1.0" encoding="utf-8"?>
<!-- Generator: Adobe Illustrator 22.0.0, SVG Export Plug-In . SVG Version: 6.00 Build 0)  -->
<svg version="1.1" id="Layer_1" xmlns="http://www.w3.org/2000/svg" xmlns:xlink="http://www.w3.org/1999/xlink" x="0px" y="0px"
	 viewBox="0 0 500 500" style="enable-background:new 0 0 500 500;" xml:space="preserve">
<style type="text/css">
	.st0{fill:url(#SVGID_1_);}
	.st1{fill:#FFFFFF;}
	.st2{fill:none;}
</style>
<linearGradient id="SVGID_1_" gradientUnits="userSpaceOnUse" x1="519.4521" y1="477.6332" x2="-19.4522" y2="23.8336" gradientTransform="matrix(0 -1 1 0 0 500)">
	<stop  offset="0" style="stop-color:#B6509E"/>
	<stop  offset="1" style="stop-color:#2EBAC6"/>
</linearGradient>
<polygon class="st0" points="500.7,0 500.7,500 0.7,500 0.7,0 "/>
<g>
	<g id="Group_4051">
		<path id="Path_2431" class="st1" d="M271,408.4l-17.5-42.3c-0.1-0.4-0.2-0.8-0.2-1.2c0-0.9,0.3-1.7,0.9-2.4
			c0.6-0.6,1.5-0.9,2.3-0.9c0.7,0,1.3,0.2,1.8,0.6c0.6,0.4,1,0.9,1.2,1.6l16.6,41.4l16.6-41.4c0.3-0.6,0.7-1.2,1.2-1.6
			c0.5-0.4,1.1-0.6,1.8-0.6c0.9,0,1.7,0.3,2.3,0.9c0.6,0.7,0.9,1.5,0.9,2.4c0,0.4-0.1,0.8-0.2,1.2l-17.5,42.3
			c-1,2.2-2.5,3.3-4.4,3.3h-1.6C273.5,411.6,272,410.5,271,408.4z"/>
		<path id="Path_2432" class="st1" d="M306.4,410.3c-0.6-0.6-0.9-1.4-0.9-2.3v-42.9c0-0.9,0.3-1.7,0.9-2.3c0.6-0.6,1.4-1,2.3-0.9
			H337c0.8,0,1.6,0.3,2.1,0.9c0.6,0.6,0.9,1.3,0.9,2.1c0,0.8-0.3,1.6-0.9,2.1c-0.6,0.6-1.3,0.9-2.1,0.9h-25.1v15.6h22.5
			c0.8,0,1.6,0.3,2.1,0.9c0.6,0.6,0.9,1.3,0.9,2.1s-0.3,1.6-0.9,2.1c-0.6,0.6-1.3,0.9-2.1,0.9h-22.5v15.7H337c0.8,0,1.6,0.3,2.1,0.9
			c0.6,0.6,0.9,1.3,0.9,2.1c0,0.8-0.3,1.6-0.9,2.1c-0.6,0.6-1.3,0.9-2.1,0.9h-28.3C307.8,411.3,306.9,411,306.4,410.3z"/>
		<path id="Path_2433" class="st1" d="M257.5,407.1l-17.5-42.3c-1-2.2-2.5-3.3-4.4-3.3h-1.6c-1.9,0-3.4,1.1-4.4,3.3l-7.6,18.4h-5.7
			c-1.7,0-3.1,1.4-3.1,3.1v0c0,1.7,1.4,3.1,3.1,3.1h3.1l-7.2,17.6c-0.1,0.4-0.2,0.8-0.2,1.2c0,0.9,0.3,1.7,0.9,2.4
			c0.6,0.6,1.5,0.9,2.3,0.9c0.7,0,1.3-0.2,1.8-0.6c0.6-0.4,1-0.9,1.2-1.6l7.9-19.9h5.5c1.7,0,3.1-1.4,3.1-3.1v-0.1
			c0-1.7-1.4-3.1-3.1-3.1h-2.9l6.1-15.2l16.6,41.4c0.3,0.6,0.7,1.2,1.2,1.6c0.5,0.4,1.1,0.6,1.8,0.6c0.9,0,1.7-0.3,2.3-0.9
			c0.6-0.7,0.9-1.5,0.9-2.4C257.7,407.9,257.7,407.5,257.5,407.1z"/>
		<path id="Path_2434" class="st1" d="M205.4,407.1L188,364.8c-1-2.2-2.5-3.3-4.4-3.3h-1.6c-1.9,0-3.4,1.1-4.4,3.3l-7.6,18.4h-5.8
			c-1.7,0-3.1,1.4-3.1,3.1v0c0,1.7,1.4,3.1,3.1,3.1h3.1l-7.2,17.6c-0.1,0.4-0.2,0.8-0.2,1.2c0,0.9,0.3,1.7,0.9,2.4
			c0.6,0.6,1.5,0.9,2.3,0.9c0.7,0,1.3-0.2,1.8-0.6c0.6-0.4,1-0.9,1.2-1.6l7.9-19.9h5.5c1.7,0,3.1-1.4,3.1-3.1v-0.1
			c0-1.7-1.4-3.1-3.1-3.1h-3l6.1-15.2l16.6,41.4c0.3,0.6,0.7,1.2,1.2,1.6c0.5,0.4,1.1,0.6,1.8,0.6c0.9,0,1.7-0.3,2.3-0.9
			c0.6-0.7,0.9-1.5,0.9-2.4C205.7,407.9,205.6,407.5,205.4,407.1z"/>
	</g>
	<path id="Path_7142" class="st1" d="M340,176.6c-0.9-49.7-42-89.1-91.7-88.2c-48.4,0.9-87.3,39.8-88.2,88.2c0,0.2,0,0.5,0,0.7v1.4
		l0,0v162.7c0.1,5.5,4.7,9.9,10.2,9.8c5.3-0.1,9.7-4.4,9.8-9.8v-29.1c0-5.5,4.5-10,10-10c5.5,0,10,4.5,10,10V326c0,5.5,4.5,10,10,10
		c5.5,0,10-4.5,10-10l0,0v-13.8c0-5.5,4.5-10,10-10l0,0c5.5,0,10,4.5,10,10v3.8c0.1,5.5,4.7,9.9,10.2,9.8c5.3-0.1,9.7-4.4,9.8-9.8
		v-3.8c0-5.5,4.5-10,10-10s10,4.5,10,10V326c0,5.5,4.5,10,10,10c5.5,0,10-4.5,10-10l0,0l0,0v-13.8c0-5.5,4.5-10,10-10l0,0
		c5.5,0,10,4.4,10,10l0,0v29.1c0,5.5,4.5,10,10,10c5.5,0,10-4.5,10-10l0,0v-164C340,177.1,340,176.8,340,176.6z M216.9,191
		c-8.8,0-16-8.2-16-18.4s7.2-18.4,16-18.4s16,8.2,16,18.4S225.7,191,216.9,191L216.9,191z M250.7,216.9c-8,0-14.5-4.8-14.5-10.7
		s6.5-2.3,14.5-2.3c8,0,14.5-3.5,14.5,2.3C265.3,212.1,258.8,216.9,250.7,216.9L250.7,216.9z M283.2,191c-8.8,0-16-8.2-16-18.4
		s7.1-18.4,16-18.4s16,8.2,16,18.4S292.1,191,283.2,191L283.2,191z"/>
	<ellipse id="Ellipse_598" class="st2" cx="250" cy="172.6" rx="16" ry="18.4"/>
	<path id="Path_7143" class="st2" d="M250,203.9c-8,0-14.5-3.5-14.5,2.3c0,5.9,6.5,10.7,14.5,10.7c8,0,14.5-4.8,14.5-10.7
		S258,203.9,250,203.9z"/>
	<ellipse id="Ellipse_599" class="st2" cx="250" cy="172.6" rx="16" ry="18.4"/>
</g>
</svg>
