<svg width="500" height="500" viewBox="0 0 500 500" fill="none" xmlns="http://www.w3.org/2000/svg">
<g clip-path="url(#clip0_1309_53)">
<path d="M500 500L0 500L0 0L500 0L500 500Z" fill="url(#paint0_linear_1309_53)"/>
<path d="M223.236 287.424C224.181 286.682 224.941 285.736 225.459 284.66C225.976 283.584 226.236 282.407 226.218 281.221C225.741 230.367 225.9 180.964 226.696 133.012C227.292 98.5394 252.64 68.1224 290.81 70.0905C358.384 73.669 393.632 141.302 387.727 202.196C381.206 269.472 344.527 310.704 277.689 325.892C274.962 326.503 272.525 328.029 270.78 330.219C269.034 332.409 268.084 335.133 268.087 337.94L268.027 407.482C268.027 421.318 261.128 428.813 247.331 429.966C245.701 430.086 244.071 429.887 242.441 429.37C231.745 425.911 226.397 418.555 226.397 407.303C226.397 385.872 226.377 363.765 226.338 340.982C226.338 331.598 221.825 325.912 212.799 323.924C173.317 315.296 144.51 292.712 126.379 256.172C89.0433 180.904 119.699 72.5954 218.226 70.7466C219.817 70.7068 221.248 71.2038 222.521 72.2376C228.485 77.0487 229.439 82.6152 225.383 88.9372C224.109 90.9101 222.243 92.3987 220.075 93.1717C178.565 108.44 172.899 153.767 173.734 193.25C174.45 228.498 179.519 258.319 206.656 284.501C212.779 290.386 218.306 291.36 223.236 287.424ZM320.81 143.449C314.905 129.374 299.339 109.394 282.102 112.794C273.832 114.424 269.617 119.752 269.458 128.778C268.743 180.666 268.564 231.659 268.922 281.758C268.922 285.575 270.194 288.716 272.739 291.181C273.841 292.234 275.219 292.95 276.709 293.246C278.199 293.542 279.739 293.405 281.148 292.851C340.789 269.173 342.221 194.204 320.81 143.449Z" fill="#131313"/>
</g>
<defs>
<linearGradient id="paint0_linear_1309_53" x1="250" y1="0" x2="250" y2="500" gradientUnits="userSpaceOnUse">
<stop stop-color="#FCE74F"/>
<stop offset="1" stop-color="#FCE74F"/>
</linearGradient>
<clipPath id="clip0_1309_53">
<rect width="500" height="500" fill="white"/>
</clipPath>
</defs>
</svg>
