<svg width="500" height="500" viewBox="0 0 500 500" fill="none" xmlns="http://www.w3.org/2000/svg">
<g clip-path="url(#clip0_893_61)">
<path d="M500 0V500H0V0H500Z" fill="url(#paint0_linear_893_61)"/>
<path d="M387.939 149.04C396.367 139.459 403.761 129.016 410 117.885L372.665 99.2981C367.298 108.335 360.713 116.588 353.094 123.828C342.684 133.491 331.611 139.122 320.339 140.56C298.572 143.333 283.365 136.614 261.181 122.381C237.9 107.427 211.487 90.4781 174.001 95.2667C151.25 98.2286 130.41 110.078 112.07 130.652C103.637 140.228 96.2395 150.667 90 161.798L127.325 180.384C132.689 171.351 139.261 163.091 146.858 155.835C157.193 146.315 168.171 140.74 179.622 139.273C182.761 138.867 185.921 138.657 189.086 138.649C206.253 138.649 220.042 145.273 238.79 157.302C260.557 171.28 287.661 188.665 326.018 183.801C349.186 180.81 370.025 169.122 387.939 149.04ZM387.939 260.221C396.367 250.639 403.761 240.197 410 229.066L372.665 210.479C367.298 219.515 360.713 227.77 353.094 235.009C342.684 244.672 331.611 250.303 320.339 251.741C298.572 254.515 283.365 247.795 261.181 233.562C237.872 218.609 211.459 201.659 173.972 206.448C151.259 209.363 130.382 221.259 112.041 241.833C103.618 251.41 96.2306 261.849 90 272.979L127.325 291.565C132.689 282.532 139.261 274.272 146.858 267.016C157.193 257.496 168.171 251.921 179.622 250.454C182.761 250.047 185.921 249.839 189.086 249.83C206.253 249.83 220.042 256.455 238.79 268.483C260.557 282.461 287.68 299.855 326.018 294.982C349.186 291.991 370.025 280.303 387.939 260.221ZM387.939 371.402C396.367 361.82 403.761 351.378 410 340.247L372.665 321.66C367.299 330.694 360.713 338.946 353.094 346.181C342.684 355.843 331.611 361.475 320.339 362.913C298.572 365.695 283.365 358.967 261.181 344.733C237.872 329.78 211.459 312.83 173.972 317.619C151.259 320.534 130.382 332.439 112.041 353.004C103.62 362.586 96.2322 373.029 90 384.159L127.325 402.746C132.687 393.714 139.259 385.457 146.858 378.207C157.155 368.677 168.171 363.064 179.622 361.635C182.761 361.228 185.921 361.02 189.086 361.011C206.253 361.011 220.042 367.635 238.79 379.664C260.557 393.642 287.68 411.036 326.018 406.163C349.186 403.172 370.025 391.484 387.939 371.402Z" fill="white"/>
</g>
<defs>
<linearGradient id="paint0_linear_893_61" x1="250" y1="0" x2="250" y2="500" gradientUnits="userSpaceOnUse">
<stop stop-color="#4053AD"/>
<stop offset="1" stop-color="#4053AD"/>
</linearGradient>
<clipPath id="clip0_893_61">
<rect width="500" height="500" fill="white"/>
</clipPath>
</defs>
</svg>
