<?xml version="1.0" encoding="utf-8"?>
<!-- Generator: Adobe Illustrator 22.0.0, SVG Export Plug-In . SVG Version: 6.00 Build 0)  -->
<svg version="1.1" id="Layer_1" xmlns="http://www.w3.org/2000/svg" xmlns:xlink="http://www.w3.org/1999/xlink" x="0px" y="0px"
	 viewBox="0 0 500 500" style="enable-background:new 0 0 500 500;" xml:space="preserve">
<style type="text/css">
	.st0{fill:url(#SVGID_1_);}
	.st1{fill:#F4DD77;}
	.st2{fill:#E5C568;}
	.st3{fill:#EFD671;}
	.st4{fill:#BB7334;}
	.st5{fill:#C88E44;}
	.st6{fill:#DDB55F;}
	.st7{fill:#EACA6E;}
	.st8{fill:#D19F4F;}
	.st9{fill:#C1895C;}
	.st10{fill:#CC9345;}
	.st11{fill:#DCB55D;}
	.st12{fill:#D4A350;}
	.st13{fill:#FCF995;}
	.st14{fill:#FAEA8B;}
	.st15{fill:#F8DE81;}
	.st16{fill:#FAC35D;}
	.st17{fill:#C48339;}
	.st18{fill:#FAD470;}
	.st19{fill:#F9DE81;}
	.st20{fill:#FCCD67;}
	.st21{fill:#ECD26D;}
	.st22{fill:#FAF18F;}
	.st23{fill:#DEC261;}
	.st24{fill:#E3C865;}
	.st25{fill:#F6CD75;}
	.st26{fill:#D9B358;}
	.st27{fill:#EF9B4F;}
	.st28{fill:#F0A657;}
	.st29{fill:#F0A154;}
	.st30{fill:#F2B05E;}
	.st31{fill:#F4C16B;}
	.st32{fill:#F5CA72;}
	.st33{fill:#F3BC67;}
	.st34{fill:#D2A950;}
	.st35{fill:#C99446;}
	.st36{fill:#F2B05F;}
	.st37{fill:#FAFEED;}
	.st38{fill:#B4F659;}
	.st39{fill:#E4FE9E;}
	.st40{fill:#60E640;}
	.st41{fill:#CFA24D;}
	.st42{fill:#F5C561;}
	.st43{fill:#F3FDD9;}
	.st44{fill:#2AAF59;}
	.st45{fill:#BE803A;}
	.st46{fill:#F7FEE2;}
	.st47{fill:#80ED47;}
	.st48{fill:#F6FDE0;}
	.st49{fill:#91F153;}
	.st50{fill:#AEF66D;}
	.st51{fill:#97F25A;}
	.st52{fill:#9FF360;}
	.st53{fill:#B0F56F;}
	.st54{fill:#D0FA8C;}
	.st55{fill:#C0F87D;}
	.st56{fill:#C4F883;}
	.st57{fill:#A4F169;}
	.st58{fill:#C0F682;}
	.st59{fill:#DAFA9B;}
	.st60{fill:#27A278;}
	.st61{fill:#67D952;}
	.st62{fill:#54C85E;}
	.st63{fill:#3FB56A;}
	.st64{fill:#EFFCD0;}
	.st65{fill:#82ED48;}
	.st66{fill:#6FDC53;}
	.st67{fill:#4BB96A;}
	.st68{fill:#62CB61;}
	.st69{fill:#75DB59;}
	.st70{fill:#8CEC55;}
</style>
<linearGradient id="SVGID_1_" gradientUnits="userSpaceOnUse" x1="500" y1="250.7334" x2="6.737355e-08" y2="250.7334" gradientTransform="matrix(0 -1 1 0 0 500)">
	<stop  offset="0" style="stop-color:#9BFA33"/>
	<stop  offset="1" style="stop-color:#00B64B"/>
</linearGradient>
<polygon class="st0" points="500.7,0 500.7,500 0.7,500 0.7,0 "/>
<g>
	<path class="st1" d="M60,170c12.5-8.4,21.9-20.2,32.6-30.4c26.8-25.7,52.6-52.4,78.8-78.7c2.9-2.1,6.2-1.1,9.3-1.1
		c28.4-0.1,56.8-0.1,85.2,0c3.2,5.7-2,4.4-4.2,4.6c-7,0.5-14,0.1-18.7,0.2c14.2,0.9,30.6-1.5,47-0.8c4.3,0.2,9.1-0.9,12.1,3.7
		c-0.7,2.6-2.9,2.8-5,3.3c-36.6,0.4-73.3,0.3-110,0.1c-9.3-0.1-16.7,2.7-23,9.3c-11.4,12-23.8,23.1-34.4,35.9
		c-6.7,8.1-14.4,15.3-22.6,22c-14,11.3-24.9,25.5-36.9,38.7c-2.4,2.8-1.9,6.6-3.4,9.8c-2.7,4-2,8.5-2.4,13c-0.3,3.5,1,8-4.4,9
		C60,195.6,60,182.8,60,170z"/>
	<path class="st2" d="M63.9,333c-1.3-0.6-2.6-1.2-3.9-1.8c0-23,0-46,0-69.1c3-1.5-2.6-12,7-6.7c2.8,8.3,1.3,16.9,1.3,25.4
		c0.1,14.9,0.7,29.7-0.4,44.6C67.3,328.3,66.4,331.1,63.9,333z"/>
	<path class="st3" d="M65.7,254.5c-5.4-0.1-2.5,6.1-5.7,7.6c0-17.9,0-35.8,0-53.7c3.6-4,1.4-8.9,1.9-13.4c0.4-3.7-0.5-7.6,3.9-9.6
		c3.4,3.3,2.7,7.7,2.7,11.7c0.1,16.2,0.1,32.5,0,48.7C68.3,248.9,68.4,252.1,65.7,254.5z"/>
	<path class="st4" d="M439.5,271.6c0.1,17.2,0.2,34.4,0.4,51.6c0.1,3.8-1.3,6.8-3.9,9.4c-35.2,35.1-70.4,70.2-105.6,105.3
		c-0.4,0.4-1.1,0.6-1.6,0.9c-19.6,1.8-39.3,0.5-58.9,0.7c-2-1.2-1.9-2.9-1.2-4.7c5.2-4.1,11.4-1.9,17.2-2.6
		c11.9-0.2,23.8,0.5,35.7-0.4c3.4-1.3,5.9-3.7,8.4-6.2c32.2-32.2,64.3-64.4,96.5-96.5c1.8-1.8,3.8-3.5,4.6-6
		c0.9-16.2,0.1-32.5,0.4-48.7c0.1-3.5-0.2-7,0.2-10.5c0.4-3.3,0-8.2,4.8-7.7c4.4,0.5,2,5.2,2.5,8
		C439.2,266.5,438.5,269.1,439.5,271.6z"/>
	<path class="st5" d="M439.5,271.6c-3.5-4.1,0.3-9.9-3-14.3c-3.7,2.1-2.3,5.3-2.3,7.8c-0.2,17.5,0,34.9-0.2,52.4
		c0,3.3,1.4,7.1-2,9.8c-3.1-3-2.5-7-2.5-10.7c-0.1-13.6,0-27.1-0.1-40.7c0.3-15.1-0.6-30.3,0.5-45.4c2.6-17.5,1.7-35,0.6-52.5
		c-0.9-2-1.9-4.1-2.1-6.3c0.2-2.7-0.1-5.8,4.1-5.7c8.9,7.8,6.2,19.1,6.7,28.4C440.7,220,439.6,245.8,439.5,271.6z"/>
	<path class="st6" d="M328.9,62.4c19,18,38.2,35.9,55.3,55.8c-0.9,2.1-1.9,4.1-4.4,4.5c-8-2.7-11.8-10.3-18-15.1
		c-13-12.6-25.1-26.1-38.8-38c-0.9-0.2-1.9-0.3-2.8-0.5c-3-0.6-7.4-0.5-7.2-4.5c0.2-4.8,4.9-2.6,7.6-2.8
		C323.3,61.6,326.2,61,328.9,62.4z"/>
	<path class="st7" d="M328.9,62.4c-4.8,0.7-9.8-0.7-15.3,1.4c4.1,4.7,10.1,0.2,13.2,4.4c-8.3,3.9-16.6,4.8-24.9,0
		c-3.2-3.1-7.2-1.7-10.9-1.8c-20.9-0.1-41.7-0.1-63.7-0.1c2.6-5.2,6.1-3.5,8.8-3.8c10.3-1,20.8,1.9,31-1.6c20.5-0.1,41-0.1,61.5-0.2
		C328.6,61.4,328.8,61.9,328.9,62.4z"/>
	<path class="st8" d="M380.4,122.1c1.3-1.3,2.5-2.5,3.8-3.8c16.9,15.1,33.1,31,48.4,47.7c-2.5,1.4-2.3,3.8-2.3,6.1
		c-8.2-0.6-10.9-8.5-16.6-12.4c-9.3-9.5-18.8-18.7-28-28.2C383.2,128.8,379.3,126.8,380.4,122.1z"/>
	<path class="st9" d="M269.1,438.6c19.9,0.1,39.8,0.1,59.7,0.2c-0.1,0.5-0.3,1-0.3,1.6c-50.8,0.1-101.6,0.1-152.4,0.1
		c-1.9,0-3.9,0.1-5.2-1.7c8-5.7,17-2,25.6-2.9c20,0.1,40,0,60,0.1C260.8,436,265.4,435.3,269.1,438.6z"/>
	<path class="st10" d="M196.3,438.6c-8.5,0.1-17,0.1-25.4,0.2c-1.2-0.6-2.3-1.1-3.5-1.7c-7.7-8.2-15.5-16.4-23.2-24.7
		c-1-1.9-1.7-3.8-0.5-5.8c4.1-3,6.2,0.9,8.5,2.9c4.4,3.9,8.5,8.2,12.7,12.2c5.1,6.5,11.6,8.8,20,8.6c28-0.4,55.9-0.2,83.9-0.2
		c5.7,0.5,11.5-1,17,1.6c1.1,0.8,1.4,1.8,0.8,3c-5.7,0-11.5,0-17.2,0c-3.3,2.7-7.3,1.8-11.1,1.9c-17.2,0.1-34.5,0-51.7,0.1
		C202.9,436.7,199.3,436,196.3,438.6z"/>
	<path class="st11" d="M63.9,333c0.1-2.1-0.3-4.4,2-5.7c0.7-0.6,1.6-0.7,2.5-0.4c9,7.5,17.2,16,26,23.7c4,4.9,10.8,7.4,12.3,14.4
		c-1,2.9-3.6,3.5-6.2,4C88.3,357.1,76.1,345,63.9,333z"/>
	<path class="st12" d="M100.5,369.1c1.1-2.2,2.8-3.3,5.3-3.3c3.6,0.2,5.5,3,7.7,5.1c8.7,8.3,16.7,17.5,26.4,24.8
		c3,2.3,7.1,4.9,4.6,10.1c-0.1,2.2-0.2,4.4-0.4,6.7C129.6,398,115,383.5,100.5,369.1z"/>
	<path class="st13" d="M67.6,175.7c13.7-15.5,27.7-30.6,43.1-44.6c17.9-16.3,34.1-34.5,50.8-52.1c7.2-7.6,15.1-11.2,26.1-11
		c36.1,0.7,72.2,0.3,108.4,0.4c-0.1,6-4.8,6-8.7,6.3c-7.9,0.6-15.9,0.1-23.9,0.3c-6.8,0.1-13.3,1.5-19.5,4.2
		c-1.9,0.8-4.8,1.5-4.2,4.4c0.5,2.6,3.4,2.6,5.5,2.9c6.3,0.8,12.7,0.3,19.1,0.5c4.2,0.1,8.4,0.3,12,2.5c1.7,1.1,4.3,2.3,1.7,5
		c-11.7,3.7-23.8,1.1-35.7,1.8c-15-0.6-29.9-0.1-44.9-0.3c-5.8-0.1-10.6,1.7-14.5,6c-0.9,0.9-1.7,1.9-2.7,2.7
		c-13.2,9.3-17.3,21.2-10.3,36.3c0.9,2,1.2,4.3,0.8,6.5c-4.8,5-6.5-0.5-8.4-2.9c-6-7.9-5.9-8.1-13.5-1.4c-0.5,0.4-0.9,0.8-1.4,1.3
		c-10,8.4-10,8.4,0.3,15.8c2.7,1.9,5.8,3.7,1.7,7.2c-6.7,1.5-12.4-2.1-18.6-3.5c-5.6-1.3-10-0.4-13.8,3.9c-0.8,1,0.3-0.1-0.7,0.7
		c-15.1,11.1-21.8,25.5-19.3,44.6c1.3,10,0.3,20.4,0.3,30.6c0,4.3,0.6,8.6-1.9,12.4c-7.1,1.3-6.5-4.4-7-8.3
		c-0.8-6.6,0.2-13.4-0.8-20c-0.4-3-0.3-7.2-4.2-7.6c-3.7-0.4-4.8,3.6-6,6.5c-2.3,5.7-3.2,11.6-3.2,17.7c0,6.1-0.9,12.1-2.6,17.9
		c-0.6,2-1.1,5.5-4.8,2.8c-0.2-6.4,0-12.7-0.1-19C67.3,222.6,65.6,199.1,67.6,175.7z"/>
	<path class="st14" d="M278.7,93.1c-8.6-6.1-18.4-3.1-27.7-3.6c-6.3-0.4-15.9,0.8-16.7-5.1c-0.9-6.9,8.7-8.3,14.8-10.1
		c12.1-3.7,24.6-1.5,36.9-2.1c3.7-0.2,7.8,0.7,9.9-3.8c2,0,3.9-0.1,5.9-0.1c8.3,0,16.6,0,24.9,0c12.2,12.8,24.3,25.6,36.5,38.4
		c-1,1.2-2.4,1.7-3.9,1.8c-3.2,0-5.3-2-7.2-4.3c-7.3-8.1-15.1-15.5-22.8-23.1c-7.1-7.1-13.4-7.2-20.8-0.7c-1.2,1.1-2.5,2.1-2.2,3.9
		c0.4,1.9,2.1,2.4,3.7,2.5c16.8,1.6,23.4,16.2,33.5,26.3c2.2,2.3,3.4,5.7-1.1,7.7c-9.2-4.7-14.5-13.6-22.3-19.8
		c-4.9-5.1-11.3-4.6-17.6-5C294.5,95.3,286.1,98.4,278.7,93.1z"/>
	<path class="st14" d="M67.6,175.7c0,23.7,0,47.4,0.1,71c-0.6,0.9-1.3,0.8-1.9,0c0-20.4-0.1-40.9-0.1-61.3
		C66.2,182.1,64.5,178.5,67.6,175.7z"/>
	<path class="st15" d="M65.8,246.7c0.6,0,1.2,0,1.9,0c0,6.4,0,12.8,0,19.2c2.4,2.1,2.8,5,2.9,7.8c0.2,15.9-0.2,31.8-0.4,47.7
		c0,2.3-0.7,4.4-2.5,6c-0.6-0.1-1.2-0.1-1.8-0.2c0-24.3-0.1-48.5-0.1-72.8C65.7,251.9,65.8,249.3,65.8,246.7z"/>
	<path class="st16" d="M286.4,433.1c-5.8-0.1-11.6-0.3-17.4-0.4c-1.7-1.2-3.4-2.3-1.3-4.6c2.2-1.3,4.7-1.5,7.2-1.5
		c12.7,0,25.5-0.2,38.2,0.1c6.5,0.1,11.5-1.9,16.2-6.6c29.9-30.1,59.7-60.2,90-89.8c9.2-8.9,5.8-19.4,6.3-29.6
		c0.5-8.2-1.7-16.6,1.8-24.6c1.4-1.5,2.9-1.7,4.6-0.5c0,17.3,0,34.5,0.1,51.8c-32.5,32.3-65,64.6-97.5,96.9c-3.1,3.1-6.6,6-9.8,9
		C312,434.2,299.2,434.3,286.4,433.1z"/>
	<path class="st17" d="M196.3,438.6c0.9-5.3,5.2-3.7,8.3-3.7c21.5-0.1,43-0.1,64.6-0.1c0,1.3,0,2.5,0,3.8
		C244.8,438.6,220.6,438.6,196.3,438.6z"/>
	<path class="st17" d="M286.4,433.1c12.8,0,25.5,0,38.3,0c-12.6,3.8-25.6,0.7-38.3,1.7C286.4,434.2,286.4,433.7,286.4,433.1z"/>
	<path class="st18" d="M432,275.5c-1.2,0-2.4,0-3.6,0c-5.3-7.1-2.2-15.3-2.9-23c-0.4-23.5-0.2-47.1-0.2-70.6
		c0.5-5.9-4.5-8.5-7.5-12.4c-2.8-3.5-8-5.5-6.8-11.4c1.4-0.8,2.8-0.7,4,0.3c5.1,4.5,10.1,9,15.2,13.5c0.7,1.3,1.5,2.5,2.2,3.8
		c1.1,17.9,1.2,35.8-0.1,53.7C432.3,244.8,432.1,260.1,432,275.5z"/>
	<path class="st8" d="M432.4,229.5c0-17.9,0-35.8,0.1-53.7C435.2,193.7,435.3,211.6,432.4,229.5z"/>
	<path class="st19" d="M415.1,158.5c-1.3,0-2.7,0-4,0.1c-9.2-0.9-12-9.9-18.5-14.3c-9.3-9.5-18.8-18.7-28-28.2
		c-2.5-2.6-6.4-4.6-5.3-9.3c1.3,0,2.6,0,4,0c5.7,5.1,11.4,10.3,17.2,15.4C392,134.2,403.5,146.3,415.1,158.5z"/>
	<path class="st15" d="M144.5,405.8c-1.5-6.1-7-8.6-11.1-12.4c-9.4-9-18.4-18.4-27.6-27.6c-2.9-5.9-8.8-9-13-13.7
		c-1.8-7.5-9-10.3-13.8-15.1c-7-7.1-10.8-14.6-9.5-24.7c0.7-5.7-0.2-11.5,0.3-17.2c0.7-7.3,3.8-13.5,9.5-18.2
		c6.5-5.4,12.5-3.1,13.6,5.2c0.9,7.6,0.7,15.3,0.2,22.9c-0.7,11.3,4.6,18,14.5,21.9c2.9,1,5.3,2.9,7.5,4.9c3.8,4.4,8.5,5,13.8,3.3
		c10.9-3.6,22.2-5.7,33.2-8.9c4.1-1.2,9.1-4.4,12.5-0.6c3.2,3.6,0.1,8.5-1.1,12.7c-2.9,10.7-5.8,21.5-9,32.2
		c-1.7,5.9-1,10.6,3.5,14.7c1.3,1.6,2.2,3.3,2.1,5.5c-0.4,1.6-1.5,2.6-3.1,2.8c-8-3.2-13.8-8-12.9-17.7c4-13,7.1-26.2,10.4-40.7
		c-13.2,3.1-24.8,6.3-36.3,9.8c-6.3,1.9-11.8,1.8-16.6-3.5c-2.9-3.3-6.6-5.7-10.7-1.9c-4.2,4-2.3,8.3,0.9,11.9
		c12,13.6,24.3,27,37.4,39.6c6.4,6.7,13.1,13.1,19.5,19.7c2.4,2.5,5.3,4.7,5.6,8.6c-0.4,1.5-1,2.6-2.8,2
		C156,416.2,150.2,411,144.5,405.8z"/>
	<path class="st20" d="M161.7,421.3c0.6-0.6,1.3-1.3,1.9-1.9c3.6-1.1,6,1.5,8.6,3.1c3.9,3.2,8.5,3.7,13.3,3.7c11,0.1,22-0.1,33,0
		c12.3-0.4,24.7-0.3,37-0.2c4.1,0,8.3-0.3,11.6,3c0.6,1.2,1.2,2.4,1.9,3.6c-30,0.1-60,0-90,0.4C170,433.2,166.5,426.7,161.7,421.3z"
		/>
	<path class="st14" d="M108,329.3c-10.2-2.1-17.2-10.3-17.3-20.3c0-8.6,0-17.2,0-25.8c0-2.9-0.1-5.9-3.5-7.1c-3-1-4.7,1.1-6.6,2.8
		c-2.9,2.6-5.7,5.4-6.6,9.2c-3.9,17.9-7.5,37.7,10.2,51.4c3.7,2.9,10.5,5.3,8.6,12.6c-8.3-8.3-18.1-15.1-25.1-24.7
		c0-20.5,0-41,0.1-61.5c2.9-7.4,4-15.1,3.8-22.9c-0.1-8.1,1.8-15.6,5.6-22.8c1.8-3.4,4.6-5.7,8.3-5.3c3.6,0.4,2.9,4.3,3.8,6.9
		c2.9,8.1,1,16.4,1.5,24.5c0.2,3.7-0.7,7.8,3.8,9.9c3.4,3.3,2.8,7.6,2.8,11.6c0.1,10.5,0.3,20.9,0,31.4c-0.3,8.6,0.7,16.4,7.7,22.4
		C107.1,323.5,108.9,326,108,329.3z"/>
	<path class="st21" d="M94.6,243c0-16.2,0.2-32.4-0.2-48.6c-0.1-5.9,1.5-10.4,6-14.1c2.4-2,5-4.2,6.7-6.7c9.2-13.8,21.2-15.9,35.7-9
		c2.2,1,4.9,1.1,7.3,1.6c3.5-1.6,6.8-0.1,10.2,0.6c12.1,2.7,12.1,2.8,9.1-8.8c-0.7-2.9-2.6-6-0.2-9c0-0.3,0-0.7-0.1-1
		c-8.4-28.5-8.3-28.5,12.8-49.3c3.9-3.9,7.9-5.6,13.5-5.5c15,0.3,29.9,0.2,44.9,0.2c0.9,7-3.9,7.7-8.9,8.2
		c-7.6,0.6-15.3-0.8-22.8,1.1c-3.6,0.8-7.3,0.9-10.9,0.8c-4.3-0.1-8.4,0.1-11.7,3.5c-12.4,9.8-15,21.4-8.5,36.1
		c3.3,7.5,5,15.8,6.7,23.9c2.4,11.4-2.3,16.6-14,14.5c-10-1.8-19.9-4.9-29.5-8.1c-10.9-3.7-19.9-2.7-27.2,6.9
		c-1.7,2.3-4.2,3.9-6.3,5.8c-3.1,3.4-1.8,7.6-2,11.5c-0.4,3-0.9,6-1.5,9c-1.6,9.7-0.1,19.4-0.9,29.1
		C102.4,240.5,102.1,245.9,94.6,243z"/>
	<path class="st22" d="M169.3,148.9c1,7.5,9,17,3.6,21.5c-5.1,4.3-15.1-1.9-22.7-4.3c-1.4-5.8-7.8-4.4-11-7.9
		c-3.7-4.1-6.6-7.3,0.2-11c5.1-2.7,9-7,13.1-11c4-3.9,7.4-3.5,9.2,2.2C163.1,142.7,164.9,146.7,169.3,148.9z"/>
	<path class="st23" d="M94.6,243c5.7,0.4,5.5-3.5,5.7-7.5c0.7-10.3-2-20.8,1.6-30.9c4.3,4.1,3.2,9.4,3.2,14.4
		c0.2,27.3-0.2,54.6,0.3,81.9c0.2,5-1.6,10.4,3.3,14.3c2.9,4.3,7.5,7.4,8.6,12.9c-0.3,2.4,0.2,5.4-3.7,5c-1.9-1.3-3.8-2.6-5.7-3.9
		c-13.5-9.7-14.6-23.6-13.6-38.7c0.8-11.4,0.1-22.8,0.1-34.2C94.5,251.9,94.6,247.4,94.6,243z"/>
	<path class="st24" d="M207.7,100.8c7.5-3.6,15.4-1.3,23.1-1.6c4.7-0.2,7.9-1.3,9.5-5.8c12.8-0.1,25.5-0.2,38.3-0.2
		c9.8,0,19.6,0.5,29.4,0c6.8-0.3,11.6,1.9,14.9,7.8c-1.6,2.2-4,2.7-6.5,3.1c-4.6-0.3-9.2,0.3-13.8,0.2c-26.8-0.5-53.6,0-80.4-0.3
		C217.2,103.9,211.8,105,207.7,100.8z"/>
	<path class="st25" d="M359.3,106.7c11.5,12.1,23.1,24.3,34.6,36.4c-5.3,4.7-12.7,7.5-14.3,15.6c-11.7,5.2-24.3,7.7-36.6,11
		c-7.8,2.1-11-1.3-9.1-9.3c2.4-9.9,5.5-19.7,8-29.5c1.6-6.1,4.2-11.9,4.2-18.5c0-4.4,1.6-9,7.5-9.6C355.5,104,356.3,107,359.3,106.7
		z"/>
	<path class="st19" d="M353.5,102.8c-2.4,2.2-4.5,4.7-4.8,8c-1.8,17.5-8.2,33.9-12.7,50.7c-1.8,6.6,1,7.6,6,6.2
		c12.9-3.5,25.6-7.4,38.4-11.1c7.8-1.5,13.2,2.3,18.7,13.4c0.1,1.6-0.3,3-1.4,4.2c-3.7,0.6-6.2-1.6-8.1-4
		c-5.2-6.6-11.4-6.6-18.7-4.4c-9.7,2.9-19.4,5.7-29.2,8.3c-3.9,1-7.9,2.6-12.1,0.8c-1.8-1.1-2.7-3-2.2-4.9
		c4.2-16.8,7.2-34.1,14.8-49.9c0.5-0.8,1.6-1.7,1.4-2.3c-2.3-8.5-24.7-27.5-33.2-28.4c-3.2-0.3-7-0.6-8-4c-1.2-4.2,2.7-5.9,5.7-7.7
		c13-7.7,13.7-7.7,24.3,3.1C339.5,88,346.5,95.5,353.5,102.8z"/>
	<path class="st26" d="M342.2,120.1c-1.8,14.3-7.2,27.6-10.3,41.6c-0.9,4.1-4.1,8-1.4,12.5c0.2,4.5-2.3,6.3-6.5,6.5
		c-5.9-2.2-4.6-6.9-3.5-11.2c2.6-11.2,4.6-22.6,8.5-33.3c3.7-10.1,1.5-17.2-6.7-23.3c-2-1.5-4-3.2-5.6-5.2c-0.8-1.4-0.9-2.8,0-4.2
		c1.4-2.5,3.8-2.3,6.1-2.4C330,106.7,336.4,113.1,342.2,120.1z"/>
	<path class="st27" d="M428.3,302.4c2.6,15.4-3.1,26.6-14.7,37.5c-28.6,26.8-55.8,55.1-83.4,83c-4.4,4.4-8.8,6.5-15.1,6.3
		c-13.4-0.5-26.8-0.2-40.2-0.2c-2.7-4.6,1-7.1,3.6-9.5c7.4-6.7,15.5-11.9,26.4-10.3c3.4,0.5,7,0.6,10.3-1c9.1-6.5,16.1-15.4,24.1-23
		c3.7-3.5,2.2-7.6,1.1-11.6c-2.9-10.7-5.8-21.5-8.4-32.3c-2.1-8.8-0.4-10.4,8.7-8.4c10.9,2.3,21.7,5.2,32.2,8.7
		c6.2,2.1,9.9,0.4,14.2-3.9c6.7-6.8,12.7-14.3,20.9-19.5c4.9-1.6,6.7-6,9.5-9.7C420.1,304.8,422.3,299.9,428.3,302.4z"/>
	<path class="st28" d="M317.1,409.9c-5.2,3.7-11,1.5-16.6,1.8c-12.1,0.7-20.1,7.1-25.6,17.3c-2.6,0-5.2,0.1-7.7,0.1
		c-16.6,0-33.2-0.1-49.8-0.1c2.3-11.1,11.8-14.7,20.2-19.5c23.3,0,46.5-3,69.8-2.3C310.8,407.3,314.5,406.9,317.1,409.9z"/>
	<path class="st29" d="M428.3,302.4c-5.7,0.8-8.1,5.2-10.5,9.6c-1.9,3.6-3.8,7.3-8.6,7.6c-1.6-12.3-0.8-24.6-0.2-36.9
		c1.9-6.6,1.4-13.9,5.1-19.9c3.2-5.2,5.4-12.6,14.3-10.3c0,7.7,0.1,15.3,0.1,23C428.4,284.5,428.3,293.5,428.3,302.4z"/>
	<path class="st30" d="M428.3,252.5c-10.5,3.5-13.5,12.2-15.2,21.8c-0.4,2.4,0.5,5.1-1.9,7c-3.2-3-2.7-7-2.7-10.7
		c-0.1-12.7,0-25.5-0.1-38.2c0.3-8.1-0.4-16.2,0.6-24.3c1.6-5.4,3.1-10.8,4.1-16.4c1.6-9.1,7.7-14.2,15.3-14
		C428.3,202.7,428.3,227.6,428.3,252.5z"/>
	<path class="st31" d="M428.3,177.7c-8.2,2.9-12.8,8.6-13.4,17.4c-0.3,4.1-1.1,8.1-3.8,11.4c-1.3-1-2.3-2.5-2.1-4.1
		c1.6-12.7-3.1-23.2-11.3-32.4c-5.1-5.4-8.4-13-17.3-13.4c-2.9-11.8,7.8-10.1,13.4-13.4c5.7,5.1,11.5,10.3,17.2,15.4
		C416.8,164.9,422.6,171.3,428.3,177.7z"/>
	<path class="st32" d="M138.7,392.6c-14.9-12-26.7-27.1-39.7-41c-3.7-3.9-5.5-9.5,0-14.2c5.1-4.3,9.8-4.2,13.7,1.5
		c3.9,5.6,8.9,5.9,15,3.9c10.9-3.5,22-6.5,33-9.5c4.9-1.3,8.2-1.1,5.9,5.7c-4.1,11.9-4.6,25-10.6,36.4
		C148.9,379.7,142.9,385.3,138.7,392.6z"/>
	<path class="st33" d="M138.7,392.6c0.7-8,10.1-17.4,17.3-17.2c-1.1,9.1,6,12.6,11.5,17.3c6.6,4.6,14.7,8,15.2,17.9
		c-7.3,1.2-9.8,7.5-13.2,12.8c-1.9-1.3-3.8-2.5-5.8-3.8C155.3,410.5,147,401.5,138.7,392.6z"/>
	<path class="st34" d="M113.7,333.1c2.3-1.4,1.9-3.7,2-5.9c9,2.1,17.5,0.1,26-2.6c8.2-2.6,16.6-4.6,25-6.4
		c13.6-2.9,19.3,2.8,15.4,15.9c-2.8,9.8-4.8,19.8-8.2,29.4c-1.9,5.4-3.1,11-2.9,16.8c-0.3,2.7-1.1,5.1-3.6,6.6
		c-7-3.8-7.9-9-5.4-16.6c4.8-14.3,8.2-29,12.6-44.9c-16.1,4.4-31,8.2-45.8,12.6C122.3,340,117,340,113.7,333.1z"/>
	<path class="st35" d="M167.3,387c0.7-2,1.3-4,2-6c8.3,0.6,11,8.7,16.9,12.6c3.5,3.7,8,4.4,12.8,3.9c13.6,0.6,27.2-2.2,40.6,1.8
		c2.4,3.2,0.7,5.5-1.6,7.7c-12.2,3.8-24.7,1-37.1,1.6c-3.8,0.2-7.7,0.1-11.5-0.2c-9.5-2.8-15.1-10-20-18
		C168.8,389.3,168.1,388.2,167.3,387z"/>
	<path class="st32" d="M169.5,390.5c5.7,5.2,11.4,10.4,17.2,15.6c6.8,2.2,14.1-0.4,22.8,2.1c-8.5,6.4-16.3,3.9-23.7,3.6
		c-1.1-0.4-2.1-1.1-2.9-2c-5.1-5.7-10.2-11.5-15.4-17.2C168.1,391.9,168.8,391.2,169.5,390.5z"/>
	<path class="st36" d="M182.8,409.8c0.6,0,1.3,0,1.9,0c8.4,1.4,16.7,1.1,25.2-0.1c8.2-1.2,16.9-3.1,24.7,2
		c-4.6,6.9-13.3,9.6-17.2,17.2c-11.7,0-23.4-0.2-35.1,0.2c-5.6,0.2-9.9-1-12.8-5.9C169.8,414.7,172.1,408.1,182.8,409.8z"/>
	<path class="st37" d="M316.8,103.3c0.2,1.1,0.4,2.2,0.7,3.3c1.5,4.8-1.3,8.6-2.9,12.7c-3.8,9.8-7.3,19.8-12.2,29
		c-5.3,9.9-5.8,18.4,1.9,26.8c0.3,5.4,3.3,8.9,7,12.7c3.3,3.5,10,7,4.5,13.8c-4.3,0.5-6.4-2.8-9.1-5.1c-3.3-3.5-6.7-6.9-10.2-10.2
		c-2.8-2.8-5.6-5.7-8.7-8.3c-6.8-5.7-14.9-2.8-22.4-3.5c-4.7,0-9.5,0-14.2-0.1c-6.4-0.2-8.1,2.3-5,8c1.3,2.5,2.2,5.3,3.3,7.9
		c3.3,7.1,6.3,14.4,9.5,21.6c1.2,2.6,2.3,5.3,2.3,8.3c-0.8,5-1.8,10.7-7.4,11.9c-5,1.1-8.5-3.3-11.6-6.8c-1-1.2-2-2.4-3.2-3.4
		c-2.1-2-3.5-4.5-4.6-7.2c-3.3-8.4-6.9-16.7-11.3-24.7c-1.8-3.6-2.2-8-6.4-11.7c0,7.5,3.6,12.8,6,18.5c2.1,5.2,5.8,9.8,5.9,15.7
		c-0.6,3.6,0.3,7.1,2,10.1c5.1,9.3,3.5,18.7-0.3,27.5c-4,9.4-14.1,12-22.1,16.6c-2.9,1.7-5.5-2.2-7.7-4.5c-3.5-3.9-5.5-8.8-7.8-13.4
		c-2.2-4.6-5.2-8.8-6.7-13.7c-2.4-5.4-3.6-11.4-8.7-18c-4.6,22.4-4.2,43-2.8,63.6c0.9,2,2.2,3.7,3.8,5.3
		c5.7,5.8,11.5,11.4,15.6,18.5c1,1.6,1.8,3.4,2,5.3c0.3,2.6,0.3,5.2-2.5,6.5c-2.3,1.1-4.3-0.2-6-1.6c-4.2-3.4-7.7-7.5-11.5-11.1
		c-2.7-2.6-5.1-5.7-9-6.5c-5.8-1.4-10.6,1.6-15.5,3.7c-11.4,5-23,9.2-34.5,14c-2.9,1.2-5.8,2.7-9.2,1.3c-6.6-2.2-7.3-6.1-3.5-11.5
		c3.1-5.2,8.9-5.7,13.8-7.9c10.2-4.5,20.4-9,30.9-12.8c6-2.2,8.4-6,8.3-12.3c-0.2-14-0.2-28.1,0-42.1c0.1-6.4-2.7-10-8.4-12.4
		c-12-5.1-24.3-9.5-36.2-15c-3.1-1.4-6.8-2.2-8.5-5.7c-2.9-3.8-2.9-7.6,0.1-11.3c4.4-2.4,8.6-1,12.8,0.7c12.1,5,24.4,9.4,36.2,14.9
		c7.4,3.4,13,2.9,18.8-3.3c8.9-9.5,18.3-18.7,27.7-27.8c4.5-4.3,5.5-8.7,3.1-14.6c-5.4-13.3-11-26.5-16.3-39.8
		c-1.4-3.4-4.1-6.7-1.7-10.7c2.9-3.9,6.8-4.6,11.3-3.8c6.7,5.3,7.8,13.7,11.2,20.8c4.4,9.2,7.6,18.9,11.7,28.3
		c2.3,5.4,6,7.7,11.9,7.6c13.4-0.2,26.8-0.3,40.2,0c7.2,0.2,11-2.8,13.6-9.4c4.9-12.5,10.1-24.8,15.5-37.1c1.4-3.2,2.1-6.8,5.6-8.6
		C309.6,99.9,313.2,100.6,316.8,103.3z"/>
	<path class="st38" d="M305.7,102.8c-7,17.4-14.2,34.8-21,52.3c-1.6,4-4,5.1-8,5.1c-16.9-0.2-33.8-0.3-50.7,0
		c-4.9,0.1-6.7-2.3-8.3-6.1c-7.2-17.7-14.5-35.4-21.7-53c3.9-0.1,7.8-0.2,11.7-0.3c29,0.1,58.1,0.1,87.1,0.2
		C298.5,101,302.5,99.6,305.7,102.8z"/>
	<path class="st38" d="M104.2,196.6c16.8,6.8,33.6,13.9,50.5,20.4c4.6,1.8,5.3,4.5,5.3,8.7c-0.1,16.6-0.1,33.2,0.1,49.8
		c0,4.2-0.8,7.3-5.2,9c-16.9,6.6-33.8,13.4-50.7,20.1c-3.3-3.1-2-7.1-2-10.8c-0.2-29.8-0.2-59.6-0.2-89.3
		C102.5,201.8,101.3,198.7,104.2,196.6z"/>
	<path class="st39" d="M184.7,104.9c7.1,17.3,13.9,34.8,21.3,52c2.3,5.3,1.5,8.8-2.5,12.7c-11,10.7-21.9,21.5-32.5,32.5
		c-4.4,4.6-8.7,5.4-14.5,2.9c-14-6.1-28.2-11.6-42.2-17.5c-3.3-1.4-6.5-2.6-10.1-2.2c1.7-1.4,3.8-2.5,5-4.3
		c9.4-14.5,22.1-14.3,36.5-8.9c7.7,2.9,15.7,5.2,23.7,7.1c11.3,2.7,14.8-1.1,11.9-12.3c-3.2-12.3-6.3-24.6-10.1-36.6
		c-2.2-6.7-1-11.4,4.5-15.8C179.1,111.8,181.7,108.1,184.7,104.9z"/>
	<path class="st40" d="M107.7,316.1c17-7.1,34.1-14.2,51.1-21.2c2.9-1.2,5.9-2.7,9-0.3c11.8,11.6,23.9,22.9,36.1,34.1
		c5.6,5.2,6.7,10.8,3.8,18c-5.5,13.3-11.2,26.4-16.5,39.8c-1.3,3.2-2.5,6.7-6.4,7.8c-5.1-4.5-10.2-8.9-15.4-13.4
		c-1.6-3-1.4-5.9-0.4-9.1c3.7-12.5,6.9-25,10.4-37.6c1.2-4.3,3.3-8.9-0.1-12.6c-3.4-3.9-8.2-2.1-12.5-0.9c-11.9,3.2-24,6-35.8,9.6
		c-6.1,1.9-11,1.6-15.4-3.1C113.8,323,108.4,321.3,107.7,316.1z"/>
	<path class="st41" d="M324.5,179.7c2.7-1.1,4.5-3.1,6-5.6c14-3.8,28.1-7.4,42-11.6c7.5-2.3,13.4-1.7,18.1,5.1
		c1.8,2.5,4.6,4.3,7,6.4c7.9,3.6,12.5,9.3,11.6,18.5c-0.5,5.3,0.5,10.8-0.7,16.1c-3,4.2-2,9.1-2.7,13.8c-0.4,2.9,0.7,7.5-5,6.7
		c-4.2-10.3-1.5-21-2-31.5c0.4-5-0.7-9.6-4.7-13c-7.9-11.2-17.5-14.7-31-9.3c-8.7,3.5-18.2,5.6-27.5,7.5
		C331.8,183.5,326.7,186.2,324.5,179.7z"/>
	<path class="st25" d="M407.1,208.5c0.1-2.8-0.1-5.7,0.3-8.5c1.7-10.5-1.7-19.1-9.7-26c0-1.3,0-2.7,0-4c15.7,8,13.8,22.5,13.4,36.5
		c0,8.3,0,16.6,0,24.9c-1.7,1.3-3.3,1.1-4.7-0.5C405,223.4,404.1,215.9,407.1,208.5z"/>
	<path class="st40" d="M324.5,179.7c3,3.2,6.4,1.8,9.8,0.9c11.7-3,23.7-5.2,35-9.5c9-3.5,15.1-1.9,20.4,5.6c1.8,2.6,4.1,4.9,6.1,7.3
		c0,2.7-2.1,3.8-4.1,4.7c-15.8,6.7-31.6,13.2-47.4,19.8c-3.7,1.5-7.6,2.2-10.7-0.9c-10.3-10.2-22-19.2-30-31.6
		c-9-7.3-10.3-15.1-4.7-25.9c7.3-13.9,12.5-29,18.6-43.5c15.9,9.3,18,14.2,13.5,30.9c-2.9,11-5.6,22.1-8.3,33.2
		C321.9,173.9,319.9,177.5,324.5,179.7z"/>
	<path class="st42" d="M407.4,231.4c1.2,0,2.5,0,3.7,0c0,16.6,0,33.3,0.1,49.9c-1,12.8,2.1,25.7-1.9,38.4
		c-7.6,7.3-15.4,14.3-22.7,21.9c-3.6,3.7-6.6,4.5-11.6,3c-13.5-4.1-27.3-7.5-42.4-11.6c3.6,14.1,6.3,26.8,10.1,39.1
		c2.2,7.1,2.3,12.3-4,17.5c-7.6,6.2-14.4,13.5-21.5,20.4c-27.6-1.4-55,3-82.5,1.8c-13.7,0-27.3,0.1-41,0c-3.1,0-6.4,1-9-1.8
		c6.8,0,13.7,0,22.5,0c-7.7-4-14.9,0.6-20.5-3.7c17.3-0.1,34.5-0.1,51.8-0.2c3.8-3.3,8.4-2.7,12.8-2.7c17.6-0.1,35.2-0.3,52.8,0.1
		c7.7,0.2,13.7-1.9,18.6-7.7c2.1-2.4,4.3-4.7,6.8-6.8c6.7-5.6,8.3-11.9,5.6-20.4c-3.4-10.6-6.4-21.4-8.8-32.4c-2-9.3,0-11.3,9.2-9.3
		c11.6,2.5,22.9,6,34.3,9.1c7.4,2,12.3-0.3,18.1-5c12.9-10.5,18.7-22.8,17.1-39.8c-1.5-15.9-0.4-31.9-0.3-47.9
		C404.6,239,403.9,234.7,407.4,231.4z"/>
	<path class="st43" d="M303.6,176c10.8,7.5,19,17.8,28.2,27c4.2,4.2,7.6,5.3,13.2,2.8c16.8-7.6,33.9-14.6,50.9-21.8
		c4.7,2.3,6.3,6,4.9,11.1c-1.2,4.5-5.4,5.1-8.8,6.5c-12.7,5.1-25.1,10.8-38,15.6c-6.5,2.4-9.6,6.6-9.4,13.7c0.3,13,0.3,26.1,0,39.1
		c-0.2,7.5,2.9,11.9,9.8,14.4c11.4,4.1,22.3,9.4,33.5,13.8c5,1.9,10.2,3.7,14.2,7.7c2.5,5.6-0.3,8.9-5,11.3
		c-4.7,1.2-8.8-0.8-12.8-2.5c-12.3-5.1-24.8-9.8-36.9-15.5c-6.4-3-11-2-16.1,3c-11.8,11.4-22.1,24.6-35.7,34.1
		c-0.9,0.6-2.7-0.3-2.8,0.9c-0.1,0.8,1.8,1.3,2.4,2.4c0.4,0.9,0.5,1.8,0.5,2.8c-1.2,5.2-4.1,8.2-9.9,7.4c-5.1-4.9-11.1-6.6-18.2-6.3
		c-10.5,0.5-21,0.1-31.6,0.1c-13.5,0-14.3,0.5-19.1,12.6c-4.5,11.3-9.4,22.3-13.9,33.6c-1.5,3.9-2.9,7.8-6.8,10.1
		c-5.2,1.3-9.1-0.4-11.4-5.4c7.5-17.5,14.9-34.9,22.5-52.4c2.1-4.8-0.5-7.6-3.5-10.7c-12-12.2-23.9-24.4-35.9-36.7
		c7.6,2.7,11.2,10.1,17.2,14.7c2.6,2,4.5,7.3,8,5.2c3.6-2.1-0.5-6.3-0.5-9.6c0.4-0.3,0.7-0.6,1.1-0.8c6.2,1.5,9,7.2,13.6,10.8
		c2.9,2.9,5.6,6.1,8.8,8.7c6.9,5.6,9.6,4.5,11.1-4.4c10.2,4,15.7-1.9,20.3-9.6c0.6-1.1,1.6-2.1,2.8-2.5c8.5-2.8,10.9-8.2,7.5-16.6
		c-0.7-1.7,0.1-3.7,1.4-5.3c0.8-0.5,1.7-0.6,2.6-0.3c4.5,6.5,6.6,14.1,10.5,20.9c2.5,6.5,5,12.9,9.8,18.3c-0.6-7.6-4.5-14-7.4-20.7
		c-2-5-5.6-9.6-4.3-15.5c8-2.4,9.8-9.5,12.1-16.2c0.9-0.4,1.7-0.4,2.6,0c5.5,6,6.3,14.3,10.6,20.9c6.9,14.7,6.3,14,18.7,3.3
		c10.8-9.3,16.5-19.6,13.6-33.9c-0.1-8.9-0.3-17.8,0-26.7c0-8,1.9-16.5-5.8-22.4c-2.4-3.9-7.3-6.3-7.2-11.7c2.9-7-2.8-9.9-6.7-13.2
		C304.1,184.4,300.6,181.6,303.6,176z"/>
	<path class="st44" d="M196.1,399.7c7.1-17.3,14.3-34.5,21.1-51.9c1.9-4.9,4.6-6.8,9.9-6.7c15.6,0.3,31.2,0.5,46.8-0.1
		c6.4-0.2,10.1,1.7,12,7.5c6.6,5,7,13.2,10.4,19.8c3.6,7,6.3,14.4,9.1,21.8c1.3,3.5,3,7.1-0.2,10.7c-3.1,2.2-6.6,2.2-10.1,2.2
		c-15,0-30,0-45,0c-3.5,0-7.1,0.2-9.9-2.5C225.5,400.3,210.8,400,196.1,399.7z"/>
	<path class="st45" d="M240.2,400.6c18.5-0.1,37-0.2,55.5-0.4c3.5,0,7,0.7,10.3-1.1c4.2-1.7,8.6-3.2,11.3-7.2c2-2.1,3.9-4.2,6-6.1
		c5.4-4.7,6.7-10.1,4.7-17.1c-3.1-10.7-6-21.4-8.4-32.3c-3.2-14.8,1.1-19.2,15.7-16c10.6,2.3,21.1,4.9,31.3,8.3
		c7.5,2.5,13.6,1.3,18.8-4.9c2.6-3.2,5.8-5.9,9.9-7.2c4.5-2,6.8-5.2,5.4-10.3c-1.6-2.5-2.2-5.2-2.2-8.2c-0.2-20-0.3-40,0.1-59.9
		c0.1-3.2,0.4-6.4,3.2-8.6c3.1-4.2,1-9.1,1.6-13.6c0.4-2.9-1.1-6.6,3.6-7.3c0.1,7.6,0.2,15.2,0.3,22.9c0,24.6-0.3,49.2,0.1,73.9
		c0.1,7-1.9,11.9-6.9,16.8c-20.5,20.1-20.3,20.2-48.2,12.2c-8.1-2.3-16.3-4.5-25.9-7.2c4.4,16.2,8,31,12.4,45.4
		c1.8,6,0.5,9.7-3.3,14.6c-11.6,15.3-26,21.4-45.4,19.4c-17.1-1.8-34.5-0.5-51.8-0.5C239,404.2,239.6,402.4,240.2,400.6z"/>
	<path class="st46" d="M259.6,285.1c3.4,11.3,3.7,20.1-10.2,26.2c-4.7,2.1-10.1,9.5-14.5,15.4c-3.3-1.6-1.5-8.5-7.3-7
		c-6-3.3-6.7-10-9.9-15.1c-1.7-8.3-8.3-14.3-10.6-22.4c-0.5-6.7-6.4-11.2-7.1-17.8c0-1.5,0.3-2.8,1.4-4c4,4.7,8,7.1,12.5,0.5
		c0.8-1.2,2.5-1.9,3.8-2.7c12.7-7.5,16-17.4,11.7-31.7c-1.4-4.5-6.3-8.6-2.6-14.1c4.1-0.5,3.9,3.3,5.5,5.3c4.2,8.2,7.1,16.9,11.4,25
		c3.2,8.7,7.5,16.9,11.5,25.3C256.1,273.7,262.5,278.3,259.6,285.1z"/>
	<path class="st47" d="M314.8,200.9c2.5,3.1,5.1,6.3,7.6,9.4c-11.8,13.7-25.2,25.8-37.9,38.5c-2.8,2.8-6.2,4.4-10.4,3
		c-5.9-4.5-7.7-10.9-8.5-17.8c0.6-4.4,3.5-7.5,6.4-10.3c8.2-7.5,15.7-15.7,23.9-23.1c3.2-2.9,6.2-6.5,11.4-5.6
		C309.8,197,312.3,198.9,314.8,200.9z"/>
	<path class="st48" d="M267.1,233.5c1.7,6.1,3.7,12.1,7.7,17.1c5,6,9.4,12.3,7.8,20.8c-0.3,13.7-2.6,16.7-12,15.7
		c-2.9,0.4-4.2-1.5-5.4-3.7c-2.2-6.5-4.8-12.8-8.1-18.8c-2.9-10.4-10.2-18.8-13.6-28.9c-0.2-5.5-6.5-9.7-3.5-15.8
		c1.2,1,2.7,1.8,3.5,3.1c2.3,4.1,6.4,7.8,10.2,7.2c3.7-0.6,4.8-6.1,5.6-10.2c3.1-1,3.7,1.7,5,3.4
		C266.2,226.5,266.1,230.1,267.1,233.5z"/>
	<path class="st49" d="M267.1,233.5c-2.7-2.5-3.6-5.7-4-9.2c-1.2-4.1-1.8-8,1.5-11.6c9.1-9.8,18.7-19,29.6-26.9
		c1.1-0.8,2.4-0.8,3.6-0.4c3.8,2.6,7.1,5.6,9.6,9.6C292,205.8,279.4,219.5,267.1,233.5z"/>
	<path class="st50" d="M265.3,172c8.5,1.3,18.6-4.7,25,5.6c-4.7,4.7-10,8.9-15.2,13c-7.5,6.1-14.5,12.3-17.6,21.8
		c-4.3-6.6-6.7-14.1-9.5-21.3C251,182.3,257.8,176.8,265.3,172z"/>
	<path class="st51" d="M201.8,264.1c2.2,5.9,6.8,10.8,7.7,17.3c-3.4,9.3-11.3,15.1-17.2,22.5c0.1,0.3,0.2,0.6,0.2,1
		c-5.2-5.9-10.4-11.7-15.6-17.6c-1-2.7,0.1-5,2-6.8c5.3-4.9,10.2-10.1,15.6-14.9C196.5,263.9,198.7,261.7,201.8,264.1z"/>
	<path class="st52" d="M257.5,212.5c-0.8-6.5,1.4-11.8,6.8-15.5c8.9-6.1,14.8-16.4,26-19.3c3.2,1.9,5.7,4.5,7.5,7.8
		c-10.2,8.3-20.1,17-29.4,26.4c-3.6,3.7-5.5,7.5-5.3,12.5c-1.2-1.4-2.4-2.9-3.6-4.3C258.8,217.5,258.2,215,257.5,212.5z"/>
	<path class="st53" d="M201.8,264.1c-10.3,5.6-17.8,14.2-25,23.2c-1.3-1.3-2.5-2.6-3.8-4c-1.7-5.8-0.4-11.7-0.8-17.5
		c4.9-9.1,10.4-17.3,22.3-17.4c2.3,4,4.6,7.9,6.9,11.9C201.6,261.6,201.7,262.8,201.8,264.1z"/>
	<path class="st54" d="M173.4,264.1c-0.1,6.4-0.2,12.8-0.3,19.2c-3.5-16.4-1.3-32.8-1-49.3c0.1-5.1,0.6-10.2,1.2-15.2
		c0.3-2.3,1.7-4.4,3.9-5.1c3.2-1,3.4,2.1,4.3,3.9c2.8,5.7,5.7,11.3,7.1,17.6c-0.6,1.5-1.4,2.9-2.9,3.6c-7.8,3.7-10.8,9.8-10,18.3
		C175.8,259.6,175,262.1,173.4,264.1z"/>
	<path class="st55" d="M173.4,264.1c1-8.6-4.2-18.9,6.5-24.9c2.7-1.5,5.7-2.6,8.6-3.9c1.4,4.7,5.5,8.1,6.1,13.2
		C185.5,251,180.6,259.1,173.4,264.1z"/>
	<path class="st56" d="M265.3,172c-5.8,6.4-11.6,12.8-17.3,19.1c-11.3-22.6-10.9-19,10.7-19.4C260.9,171.8,263.1,171.9,265.3,172z"
		/>
	<path class="st57" d="M240.2,219.9c1.9,5.1,3.7,10.3,5.6,15.4c-2.8,2-0.9,6.2-3.9,8.1c-4.7-8.1-8.3-16.6-11.2-25.4
		c-1.3-2.1-1.6-4.5,0.4-5.9c2.3-1.7,4.1,0,5.3,2.1C237.7,216.1,239,218,240.2,219.9z"/>
	<path class="st58" d="M236.4,214.2c-4.7-2.9-5.8-0.4-5.7,3.9c-1.3-1.9-2.5-3.8-3.8-5.8c-1.9-5.1-3.8-10.3-5.7-15.4
		c-1.5-3.9-1.3-7,3.8-7.6C230.1,197,233.8,205.3,236.4,214.2z"/>
	<path class="st59" d="M225,189.2c-2.5,1.9-3.5,4.6-3.8,7.6c-4.3-4.2-4.9-10.2-7.3-15.3c-1.1-2.3-0.7-5.4,2-6.6
		c3.4-1.6,4.4,1.2,5.2,3.7C222.5,182.1,223.7,185.7,225,189.2z"/>
	<path class="st44" d="M401.8,229.5c-0.2,22.1-0.3,44.2-0.5,66.3c0,3.5-0.4,6.9-0.6,10.4c-17.3-7.1-34.7-14.3-52-21.3
		c-4.6-1.9-6.9-4.3-6.8-9.9c0.4-16.3,0.4-32.6,0-48.8c-0.1-5.6,2.2-7.9,6.8-9.8c17.4-7,34.7-14.2,52-21.4
		C401.1,206.5,401.5,218,401.8,229.5z"/>
	<path class="st60" d="M395.3,316.4c-3.3,5.6-8.7,9.3-12.9,14.1c-3.4,3.8-7.4,2.8-11.5,1.7c-12.6-3.4-25.2-7-37.8-10.2
		c-11.1-2.8-14.4,0.5-11.8,11.6c2.5,10.5,4.3,21.4,8.4,31.3c4.6,11.2,1.8,18.9-7.3,25.5c-1.8,1.3-3.5,2.7-5.2,4.1
		c-3.3-0.8-4.2-3.7-5.2-6.3c-5.2-12.6-10.4-25.2-15.9-37.7c-1.5-3.3-0.3-6.9-2-10.1c0-0.6-0.1-1.2-0.4-1.7c-0.8-1.4-0.9-2.7,0.7-3.7
		c12.2-12,24.7-23.7,36.5-36.1c4.9-5.1,8.7-6.1,15.4-3.1C362.4,303.4,379,309.7,395.3,316.4z"/>
	<path class="st61" d="M282.7,271.4c-2.6-6.9-5.2-13.9-7.8-20.8c4.4,0.6,7-2.1,9.7-4.9c9.8-9.9,19.6-19.7,29.5-29.5
		c2.4-2.4,4.3-5.6,8.3-5.9c10.1,5.1,8.4,14.2,7.8,23c-10.5,11.9-22,23-33.6,33.8c-3.2,3-6.6,7.4-12.3,4.7
		C283.7,271.7,283.2,271.6,282.7,271.4z"/>
	<path class="st62" d="M284.3,271.8c6.8-1.6,11.2-6.7,16.1-11.1c10.1-9,17.6-20.7,29.8-27.3c0,10.2,0,20.5,0,30.7
		c-10.2,6.6-18.5,15.3-27.1,23.8c-2.5,2.5-4.6,6.4-9.3,5.1C289.5,286.4,286.8,279.1,284.3,271.8z"/>
	<path class="st63" d="M293.8,292.9c8.1-5.7,14-13.6,21.3-20.1c4.4-4,8.5-8.6,15.1-8.7c4.7,16.7-6,26.1-16.5,36
		c-12.5,11.7-12.2,12-18.9-3.5C294.2,295.4,294.1,294.1,293.8,292.9z"/>
	<path class="st64" d="M294.2,340.5c7.7,18,15.4,36,23.1,54c-2.4,4.9-6,6.9-11.3,4.5c-6.7-16.8-13.4-33.6-20.1-50.4
		C290.7,348,293.6,345.4,294.2,340.5z"/>
	<path class="st65" d="M192.3,303.9c-0.3-3.8,2-6.3,4.4-8.8c4.4-4.5,8.5-9.2,12.8-13.8c2.4,8,9,14.2,10.3,22.7
		c-3.4,5.5-6.4,11.6-14.2,11.9C201.2,311.9,196.7,307.9,192.3,303.9z"/>
	<path class="st66" d="M205.6,315.9c4.7-4,9.5-7.9,14.2-11.9c2.6,5.2,5.2,10.4,7.9,15.6c-0.1,3.2,5.2,6.9,1.4,8.9
		c-3.7,1.9-9.3,2.3-13.2-1.6C212.4,323.3,209,319.6,205.6,315.9z"/>
	<path class="st67" d="M276.5,302.5c3,6.4,5.9,12.7,8.9,19c1.3,2.8,2.2,5.7-1.5,7.2c-3.2,1.3-4.6-0.9-5.6-3.5
		c-2.4-6.2-6.6-11.6-7.7-18.4C270.1,302.1,273.1,302.1,276.5,302.5z"/>
	<path class="st68" d="M276.5,302.5c-2.1,1.2-4.7,1.9-5.9,4.4c-4.2-6.7-7.5-13.9-9.7-21.5c1.4-2.8,3.2-4.1,6.2-2.2
		c1.2,1.3,2.3,2.6,3.5,3.9C272.7,292.3,274.6,297.4,276.5,302.5z"/>
	<path class="st69" d="M267.2,283.2c-2.1,0.7-4.2,1.4-6.2,2.2c-0.5-0.1-0.9-0.2-1.4-0.3c-2-5.5-4-11.1-6-16.6
		c-1.4-5.9,1.2-6.6,5.9-4.4C262.4,270.3,266.2,276.2,267.2,283.2z"/>
	<path class="st64" d="M294.5,335.2c-0.2,1.2-0.5,2.4-0.7,3.7c-2.2-0.8-7,1.6-6.2-2.9C288.3,331.8,292,334.3,294.5,335.2z"/>
	<path class="st70" d="M259.4,264.1c-3.3-0.3-5.6,0.7-5.9,4.4c-4.9-7.9-8.5-16.4-11.5-25.1c2.1-2.3-4.1-8.6,3.9-8.1
		C249.9,245.1,256.4,253.7,259.4,264.1z"/>
</g>
</svg>
