<svg width="770" height="770" viewBox="0 0 770 770" fill="none" xmlns="http://www.w3.org/2000/svg">
<path d="M711.537 505.769V263.462C711.537 223.077 690.384 184.615 653.845 163.462L442.307 42.3078C405.768 21.1539 363.461 21.1539 326.922 42.3078L115.384 163.462C78.8452 184.615 57.6914 223.077 57.6914 263.462V505.769C57.6914 546.154 78.8452 584.615 115.384 605.769L326.922 726.923C363.461 748.077 405.768 748.077 442.307 726.923L653.845 605.769C688.461 584.615 711.537 548.077 711.537 505.769Z" fill="url(#paint0_linear_1015_2)"/>
<path d="M255.095 297.858C326.782 223.381 443.068 223.381 514.905 297.858L523.585 306.751C527.177 310.403 527.177 316.597 523.585 320.249L494.102 350.898C492.306 352.803 489.463 352.803 487.667 350.898L475.844 338.511C425.857 286.583 344.592 286.583 294.605 338.511L281.884 351.692C280.088 353.597 277.245 353.597 275.449 351.692L245.966 321.043C242.374 317.391 242.374 311.197 245.966 307.545L255.095 297.858ZM575.966 361.378L602.306 388.692C605.898 392.345 605.898 398.538 602.306 402.19L483.776 525.261C480.184 528.913 474.347 528.913 470.755 525.261L386.646 437.92C385.748 436.968 384.252 436.968 383.354 437.92L299.245 525.261C295.653 528.913 289.816 528.913 286.224 525.261L167.694 402.19C164.102 398.538 164.102 392.345 167.694 388.692L194.034 361.378C197.626 357.726 203.463 357.726 207.054 361.378L291.163 448.719C292.061 449.672 293.558 449.672 294.456 448.719L378.565 361.378C382.156 357.726 387.993 357.726 391.585 361.378L475.694 448.719C476.592 449.672 478.088 449.672 478.986 448.719L563.095 361.378C566.537 357.567 572.374 357.567 575.966 361.378Z" fill="white"/>
<defs>
<linearGradient id="paint0_linear_1015_2" x1="241.5" y1="86.5" x2="622.5" y2="612" gradientUnits="userSpaceOnUse">
<stop stop-color="#0988EF"/>
<stop offset="0.9988" stop-color="#0975CD"/>
</linearGradient>
</defs>
</svg>
