<?xml version="1.0" encoding="utf-8"?>
<!-- Generator: Adobe Illustrator 22.0.0, SVG Export Plug-In . SVG Version: 6.00 Build 0)  -->
<svg version="1.1" id="Layer_1" xmlns="http://www.w3.org/2000/svg" xmlns:xlink="http://www.w3.org/1999/xlink" x="0px" y="0px"
	 viewBox="0 0 40 40" style="enable-background:new 0 0 40 40;" xml:space="preserve">
<style type="text/css">
	.st0{fill:url(#SVGID_1_);}
	.st1{fill:#020202;}
	.st2{fill:#6D5A50;}
	.st3{fill:#2C231E;}
	.st4{fill:#A07D6A;}
	.st5{fill:#924E2A;}
	.st6{fill:#805945;}
	.st7{fill:#805944;}
	.st8{fill:#723F25;}
	.st9{fill:#846351;}
	.st10{fill:#914E2A;}
	.st11{fill:#674331;}
	.st12{fill:#713F24;}
	.st13{fill:#836251;}
	.st14{fill:#836351;}
	.st15{fill:#703E24;}
	.st16{fill:#FEFEFE;}
	.st17{fill:#030202;}
	.st18{fill:#C6A694;}
	.st19{fill:#AD5D45;}
	.st20{fill:#070302;}
	.st21{fill:#A5816D;}
	.st22{fill:#A3816D;}
	.st23{fill:#FAFAFA;}
	.st24{fill:#EEEEEE;}
	.st25{fill:#904A34;}
</style>
<linearGradient id="SVGID_1_" gradientUnits="userSpaceOnUse" x1="474.5669" y1="-2347.1785" x2="437.2752" y2="-2347.1785" gradientTransform="matrix(0 1 -1 0 -2327.1785 -436.0419)">
	<stop  offset="1.198744e-03" style="stop-color:#66331F"/>
	<stop  offset="0.9949" style="stop-color:#B95E39"/>
</linearGradient>
<path class="st0" d="M37,26.2V13.6c0-2.1-1.1-4.1-3-5.2L23,2.1c-1.9-1.1-4.1-1.1-6,0L6,8.4c-1.9,1.1-3,3.1-3,5.2v12.6
	c0,2.1,1.1,4.1,3,5.2l11,6.3c1.9,1.1,4.1,1.1,6,0l11-6.3C35.8,30.3,37,28.4,37,26.2z"/>
<title>Asset 1</title>
<g id="Layer_2_1_">
	<g id="Layer_1-2">
		<path class="st1" d="M18.9,30.2c-0.1,0-0.1,0-0.2,0c-1.3,0-2.7,0-4,0c-0.2,0-0.5,0-0.7,0c-0.1,0-0.2-0.1-0.2-0.2
			c0-0.1,0-0.1,0-0.2c0-0.2,0-0.4,0-0.6c0-0.1,0-0.2,0-0.2c0-0.3,0-0.6,0-0.8c0-0.1,0-0.3,0-0.4c0-0.2,0-0.4,0.1-0.6
			c0-0.2,0.1-0.4,0.1-0.5c0-0.1,0-0.2,0-0.3c-0.1-0.2-0.1-0.3-0.2-0.5c0-0.1,0-0.2,0-0.3c0-0.3,0-0.6,0-0.9c0-0.1,0-0.3,0-0.4
			c0,0,0,0,0,0c-0.3,0-0.6,0-0.8,0c-0.2,0-0.4,0-0.6,0c-0.2,0-0.4,0-0.6-0.1c-0.1,0-0.3,0-0.4,0c-0.1,0-0.1,0-0.2-0.1
			c0-0.1-0.1-0.1,0-0.2c0,0,0.1-0.1,0.1-0.1c0.1-0.1,0.2-0.2,0.3-0.3c0,0,0.1-0.1,0.1-0.1l0,0.1l0.1-0.2c0,0,0,0,0.1-0.1
			c0.1-0.1,0.2-0.3,0.4-0.4c0,0,0,0,0-0.1l0,0l0,0l0,0l0,0l0,0l0,0l0,0c0,0,0,0,0,0l0,0l0,0c0.1-0.1,0.1-0.2,0.2-0.3
			c0.1-0.2,0.2-0.3,0.4-0.5c0.1-0.1,0.2-0.3,0.3-0.4c0.1-0.2,0.3-0.4,0.4-0.5c0.1-0.1,0.2-0.2,0.2-0.3c0.1-0.1,0.1-0.1,0.2-0.1
			c0,0,0.1,0,0.1,0c0.2,0,0.4,0,0.5,0c0.1,0,0.3,0,0.4,0c0.1,0,0.3,0,0.4,0c0,0,0.1,0,0.1,0c0.2,0,0.3,0,0.5,0c0.1,0,0.1,0,0.2,0
			c0.1-0.2,0.2-0.4,0.3-0.6c0.1-0.2,0.2-0.4,0.3-0.5c0.1-0.1,0.2-0.3,0.4-0.4c0.1-0.1,0.1-0.1,0.2-0.2c0,0,0.1-0.1,0.2-0.1
			c0,0-0.1-0.1-0.1-0.1c-0.2-0.1-0.3-0.3-0.5-0.4c-0.1-0.1-0.2-0.3-0.3-0.4c-0.1-0.1-0.3-0.3-0.4-0.4c0-0.1-0.1-0.1-0.1-0.2
			c-0.1-0.1-0.2-0.2-0.3-0.4c-0.1-0.2-0.3-0.4-0.4-0.5c0-0.1-0.1-0.2-0.1-0.2c0-0.1,0-0.1,0-0.2c0,0,0.1,0,0.2,0c0,0,0,0,0.1,0
			c-0.1-0.2-0.2-0.3-0.2-0.5C15.1,15.3,15,15.2,15,15c0-0.1,0-0.2,0-0.2c0-0.1,0.2-0.1,0.3,0c0.1,0.1,0.2,0.2,0.3,0.2
			c0.1,0,0.1,0.1,0.2,0.1c0-0.1,0-0.2,0-0.2c0-0.1,0-0.3,0-0.4c0-0.1,0-0.2,0-0.3c0-0.2,0.1-0.3,0.1-0.5c0-0.2,0.1-0.4,0.1-0.6
			c0.1-0.4,0.2-0.7,0.3-1.1c0-0.2,0.1-0.4,0.1-0.6c0,0,0-0.1,0-0.1c0-0.1,0.1-0.3,0.1-0.4c0.1-0.3,0.2-0.6,0.4-0.8
			c0.1-0.1,0.1-0.2,0.3-0.1c0.1,0,0.1,0.1,0.2,0.1c0.1,0.1,0.2,0.2,0.4,0.3c0.1,0.1,0.2,0.2,0.2,0.2c0.1,0.1,0.2,0.2,0.3,0.3
			c0.1,0.1,0.2,0.3,0.3,0.4c0.1,0.1,0.2,0.1,0.2,0.2c0.1,0.1,0.2,0.2,0.3,0.4c0,0,0,0,0,0.1c0.2-0.1,0.4-0.1,0.5-0.1
			c0.3-0.1,0.7,0,1,0c0.2,0,0.3,0,0.5,0.1c0.1,0,0.2,0,0.3,0c0.1,0,0.1,0,0.2,0c0-0.1,0.1-0.2,0.1-0.3c0.1-0.2,0.2-0.3,0.3-0.4
			c0.1-0.2,0.2-0.3,0.3-0.5c0.1-0.1,0.2-0.2,0.3-0.4c0.1-0.1,0.1-0.2,0.2-0.3c0.1-0.1,0.1-0.2,0.3-0.3c0.1-0.1,0.1-0.1,0.2-0.2
			c0.1-0.1,0.2-0.1,0.2-0.2c0,0,0.1,0,0.2,0c0,0,0.1,0,0.1,0.1c0,0.1-0.1,0.2-0.1,0.3c0,0,0,0,0,0.1c0.1,0,0.2,0,0.3,0
			c0.1,0,0.2,0.1,0.1,0.3c0,0.1-0.1,0.1-0.2,0.2c0,0-0.1,0.1,0,0.1c0,0.1,0.1,0.3,0.1,0.4c0.1,0.3,0.2,0.5,0.2,0.8
			c0.1,0.3,0.2,0.6,0.2,0.8c0.1,0.3,0.2,0.6,0.3,0.9c0.1,0.2,0.1,0.4,0.2,0.7c0,0.2,0.1,0.4,0.1,0.6c0,0.2,0.1,0.4,0.1,0.6
			c0.1,0,0.2-0.1,0.2-0.2c0-0.2,0-0.5,0.1-0.7c0-0.1,0-0.2,0.1-0.4c0-0.2,0.1-0.4,0.3-0.5c0.1-0.1,0.3-0.2,0.4-0.2
			c0.2,0,0.3,0.1,0.4,0.2c0.1,0.2,0.2,0.3,0.2,0.5c0,0.1,0,0.1,0.1,0.2c0,0.2,0,0.3,0,0.5c0,0.3,0,0.6,0,0.9c0,0.1,0,0.2,0,0.3
			c0,0.2-0.1,0.5-0.1,0.7c0,0.1-0.1,0.3-0.1,0.4c0,0.2-0.1,0.4-0.2,0.6c0,0.1-0.1,0.3-0.1,0.4c0,0.1-0.1,0.3-0.1,0.4
			c-0.1,0.2-0.2,0.5-0.3,0.7c-0.1,0.2-0.2,0.3-0.3,0.5c-0.1,0.2-0.2,0.3-0.3,0.5c-0.1,0.2-0.2,0.3-0.4,0.5c0,0-0.1,0.1-0.1,0.1
			c0,0,0.1,0,0.1,0c0.8,0,1.5,0,2.3,0c0.1,0,0.1,0,0.1,0.1c0.1,0.1,0.1,0.2,0.1,0.3c0.1,0.2,0.2,0.4,0.3,0.5
			c0.1,0.1,0.1,0.2,0.2,0.3c0.1,0.2,0.2,0.4,0.3,0.6c0.1,0.2,0.1,0.3,0.2,0.5c0.1,0.1,0.2,0.3,0.2,0.4c0.1,0.1,0.1,0.2,0.2,0.3
			c0,0.1,0,0.1,0,0.2c0,0.1,0,0.1,0,0.2c0,0.1,0,0.2-0.2,0.2c-0.2,0-0.4,0-0.6,0c-0.1,0-0.2,0-0.3,0c-0.2,0-0.3,0-0.5,0
			c0,0.1,0,0.2,0,0.4c0,0.1,0,0.1,0,0.2c0,0.1,0,0.3,0,0.4c0,0.4,0,0.8,0,1.2c0,0.3,0,0.5-0.1,0.8c0,0.2,0,0.3,0,0.5
			c0,0.2,0,0.4,0,0.6c0,0.1,0,0.2-0.1,0.3c0,0.1-0.1,0.2-0.1,0.3c0,0.1,0,0.1,0,0.2c0,0,0,0.1,0,0.1c0,0,0.1,0.1,0.1,0.1
			c0,0.1,0.1,0.2,0.1,0.3c0,0.2,0,0.4,0,0.6c0,0.1,0,0.1-0.1,0.1c0,0-0.1,0.1-0.1,0.1c0,0-0.1,0-0.1,0c-0.1,0-0.3,0-0.4,0
			c0,0,0,0-0.1,0c-0.5,0-1,0-1.5,0c-0.2,0-0.4,0-0.5,0c0,0,0,0-0.1,0c0,0.1-0.1,0-0.2,0c-0.2,0-0.5,0-0.7,0c-0.3,0-0.5,0-0.8,0
			c-0.2,0-0.4,0-0.6,0c-0.2,0-0.4,0-0.6,0c0,0-0.1,0-0.1,0c-0.6,0-1.1,0-1.7,0c-0.3,0-0.6,0-0.9,0c0,0,0,0,0,0
			C19,30.2,19,30.1,18.9,30.2C18.9,30.1,18.9,30.1,18.9,30.2L18.9,30.2L18.9,30.2z M23,18.9L23,18.9C23,18.9,23.1,18.9,23,18.9
			c0.2-0.1,0.4-0.2,0.5-0.3c0.2-0.2,0.4-0.3,0.6-0.5c0.2-0.2,0.3-0.3,0.4-0.5c0.1-0.2,0.3-0.3,0.4-0.5c0.1-0.1,0.1-0.2,0.2-0.2
			c0.1-0.1,0.3-0.3,0.4-0.4c0.1-0.1,0.1-0.2,0.2-0.3l0,0c-0.1,0-0.2,0-0.3,0c-0.1,0-0.2,0-0.2-0.1c0-0.1,0-0.2,0-0.2
			c0.1-0.1,0.2-0.2,0.3-0.4c0,0,0-0.1,0.1-0.1l-0.7,0.3c0-0.2,0-0.5,0-0.7c0-0.2,0-0.5-0.1-0.7c0-0.2-0.1-0.4-0.1-0.6
			c0-0.2-0.1-0.3-0.1-0.5c-0.1-0.4-0.2-0.8-0.3-1.3c-0.1-0.5-0.2-0.9-0.4-1.4c-0.1-0.2,0-0.3,0.1-0.4c0,0,0,0,0,0c0,0-0.1,0-0.1,0
			c-0.1,0-0.2,0.1-0.3-0.1c-0.1,0.1-0.1,0.1-0.2,0.2c0,0,0,0,0,0c-0.1,0.2-0.3,0.3-0.4,0.5c-0.3,0.5-0.7,1-1,1.5c-0.1,0-0.1,0-0.2,0
			c0,0-0.1,0-0.1,0c-0.1,0-0.3,0-0.4,0c-0.2,0-0.4-0.1-0.6-0.1c-0.2,0-0.5,0-0.7,0c-0.1,0-0.3,0-0.4,0.1c-0.1,0-0.2,0-0.2,0
			c-0.1,0-0.2-0.1-0.2-0.2c0-0.1-0.1-0.1-0.1-0.1c-0.2-0.2-0.4-0.4-0.6-0.7c0,0,0,0-0.1-0.1c-0.2-0.2-0.4-0.4-0.5-0.5
			c-0.1-0.1-0.3-0.2-0.4-0.4c0,0-0.1,0.1-0.1,0.1c-0.1,0.2-0.1,0.3-0.2,0.5c-0.1,0.3-0.2,0.5-0.2,0.8c-0.1,0.2-0.1,0.5-0.1,0.8
			c0,0.3-0.1,0.6-0.1,0.9c0,0.2-0.1,0.4-0.1,0.7c0,0.2-0.1,0.4-0.1,0.6c0,0.1,0,0.1,0,0.2c0,0,0,0.1,0,0.1c0,0.2,0,0.4,0,0.7
			c0,0.1,0,0.2,0,0.2c-0.2-0.1-0.4-0.2-0.6-0.3l0,0c0.1,0.1,0.1,0.3,0.2,0.4c0.1,0.2,0.2,0.4,0.3,0.6c0,0,0,0.1,0,0.1l-0.3,0
			c0,0,0,0.1,0.1,0.1c0.1,0.1,0.2,0.3,0.4,0.4c0.1,0.1,0.2,0.2,0.3,0.3c0.1,0.1,0.3,0.3,0.4,0.5c0.2,0.2,0.4,0.4,0.6,0.5
			c0.2,0.2,0.5,0.4,0.7,0.5c0.1,0,0.2,0.1,0.2,0.1c0.1,0.1,0.2,0.2,0.3,0.2c0,0,0.1,0,0.1,0.1c0.3,0.1,0.5,0.3,0.8,0.4
			c0,0,0,0,0.1,0l0.1,0l0,0c-0.1,0-0.2,0-0.3,0c0,0,0,0-0.1,0c0,0-0.1,0-0.1,0c-0.1,0-0.2,0-0.3-0.1c-0.2-0.1-0.3-0.1-0.5-0.2
			c-0.1,0-0.1-0.1-0.2-0.1c-0.3-0.1-0.6-0.2-0.8-0.4c-0.1,0-0.1,0-0.2,0c-0.2,0.1-0.3,0.3-0.5,0.5c-0.1,0.2-0.3,0.5-0.4,0.7
			c-0.1,0.1-0.1,0.3-0.1,0.4c0.3,0,0.5,0,0.7,0c0.2,0,0.4,0,0.5,0c0.4,0,0.9,0,1.3,0c0.6,0,1.2,0,1.7,0c0,0,0.1,0,0.1,0
			c0.4,0,0.8,0,1.2-0.1c0.1,0,0.1,0,0.2,0c0.5,0,1.1,0,1.6,0c0,0,0,0,0,0c0.1,0,0.3,0,0.4,0c0-0.1,0-0.2,0-0.2
			c0-0.2-0.1-0.4-0.2-0.6c-0.1-0.2-0.2-0.4-0.4-0.5c-0.1-0.1-0.2-0.2-0.2-0.3c0,0,0,0-0.1,0c-0.2,0.1-0.5,0.2-0.7,0.3
			c-0.1,0-0.1,0-0.2,0c-0.1,0-0.1,0-0.2,0.1c0,0-0.1,0-0.1,0c0,0,0,0-0.1,0c0.1-0.1,0.1-0.1,0.2-0.1c0.1,0,0.1-0.1,0.2-0.1
			C22.7,19.1,22.8,19,23,18.9L23,18.9z M26.1,14.9c0.1,0,0.1,0.1,0.1,0.2c0,0,0,0,0,0c0,0,0,0.1-0.1,0.1c0,0,0,0,0,0
			c-0.1,0.2-0.2,0.3-0.3,0.4c0,0,0,0.1,0,0.1c0.1,0,0.2,0,0.3,0c0.1,0,0.1,0.1,0.1,0.1c0,0.1,0,0.1,0,0.2c0,0.1-0.1,0.1-0.1,0.2
			c0,0,0,0,0,0c-0.2,0.2-0.3,0.4-0.5,0.6c-0.1,0.1-0.2,0.2-0.2,0.3c-0.1,0.3-0.2,0.5-0.3,0.8c-0.1,0.2-0.2,0.4-0.3,0.5
			c-0.1,0.2-0.2,0.3-0.3,0.5c-0.1,0.1-0.1,0.2-0.2,0.3c0,0,0,0,0,0.1c0.1,0.1,0.2,0.2,0.2,0.4c0.1,0.1,0.1,0.2,0.2,0.3
			c0,0.1,0.1,0.1,0.1,0.2c0.1-0.1,0.1-0.1,0.2-0.2c0.2-0.3,0.4-0.6,0.6-0.9c0.1-0.2,0.2-0.3,0.3-0.5c0.1-0.1,0.1-0.3,0.2-0.4
			c0.1-0.3,0.2-0.5,0.3-0.8c0.1-0.4,0.2-0.9,0.3-1.3c0.1-0.2,0.1-0.5,0.1-0.7c0-0.4,0-0.7,0-1.1c0-0.1,0-0.2,0-0.4
			c-0.1-0.2-0.1-0.4-0.2-0.5c0,0-0.1-0.1-0.1-0.1c-0.1,0-0.2,0.1-0.2,0.2c0,0.1-0.1,0.1-0.1,0.2c0,0.2-0.1,0.3-0.1,0.5
			c0,0.2,0,0.4,0,0.5c0,0,0,0,0,0C25.9,14.9,26,14.9,26.1,14.9z M27.1,24.4c0-0.1,0-0.3,0-0.4c0,0,0,0-0.1,0c-0.2,0-0.3,0-0.5,0
			c0,0-0.1,0-0.1,0c-0.1,0-0.3-0.1-0.4-0.3c-0.1-0.1-0.2-0.2-0.2-0.3c-0.2-0.3-0.4-0.6-0.7-0.9c-0.1-0.1-0.2-0.3-0.3-0.4
			c-0.1-0.2-0.2-0.3-0.3-0.5c0,0,0,0,0,0c0,0.2,0,0.4,0,0.6c0,0.2,0,0.4,0,0.6c0,0.3,0,0.5-0.1,0.8c0,0.1,0,0.1,0,0.2
			c0,0.4,0,0.7,0,1.1c0,0,0,0.1,0,0.1c0,0.1,0,0.3,0,0.4c0,0.3,0,0.7,0,1c0,0.4,0,0.9,0,1.3c0,0.2,0,0.4,0,0.7c0,0.4,0,0.8,0,1.2
			c0,0,0,0,0,0.1c0.1,0,0.2,0,0.3,0c0.1,0,0.3,0,0.4,0c0.5,0,0.9,0,1.4,0c0.1,0,0.3,0,0.4,0c0.1,0,0.1,0,0.1-0.1c0-0.1,0-0.2,0-0.2
			c0-0.2,0-0.3-0.1-0.5c-0.1-0.2-0.2-0.4-0.1-0.6c0-0.1,0.1-0.2,0.1-0.3c0-0.1,0-0.2,0.1-0.2c0-0.8,0-1.5,0-2.3c0-0.1,0-0.2,0-0.4
			c0-0.2,0-0.3,0-0.5c0,0,0,0,0,0C27.1,24.7,27.1,24.6,27.1,24.4z M14,20.9C13.9,20.9,13.9,20.9,14,20.9c-0.1,0-0.1,0-0.1,0
			c-0.2,0.2-0.4,0.5-0.6,0.7c-0.2,0.3-0.4,0.5-0.6,0.8c-0.2,0.2-0.4,0.5-0.6,0.7c-0.1,0.1-0.3,0.3-0.4,0.4c0,0-0.1,0.1-0.1,0.1
			c0.2,0,0.5,0,0.7,0.1c0.3,0,0.5,0,0.8,0c0.5,0,0.9,0,1.4,0c0.2,0,0.4,0,0.6,0c0.5,0,0.9,0,1.4,0c0.2,0,0.3,0,0.5,0
			c0.1,0,0.2,0,0.3-0.1c0.1-0.1,0.2-0.3,0.3-0.4c0.1-0.2,0.1-0.3,0.2-0.5c0-0.1,0.1-0.1,0.1-0.1c0.1,0,0.1,0,0.1,0.1
			c0,0,0,0.1,0.1,0.1c0,0.1,0,0.2,0.1,0.4c0,0.1,0,0.2,0.1,0.3c0,0,0.1,0,0.1,0c0.1,0,0.1,0,0.2,0c0.3,0,0.6,0,1,0
			c0.4,0,0.8,0,1.3,0c0.4,0,0.8,0,1.3,0c0,0,0,0,0.1,0c0.1-0.2,0.2-0.3,0.3-0.5c0.1-0.2,0.3-0.3,0.4-0.5c0.2-0.2,0.4-0.5,0.6-0.7
			c0.2-0.3,0.5-0.6,0.7-0.9c0,0,0.1-0.1,0.1-0.1c-0.1,0-0.2,0-0.3,0c-0.2,0-0.4-0.1-0.7-0.1c-0.2,0-0.4,0-0.6,0c-0.1,0-0.2,0-0.3,0
			c-0.2,0-0.3,0.1-0.5,0.1c-0.6,0-1.1,0-1.7,0c-0.4,0-0.9,0-1.3,0c-0.3,0-0.6,0-0.9,0c-0.5,0-1,0-1.5,0c-0.2,0-0.5,0-0.7,0
			c-0.1,0-0.1,0-0.2,0c-0.1,0-0.2,0-0.3,0c-0.2,0-0.4,0-0.6,0C14.3,20.9,14.1,20.9,14,20.9z M15.3,29.9c0.5,0,0.9,0,1.4,0
			c0.2,0,0.4,0,0.6,0c0.5,0,0.9,0,1.4,0c0.4,0,0.9,0,1.3,0c0.6,0,1.1,0,1.7,0c0.3,0,0.5,0,0.8,0c0.6,0,1.1,0,1.7,0
			c0,0,0.1,0,0.1-0.1c0-0.2,0-0.3,0-0.5c0-0.3,0-0.7,0-1c0-0.6,0-1.3,0-1.9c0-0.2,0-0.5,0-0.7c0-0.2,0-0.3,0-0.5c0-0.1,0-0.2,0-0.3
			c0-0.4,0-0.8,0-1.1c0-0.4,0-0.7,0-1.1c0,0,0,0,0,0c0-0.3,0-0.7,0-1c0,0,0,0,0-0.1c-0.1,0.1-0.1,0.2-0.2,0.3
			c-0.1,0.1-0.3,0.3-0.4,0.4c-0.2,0.3-0.5,0.6-0.7,0.9c-0.1,0.1-0.2,0.3-0.3,0.4c-0.1,0.1-0.1,0.2-0.2,0.3c0,0.1-0.1,0.1-0.2,0.2
			c-0.1,0.1-0.3,0.1-0.4,0.1c-0.1,0-0.1,0-0.2,0c-0.2,0-0.5,0-0.7,0c-0.3,0-0.5,0-0.8,0c-0.1,0-0.3,0-0.4,0c-0.1,0-0.3,0-0.4,0
			c-0.4,0-0.7,0-1.1,0c-0.1,0-0.2-0.1-0.2-0.2c0-0.1,0-0.2,0-0.3l0,0c0,0-0.1,0.1-0.1,0.1c-0.1,0.1-0.2,0.3-0.2,0.4
			c0,0.1-0.1,0.1-0.1,0.1c-0.1,0-0.2,0-0.3,0c-0.2,0-0.4,0-0.6,0l-0.2,0c0,0-0.1,0-0.1,0c-0.3,0-0.6,0-0.9,0c-0.2,0-0.5,0-0.7,0
			c-0.1,0-0.2,0-0.3,0c0,0-0.1,0-0.1,0.1c0,0.1,0,0.1,0,0.2c0,0.1,0,0.3,0,0.4c0,0.4,0,0.8,0,1.2c0,0,0,0.1,0,0.1
			c0,0.1,0.1,0.1,0.1,0.2c0.1,0.3,0,0.6-0.1,0.9c0,0.1-0.1,0.2-0.1,0.3c0,0.2,0,0.4-0.1,0.6c0,0,0,0.1,0,0.1c0,0.2,0,0.4,0,0.6
			c0,0.2,0,0.3,0,0.5c0,0.2,0,0.3,0,0.5c0.1,0,0.3,0,0.4,0c0.2,0,0.3,0,0.5,0C15.1,29.9,15.2,29.9,15.3,29.9z M28.8,23.7
			C28.8,23.7,28.8,23.7,28.8,23.7c-0.2-0.3-0.3-0.5-0.5-0.8c-0.1-0.2-0.2-0.4-0.4-0.7c-0.1-0.2-0.2-0.3-0.3-0.5
			c0-0.1-0.1-0.1-0.1-0.2c-0.1-0.2-0.2-0.4-0.4-0.6c0,0,0,0-0.1,0c-0.1,0-0.1,0-0.2,0c-0.1,0-0.3,0-0.4,0c-0.3,0-0.7,0-1,0
			c-0.2,0-0.4,0-0.5,0c-0.1,0-0.2,0-0.3,0c0,0-0.1,0-0.1,0c0,0,0,0,0,0.1c0.2,0.3,0.4,0.5,0.6,0.8c0.2,0.3,0.4,0.6,0.5,0.9
			c0.2,0.3,0.4,0.6,0.6,0.9c0,0,0,0,0.1,0c0.3,0,0.5,0,0.8,0c0,0,0.1,0,0.1,0c0.2,0,0.5,0,0.7,0.1c0.2,0,0.4,0,0.6,0
			C28.6,23.7,28.7,23.7,28.8,23.7L28.8,23.7z M24,19.1c0.1-0.3,0.4-0.5,0.5-0.8l0,0l-0.7,0.6C23.8,18.9,23.9,19,24,19.1z"/>
		<path class="st2" d="M12.2,22.6C12.1,22.6,12.1,22.7,12.2,22.6c-0.1,0.2-0.3,0.3-0.4,0.5c0,0,0,0-0.1,0.1c0,0,0,0,0,0
			C11.8,23,12,22.8,12.2,22.6C12.1,22.7,12.1,22.7,12.2,22.6L12.2,22.6L12.2,22.6L12.2,22.6L12.2,22.6L12.2,22.6L12.2,22.6z"/>
		<path class="st3" d="M11.7,23.1C11.7,23.1,11.7,23.1,11.7,23.1c0,0.1-0.1,0.1-0.1,0.2l0-0.1L11.7,23.1z"/>
		<path class="st3" d="M18.9,30.2L18.9,30.2L18.9,30.2C18.9,30.1,18.9,30.1,18.9,30.2c0.1,0,0.1,0,0.1,0
			C19,30.2,18.9,30.2,18.9,30.2z"/>
		<path class="st1" d="M12.1,22.6L12.1,22.6L12.1,22.6z"/>
		<path class="st1" d="M12.1,22.6L12.1,22.6L12.1,22.6z"/>
		<path class="st1" d="M12.1,22.6C12.1,22.7,12.1,22.7,12.1,22.6C12.1,22.7,12.1,22.7,12.1,22.6z"/>
		<path class="st1" d="M12.2,22.6L12.2,22.6C12.1,22.6,12.1,22.6,12.2,22.6L12.2,22.6L12.2,22.6L12.2,22.6z"/>
		<path class="st4" d="M21.5,23.9c0.1,0,0.1,0,0.2,0c0.2,0,0.3,0,0.4-0.1c0.1,0,0.1-0.1,0.2-0.2c0.1-0.1,0.1-0.2,0.2-0.3
			c0.1-0.1,0.2-0.3,0.3-0.4c0.2-0.3,0.5-0.6,0.7-0.9c0.1-0.1,0.2-0.3,0.4-0.4c0.1-0.1,0.1-0.2,0.2-0.3c0,0,0,0,0,0.1
			c0,0.3,0,0.7,0,1c0,0,0,0,0,0c0,0.4,0,0.7,0,1.1c0,0.4,0,0.8,0,1.1c0,0.1,0,0.2,0,0.3c0,0.2,0,0.3,0,0.5c0,0.2,0,0.5,0,0.7
			c0,0.6,0,1.3,0,1.9c0.1,0.3,0,0.7,0,1c0,0.2,0,0.3,0,0.5c0,0,0,0-0.1,0.1c-0.6,0.1-1.1,0.1-1.7,0c-0.3,0-0.5,0-0.8,0
			c-0.6,0-1.1,0-1.7,0c-0.4,0-0.9,0-1.3,0c-0.5,0-0.9,0-1.4,0c-0.2,0-0.4,0-0.6,0c-0.5,0-0.9,0-1.4,0c0,0,0,0,0,0
			c-0.1,0-0.1-0.1-0.2-0.1c-0.2-0.1-0.3-0.2-0.4-0.4c-0.1-0.1-0.2-0.3-0.3-0.4c0-0.1-0.1-0.1-0.1-0.2c-0.1-0.4-0.2-0.8-0.3-1.2
			c0,0,0,0,0,0c0-0.1,0-0.2,0.1-0.3c0.1-0.3,0.2-0.6,0.1-0.9c0-0.1-0.1-0.1-0.1-0.2c0,0,0-0.1,0-0.1c0-0.4,0-0.8,0-1.2
			c0.2,0,0.4,0,0.5,0c0.2,0,0.4,0,0.6-0.1c0.2,0,0.3,0,0.5,0c0.1,0,0.1,0,0.1-0.1c0.1-0.1,0.1-0.2,0.2-0.3c0-0.1,0.1-0.1,0.1-0.1
			c0,0,0,0,0.1,0c0.1,0,0.1,0,0.2,0c0,0.2,0,0.3,0.1,0.5c0,0.2,0.1,0.2,0.3,0.2c0.2,0,0.4,0,0.6,0c0.2,0,0.3,0,0.5,0
			c0.3,0,0.6,0,0.9,0c0.2,0,0.3,0,0.5,0c0.3,0,0.6,0,0.9,0c0.2,0,0.4,0,0.7,0c0.1,0,0.2,0,0.3-0.1c0.1-0.1,0.2-0.2,0.2-0.3
			C21.4,24.1,21.5,24,21.5,23.9z"/>
		<path class="st5" d="M23.4,10.2c0.1-0.1,0.1-0.1,0.2-0.2c0.1,0.1,0.2,0.1,0.3,0.1c0,0,0.1,0,0.1,0c0,0,0,0,0,0
			c-0.1,0.1-0.2,0.2-0.1,0.4c0.2,0.5,0.3,0.9,0.4,1.4c0.1,0.4,0.2,0.8,0.3,1.3c0,0,0,0,0,0c0,0.2,0,0.3,0,0.5c0,0.1,0,0.3,0,0.4
			c0,0.2,0,0.4,0,0.7c0,0.4,0,0.8,0,1.3c0,0,0,0,0,0.1c0.1,0,0.1-0.1,0.2-0.1c0,0,0.1,0,0.1,0c0,0,0,0,0,0.1c0,0.1,0,0.2,0,0.2
			c0,0,0,0,0.1,0c0.1,0,0.1,0,0.2,0c0,0,0.1,0,0.1,0c0,0,0,0.1,0,0.1c-0.1,0.2-0.2,0.3-0.3,0.5c0,0.1-0.1,0.2-0.1,0.2
			c-0.2,0.3-0.4,0.5-0.6,0.8c-0.1,0.1-0.2,0.2-0.3,0.3c-0.2,0.2-0.4,0.4-0.6,0.6c-0.1,0.1-0.1,0.1-0.2,0.2l0,0c0,0,0,0-0.1,0
			c-0.1,0.1-0.3,0.2-0.4,0.3c-0.1,0-0.1,0.1-0.2,0.1c0,0,0,0,0,0c-0.3,0.1-0.7,0.2-1,0.3c-0.2,0.1-0.4,0.1-0.6,0.1
			c-0.1,0-0.3,0-0.4-0.1c-0.1,0-0.2,0-0.4,0c0,0-0.1,0-0.1,0c0,0,0,0,0-0.1c-0.1,0-0.1-0.1-0.2-0.1c-0.3-0.2-0.7-0.4-1-0.6
			c-0.4-0.2-0.7-0.5-1-0.8c-0.1-0.1-0.3-0.2-0.4-0.3c-0.1-0.1-0.2-0.1-0.2-0.2c-0.2-0.3-0.4-0.5-0.7-0.8c-0.1-0.1-0.1-0.2-0.2-0.3
			c0,0,0-0.1,0-0.1c-0.1-0.2-0.2-0.4-0.3-0.6c-0.1-0.1-0.1-0.3-0.2-0.4l0,0c0.2,0.1,0.4,0.2,0.6,0.3c0-0.1,0-0.2,0-0.2
			c0-0.2,0-0.4,0-0.7c0,0,0-0.1,0-0.1c0-0.1,0-0.1,0-0.2c0-0.2,0.1-0.4,0.1-0.6c0-0.2,0.1-0.4,0.1-0.7c0-0.3,0.1-0.6,0.1-0.9
			c0-0.3,0.1-0.5,0.1-0.8c0.1-0.3,0.1-0.5,0.2-0.8c0.1-0.2,0.1-0.3,0.2-0.5c0,0,0-0.1,0.1-0.1l0.4,0.4c0,0.1,0.1,0.1,0.1,0.2
			c0.1,0.2,0.3,0.4,0.4,0.6c0.2,0.3,0.3,0.7,0.5,1c0,0.1,0.1,0.1,0.1,0c0.1-0.1,0.3-0.1,0.4-0.2c0.1,0,0.2,0,0.2,0
			c0.1,0,0.3,0,0.4-0.1c0.2,0,0.5,0,0.7,0c0.2,0,0.4,0,0.6,0.1c0.1,0,0.3,0,0.4,0c0,0,0.1,0,0.1,0c0.1,0,0.1,0,0.2,0
			c0.2,0.1,0.3,0.1,0.5,0.2c0,0,0.1,0,0.1,0c0.1,0,0.2,0,0.2,0c0,0.1,0,0.1,0.1,0.1c0.1,0,0.2,0,0.3,0c-0.1,0.1,0,0.1,0,0.2
			c0,0,0,0,0.1,0c0.2,0.1,0.3,0.1,0.5,0.2c0.1,0,0.2,0.1,0.3,0.1c0,0,0,0,0,0c0,0,0-0.1,0-0.1c0-0.1,0-0.2,0-0.3
			c0-0.3-0.1-0.6-0.1-0.9c0-0.4-0.1-0.7-0.2-1c0-0.1,0-0.2,0-0.3c0,0,0-0.1-0.1-0.1c0,0,0,0,0,0c0,0-0.1,0.1-0.1,0.1
			c-0.2,0.2-0.4,0.5-0.6,0.7c0,0,0,0,0-0.1c0.1-0.2,0.2-0.4,0.4-0.7C23.3,10.4,23.3,10.3,23.4,10.2z M17.2,10.9
			c0,0.1-0.1,0.2-0.1,0.3C17.1,11.5,17,11.7,17,12c0,0.1,0,0.3-0.1,0.4c0,0.1,0,0.2,0,0.4c0,0.1,0,0.3,0,0.4c0,0,0,0,0,0
			c0,0,0.1,0,0.1,0c0.3-0.1,0.5-0.2,0.8-0.3c0,0,0.1,0,0.1-0.1c0,0,0-0.1,0-0.1c0.1,0,0.2,0,0.2,0c0.1,0,0.1,0,0.1-0.1
			c0.1,0,0.2,0,0.3,0c0.1,0,0.1,0,0.1-0.1c-0.1-0.2-0.1-0.4-0.2-0.5c-0.1-0.2-0.3-0.5-0.4-0.7c-0.1-0.2-0.3-0.4-0.5-0.6
			c0,0-0.1-0.1-0.1-0.1c0,0-0.1,0-0.1,0c0,0,0,0,0,0C17.2,10.7,17.2,10.8,17.2,10.9z M20.5,18.7C20.5,18.7,20.5,18.8,20.5,18.7
			c0.1,0,0.2,0,0.3,0c0.2,0,0.4-0.1,0.6-0.2c0.2-0.1,0.4-0.4,0.5-0.6c0.1,0,0.1,0,0.2,0c0.2,0,0.4-0.1,0.6-0.2
			c0.1-0.1,0.1-0.1,0.2-0.2c0.2-0.2,0.2-0.5,0.1-0.7c0-0.1-0.1-0.1-0.2-0.1l0,0c-0.1-0.1-0.2-0.2-0.3-0.2c-0.1-0.1-0.2-0.1-0.4-0.1
			c-0.1,0-0.1,0-0.2,0c0,0-0.1,0-0.1,0c-0.1,0-0.3,0-0.4,0c0-0.1-0.1-0.2-0.2-0.2c0,0-0.1,0-0.1,0c-0.2-0.1-0.4-0.1-0.6,0
			c-0.1,0-0.3,0-0.4,0.1c-0.1,0-0.1,0-0.1,0.1c-0.1,0.1-0.1,0.2-0.1,0.2c-0.1,0-0.2,0-0.4,0c-0.2,0-0.4,0.1-0.6,0.1
			c-0.1,0-0.3,0.1-0.4,0.2c0,0-0.1,0-0.1,0.1c-0.1,0.1-0.1,0.3-0.1,0.4c0,0.2,0.1,0.4,0.3,0.5c0.1,0.2,0.4,0.3,0.6,0.3c0,0,0,0,0,0
			c0.2,0.2,0.5,0.5,0.8,0.6C20.2,18.7,20.3,18.7,20.5,18.7z M19.6,15.4c0,0.2,0.2,0.3,0.3,0.5c0-0.2-0.1-0.4-0.1-0.6
			c0-0.1,0-0.3,0-0.4c0,0,0-0.1-0.1-0.1c-0.1-0.2-0.2-0.3-0.3-0.4c-0.2-0.2-0.5-0.3-0.7-0.4c-0.2,0-0.4,0-0.6,0
			c-0.2,0.1-0.4,0.2-0.6,0.3c-0.1,0.1-0.1,0.2-0.1,0.3c0.1,0.2,0.2,0.4,0.3,0.6c0.1,0.1,0.2,0.3,0.4,0.4c0.1,0,0.2,0.1,0.3,0.1
			c0,0,0.1,0,0.1,0c0.2,0,0.4,0,0.5,0c0.1,0,0.2,0,0.3-0.1C19.4,15.6,19.5,15.5,19.6,15.4L19.6,15.4z M21.6,15.4
			C21.7,15.4,21.7,15.4,21.6,15.4c0.2,0.1,0.3,0.2,0.5,0.3c0.3,0.1,0.7,0.1,1-0.1c0.1,0,0.2-0.1,0.3-0.1c0.2-0.2,0.4-0.4,0.5-0.7
			c0-0.1,0-0.1,0.1-0.2c0-0.1,0-0.2,0-0.2c-0.1-0.1-0.2-0.2-0.3-0.2c0,0,0,0,0,0c-0.1-0.1-0.3-0.1-0.4-0.2c-0.2-0.1-0.4,0-0.6,0
			c-0.2,0-0.4,0.2-0.6,0.3c-0.1,0-0.1,0.1-0.2,0.2c-0.1,0.1-0.2,0.3-0.3,0.5c0,0.1-0.1,0.2-0.1,0.2c0,0.1-0.1,0.2-0.1,0.3
			c0,0.1-0.1,0.3-0.1,0.4l0,0C21.5,15.6,21.5,15.5,21.6,15.4L21.6,15.4z"/>
		<path class="st4" d="M14,20.9c0.2,0,0.4,0,0.5,0c0.2,0,0.4,0,0.6,0c0.1,0,0.2,0,0.3,0c0.1,0,0.1,0,0.2,0c0.2,0,0.5,0,0.7,0
			c0.5,0,1,0,1.5,0c0.3,0,0.6,0,0.9,0c0.4,0,0.9,0,1.3,0c0.6,0,1.1,0,1.7,0c0.2,0,0.3,0,0.5-0.1c0.1,0,0.2,0,0.3,0
			c0.2,0,0.4,0,0.6,0c0.2,0,0.4,0,0.7,0.1c0.1,0,0.2,0,0.3,0c0,0.1-0.1,0.1-0.1,0.1c-0.2,0.3-0.5,0.6-0.7,0.9
			c-0.2,0.2-0.4,0.5-0.6,0.7c-0.1,0.2-0.3,0.3-0.4,0.5c-0.1,0.1-0.2,0.3-0.3,0.5c0,0,0,0-0.1,0c-0.4,0-0.8,0-1.3,0
			c-0.4,0-0.8,0-1.3,0c-0.3,0-0.6,0-1,0c-0.1,0-0.1,0-0.2,0c0,0-0.1,0-0.1,0c0-0.1,0-0.2-0.1-0.3c0-0.1,0-0.2-0.1-0.4
			c0,0,0-0.1-0.1-0.1c0-0.1-0.1-0.1-0.1-0.1c-0.1,0-0.1,0-0.1,0.1c-0.1,0.2-0.1,0.3-0.2,0.5c-0.1,0.1-0.2,0.3-0.3,0.4
			c-0.1,0.1-0.2,0.1-0.3,0.1c-0.2,0-0.3,0-0.5,0c-0.5,0-0.9,0-1.4,0c-0.2,0-0.4,0-0.6,0c-0.5,0-0.9,0-1.4,0c-0.3,0-0.5,0-0.8,0
			c0-0.1,0.1-0.1,0.1-0.2c0.2-0.3,0.4-0.7,0.6-1c0.3-0.4,0.5-0.9,0.8-1.3C13.8,21.1,13.9,21,14,20.9z"/>
		<path class="st6" d="M27.1,24.4c0,0.1,0,0.3,0,0.4c0,0,0,0,0,0c0,0.2,0,0.3,0,0.5c0,0.1,0,0.2,0,0.4c0,0.8,0,1.5,0,2.3
			c0,0.1,0,0.2-0.1,0.2c0,0.1-0.1,0.2-0.1,0.3c-0.1,0.2,0,0.4,0.1,0.6c0.1,0.2,0.1,0.3,0.1,0.5c0,0.1,0,0.2,0,0.2
			c0,0.1,0,0.1-0.1,0.1c-0.1,0-0.3,0-0.4,0c-0.5,0-0.9,0-1.4,0c-0.1,0-0.3,0-0.4,0c-0.1,0-0.2,0-0.3,0c0,0,0,0,0-0.1
			c0-0.4,0-0.8,0-1.2c0-0.2,0-0.4,0-0.7c0-0.4,0-0.9,0-1.3c0-0.3,0-0.7,0-1c0-0.1,0-0.3,0-0.4c0,0,0-0.1,0-0.1c0-0.4,0-0.7,0-1.1
			c0-0.1,0-0.1,0-0.2c0-0.3,0.1-0.5,0.1-0.8c0,0,0,0,0,0.1c0,0.1,0.1,0.1,0.1,0.2c0.1,0.2,0.2,0.4,0.3,0.6c0.1,0.2,0.2,0.4,0.3,0.5
			c0,0.1,0.1,0.2,0.2,0.2c0.1,0,0.2,0,0.2,0c0.2,0,0.5,0,0.7,0C26.7,24.4,26.9,24.4,27.1,24.4z"/>
		<path class="st7" d="M28.8,23.7c-0.1,0-0.2,0-0.3,0c-0.2,0-0.4,0-0.6,0c-0.2,0-0.5,0-0.7-0.1c0,0-0.1,0-0.1,0c-0.3,0-0.5,0-0.8,0
			c0,0-0.1,0-0.1,0c-0.2-0.3-0.4-0.6-0.6-0.9c-0.2-0.3-0.3-0.6-0.5-0.9c-0.2-0.3-0.4-0.5-0.6-0.8c0,0,0,0,0-0.1c0,0,0.1,0,0.1,0
			c0.1,0,0.2,0,0.3,0c0.2,0,0.4,0,0.5,0c0.3,0,0.7,0,1,0c0.1,0,0.3,0,0.4,0c0.1,0,0.1,0,0.2,0c0,0,0.1,0,0.1,0
			c0.1,0.2,0.2,0.4,0.4,0.6c0,0.1,0.1,0.1,0.1,0.2c0.1,0.2,0.2,0.3,0.3,0.5c0.1,0.2,0.2,0.4,0.4,0.7C28.5,23.2,28.6,23.4,28.8,23.7
			C28.8,23.7,28.8,23.7,28.8,23.7z"/>
		<path class="st8" d="M19.9,19.7c0.1,0,0.2,0,0.4,0c0.1,0,0.3,0,0.4,0.1c0.2,0,0.4-0.1,0.6-0.1c0.3-0.1,0.7-0.2,1-0.3c0,0,0,0,0,0
			c-0.1,0-0.1,0.1-0.2,0.1c0,0,0,0,0.1,0c0,0,0.1,0,0.1,0c0.1,0,0.1,0,0.2-0.1c0.1,0,0.1,0,0.2,0c0.2-0.1,0.5-0.2,0.7-0.3
			c0,0,0.1,0,0.1,0c0.1,0.1,0.2,0.2,0.2,0.3c0.2,0.2,0.3,0.3,0.4,0.5c0.1,0.2,0.2,0.4,0.2,0.6c0,0.1,0,0.1,0,0.2c-0.1,0-0.3,0-0.4,0
			c0,0,0,0,0,0c-0.5,0-1.1,0-1.6,0c-0.1,0-0.1,0-0.2,0c-0.4,0.1-0.8,0-1.2,0.1c0,0-0.1,0-0.1,0c-0.1,0-0.2-0.1-0.3-0.1
			c-0.2-0.1-0.3-0.1-0.5-0.2c-0.1,0-0.2-0.1-0.3-0.1c-0.2-0.1-0.3-0.2-0.5-0.3c-0.1-0.1-0.1-0.1-0.2-0.2c0.1,0,0.2,0.1,0.3,0.1
			c0,0,0.1,0,0.1,0c0,0,0,0,0.1,0C19.7,19.7,19.8,19.7,19.9,19.7L19.9,19.7z"/>
		<path class="st9" d="M21.5,23.9c-0.1,0.1-0.1,0.2-0.2,0.3c-0.1,0.1-0.2,0.2-0.2,0.3c-0.1,0.1-0.2,0.1-0.3,0.1c-0.2,0-0.4,0-0.7,0
			c-0.3,0-0.6,0-0.9,0c-0.2,0-0.3,0-0.5,0c-0.3,0-0.6,0-0.9,0c-0.2,0-0.3,0-0.5,0c-0.2,0-0.4,0-0.6,0c-0.1,0-0.2,0-0.3-0.2
			c0-0.2-0.1-0.3-0.1-0.5c0.2,0,0.4,0,0.6,0c0.1,0,0.2,0,0.3,0c0.1,0,0.1-0.1,0.1-0.1c0.1-0.1,0.1-0.3,0.2-0.4c0,0,0.1-0.1,0.1-0.1
			l0,0c0,0.1,0,0.2,0,0.3c0,0.1,0.1,0.2,0.2,0.2c0.4,0,0.7,0,1.1,0c0.1,0,0.3,0,0.4,0c0.1,0,0.3,0,0.4,0c0.3,0,0.5,0,0.8,0
			C21,23.9,21.3,23.9,21.5,23.9z"/>
		<path class="st5" d="M19.2,19.7c0,0.1,0.1,0.2,0.2,0.2c0.1,0.1,0.3,0.2,0.5,0.3c0.1,0,0.2,0.1,0.3,0.1c0.2,0.1,0.3,0.1,0.5,0.2
			c0.1,0,0.2,0.1,0.3,0.1c-0.6,0-1.2,0-1.7,0c-0.4,0-0.9,0-1.3,0c-0.2,0-0.4,0-0.5,0c-0.2,0-0.5,0-0.7,0c0-0.1,0.1-0.3,0.1-0.4
			c0.1-0.2,0.2-0.5,0.4-0.7c0.1-0.2,0.3-0.4,0.5-0.5c0,0,0.1,0,0.2,0c0.3,0.2,0.5,0.3,0.8,0.4c0.1,0,0.1,0.1,0.2,0.1
			C18.9,19.6,19,19.6,19.2,19.7z"/>
		<path class="st10" d="M26,15.2c0,0,0-0.1,0.1-0.1c0-0.1,0-0.1,0-0.2c0,0,0,0,0,0c0-0.2,0-0.4,0-0.6c0-0.1,0-0.2,0-0.2
			c0-0.1,0-0.2,0-0.4c0.1-0.1,0.1-0.2,0.2-0.2c0,0,0.1,0,0.1,0.1c0.1,0.2,0.2,0.3,0.2,0.5c0,0.1,0,0.2,0,0.4c0,0.4,0,0.7,0,1.1
			c0,0.2,0,0.5-0.1,0.7c-0.1,0.4-0.2,0.9-0.3,1.3c-0.1,0.3-0.2,0.5-0.3,0.8c-0.1,0.1-0.1,0.3-0.2,0.4c-0.1,0.2-0.2,0.4-0.3,0.5
			c-0.2,0.3-0.4,0.6-0.6,0.9c-0.1,0.1-0.1,0.1-0.2,0.2c0-0.1-0.1-0.1-0.1-0.2c-0.1-0.1-0.1-0.2-0.2-0.3c0-0.1,0.1-0.1,0.1-0.2
			c0.1-0.2,0.3-0.4,0.4-0.5c0.2-0.3,0.3-0.6,0.5-0.9c0.1-0.2,0.2-0.4,0.2-0.6c0-0.1,0.1-0.2,0.1-0.4c0-0.1,0-0.2,0.1-0.3
			c0-0.2,0-0.4,0-0.5c0-0.1,0.1-0.1,0.1-0.2c0-0.1,0-0.1,0-0.2c0-0.1,0-0.1-0.1-0.1c0,0,0-0.1,0-0.1C26,15.5,26,15.4,26,15.2z"/>
		<path class="st11" d="M27.1,24.4c-0.2,0-0.4,0-0.6,0c-0.2,0-0.5,0-0.7,0c-0.1,0-0.2,0-0.2,0c-0.1,0-0.2-0.1-0.2-0.2
			c-0.1-0.2-0.2-0.4-0.3-0.5c-0.1-0.2-0.2-0.4-0.3-0.6c0-0.1-0.1-0.1-0.1-0.2c0,0,0,0,0-0.1c0-0.2,0-0.4,0-0.6c0-0.2,0-0.4,0-0.6
			c0,0,0,0,0,0c0.1,0.2,0.2,0.3,0.3,0.5c0.1,0.1,0.2,0.3,0.3,0.4c0.2,0.3,0.4,0.6,0.7,0.9c0.1,0.1,0.1,0.2,0.2,0.3
			c0.1,0.1,0.2,0.2,0.4,0.3c0,0,0.1,0,0.1,0c0.2,0,0.3,0,0.5,0c0,0,0,0,0.1,0C27.1,24.2,27.1,24.3,27.1,24.4z"/>
		<path class="st12" d="M23,18.9c0.1-0.1,0.1-0.1,0.2-0.2c0.2-0.2,0.4-0.4,0.6-0.6c0.1-0.1,0.2-0.2,0.3-0.3c0.2-0.2,0.4-0.5,0.6-0.8
			c0-0.1,0.1-0.1,0.1-0.2c0.1-0.2,0.2-0.3,0.3-0.5c0,0,0-0.1,0-0.1c0,0-0.1,0-0.1,0c-0.1,0-0.1,0-0.2,0c0,0,0,0-0.1,0
			c0-0.1,0-0.2,0-0.2c0,0,0-0.1,0-0.1c0,0-0.1,0-0.1,0c-0.1,0-0.1,0.1-0.2,0.1c0,0,0,0,0-0.1c0-0.4,0-0.8,0-1.3c0-0.2,0-0.4,0-0.7
			c0-0.1,0-0.3,0-0.4c0-0.2,0-0.3,0-0.5c0,0,0,0,0,0c0,0.2,0.1,0.3,0.1,0.5c0,0.2,0.1,0.4,0.1,0.6c0.1,0.2,0.1,0.5,0.1,0.7
			c0,0.2,0,0.5,0,0.7l0.7-0.3c0,0.1-0.1,0.1-0.1,0.1c-0.1,0.1-0.2,0.2-0.3,0.4c0,0.1-0.1,0.1,0,0.2c0,0,0.1,0.1,0.2,0.1
			c0.1,0,0.2,0,0.3,0l0,0c-0.1,0.1-0.1,0.2-0.2,0.3c-0.1,0.1-0.3,0.3-0.4,0.4C25,16.9,25,17,24.9,17.1c-0.1,0.2-0.2,0.4-0.4,0.5
			c-0.1,0.2-0.3,0.3-0.4,0.5c-0.2,0.2-0.4,0.3-0.6,0.5C23.4,18.7,23.2,18.8,23,18.9C23.1,18.9,23,18.9,23,18.9z"/>
		<path class="st8" d="M26,16.3c0,0.2,0,0.4,0,0.5c0,0.1,0,0.2-0.1,0.3c0,0.1-0.1,0.3-0.1,0.4c-0.1,0.2-0.2,0.4-0.2,0.6
			c-0.2,0.3-0.3,0.6-0.5,0.9c-0.1,0.2-0.3,0.4-0.4,0.5c0,0.1-0.1,0.1-0.1,0.2c-0.1-0.1-0.2-0.2-0.2-0.4c0,0,0-0.1,0-0.1
			c0-0.1,0.1-0.2,0.2-0.3c0.1-0.2,0.2-0.3,0.3-0.5c0.1-0.2,0.2-0.4,0.3-0.5c0.1-0.3,0.2-0.5,0.3-0.8c0.1-0.1,0.1-0.2,0.2-0.3
			C25.6,16.8,25.8,16.6,26,16.3C26,16.4,26,16.3,26,16.3z"/>
		<path class="st9" d="M16.3,24.1C16.3,24.2,16.2,24.2,16.3,24.1c-0.1,0-0.1,0.1-0.2,0.1c-0.1,0.1-0.1,0.2-0.2,0.3
			c0,0-0.1,0.1-0.1,0.1c-0.2,0-0.3,0-0.5,0c-0.2,0-0.4,0-0.6,0.1c-0.2,0-0.4,0-0.5,0c0-0.1,0-0.3,0-0.4c0-0.1,0-0.1,0-0.2
			c0,0,0-0.1,0.1-0.1c0.1,0,0.2,0,0.3,0c0.2,0,0.5,0,0.7,0c0.3,0,0.6,0,0.9,0C16.2,24.1,16.2,24.1,16.3,24.1z"/>
		<path class="st13" d="M14,20.9c-0.1,0.1-0.1,0.2-0.2,0.3c-0.3,0.4-0.5,0.9-0.8,1.3c-0.2,0.3-0.4,0.7-0.6,1c0,0.1-0.1,0.1-0.1,0.2
			c-0.2,0-0.5,0-0.7-0.1c0,0,0.1-0.1,0.1-0.1c0.1-0.1,0.3-0.3,0.4-0.4c0.2-0.2,0.4-0.5,0.6-0.7c0.2-0.3,0.4-0.5,0.6-0.8
			c0.2-0.2,0.4-0.5,0.6-0.7C13.8,20.9,13.9,20.9,14,20.9C13.9,20.9,13.9,20.9,14,20.9z"/>
		<path class="st14" d="M14.1,27.5C14.1,27.6,14.1,27.6,14.1,27.5c0.1,0.4,0.2,0.9,0.3,1.3c0,0.1,0.1,0.1,0.1,0.2
			c0.1,0.1,0.2,0.3,0.3,0.4c0.1,0.2,0.2,0.3,0.4,0.4c0.1,0,0.1,0.1,0.2,0.1c0,0,0,0,0,0c-0.1,0-0.2,0-0.4,0c-0.2,0-0.3,0-0.5,0
			c-0.1,0-0.3,0-0.4,0c0-0.2,0-0.3,0-0.5c0-0.2,0-0.3,0-0.5c0-0.2,0-0.4,0-0.6c0,0,0-0.1,0-0.1C14,28,14,27.8,14.1,27.5z"/>
		<path class="st15" d="M16.1,16.5c0.1,0.1,0.1,0.2,0.2,0.3c0.2,0.3,0.4,0.6,0.7,0.8c0.1,0.1,0.1,0.1,0.2,0.2
			c0.1,0.1,0.3,0.2,0.4,0.3c0.3,0.3,0.6,0.6,1,0.8c0.3,0.2,0.7,0.4,1,0.6c0.1,0,0.1,0.1,0.2,0.1c0,0,0,0,0,0.1c0,0,0,0-0.1,0
			c-0.3-0.1-0.5-0.3-0.8-0.4c0,0-0.1,0-0.1-0.1c-0.1,0-0.2-0.1-0.3-0.2c-0.1,0-0.1-0.1-0.2-0.1c-0.3-0.2-0.5-0.3-0.7-0.5
			c-0.2-0.2-0.4-0.4-0.6-0.5c-0.1-0.1-0.3-0.3-0.4-0.5c-0.1-0.1-0.2-0.2-0.3-0.3c-0.1-0.1-0.2-0.3-0.4-0.4c0,0,0-0.1-0.1-0.1
			L16.1,16.5z"/>
		<path class="st12" d="M19.2,12.2c-0.1,0.1-0.3,0.1-0.4,0.2c-0.1,0-0.1,0-0.1,0c-0.2-0.3-0.3-0.6-0.5-1c-0.1-0.2-0.3-0.4-0.4-0.6
			c0-0.1-0.1-0.1-0.1-0.2c0.2,0.2,0.4,0.4,0.5,0.5c0,0,0,0,0.1,0.1c0.2,0.2,0.4,0.4,0.6,0.7c0,0,0.1,0.1,0.1,0.1
			C19,12.1,19.1,12.2,19.2,12.2z"/>
		<path class="st15" d="M23.4,10.2c-0.1,0.1-0.1,0.2-0.2,0.4c-0.1,0.2-0.2,0.4-0.4,0.7c0,0,0,0,0,0.1c0,0,0,0.1-0.1,0.1
			c-0.2,0.3-0.4,0.6-0.5,0.9c0,0.1,0,0.1,0.1,0.1c0,0,0.1,0,0.1,0c0,0.1,0,0.1-0.1,0c-0.2-0.1-0.3-0.1-0.5-0.2c0.3-0.5,0.7-1,1-1.5
			C23.1,10.5,23.2,10.4,23.4,10.2C23.3,10.2,23.4,10.2,23.4,10.2z"/>
		<path class="st12" d="M26,13.7c0,0.1,0,0.2,0,0.4c0,0.1,0,0.2,0,0.2c0,0.2,0,0.4,0,0.6c-0.1,0-0.2,0-0.3,0.1c0,0,0,0,0,0
			c0-0.2,0-0.4,0-0.5c0-0.2,0.1-0.3,0.1-0.5C25.9,13.8,26,13.8,26,13.7z"/>
		<path class="st16" d="M24,19.1c-0.1-0.1-0.1-0.1-0.2-0.2l0.7-0.6l0,0C24.3,18.6,24.1,18.8,24,19.1z"/>
		<path class="st15" d="M26,15.2c0,0.2,0,0.3,0,0.5c0,0,0,0.1,0,0.1c-0.1,0-0.2,0-0.3,0c0-0.1,0-0.1,0-0.1
			C25.8,15.6,25.9,15.4,26,15.2C26,15.2,26,15.2,26,15.2z"/>
		<path class="st12" d="M23,18.9C23,18.9,23,18.9,23,18.9L23,18.9z"/>
		<path class="st2" d="M12.2,22.6C12.2,22.6,12.2,22.6,12.2,22.6L12.2,22.6C12.2,22.6,12.2,22.6,12.2,22.6L12.2,22.6z"/>
		<path class="st2" d="M12.2,22.6L12.2,22.6L12.2,22.6L12.2,22.6z"/>
		<path class="st2" d="M12.2,22.6L12.2,22.6L12.2,22.6L12.2,22.6L12.2,22.6z"/>
		<path class="st2" d="M12.2,22.6L12.2,22.6L12.2,22.6L12.2,22.6C12.2,22.6,12.2,22.6,12.2,22.6z"/>
		<path class="st17" d="M19.2,18c-0.2,0-0.5-0.1-0.6-0.3c-0.1-0.2-0.2-0.3-0.3-0.5c0-0.1,0-0.3,0.1-0.4c0,0,0.1,0,0.1-0.1
			c0.1,0,0.1,0.1,0.1,0.1c0,0,0,0.1,0,0.1c0,0.1,0,0.1,0,0.2c0,0.2,0.1,0.3,0.2,0.4c0.1,0.1,0.2,0.2,0.3,0.2c0.1,0,0.2,0,0.3,0
			c0,0,0.1,0,0.1,0c0.2,0,0.4-0.1,0.6-0.1c0.2-0.1,0.4-0.2,0.4-0.5c0-0.1,0-0.2-0.1-0.2c-0.1,0-0.1-0.1-0.2-0.1
			c-0.1-0.1-0.3-0.2-0.4-0.4c0-0.1,0-0.2,0.1-0.2c0,0,0.1-0.1,0.1-0.1c0.1,0,0.3,0,0.4-0.1c0.2,0,0.4,0,0.6,0c0,0,0.1,0,0.1,0
			c0.1,0,0.2,0.1,0.2,0.2c0,0.1,0,0.2-0.1,0.3c-0.1,0.1-0.3,0.3-0.5,0.4c0,0,0,0,0,0.1c0,0.2,0.1,0.5,0.3,0.6c0.2,0,0.3,0.1,0.5,0.1
			c0.2,0.1,0.4,0.1,0.5,0.1c0.1,0,0.3-0.1,0.3-0.2c0,0,0.1-0.1,0.1-0.2c0.1-0.1,0.2-0.4,0.1-0.5c0-0.1,0-0.1,0.1-0.2
			c0.1,0,0.1,0,0.2,0.1c0.1,0.3,0,0.5-0.1,0.7c-0.1,0.1-0.1,0.2-0.2,0.2c-0.1,0.2-0.4,0.2-0.6,0.2c-0.1,0-0.1,0-0.2,0
			c-0.1,0-0.2,0-0.2,0c-0.1,0-0.3-0.1-0.4-0.1c-0.1,0-0.3-0.1-0.4-0.2c-0.1-0.1-0.1-0.1-0.2-0.2c0,0.1-0.1,0.1-0.1,0.2
			c-0.1,0-0.1,0.1-0.2,0.1c-0.1,0-0.3,0.1-0.4,0.1C19.7,17.9,19.5,18,19.2,18z"/>
		<path class="st17" d="M21.5,15.1c0-0.1,0.1-0.2,0.1-0.2c0.1-0.2,0.2-0.3,0.3-0.5c0-0.1,0.1-0.1,0.2-0.2c0.2-0.1,0.4-0.3,0.6-0.3
			c0.2,0,0.4-0.1,0.6,0c0.1,0.1,0.3,0.1,0.4,0.2c0,0,0,0,0,0c0.1,0.1,0.2,0.1,0.3,0.2c0.1,0.1,0.1,0.1,0,0.2c0,0.1,0,0.1-0.1,0.2
			c-0.1,0.3-0.3,0.5-0.5,0.7c-0.1,0.1-0.2,0.1-0.3,0.1c-0.3,0.1-0.7,0.2-1,0.1c-0.1,0-0.3-0.1-0.4-0.2c0,0-0.1,0-0.1-0.1
			C21.6,15.3,21.5,15.2,21.5,15.1C21.5,15.1,21.5,15.1,21.5,15.1z M23.8,14.5c-0.2-0.2-0.6-0.4-0.7-0.3l0.1,0.1
			c-0.2,0.1-0.3,0.2-0.2,0.4c0,0,0.1,0.1,0.1,0.1c0.1,0.1,0.2,0,0.4-0.1c0,0.1,0,0.2,0,0.2c0,0.1-0.1,0.3-0.1,0.4
			C23.4,15.2,23.7,14.8,23.8,14.5z M21.9,14.8c-0.1,0.1-0.1,0.2-0.2,0.3l0.2,0.2l0,0C21.9,15.1,21.9,14.9,21.9,14.8L21.9,14.8z"/>
		<path class="st17" d="M19.6,15.4c-0.1,0.1-0.2,0.1-0.3,0.2c-0.1,0-0.2,0.1-0.3,0.1c-0.2,0-0.4,0-0.5,0c0,0-0.1,0-0.1,0
			c-0.1,0-0.2-0.1-0.3-0.1c-0.2-0.1-0.3-0.2-0.4-0.4c-0.1-0.2-0.3-0.4-0.3-0.6c0-0.2,0-0.2,0.1-0.3c0.2-0.1,0.4-0.2,0.6-0.3
			c0.2-0.1,0.4-0.1,0.6,0c0.3,0.1,0.5,0.2,0.7,0.4c0.1,0.1,0.2,0.3,0.3,0.4c0,0,0,0.1,0.1,0.1c0.1,0.1,0.1,0.2,0,0.4
			C19.7,15.3,19.7,15.4,19.6,15.4z M18,14.7c0.1,0,0.1,0,0.2,0.1c0.1,0,0.1,0,0.2,0c0.1,0,0.2-0.1,0.2-0.1c0-0.1,0-0.2-0.1-0.3
			c-0.1,0-0.1-0.1-0.2-0.1l0.1-0.1l0,0c-0.3,0.1-0.5,0.1-0.7,0.4c0.1,0.3,0.4,0.7,0.6,0.7c0-0.1-0.1-0.2-0.1-0.3
			C18,14.9,18,14.8,18,14.7z M19.4,14.8c0,0.2,0,0.4-0.1,0.5c0,0,0.1-0.1,0.1-0.1c0,0,0.1-0.1,0.1-0.1L19.4,14.8z"/>
		<path class="st18" d="M21.6,17.6c-0.2,0-0.3-0.1-0.5-0.1c-0.2-0.1-0.4-0.3-0.3-0.6c0,0,0,0,0-0.1c0.2-0.1,0.3-0.2,0.5-0.4
			c0.1-0.1,0.1-0.2,0.1-0.3c0.1,0,0.3,0,0.4,0c0,0,0.1,0,0.1,0c0.1,0,0.1,0,0.2,0c0.1,0,0.2,0.1,0.4,0.1c0.1,0,0.2,0.1,0.3,0.2
			c0,0-0.1,0-0.1,0.1c0,0.2,0,0.3-0.1,0.4c0,0.1-0.1,0.2-0.2,0.2c-0.2,0.1-0.4,0.2-0.6,0.2C21.8,17.6,21.7,17.6,21.6,17.6z"/>
		<path class="st18" d="M19.5,17.7c-0.1,0-0.2,0-0.3,0c-0.1,0-0.3-0.1-0.3-0.2c-0.1-0.1-0.2-0.2-0.2-0.4c0-0.1,0-0.1,0-0.2
			c0,0,0-0.1,0-0.1c0-0.1,0-0.1-0.1-0.1c0.1-0.1,0.2-0.2,0.4-0.2c0.2,0,0.4-0.1,0.6-0.1c0.1,0,0.2,0,0.4,0c0.1,0.2,0.3,0.3,0.4,0.4
			c0.1,0,0.1,0.1,0.2,0.1c0,0.1,0,0.3-0.1,0.4c-0.1,0.1-0.2,0.2-0.3,0.2C19.8,17.5,19.7,17.6,19.5,17.7
			C19.5,17.7,19.5,17.7,19.5,17.7z"/>
		<path class="st18" d="M19.2,18c0.2,0,0.5,0,0.7-0.1c0.1,0,0.3-0.1,0.4-0.1c0.1,0,0.1-0.1,0.2-0.1c0,0,0.1,0,0.1,0.1
			c0.1,0.1,0.2,0.2,0.3,0.2c0.2,0,0.4,0.1,0.6,0.1c0,0,0.1,0,0.1,0.1c-0.1,0.2-0.1,0.3-0.3,0.4c-0.2,0.1-0.4,0.2-0.7,0.2
			c0,0-0.1,0-0.1,0c-0.2,0-0.3-0.1-0.5-0.1C19.7,18.5,19.5,18.2,19.2,18C19.2,18,19.2,18,19.2,18z"/>
		<path class="st19" d="M23.6,10.7c0.1,0.3,0.2,0.7,0.2,1c0,0.3,0.1,0.6,0.1,0.9c0,0.1,0,0.2,0,0.3c0,0,0,0.1,0,0.1
			c-0.1-0.1-0.2-0.1-0.2-0.2c0,0,0,0,0-0.1c0-0.1-0.1-0.2-0.2-0.3c-0.1-0.2-0.2-0.4-0.2-0.6c-0.1-0.2-0.1-0.4,0-0.6
			C23.4,11.1,23.5,10.9,23.6,10.7L23.6,10.7z"/>
		<path class="st19" d="M16.9,13.2c0-0.1,0-0.3,0-0.4c0-0.1,0-0.2,0-0.4c0-0.1,0-0.3,0.1-0.4c0-0.3,0.1-0.5,0.1-0.8
			c0-0.1,0.1-0.2,0.1-0.3c0-0.1,0.1-0.1,0.1-0.2l0,0c0,0,0,0.1,0,0.1c0.1,0.3,0.2,0.6,0.2,0.9c0,0.2,0,0.4-0.1,0.6
			c-0.1,0.2-0.2,0.4-0.3,0.6c0,0,0,0,0,0.1C17,13.1,17,13.1,16.9,13.2z"/>
		<path class="st20" d="M16.9,13.2c0.1,0,0.1-0.1,0.2-0.1c0.2-0.1,0.3-0.2,0.5-0.3c0.1,0,0.1,0,0.2-0.1c0,0,0,0,0,0c0,0,0,0-0.1-0.1
			c0,0,0.1,0,0.1-0.1c0,0,0,0,0,0c0.1,0,0.2,0,0.2,0l-0.1-0.1l0,0l0.5,0c0,0,0,0,0,0c-0.1-0.1-0.1-0.3-0.2-0.4
			c-0.2-0.4-0.5-0.8-0.8-1.1c0,0-0.1-0.1-0.1-0.1l0,0c0,0.1-0.1,0.1-0.1,0.2c0-0.1,0-0.2,0-0.3c0,0,0-0.1,0.1-0.1c0,0,0,0,0,0
			c0,0,0.1,0,0.1,0.1c0.2,0.2,0.3,0.4,0.5,0.6c0.2,0.2,0.3,0.4,0.4,0.7c0.1,0.2,0.2,0.3,0.2,0.5c0,0.1,0,0.1-0.1,0.1
			c-0.1,0-0.2,0-0.3,0c0,0.1,0,0.1-0.1,0.1c-0.1,0-0.2,0-0.2,0c0,0,0,0.1,0,0.1c0,0-0.1,0.1-0.1,0.1C17.5,12.9,17.3,13.1,16.9,13.2
			C17,13.2,16.9,13.2,16.9,13.2C16.9,13.2,16.9,13.2,16.9,13.2z"/>
		<path class="st20" d="M23.7,12.9c0.1,0.1,0.2,0.1,0.2,0.2c0,0,0,0,0,0c-0.1,0-0.2-0.1-0.3-0.1c-0.2-0.1-0.3-0.1-0.5-0.2
			c0,0,0,0-0.1,0c-0.1,0-0.1-0.1,0-0.2c-0.1,0-0.2,0-0.3,0c-0.1,0-0.1,0-0.1-0.1c-0.1,0-0.2,0-0.2,0c0,0-0.1,0-0.1,0
			c-0.1,0-0.1-0.1-0.1-0.1c0.1-0.3,0.3-0.6,0.5-0.9c0,0,0-0.1,0.1-0.1c0.2-0.2,0.4-0.5,0.6-0.7c0,0,0.1-0.1,0.1-0.1c0,0,0.1,0,0.1,0
			c0,0,0,0,0,0c0,0.1,0,0.2,0,0.3c0,0,0,0-0.1-0.1c0,0,0-0.1,0-0.1c-0.5,0.5-0.9,1.1-1.1,1.7c0.2,0,0.3,0,0.5,0l-0.1,0.1
			c0,0,0.1,0,0.1,0c0.1,0,0.1,0,0.2,0c0,0,0,0,0,0c0,0,0,0,0,0.1c0,0,0,0-0.1,0c0.1,0,0.1,0,0.2,0.1C23.4,12.7,23.6,12.8,23.7,12.9z
			"/>
		<path class="st21" d="M20.5,18.7c0,0,0.1,0,0.1,0c0.2,0,0.5-0.1,0.7-0.2c0.2-0.1,0.2-0.3,0.3-0.4c0,0,0-0.1-0.1-0.1
			c-0.2,0-0.4-0.1-0.6-0.1c-0.1,0-0.2-0.1-0.3-0.2c0,0-0.1-0.1-0.1-0.1c0-0.1,0.1-0.1,0.1-0.2c0.1,0.1,0.1,0.1,0.2,0.2
			c0.1,0.1,0.3,0.1,0.4,0.2c0.1,0,0.3,0.1,0.4,0.1c0.1,0,0.2,0,0.2,0c-0.1,0.3-0.2,0.5-0.5,0.6c-0.2,0.1-0.4,0.2-0.6,0.2
			C20.7,18.8,20.6,18.8,20.5,18.7C20.5,18.8,20.5,18.7,20.5,18.7z"/>
		<path class="st22" d="M21.6,17.6c0.1,0,0.1,0,0.2,0c0.2,0,0.4-0.1,0.6-0.2c0.1-0.1,0.1-0.1,0.2-0.2c0.1-0.1,0.1-0.3,0.1-0.4
			c0-0.1,0-0.1,0.1-0.1c0,0,0,0,0,0c-0.1,0-0.1,0.1-0.1,0.2c0.1,0.2,0,0.4-0.1,0.5c0,0-0.1,0.1-0.1,0.2c-0.1,0.1-0.2,0.2-0.3,0.2
			C22,17.7,21.8,17.7,21.6,17.6z"/>
		<path class="st8" d="M19.6,15.4c0.1,0,0.1-0.1,0.2-0.1c0,0.2,0.1,0.4,0.1,0.6C19.8,15.8,19.7,15.6,19.6,15.4z"/>
		<path class="st8" d="M21.5,15.1C21.5,15.1,21.5,15.1,21.5,15.1c0,0.1,0,0.2,0.1,0.3c-0.1,0.1-0.2,0.3-0.3,0.4l0,0
			c0-0.1,0.1-0.3,0.1-0.4C21.5,15.3,21.5,15.2,21.5,15.1z"/>
		<path class="st22" d="M19.5,17.7C19.5,17.7,19.5,17.7,19.5,17.7c0.2-0.1,0.4-0.1,0.5-0.2c0.1-0.1,0.2-0.1,0.3-0.2
			c0.1-0.1,0.1-0.2,0.1-0.4c0.1,0,0.2,0,0.1,0.2c0,0.2-0.2,0.4-0.4,0.5C19.9,17.6,19.7,17.6,19.5,17.7
			C19.5,17.7,19.5,17.7,19.5,17.7z"/>
		<path class="st23" d="M23.8,14.5c-0.1,0.3-0.4,0.7-0.6,0.7c0.1-0.1,0.1-0.2,0.1-0.4c0-0.1,0-0.1,0-0.2c-0.1,0.1-0.2,0.1-0.4,0.1
			c0,0-0.1-0.1-0.1-0.1c-0.1-0.2,0-0.3,0.2-0.4L23,14.2C23.2,14.2,23.6,14.3,23.8,14.5z"/>
		<path class="st24" d="M21.9,14.8c0,0.2,0,0.4,0.1,0.5l0,0l-0.2-0.2C21.8,15,21.9,14.9,21.9,14.8z"/>
		<path class="st23" d="M18,14.7c0,0.1,0,0.2,0,0.3c0,0.1,0.1,0.2,0.1,0.3c-0.2,0-0.5-0.5-0.6-0.7c0.2-0.2,0.5-0.3,0.7-0.4l0,0
			l-0.1,0.1c0.1,0,0.1,0,0.2,0.1c0.1,0.1,0.1,0.2,0.1,0.3c0,0.1-0.1,0.1-0.2,0.1c-0.1,0-0.1,0-0.2,0C18.1,14.7,18.1,14.7,18,14.7z"
			/>
		<path class="st24" d="M19.4,14.8l0.2,0.3c0,0-0.1,0.1-0.1,0.1c0,0-0.1,0.1-0.1,0.1C19.5,15.1,19.4,14.9,19.4,14.8z"/>
		<path class="st25" d="M23.7,12.9c-0.2-0.1-0.3-0.2-0.5-0.2c-0.1,0-0.1,0-0.2-0.1c0,0,0,0,0.1,0c0,0,0,0,0-0.1c0,0,0,0,0,0
			c-0.1,0-0.1,0-0.2,0c0,0-0.1,0-0.1,0l0.1-0.1c-0.2,0-0.3-0.1-0.5,0c0.3-0.7,0.7-1.2,1.1-1.7c0,0.1,0,0.1,0,0.1
			c-0.1,0.2-0.2,0.4-0.3,0.7c0,0.2,0,0.4,0,0.6c0.1,0.2,0.1,0.4,0.2,0.6C23.6,12.6,23.7,12.7,23.7,12.9
			C23.7,12.8,23.7,12.8,23.7,12.9z"/>
		<path class="st25" d="M17.4,10.7C17.4,10.8,17.4,10.8,17.4,10.7c0.4,0.4,0.6,0.8,0.9,1.2c0.1,0.1,0.1,0.3,0.2,0.4c0,0,0,0,0,0
			l-0.5,0l0,0l0.1,0.1c-0.1,0-0.2,0-0.2,0c0,0,0,0,0,0c0,0-0.1,0-0.1,0.1c0,0,0,0,0.1,0.1c0,0,0,0,0,0c-0.1,0-0.1,0-0.2,0.1
			c-0.2,0.1-0.3,0.2-0.5,0.3c0,0,0,0,0-0.1c0.2-0.2,0.3-0.4,0.3-0.6c0.1-0.2,0.1-0.4,0.1-0.6c0-0.3-0.1-0.6-0.2-0.9
			C17.3,10.8,17.4,10.8,17.4,10.7z"/>
	</g>
</g>
</svg>
