<?xml version="1.0" encoding="utf-8"?>
<!-- Generator: Adobe Illustrator 22.0.0, SVG Export Plug-In . SVG Version: 6.00 Build 0)  -->
<svg version="1.1" id="Layer_1" xmlns="http://www.w3.org/2000/svg" xmlns:xlink="http://www.w3.org/1999/xlink" x="0px" y="0px"
	 viewBox="0 0 40 40" style="enable-background:new 0 0 40 40;" xml:space="preserve">
<style type="text/css">
	.st0{fill:url(#SVGID_1_);}
	.st1{fill:#FFFFFF;}
	.st2{fill:#94A6C3;}
	.st3{fill:#1B314F;}
	.st4{fill:#FFD923;}
	.st5{fill:#D82122;}
</style>
<linearGradient id="SVGID_1_" gradientUnits="userSpaceOnUse" x1="254.6419" y1="1828.1785" x2="291.9336" y2="1828.1785" gradientTransform="matrix(6.123234e-17 1 1 -6.123234e-17 -1808.1785 -253.4169)">
	<stop  offset="1.200001e-03" style="stop-color:#ECF3FF"/>
	<stop  offset="1" style="stop-color:#94A6C4"/>
</linearGradient>
<path class="st0" d="M37,26.2V13.6c0-2.1-1.1-4.1-3-5.2L23,2.1c-1.8-1.1-4.2-1.1-6,0L6,8.4c-1.9,1.1-3,3.1-3,5.2v12.6
	c0,2.1,1.1,4.1,3,5.2l11,6.3c1.8,1.1,4.2,1.1,6,0l11-6.3C35.8,30.3,37,28.4,37,26.2z"/>
<path class="st1" d="M14.5,20.3l0.6-4.2l-4.8-3.3l4.4,1.5l1-1.6l3.8-2.4l8.4,4.6l0.4,7l-3.7,5.2l-2.9,0.5l1.5-2.8v-2.7L22,20
	l-1.1-0.8L19.2,21v1.9l-1.4,1.3l-1.7,0.2l-0.8,0.4l-1.2-0.4l-0.5-1.9l0.9-1.3V20.3z"/>
<path class="st2" d="M22.2,12.7c-0.9-0.2-1.9-0.1-1.9-0.1s-0.3,1.5-2.4,1.9C17.9,14.5,20.6,15.4,22.2,12.7z"/>
<path class="st2" d="M23,26.5c1.1-0.9,1.9-2.1,2.3-3.4c0-0.1,0.2-0.1,0.3-0.2c0.2-0.1,0.3-0.2,0.4-0.3c0.1-0.4,0.1-0.8,0.1-1.2
	c0-0.2-0.2-0.3-0.3-0.5c-0.1-0.1-0.2-0.2-0.2-0.3c-0.2-1.6-0.9-3.1-2.1-4.1l-0.1,0.1c1.1,1.1,1.9,2.5,2,4c0,0.1,0.2,0.3,0.3,0.4
	c0.1,0.1,0.3,0.3,0.3,0.3c0,0.4,0,0.8-0.1,1.2c0,0.1-0.2,0.1-0.3,0.2c-0.2,0.1-0.3,0.2-0.4,0.3c-0.4,1.5-1.4,2.8-2.6,3.6
	c0.2-0.5,0.9-2.1,1.3-2.9l-0.1-2.5l-2.2-2.1l-1.2,0.2L19,21.5c0,0,0.6,0.8-0.3,1.8c-0.9,0.9-1.6,1.1-1.6,1.1l-0.6-0.3
	c0.2-0.2,0.6-0.6,0.9-0.8c0.5-0.4,1-0.5,1-0.9c0-0.9-1-0.7-1-0.7L17,22l-0.1,1.2l-0.8,1H16l-1.2-0.3c0,0,0.8-0.4,0.9-0.8
	c0.1-0.4-0.2-1.9-0.3-2c0,0,0.4,0.3,0.5,0.8c0.3-0.8,0.6-1.5,0.7-1.6c0.1-0.1,1.5-0.8,1.5-0.8l-0.5,1.2l0.3-0.2l0.8-2
	c0,0,0.8-0.4,1.4-0.4c1.1,0,2.7-1.4,2-3.7c0.2,0.1,3.8,1.9,4.4,5.4C27.2,22.5,25.6,25.1,23,26.5z"/>
<path class="st3" d="M18.9,13.1c0.4-0.5,0.2-1.2,0.2-1.2L18,13.6C18,13.6,18.4,13.7,18.9,13.1z"/>
<path class="st3" d="M15,22.5l0.1-0.7c0,0-0.6,1-0.6,1.1c-0.1,0.2,0,0.4,0.3,0.4c0.2,0,0.5-0.3,0.5-0.6C15.3,22.4,15,22.5,15,22.5z"
	/>
<path class="st3" d="M25.3,11.4c0,0,0.9,0,1.8,0.1c-2-1.6-4-2.1-5.5-2.1c-2.1,0-3.6,0.9-3.7,0.9l0.7-1.1c0,0-2.7-0.3-3.7,2.6
	c-0.2-0.6-0.5-1.5-0.5-1.5s-1.4,1.2-0.7,3.3c-1.6-0.6-3.9-1.4-4-1.4s-0.2,0-0.2,0s0,0.1,0.1,0.1c0.2,0.2,3.8,2.8,4.6,3.4
	c-0.2,0.6-0.2,0.9,0,1.2c0.2,0.4,0.3,0.6,0.2,0.9c0,0.3-0.3,2.8-0.4,3.2c-0.1,0.3-0.8,1.4-0.8,1.7c0,0.3,0.5,1.7,0.9,1.9
	c0.3,0.1,1,0.3,1.5,0.3c0.2,0,0.3,0,0.4-0.1c0.3-0.3,0.4-0.3,0.6-0.3c0,0,0,0,0.1,0s0.2,0,0.3,0c0.3,0,0.6-0.1,0.9-0.3
	c0.4-0.4,1-0.9,1.2-1.1c0.3-0.3,0.4-0.8,0.3-1.2c-0.1-0.4,0.2-0.8,0.4-1.1c0.3-0.4,0.9-1.2,0.9-1.2c1.2,0.9,1.9,2.3,1.9,3.8
	c0,2.7-2.4,4.9-5.3,4.9c-0.5,0-0.9-0.1-1.3-0.2c1.3,0.5,2.5,0.6,3.4,0.6c2,0,3-0.7,3-0.7s-0.4,0.5-1,1l0,0c3.2-0.5,4.8-3.1,4.8-3.1
	s-0.1,0.9-0.3,1.5c4.3-3.2,3.6-7.3,3.6-7.4c0,0.1,0.5,0.6,0.7,0.8C31.1,13.7,25.3,11.4,25.3,11.4z M18.7,22.8
	c-0.1,0.1-0.4,0.3-0.6,0.5c-0.2,0.2-0.4,0.4-0.6,0.6C17.4,24,17.3,24,17.1,24c-0.1,0-0.1,0-0.2,0h-0.1h-0.1c-0.1,0-0.1,0-0.2,0
	c0.3-0.3,1-1.1,1.3-1.3c0.3-0.2,0.5-0.4,0.3-0.8c-0.2-0.4-0.7-0.3-0.7-0.3s0.3-0.1,0.6-0.1c-0.3-0.1-0.7,0-0.9,0.2s-0.2,0.9-0.3,1.3
	c-0.1,0.5-0.4,0.7-0.8,1.1c-0.2,0.2-0.4,0.3-0.6,0.3c-0.3-0.1-0.6-0.1-0.9-0.2c-0.2-0.2-0.4-1-0.5-1.3c0.1-0.2,0.3-0.5,0.4-0.7
	c0.2-0.4,0.3-0.6,0.4-0.8c0.1-0.3,0.3-2.1,0.4-2.9c0.2,0.3,0.5,0.8,0.5,1.1c0.5-0.7,0.1-1.4,0-1.7c-0.2-0.3-0.4-0.8-0.2-1.4
	c0.2-0.6,0.8-2.2,0.8-2.2s0.2,0.4,0.5,0.3c0.3-0.1,2.7-3.6,2.7-3.6s0.6,1.4,0,2.4c-0.7,1-1.4,1.2-1.4,1.2s1,0.2,1.8-0.5
	c0.4,0.8,0.7,1.7,0.7,1.9c-0.1,0.1-0.7,1.8-0.8,1.9c0,0-0.3,0.1-0.5,0.1c-0.3,0.1-0.5,0.1-0.5,0.2c-0.1,0.1-0.7,1.6-0.9,2.4
	c-0.3,0.1-0.6,0.3-0.8,0.6c0.1-0.1,0.5-0.1,0.8-0.2c0.2,0,1,0.4,1.2,1.1l0,0C18.9,22.4,18.8,22.6,18.7,22.8z M17,23
	c0.2-0.2,0.1-0.6,0.2-0.7c0-0.1,0.1-0.3,0.2-0.4c0.1,0,0.5,0,0.5,0.3c0,0.2-0.2,0.3-0.4,0.4C17.3,22.7,17.1,23,17,23z M23.9,19.7
	c0.2-0.9,0.2-1.6,0.1-2.3c0.7,0.9,1.1,2,1.2,3.1c0,0.1,0.2,0.3,0.3,0.4c0.1,0.1,0.3,0.2,0.3,0.3c0,0.4,0,0.8-0.1,1.2
	c0,0.1-0.2,0.1-0.3,0.2c-0.2,0.1-0.3,0.2-0.4,0.3c-0.4,1.3-1.2,2.5-2.3,3.3C24.4,24.7,25.2,21.9,23.9,19.7z M22.9,26.5
	c1.1-0.9,2-2.1,2.4-3.4c0-0.1,0.2-0.1,0.3-0.2c0.2-0.1,0.3-0.2,0.4-0.3c0-0.4,0-0.9,0-1.3c0-0.2-0.2-0.3-0.3-0.5
	c-0.1-0.1-0.2-0.2-0.2-0.3c-0.1-1.3-0.6-2.5-1.4-3.4c-0.3-2.1-1.7-2.7-1.8-2.7c0,0.1,0.9,1.4,0.3,2.9s-2.3,1.3-2.4,1.3
	s-0.7,0.7-1.4,2c-0.1,0-0.5-0.1-0.9-0.1c0.3-0.9,0.8-2.1,0.9-2.2c0,0,0.3-0.1,0.5-0.2c0.3-0.1,0.5-0.1,0.5-0.2s0.2-0.5,0.4-0.9
	c0.2,0,0.6,0,0.6-0.1c0,0,0.4-0.9,0.4-1s-0.7-1.8-0.9-2.4c0.1-0.1,0.2-0.3,0.4-0.5c3.6,0.4,6.3,3.4,6.3,7.1
	C26.9,23,25.2,25.4,22.9,26.5z"/>
<path class="st3" d="M18.2,17.2c0.3-0.4,0.2-1.1-0.5-1.2c0.2-0.4,0.4-1.1,0.4-1.1s-1.8,2.8-1.9,2.8c-0.2,0.1-0.3-0.6-0.3-0.6
	c-0.3,1.3,0.6,1.4,0.7,1C17.1,18.1,17.9,17.5,18.2,17.2z"/>
<path class="st4" d="M16.7,17.9l0.9-1.5c0,0,0.5,0.3,0.3,0.7C17.6,17.5,16.7,17.9,16.7,17.9z"/>
<path class="st5" d="M27.9,25c-0.3,0.3-0.6,0.7-0.9,1.1c2.2-4.3,0.1-8.2,0-8.4c0.2,0.2,0.3,0.3,0.5,0.5C29.2,20.1,29.4,22.9,27.9,25
	z"/>
<path class="st5" d="M30,19.5c-0.8-2.1-1.9-3.9-4.3-5.5s-4.9-1.4-5-1.4l0,0c0.1,0,0.2-0.1,0.3-0.1c0.5-0.2,1.2-0.3,1.9-0.4
	c1.8-0.3,3.7,0.4,5,1.7l0,0C29.2,15.4,29.9,17.3,30,19.5z"/>
<path class="st5" d="M25.1,10.9c-2.6-0.5-4.2-0.2-5.4,0.2c0-0.1-0.2-0.4-0.3-0.6c-0.4,0.4-0.7,1-1,1.3c-0.7,0.5-0.9,0.9-0.9,0.9
	c0.4-1.3,1.5-2.3,2.8-2.5c0.4-0.1,0.8-0.1,1.2-0.1C22.7,10,23.9,10.3,25.1,10.9z"/>
<path class="st5" d="M15.5,14.2c-2-0.1-1.4-2.4-1.3-2.6C14.2,11.7,14.3,13.5,15.5,14.2z"/>
<path class="st5" d="M17.5,10c-1.6,0.9-1.2,3.2-1.2,3.2C14.8,10.9,17.4,10,17.5,10z"/>
<path class="st1" d="M15,14.8c0.1,0.1,0.2,0.2,0.1,0.5c-0.1,0.1-0.2,0.1-0.3,0c-0.2-0.1-1.5-0.8-2.6-1.6
	C13.4,14.2,14.7,14.7,15,14.8C14.9,14.8,14.9,14.8,15,14.8z"/>
<title>Asset 1</title>
</svg>
