<?xml version="1.0" encoding="utf-8"?>
<!-- Generator: Adobe Illustrator 22.0.0, SVG Export Plug-In . SVG Version: 6.00 Build 0)  -->
<svg version="1.1" id="Layer_1" xmlns="http://www.w3.org/2000/svg" xmlns:xlink="http://www.w3.org/1999/xlink" x="0px" y="0px"
	 viewBox="0 0 40 40" style="enable-background:new 0 0 40 40;" xml:space="preserve">
<style type="text/css">
	.st0{fill:url(#SVGID_1_);}
</style>
<linearGradient id="SVGID_1_" gradientUnits="userSpaceOnUse" x1="344.6419" y1="-1696.1785" x2="381.9336" y2="-1696.1785" gradientTransform="matrix(6.123234e-17 1 -1 6.123234e-17 -1676.1785 -343.4169)">
	<stop  offset="0" style="stop-color:#F4F4F4"/>
	<stop  offset="1" style="stop-color:#D3D5D9"/>
</linearGradient>
<path class="st0" d="M37,26.2V13.6c0-2.1-1.1-4.1-3-5.2L23,2.1c-1.8-1.1-4.2-1.1-6,0L6,8.4c-1.9,1.1-3,3.1-3,5.2v12.6
	c0,2.1,1.1,4.1,3,5.2l11,6.3c1.8,1.1,4.2,1.1,6,0l11-6.3C35.8,30.3,37,28.4,37,26.2z"/>
<title>Asset 1</title>
<g id="Layer_2_2_">
	<g id="Layer_1-2_1_">
		<path d="M27.6,13.4l-2.6,1.3L12.7,21c0-0.3-0.1-0.6-0.1-1c0-4.1,3.3-7.4,7.4-7.4c1.3,0,2.5,0.3,3.6,0.9l1.5-0.7l0.2-0.1
			c-4-2.9-9.7-2-12.6,2C11.6,16.3,11,18.1,11,20c0,0.2,0,0.5,0,0.7c0,0.7-0.3,1.3-0.9,1.6l-0.8,0.4v1.8l2.3-1.2l0,0l0.7-0.4l0.7-0.4
			l0,0l13-6.6l1.5-0.7l3-1.5v-1.8L27.6,13.4z"/>
		<path d="M30.6,15.5l-16.8,8.6l-1.5,0.7l-3,1.5v1.8l3-1.5l2.6-1.3L27.3,19c0,0.3,0.1,0.6,0.1,1c0,4.1-3.3,7.4-7.4,7.4
			c-1.3,0-2.5-0.3-3.6-0.9l-0.1,0l-1.6,0.8c4,2.9,9.7,2,12.6-2c1.1-1.5,1.7-3.4,1.7-5.3c0-0.2,0-0.5,0-0.7c0-0.7,0.3-1.3,0.9-1.6
			l0.8-0.4V15.5z"/>
	</g>
</g>
</svg>
