<?xml version="1.0" encoding="utf-8"?>
<!-- Generator: Adobe Illustrator 22.0.0, SVG Export Plug-In . SVG Version: 6.00 Build 0)  -->
<svg version="1.1" id="Layer_1" xmlns="http://www.w3.org/2000/svg" xmlns:xlink="http://www.w3.org/1999/xlink" x="0px" y="0px"
	 viewBox="0 0 40 40" style="enable-background:new 0 0 40 40;" xml:space="preserve">
<style type="text/css">
	.st0{fill:url(#SVGID_1_);}
	.st1{fill:#FFFFFF;}
</style>
<linearGradient id="SVGID_1_" gradientUnits="userSpaceOnUse" x1="1067.4169" y1="-3085.1785" x2="1104.7087" y2="-3085.1785" gradientTransform="matrix(0 1 -1 0 -3065.1785 -1066.0419)">
	<stop  offset="0" style="stop-color:#9C4ED6"/>
	<stop  offset="1" style="stop-color:#5D24C6"/>
</linearGradient>
<path class="st0" d="M37,26.3V13.7c0-2.1-1.1-4.1-3-5.2L23,2.2c-1.9-1.1-4.1-1.1-6,0L6,8.5c-1.9,1.1-3,3.1-3,5.2v12.6
	c0,2.1,1.1,4.1,3,5.2l11,6.3c1.9,1.1,4.1,1.1,6,0l11-6.3C35.8,30.4,37,28.5,37,26.3z"/>
<g>
	<path class="st1" d="M28.5,19c-0.2,0-0.4-0.1-0.7-0.1c-0.1-0.5-0.2-1.1-0.3-1.6c3,0.5,5,1.3,5,2.1c0,0,0,0,0,0
		c-0.1,1.5-5.6,2.6-12.5,2.6c-6.9,0-12.5-1.2-12.5-2.7c0,0,0,0,0,0c0-0.9,2-1.6,5.1-2.1c-0.2,0.5-0.3,1-0.3,1.6
		c-0.3,0-0.5,0.1-0.8,0.2c-0.3,0.1-0.6,0.1-0.9,0.2v0c-0.3,0.1-0.5,0.2-0.8,0.2c0.4,0.2,1,0.3,1.7,0.4c0.2,0,0.5,0.1,0.7,0.1v0
		c2.1,0.4,4.8,0.6,7.8,0.6c3.1,0,5.8-0.2,7.9-0.6v0c0.2,0,0.4-0.1,0.6-0.1c0.7-0.1,1.2-0.3,1.7-0.4C29.8,19.3,29.2,19.1,28.5,19z"/>
	<path class="st1" d="M29.4,14.8C29.4,14.8,29.4,14.8,29.4,14.8c0-0.8-2.1-1.5-5.1-1.8c0.7,0.5,1.4,1.1,1.9,1.8c0,0,0.1,0,0.1,0
		c0,0-0.1,0-0.1,0l0,0c-1.6,0.3-3.7,0.5-6.2,0.5c-2.4,0-4.6-0.2-6.2-0.5l0,0c0,0,0,0-0.1,0c0,0,0.1,0,0.1,0c0.5-0.7,1.2-1.3,1.9-1.8
		c-3,0.3-5.1,1-5.1,1.8v0l0,0c0,1,4.5,1.8,7.6,2c0.7,0,1.8,0.1,1.8,0.1c0.4,0,1.1,0,1.7,0C24.9,16.6,29.4,15.8,29.4,14.8z"/>
	<path class="st1" d="M10.7,25c0-0.5,0.9-1,2.4-1.3c0.2,0.5,0.5,0.9,0.8,1.3c0,0,0,0-0.1,0c0,0,0.1,0,0.1,0c0,0,0,0,0,0h0
		c1.6,0.3,3.7,0.5,6.1,0.5s4.6-0.2,6.1-0.5h0c0,0,0,0,0,0c0,0,0.1,0,0.1,0c0,0-0.1,0-0.1,0c0.3-0.4,0.6-0.9,0.8-1.3
		c1.5,0.4,2.4,0.8,2.4,1.3c0,0,0,0,0,0c-0.1,1.1-4.2,2-9.4,2S10.8,26.1,10.7,25C10.7,25,10.7,25,10.7,25z"/>
</g>
</svg>
