<?xml version="1.0" encoding="utf-8"?>
<!-- Generator: Adobe Illustrator 23.0.1, SVG Export Plug-In . SVG Version: 6.00 Build 0)  -->
<svg version="1.1" id="Layer_1" xmlns="http://www.w3.org/2000/svg" xmlns:xlink="http://www.w3.org/1999/xlink" x="0px" y="0px"
	 viewBox="0 0 40 40" style="enable-background:new 0 0 40 40;" xml:space="preserve">
<style type="text/css">
	.st0{fill:url(#SVGID_1_);}
	.st1{fill:#FFFFFF;}
</style>
<linearGradient id="SVGID_1_" gradientUnits="userSpaceOnUse" x1="-102.5831" y1="679.1784" x2="-65.2914" y2="679.1784" gradientTransform="matrix(6.123234e-17 1 1 -6.123234e-17 -659.1784 103.9581)">
	<stop  offset="1.198743e-03" style="stop-color:#008DBB"/>
	<stop  offset="1" style="stop-color:#002A8F"/>
</linearGradient>
<path class="st0" d="M37,26.3V13.7c0-2.1-1.1-4.1-3-5.2L23,2.2c-1.9-1.1-4.1-1.1-6,0L6,8.5c-1.9,1.1-3,3.1-3,5.2v12.6
	c0,2.1,1.1,4.1,3,5.2l11,6.3c1.9,1.1,4.1,1.1,6,0l11-6.3C35.8,30.4,37,28.5,37,26.3z"/>
<g id="Layer_2">
	<g id="Layer_1-2">
		<path class="st1" d="M20,9.5l-1.9,1.1l-5.2,3l-1.9,1.1v10.5l1.9,1.1l5.3,3l1.9,1.1l1.9-1.1l5.2-3l1.9-1.1V14.8l-1.9-1.1l-5.2-3
			L20,9.5z M14.8,23V17l5.2-3l5.2,3V23l-5.2,3L14.8,23z"/>
	</g>
</g>
</svg>
