<?xml version="1.0" encoding="utf-8"?>
<!-- Generator: Adobe Illustrator 22.0.0, SVG Export Plug-In . SVG Version: 6.00 Build 0)  -->
<svg version="1.1" id="Layer_1" xmlns="http://www.w3.org/2000/svg" xmlns:xlink="http://www.w3.org/1999/xlink" x="0px" y="0px"
	 viewBox="0 0 90 90" enable-background="new 0 0 90 90" xml:space="preserve">
<rect fill="#2081E2" width="90" height="90"/>
<g>
	<path fill="#FFFFFF" d="M20.6,48.5l0.2-0.3l11.7-18.3c0.2-0.3,0.6-0.2,0.7,0.1c2,4.4,3.6,9.8,2.9,13.2c-0.3,1.4-1.3,3.3-2.3,5
		c-0.1,0.3-0.3,0.5-0.4,0.7c-0.1,0.1-0.2,0.2-0.3,0.2h-12C20.6,49.2,20.4,48.8,20.6,48.5z"/>
	<path fill="#FFFFFF" d="M72.7,51.9v2.9c0,0.2-0.1,0.3-0.2,0.4c-0.9,0.4-4,1.8-5.3,3.6C63.9,63.4,61.4,70,55.8,70H32.3
		c-8.3,0-15-6.8-15-15.1v-0.3c0-0.2,0.2-0.4,0.4-0.4h13.1c0.3,0,0.4,0.2,0.4,0.5c-0.1,0.9,0.1,1.7,0.5,2.5c0.8,1.6,2.4,2.6,4.1,2.6
		h6.5v-5.1h-6.4c-0.3,0-0.5-0.4-0.3-0.6c0.1-0.1,0.1-0.2,0.2-0.3c0.6-0.9,1.5-2.2,2.3-3.7c0.6-1,1.2-2.1,1.6-3.2
		c0.1-0.2,0.2-0.4,0.2-0.6c0.1-0.4,0.3-0.7,0.3-1c0.1-0.3,0.2-0.6,0.2-0.8c0.2-0.9,0.3-1.9,0.3-2.9c0-0.4,0-0.8-0.1-1.2
		c0-0.4-0.1-0.9-0.1-1.3c0-0.4-0.1-0.8-0.2-1.2c-0.1-0.6-0.2-1.2-0.4-1.8L40,35.7c-0.1-0.4-0.2-0.8-0.3-1.2
		c-0.4-1.3-0.8-2.5-1.2-3.6c-0.2-0.5-0.3-0.9-0.5-1.3c-0.3-0.7-0.6-1.3-0.8-1.8c-0.1-0.3-0.2-0.5-0.4-0.7c-0.1-0.3-0.3-0.5-0.4-0.8
		c-0.1-0.2-0.2-0.4-0.3-0.6l-0.8-1.5c-0.1-0.2,0.1-0.4,0.3-0.4l4.9,1.3h0c0,0,0,0,0,0l0.7,0.2l0.7,0.2l0.3,0.1v-2.9
		c0-1.4,1.1-2.6,2.5-2.6c0.7,0,1.3,0.3,1.8,0.8c0.5,0.5,0.7,1.1,0.7,1.8V27l0.5,0.1c0,0,0.1,0,0.1,0.1c0.1,0.1,0.3,0.2,0.6,0.4
		c0.2,0.1,0.4,0.3,0.6,0.5c0.5,0.4,1,0.9,1.7,1.4c0.2,0.1,0.3,0.3,0.5,0.4c0.8,0.7,1.7,1.6,2.6,2.6c0.2,0.3,0.5,0.6,0.7,0.8
		c0.2,0.3,0.5,0.6,0.7,0.9c0.3,0.4,0.6,0.8,0.9,1.2c0.1,0.2,0.3,0.4,0.4,0.6c0.4,0.5,0.7,1.1,1,1.6c0.1,0.3,0.3,0.5,0.4,0.8
		c0.3,0.7,0.6,1.5,0.8,2.2c0.1,0.2,0.1,0.3,0.1,0.5v0c0.1,0.2,0.1,0.5,0.1,0.7c0.1,0.8,0,1.5-0.1,2.3c-0.1,0.3-0.2,0.6-0.3,1
		c-0.1,0.3-0.2,0.6-0.4,1c-0.3,0.6-0.6,1.3-1,1.9c-0.1,0.2-0.3,0.5-0.4,0.7c-0.2,0.2-0.3,0.5-0.5,0.7c-0.2,0.3-0.4,0.6-0.6,0.8
		c-0.2,0.3-0.4,0.5-0.6,0.8c-0.3,0.4-0.6,0.7-0.9,1c-0.2,0.2-0.4,0.4-0.6,0.6c-0.2,0.2-0.4,0.4-0.6,0.6c-0.3,0.3-0.6,0.6-0.8,0.7
		l-0.5,0.5c-0.1,0.1-0.2,0.1-0.3,0.1h-3.9v5.1h5c1.1,0,2.2-0.4,3-1.1c0.3-0.3,1.6-1.4,3.1-3c0.1-0.1,0.1-0.1,0.2-0.1l13.7-4
		C72.5,51.5,72.7,51.7,72.7,51.9z"/>
</g>
</svg>
