<?xml version="1.0" encoding="utf-8"?>
<!-- Generator: Adobe Illustrator 22.0.0, SVG Export Plug-In . SVG Version: 6.00 Build 0)  -->
<svg version="1.1" id="Layer_1" xmlns="http://www.w3.org/2000/svg" xmlns:xlink="http://www.w3.org/1999/xlink" x="0px" y="0px"
	 viewBox="0 0 40 40" style="enable-background:new 0 0 40 40;" xml:space="preserve">
<style type="text/css">
	.st0{fill:url(#SVGID_1_);}
	.st1{fill:#FFFFFF;}
</style>
<linearGradient id="SVGID_1_" gradientUnits="userSpaceOnUse" x1="797.2169" y1="2647.1785" x2="834.5087" y2="2647.1785" gradientTransform="matrix(0 1 1 0 -2627.1785 -796.0419)">
	<stop  offset="1.198744e-03" style="stop-color:#0995F9"/>
	<stop  offset="1" style="stop-color:#063DBB"/>
</linearGradient>
<path class="st0" d="M37,26.1V13.5c0-2.1-1.1-4.1-3-5.2L23,2c-1.9-1.1-4.1-1.1-6,0L6,8.3c-1.9,1.1-3,3.1-3,5.2v12.6
	c0,2.1,1.1,4.1,3,5.2l11,6.3c1.9,1.1,4.1,1.1,6,0l11-6.3C35.8,30.2,37,28.3,37,26.1z"/>
<path class="st1" d="M13.6,10.5l-1.2,1.2l2.9,3l2.9,3v2.8v2.8H20h1.7v-2.8v-2.8l2.9-3l2.9-3l-1.2-1.2l-1.2-1.2l-2.6,2.6
	c-1.4,1.4-2.6,2.6-2.6,2.6c0,0-1.2-1.2-2.6-2.6c-1.4-1.4-2.6-2.6-2.6-2.6C14.8,9.3,14.3,9.9,13.6,10.5z M12.4,17.5
	c-0.4,0.8-0.8,2.1-0.9,3.2c-0.1,0.5,0,1.7,0.1,2.2c0.7,4.8,5.2,8.1,10,7.3c3.1-0.6,5.7-2.8,6.7-5.8c0.3-1,0.4-1.7,0.4-2.8
	c0-1.2-0.1-2-0.5-3.1c-0.1-0.4-0.5-1.1-0.5-1.1c0,0-0.6,0.6-1.3,1.3C25.1,19.9,25,20,25,20.1c0,0.1,0,0.2,0.1,0.4
	c0.1,0.4,0.1,1,0.1,1.5c0,0.5-0.1,0.8-0.2,1.3c-0.5,1.5-1.7,2.8-3.2,3.3c-0.6,0.2-0.9,0.2-1.6,0.3c-0.8,0-1,0-1.6-0.2
	C16.8,26,15.5,24.7,15,23c-0.2-0.5-0.2-0.9-0.2-1.5c0-0.6,0-0.7,0.2-1.4c0-0.1-0.3-0.4-1.3-1.4l-1.3-1.3L12.4,17.5z"/>
</svg>
